<svg xmlns="http://www.w3.org/2000/svg" version="1.1" width="600px" height="600px" viewBox="0 0 200 200" style="overflow:hidden!important;"><defs id="SvgjsDefs15696"><linearGradient id="SvgjsLinearGradient16377" x1="82.1605" y1="89.1997" x2="82.1605" y2="110.4876" gradientUnits="userSpaceOnUse" class="svga-on-canvas-glasses-gradient-single-0-null"><stop id="SvgjsStop16378" stop-opacity="1" stop-color="#3d2d1c" offset="0.0208" ></stop><stop id="SvgjsStop16379" stop-opacity="0.6291" stop-color="#402e1c" offset="0.3825" ></stop><stop id="SvgjsStop16380" stop-opacity="0.3897" stop-color="#48321d" offset="0.6159" ></stop><stop id="SvgjsStop16381" stop-opacity="0.1881" stop-color="#57381f" offset="0.8124" ></stop><stop id="SvgjsStop16382" stop-opacity="7.593334e-03" stop-color="#6c4221" offset="0.9884" ></stop><stop id="SvgjsStop16383" stop-opacity="0" stop-color="#6d4221" offset="0.9958" ></stop></linearGradient><linearGradient id="SvgjsLinearGradient16385" x1="-17.8395" y1="89.1997" x2="-17.8395" y2="110.4876" gradientTransform="matrix(-1 0 0 1 100 0)" gradientUnits="userSpaceOnUse" class="svga-on-canvas-glasses-gradient-single-1-null"><stop id="SvgjsStop16386" stop-opacity="1" stop-color="#3d2d1c" offset="0.0208" ></stop><stop id="SvgjsStop16387" stop-opacity="0.6291" stop-color="#402e1c" offset="0.3825" ></stop><stop id="SvgjsStop16388" stop-opacity="0.3897" stop-color="#48321d" offset="0.6159" ></stop><stop id="SvgjsStop16389" stop-opacity="0.1881" stop-color="#57381f" offset="0.8124" ></stop><stop id="SvgjsStop16390" stop-opacity="7.593334e-03" stop-color="#6c4221" offset="0.9884" ></stop><stop id="SvgjsStop16391" stop-opacity="0" stop-color="#6d4221" offset="0.9958" ></stop></linearGradient></defs><g id="svga-group-wrapper"><g id="svga-group-backs-single"><path id="SvgjsPath16170" d="M0 0h200v200H0V0z" fill="#5e8c6a" stroke-width="none" opacity="1" stroke="none"></path></g><g id="svga-group-humanwrap-move" transform="matrix(1,0,0,1,0,0)"><g id="svga-group-humanwrap" transform="matrix(1.1000003000000003,0,0,1.1000003000000003,-9.986919799841914,-12.322110711948795)"><g id="svga-group-hair-back-move" transform="matrix(1,0,0,1,0,0)"><g id="svga-group-hair-back" transform="matrix(1,0,0,1,0,0)"><path id="SvgjsPath16480" d="M104.4 32.9S87 15.4 57 33.5s-24.1 62-14.9 79.8 6.2 36.5-6 35.2c0 0 1.3 8.4 15.7 8.7 0 0 6 4.3 15.7 1.4 0 0 1.6 4.3 12.2 1.4s40.6-1.1 40.6-1.1 7 3.8 14.1.8c0 0 11.1 2.7 16-2.2 0 0 11.9 3 16.2-6 0 0-11.6-.3-11.9-10.8s2.2-15.2 8.4-27.9 5.7-40.9-4.6-57.7-28.4-23.8-38.2-24.4-15.9 2.2-15.9 2.2z" fill="#b03726" stroke-width="none" opacity="1" stroke="none"></path><path id="SvgjsPath16481" d="M106.2 35.4s13.8-7.5 35.1 5.4 24.3 44.8 22.7 58.5-15.4 28-13.8 39.4c1.6 11.3 8.6 14 12.9 14 0 0-9.4 4.3-13.8-4.3s-4.1-14.3 2.2-24.8 12.4-22.9 10.5-35.1-7.6-33.7-20.5-43.4c-12.9-9.7-24.2-11-35.3-9.7zm1.1 2.6s21.9-1.1 34.9 13.1c10.6 11.6 14.6 21.5 14.4 42.4-.2 15.3-10.5 29.3-13.5 37.4S140.5 152 148 156c0 0-8.1.2-10.7-11.4s8.4-25.3 11.9-30.4c3.5-5.1 5.2-22.5 3.1-34.2-2.5-13.7-5.9-22.3-20.5-32.1S107.3 38 107.3 38zm-4.8-3.6s-8.1-4-26.3-2.3C58 33.9 42.8 51.3 42.1 71.8s4.3 38.4 11.9 52.5-1 28.8-11.1 28.5c0 0 13.6-8.1 9.6-23s-10.4-18.9-12.4-45.2S44.6 48 53 40.6s24.7-16 49.5-6.2zm-1.3 3.3S80 30.9 63.3 48.3s-18.9 42.4-12.4 56.1 15.9 30.6 14.9 39.9-12.4 12.1-12.4 12.1 10.4-7.6 7.8-21-11.9-25.3-14.9-36.9c-3-11.6-3-25 4-39.7s23.4-30.7 50.9-21.1z" fill="#b84131" stroke-width="none" opacity="1" stroke="none"></path><path id="SvgjsPath16482" d="M80.8 42.8s-22.6 3-27.4 30.2 4.8 42.1 9.1 49.2c4.3 7.1 9.1 14.4 8.9 22.1S68.1 157 68.1 157s5.8-4.6 6.3-12.4-3.8-18-5.6-22.6c-1.8-4.6-10.1-49.2-3.6-61.3s11-15.7 15.6-17.9zm36.1 2s12 3.8 19.1 12.2 12.4 24.6 9.1 38.8-15.5 37.8-15.7 44.6c-.2 6.8 1.6 13.2 5 19.4 0 0-9.3-4.9-8.8-18.1.5-13.2 7.1-27.6 9.9-36.5 0 0 4.7-23.7-2.3-37.8-7-14.1-17.1-22.8-17.1-22.8l.8.2zM73.9 158s4.4-7.7 3.4-23.1c0 0 3.3 4.3 3.9 13.2.7 8.9-7.3 9.9-7.3 9.9zm50.5-21.6s-2.6 12.2 1.6 22c0 0-5.8-2.6-6.7-10.6-.8-7.9 5.1-11.4 5.1-11.4z" fill="#a92d1c" stroke-width="none" opacity="1" stroke="none"></path></g></g><g id="svga-group-humanbody-back"><path id="SvgjsPath16000" d="m168.5 219.5-1.7-21.5s.7-9-8.8-15.3-23.4-10.1-29.5-14.2c-6.1-4.1-9.2-4.5-9-16.9s.9-40.3.9-40.3H79.6s.7 27.9.9 40.3c.2 12.4-2.9 12.8-9 16.9-6.1 4.1-20 7.9-29.5 14.2S33.2 198 33.2 198l-1.6 21.5h136.9z" fill="#f6e4e2" stroke-width="none" opacity="1" stroke="none"></path></g><g id="svga-group-chinshadow-single"><path id="SvgjsPath16236" d="M80.31 156.98c10.01 4.71 16.86 5.42 19.69 5.42s9.68-.72 19.69-5.42c-.16-1.5-.22-3.26-.19-5.38.2-12.4.9-40.3.9-40.3H79.6s.7 27.9.9 40.3c.03 2.12-.03 3.88-.19 5.38z" fill="#d7a19b" stroke-width="none" opacity="0.65" stroke="none"></path></g><g id="svga-group-humanbody-front"><path id="SvgjsPath16001" d="M73.8 175.9c5.1 2.9 11.8 5.2 17.6 5.7.4 0 .4-.6.1-.7-2.8-1.1-5.9-1.7-8.8-2.6-2.9-.9-5.8-2-8.8-2.7-.1-.1-.3.2-.1.3zm35.2 6.2c5.3-.6 11.3-3 15.9-5.8.3-.2.1-.6-.2-.5-2.6.9-5.2 2-7.8 2.9-2.6.9-5.4 1.5-8 2.5-.5.1-.5.9.1.9z" fill="#d7a19b" stroke-width="none" opacity="1" stroke="none"></path><path id="SvgjsPath16002" d="m168.4 219.4-2.1-21.4c0-2.2-.5-4.5-1.5-6.6-.9-2.1-2.3-3.9-3.9-5.5s-3.5-2.8-5.5-4c-2-1.2-4.1-2.2-6.2-3.1-4.2-1.9-8.6-3.6-12.9-5.4-2.2-.9-4.3-1.9-6.4-3-1.1-.6-2.1-1.2-3-1.9-1-.6-2-1.2-3-1.9s-2-1.5-2.8-2.6c-.8-1-1.3-2.2-1.7-3.4-.7-2.4-.8-4.8-.8-7.2 0-4.7.2-9.4.3-14.1.2-9.4.6-18.7.9-28l.6.6-20.4-.2-20.4-.1.3-.3.7 28c.1 4.7.3 9.3.4 14 0 2.4-.1 4.7-.8 7.1-.3 1.2-.9 2.3-1.6 3.3-.8 1-1.7 1.8-2.7 2.5s-2 1.3-2.9 2c-.9.6-1.9 1.3-3 1.9-2.1 1.2-4.2 2.1-6.4 3.1-4.3 1.9-8.6 3.6-12.8 5.6-2.1 1-4.2 2.1-6.1 3.2-2 1.2-3.8 2.4-5.4 4-1.6 1.6-2.9 3.4-3.8 5.4-.4 1-.8 2.1-1 3.1-.2 1.1-.4 2.2-.3 3.2v.2l-1.5 21.5-1-1.1 34 .1c11.3 0 22.7.1 34.1.2l34.2.3 34.4.5zm.2.2-34 .4-34.2.3c-11.4.1-22.9.2-34.4.2l-34.4.1h-1.1l.1-1.1 1.7-21.5v.1c-.1-5.1 2.2-9.8 5.7-13.3 1.7-1.7 3.8-3.1 5.8-4.3 2-1.2 4.2-2.2 6.3-3.2 4.3-2 8.7-3.7 13-5.4 2.1-.9 4.3-1.8 6.3-2.9 1-.5 1.9-1.1 3-1.8 1-.6 2-1.2 2.9-1.9.9-.6 1.8-1.4 2.4-2.2.7-.9 1.2-1.9 1.5-2.9.6-2.1.8-4.5.8-6.8 0-4.6-.1-9.3-.2-14l-.6-28v-.3h.3l20.4-.1 20.4-.2h.6v.6c-.1 9.3-.2 18.7-.4 28-.1 4.7-.2 9.4-.2 14 .1 2.3.2 4.6.8 6.7.3 1.1.8 2 1.4 2.9.6.8 1.4 1.6 2.4 2.2.9.6 1.9 1.3 2.9 1.9 1 .7 1.9 1.3 2.9 1.8 2 1.1 4.1 2.1 6.3 3 4.3 1.8 8.6 3.6 12.9 5.6 2.1 1 4.2 2.1 6.2 3.3 2 1.2 4 2.6 5.7 4.3 3.4 3.4 5.6 8.1 5.4 13v-.1l1.4 21.6zm-112.8-.4 1.9-13.8.1 13.8h-2zm88.6 0-1.9-13.8-.1 13.8h2z" fill="#c8837c" stroke-width="none" opacity="1" stroke="none"></path></g><g id="svga-group-clothes-single"><path id="SvgjsPath16352" d="M54.9 172.7s-17 4.4-20 11c0 0-1.6-.6-4.2.8s-4.4 18.8-4.4 35.5h147.5c0-16.8-1.8-34.1-4.4-35.5s-4.2-.8-4.2-.8c-3-6.6-20-11-20-11s-44.3 32.3-90.3 0z" fill="#335529" stroke-width="none" opacity="1"></path><path id="SvgjsPath16353" d="M77.4 142.4c-1.7-.1-8.7-.5-14.5 2.8l2.3 1.2s-8 2.4-11.1 9.6l2.3.2s-5.3 5.9-7 13.5l2.2-.2s-2.5 7.4-.8 10.9l1.8-2.1s2.2 6.3 7.4 10.4l-.4-3.9s4.7 8 15.2 13.7l-.4-4.7s5.5 6.6 12.1 9.8l-1.4-4.3s5.1 4.7 7.4 6.6l.4-2.9s4.7 4.5 7.8 6.3 3.7 7.8 3.7 7.8l1.9-5.3 1.2 2.4 6.7-5.7v2.1l2.5-3.7 1.6.8 7.2-7-.8 4.1s9-5.9 10.9-10.4l.4 2.5s7.4-7.6 9.4-12.9l.6 2.9s3.3-5.9 3.1-14.1l3.5 3.1s-.8-11.3-5.7-17.4l5.5 1.4s-3.3-7.5-12.7-10.2l2.9-1s-6.8-3.9-13.3-2.4c0 0 1.8-1.9 1.2-1.9s-9.5-1.8-9.7-.4c-.3 1.8-.8 5-1.6 7.3l2.3-.5s-5.1 5.3-3.9 7.4l4.8-3.4s-4.2 4.4-4.6 6.2-4.5 5.7-4.5 5.7l6.6-2.4s-2.9 3.2-7 5.1c-4.1 1.9-4.8 4.5-4.8 4.5l6.3-.4s-4.1.8-6.8 3.1-3.1 5.5-3.1 5.5l2.7-1.2-2.5 4.1s-1.9-3.3-3.1-5.7-5.5-4.9-4.9-5.1c.6-.2 4.7 1 4.7 1s-4.9-4.9-11.7-6.4l2.5-1.2s-3.7-.2-6.4-2.1-5.7-8.4-5.7-8.4l2.5 1s-1.8-2.7-2.8-5.6c-.7-2.3.4-3.8.4-3.8l-.5-4-.3-.9-.6-.7-.8-.4c-.2-.2-.4-.3-.6-.3z" fill="#335529" stroke-width="none" opacity="1"></path><path id="SvgjsPath16354" d="M77.4 142.4c-1.7-.1-8.7-.5-14.5 2.8l2.3 1.2s-8 2.4-11.1 9.6l2.3.2s-5.3 5.9-7 13.5l2.2-.2s-2.5 7.4-.8 10.9l1.8-2.1s2.2 6.3 7.4 10.4l-.4-3.9s4.7 8 15.2 13.7l-.4-4.7s5.5 6.6 12.1 9.8l-1.4-4.3s5.1 4.7 7.4 6.6l.4-2.9s4.7 4.5 7.8 6.3 3.7 7.8 3.7 7.8l1.9-5.3 1.2 2.4 6.7-5.7v2.1l2.5-3.7 1.6.8 7.2-7-.8 4.1s9-5.9 10.9-10.4l.4 2.5s7.4-7.6 9.4-12.9l.6 2.9s3.3-5.9 3.1-14.1l3.5 3.1s-.8-11.3-5.7-17.4l5.5 1.4s-3.3-7.5-12.7-10.2l2.9-1s-6.8-3.9-13.3-2.4c0 0 1.8-1.9 1.2-1.9s-9.5-1.8-9.7-.4c-.3 1.8-.8 5-1.6 7.3l2.3-.5s-5.1 5.3-3.9 7.4l4.8-3.4s-4.2 4.4-4.6 6.2-4.5 5.7-4.5 5.7l6.6-2.4s-2.9 3.2-7 5.1c-4.1 1.9-4.8 4.5-4.8 4.5l6.3-.4s-4.1.8-6.8 3.1-3.1 5.5-3.1 5.5l2.7-1.2-2.5 4.1s-1.9-3.3-3.1-5.7-5.5-4.9-4.9-5.1c.6-.2 4.7 1 4.7 1s-4.9-4.9-11.7-6.4l2.5-1.2s-3.7-.2-6.4-2.1-5.7-8.4-5.7-8.4l2.5 1s-1.8-2.7-2.8-5.6c-.7-2.3.4-3.8.4-3.8l-.5-4-.3-.9-.6-.7-.8-.4c-.2-.2-.4-.3-.6-.3z" fill="#ffffff" stroke-width="none" opacity="0.9"></path><path id="SvgjsPath16355" d="M146.3 160.9c-.2-.9-.7-1.8-1.2-2.6s-1.1-1.6-1.7-2.3c-1-1.2-2.1-2.3-3.3-3.3l1.8-.3c.1 0 .2-.1.3-.2.1-.2.1-.5-.1-.6-1.3-.9-2.8-1.3-4.2-1.7-1.4-.4-2.9-.7-4.3-.9 1.4.5 2.8.9 4.1 1.5.7.3 1.4.5 2 .8.3.1.6.3.8.4-.5.1-1.1.2-1.6.3-.1 0-.2.1-.3.2-.2.2-.1.5.1.7 1.4 1.2 2.8 2.5 4 3.8 1.1 1.2 2.1 2.4 2.8 3.8-.6-.4-1.3-.7-1.9-1.1l2.4 1.8c.1 0 .1.1.2 0s.1-.2.1-.3zm-12.2 12.2c-.2 1-.5 2.1-.8 3.1-.2.6-.4 1.3-.6 1.9l-.6-1.4c-.1-.1-.2-.2-.4-.3-.3-.1-.5.1-.6.4-.4 1.9-.9 3.7-1.4 5.6-.3.9-.6 1.8-1 2.7-.3.7-.7 1.3-1.2 1.9.1-.9.2-1.8.2-2.7-.3 1.1-.5 2.2-.7 3.3v.2c.1.1.2.1.3.1.9-.6 1.4-1.4 1.9-2.3.5-.9.9-1.8 1.3-2.7.5-1.4.9-2.8 1.3-4.2l.6 1.2c.1.1.1.2.3.2.2.1.5 0 .6-.3.8-2.1 1.2-4.2 1.6-6.3.2-1.1.3-2.1.4-3.2.1-1.1.2-2.1.2-3.2-.2 1.1-.4 2.1-.6 3.2-.4.8-.5 1.8-.8 2.8zm-42.2 2.1c.5.3 1.1.6 1.6.9.8.5 1.5 1.1 2.1 1.8l-2.1.1c-.1 0-.2 0-.2.1-.1.1-.1.3 0 .4l2.5 2.1c.4.4.8.7 1.2 1.1.4.4.8.7 1.1 1.2-.3-.5-.6-.9-1-1.3s-.7-.8-1.1-1.2l-1.8-1.8 2.2.1c.1 0 .2 0 .2-.1.2-.1.2-.4.1-.5-.8-1.1-1.7-1.9-2.8-2.6-.5-.4-1.1-.7-1.7-1-.6-.3-1.2-.5-1.8-.7-1.1-.4-2.2-1-3.2-1.7-.8-.5-1.5-1.1-2.2-1.6l2.1-.6c.1 0 .2-.1.2-.2.1-.2.1-.4-.1-.6-1.5-1-2.9-2.1-4.3-3.2-.7-.6-1.4-1.1-2-1.8-.6-.6-1.3-1.3-1.7-2.1.3.9.9 1.6 1.4 2.3.6.7 1.2 1.3 1.9 2 1.1 1 2.3 2 3.5 3l-2.2.6c-.1 0-.2.1-.2.1-.2.2-.2.5 0 .6.9.9 2 1.6 3 2.3 1.1.7 2.2 1.3 3.4 1.8.8.1 1.3.3 1.9.5zm9.1 19.5c-.9-1.5-1.8-3-2.8-4.5l2.1.6c.1 0 .3 0 .4-.1.2-.2.2-.5.1-.7-1.2-1.6-2.4-3.1-3.6-4.6l-.1-.1c-1.5-.8-3-1.7-4.5-2.6l-2.2-1.4c-.7-.5-1.4-1-2.1-1.6.5.7 1.2 1.3 1.8 1.9.7.6 1.4 1.1 2.1 1.6 1.4 1 2.8 1.9 4.3 2.8.9 1.2 1.8 2.3 2.7 3.5l-1.8-.4c-.1 0-.2 0-.3.1-.2.1-.2.4-.1.6 1.2 1.6 2.4 3.3 3.8 4.9-.5.1-.9.2-1.4.2h1.8c-.2-.1-.1-.2-.2-.2zm-37-8.3c-.6-.9-1.1-1.9-1.6-2.9-1-2-1.9-4-2.7-6.1-.1-.1-.2-.3-.4-.3-.3-.1-.5.1-.6.4l-.3 1.4c-.3-.7-.6-1.4-.8-2.2-.3-1.2-.6-2.4-.8-3.6 0-.1 0-.2-.1-.2-.2-.2-.5-.2-.6 0l-1.6 1.6c0-1.4 0-2.7.1-4 0-.8.1-1.6.2-2.5.2-.8.3-1.6.8-2.3-.5.6-.8 1.5-1 2.3-.2.8-.3 1.6-.5 2.5-.2 1.7-.3 3.3-.4 5 0 .1 0 .2.1.3.1.2.4.2.5 0 .6-.5 1.2-1 1.7-1.6.2 1 .3 2 .6 2.9l.6 1.8c.3.6.5 1.2 1 1.8.1.1.2.1.3.2.3.1.5-.1.6-.4l.2-1c.7 1.6 1.4 3.1 2.2 4.6.5 1 1.1 1.9 1.8 2.9.6.9 1.4 1.8 2.3 2.5h.1c.1 0 .2-.1.2-.2.1-1.2.1-2.3.2-3.5-.2 1-.3 2.1-.4 3.1-.6-.9-1.1-1.7-1.7-2.5zm80.3-7.9-.9 2.4c-.2-.4-.4-.8-.6-1.1-.1-.1-.2-.2-.3-.2-.3-.1-.5.1-.6.3l-1.2 3.9c-.2.6-.4 1.3-.6 1.9-.2.5-.4.9-.6 1.4-.2-.5-.3-1.1-.5-1.6.1.7.2 1.5.3 2.2 0 .1 0 .1.1.1.1.1.2.1.3 0 .5-.6.8-1.2 1.1-1.8.3-.6.6-1.2.8-1.9.4-.9.7-1.9 1-2.8.2.3.4.7.6 1l.2.2c.2.1.5 0 .6-.3.4-1.1.7-2.3 1-3.5l.3-1.8c.1-.6.1-1.2 0-1.8-.3 1.2-.7 2.3-1 3.4z" fill="#ffffff" stroke-width="none" opacity="1"></path><path id="SvgjsPath16356" d="m60.4 156.6 1.5-2.4c.5-.8 1.1-1.6 1.8-2.2-.8.6-1.4 1.4-2 2.1-.6.8-1.2 1.6-1.7 2.4-.5.8-1 1.7-1.4 2.5-.4.9-.8 1.8-1 2.8v.2c.1.1.3.2.4.1l2.3-1.1c-.5 1.4-.9 2.9-1.2 4.3-.2.9-.3 1.7-.5 2.6-.1.9-.2 1.8-.1 2.7 0 .1 0 .2.1.2.2.1.4.1.5 0l1.3-1.6c-.1 1.2-.1 2.4 0 3.5.1 1.5.4 3.1 1.1 4.4v.1c.1 0 .1 0 .2-.1l1.5-3-1.6 2.7c-.5-1.3-.7-2.7-.8-4.1-.1-1.5 0-3 .2-4.4 0-.1 0-.2-.1-.3-.1-.1-.3-.1-.5 0l-1.4 1.6c0-.6 0-1.1.1-1.7.1-.9.3-1.7.5-2.5.4-1.7.8-3.4 1.4-5v-.3c-.1-.2-.3-.2-.5-.1l-2.3 1.2c.2-.7.4-1.4.7-2 .6-1 1-1.8 1.5-2.6zm9.2 28.5c-.4-.5-.8-.9-1.2-1.4-.4-.5-.8-1-1-1.6 0 .6.3 1.3.6 1.8.3.6.7 1.1 1.1 1.6.8 1 1.7 1.9 2.7 2.7l.1.1c.2 0 .3-.1.3-.2.2-.8.3-1.7.5-2.6-.3.6-.6 1.3-.8 1.9l-2.3-2.3zm16.2 8.5c-.6-.6-1.1-1.3-1.6-1.9-.5-.6-1-1.3-1.5-2v-.1s-.1-.2-.2-.2c-.1-.1-.2-.1-.3-.1-.1 0-.2.1-.2.1l-.1.1c-.1.1-.2.2-.2.3l-.3.6-.3.6c-.7-.8-1.4-1.6-2-2.5-.7-1-1.5-2-2.1-3.1.4 1.2 1 2.3 1.7 3.4s1.4 2.1 2.2 3.1l.1.1c.2.1.4 0 .5-.2l.5-1.1c.1-.1.1-.3.2-.4.4.6.9 1.2 1.3 1.8 1.1 1.3 2.2 2.6 3.6 3.6h.1c.1 0 .2 0 .2-.1l.9-3c-.4.9-.8 1.7-1.2 2.6-.4-.5-.9-1.1-1.3-1.6zm-3.8-3.7s-.1-.1 0 0zm-4.5-12.5c.7.7 1.4 1.4 2.4 1.8.1 0 .1 0 .1-.1.1-.6.1-1.2.1-1.9-.1.6-.2 1.1-.3 1.6-.8-.5-1.4-1.1-2-1.8-.6-.7-1.1-1.6-1.6-2.4-.1-.1-.2-.2-.3-.2-.2 0-.3.2-.3.4l.3 2.1-1.8-1.6-1.2-1.1-.6-.6c-.1-.1-.2-.2-.2-.3v-.1l-.1-.2c-.4-1-.9-2.1-1.3-3.1-.4-1.1-.8-2.1-.9-3.2-.1.6 0 1.1.1 1.7.1.6.2 1.1.4 1.7.3 1.1.7 2.2 1.1 3.2l.1.2v.1c0 .1.1.1.1.2.1.2.2.2.3.4l.6.6 1.2 1.2c.8.8 1.7 1.5 2.5 2.3.1.1.2.1.3.1.2 0 .3-.2.3-.4l-.3-1.6c.4.3.7.7 1 1zm26.6 29.5c-.4-.8-.9-1.6-1.4-2.3-.7-.9-1.2-1.8-2.2-2.6-.9-.6-1.7-1.3-2.5-2.1s-1.6-1.5-2.2-2.4c.4 1 1.1 1.9 1.8 2.8.7.9 1.5 1.7 2.4 2.3.8.6 1.4 1.5 2.1 2.4.6.9 1.3 1.8 1.9 2.7 0 .1.1.1.2.1s.2-.1.2-.2v-2.9c0 .8-.2 1.5-.3 2.2zM66 158.6c.4-1.3 1-2.6 1.6-3.8v-.1c0-.2-.1-.4-.3-.4l-1.7-.1c.6-.7 1.3-1.3 2.1-1.9.9-.7 1.9-1.3 3-1.8.1 0 .1-.1.2-.2.1-.2 0-.4-.2-.4-.8-.4-1.6-.7-2.4-1.1 1.1-.5 2.1-1 3.2-1.5.6-.3 1.3-.6 1.9-.8.7-.2 1.3-.5 2-.6-.7 0-1.4.2-2.1.4-.7.2-1.3.4-2 .7-1.3.5-2.6 1.1-3.9 1.6-.1 0-.1.1-.1.1-.1.1 0 .3.1.4.8.4 1.5.8 2.3 1.1-.9.4-1.7.9-2.5 1.5-1 .7-1.9 1.6-2.6 2.6 0 .1-.1.1-.1.2 0 .2.1.4.3.4l1.8.1c-.5 1.1-.9 2.3-1.3 3.4-.4 1.3-.7 2.7-.7 4.1v.1c.1.1.1.1.2 0 .7-.6 1.4-1.3 2.1-2-.7.5-1.3 1-2 1.6.4-1.2.7-2.4 1.1-3.6zm71.1-4.8c1.4.8 2.8 1.6 4.1 2.4l-2.1.5h-.1c-.1.1-.1.2-.1.4.9 1.3 1.8 2.7 2.5 4.1.6 1.2 1.1 2.5 1.4 3.8l-1.8-.9c-.1 0-.2-.1-.2 0-.2.1-.3.2-.3.4.3 1.4.6 2.8.7 4.3.1 1.4.1 2.9-.1 4.3s-.6 2.8-1.1 4.2c-.4 1-.8 2.1-1.3 3l-.7-5.1c0-.1-.1-.2-.2-.2s-.3 0-.3.2c-.4 1.6-1 3.1-1.6 4.6-.6 1.4-1.2 2.9-2 4.2l-.4-2.4.2 2.6v.1h.1c.9-1.4 1.6-2.8 2.3-4.3.5-1.2.9-2.4 1.4-3.6l.6 5.1c0 .1.1.2.2.2.1.1.4 0 .4-.1.7-1.3 1.3-2.7 1.8-4.1.5-1.4.9-2.8 1.2-4.3.2-1.5.3-3 .1-4.5-.1-1.2-.3-2.5-.6-3.7l1.8.9h.2c.2 0 .3-.2.3-.4-.2-1.7-.9-3.2-1.7-4.6-.7-1.3-1.5-2.6-2.4-3.8l2.2-.6c.1 0 .1-.1.1-.1.1-.1 0-.2-.1-.3-1.6-.9-3.1-1.7-4.8-2.5l-2.4-1.2c-.8-.4-1.6-.8-2.5-.9.9.2 1.7.7 2.5 1 1.2.4 2 .9 2.7 1.3zm-16.9 46.3c.2-1 .5-2 .7-3.1-.4 1.1-.7 2.2-1.1 3.4v.1c0 .1.1.1.2.1 1.1-.5 2.1-1 3.1-1.5l1.5-.9c.5-.3 1-.8 1.4-1.2 1.4-1.5 2.7-3.1 4-4.6l.2 2.1c0 .1.1.1.1.2.1.1.3.1.5 0 1.1-1.2 2-2.6 3-3.9.5-.7.9-1.4 1.3-2.1.4-.7.8-1.4 1-2.2-.3.8-.8 1.4-1.2 2.1-.5.7-1 1.3-1.5 1.9-.8 1.1-1.7 2.1-2.6 3.2l-.2-2.2c0-.1-.1-.2-.1-.2-.1-.1-.4-.1-.5.1l-2.2 2.7c-.7.9-1.5 1.8-2.2 2.6-.4.4-.8.8-1.2 1.1-.5.3-.9.6-1.4.9-1 .4-1.9.9-2.8 1.4zm-6.1-22.5c.9.1 1.8.1 2.6.1-.7-.1-1.4-.3-2.1-.4.6-.3 1.1-.6 1.7-1 .7-.5 1.3-.9 1.9-1.5 1.2-1 2.4-2.1 3.6-3.2.1-.1.1-.1.1-.2 0-.2-.1-.4-.3-.4l-2.4-.2c.8-.7 1.6-1.4 2.4-2.2.5-.5.9-1 1.3-1.6.4-.6.8-1.2.9-1.8-.3.6-.7 1.2-1.1 1.7-.4.5-.9 1-1.4 1.4-1 .9-2 1.7-3.1 2.5-.1.1-.1.1-.1.2 0 .2.1.4.3.4l2.4.2c-1 .9-1.9 1.8-2.9 2.7-1.2 1-2.4 2.1-3.7 2.9-.1 0-.1.1-.1.1-.2.2-.1.3 0 .3z" fill="#18360f" stroke-width="none" opacity="1"></path><path id="SvgjsPath16357" d="M173.8 199.7c-.3-3.4-.7-6.8-1.4-10.1-.2-.9-.4-1.7-.6-2.5-.3-.9-.5-1.7-1.1-2.6-.2-.2-.4-.5-.7-.7-.3-.2-.4-.2-.6-.3-.4-.2-.9-.4-1.3-.5s-.9-.2-1.5-.3h-.8c-1-1.7-2.5-2.9-3.9-3.9-1.7-1.2-3.4-2.1-5.2-3l-3.6-1.5c-.3-2.6-.8-5.1-1.5-7.6-.8-2.6-1.8-5.2-3.3-7.5l4.4 1.1h.3c.2-.1.3-.3.2-.5-.6-1.4-1.5-2.4-2.4-3.6-.9-1.2-2.2-2.3-3.3-3.3-1.9-1.7-3.6-2.3-6-3.1l1.6-.6c.1 0 .2-.1.2-.2.1-.2 0-.5-.2-.6-1.1-.6-2.1-1-3.2-1.4-1.1-.4-2.2-.7-3.4-1-1.1-.2-2.3-.4-3.5-.4-.8 0-1.5.1-2.3.1.1-.1.2-.3.3-.4.1-.1.1-.2.2-.3 0-.1.1-.2.1-.5 0-.1-.1-.2-.2-.4-.1-.1-.2-.1-.3-.1h-.1l-.3-.1-.6-.1-1.1-.2c-1.5-.3-4.6-.4-6.2-.5-.4 0-.8 0-1.3.1-.1 0-.3.1-.4.2-.1.1-.3.4-.3.5l-.1.6c-.1.8-.2 1.5-.4 2.2-.3 1.5-.6 3-1.1 4.4v.3c.1.2.3.4.6.4l.7-.2c-.1.3-.5.9-1 1.6-.5.7-.9 1.4-1.4 2.2-.2.4-.4.8-.6 1.3-.1.5-.2 1.1.1 1.7v.1c.2.2.4.3.7.1l1.5-1.1c-.7.9-1.5 1.8-2 3.1-.3 1.1-1.1 2.1-1.9 3-.8.9-1.7 1.9-2.6 2.7-.1.1-.2.3-.1.5s.4.4.6.3l4.4-1.6c-.4.3-.7.6-1.1.9-1 .8-2.1 1.5-3.2 2.1-.6.3-1.1.6-1.7.9-.6.3-1.2.7-1.7 1.1-1.1.9-2 1.8-2.5 3.3v.2c0 .3.2.5.5.4l2.5-.2c-1 .4-2 1-2.9 1.7-1 .7-1.8 1.7-2.4 2.7-.6 1.1-1.1 2.2-1.3 3.4v.2c.1.2.3.3.6.2l1.5-.6-1.4 2.4c-.7-1.1-1.3-2.2-1.9-3.4-.4-.7-.7-1.3-1.1-2.1-.4-.7-1-1.3-1.6-1.8l-1.8-1.5-.9-.7-.1-.1c.5.1 1.1.2 1.7.3.7.2 1.5.4 2.2.6.1 0 .2 0 .3-.1.1-.1.1-.3 0-.5-1.7-1.6-3.6-2.9-5.5-4-1-.6-2-1.1-3.1-1.5-.8-.3-1.7-.6-2.5-.8l1.8-.9c.1 0 .2-.1.2-.2s-.1-.3-.2-.3c-1.4-.1-2.8-.4-4.1-.9-1.3-.5-2.5-1.2-3.4-2.3-.9-1-1.7-2.2-2.4-3.4-.7-1.1-1.2-2.2-1.8-3.3l2.1.8h.2c.1-.1.1-.2.1-.2-.9-1.4-1.8-2.9-2.4-4.5-.3-.7-.2-2.7-.1-4.1v-1.6L80 145c-.1-.6-.3-1.2-.8-1.7l-.3-.3c-.3-.2-.5-.4-.8-.5-.2-.1-.5-.1-.7-.2-1.1-.1-2.2-.1-3.5-.1s-2.6.2-3.8.4c-1.3.2-2.5.5-3.7.9-1.2.4-2.4.9-3.5 1.5l-.1.1c0 .1 0 .2.1.2l2 1c-1.1.4-2.1.8-3.1 1.4-1.1.6-2.2 1.3-3.2 2.1-2 1.6-3.6 3.7-4.7 6v.1c0 .1.1.3.2.3l1.8.2c-1.5 1.9-2.9 3.9-4 6-.6 1.1-1.2 2.3-1.6 3.5-.5 1.2-.8 2.4-1.2 3.7v.1c0 .2.2.3.3.3l1.7-.1c-.4 1.4-.8 2.8-1 4.2l-.9.3c-1.8.6-3.7 1.3-5.5 2.1-1.8.8-3.5 1.7-5.2 2.8-1.5 1-3 2.3-4 4-.8-.1-1.6 0-2.4.1-.4.1-.9.3-1.3.5l-.6.3c-.3.2-.5.4-.6.6-.6.8-.9 1.6-1.1 2.5-.3.8-.5 1.7-.7 2.5-.7 3.4-1.2 6.7-1.5 10.1-.6 6.8-.9 13.5-1 20.3 0 .5.4.9.8.9 6.1 0 12.3.1 18.4 0 6.2 0 12.3 0 18.4-.1l18.4-.2 9.2-.1 9.2-.1h2.7v.1h4v-.1h11.8c6.2 0 12.3 0 18.4.1l36.9.4c.4 0 .8-.4.8-.8.3-7.1.1-13.9-.5-20.6zm-71.1 20H100l-9.2-.1-9.2-.1-18.4-.2c-6.2-.1-12.3-.1-18.4-.1h-1.4c.2-2.9.3-5.8.2-8.6 0-3-.2-5.9-.5-8.9-.2-1.5-.3-2.9-.6-4.4-.1-.7-.3-1.5-.5-2.2-.2-.8-.5-1.5-.9-2.2-1.4-2.7-3.1-5.1-5.2-7.3 1.3 2.7 2.7 5.3 3.7 7.9.3.7.5 1.4.6 2l.3 2.1c.2 1.4.3 2.9.5 4.3.3 2.9.6 5.8 1 8.8.3 2.8.7 5.7 1.3 8.5H27.2c0-6.4.2-12.9.8-19.3.3-3.4.6-6.7 1.3-10l.6-2.4c.2-.8.5-1.6.9-2.1l.3-.3c.1-.1.3-.2.5-.3.4-.2.7-.3 1.1-.4.7-.2 1.6-.3 2.2-.1.2.1.5-.1.6-.3.7-1.6 2.2-2.9 3.8-4.1 1.5-1.1 3.2-2.1 5-2.9s3.5-1.6 5.3-2.3c.2-.1.4-.2.7-.2 0 .1 0 .2-.1.4-.1.9-.2 1.9-.2 2.9s.2 1.9.6 2.9c0 0 0 .1.1.1.2.1.4.1.5-.1l1.4-1.7c.8 1.8 1.7 3.6 2.8 5.2.6.9 1.3 1.8 2 2.6s1.6 1.5 2.4 2.2c.1.1.2.1.3.1.2 0 .4-.2.4-.4l-.2-2.3c.7 1 1.5 1.9 2.2 2.8 1.2 1.3 2.4 2.6 3.7 3.7 1.3 1.1 2.7 2.2 4.1 3.2 1.4 1 2.9 1.9 4.4 2.7.1 0 .2.1.2.1.2 0 .4-.2.4-.5L75 195c1.5 1.6 3.1 3.1 4.8 4.6 2 1.7 4.2 3.2 6.6 4.3.1 0 .2.1.3 0 .2-.1.3-.3.2-.5l-1-3c2.1 1.9 4.3 3.9 6.5 5.8.1 0 .1.1.2.1.2 0 .3-.1.4-.3l.3-2.3c1 .9 2 1.8 3.1 2.7 1.2 1 2.5 2 3.8 2.8 1.1.5 1.9 1.4 2.5 2.5v8zm3.6-8.2-1.6 4.3c-.2-1.2-.5-2.4-1-3.6-.3-.7-.7-1.5-1.2-2.1l-.9-.9c-.3-.3-.7-.5-1-.7-1.3-.8-2.6-1.8-3.8-2.8-1.2-1-2.4-2.1-3.5-3.1-.1 0-.1-.1-.2-.1-.2 0-.3.1-.4.3l-.3 2.3c-2.3-2-4.6-4.1-6.9-6.2-.1-.1-.2-.1-.3-.1-.2.1-.3.3-.2.4l1.1 3.4c-2-1.1-3.9-2.4-5.6-3.8-2-1.7-3.8-3.5-5.5-5.4-.1-.1-.2-.1-.3-.1-.2 0-.4.2-.4.4l.3 3.9c-1.2-.7-2.5-1.4-3.6-2.3-1.4-1-2.7-2.1-4-3.2a30.6 30.6 0 0 1-3.6-3.6c-1.1-1.3-2.2-2.6-3.1-4-.1-.1-.2-.2-.4-.2s-.4.2-.4.4l.3 2.9c-.5-.5-1.1-1-1.6-1.5-.7-.8-1.4-1.6-2-2.5-1.2-1.7-2.3-3.6-3-5.6 0-.1-.1-.1-.1-.1-.2-.1-.4-.1-.5.1l-1.4 1.7c-.2-.6-.3-1.3-.4-2 0-.9 0-1.8.1-2.7.2-1.8.7-3.6 1.2-5.4v-.1c0-.2-.2-.3-.3-.3l-1.7.2c.3-1.1.6-2.2 1-3.2.5-1.2 1-2.3 1.6-3.5 1.2-2.2 2.6-4.4 4.2-6.3l.1-.1c0-.1-.1-.3-.2-.3l-1.9-.2c1-2.1 2.5-4 4.3-5.5 1.9-1.6 4.1-2.9 6.5-3.6l.1-.1c.1-.1 0-.2-.1-.2l-2-1c1-.5 2.1-1 3.2-1.4 1.2-.4 2.4-.7 3.7-.9 1.2-.2 2.5-.4 3.8-.4 1.2-.1 2.3 0 3.5 0 .2.1.4.1.6.2.7.4 1.2.7 1.4 1.3.5 1.6-.1 6.1 0 7.1.1.9.4 1.7.7 2.5.6 1.4 1.3 2.9 2.1 4.2l-2.1-.8h-.2c-.1 0-.1.2-.1.2.6 1.3 1.2 2.6 2 3.8.7 1.2 1.5 2.4 2.5 3.5.9 1.1 2.3 1.9 3.6 2.4 1.1.4 2.1.7 3.2.9l-1.7.8c-.1 0-.1.1-.2.2 0 .1.1.3.2.3 1.1.3 2.2.6 3.2 1s2 .9 3 1.4c1.5.9 3 1.9 4.3 3-.3-.1-.6-.2-.9-.2-.8-.2-1.5-.4-2.3-.4H97c-.1 0-.1 0-.2.1-.1 0-.2.2-.2.4s.1.2.1.3c0 .1.1.1.1.1l.4.4.9.7c.6.5 1.2 1 1.7 1.5s1.1 1.1 1.4 1.7c.3.6.7 1.4 1.1 2 .7 1.4 1.5 2.7 2.3 4 0 .1.1.1.1.1.2.1.4.1.5-.1.9.9 1.8 1.8 2.6 2.7.7.9 1.3 1.9 1.7 2.9l-2.8-1.5c-.1-.1-.3-.1-.4.1-.2.1-.2.4 0 .5.9 1 1.7 2 2.4 3.1s1.4 2.2 1.8 3.4c.2.5.2 1 .3 1.6.1.6.1 1.6.1 2.2 0 .8-.1 1.5-.2 2.3l-1.3-2.9c-.1-.2-.3-.3-.5-.3s-.4.2-.4.5c.2 2 .3 3.9.3 5.9 0 1-.1 2-.3 2.9-.2.8-.5 1.6-.9 2.2l-.5-2.4c0-.1-.1-.1-.1-.1-.1 0-.1.1-.1.1 0 1-.1 1.9-.1 2.9-.4 0-.5 0-.5.1zm.2-.1c.1-.6.1-1.2.2-1.8l.2 1.8v.1c.1.1.2.1.3.1.5-.4.8-.8 1-1.3.2-.5.4-1 .5-1.5.3-1 .4-2 .4-3 .1-1.1.1-2.3 0-3.4l.9 2.1.3.3c.3.1.5-.1.6-.4.3-1.3.4-2.7.4-4 0-.7 0-1.4-.1-2 0-.3-.1-.7-.1-1-.1-.4-.1-.7-.3-1-.4-1.3-1.2-2.5-1.9-3.6-.4-.6-.8-1.1-1.3-1.7l1.8.8h.2c.2-.1.2-.2.2-.4-.4-1.4-1.3-2.6-2.2-3.6-.8-.9-1.8-1.8-2.8-2.5l2.6-4.1c.1-.1.1-.3 0-.4-.1-.2-.3-.3-.6-.2l-2 .8c.2-.8.6-1.6 1-2.3.6-.9 1.3-1.8 2.2-2.4.9-.7 1.9-1.2 2.9-1.6 1.1-.4 2.2-.8 3.2-1 .2-.1.4-.3.4-.5 0-.3-.2-.5-.5-.5l-5.4.3c.4-.8 1.1-1.5 1.8-2.1.5-.4 1-.7 1.6-1 .5-.3 1.1-.6 1.7-.9 1.2-.6 2.3-1.4 3.3-2.2 1.1-.8 2-1.7 3-2.6.1-.1.2-.3.1-.5s-.4-.4-.6-.3l-4.6 1.6c.4-.4.8-.8 1.1-1.3l1.2-1.5c.2-.3.4-.6.5-.9.1-.2.2-.3.2-.5l.2-.5c.4-1 1.2-2 2-3s1.6-1.9 2.5-2.8c.2-.2.2-.4 0-.6-.2-.2-.5-.3-.7-.1l-4.2 3c.1-.4 0-1.3 1.7-3.6 1.1-1.4.9-1.4 2.1-2.6.1-.1.2-.3.1-.4-.1-.3-.3-.4-.6-.4l-1.5.4c.4-1.2.7-2.5.9-3.7.1-.8.3-1.5.4-2.3l.1-.6h.1c.2-.1.6-.1 1-.1 1.4.1 4.6.1 6 .5l1.1.2.6.1c-.1.1-.2.3-.3.4-.2.3-.5.6-.7.9-.1.1-.1.3-.1.4.1.2.3.4.6.4 1.1-.2 2.2-.4 3.3-.4 1.1 0 2.2.1 3.3.4 1.1.2 2.2.5 3.2.9l2.1.9-1.9.6-.3.3c-.1.2.1.5.3.6 2.7.8 3.8 1.4 6.8 3.4 1.1.9 2.4 1.9 3.2 3 .7.9 1.6 1.7 2.1 2.7l-4.6-1.1c-.1 0-.2 0-.3.1-.2.1-.2.4-.1.6 1.9 2.4 3.1 5.2 3.9 8.1.7 2.3 1.3 5.6 1.6 8-.4-.1-1.8-1.5-2-1.6l-.9-.8c-.1-.1-.1-.1-.2-.1-.2 0-.3.1-.3.3.1 2.4-.2 4.8-.7 7.2-.5 2.1-1.1 4.1-2 6.1l-.4-2.1c0-.1-.1-.2-.2-.2-.1-.1-.3 0-.3.1-.5 1.2-1.1 2.4-1.8 3.5s-1.5 2.2-2.3 3.3c-1.5 2-3.2 3.9-4.9 5.7l-.3-2.1c0-.1-.1-.1-.1-.2-.1-.1-.2 0-.3.1-.5 1.1-1.3 2.1-2.1 3.1-.8.9-1.8 1.8-2.7 2.6-1.8 1.6-3.7 3-5.7 4.3l.7-3.6v-.1c-.1-.1-.2-.1-.2 0l-7.1 6.9-1.4-.7c-.1 0-.2 0-.2.1l-2.2 3.2v-1.5c0-.1 0-.1-.1-.1-.1-.1-.2-.1-.3 0l-6.4 5.4-1-2.1c.2-.2.2-.3.1-.3.1 0 0 0 0 0zm50.1 8c.6-2.9.9-5.9 1.3-8.8.4-2.9.6-5.9 1-8.8.1-1.4.3-2.9.5-4.3l.3-2.1c.1-.6.4-1.3.6-2 1.1-2.7 2.4-5.3 3.7-7.9-2 2.2-3.8 4.6-5.1 7.3-.4.7-.7 1.4-.9 2.2-.2.8-.4 1.5-.5 2.2-.3 1.5-.4 2.9-.6 4.4-.3 2.9-.5 5.9-.5 8.9-.1 2.9-.1 5.9.2 8.9l-19.7.2c-6.1.1-12.3.1-18.4.1h-11.7v-7.2l.8 1.6v.1c.1.1.2.1.3 0l6.3-5.4v1.7c0 .1 0 .1.1.2s.2 0 .3-.1l2.4-3.6 1.4.7h.2l6.8-6.6-.7 3.6v.1c.1.1.2.1.2.1 2.1-1.4 4.2-2.9 6.1-4.6 1-.8 1.9-1.7 2.8-2.7.7-.8 1.4-1.6 1.9-2.6l.3 1.9c0 .1 0 .1.1.1.1.1.2.1.3 0 1.9-1.9 3.6-4 5.3-6.1.8-1.1 1.6-2.1 2.3-3.3.6-.9 1.1-1.8 1.6-2.8l.4 2.1c0 .1.1.1.1.2.1.1.3 0 .4-.1.6-1.1 1.1-2.2 1.5-3.4.4-1.2.8-2.3 1-3.5.4-1.6.6-3.2.7-4.8 2.1.7 4.1 1.5 6.1 2.4 1.7.8 3.4 1.7 4.9 2.8 1.5 1 2.9 2.3 3.6 3.8l1.3.5h.8c.3 0 .7.1 1 .2.4.1.7.2 1 .4.1.1.4.2.5.2l.2.2c.3.5.6 1.3.9 2l.6 2.4c.7 3.2 1.1 6.6 1.4 9.9.6 6.4.9 12.9 1 19.3h-16.4z" fill="#18360f" stroke-width="none" opacity="1"></path></g><g id="svga-group-head" transform="matrix(1,0,0,1,0,0)"><g id="svga-group-ears-left-move" transform="matrix(1,0,0,1,0,0)"><g id="svga-group-ears-left" transform="matrix(1,0,0,1,0,0)"><path id="SvgjsPath16188" d="M61.4 94.2s-2.5-4.6-5-5.4-4.1.7-3.7 6.2 4.9 21.8 9.9 20.8.9-18.4-1.2-21.6z" fill="#f6e4e2" stroke-width="none" opacity="1" stroke="none"></path><path id="SvgjsPath16189" d="M62.3 96c.3.7.5 1.4.8 2.1.5 1.4.9 2.9 1.3 4.5.4 1.5.7 3.2.9 4.8.1.8.2 1.7.2 2.6s0 1.7-.1 2.6c-.1.8-.3 1.7-.6 2.3-.3.7-.7 1.1-1.2 1.4-.9.5-1.8.4-2.7-.1s-1.7-1.5-2.4-2.5c-.7-1.1-1.3-2.4-1.9-3.7-.6-1.3-1.1-2.8-1.5-4.2-.5-1.4-.9-2.9-1.3-4.4-.4-1.5-.8-3.1-1.1-4.7s-.4-3.4-.3-5.1c.1-.8.3-1.7.7-2.3.3-.6.8-.9 1.2-1.1s.9-.1 1.3-.1c.4.1.9.3 1.3.5.8.5 1.6 1.4 2.4 2.4.7 1 1.4 2 2.1 3.2.3.5.6 1.1.9 1.8zm-3.1-4.7c-.8-.8-1.5-1.5-2.3-1.8s-1.6-.4-2.3-.1c-.4.2-.7.4-.9.8-.3.4-.4 1-.5 1.7-.2 1.4-.1 3 .1 4.5.2 1.6.5 3.1.9 4.7.7 3 1.7 5.9 2.9 8.3.6 1.2 1.2 2.3 1.9 3.3.7.9 1.4 1.7 2.2 2.1.4.2.8.3 1.2.3s.8-.1 1.1-.3c.3-.2.6-.6.8-1 .2-.5.4-1.1.5-1.8.2-1.4.1-2.9 0-4.5s-.4-3.1-.6-4.7c-.3-1.6-.6-3.1-1-4.6s-.9-2.9-1.6-4c-.9-1.1-1.6-2.1-2.4-2.9z" fill="#e7c1bd" stroke-width="none" opacity="1" stroke="none"></path><path id="SvgjsPath16190" d="M55.4 92.2c2.2 1.4 4.1 5.4 5.1 9.3v.1c0 .3-.2.3-.2.1-.4-1.1-.8-1.1-1.4 0-.1.7-.1 1.4.1 2.2.1.7.4 1.3.6 1.9.5 1.1 1.1 2 1.7 2.9.2.3 0 .7-.2.5-1.3-1-3.2-4.4-2.8-7.4.2-1.4.9-2.1 1.5-1.6-.7-2-1.6-3.8-2.6-5.2-.6-.8-1.9-2.6-2.6-2.3-1.2.5-.5 4.5-.4 6.2 0 .3-.2.3-.3.1-.7-2.9-.8-8.3 1.5-6.8z" fill="#d7a19b" stroke-width="none" opacity="1" stroke="none"></path><path id="SvgjsPath16191" d="M60.6 110c-2.3-.9-3.9-4.5-4.9-8.5-.6-2.4-1.7-8 .5-8 .2 0 .3.5.1.6-2.1 1.1.2 8.6.8 10.4.9 2.5 2.1 4.1 3.5 5.1.1.1.1.5 0 .4z" fill="#d7a19b" stroke-width="none" opacity="1" stroke="none"></path></g></g><g id="svga-group-ears-right-move" transform="matrix(1,0,0,1,0,0)"><g id="svga-group-ears-right" transform="matrix(1,0,0,1,0,0)"><path id="SvgjsPath16192" d="M138.6 94.2s2.5-4.6 5-5.4 4.1.7 3.7 6.2c-.5 5.5-4.9 21.8-9.9 20.8-5.1-.9-.9-18.4 1.2-21.6z" fill="#f6e4e2" stroke-width="none" opacity="1" stroke="none"></path><path id="SvgjsPath16193" d="M138.6 94.1c.6-1.2 1.3-2.2 2.1-3.2.7-1 1.5-1.8 2.4-2.4.4-.2.9-.5 1.3-.5.4-.1.9-.1 1.3.1s.9.5 1.2 1.1.6 1.4.7 2.3c.2 1.7 0 3.5-.3 5.1s-.7 3.2-1.1 4.7c-.4 1.5-.8 3-1.3 4.4s-1 2.9-1.5 4.2c-.6 1.3-1.2 2.6-1.9 3.7s-1.5 2-2.4 2.5-1.8.6-2.7.1c-.4-.3-.8-.7-1.2-1.4-.3-.7-.5-1.5-.6-2.3-.1-.9-.1-1.7-.1-2.6s.1-1.7.2-2.6c.2-1.7.5-3.3.9-4.8s.8-3 1.3-4.5c.3-.7.5-1.4.8-2.1l.9-1.8zm.1.1c-.7 1.1-1.1 2.6-1.6 4-.4 1.5-.7 3-1 4.6s-.5 3.1-.6 4.7c-.1 1.5-.2 3.1 0 4.5.1.7.2 1.3.5 1.8.2.5.5.8.8 1s.7.3 1.1.3c.4 0 .8-.1 1.2-.3.8-.4 1.5-1.2 2.2-2.1.7-1 1.3-2.1 1.9-3.3 1.2-2.5 2.2-5.3 2.9-8.3.4-1.5.7-3.1.9-4.7.2-1.5.2-3.2.1-4.5-.1-.7-.3-1.2-.5-1.7-.3-.4-.6-.7-.9-.8-.7-.3-1.6-.2-2.3.1-.8.3-1.6 1-2.3 1.8-1.1.8-1.8 1.8-2.4 2.9z" fill="#e7c1bd" stroke-width="none" opacity="1" stroke="none"></path><path id="SvgjsPath16194" d="M139.4 110c2.3-.9 3.9-4.5 4.9-8.5.6-2.4 1.7-8-.5-8-.2 0-.3.5-.1.6 2.1 1.1-.2 8.6-.8 10.4-.9 2.5-2.1 4.1-3.5 5.1-.1.1-.1.5 0 .4z" fill="#d7a19b" stroke-width="none" opacity="1" stroke="none"></path><path id="SvgjsPath16195" d="M144.6 92.2c-2.2 1.4-4.1 5.4-5.1 9.3v.1c0 .3.2.3.2.1.4-1.1.8-1.1 1.4 0 .1.7.1 1.4-.1 2.2-.1.7-.4 1.3-.6 1.9-.5 1.1-1.1 2-1.7 2.9-.2.3 0 .7.2.5 1.3-1 3.2-4.4 2.8-7.4-.2-1.4-.9-2.1-1.5-1.6.7-2 1.6-3.8 2.6-5.2.6-.8 1.9-2.6 2.6-2.3 1.2.5.5 4.5.4 6.2 0 .3.2.3.3.1.7-2.9.8-8.3-1.5-6.8z" fill="#d7a19b" stroke-width="none" opacity="1" stroke="none"></path></g></g><g id="svga-group-faceshape-wrap" transform="matrix(1,0,0,1,0,0)"><g id="svga-group-faceshape-single"><path id="SvgjsPath16226" d="M100.01 40.83c-21.4 0-39.8 15.6-41 44.1 0 0 .1 15.8 2.5 28.3 2.3 12.6 3.5 24.2 15.4 30.5 11.9 6.4 20 7.2 23.2 7.2 3.1 0 11.2-.9 23.2-7.2s13.1-18 15.4-30.5c2.3-12.6 2.5-28.3 2.5-28.3-1.4-28.4-19.8-44.1-41.2-44.1z" fill="#f6e4e2" stroke-width="none" opacity="1" stroke="none"></path><path id="SvgjsPath16227" d="M100 41.3c-21.4 0-39.8 15.6-41 44.1 0 0 .1 15.8 2.5 28.3s3.5 24.2 15.4 30.5c11.9 6.4 20 7.2 23.2 7.2 3.1 0 11.2-.9 23.2-7.2 11.9-6.4 13.1-18 15.4-30.5 2.3-12.6 2.5-28.3 2.5-28.3-1.4-28.4-19.8-44.1-41.2-44.1zm35.5 26.9.7 2.2c.1.4.6 2.2.6 2.2.1.4.9 4.5.9 4.5.1.4.3 2.4.3 2.4 0 .4.1.8.1 1.2l.2 2.4.2 2.7v.6c-.1 3.2-.3 6.4-.5 9.6s-.5 6.4-.9 9.6c-.2 1.6-.4 3.2-.6 4.7-.1.8-.2 1.6-.4 2.3-.1.8-.3 1.6-.4 2.4-.5 3.2-1 6.4-1.7 9.4-.7 3.1-1.6 6-2.9 8.7-1.3 2.7-3.1 5-5.4 6.9-1.1.9-6.21 4.62-11.3 6.42-1.5.6-3.8 1.38-5.3 1.78-1.5.5-3 .9-4.5 1.2s-3.1.6-4.6.6-3.1-.1-4.6-.3c-1.6-.2-3.1-.5-4.7-.9-3.1-.8-6.1-1.9-9.1-3.2-.7-.3-1.5-.7-2.2-1-.7-.4-1.4-.7-2.2-1.1-1.4-.7-2.7-1.6-4-2.6-2.5-2-4.4-4.5-5.8-7.3s-2.3-5.9-2.9-9-1.1-6.3-1.5-9.6c-.2-1.6-.5-3.2-.6-4.8-.2-1.6-.3-3.2-.5-4.8-.2-3.2-.4-6.4-.5-9.6 0-.8-.1-1.6-.1-2.4l-.1-2.4c0-1.6-.1-3.2-.1-4.8l.1-2.2.1-1.1.1-1.2s.2-2 .3-2.4c0 0 .3-2 .4-2.4 1.1-6.1 3-12.2 6.2-17.5 1.6-2.7 3.5-5.2 5.7-7.4s4.8-4.2 7.5-5.8c1.4-.8 2.8-1.5 4.3-2.1s3-1.1 4.6-1.5l1.8-.4.6-.1 1.2-.2c3.5-.51 9.2-.4 10.8-.2.4.1.8.1 1.2.2l1.2.2.6.1 1.8.4c1.5.4 3.1.9 4.6 1.5s2.9 1.3 4.3 2.1c2.8 1.6 5.3 3.6 7.5 5.8 2.2 2.2 4.1 4.8 5.7 7.4 1.6 2.9 2.8 5.8 3.8 8.8z" fill="#c8837c" stroke-width="none" opacity="1" stroke="none"></path></g></g><g id="svga-group-mouth-single-move" transform="matrix(1,0,0,1,0,0)"><g id="svga-group-mouth-single" transform="matrix(1,0,0,1,0,0)"><path id="SvgjsPath16509" d="M84.5 124.5c.2 0 5.6 6.5 8.5 8 2.9 1.4 9 2 12.5.7s9.5-9.1 9.5-9.1-6.4 1.8-9.9 2.2c-3.5.4-11.7-.2-15-.7s-5.6-1.1-5.6-1.1z" fill="#000000" stroke-width="none" opacity="1" transform="translate(0 3)"></path><path id="SvgjsPath16510" d="M90 125.6c-3.3-.5-5.5-1.1-5.5-1.1.1 0 1.7 1.9 3.6 3.8 2.2.9 5.1 2 7.5 2.4 4.6.7 10.4.2 15.2-2.1.3-.1.6-.3.8-.4 1.9-2.1 3.4-4 3.4-4s-6.4 1.8-9.9 2.2c-3.6.3-11.8-.3-15.1-.8z" fill="#ffffff" stroke-width="none" opacity="1" transform="translate(0 3)"></path><path id="SvgjsPath16511" d="M116.9 123.3c-.1-.1-.1-.2-.2-.3-.3-.3-.6-.6-1-.6-.3 0-.5.4-.3.6 0 .1.1.1.1.2-2.4.4-4.8 1.2-7.2 1.6-2.9.5-5.9.6-8.8.7-1.3.1-7.09-.46-8.69-.66-2.4-.4-4.61-.94-7.01-1.24v-.5c-.1-.1-.2-.2-.3-.2-.4 0-.5.3-.7.6-.2.3-.3.6-.4.8-.2.5.4.9.8.4.1-.1.2-.3.3-.4 3.1 2.3 5.2 5.4 8.1 7.7 2.8 2.3 5.8 2.9 9.4 3 3.5.1 6.8-.8 9.2-3.5 1.1-1.2 1.9-2.5 2.9-3.8s2.1-2.3 3.2-3.4c.1.2.2.4.4.5.2.1.4.1.5-.1.3-.2 0-1-.3-1.4zm-6.5 5.1c-2.7 3-5.5 4.3-9.6 4.6s-7.5-.4-10.5-3.3c-1.5-1.4-2.8-3.1-4.4-4.4 1.8.6 3.9.9 5.6 1.2 1.4.3 6.11.92 8.4.9 2.8.1 5.6-.5 8.4-1.1 1.7-.3 3.4-.7 5-1.2-1.1 1-2 2.3-2.9 3.3z" fill="#f18f77" stroke-width="none" opacity="1" transform="translate(0 3)"></path></g></g><g id="svga-group-eyes-left-move" transform="matrix(1,0,0,1,0,0)"><g id="svga-group-eyes-left" transform="matrix(1,0,0,1,0,0)"><g id="svga-group-eyesback-left"><path id="SvgjsPath16276" d="M92.2 101.8s-.6-1.9-2-3.8-3.3-3.9-6.6-4.5c-3.3-.6-12.1 2.2-12.1 2.2s1.4 1.9 3.1 3.1 6.3 2.9 8.2 2.8c1.9-.1 4.2-.5 5.2-.5 1.2 0 3.2 0 4.2.7z" fill="#ffffff" stroke-width="none" opacity="1"></path></g><g id="svga-group-eyesiriswrapper-left" transform="matrix(1,0,0,1,0,0)"><g id="svga-group-eyesiriscontrol-left" transform="matrix(1,0,0,1,0,0)"><g id="svga-group-eyesiris-left" transform="matrix(1,0,0,1,0,0)"><path id="SvgjsPath16240" d="M82 91.2c2.9 0 5.2 2.3 5.2 5.2s-2.3 5.2-5.2 5.2-5.2-2.3-5.2-5.2 2.3-5.2 5.2-5.2z" fill="#681711" stroke-width="none" opacity="1"></path><path id="SvgjsPath16241" d="M82 101.8c-3 0-5.4-2.4-5.4-5.4S79 91 82 91s5.4 2.4 5.4 5.4-2.4 5.4-5.4 5.4zm0-10.3c-2.7 0-4.9 2.2-4.9 4.9s2.2 4.9 4.9 4.9 4.9-2.2 4.9-4.9-2.2-4.9-4.9-4.9z" fill="#490500" stroke-width="none" opacity="1"></path><path id="SvgjsPath16242" d="M82 93.6c1.5 0 2.8 1.3 2.8 2.8s-1.3 2.8-2.8 2.8-2.8-1.3-2.8-2.8 1.3-2.8 2.8-2.8z" fill="#000000" stroke-width="none" opacity="1"></path><path id="SvgjsPath16243" d="M80.7 93.6c.5 0 1 .4 1 1s-.4 1-1 1-1-.4-1-1 .5-1 1-1zm3.2 4.4c.2 0 .4.2.4.4s-.2.4-.4.4-.4-.2-.4-.4.2-.4.4-.4z" fill="#ffffff" stroke-width="none" opacity="1"></path></g></g></g><g id="svga-group-eyesfront-left"><path id="SvgjsPath16284" d="M70.7 98c0 6.9 4.9 12.5 11 12.5s11-5.6 11-12.5-4.9-12.5-11-12.5-11 5.6-11 12.5zm.9-2.3s8.8-2.9 12.1-2.2c3.3.6 5.3 2.6 6.6 4.5 1.4 1.9 2 3.8 2 3.8-1-.7-3.1-.7-4.1-.7-1.1 0-3.3.5-5.2.5-1.9.1-6.4-1.7-8.2-2.8-1.9-1.2-3.2-3.1-3.2-3.1z" fill="#f6e4e2" stroke-width="none" opacity="1" stroke="none"></path><path id="SvgjsPath16285" d="M71.4 96c.2.3.4.6.7.9-.8-.2-1.8 0-2.4.5-.1.1 0 .2.1.2.5-.2 1.1-.3 1.7-.3.5 0 .9.2 1.3.4.1.1.2.2.4.3-.6.1-1.1.4-1.4.8-.1.1 0 .3.1.2.5-.3 1.1-.5 1.6-.7 1.7 1.4 3.7 2.4 5.6 3 1.7.5 3.4.8 5.2.6 2.7-.3 5.1-1.4 7.8 0 .1.1.2-.1.1-.2.1 0 .1-.1.1-.2-1.2-4.4-4.7-8.2-9.4-9.1-1.9-.3-3.7 0-5.5.5-1.2-.3-2.1-.9-3.1-1.8-.1-.1-.3 0-.2.2.5.9 1.5 1.6 2.5 1.9-.3.1-.6.2-.8.3-1.8.1-3.2-.6-4.6-1.7-.1-.1-.3.1-.2.2.9 1.1 2.3 1.7 3.7 1.9-.5.2-.9.3-1.4.4-1.9 0-3.5-.6-5.2-1.7-.1-.1-.2.1-.1.2 1 1.1 2.5 1.8 4 1.9-2.3.5-4.4.3-6.8-1.2-.1-.1-.3.1-.2.2 2.2 1.9 4.3 2.4 6.4 2.3zm.5 0c1.3-.1 2.7-.5 4.2-1 3.2-1 7-1.9 10.1-.2 2.8 1.5 4.4 4.1 5.8 6.8-2.9-1.5-5.7-.3-8.8-.5-4.5-.2-8-2.4-11.3-5.1z" fill="#5fa2a5" stroke-width="none" opacity="1" stroke="none"></path></g></g></g><g id="svga-group-eyes-right-move" transform="matrix(1,0,0,1,0,0)"><g id="svga-group-eyes-right" transform="matrix(1,0,0,1,0,0)"><g id="svga-group-eyesback-right"><path id="SvgjsPath16277" d="M107.8 101.8s.6-1.9 2-3.8 3.3-3.9 6.6-4.5c3.3-.6 12.1 2.2 12.1 2.2s-1.4 1.9-3.1 3.1-6.3 2.9-8.2 2.8c-1.9-.1-4.2-.5-5.2-.5-1.2 0-3.2 0-4.2.7z" fill="#ffffff" stroke-width="none" opacity="1"></path></g><g id="svga-group-eyesiriswrapper-right" transform="matrix(1,0,0,1,0,0)"><g id="svga-group-eyesiriscontrol-right" transform="matrix(1,0,0,1,0,0)"><g id="svga-group-eyesiris-right" transform="matrix(1,0,0,1,0,0)"><path id="SvgjsPath16244" d="M118 91.2c2.9 0 5.2 2.3 5.2 5.2s-2.3 5.2-5.2 5.2-5.2-2.3-5.2-5.2 2.3-5.2 5.2-5.2z" fill="#681711" stroke-width="none" opacity="1"></path><path id="SvgjsPath16245" d="M118 101.8c-3 0-5.4-2.4-5.4-5.4S115 91 118 91s5.4 2.4 5.4 5.4-2.4 5.4-5.4 5.4zm0-10.3c-2.7 0-4.9 2.2-4.9 4.9s2.2 4.9 4.9 4.9 4.9-2.2 4.9-4.9-2.2-4.9-4.9-4.9z" fill="#490500" stroke-width="none" opacity="1"></path><path id="SvgjsPath16246" d="M118 93.6c1.5 0 2.8 1.3 2.8 2.8s-1.3 2.8-2.8 2.8-2.8-1.3-2.8-2.8 1.3-2.8 2.8-2.8z" fill="#000000" stroke-width="none" opacity="1"></path><path id="SvgjsPath16247" d="M116.8 93.6c.5 0 1 .4 1 1s-.4 1-1 1-1-.4-1-1 .4-1 1-1zM120 98c.2 0 .4.2.4.4s-.2.4-.4.4-.4-.2-.4-.4.2-.4.4-.4z" fill="#ffffff" stroke-width="none" opacity="1"></path></g></g></g><g id="svga-group-eyesfront-right"><path id="SvgjsPath16286" d="M118.3 85.5c-6.1 0-11 5.6-11 12.5s4.9 12.5 11 12.5 11-5.6 11-12.5-5-12.5-11-12.5zm7 13.3c-1.7 1.2-6.3 2.9-8.2 2.8-1.9-.1-4.2-.5-5.2-.5-1.1 0-3.1 0-4.1.7 0 0 .6-1.9 2-3.8s3.3-3.9 6.6-4.5c3.3-.6 12.1 2.2 12.1 2.2s-1.4 1.9-3.2 3.1z" fill="#f6e4e2" stroke-width="none" opacity="1" stroke="none"></path><path id="SvgjsPath16289" d="M134.8 93.7c.1-.1 0-.3-.2-.2-2.4 1.5-4.5 1.7-6.8 1.2 1.5-.1 2.9-.8 4-1.9.1-.1 0-.3-.1-.2-1.6 1.2-3.3 1.8-5.2 1.7-.4-.1-.9-.3-1.4-.4 1.4-.1 2.9-.7 3.7-1.9.1-.1-.1-.3-.2-.2-1.5 1.1-2.8 1.8-4.6 1.7-.3-.1-.6-.2-.8-.3 1-.3 2-1 2.5-1.9.1-.1-.1-.3-.2-.2-1 .9-1.9 1.5-3.1 1.8-1.8-.5-3.6-.8-5.5-.5-4.6.9-8.1 4.6-9.4 9.1 0 .1 0 .2.1.2-.1.1 0 .2.1.2 2.7-1.4 5.1-.3 7.8 0 1.8.2 3.5-.1 5.2-.6 1.9-.6 3.9-1.7 5.6-3 .6.2 1.1.4 1.6.7.1.1.2-.1.1-.2-.4-.4-.9-.7-1.4-.8.1-.1.2-.2.4-.3.4-.2.8-.4 1.3-.4.6 0 1.1.1 1.7.3.1 0 .2-.1.1-.2-.6-.5-1.5-.7-2.4-.5.2-.3.5-.6.7-.9 2.3.1 4.4-.4 6.4-2.3zm-18 7.5c-3.1.2-5.9-1-8.8.5 1.3-2.7 3-5.3 5.8-6.8 3.2-1.7 6.9-.8 10.1.2 1.5.5 2.9.8 4.2 1-3.3 2.6-6.8 4.8-11.3 5.1z" fill="#5fa2a5" stroke-width="none" opacity="1" stroke="none"></path></g></g></g><g id="svga-group-facehighlight-single"></g><g id="svga-group-eyebrows-left-move" transform="matrix(1,0,0,1,0,0)"><g id="svga-group-eyebrows-left-rotate" transform="matrix(1,0,0,1,0,0)"><g id="svga-group-eyebrows-left" transform="matrix(1,0,0,1,0,0)"><path id="SvgjsPath16328" d="M69.6 87.3c0-.4.2-.7.5-.9.1-.2.3-.4.4-.6.1-.2.2-.3.4-.4.6-.8 1.8-1.5 2.6-2 1.2-.8 2.6-1.1 4.1-1.3 1.3-.4 2.8-.5 4-.2.1 0 .1.1.2.1 1 0 2 .2 3 .5.5.1 1 .2 1.5.5.1.1.2.2.2.3.6.2 1.1.4 1.6.7.8.4 1.6 1 2 1.6.1-.1.2-.1.4-.1.9.3 1 1 .6 1.6.3.3-.2.8-.7.6-.2 0-.3 0-.4-.1-1.4.7-3.5.3-5.1 0-.1 0-.1.1-.2.1-1.1 0-2.1-.1-3.2-.1-1.9.3-3.7.3-5.6.2-.6-.1-1.3-.1-1.9-.2-.3.1-.6.1-.9.1h-2.4c-.1.1-.3.1-.5 0-.4.1-.6-.1-.6-.4z" fill="#b84131" stroke-width="none" opacity="1"></path><path id="SvgjsPath16329" d="M90.2 86.9c.1-.4.1-.8-.2-1.1-.1-.1.1-.3.3-.2.8.5.8 1.8-.1 2.2-.1 0-.2 0-.2-.1-.1-.2.1-.5.2-.8zm-5.3-4.2c1.2.1 2.1 1.3 2.8 2 .7.8 1.7 1.8 1.6 2.9 0 .1-.2.2-.3.1-.6-.9-1-1.8-1.8-2.6-.7-.8-1.7-1.4-2.4-2.2 0-.1 0-.2.1-.2zm-4.1-.9c1.5 0 2.8 1.1 3.7 2 1.1 1.1 2.1 2.4 2.4 3.9 0 .2-.2.3-.3.1-1.4-2.4-2.5-4.7-5.8-5.7-.2-.1-.2-.3 0-.3zM75 83c4.4-.5 8.6 1.5 10.5 4.7.2.3-.3.5-.5.2-2-3.2-5.6-4.8-9.9-4.7-.2 0-.3-.2-.1-.2zm-3.2 1.1c3.3-.2 7.3 1.4 9.2 3.6.1.1-.1.2-.2.1-1.3-.9-2.6-1.8-4.2-2.4-1.6-.6-3.2-.8-4.9-1-.1-.1-.1-.3.1-.3zm-1.1 1.7c2.4-.3 6.5.2 8.2 1.8.1.1 0 .3-.2.2-2.4-1.4-5.2-1.5-7.9-1.7-.2-.1-.3-.3-.1-.3zm-1 1.8c1.1-.3 2.4-.1 3.5-.1.2 0 .2.3 0 .3-1.2 0-2.4.1-3.5-.1-.1 0 0-.1 0-.1z" fill="#c75849" stroke-width="none" opacity="1"></path><path id="SvgjsPath16330" d="M69.8 85.9c-.6.7-1.4 1.8 0 2.2.7.2 1.7 0 2.4 0h16.4c1 0 3.5.2 3.1-1.2 0-.1-.2-.1-.3 0 0 .2-.1.3-.3.4.5-.9-.5-2.2-1.3-2.7-.1-.1-.2 0-.2.1-2.3-2-5.8-3.1-9-3.3-4-.2-8.4 1.6-10.8 4.5zM89 87.8c-.7-1.7-2.1-3.4-3.7-4.8 1.4.5 2.7 1.2 3.9 2.1.3.4.5.9.5 1.4.1.4 0 .8-.1 1.3H89zm1.8-.2c-.2.1-.4.1-.6.1.3-.6.3-1.2.1-1.8.3.2.5.5.8.7-.1.3-.2.6-.3 1 0-.1 0-.1 0 0zm-20.6-1.3c.5-.6 1.1-1.2 1.7-1.7.1-.1.2-.1.2-.2 2.5.9 4.9 1.8 7.2 3 .1.1.3-.1.2-.2-2-1.4-4.4-2.6-7-3.1 3.7-2.5 8.2-2.7 12.1-1.5.8.8 1.6 1.7 2.4 2.6.6.8 1.1 1.6 1.7 2.4-.8 0-1.7 0-2.5-.1-1.2-2.6-3.9-4.8-7.2-5.6-.2 0-.3.2-.1.2 3 1.3 5.3 2.9 7 5.3-.5 0-.9-.1-1.2-.1h-1.5v-.1c-1.8-2-4.4-3.7-7.4-4.3-.2 0-.3.2-.1.2 2.8 1.1 5.1 2.3 7.2 4.2h-11c-.3 0-1.4.2-1.7 0-.6 0-.3-.6 0-1zm1.3.3c.8 0 1.6.4 2.2.8.2.1 0 .3-.2.2-.3-.2-.7-.3-1-.4-.4-.1-.7-.2-1.1-.3-.1-.1-.1-.3.1-.3z" fill="#a92d1c" stroke-width="none" opacity="1"></path></g></g></g><g id="svga-group-eyebrows-right-move" transform="matrix(1,0,0,1,0,0)"><g id="svga-group-eyebrows-right-rotate" transform="matrix(1,0,0,1,0,0)"><g id="svga-group-eyebrows-right" transform="matrix(1,0,0,1,0,0)"><path id="SvgjsPath16331" d="M130.4 87.3c0-.4-.2-.7-.5-.9-.1-.2-.3-.4-.4-.6-.1-.2-.2-.3-.4-.4-.6-.8-1.8-1.5-2.6-2-1.2-.8-2.6-1.1-4.1-1.3-1.3-.4-2.8-.5-4-.2-.1 0-.1.1-.2.1-1 0-2 .2-3 .5-.5.1-1 .2-1.5.5-.1.1-.2.2-.2.3-.6.2-1.1.4-1.6.7-.8.4-1.6 1-2 1.6-.1-.1-.2-.1-.4-.1-.9.3-1 1-.6 1.6-.3.3.2.8.7.6.2 0 .3 0 .4-.1 1.4.7 3.5.3 5.1 0 .1 0 .1.1.2.1 1.1 0 2.1-.1 3.2-.1 1.9.3 3.7.3 5.6.2.6-.1 1.3-.1 1.9-.2.3.1.6.1.9.1h2.4c.1.1.3.1.5 0 .4.1.6-.1.6-.4z" fill="#b84131" stroke-width="none" opacity="1"></path><path id="SvgjsPath16332" d="M109.8 86.9c-.1-.4-.1-.8.2-1.1.1-.1-.1-.3-.3-.2-.8.5-.8 1.8.1 2.2.1 0 .2 0 .2-.1.1-.2-.1-.5-.2-.8zm5.3-4.2c-1.2.1-2.1 1.3-2.8 2-.7.8-1.7 1.8-1.6 2.9 0 .1.2.2.3.1.6-.9 1-1.8 1.8-2.6.7-.8 1.7-1.4 2.4-2.2 0-.1 0-.2-.1-.2zm4.1-.9c-1.5 0-2.8 1.1-3.7 2-1.1 1.1-2.1 2.4-2.4 3.9 0 .2.2.3.3.1 1.4-2.4 2.5-4.7 5.8-5.7.2-.1.2-.3 0-.3zM125 83c-4.4-.5-8.6 1.5-10.5 4.7-.2.3.3.5.5.2 2-3.2 5.6-4.8 9.9-4.7.2 0 .3-.2.1-.2zm3.2 1.1c-3.3-.2-7.3 1.4-9.2 3.6-.1.1.1.2.2.1 1.3-.9 2.6-1.8 4.2-2.4 1.6-.6 3.2-.8 4.9-1 .1-.1.1-.3-.1-.3zm1.1 1.7c-2.4-.3-6.5.2-8.2 1.8-.1.1 0 .3.2.2 2.4-1.4 5.2-1.5 7.9-1.7.2-.1.3-.3.1-.3zm1 1.8c-1.1-.3-2.4-.1-3.5-.1-.2 0-.2.3 0 .3 1.2 0 2.4.1 3.5-.1.1 0 .1-.1 0-.1z" fill="#c75849" stroke-width="none" opacity="1"></path><path id="SvgjsPath16333" d="M119.2 81.4c-3.2.2-6.7 1.3-9 3.3 0-.1-.1-.2-.2-.1-.8.5-1.8 1.8-1.3 2.7-.1-.1-.2-.2-.3-.4 0-.1-.2-.1-.3 0-.4 1.4 2.1 1.2 3.1 1.2h16.4c.7 0 1.8.2 2.5 0 1.4-.4.6-1.5 0-2.2-2.3-2.9-6.7-4.7-10.9-4.5zm-8.9 6.3c0-.4-.1-.8-.1-1.3.1-.5.3-.9.5-1.4 1.2-.9 2.5-1.6 3.9-2.1-1.6 1.3-3 3.1-3.7 4.8-.2.1-.4.1-.6 0zm-1.1-.2c-.2-.3-.3-.6-.3-.9.3-.3.5-.5.8-.7-.2.6-.3 1.3.1 1.8-.2 0-.4-.1-.6-.2zm20.5.2c-.3.2-1.3 0-1.6 0h-11c2.1-1.9 4.4-3.1 7.2-4.2.2-.1.1-.3-.1-.2-3 .6-5.6 2.3-7.4 4.3v.1h-1.5c-.2 0-.7 0-1.2.1 1.7-2.4 4-4 7-5.3.2-.1.1-.3-.1-.2-3.3.8-6 3-7.2 5.6-.8 0-1.6.1-2.5.1.6-.8 1.1-1.7 1.7-2.4.7-.9 1.6-1.7 2.4-2.6 4-1.3 8.5-1 12.1 1.5-2.6.5-5 1.8-7 3.1-.1.1 0 .2.2.2 2.3-1.2 4.7-2.1 7.2-3 .1.1.2.1.2.2.7.5 1.2 1.1 1.7 1.7.3 0 .6.6-.1 1zm-1.2-1.1c-.8 0-1.6.4-2.2.8-.2.1 0 .3.2.2.3-.2.7-.3 1-.4.4-.1.7-.2 1.1-.3.1-.1.1-.3-.1-.3z" fill="#a92d1c" stroke-width="none" opacity="1"></path></g></g></g><g id="svga-group-nose-single-move" transform="matrix(1,0,0,1,0,0)"><g id="svga-group-nose-single" transform="matrix(1,0,0,1,0,0)"><path id="SvgjsPath16316" d="M93.98 107.88c-1.39 1.18-4.68 5.15-3.13 7.12.23.3.53.46.9.54 1.28.3 2.25-.22 3.57.44 1.56.78 2.79 2.24 4.6 2.49 1.47.2 2.48-.6 3.54-1.48.58-.48 1.23-1.13 1.99-1.28.58-.11 1.22.22 1.78.24.43.02.75.03 1.1-.25.82-.65.62-1.92.41-2.79-.43-1.74-1.35-3.31-2.74-4.44a.191.191 0 0 0-.27.27c.94 1.16 1.8 2.4 2.23 3.85.33 1.11.73 2.35-1.04 2.44-.32.02-.73-.21-1.08-.19-.81.02-1.52.45-2.15.91-1.72 1.26-2.89 2.58-5.13 1.37-1.8-.97-3.11-2.49-5.29-2.27-.36.06-.72.11-1.08.16-1-.47-1.35-1.15-1.03-2.02.16-.68.48-1.34.78-1.96.56-1.15 1.35-2.1 2.11-3.11.04-.03-.03-.07-.07-.04z" fill="#c8837c" stroke-width="none" opacity="1" transform="translate(0 2)" stroke="none"></path><path id="SvgjsPath16317" d="M94.51 109.69c-.22 2.72 2.11 5.18 4.89 4.87.17-.02.17-.25 0-.27-2.58-.3-4.46-1.98-4.79-4.6-.01-.07-.1-.07-.1 0z" fill="#c8837c" stroke-width="none" opacity="1" transform="translate(0 2)" stroke="none"></path><path id="SvgjsPath16318" d="M101.91 107.08c-1.01-.42-2.13-.61-3.22-.48-.83.09-2.12.58-1.83 1.67.36 1.4 2.26 1.23 3.36 1.56 1.2.36 1.63 1.5 2.68 2.04.38.2.87.17 1.17-.15 1.65-1.73-.55-3.97-2.16-4.64z" fill="#fef7f6" stroke-width="none" opacity="1" transform="translate(0 2)" stroke="none"></path></g></g><g id="svga-group-hair-front" transform="matrix(1,0,0,1,0,0)"><path id="SvgjsPath16478" d="M105.8 52.5s-.9 15.7-17.9 18.5c-12.8 2.1-27.8 6.8-25.7 20.6 0 0-2.7-.5-4.3-4.3S53.1 66.8 64 54.1s24.8-17.9 42.3-13.6c0 0 15.7 0 26.6 15s11.2 33.6 4.8 40c0 0 3.4-12.5-11.2-18.8C113 71 104 63.6 105.8 52.5z" fill="#b84131" stroke-width="none" opacity="1" stroke="none"></path><path id="SvgjsPath16479" d="M107.2 44.8s-.9 14.6 7.3 21S133.4 76 136.6 79s3.4 7.1 3.4 7.1 1.6-4.8-2-8.9-18.7-9.2-23.5-14.8c-4.8-5.4-5.9-11.7-7.3-17.6zm2.1.8s3.7 9.1 8.7 13.9 13.3 8.7 16.2 10.5 5.3 5.5 5.3 5.5-.5-2.8-5.9-8-12.1-7.7-17.6-13.2-6.7-8.7-6.7-8.7zm-.5-3.8s10.5 2 18 9.2c7.5 7.3 10.5 14.9 11.9 19.2 0 0-6.8-11.6-13.9-18.3-7.1-6.7-16-10.1-16-10.1zM60.7 87.7s-.9-8 5.7-13c6.6-5 19-3.9 26.2-8.7 7.1-4.8 10.7-11.9 12.1-18.5 0 0-4.8 14.4-27.4 20.5S60.7 87.7 60.7 87.7zM58.1 79s.7-9.6 10.9-13.3c10.1-3.7 21-6.9 27.2-11.8s7.7-10 7.7-10-7 9.1-25 14.8S59.7 69.6 58.1 79zM63 60.5s5.3-11.6 17.6-16 21-2.5 21-2.5-24.7-.2-38.6 18.5z" fill="#c75849" stroke-width="none" opacity="1" stroke="none"></path></g><g id="svga-group-glasses-single-move" transform="matrix(1,0,0,1,0,0)"><g id="svga-group-glasses-single" transform="matrix(1,0,0,1,0,0)"><path id="SvgjsPath16376" d="M83.79 89.68c-2.83-.51-9.24-1.13-12.32 1.15-2.84 2.11-2.44 4.03-2.33 6.4s1 8.58 5.29 11.14c3.7 2.21 8.94 2.53 12.09 1.7 3.87-1.02 7.13-4.66 8.1-8.43s.81-5.72-.1-7.49c-.93-1.77-4.23-3.28-10.73-4.47z" fill="url(#SvgjsLinearGradient16377)" opacity="1"></path><path id="SvgjsPath16384" d="M116.21 89.68c2.83-.51 9.24-1.13 12.32 1.15 2.84 2.11 2.44 4.03 2.33 6.4-.11 2.36-1 8.58-5.29 11.14-3.7 2.21-8.94 2.53-12.09 1.7-3.87-1.02-7.13-4.66-8.1-8.43s-.81-5.72.1-7.49c.93-1.77 4.23-3.28 10.73-4.47z" fill="url(#SvgjsLinearGradient16385)" opacity="1"></path><path id="SvgjsPath16392" d="m103.16 94.22-6.37-.02-.18-1.27h6.7z" fill="#000f01" stroke-width="none" opacity="1"></path><path id="SvgjsPath16393" d="M95.2 96.93c-.06.04-.12.07-.18.1.05 1.14-.12 2.56-.64 4.55-.99 3.83-4.32 7.3-7.93 8.25-3.06.81-8.27.5-11.9-1.67-4.58-2.73-5.12-9.6-5.18-10.95l-.03-.62c-.01-.1-.01-.2-.02-.3-.16-.01-.32-.02-.48-.05.01.12.01.25.02.38l.03.61c.06 1.39.62 8.48 5.41 11.34 2.54 1.52 5.74 2.16 8.55 2.16 1.37 0 2.66-.15 3.72-.43 3.76-.99 7.24-4.61 8.27-8.6.53-2.05.73-3.63.62-4.97-.09.06-.17.13-.26.2z" fill="#092e0c" stroke-width="none" opacity="1"></path><path id="SvgjsPath16394" d="M63.96 88.96s0 3.26.07 3.4c.07.14 2.62.64 3.12 3.76l2.27.14s.07-2.98 1.63-4.54c1.56-1.56 4.18-2.48 12.27-1.49 8.08.99 11.27 2.98 11.56 6.81 0 0 2.34-.85 1.91-3.55-.43-2.69-6.66-4.33-13.76-5.32s-19.07.79-19.07.79z" fill="#092e0c" stroke-width="none" opacity="1"></path><path id="SvgjsPath16395" d="M96.84 92.95c-.36-.82-1.06-1.37-1.76-1.79-.71-.42-1.46-.77-2.23-1.05-3.08-1.13-6.3-1.67-9.5-2.14-3.24-.46-6.5-.33-9.73-.14-3.24.22-6.44.57-9.66 1.1-.03.74-.03 1.43-.04 2.15 0 .36 0 .71.01 1.07l.01.14c0 .03.01.07.02.1.02.03.08.08.1.08l.25.12c.16.07.32.15.47.23.61.33 1.15.8 1.53 1.38.39.57.61 1.24.72 1.93l.02.12.12.01 2.27.16.17.01.01-.18c.09-1.3.39-2.64 1.08-3.74.71-1.07 1.89-1.78 3.15-2.1 2.57-.62 5.3-.46 7.96-.24 2.66.28 5.36.57 7.9 1.44 1.26.44 2.49 1.03 3.46 1.92.47.46.86 1 1.14 1.59.26.6.39 1.25.44 1.91l.02.21.19-.08c.8-.32 1.46-.93 1.82-1.71.18-.39.27-.82.28-1.24-.01-.41-.08-.82-.22-1.26zm-.42 2.38c-.27.64-.81 1.16-1.43 1.48-.08-.61-.22-1.21-.47-1.77-.3-.62-.72-1.18-1.22-1.65-1.03-.91-2.29-1.49-3.57-1.92-2.58-.81-5.25-1.22-7.93-1.53-1.34-.14-2.68-.25-4.04-.28-1.35-.02-2.72.02-4.05.37-1.33.33-2.63 1.07-3.39 2.28-.7 1.16-.98 2.46-1.06 3.77l-2-.11c-.13-.68-.37-1.34-.77-1.91-.41-.61-.99-1.1-1.64-1.43-.16-.09-.33-.16-.5-.22l-.24-.1c-.02.05-.02-.07-.03-.16-.03-.35-.04-.71-.05-1.06l-.07-2.12c3.18-.35 6.43-.65 9.65-.8 3.22-.14 6.46-.15 9.64.29 3.18.48 6.39 1.03 9.41 2.09.76.26 1.48.6 2.16.99.67.39 1.31.9 1.62 1.58.27.66.28 1.53-.02 2.21z" fill="#000f01" stroke-width="none" opacity="1"></path><path id="SvgjsPath16396" d="M130.68 96.26c-.01.11-.01.23-.02.34l-.03.62c-.06 1.35-.6 8.22-5.18 10.95-3.63 2.17-8.84 2.48-11.9 1.67-3.61-.95-6.94-4.42-7.93-8.25-.52-2.03-.7-3.48-.64-4.63-.15-.09-.3-.18-.44-.28-.12 1.36.08 2.95.62 5.03 1.03 3.99 4.5 7.6 8.27 8.6 1.06.28 2.34.43 3.72.43 2.81 0 6.01-.64 8.55-2.16 4.79-2.86 5.35-9.94 5.41-11.34l.03-.61c.01-.12.01-.23.02-.34l-.48-.03z" fill="#092e0c" stroke-width="none" opacity="1"></path><path id="SvgjsPath16397" d="M136.04 88.96s0 3.26-.07 3.4c-.07.14-2.62.64-3.12 3.76l-2.27.14s-.07-2.98-1.63-4.54c-1.56-1.56-4.18-2.48-12.27-1.49-8.08.99-11.27 2.98-11.56 6.81 0 0-2.34-.85-1.91-3.55.43-2.69 6.66-4.33 13.76-5.32s19.07.79 19.07.79z" fill="#092e0c" stroke-width="none" opacity="1"></path><path id="SvgjsPath16398" d="M102.98 94.23c.01.42.1.85.28 1.24a3.35 3.35 0 0 0 1.82 1.71l.19.08.02-.21c.06-.66.19-1.3.44-1.91.28-.6.67-1.13 1.14-1.59.98-.89 2.2-1.48 3.46-1.92 2.54-.88 5.23-1.17 7.9-1.44 2.66-.22 5.39-.38 7.96.24 1.26.32 2.45 1.03 3.15 2.1.69 1.09 1 2.44 1.08 3.74l.01.18.17-.01 2.27-.16.12-.01.02-.12c.11-.69.33-1.36.72-1.93.38-.58.91-1.05 1.53-1.38.15-.09.31-.16.47-.23l.25-.12c.01 0 .07-.05.1-.08.01-.03.02-.07.02-.1l.01-.14c.01-.36.01-.72.01-1.07-.01-.72-.01-1.41-.04-2.15-3.22-.54-6.42-.88-9.66-1.1-3.23-.2-6.49-.32-9.73.14-3.21.46-6.43 1.01-9.5 2.14-.77.27-1.52.63-2.23 1.05-.7.42-1.41.97-1.76 1.79-.18.42-.25.83-.22 1.26zm.55-1.12c.31-.67.95-1.18 1.62-1.58a12.8 12.8 0 0 1 2.16-.99c3.02-1.06 6.23-1.61 9.41-2.09 3.18-.43 6.42-.42 9.64-.29 3.22.15 6.46.45 9.65.8l-.07 2.12c-.01.36-.03.71-.05 1.06-.01.08-.01.2-.03.16l-.24.1c-.17.07-.33.14-.5.22-.65.33-1.22.82-1.64 1.43-.4.57-.64 1.23-.77 1.91l-2 .11c-.09-1.31-.37-2.62-1.06-3.77-.76-1.21-2.06-1.95-3.39-2.28-1.33-.35-2.7-.39-4.05-.37-1.35.03-2.7.14-4.04.28-2.67.3-5.35.72-7.93 1.53-1.28.42-2.54 1-3.57 1.92-.5.48-.92 1.03-1.22 1.65-.25.56-.39 1.16-.47 1.77-.62-.32-1.16-.84-1.43-1.48-.27-.67-.26-1.54-.02-2.21z" fill="#000f01" stroke-width="none" opacity="1"></path></g></g></g></g></g><rect id="svga-credit-rect" width="200" height="15" x="0" y="185" fill="#ecf0f1" opacity="0.5" style="display: none;"></rect><text id="svga-credit-text" font-family="Avenir Next, Roboto, Helvetica, Arial, sans-serif" font-size="10px" text-anchor="start" font-weight="400" size="10px" anchor="start" weight="400" fill="#333333" x="33.40447998046875" y="182.60824704170227" style="display: none;"><tspan id="SvgjsTspan15744" dy="13" x="33.40447998046875">Created on AvatarMaker.com</tspan></text></g></svg>