<svg xmlns="http://www.w3.org/2000/svg" version="1.1" width="600px" height="600px" viewBox="0 0 200 200" style="overflow:hidden!important;"><defs id="SvgjsDefs87218"></defs><g id="svga-group-wrapper"><g id="svga-group-backs-single"><path id="SvgjsPath88000" d="M0 0h200v200H0V0z" fill="#5e8c6a" stroke-width="none" opacity="1"></path><path id="SvgjsPath88001" d="M0 0v10.1L76.5 100 0 0zm0 34.1V50l76.5 58.3L0 34.1zm0 37.1v13.6l76.5 33.4L0 71.2zM38.3 0H21.1l67.2 108.3L38.3 0zm36.3 0H61l27.2 90L74.6 0zM0 108.3v9.9l76.5 9.9L0 108.3zM0 144v13.6l76.5-22.1L0 144zm0 35.7V200l88.3-64.5L0 179.7zM38.3 200h16.4l26.5-42.4L38.3 200zm85.2-100L200 10.1V0l-76.5 100zM200 50V34.1l-76.5 74.2L200 50zm0 34.8V71.2l-76.5 47L200 84.8zM178.9 0h-17.2l-50 108.3L178.9 0zM139 0h-13.6l-13.6 90L139 0zm61 118.2v-9.9L123.5 128l76.5-9.8zm0 39.4V144l-76.5-8.5 76.5 22.1zm0 42.4v-20.3l-88.3-44.2L200 200zm-54.7 0h16.4l-43-42.4 26.6 42.4zM111.7 0H88.3L100 100 111.7 0zM76.5 200h11.7l6.4-58.5L76.5 200zm35.2 0h11.7l-18.2-58.5 6.5 58.5zm-17 0h10.6l-5.3-42.4-5.3 42.4z" fill="#477d55" stroke-width="none" opacity="1"></path></g><g id="svga-group-humanwrap-move" transform="matrix(1,0,0,1,0,0)"><g id="svga-group-humanwrap" transform="matrix(1.1000003000000003,0,0,1.1000003000000003,-10.01503315398763,-12.127959586284277)"><g id="svga-group-hair-back-move" transform="matrix(1,0,0,1,0,0)"><g id="svga-group-hair-back" transform="matrix(1,0,0,1,0,0)"></g></g><g id="svga-group-humanbody-back"><path id="SvgjsPath87619" d="M166.5 181.1c-10.9-6.6-27.6-8.4-35-12.1-4.9-2.5-9.1-4.7-8.9-17.8s1.9-42.4 1.9-42.4H75.4s1.6 29.4 1.9 42.4-4.2 15.6-8.9 17.8c-7.4 3.5-24.1 5.4-35 12.1-10.8 6.6-10 18.9-10 18.9v19.7h153.3V200c-.1 0 .7-12.3-10.2-18.9z" fill="#fbd5c0" stroke-width="none" opacity="1" stroke="none"></path></g><g id="svga-group-chinshadow-single"><path id="SvgjsPath87871" d="M77.3 153c2.7 4.4 5.1 8.5 5.8 9.8 1.5 2.6 9.5 5.9 16.8 5.9 7.5 0 15.4-3.3 16.9-5.9.7-1.3 3.1-5.4 5.8-9.9v-1.7c.2-13.1 1.9-42.4 1.9-42.4H75.4s1.6 29.4 1.9 42.4v1.8z" fill="#dc9f7d" stroke-width="none" opacity="0.65" stroke="none"></path></g><g id="svga-group-humanbody-front"><path id="SvgjsPath87620" d="M78.7 156.8c.5 4.8 1.7 9.4 3.1 13.9.8 2.3 1.6 4.6 2.6 6.9.8 2 1.7 4.2 3.1 5.9.3.4 1 0 .9-.5-.5-2.2-1.6-4.3-2.4-6.4-.9-2.2-1.7-4.4-2.5-6.6-1.5-4.4-2.8-8.9-4.1-13.3-.2-.4-.8-.3-.7.1zm41.3-1c-1.3 8.2-3.9 16.1-5.4 24.2-.1.4.4.5.6.2 3.1-7.7 4.1-16.1 5.1-24.3-.1-.2-.3-.2-.3-.1zm-25.8 11.9c-.9 3.6 1.9 8.6 6.2 7.6.5-.1.4-.8 0-1-1.4-.5-2.9-.9-3.9-2.1-1.1-1.2-1.5-2.9-1.4-4.5 0-.4-.8-.5-.9 0z" fill="#dc9f7d" stroke-width="none" opacity="1" stroke="none"></path><path id="SvgjsPath87621" d="M177.3 219.7c-.1-6.6-.3-13.1-.3-19.7l-.3-.3c.1 0 .1 0 .2.1s.1.2.1.1v-1.4c0-.5-.1-.9-.1-1.4-.1-.9-.3-1.9-.5-2.8-.5-1.8-1.1-3.6-2-5.3-1.7-3.4-4.4-6.2-7.7-8.1-3.6-2.2-7.6-3.8-11.6-5.1-4-1.3-8.1-2.4-12.1-3.5-4-1.2-8.1-2.2-11.8-4.2-1.9-1-3.6-2.1-4.8-3.6-1.2-1.6-1.9-3.5-2.3-5.5-.8-4-.4-8.2-.3-12.4l.7-12.6 1.5-25.2.1-1.4h-1.4c-8.2 0-16.4 0-24.6.1l-24.6.3h-.9l.1.9c.8 11.9 1.6 23.8 2.1 35.7.1 3 .3 6 .2 8.9-.1 2.9-.4 5.9-1.6 8.6-.6 1.3-1.4 2.5-2.4 3.5s-2.3 1.8-3.6 2.4c-2.6 1.3-5.4 2.2-8.3 3-5.8 1.5-11.6 2.8-17.3 4.7-2.8.9-5.7 2-8.4 3.4-1.3.7-2.7 1.4-4 2.4-1.3.9-2.4 1.9-3.5 3.1-2.1 2.3-3.6 5.2-4.5 8.1-.5 1.5-.8 3-1 4.6-.1.8-.1 1.6-.1 2.4v2.3l-.2 17.9v1.3h1.4l38.3.2c12.8.1 25.5.1 38.3 0 12.8-.1 25.6-.1 38.3-.3 12.8-.2 25.6-.5 38.3-.7h.6v-.5zm-77.2-1.6H61.8l-37 .2-.1-16.6v-2.2c0-.7 0-1.4.1-2.1.1-1.4.4-2.8.8-4.2.8-2.7 2.1-5.3 3.9-7.5.9-1.1 2-2.1 3.1-2.9 1.1-.9 2.4-1.6 3.7-2.3 2.6-1.4 5.3-2.5 8.1-3.5 5.6-2 11.4-3.4 17.1-5.1 2.9-.8 5.8-1.7 8.5-3.1 1.3-.7 2.7-1.5 3.8-2.6 1.1-1.1 2-2.4 2.6-3.9 1.2-2.9 1.5-5.9 1.6-8.9 0-3-.1-6-.2-9l-1.3-34.8 23.5.4c7.7.1 15.4.1 23.1.1-.4 7.9-.8 15.9-1.1 23.8-.2 4.2-.2 8.4-.3 12.6 0 4.2-.2 8.5.8 12.8.5 2.1 1.3 4.2 2.8 6 1.4 1.7 3.4 2.9 5.3 3.8 3.9 1.9 8 2.8 12.1 3.8s8.2 2 12.2 3.3c4 1.3 7.9 2.8 11.5 5 3.2 1.9 5.8 4.7 7.5 8 .9 1.6 1.5 3.4 1.9 5.2.2.9.4 1.8.4 2.7.1.5.1.9.1 1.4V200l-.3 19c-12.6-.2-25.1-.5-37.7-.7-12.7-.1-25.5-.1-38.2-.2z" fill="#cd865f" stroke-width="none" opacity="1" stroke="none"></path></g><g id="svga-group-clothes-single"><path id="SvgjsPath87747" d="M129.8 165.2c-1.6-4-5.9-16.6-5.9-16.6-1.3 3.6-4.1 12-9 16-4.3 3.6-13 11.4-14.8 13-1.8-1.6-10.5-9.4-14.8-13-4.9-4-7.6-12.2-8.9-15.8 0 0-4.4 12.4-6 16.5 0 0 6.3 26.5 8.6 31.5 0 0 .1-.1.2-.4.3 2.6.7 5.1 1.3 7.3 2.9 10.7 8.6 17.9 8.6 17.9h21.7s10.3-13.7 11.6-23.8c.2-1.9.4-3.9.4-5.8 2.8-9.3 7-26.8 7-26.8z" fill="#ffffff" stroke-width="none" opacity="1"></path><path id="SvgjsPath87748" d="M96 196.2s-5.3-10.6-5.9-13.8c0 0 11.2-12.1 20.3 1.1l-5.2 12.7s3.3 17.4 3.3 23.9H92.1s1.3-16.5 3.9-23.9z" fill="#222222" stroke-width="none" opacity="1"></path><path id="SvgjsPath87749" d="M110.8 183.2c-2.7-3.9-5.9-6.1-9.5-6.4-6.3-.5-11.4 5-11.6 5.2-.1.1-.2.3-.1.4.5 3 5.1 12.2 5.8 13.7-2.6 7.5-3.8 23.2-3.9 23.8 0 .1 0 1.3.1 1.4s.2.2.4.2h16.4c.3 0 .5-1.2.5-1.5 0-6.3-2.9-22-3.3-23.9l5.2-12.5c.1 0 .1-.2 0-.4zm-6.1 12.8c0 .1-.1.2 0 .3 0 .2 3.1 16.5 3.3 23.3H92.6c.2-2.9 1.6-16.7 3.9-23.2.1-.1 0-.3 0-.4-.1-.1-5.1-10-5.8-13.4.9-.9 5.5-5.1 10.6-4.7 3.2.2 6.1 2.1 8.6 5.7l-5.2 12.4z" fill="#184f58" stroke-width="none" opacity="1"></path><path id="SvgjsPath87750" d="M97.1 188.9c-.9 2.4 1.6 7 1.6 7 .5-4.1-.7-9.4-1.6-7zm6.4-1.6c-1.7.7-1.8 7.9-1.8 7.9 1.8-2.8 3.5-8.6 1.8-7.9zm-.8 14.9c0 1.1.2 5.5 1.4 4.1 1.2-1.4-1.2-7.8-1.2-7.8s-.2 2.6-.2 3.7zm-3.7 2.9c-.5 3.9 1.4 5.2 1.7 2.4.3-2.8-.3-9.2-.3-9.2s-.9 2.9-1.4 6.8zm-2.2-1.4c.7 1.4 1.4-3.3 1.2-5 0-.1-1.9 3.6-1.2 5z" fill="#000000" stroke-width="none" opacity="1"></path><path id="SvgjsPath87751" d="M71.3 157.1s-10.6 8-16.5 10.6l2.3 2.6s-22.3 5.2-26.9 6.7-6.7 3.6-6.7 3.6-1.7-1.3-4.2.2-3.6 39.4-3.6 39.4h72.6s-10.9-23.9-17.6-58.4c.1-.1.6-2.6.6-4.7zm112.9 63s-1.1-37.9-3.6-39.4-4.2-.2-4.2-.2-2.1-2.1-6.7-3.6-26.9-6.7-26.9-6.7l2.3-2.6c-5.9-2.5-16.5-10.6-16.5-10.6 0 2.1.6 4.6.6 4.6-6.7 34.5-17.6 58.4-17.6 58.4l72.6.1z" fill="#386e77" stroke-width="none" opacity="1"></path><path id="SvgjsPath87752" d="M184.1 198c-.3-3.7-.6-7.4-1.1-11-.3-1.9-.5-3.7-1.1-5.6-.1-.2-.2-.5-.4-.8-.1-.1-.2-.3-.4-.4l-.4-.2c-.4-.2-.9-.4-1.5-.5-.9-.2-1.8-.1-2.7.3-2.4-1.9-5.1-2.9-7.8-3.6-2.9-.8-5.8-1.4-8.6-2.1l-16.7-4 2-2.1.1-.1c.1-.2 0-.4-.2-.5-1.5-.6-2.9-1.5-4.2-2.3-1.4-.9-2.7-1.8-4.1-2.7-2.7-1.9-5.3-3.8-7.9-5.8-.1-.1-.3-.2-.4-.2l-1.2.3s-3-7.8-3.7-8.7c-.6 1.3-1.4 4.2-4 9.4-1.1 1.9-3 4.5-5.5 6.5-2.7 2.1-5.2 4.3-7.7 6.5-2.2 1.9-4.3 3.9-6.4 5.8-2.1-1.9-4.2-3.9-6.4-5.8-2.5-2.2-5.1-4.4-7.7-6.4-7.4-6.9-7.1-10-9.2-15-.3-.5-.5-.5-.5-.5l-3.8 7.9c-.2-.1-1.4 0-1.6.1-2.6 2-5.2 3.9-7.8 5.8-1.3.9-2.7 1.8-4.1 2.7-1.4.9-2.8 1.7-4.2 2.3 0 0-.1 0-.1.1-.2.1-.2.4 0 .5l2 2.1-16.7 4c-2.9.7-5.7 1.4-8.6 2.1-2.8.7-5.5 1.8-7.8 3.6-.9-.4-1.8-.5-2.7-.3-.5.1-1 .3-1.5.5-.1.1-.2.1-.4.2l-.4.4c-.2.3-.3.5-.4.8-.6 1.9-.9 3.7-1.1 5.6-.5 3.7-.8 7.4-1.1 11-.5 7.4-.9 14.7-1.2 22.1 0 .6.5 1.1 1.1 1.1 12.2 0 24.9.5 37.1.3l36.2.1c-.1-.4-.8-2.1-.9-2.4l-.3-.9-.7-1.8c-.4-1.2-.9-2.4-1.3-3.6-.8-2.4-1.7-4.8-2.5-7.2-1.2-3.5-2.2-7-3.3-10.5.9-1.6 1.9-3.2 3-4.7.8-1 1.6-1.9 2.4-2.8.4-.4.9-.8 1.4-1.2l1.5-1.2c1-.8 1.9-1.7 2.8-2.7.4-.5.9-1 1.2-1.5.2-.2.4-.5.6-.6.1-.1.3-.3.6-.4.9-.5 2.1-.9 3.3-1.2.6-.1 5.7-.1 6.3 0 1.2.3 2.3.6 3.3 1.2.2.1.4.3.6.4l.6.6 1.2 1.5c.9 1 1.8 1.8 2.8 2.7l1.5 1.2c.5.4.9.8 1.4 1.2.9.8 1.7 1.8 2.4 2.8 1.1 1.5 2.1 3.1 3 4.7-1.1 3.5-2.1 7-3.3 10.5-.8 2.4-1.6 4.8-2.5 7.2-.4 1.2-.9 2.4-1.3 3.6l-.7 1.8-.3.9c-.1.3-1 1.9-1.1 2.4l36.7-.7c12.2.2 24.5.4 36.7.3.6 0 1-.5 1-1.1-.4-7.3-.8-14.6-1.3-22zM16.9 219c.2-7 .4-14 .8-20.9.2-3.7.5-7.3.9-10.9.2-1.8.4-3.7.9-5.3.1-.2.1-.4.2-.5 0-.1.1-.1 0-.1 0 0 .1-.1.2-.1.4-.2.7-.4 1.1-.4.7-.2 1.6-.1 2.1.2.2.1.5.1.6 0 1.8 2.7 3.1 5.6 4 8.6.5 1.6.8 3.2 1 4.9.2 1.7.5 3.3.6 5l1.1 10.1c.4 3.1.8 6.3 1.3 9.4H16.9zm34.8.4-19.6-.3c.2-3.2.2-6.4.1-9.6-.1-3.4-.3-6.8-.7-10.3-.2-1.7-.4-3.4-.8-5.1-.3-1.7-.8-3.4-1.4-5.1-1.2-3.1-3-5.9-5.4-8.1 1-.9 2.2-1.7 3.5-2.3 1.3-.6 2.6-1.1 4.1-1.6 2.8-.8 5.7-1.6 8.5-2.3 5.7-1.4 11.5-2.9 17.2-4.1.6.6 1.2 1.1 2 1.6-.2.2-.5.3-.7.5-1.2.8-2.5 1.6-3.7 2.3-.3.2-.5.6-.4 1 1.5 3.8 3.1 7.6 4.7 11.4 1.6 3.8 3.3 7.5 5 11.2 1.8 3.7 3.6 7.4 5.5 11 1 1.8 1.9 3.6 3 5.4 1 1.7 2 3.3 3.1 4.9l-24-.5zm33.5-6.2c.5 1.2 1 2.4 1.5 3.5.3.6.5 1.2.8 1.7l.4.9c.2.3.2.6.4.8l-12.4-.2c-1.8-3.6-3.4-7.2-5-10.8L66 197.7l-5-11.2-4.8-10.6c2.3-1.5 4.5-3.2 6.6-4.9 1.1-.9 2.3-1.9 3.4-2.9s2.2-1.9 3.3-3c-2.4 1.7-4.8 3.4-7.3 5-.9.6-1.7 1.2-2.6 1.8-.5-.8-1.1-1.5-1.7-2.2-.7-.6-1.3-1.2-2.2-1.7l-.3-.3c1.4-.6 2.7-1.3 4-2 1.4-.8 2.8-1.7 4.2-2.5 2.3-1.5 4.6-3 6.8-4.6-.1 1-.3 1.9-.5 2.9v.3c.9 5 2 10 3.3 15 1.2 5 2.6 9.9 4.1 14.7s3.2 9.7 5 14.5c.9 2.5 1.9 4.8 2.9 7.2zm11.2-36.1c-1.3.4-2.5.8-3.8 1.5-.3.2-.6.4-.9.7-.2.3-.4.5-.6.8-.4.5-.8 1-1.1 1.5-.8.9-1.6 1.8-2.5 2.6-.4.4-.9.9-1.4 1.3-.5.4-1 .9-1.4 1.4-.9 1-1.6 2-2.4 3.1-.9 1.4-1.8 2.9-2.5 4.3-.3-1-.6-2.1-.9-3.1-1.4-4.9-2.7-9.8-3.9-14.7-1.2-4.7-2.2-9.4-3.2-14.1.1-.3.1-.6.2-1 .2-1.4 1.8-4.9 2.8-7.6l1.5-4.7c0 .1.6 2.1 1.5 5.2 1.4 3.6 4.6 8.6 7.2 10.9 2.5 2.2 4.7 4.6 7.2 6.9l5.5 4.9c-.5-.1-.9 0-1.3.1zm21.3 12.8c-.7-1.1-1.5-2.1-2.4-3.1-.4-.5-.9-.9-1.4-1.4-.5-.4-.9-.8-1.4-1.3-.9-.9-1.8-1.7-2.5-2.6-.4-.5-.7-.9-1.1-1.5-.2-.3-.4-.5-.6-.8-.3-.3-.6-.5-.9-.7-1.2-.7-2.5-1.1-3.8-1.5-.4-.1-.8-.2-1.3-.3l5.5-4.9c2.5-2.2 4.6-4.4 7.1-6.6 5-4.9 6.6-9.1 7.5-11.9 1.1-3.5 1.3-4.1 1.3-4.2 0 0 1.1 3.2 2.1 6.1.7 2 2.3 6.7 2.3 7-1 4.7-2 9.4-3.2 14.1-1.2 4.9-2.5 9.8-3.9 14.7-.3 1.1-.6 2.1-.9 3.1-.7-1.3-1.5-2.8-2.4-4.2zm-6 30.2c.2-.1.3-.5.4-.8l.4-.9c.3-.6.5-1.2.8-1.7.5-1.2 1-2.3 1.5-3.5 1-2.4 2-4.7 2.8-7.1 1.8-4.8 3.5-9.6 5-14.5s2.9-9.8 4.1-14.7c1.3-4.9 2.3-9.9 3.3-15v-.3c-.2-.9-.4-1.9-.5-2.9 2.2 1.6 4.5 3.1 6.8 4.6 1.4.9 2.8 1.7 4.2 2.5 1.3.7 2.6 1.4 3.9 2l-.3.3c-.8.5-1.5 1.1-2.1 1.7-.6.6-1.2 1.4-1.7 2.2-.9-.6-1.8-1.1-2.6-1.8-2.4-1.6-4.8-3.4-7.3-5l3.3 3c1.1 1 2.2 1.9 3.4 2.9 2.1 1.7 4.2 3.4 6.6 4.9l-4.8 10.6-5 11.2L129 209c-1.6 3.6-3.2 7.3-5 10.8l-12.3.3zm36.6-.7-24.2.5c1.1-1.6 2.2-3.2 3.1-4.9 1.1-1.8 2-3.6 3-5.4 1.9-3.6 3.7-7.3 5.5-11 1.7-3.7 3.4-7.4 5.1-11.2 1.6-3.8 3.2-7.5 4.7-11.4.1-.4 0-.8-.4-1-1.2-.7-2.5-1.5-3.7-2.3-.2-.2-.5-.3-.7-.5.8-.4 1.4-1 2-1.6 5.8 1.3 11.5 2.7 17.2 4.1 2.9.7 5.7 1.5 8.5 2.3 1.4.4 2.8.9 4.1 1.6 1.3.6 2.5 1.4 3.5 2.3-2.4 2.2-4.1 5.1-5.4 8.1-.7 1.6-1.1 3.4-1.4 5.1-.3 1.7-.6 3.4-.8 5.1-.4 3.4-.6 6.8-.7 10.3-.1 3.2-.1 6.4.1 9.6-6.4 0-12.9.1-19.5.3zm19.7-.3c.5-3.1.9-6.3 1.3-9.4l1.1-10.1c.2-1.7.4-3.4.6-5 .2-1.7.6-3.3 1.1-4.9.9-3 2.2-5.9 4-8.6.2.1.4.1.6 0 .5-.3 1.4-.4 2.1-.2.4.1.8.2 1.1.4.1 0 .2.1.2.1v.1c.1.1.1.3.2.5.5 1.6.7 3.5.9 5.3.4 3.6.6 7.3.9 10.9.4 7 .7 13.9.8 20.9-4.8-.1-9.8-.1-14.9 0z" fill="#184f58" stroke-width="none" opacity="1"></path></g><g id="svga-group-head" transform="matrix(1,0,0,1,0,0)"><g id="svga-group-ears-left-move" transform="matrix(1,0,0,1,0,0)"><g id="svga-group-ears-left" transform="matrix(1,0,0,1,0,0)"><path id="SvgjsPath87777" d="M60.8 95.5s-3.2-5.5-5-8c-1.8-2.4-4.1-5-4.9-.8s-.9 12.5.3 18.1 6.2 11.3 8.3 11.3c2.2 0 3.6-8.4 3.6-11.4 0-2.8-1.1-7.1-2.3-9.2z" fill="#fbd5c0" stroke-width="none" opacity="1" stroke="none"></path><path id="SvgjsPath87778" d="M62.6 94.8c.3.8-.2 4.4 0 5.3.4 1.6.8 3.3.9 5 0 1.7-.1 3.3-.4 4.8-.3 1.5-.6 3-1.1 4.3-.3.7-.6 1.3-1 1.9-.2.3-.4.5-.7.7-.2.1-.3.1-.5.1s-.3 0-.5-.1c-.6-.2-1.2-.5-1.7-.9-.3-.2-.5-.5-.8-.7l-.8-.8c-1-1.1-1.9-2.3-2.7-3.7-.8-1.4-1.5-2.9-2-4.6-.1-.4-.2-.8-.3-1.3-.1-.4-.2-.8-.2-1.3-.1-.8-.2-1.7-.3-2.5-.2-1.7-.3-3.3-.3-4.9-.1-3.3-.1-6.5.4-9.6.2-.8.3-1.6.8-2.2l.2-.2c.1-.1.1-.1.2-.1.1-.1.3-.1.5-.2.2 0 5.7.6 6.5 1.9.7 1.5 3.5 8.3 3.8 9.1zM55.8 88c-.9-1.1-1.8-2.2-2.7-2.7-.5-.2-.8-.2-1.1.2-.3.4-.5 1-.6 1.6-.3 1.4-.5 2.9-.6 4.4s-.2 3.1-.2 4.7.1 3.2.3 4.9c.1.8.2 1.6.4 2.4l.3 1.2c.1.4.2.8.3 1.1.5 1.5 1.2 2.9 2 4.1s1.7 2.4 2.6 3.3c.9.9 1.9 1.8 2.8 2 .8.3 1.4-.9 1.9-2.1s.8-2.6 1.1-4 .6-2.9.6-4.4-.2-3.2-.5-4.8c-.3-1.6-.8-3.2-1.6-4.6-1.6-2.4-3.3-5-5-7.3z" fill="#ecb99d" stroke-width="none" opacity="1" stroke="none"></path><path id="SvgjsPath87779" d="M53.7 91.4c1.6 1.3 3.1 3.5 3.8 6.1 0 .2-.1.2-.2.1 0 0 0-.1-.1-.1-.5-.5-1-1.1-1.5-1.1-.8.1-.7 1.6-.4 2.7.4 1.6 1.1 3 1.8 4.4.1.2 0 .3-.1.2-1-1.5-2.7-4.8-2.4-6.9.2-1.9 1.5-1 2.3-.1-.6-1.3-1.3-2.6-2.1-3.6-1.1-1.3-3.4-3.3-3.8-.7 0 .2-.2.1-.2-.1-.2-2.5 1.8-1.7 2.9-.9z" fill="#dc9f7d" stroke-width="none" opacity="1" stroke="none"></path><path id="SvgjsPath87780" d="M57.8 106.7c1 2.6-.6 3.3-1.7 2.2-1.8-1.7-3.1-5.6-3.4-8.8 0-.2.2-.2.2 0 .3 1.8.7 3.5 1.4 5.1.4 1 .9 2 1.5 2.7.4.5.8.9 1.2 1 .9-.1 1.2-.8.8-2.2-.1 0 0-.1 0 0z" fill="#dc9f7d" stroke-width="none" opacity="1" stroke="none"></path></g></g><g id="svga-group-ears-right-move" transform="matrix(1,0,0,1,0,0)"><g id="svga-group-ears-right" transform="matrix(1,0,0,1,0,0)"><path id="SvgjsPath87781" d="M139.2 95.5s3.2-5.5 5-8c1.8-2.4 4.1-5 4.9-.8s.9 12.5-.3 18.1-6.2 11.3-8.3 11.3c-2.2 0-3.6-8.4-3.6-11.4s1.1-7.1 2.3-9.2z" fill="#fbd5c0" stroke-width="none" opacity="1" stroke="none"></path><path id="SvgjsPath87782" d="M141.3 85.8c.8-1.4 6.3-2 6.5-1.9.2 0 .3.1.5.2.1 0 .1.1.2.1l.2.2c.5.6.7 1.4.8 2.2.5 3.1.5 6.4.4 9.6-.1 1.6-.2 3.3-.3 4.9-.1.8-.2 1.7-.3 2.5-.1.4-.1.8-.2 1.3-.1.4-.2.8-.3 1.3-.5 1.7-1.2 3.2-2 4.6s-1.7 2.6-2.7 3.7c-.2.3-.5.5-.8.8-.3.2-.5.5-.8.7-.5.4-1.1.8-1.7.9-.2 0-.3.1-.5.1s-.3-.1-.5-.1c-.3-.2-.5-.4-.7-.7-.4-.5-.7-1.2-1-1.9-.5-1.4-.9-2.8-1.1-4.3-.3-1.5-.4-3.1-.4-4.8.1-1.7.4-3.4.9-5 .2-.8-.3-4.5 0-5.3.2-.9 3-7.7 3.8-9.1zm-2.1 9.7c-.7 1.4-1.2 3-1.6 4.6-.3 1.6-.5 3.3-.5 4.8.1 1.5.4 3 .6 4.4.3 1.4.6 2.8 1.1 4s1.1 2.3 1.9 2.1c.9-.2 1.9-1 2.8-2 .9-1 1.8-2.1 2.6-3.3.8-1.3 1.5-2.6 2-4.1.1-.4.2-.8.3-1.1l.3-1.2c.2-.8.3-1.6.4-2.4.2-1.6.3-3.3.3-4.9s0-3.2-.2-4.7c-.1-1.5-.3-3.1-.6-4.4-.2-.7-.4-1.3-.6-1.6-.3-.3-.7-.4-1.1-.2-.9.5-1.8 1.6-2.7 2.7-1.7 2.1-3.4 4.7-5 7.3z" fill="#ecb99d" stroke-width="none" opacity="1" stroke="none"></path><path id="SvgjsPath87783" d="M146.3 91.4c-1.6 1.3-3.1 3.5-3.8 6.1 0 .2.1.2.2.1 0 0 0-.1.1-.1.5-.5 1-1.1 1.5-1.1.8.1.7 1.6.4 2.7-.4 1.6-1.1 3-1.8 4.4-.1.2 0 .3.1.2 1-1.5 2.7-4.8 2.4-6.9-.2-1.9-1.5-1-2.3-.1.6-1.3 1.3-2.6 2.1-3.6 1.1-1.3 3.4-3.3 3.8-.7 0 .2.2.1.2-.1.2-2.5-1.8-1.7-2.9-.9z" fill="#dc9f7d" stroke-width="none" opacity="1" stroke="none"></path><path id="SvgjsPath87784" d="M142.2 106.7c-1 2.6.6 3.3 1.7 2.2 1.8-1.7 3.1-5.6 3.4-8.8 0-.2-.2-.2-.2 0-.3 1.8-.7 3.5-1.4 5.1-.4 1-.9 2-1.5 2.7-.4.5-.8.9-1.2 1-.9-.1-1.2-.8-.8-2.2.1 0 0-.1 0 0z" fill="#dc9f7d" stroke-width="none" opacity="1" stroke="none"></path></g></g><g id="svga-group-faceshape-wrap" transform="matrix(1,0,0,1,0,0)"><g id="svga-group-faceshape-single"><path id="SvgjsPath87859" d="M143.1 82v-.3c-1.3-29.9-20.7-46.4-43.2-46.4S58 51.7 56.7 81.7v.3c0 2.2-.4 18.8 1.4 25.3 2 7 7.7 14.1 11.2 19 3.5 4.9 12.1 18.7 13.6 21.3s9.5 5.9 16.8 5.9c7.4 0 15.3-3.3 16.8-5.9 1.5-2.6 10.1-16.4 13.6-21.3 3.5-4.9 9.2-12 11.2-19 2.2-6.5 1.9-23.2 1.8-25.3z" fill="#fbd5c0" stroke-width="none" opacity="1" stroke="none"></path><path id="SvgjsPath87860" d="M116.5 147.6c1.5-2.6 10.1-16.4 13.6-21.3 3.5-4.9 9.2-12 11.2-19 2.2-6.5 1.9-23.2 1.8-25.3v-.3c-1.3-29.9-20.7-46.4-43.2-46.4S58 51.7 56.7 81.7v.3c0 2.2-.4 18.8 1.4 25.3 2 7 7.7 14.1 11.2 19 3.5 4.9 12.1 18.7 13.6 21.3s9.5 5.9 16.8 5.9c7.4 0 15.3-3.3 16.8-5.9zm-29.7 0c-.6-.3-1.2-.8-1.5-1.1-.1 0-.6-1-1.1-1.7-1.7-2.9-3.5-4.8-5.3-7.7s-3.6-5.8-5.5-8.7c-.9-1.4-2-2.9-3-4.3l-3.1-4c-2-2.7-3.9-5.4-5.5-8.2-.8-1.4-1.5-2.9-2-4.4s-.8-3-1.1-4.7c-.5-3.3-.7-6.7-.9-10-.1-1.7-.2-3.4-.2-5.1l-.1-5.1c.1-6.7 1.2-13.4 3.7-19.6.2-.4.3-.8.4-1.2l.6-1.1 1.1-2.2c.3-.8.9-1.4 1.3-2.1.4-.7.9-1.4 1.3-2.1 2-2.6 4.1-5.2 6.7-7.3.6-.5 1.2-1.1 1.9-1.6l2-1.4 1-.7 1.1-.6 2.1-1.2c.7-.4 1.5-.6 2.2-1 .8-.3 1.5-.7 2.3-.9 1.5-.5 3.1-1 4.7-1.3.8-.2 1.6-.4 2.4-.5l2.4-.3 1.2-.1h1.2l2.4-.1c.8 0 1.6.1 2.4.1.8.1 1.6 0 2.4.2 1.6.3 3.2.3 4.8.8l2.4.5 2.3.7c1.6.4 3 1.2 4.5 1.8.8.3 1.4.8 2.1 1.1.7.4 1.5.7 2.1 1.2 1.3.9 2.8 1.7 4 2.8 5.1 4.1 9.3 9.5 12 15.6s4.1 12.9 4.4 19.6c.1 6.8-.1 13.6-1.2 20.2-.3 1.6-.6 3.3-1.2 4.8-.5 1.6-1.2 3-2 4.5-1.6 2.9-3.6 5.6-5.6 8.2l-3.2 4c-1.1 1.3-2.1 2.8-3.1 4.2s-1.9 2.8-2.9 4.3l-2.8 4.3c-1.8 2.9-3.6 4.8-5.3 7.7l-1.3 2.1c0 .1-.5.6-1.1.9-1.1.7-2.6 1.4-4 1.9-2.9 1-6.1 1.7-9.1 1.7s-6.2-.5-9.1-1.4c-1.6-.2-3-.8-4.2-1.5z" fill="#cd865f" stroke-width="none" opacity="1" stroke="none"></path></g></g><g id="svga-group-mouth-single-move" transform="matrix(1,0,0,1,0,0)"><g id="svga-group-mouth-single" transform="matrix(1,0,0,1,0,0)"><path id="SvgjsPath87950" d="M89.9 128.6s-.1-3.9 6.7-6.1c.3-.1.6 0 .8.2.4.3 1.1.8 2.2.8 1.2 0 1.9-.5 2.2-.9.2-.2.4-.4.8-.4.8 0 2.8.4 4.6 1.6 2.6 1.8 3.2 3.6 3.5 5 0 0-2.1.4-3.8-.5-1.6-.9-3.6-1-4.8-1.1-1.2-.1-4.6-.2-4.8-.1-.2 0-5.1.9-5.4 1.2-.3.3-2 .3-2 .3z" fill="#da828c" stroke-width="none" opacity="1" transform="translate(0 2)" stroke="none"></path><path id="SvgjsPath87951" d="M90.3 129.4s1.6 3.2 2.2 4c.7.8 2.2 1.4 6.8 1.4s7.8-.1 8.8-.7c1-.6 2.3-4.8 2.2-5.3 0 0-2.8-.5-4.9-1.2s-6.7-1.4-9.9-.4c-3.2 1-5.2 2.2-5.2 2.2z" fill="#E2929B" stroke-width="none" opacity="1" transform="translate(0 2)" stroke="none"></path><path id="SvgjsPath87952" d="M87.7 127.9c.6.9 1.4 1.2 2.3 1.8.2.1.5.1.7 0 2.8-1.7 4.9-2.4 9.4-2.2 1.9.1 3.8.3 5.6.9 2.4.9 7.1 2.8 8.1-1.1.1-.4-.4-.8-.8-.4-2 2.1-4.3 1.4-6.8.5-1.5-.7-4-.8-6.1-.8-2-.1-4.1-.2-5.9.3-1 .3-1.9.7-2.8 1.2-1.3.7-2 .2-3.2-.7-.3-.1-.6.2-.5.5z" fill="#d3737e" stroke-width="none" opacity="1" transform="translate(0 2)" stroke="none"></path><path id="SvgjsPath87953" d="M112.6 126.3c.5.4 1 .7 1.3 1.3.1.3.2.6.2.9v.9c.1.3.5.5.8.3.8-.6.8-2 .4-2.8-.4-.9-1.3-1.9-2.4-1.7-.4.2-.8.7-.3 1.1zm-25.5.8c-.3.5-.6 1-.7 1.5 0 .2.2.3.4.2.4-.3.7-.9.9-1.4.3-.3-.4-.7-.6-.3z" fill="#f3c7ae" stroke-width="none" opacity="1" transform="translate(0 2)" stroke="none"></path></g></g><g id="svga-group-eyes-left-move" transform="matrix(1,0,0,1,0,0)"><g id="svga-group-eyes-left" transform="matrix(1,0,0,1,0,0)"><g id="svga-group-eyesback-left"><path id="SvgjsPath87815" d="M89.5 94.7s-.9-1.9-2.9-3.3c-2-1.3-4.8-2.7-9-1.7-4.2 1-6.6 3.3-8.1 5.3 0 0 .4.5 1.4 1.1 1 .6 4.7 2.7 8.8 2.5 4.1-.2 7.8-2.5 8.5-2.9.7-.3 1.3-1 1.3-1z" fill="#ffffff" stroke-width="none" opacity="1"></path></g><g id="svga-group-eyesiriswrapper-left" transform="matrix(1,0,0,1,0,0)"><g id="svga-group-eyesiriscontrol-left" transform="matrix(1,0,0,1,0,0)"><g id="svga-group-eyesiris-left" transform="matrix(1,0,0,1,0,0)"><path id="SvgjsPath87875" d="M80.1 88.3c2.9 0 5.2 2.3 5.2 5.2s-2.3 5.2-5.2 5.2-5.2-2.3-5.2-5.2 2.3-5.2 5.2-5.2z" fill="#fdd70e" stroke-width="none" opacity="1"></path><path id="SvgjsPath87876" d="M80.1 88.6c2.7 0 4.9 2.2 4.9 4.9s-2.2 4.9-4.9 4.9-4.9-2.2-4.9-4.9 2.1-4.9 4.9-4.9m0-.5c-3 0-5.5 2.4-5.5 5.5 0 3 2.4 5.5 5.5 5.5 3 0 5.5-2.4 5.5-5.5s-2.5-5.5-5.5-5.5z" fill="#debb00" stroke-width="none" opacity="1"></path><path id="SvgjsPath87877" d="M82.7 89c-.1.3-.3.7-.5 1-.2.3-.4.6-.7.9.1-.3.3-.7.5-1 .2-.4.4-.7.7-.9zm.7.6-.6.9c-.2.3-.5.6-.8.8l.6-.9c.3-.3.5-.6.8-.8zm-.9 2c.2-.3.4-.5.6-.7.2-.2.5-.4.8-.5-.2.3-.4.5-.6.7-.2.2-.5.4-.8.5zm.3.6c.3-.2.6-.3.9-.4.3-.1.6-.2 1-.3-.3.2-.6.3-.9.4-.4.2-.7.3-1 .3zm.3.5c.3-.1.6-.2.9-.2s.6-.1.9-.1c-.3.1-.6.2-.9.2-.3.1-.6.2-.9.1zm.1.7c.2 0 .3-.1.5-.1h.5c.3 0 .6.1.9.2-.3.1-.6 0-.9 0-.2 0-.3 0-.4-.1-.3.1-.5.1-.6 0zm-.2.6c.3 0 .6.1.9.1l.9.3c-.3 0-.6-.1-.9-.1-.3 0-.6-.1-.9-.3zm0 .7c.2 0 .3.1.4.1.1.1.3.1.4.2.3.1.5.3.7.5-.3-.1-.6-.2-.8-.3-.1-.1-.3-.1-.4-.2 0-.1-.2-.2-.3-.3zm-.5.8c.3.1.5.2.7.4.2.2.4.3.6.6-.3-.1-.5-.2-.7-.4l-.6-.6zm-.9-6.8c0 .3-.1.7-.2 1-.1.3-.2.6-.4.9 0-.3.1-.7.2-1 .1-.3.2-.7.4-.9zm-1.3 1.7c-.1-.3 0-.7 0-1 0-.3.1-.7.2-1 .1.3 0 .7 0 1s-.1.7-.2 1zm-1.1-2c.1.3.2.7.3 1 .1.3.1.7.1 1-.1-.3-.2-.6-.3-1 0-.2-.1-.3-.1-.5v-.5zm-1.1.4c.2.3.3.6.4.9.1.3.2.7.3 1-.2-.3-.3-.6-.4-.9-.2-.3-.3-.7-.3-1zm-.9.5c.2.2.5.5.7.8s.4.6.5.9c-.2-.2-.5-.5-.7-.8-.2-.3-.4-.5-.5-.9zm-1 .9c.3.2.7.4.9.7.3.2.6.5.8.8-.3-.2-.7-.4-.9-.7-.3-.3-.6-.5-.8-.8zm-.3 1c.3.1.5.2.8.3.2.1.5.3.7.5-.3-.1-.5-.2-.8-.3-.3-.1-.5-.3-.7-.5zm-.5 1c.3 0 .5 0 .8.1s.5.1.7.3c-.3 0-.5 0-.8-.1s-.4-.1-.7-.3zm-.2 1.2c.3-.1.6-.1.8-.1s.6 0 .8.1c-.3.1-.6.1-.8.1-.2 0-.5-.1-.8-.1zm.1.9c.2-.1.5-.2.8-.2.3-.1.5-.1.8-.1-.2.1-.5.2-.8.2-.2.1-.5.1-.8.1zm.1.9c.3-.2.6-.3.9-.3s.6-.2.9-.2c-.3.2-.6.3-.9.3-.3.1-.6.2-.9.2zm.5.9c.2-.2.5-.3.8-.5.3-.1.5-.2.8-.3-.2.2-.5.3-.8.5-.2.1-.5.2-.8.3zm.8.9c.1-.2.3-.4.5-.6.2-.2.4-.4.6-.5-.1.2-.3.4-.5.6-.2.2-.4.4-.6.5zm.9.8c.1-.3.2-.7.4-.9.2-.3.3-.6.6-.9-.1.3-.2.7-.4.9-.2.4-.4.7-.6.9zm1.1.4c0-.3 0-.5.1-.8.1-.3.2-.5.3-.8 0 .3 0 .5-.1.8 0 .3-.1.5-.3.8zm2.7-1.8c.2.2.2.5.3.7.1.3.2.5.2.8-.2-.2-.2-.5-.3-.7-.1-.2-.2-.5-.2-.8zm.7-.3c.2.2.4.4.5.6.2.2.3.4.4.7-.2-.2-.4-.4-.5-.6-.2-.2-.3-.4-.4-.7zm-1.5.6c.1.2.1.5.2.8v.8c-.1-.2-.1-.5-.2-.8v-.8zm-.7.1c.1.2.1.5.1.7 0 .3 0 .5-.1.8-.1-.3-.1-.5-.1-.8 0-.2.1-.5.1-.7z" fill="#cfae00" stroke-width="none" opacity="1"></path><path id="SvgjsPath87878" d="M80.1 90.6c1.6 0 2.9 1.3 2.9 2.9s-1.3 2.9-2.9 2.9-2.9-1.3-2.9-2.9 1.2-2.9 2.9-2.9z" fill="#000000" stroke-width="none" opacity="1"></path><path id="SvgjsPath87879" d="m79.3 91.1-.6-.6c-.2-.2-.5-.3-.7-.3-.2 0-.6.1-.7.3-.2.2-.3.5-.3.8 0 .3.1.5.3.7l.6.6c.2.2.5.3.7.3.2 0 .6-.1.7-.3.4-.4.4-1.1 0-1.5zm2.8 5c.9 0 .9-1.5 0-1.5s-1 1.5 0 1.5z" fill="#ffffff" stroke-width="none" opacity="1"></path></g></g></g><g id="svga-group-eyesfront-left"><path id="SvgjsPath87823" d="M69.4 94.6c0 6.4 4.7 11.5 10.6 11.5s10.6-5.2 10.6-11.5S85.9 83.1 80 83.1s-10.6 5.1-10.6 11.5zm.1.5c1.5-1.9 4-4.3 8.1-5.3s7 .4 9 1.7c2 1.3 2.9 3.3 2.9 3.3s-.6.6-1.3 1.1c-.7.4-4.4 2.7-8.5 2.9-4.1.2-7.8-1.9-8.8-2.5-.9-.7-1.4-1.2-1.4-1.2z" fill="#fbd5c0" stroke-width="none" opacity="1" stroke="none"></path><path id="SvgjsPath87824" d="M89 91.7c-4.4-3.6-9.7-4.3-15-2.6-.2.1-.3-.2-.1-.3 5-2.2 11.3-.9 15.2 2.8.1 0 0 .1-.1.1z" fill="#ecb99d" stroke-width="none" opacity="1" stroke="none"></path><path id="SvgjsPath87825" d="M68.9 96c.2-.2.5-.4.7-.6 5.1 5.2 15 4.5 20-.4 0 0 0 .1.1.1.1.2.4 0 .3-.2 0-.1-.1-.1-.1-.2.1-.1 0-.3-.2-.3-2.1-3.6-6.3-5.4-10.4-5.2-3.9.2-9.2 2.8-10.7 6.6-.2.3.1.4.3.2zm.9-.8c1.2-1.1 2.2-2.4 3.7-3.3 1.6-1 3.3-1.7 5.2-2 4.2-.7 8.4 1.3 10.6 4.8-2.8 2.1-5.9 3.6-9.5 3.7-3.9.1-6.7-1.3-10-3.2z" fill="#191c29" stroke-width="none" opacity="1" stroke="none"></path></g></g></g><g id="svga-group-eyes-right-move" transform="matrix(1,0,0,1,0,0)"><g id="svga-group-eyes-right" transform="matrix(1,0,0,1,0,0)"><g id="svga-group-eyesback-right"><path id="SvgjsPath87816" d="M110.5 94.7s.9-1.9 2.9-3.3c2-1.3 4.8-2.7 9-1.7 4.2 1 6.6 3.3 8.1 5.3 0 0-.4.5-1.4 1.1-1 .6-4.7 2.7-8.8 2.5-4.1-.2-7.8-2.5-8.5-2.9-.7-.3-1.3-1-1.3-1z" fill="#ffffff" stroke-width="none" opacity="1"></path></g><g id="svga-group-eyesiriswrapper-right" transform="matrix(1,0,0,1,0,0)"><g id="svga-group-eyesiriscontrol-right" transform="matrix(1,0,0,1,0,0)"><g id="svga-group-eyesiris-right" transform="matrix(1,0,0,1,0,0)"><path id="SvgjsPath87880" d="M119.9 88.3c2.9 0 5.2 2.3 5.2 5.2s-2.3 5.2-5.2 5.2-5.2-2.3-5.2-5.2 2.4-5.2 5.2-5.2z" fill="#fdd70e" stroke-width="none" opacity="1"></path><path id="SvgjsPath87881" d="M119.9 88.6c2.7 0 4.9 2.2 4.9 4.9s-2.2 4.9-4.9 4.9-4.9-2.2-4.9-4.9 2.2-4.9 4.9-4.9m0-.5c-3 0-5.5 2.4-5.5 5.5 0 3 2.4 5.5 5.5 5.5 3 0 5.5-2.4 5.5-5.5s-2.4-5.5-5.5-5.5z" fill="#debb00" stroke-width="none" opacity="1"></path><path id="SvgjsPath87882" d="M122.6 89c-.1.3-.3.7-.5 1-.2.3-.4.6-.7.9.1-.3.3-.7.5-1 .2-.4.4-.7.7-.9zm.7.6-.6.9c-.2.3-.5.6-.8.8l.6-.9c.3-.3.5-.6.8-.8zm-.9 2c.2-.3.4-.5.6-.7.2-.2.5-.4.8-.5-.2.3-.4.5-.6.7-.3.2-.5.4-.8.5zm.3.6c.3-.2.6-.3.9-.4.3-.1.6-.2 1-.3-.3.2-.6.3-.9.4-.4.2-.7.3-1 .3zm.3.5c.3-.1.6-.2.9-.2s.6-.1.9-.1c-.3.1-.6.2-.9.2-.3.1-.6.2-.9.1zm.1.7c.2 0 .3-.1.5-.1h.5c.3 0 .6.1.9.2-.3.1-.6 0-.9 0-.2 0-.3 0-.4-.1-.3.1-.5.1-.6 0zm-.2.6c.3 0 .6.1.9.1l.9.3c-.3 0-.6-.1-.9-.1-.3 0-.6-.1-.9-.3zm0 .7c.2 0 .3.1.4.1.1.1.3.1.4.2.3.1.5.3.7.5-.3-.1-.6-.2-.8-.3-.1-.1-.3-.1-.4-.2 0-.1-.2-.2-.3-.3zm-.5.8c.3.1.5.2.7.4.2.2.4.3.6.6-.3-.1-.5-.2-.7-.4l-.6-.6zm-.9-6.8c0 .3-.1.7-.2 1-.1.3-.2.6-.4.9 0-.3.1-.7.2-1 .1-.3.2-.7.4-.9zm-1.3 1.7c-.1-.3 0-.7 0-1 0-.3.1-.7.2-1 .1.3 0 .7 0 1s-.1.7-.2 1zm-1.1-2c.1.3.2.7.3 1 .1.3.1.7.1 1-.1-.3-.2-.6-.3-1 0-.2-.1-.3-.1-.5v-.5zm-1.1.4c.2.3.3.6.4.9.1.3.2.7.3 1-.2-.3-.3-.6-.4-.9-.2-.3-.3-.7-.3-1zm-.9.5c.2.2.5.5.7.8s.4.6.5.9c-.2-.2-.5-.5-.7-.8-.2-.3-.4-.5-.5-.9zm-1 .9c.3.2.7.4.9.7.3.2.6.5.8.8-.3-.2-.7-.4-.9-.7-.3-.3-.6-.5-.8-.8zm-.3 1c.3.1.5.2.8.3.2.1.5.3.7.5-.3-.1-.5-.2-.8-.3-.3-.1-.5-.3-.7-.5zm-.5 1c.3 0 .5 0 .8.1s.5.1.7.3c-.3 0-.5 0-.8-.1s-.4-.1-.7-.3zm-.2 1.2c.3-.1.6-.1.8-.1s.6 0 .8.1c-.3.1-.6.1-.8.1-.2 0-.5-.1-.8-.1zm.1.9c.2-.1.5-.2.8-.2.3-.1.5-.1.8-.1-.2.1-.5.2-.8.2-.2.1-.5.1-.8.1zm.1.9c.3-.2.6-.3.9-.3s.6-.2.9-.2c-.3.2-.6.3-.9.3-.3.1-.6.2-.9.2zm.5.9c.2-.2.5-.3.8-.5.3-.1.5-.2.8-.3-.2.2-.5.3-.8.5-.3.1-.5.2-.8.3zm.8.9c.1-.2.3-.4.5-.6.2-.2.4-.4.6-.5-.1.2-.3.4-.5.6-.2.2-.4.4-.6.5zm.9.8c.1-.3.2-.7.4-.9.2-.3.3-.6.6-.9-.1.3-.2.7-.4.9-.2.4-.4.7-.6.9zm1.1.4c0-.3 0-.5.1-.8.1-.3.2-.5.3-.8 0 .3 0 .5-.1.8-.1.3-.1.5-.3.8zm2.7-1.8c.2.2.2.5.3.7.1.3.2.5.2.8-.2-.2-.2-.5-.3-.7-.1-.2-.2-.5-.2-.8zm.7-.3c.2.2.4.4.5.6.2.2.3.4.4.7-.2-.2-.4-.4-.5-.6-.2-.2-.3-.4-.4-.7zm-1.5.6c.1.2.1.5.2.8v.8c-.1-.2-.1-.5-.2-.8v-.8zm-.7.1c.1.3.1.5.1.8 0 .3 0 .5-.1.8-.1-.3-.1-.5-.1-.8 0-.3.1-.6.1-.8z" fill="#cfae00" stroke-width="none" opacity="1"></path><path id="SvgjsPath87883" d="M119.9 90.6c1.6 0 2.9 1.3 2.9 2.9s-1.3 2.9-2.9 2.9-2.9-1.3-2.9-2.9 1.3-2.9 2.9-2.9z" fill="#000000" stroke-width="none" opacity="1"></path><path id="SvgjsPath87884" d="m119.2 91.1-.6-.6c-.2-.2-.5-.3-.7-.3-.2 0-.6.1-.7.3-.2.2-.3.5-.3.7 0 .3.1.5.3.7l.6.6c.2.2.5.3.7.3.2 0 .6-.1.7-.3.4-.3.4-1 0-1.4zm2.7 5c.9 0 .9-1.5 0-1.5s-.9 1.5 0 1.5z" fill="#ffffff" stroke-width="none" opacity="1"></path></g></g></g><g id="svga-group-eyesfront-right"><path id="SvgjsPath87826" d="M120 83.1c-5.9 0-10.6 5.2-10.6 11.5s4.7 11.5 10.6 11.5 10.6-5.2 10.6-11.5-4.8-11.5-10.6-11.5zm9.1 13.1c-1 .6-4.7 2.7-8.8 2.5-4.1-.2-7.8-2.5-8.5-2.9-.7-.4-1.3-1.1-1.3-1.1s.9-1.9 2.9-3.3c2-1.3 4.8-2.7 9-1.7s6.6 3.3 8.1 5.3c0 .1-.5.6-1.4 1.2z" fill="#fbd5c0" stroke-width="none" opacity="1" stroke="none"></path><path id="SvgjsPath87829" d="M111 91.7c4.4-3.6 9.7-4.3 15-2.6.2.1.3-.2.1-.3-5-2.2-11.3-.9-15.2 2.8-.1 0 0 .1.1.1z" fill="#ecb99d" stroke-width="none" opacity="1" stroke="none"></path><path id="SvgjsPath87830" d="M131.5 95.8c-1.5-3.8-6.8-6.4-10.7-6.6-4.1-.2-8.3 1.6-10.4 5.2-.1 0-.3.2-.2.3 0 .1-.1.1-.1.2-.1.2.2.4.3.2 0 0 0-.1.1-.1 5 5 14.9 5.7 20 .4.2.2.4.4.7.6.1.2.4.1.3-.2zm-11.3 2.6c-3.6-.1-6.7-1.7-9.5-3.7 2.2-3.6 6.4-5.5 10.6-4.8 1.8.3 3.6 1 5.2 2 1.5.9 2.5 2.2 3.7 3.3-3.3 1.9-6.1 3.3-10 3.2z" fill="#191c29" stroke-width="none" opacity="1" stroke="none"></path></g></g></g><g id="svga-group-facehighlight-single"></g><g id="svga-group-eyebrows-left-move" transform="matrix(1,0,0,1,0,0)"><g id="svga-group-eyebrows-left-rotate" transform="matrix(1,0,0,1,0,0)"><g id="svga-group-eyebrows-left" transform="matrix(1,0,0,1,0,0)"><path id="SvgjsPath87737" d="M93.4 84.4c.1-.2.5-.1.5.1 0 1.2-.6 2.3-1.2 3.3-.2.3-.6 0-.5-.3.4-.9.7-2.1 1.2-3.1zm-1.9-3.2c.9 1.7.9 3.8.5 5.6-.1.3-.5.2-.5-.1.1-1.8-.3-3.6-.4-5.4 0-.2.3-.3.4-.1zm-4.1-.7c-.1-.3.2-.7.5-.5 1.6 1.2 2.6 3.4 3.2 5.2.1.3-.4.5-.6.2-.5-.9-1-1.7-1.5-2.5s-1.2-1.6-1.6-2.4zm-4.3-.9c-.3-.3 0-.7.3-.6 1.1.3 2.1 1.2 2.8 2 .9.9 1.5 1.9 2 3.1.2.4-.3.7-.5.3-.6-1-1.3-1.9-2.1-2.7-.8-.9-1.8-1.4-2.5-2.1zm-4.3.3c-.4-.2-.4-.8.1-.8 2.1-.2 4.4 1.2 5.8 2.8 0-.1-.1-.1-.1-.2-.1-.2.1-.3.3-.3.4.2.8.6 1.1 1 .3.4.6.8.8 1.2.1.2-.2.4-.3.2-.3-.4-.7-.8-1-1.1l-.6-.6.1.1c.2.3-.2.8-.5.5-.8-.6-1.6-1.3-2.6-1.7-.9-.5-2-.7-3.1-1.1zm-5.1.9c2-1 4.4-.4 6.3.8.3.2.1.6-.2.5-2-.8-3.9-.7-5.9-.7-.3-.1-.4-.5-.2-.6zm-3.2 1c2.1-.5 4.5.1 6.5.9.3.1.2.6-.1.5-2.1-.4-4.2-.4-6.3-.8-.5.1-.4-.5-.1-.6zm-3.8 3.6c-.2.1-.5-.2-.3-.4 1.3-1.8 4-2.1 6-1.6.4.1.3.7-.1.7-1-.1-2 0-3 .2-.9.3-1.7.8-2.6 1.1zm-1.6 1.9c.9-1.2 2.9-1.8 4.3-2 .4-.1.6.5.2.7-.8.2-1.6.6-2.3.9-.6.3-1.2.8-1.9 1-.3.1-.5-.4-.3-.6zM78.4 80c1.7.2 3.5 1.6 4.5 2.9.2.3-.2.5-.4.3-.7-.6-1.3-1.1-2.1-1.6-.7-.4-1.5-.7-2.1-1.1-.2-.1-.2-.6.1-.5zm-4.3 1.7c-.2 0-.2-.3 0-.3 1.4-.2 3.2.1 4.4.9.2.1.1.3-.1.3-.7-.1-1.4-.4-2.1-.5-.8-.2-1.5-.2-2.2-.4zm13.5.1c1.1.8 1.9 2.3 2 3.6 0 .2-.3.2-.4.1l-.9-1.8c-.3-.6-.7-1.1-1-1.7 0-.1.2-.3.3-.2zm5 3.2c0-1-.2-2.1-.2-3.1 0-.2.3-.2.3-.1.5 1 .6 2.2.3 3.2-.1.3-.4.3-.4 0z" fill="#3b3128" stroke-width="none" opacity="1"></path></g></g></g><g id="svga-group-eyebrows-right-move" transform="matrix(1,0,0,1,0,0)"><g id="svga-group-eyebrows-right-rotate" transform="matrix(1,0,0,1,0,0)"><g id="svga-group-eyebrows-right" transform="matrix(1,0,0,1,0,0)"><path id="SvgjsPath87738" d="M106.6 84.4c-.1-.2-.5-.1-.5.1 0 1.2.6 2.3 1.2 3.3.2.3.6 0 .5-.3-.4-.9-.7-2.1-1.2-3.1zm1.9-3.2c-.9 1.7-.9 3.8-.5 5.6.1.3.5.2.5-.1-.1-1.8.3-3.6.4-5.4 0-.2-.3-.3-.4-.1zm4.1-.7c.1-.3-.2-.7-.5-.5-1.6 1.2-2.6 3.4-3.2 5.2-.1.3.4.5.6.2.5-.9 1-1.7 1.5-2.5s1.2-1.6 1.6-2.4zm4.3-.9c.3-.3 0-.7-.3-.6-1.1.3-2.1 1.2-2.8 2-.9.9-1.5 1.9-2 3.1-.2.4.3.7.5.3.6-1 1.3-1.9 2.1-2.7.8-.9 1.8-1.4 2.5-2.1zm4.3.3c.4-.2.4-.8-.1-.8-2.1-.2-4.4 1.2-5.8 2.8 0-.1.1-.1.1-.2.1-.2-.1-.3-.3-.3-.4.2-.8.6-1.1 1-.3.4-.6.8-.8 1.2-.1.2.2.4.3.2.3-.4.7-.8 1-1.1l.6-.6-.1.1c-.2.3.2.8.5.5.8-.6 1.6-1.3 2.6-1.7.9-.5 2-.7 3.1-1.1zm5.1.9c-2-1-4.4-.4-6.3.8-.3.2-.1.6.2.5 2-.8 3.9-.7 5.9-.7.3-.1.4-.5.2-.6zm3.2 1c-2.1-.5-4.5.1-6.5.9-.3.1-.2.6.1.5 2.1-.4 4.2-.4 6.3-.8.5.1.5-.5.1-.6zm3.8 3.6c.2.1.5-.2.3-.4-1.3-1.8-4-2.1-6-1.6-.4.1-.3.7.1.7 1-.1 2 0 3 .2.9.3 1.7.8 2.6 1.1zm1.6 1.9c-.9-1.2-2.9-1.8-4.3-2-.4-.1-.6.5-.2.7.8.2 1.6.6 2.3.9.6.3 1.2.8 1.9 1 .3.1.5-.4.3-.6zM121.6 80c-1.7.2-3.5 1.6-4.5 2.9-.2.3.2.5.4.3.7-.6 1.3-1.1 2.1-1.6.7-.4 1.5-.7 2.1-1.1.2-.1.2-.6-.1-.5zm4.3 1.7c.2 0 .2-.3 0-.3-1.4-.2-3.2.1-4.4.9-.2.1-.1.3.1.3.7-.1 1.4-.4 2.1-.5.8-.2 1.5-.2 2.2-.4zm-13.5.1c-1.1.8-1.9 2.3-2 3.6 0 .2.3.2.4.1l.9-1.8c.3-.6.7-1.1 1-1.7 0-.1-.2-.3-.3-.2zm-5 3.2c0-1 .2-2.1.2-3.1 0-.2-.3-.2-.3-.1-.5 1-.6 2.2-.3 3.2.1.3.4.3.4 0z" fill="#3b3128" stroke-width="none" opacity="1"></path></g></g></g><g id="svga-group-beardwrap" transform="matrix(1,0,0,1,0,0)"><g id="svga-group-beard-single-move" transform="matrix(1,0,0,1,0,0)"><g id="svga-group-beard-single" transform="matrix(1,0,0,1,0,0)"></g></g></g><g id="svga-group-mustache-single-move" transform="matrix(1,0,0,1,0,0)"><g id="svga-group-mustache-single" transform="matrix(1,0,0,1,0,0)"></g></g><g id="svga-group-nose-single-move" transform="matrix(1,0,0,1,0,0)"><g id="svga-group-nose-single" transform="matrix(1,0,0,1,0,0)"><path id="SvgjsPath87931" d="M105.06 106.65c.56.92 2.64 3.61 3.09 4.9.45 1.29-.13 3.22-1.48 3.61s-3.61-.39-3.93-.19c-.32.19-1.87 2.06-2.58 1.93-.71-.13-2.64-2.13-3.03-2.13-.39 0-2.13.45-2.97.45-.84 0-2.9-.71-2.64-2.51.26-1.81 2.45-5.54 2.9-6.06.45-.52 1.48-2.32 1.74-3.42s.58-7.03.71-8.38c.13-1.35 1.35-2.97 2.58-3.09 1.23-.13 3.35.77 3.55 2.9.19 2.13.58 6.38.77 8.12.19 1.74.58 2.71 1.29 3.87z" fill="#fbd5c0" stroke-width="none" opacity="1" transform="translate(0 1)" stroke="none"></path><path id="SvgjsPath87932" d="M97.62 85.76c-.84 3.5-.96 7.24-1.34 10.81-.4 3.83-1.14 7.78-1.09 11.63 0 .31.48.39.55.07.78-3.52.88-7.26 1.24-10.84.39-3.82 1.1-7.79.98-11.63 0-.18-.29-.24-.34-.04z" fill="#cd865f" stroke-width="none" opacity="1" transform="translate(0 1)" stroke="none"></path><path id="SvgjsPath87933" d="M94.46 106.19c-1.03 1.37-1.9 2.87-2.65 4.41-.49 1-1.09 2.17-.77 3.32.53 1.89 2.93 2.49 4.5 1.58.47-.27.26-.99-.27-1-.92-.01-1.98.28-2.72-.5-.88-.94-.01-2.63.38-3.57.58-1.39 1.28-2.72 1.83-4.12.07-.19-.2-.26-.3-.12z" fill="#cd865f" stroke-width="none" opacity="1" transform="translate(0 1)" stroke="none"></path><path id="SvgjsPath87934" d="M94.31 113.98c2.84-.21 3.38 3.37 6.07 3.45 2.31.07 2.5-3.41 4.69-3.3.26.01.34-.35.13-.47-2.49-1.47-2.95 2.86-5.24 2.59-1.36-.16-2.32-2.16-3.54-2.73-.83-.39-1.43-.36-2.23.02-.22.09-.11.46.12.44z" fill="#cd865f" stroke-width="none" opacity="1" transform="translate(0 1)" stroke="none"></path><path id="SvgjsPath87935" d="M104.29 115.6c1.87.42 4.05-.16 4.49-2.24.22-1.04-.13-2.07-.67-2.95-.89-1.44-2.03-2.66-2.87-4.15-.14-.25-.49-.12-.51.14-.11 1.67 1.13 2.83 2.02 4.12.82 1.19 1.53 2.83.15 4-.63.54-1.83.44-2.6.59-.26.04-.25.43-.01.49z" fill="#cd865f" stroke-width="none" opacity="1" transform="translate(0 1)" stroke="none"></path><path id="SvgjsPath87936" d="M102.45 109.98c-.41-.74-1.47-.85-2.06-.26-.05.05-.24.29-.3.36-.07.09-.2.26-.23.29-.07.1-.12.21-.18.32l-.12.28c0-.01-.01.01-.03.05-.06.06-.12.13-.18.2-.18.19-.36.38-.5.6-.42.67-.08 1.42.48 1.84.87.65 2.13.13 2.74-.61.76-.89.96-2.03.38-3.07z" fill="#ffe1d0" stroke-width="none" opacity="1" transform="translate(0 1)" stroke="none"></path></g></g><g id="svga-group-hair-front" transform="matrix(1,0,0,1,0,0)"><path id="SvgjsPath87977" d="M61.3 97.9s.9-21.3 1.5-25.4c.5-4.2 2.5-15.6 6.4-18.7s7.1-6 16.9-4 11.4 4 18.5 2.4 11.3-3.1 11.3-3.1 5.6 1.1 9.3 2c3.6.9 6.5 4.5 9.1 10.9 2.5 6.4 5.6 18.9 4.9 27.8-.7 8.9.9 7.6.9 7.6l3.3-7.3s3.1-5.8 1.6-10.5c0 0 .7-4.2.6-6.4s-1.8-5.3-1.8-5.3.7-6.9 0-9.3-1.3-3.3-1.3-3.3.6-4.2-1.3-7.3-5.4-6-5.4-6-4.7-12-8.9-14-6-5.1-11.3-6c-5.3-.9-11.6.5-11.6.5s-2.5-2-8.2-.2c0 0-4-1.6-10.4.9s-8.7 6.4-8.7 6.4-6.4 2.2-8.2 5.3c0 0-8.2 4-10.4 10.9s-.9 10.7-.9 10.7-2.5 5.8-.7 11.5c0 0-3.1 3.3-.9 11.3 0 0-1.8 3.8.5 9.4 2.3 5.7 2.1 9 5.2 9.2z" fill="#3b3128" stroke-width="none" opacity="1" stroke="none"></path><path id="SvgjsPath87978" d="M144.4 67.3c.7-4.2.2-8.7-1.3-12.2 0-.1-.1-.2-.2-.2.1-1.3.1-2.6-.2-4-.8-4.1-3.6-6.7-6.7-9.3-.1 0-.1-.1-.1-.1-1.3-4.4-3.6-8.6-6.6-11.9-6.3-7.1-17.5-11.7-26.2-6-.2.2-.1.6.2.5 9.9-4 19.9-.2 26.2 8.2 5.2 6.9 6.2 14.6 5.6 23-.1.6.9.7 1.1.2 1.1-3.9 1.1-8.1.1-12.1 1.5 1.7 3.3 3.2 4.3 5.2 2.7 5.4.1 11.5-3.1 16-.4.5.5 1 .8.5 1.9-2.6 3.5-5.5 4.2-8.6.6 3.4 1 6.6.4 10.1-.6 3.4-2.2 6.3-3.6 9.5-.2.4.3.9.7.5 1.8-1.9 3-4.4 3.8-7.2.4 2 .7 3.9.4 6-.2 2.2-1.2 4.1-1.5 6.2 0 .3.4.5.6.3.4-.4.8-.9 1.1-1.5 0 3.4-.7 6.4-1.9 9.6-.5 1.3-1.7 4.8-3 6.6.7-10.4-.3-22-3.5-31.8-1.7-5.2-4.7-10.9-9.5-13.5.6 0 1.3-.1 1.9-.2.5-.1.5-.9 0-1-5.9-1.1-11.6-1.8-16.8-5.2-6.8-4.5-11.4-12.8-9.3-21 .1-.5-.6-.7-.8-.2-3.9 9.8 3.3 20 12.6 24.8-2.1.7-4.3 1.3-6.4 1.8-8.5 0-17.6-2.6-20.1-11.9-2.8-10.2 6.4-18 16.1-15.9.4.1.6-.5.2-.6-3-1.2-5.9-1.2-8.6-.3-6.4-.8-13.1 1-17.6 5.7h-.2c-3.6 2.1-7.2 4.2-9.8 7.2-7.6 3.3-14.3 13.7-11.7 21.8-1.1 3.3-1.4 7.2-.8 10.9-1.5 3-2.1 8.1-.8 11.8-1.4 4.4.5 9.3 2.2 13.4 1.2 2.8 1 5.2 4 6.4.2.1.4.1.5-.1.4-.1.7-.3.8-.8.1-11.4.8-22.8 3.6-33.8 1.2-4.8 2.8-10.3 7.4-12.8 5.2-2.9 12-1.2 17.4.2h.1c8 3.5 18.2 2.3 25.6-2.1 2.5 1 5.1 1.7 7.6 1.9 7.9 2.9 10.9 12.9 12.2 20.6 1.6 8.8 2.4 17.4 1.8 26.3-.1.8.9.9 1.3.5 2.6-1.3 2.5-3.6 3.6-6.3 1.8-4.1 3.5-9.1 2.2-13.4 1.8-3.6 1.2-8.7-.3-11.7zM66.2 57c-5.3 12.1-5.6 27-5.7 40-1.4-1.6-2.7-5.5-3.3-7-1.2-3.2-2-6.2-1.9-9.6.3.6.7 1.1 1.1 1.5.2.2.7.1.6-.3-.3-2.1-1.3-4.1-1.5-6.2-.2-2.1 0-4 .5-6 .7 2.7 2 5.3 3.8 7.2.4.4.9-.1.7-.5-1.4-3.2-3-6-3.6-9.5-.5-2.9-.3-5.7.1-8.6.7 1.3 1.7 2.6 3 3.7.4.3 1.1-.1.8-.6-6.4-9-2.3-19 5.9-24.7-.6 1-1.1 2.2-1.4 3.4-1.1 4.2.7 9.5 5 11.1.4.2.7-.4.4-.7-4.3-4.4-5.8-9.6-1.6-15 .2-.2.3-.4.5-.5.1 0 .1-.1.2-.1.1-.1.2-.2.2-.3 1.7-1.7 3.9-2.8 5.9-4.2-3.5 5.8-2.8 13.4 2.9 17.4.3.2.7-.3.4-.5-5-5-5.6-12.1-1.2-17.7 1.5-1.9 3.3-3.3 5.2-4.3-5.4 5.2-4.8 15.3-.2 20.9 1.1 1.4 2.3 2.5 3.7 3.5-8-2.2-16.7-1-20.5 7.6zm21-9.5c-8.1-6.1-8.7-18.1-.3-24 2.2-.6 4.5-1 6.8-1.1-5.1 2.5-8.7 8.2-8.1 14.3.9 8.2 7.6 13.5 15.1 14.9-4.6.2-9.2-.8-13.5-4.1z" fill="#2c2219" stroke-width="none" opacity="1" stroke="none"></path><path id="SvgjsPath87979" d="M127.9 46.8c-5.5 0-10.3-2.4-13.9-6.4-3.4-3.7-8.8-10.4-6.5-15.8.2-.4-.3-.7-.5-.3-2.8 5.2 1.5 11 4.7 15 4 5 9.6 8.8 16.2 8.1.4 0 .4-.6 0-.6zM105 44.4c-4.9-4.8-10.2-10.6-7-18.1.2-.4-.3-.7-.5-.3-3.8 7.3 1.3 14.6 7.2 18.8.2.2.5-.2.3-.4zm-.4 2.1c-6.3-4.2-12.4-9.2-12.3-17.4 0-.3-.5-.3-.5 0-.4 8.2 5.5 14.6 12.6 17.8.2 0 .4-.2.2-.4zm2 .8C100.8 47 95.8 45 92 40.5c-.2-.2-.6.1-.4.4 3.6 4.4 9.2 7.3 14.9 7 .4-.1.4-.5.1-.6zm-17.4-2.1C84 40 81.4 32.7 87 26.6c.3-.4-.2-.9-.5-.5-6.2 5.6-4.3 15.4 2.2 20 .4.2.9-.5.5-.9zM80.6 44c-3-4-3.9-8.9-1.8-13.5.2-.3-.3-.6-.5-.3-2.4 4.6-1.9 10.4 1.9 14.1.2.2.5 0 .4-.3zm-8.7-8.3c.1-.3-.3-.4-.4-.1-.7 2.6-.8 5.6.4 8 .1.3.6.1.5-.2-.7-2.6-1.1-5-.5-7.7zm0 10.2c-.8-1-1.6-1.9-2.1-3.1-.1-.2-.4 0-.3.1.5 1.2 1.2 2.4 2.3 3.2 0 .1.2-.1.1-.2zM63.8 53c-2.1-3.9-2.4-7.4-1.2-11.6.1-.4-.5-.6-.6-.2-1.3 3.8-1.9 9.1 1.3 12.2.2.4.7 0 .5-.4zm-2 3.6c-1.5-2.5-2.4-4.8-2.2-7.7 0-.2-.3-.2-.4 0-.3 2.8.2 5.9 2.2 8 .3.2.6 0 .4-.3zm-2.2 15.1c-1.2-3.3-2-6.4-1.7-10.1 0-.2-.3-.3-.4 0-.5 3.5-.3 7.3 1.5 10.4.2.2.7 0 .6-.3zM56 74.4c-.1-.2-.3 0-.3.1.4 1.1.7 2.2 1.3 3.2.1.2.4.1.3-.1-.2-1.1-.8-2.2-1.3-3.2zM139.8 52c-.2-1.5-.3-4.5-2.2-4.6-.3 0-.4.4-.1.5 1.6.8 1.5 5.2 1.5 6.6-.1 2.1-.6 4-1.3 5.9-.1.3.4.5.6.2 1.3-2.6 1.8-5.6 1.5-8.6zm2.3 9.7c-.1-.4-.6-.2-.6.2.6 3.1-.3 5.8-1.9 8.4-.2.3.2.6.5.4 2.2-2.4 2.8-6 2-9zm1.2 11.7c0-.3-.5-.3-.5 0 .2 1.8-.1 3.5-.5 5.2 0 .2.2.3.3.1.8-1.6.9-3.5.7-5.3zm-22.7-46.8c-.3-.1-.4.3-.1.4 7.2 3 11.4 13.5 13.6 20.3.1.3.5.2.4-.1-1.7-7.2-6.5-17.8-13.9-20.6z" fill="#4a423a" stroke-width="none" opacity="1" stroke="none"></path></g><g id="svga-group-glasses-single-move" transform="matrix(1,0,0,1,0,0)"><g id="svga-group-glasses-single" transform="matrix(1,0,0,1,0,0)"></g></g></g></g></g><rect id="svga-credit-rect" width="200" height="15" x="0" y="185" fill="#ecf0f1" opacity="0.5" style="display: none;"></rect><text id="svga-credit-text" font-family="Avenir Next, Roboto, Helvetica, Arial, sans-serif" font-size="10px" text-anchor="start" font-weight="400" size="10px" anchor="start" weight="400" fill="#333333" x="33.40447998046875" y="182.60824704170227" style="display: none;"><tspan id="SvgjsTspan87271" dy="13" x="33.40447998046875">Created on AvatarMaker.com</tspan></text></g></svg>