<svg xmlns="http://www.w3.org/2000/svg" version="1.1" width="600px" height="600px" viewBox="0 0 200 200" style="overflow:hidden!important;"><defs id="SvgjsDefs14889"><linearGradient id="SvgjsLinearGradient15583" x1="118.8" y1="82.84" x2="118.8" y2="112.98" gradientUnits="userSpaceOnUse" class="svga-on-canvas-glasses-gradient-single-0-null"><stop id="SvgjsStop15584" stop-opacity="1" stop-color="#b4c0cf" offset="0" ></stop><stop id="SvgjsStop15585" stop-opacity="0.9374" stop-color="#abbace" offset="0.0626" ></stop><stop id="SvgjsStop15586" stop-opacity="0.679" stop-color="#8aa3ca" offset="0.321" ></stop><stop id="SvgjsStop15587" stop-opacity="0.4305" stop-color="#7393c6" offset="0.5695" ></stop><stop id="SvgjsStop15588" stop-opacity="0.1987" stop-color="#6589c5" offset="0.8013" ></stop><stop id="SvgjsStop15589" stop-opacity="0" stop-color="#6086c4" offset="1" ></stop></linearGradient><linearGradient id="SvgjsLinearGradient15591" x1="81.2" y1="82.84" x2="81.2" y2="112.98" gradientUnits="userSpaceOnUse" class="svga-on-canvas-glasses-gradient-single-1-null"><stop id="SvgjsStop15592" stop-opacity="1" stop-color="#b4c0cf" offset="0" ></stop><stop id="SvgjsStop15593" stop-opacity="0.9374" stop-color="#abbace" offset="0.0626" ></stop><stop id="SvgjsStop15594" stop-opacity="0.679" stop-color="#8aa3ca" offset="0.321" ></stop><stop id="SvgjsStop15595" stop-opacity="0.4305" stop-color="#7393c6" offset="0.5695" ></stop><stop id="SvgjsStop15596" stop-opacity="0.1987" stop-color="#6589c5" offset="0.8013" ></stop><stop id="SvgjsStop15597" stop-opacity="0" stop-color="#6086c4" offset="1" ></stop></linearGradient></defs><g id="svga-group-wrapper"><g id="svga-group-backs-single"><path id="SvgjsPath15363" d="M0 0h200v200H0V0z" fill="#c4c7f3" stroke-width="none" opacity="1" stroke="none"></path><path id="SvgjsPath15364" d="M6.5 16.3c4-9.2 13.8-13.8 22-11.3 6 1.9 10.6 7.5 11.8 14.3 0 0 25.4-15.2 41.7 1.1 6.1 6.1 6.7 17.8-4.9 27.2-8.8 7.2-19.5 1.4-19.5 1.4 2 5.6.6 11.5-3 14.3-5 3.8-14.5 2.2-18.9-5.8 0 0 2.5 13.2-12.6 15.4C7.9 75.1 8.7 60 8.7 60s-.9 4.4-8.7 4.4V13s1.4-.3 3.2.5 3.3 2.8 3.3 2.8zm136.2 47.3c-.2-.7-4.6-9.9-15.2-9-10.6.9-7.6 14.8-7.6 14.8s-14.3.5-15.5 11.8S116.4 103 134 92c0 0 13.9 14.1 28.9-.9 0 0 21 12.7 28.4.2S182.9 73 182.9 73s6.5-15.7-12-12c0 0-3-9-13.2-8.5-10.1.4-15 11.1-15 11.1zM81.6 149s-5.5 6.7-16.8 5.1c-11.3-1.6-12.2-10.9-12.2-10.9s-14.3 12.5-31.6 3-7.9-26.3-.7-30.7 20.3-.5 20.3-.5-1.6-4.8 4.6-8.5c6.2-3.7 11.3 1.8 11.3 1.8s1.2-8.3 14.1-8.1S83 112.5 83 112.5s5.1-9.2 16.4-3.7 7.6 14.3 7.6 14.3 3-3.7 6.5-4.2 7.6 3 7.2 6.9c0 0 8.8-8.1 20.3 5.5s-11.3 28.2-21.9 15.9c0 0-3.5 10.6-20.1 9.5S81.6 149 81.6 149zm72.7 19.1s-2.8-6.2-10.9-6-7.9 9.7-7.9 9.7-6-5.8-12-1.4 0 11.3 0 11.3-5.8.5-5.3 6.2 12.9 12.9 26.8-.2c0 0 4.2 6.7 11.3 4.9 7.2-1.9 6.9-8.5 6.9-8.5s9.7 8.5 19.2 2.5 6.7-23.6-8.8-24.5c-15.4-.9-19.3 6-19.3 6zM126.5 0s-7.4 3.7-5.5 12.9 16.1 8.3 19.6 3.5c0 0-2.8 9.7 7.4 10.1 0 0-.2 16.8 18.4 11s16.3-22.3 16.3-22.3 2.5 12.9 17.4 12.9V0h-73.6zM0 195.2s19.3 7.9 29.6-9.4-11.8-20.6-15.4-15.7c0 0 1.6-16.7-14.2-13.2v38.3z" fill="#ffffff" stroke-width="none" opacity="1"></path></g><g id="svga-group-humanwrap-move" transform="matrix(1,0,0,1,0,0)"><g id="svga-group-humanwrap" transform="matrix(1.1000003000000003,0,0,1.1000003000000003,-10.367472279691725,-12.247131849317583)"><g id="svga-group-hair-back-move" transform="matrix(1,0,0,1,0,0)"><g id="svga-group-hair-back" transform="matrix(1,0,0,1,0,0)"><path id="SvgjsPath15668" d="M156.2 138.1c3.7 10.9 9.7 17.5 2.9 25.5-6.9 8-7.1 9.2-15.4 13.2s-79.6 3.7-86.1-3.7S48 157.6 46 139s-1.1-38.6 1.1-44.4c2.3-5.7 4.9-24 17.7-28.3s63-6.6 72.1-.9 18.9 8.6 20.3 21.5 0 16.3.9 29.5-1.9 21.7-1.9 21.7z" fill="#5c3d2e" stroke-width="none" opacity="1"></path><path id="SvgjsPath15669" d="M67.1 120.9c1.5 3.2 1.8 10.2-1.6 13.8-2.4 2.6-3.8 7.2 1.3 15.3 5.1 8.1 7.3 9 6.8 13.9s-5.4 16.1-.2 9.5c5.1-6.6 7.4-15.2 4-20.1s-4.9-9.3-4.7-15.6c.2-6.3.4-9.2.4-9.2l-6-7.6zm61.7 5.4c4.4 5.4 9.8 1.5 6.1 8.3-3.7 6.8-7.8 9.3-5.1 15.1 2.7 5.9 10.5 6.3 10.2 13.2-.2 6.8-7.3 16.4-7.3 16.4s6.3-12.4 2.7-16.1-14.9-9.5-10.6-20.6c2.1-5.3 7.2-10.9 5.9-12.6s-1.9-3.7-1.9-3.7z" fill="#6b4e40" stroke-width="none" opacity="1"></path></g></g><g id="svga-group-humanbody-back"><path id="SvgjsPath15193" d="m168.5 219.5-1.7-21.5s.7-9-8.8-15.3-23.4-10.1-29.5-14.2c-6.1-4.1-9.2-4.5-9-16.9s.9-40.3.9-40.3H79.6s.7 27.9.9 40.3c.2 12.4-2.9 12.8-9 16.9-6.1 4.1-20 7.9-29.5 14.2S33.2 198 33.2 198l-1.6 21.5h136.9z" fill="#cb8d60" stroke-width="none" opacity="1" stroke="none"></path></g><g id="svga-group-chinshadow-single"><path id="SvgjsPath15439" d="M80.4 155.4c5.9 5.8 12.6 9.3 19.6 9.3s13.7-3.5 19.6-9.3c-.1-1.1-.1-2.4-.1-3.8.2-12.4.9-40.3.9-40.3H79.6s.7 27.9.9 40.3c0 1.4 0 2.7-.1 3.8z" fill="#ac642f" stroke-width="none" opacity="0.65" stroke="none"></path></g><g id="svga-group-humanbody-front"><path id="SvgjsPath15194" d="M73.8 175.9c5.1 2.9 11.8 5.2 17.6 5.7.4 0 .4-.6.1-.7-2.8-1.1-5.9-1.7-8.8-2.6-2.9-.9-5.8-2-8.8-2.7-.1-.1-.3.2-.1.3zm35.2 6.2c5.3-.6 11.3-3 15.9-5.8.3-.2.1-.6-.2-.5-2.6.9-5.2 2-7.8 2.9-2.6.9-5.4 1.5-8 2.5-.5.1-.5.9.1.9z" fill="#ac642f" stroke-width="none" opacity="1" stroke="none"></path><path id="SvgjsPath15195" d="m168.4 219.4-2.1-21.4c0-2.2-.5-4.5-1.5-6.6-.9-2.1-2.3-3.9-3.9-5.5s-3.5-2.8-5.5-4c-2-1.2-4.1-2.2-6.2-3.1-4.2-1.9-8.6-3.6-12.9-5.4-2.2-.9-4.3-1.9-6.4-3-1.1-.6-2.1-1.2-3-1.9-1-.6-2-1.2-3-1.9s-2-1.5-2.8-2.6c-.8-1-1.3-2.2-1.7-3.4-.7-2.4-.8-4.8-.8-7.2 0-4.7.2-9.4.3-14.1.2-9.4.6-18.7.9-28l.6.6-20.4-.2-20.4-.1.3-.3.7 28c.1 4.7.3 9.3.4 14 0 2.4-.1 4.7-.8 7.1-.3 1.2-.9 2.3-1.6 3.3-.8 1-1.7 1.8-2.7 2.5s-2 1.3-2.9 2c-.9.6-1.9 1.3-3 1.9-2.1 1.2-4.2 2.1-6.4 3.1-4.3 1.9-8.6 3.6-12.8 5.6-2.1 1-4.2 2.1-6.1 3.2-2 1.2-3.8 2.4-5.4 4-1.6 1.6-2.9 3.4-3.8 5.4-.4 1-.8 2.1-1 3.1-.2 1.1-.4 2.2-.3 3.2v.2l-1.5 21.5-1-1.1 34 .1c11.3 0 22.7.1 34.1.2l34.2.3 34.4.5zm.2.2-34 .4-34.2.3c-11.4.1-22.9.2-34.4.2l-34.4.1h-1.1l.1-1.1 1.7-21.5v.1c-.1-5.1 2.2-9.8 5.7-13.3 1.7-1.7 3.8-3.1 5.8-4.3 2-1.2 4.2-2.2 6.3-3.2 4.3-2 8.7-3.7 13-5.4 2.1-.9 4.3-1.8 6.3-2.9 1-.5 1.9-1.1 3-1.8 1-.6 2-1.2 2.9-1.9.9-.6 1.8-1.4 2.4-2.2.7-.9 1.2-1.9 1.5-2.9.6-2.1.8-4.5.8-6.8 0-4.6-.1-9.3-.2-14l-.6-28v-.3h.3l20.4-.1 20.4-.2h.6v.6c-.1 9.3-.2 18.7-.4 28-.1 4.7-.2 9.4-.2 14 .1 2.3.2 4.6.8 6.7.3 1.1.8 2 1.4 2.9.6.8 1.4 1.6 2.4 2.2.9.6 1.9 1.3 2.9 1.9 1 .7 1.9 1.3 2.9 1.8 2 1.1 4.1 2.1 6.3 3 4.3 1.8 8.6 3.6 12.9 5.6 2.1 1 4.2 2.1 6.2 3.3 2 1.2 4 2.6 5.7 4.3 3.4 3.4 5.6 8.1 5.4 13v-.1l1.4 21.6zm-112.8-.4 1.9-13.8.1 13.8h-2zm88.6 0-1.9-13.8-.1 13.8h2z" fill="#9d521b" stroke-width="none" opacity="1" stroke="none"></path></g><g id="svga-group-clothes-single"><path id="SvgjsPath15572" d="m50.8 220 8.2-26.1 40.6 18.4 41.4-18.4 8.2 26.1z" fill="#1d282e" stroke-width="none" opacity="1"></path><path id="SvgjsPath15573" d="m150.1 219.7-4.3-13-4.3-13 7.7-16.3-1.8-.8-6.5 16.9c-3.4 1.6-6.9 3.2-10.3 4.7-3.4 1.5-6.9 3.1-10.3 4.6-6.8 3-13.7 5.9-20.6 8.8l-9.8-4.7c-3.4-1.6-6.7-3.1-10.1-4.7-6.8-3.1-13.6-6.1-20.4-9.1h-.2l-5.9-17.3-1.9.7 7.1 16.8c-.1.1-.1.2-.1.3l-4 13.4-3.7 13 24.2.5 24.6.4 12.4.1h12.4l24.8-.1h.3c.6-.2.8-.7.7-1.2zm-37.4-.7-12.2.1-24.6.4-25 .5 4.5-13.1 4.1-11.9 19.5 9c3.4 1.5 6.8 3.1 10.2 4.5l10.2 4.4c.2.1.3.1.5 0 6.8-3.2 13.7-6.4 20.6-9.5 3.4-1.6 6.9-3 10.4-4.6 3.3-1.4 6.6-2.9 9.9-4.3l3.7 12.6 3.6 11.9-23.2-.1-12.2.1z" fill="#070c0f" stroke-width="none" opacity="1"></path></g><g id="svga-group-head" transform="matrix(1,0,0,1,0,0)"><g id="svga-group-ears-left-move" transform="matrix(1,0,0,1,0,0)"><g id="svga-group-ears-left" transform="matrix(1,0,0,1,0,0)"><path id="SvgjsPath15393" d="M65.1 101.2s-1.7-4.8-3.2-7.5-3.4-6-6.3-6.8c-2.9-.8-3.8 3.7-2.7 7.8 1.1 4.1 4 13.1 4.7 16.6s1.7 7.7 3.4 7.1 6.8-7.1 4.1-17.2z" fill="#cb8d60" stroke-width="none" opacity="1" stroke="none"></path><path id="SvgjsPath15394" d="M65.9 105.9c.1 1.6.1 3.2-.1 4.8-.5 3.1-1.8 6-3.8 7.9l-.4.3c-.2.1-.3.2-.5.3-.4.1-.9 0-1.3-.3-.7-.6-1.1-1.4-1.4-2.2-.6-1.6-.9-3.1-1.2-4.7-.3-1.5-.7-3-1.1-4.6l-1.2-4.6c-.4-1.5-.8-3-1.3-4.6l-.5-2.2c-.2-.8-.4-1.5-.6-2.3-.2-.8-.2-1.6-.2-2.4s.1-1.6.3-2.4.6-1.5 1.1-2c.6-.5 1.3-.6 2-.4 1.3.3 2.5 1.1 3.5 2.2s1.8 2.5 2.5 3.8c.7 1.4 1.3 2.8 1.9 4.3.6 1.5 1.1 2.9 1.6 4.4.3 1.6.6 3.1.7 4.7zM61.1 93c-.8-1.3-1.6-2.4-2.5-3.4s-2-1.7-3.1-2c-.5-.2-1-.1-1.5.2-.4.3-.8.8-1 1.5-.4 1.3-.5 2.9-.2 4.5.1.8.3 1.5.5 2.3s.4 1.5.7 2.3c.5 1.5 1 3 1.4 4.5.5 1.5 1 3 1.4 4.5.5 1.5.9 3 1.2 4.6.3 1.5.7 3.1 1.2 4.4.3.7.6 1.3.9 1.5.2.1.3.2.5.1.1 0 .2-.1.3-.2l.3-.3c.9-.8 1.6-1.9 2.3-3.1.6-1.2 1.1-2.5 1.5-3.9.7-2.8.6-6.1-.2-9.2-.9-3-2.1-5.8-3.7-8.3z" fill="#bc7746" stroke-width="none" opacity="1" stroke="none"></path><path id="SvgjsPath15395" d="M53.8 89.9c1.8-.8 3.4 1.3 4.6 3.1 1.5 2.3 2.5 5.2 2.8 8.2v.2c0 .2 0 .5.1.7 0 .2-.2.2-.2 0-.1-.4-.2-.8-.3-1.3 0-.1-.1-.2-.2-.3-1.2-.6-1.7-.3-1.7.8 0 .7.1 1.4.3 2.1.3 1.1.8 2.2 1.2 3.3.1.2-.2.4-.3.2-.9-1.5-2.4-5-1.4-6.8.5-.9 1.3-.8 1.8-.2-.5-1.9-1.1-4.1-2.1-5.9-2 4.2-.9 8.7.1 13.4 0 .2-.2.3-.2.1-1.3-4.4-2.6-10.1 0-13.7-1.1-2.1-2.6-3.7-4.5-3.6-.1.1-.2-.2 0-.3z" fill="#ac642f" stroke-width="none" opacity="1" stroke="none"></path><path id="SvgjsPath15396" d="M61.1 108.8c.1 1.1 0 2.2-.5 3-.1.1-.2 0-.1-.1.3-.9.6-1.8.5-2.9-.1-.1 0-.2.1 0z" fill="#ac642f" stroke-width="none" opacity="1" stroke="none"></path></g></g><g id="svga-group-ears-right-move" transform="matrix(1,0,0,1,0,0)"><g id="svga-group-ears-right" transform="matrix(1,0,0,1,0,0)"><path id="SvgjsPath15397" d="M134.9 101.2s1.7-4.8 3.2-7.5 3.4-6 6.3-6.8c2.9-.8 3.8 3.7 2.7 7.8-1.1 4.1-4 13.1-4.7 16.6s-1.7 7.7-3.4 7.1-6.8-7.1-4.1-17.2z" fill="#cb8d60" stroke-width="none" opacity="1" stroke="none"></path><path id="SvgjsPath15398" d="M134.9 101.2c.5-1.5 1.1-2.9 1.6-4.4s1.2-2.9 1.9-4.3 1.5-2.7 2.5-3.8c1-1.1 2.2-2 3.5-2.2.7-.2 1.4 0 2 .4.6.5.9 1.2 1.1 2 .2.8.3 1.6.3 2.4s-.1 1.6-.2 2.4c-.1.8-.4 1.6-.6 2.3l-.6 2.3c-.4 1.5-.8 3-1.3 4.6l-1.2 4.6c-.4 1.5-.8 3-1.1 4.6s-.6 3.2-1.2 4.7c-.3.8-.6 1.6-1.4 2.2-.4.3-.9.4-1.3.3-.2-.1-.3-.2-.5-.3l-.4-.3c-2-1.9-3.3-4.8-3.8-7.9-.3-1.6-.3-3.2-.1-4.8.1-1.7.4-3.2.8-4.8zm.1.1c-.8 3-.9 6.3-.2 9.2.4 1.4.9 2.7 1.5 3.9.6 1.2 1.4 2.3 2.3 3.1l.3.3c.1 0 .2.1.3.2.2.1.3 0 .5-.1.3-.3.7-.9.9-1.5.5-1.3.9-2.9 1.2-4.4.3-1.6.8-3.1 1.2-4.6.5-1.5 1-3 1.4-4.5.5-1.5 1-3 1.4-4.5.2-.7.5-1.5.7-2.3s.4-1.5.5-2.3c.3-1.5.2-3.1-.2-4.5-.2-.6-.6-1.2-1-1.5s-1-.3-1.5-.2c-1.1.3-2.1 1.1-3.1 2-.9 1-1.7 2.2-2.5 3.4-1.4 2.5-2.6 5.3-3.7 8.3z" fill="#bc7746" stroke-width="none" opacity="1" stroke="none"></path><path id="SvgjsPath15399" d="M146.2 89.9c-1.8-.8-3.4 1.3-4.6 3.1-1.5 2.3-2.5 5.2-2.8 8.2v.2c0 .2 0 .5-.1.7 0 .2.2.2.2 0 .1-.4.2-.8.3-1.3 0-.1.1-.2.2-.3 1.2-.6 1.7-.3 1.7.8 0 .7-.1 1.4-.3 2.1-.3 1.1-.8 2.2-1.2 3.3-.1.2.2.4.3.2.9-1.5 2.4-5 1.4-6.8-.5-.9-1.3-.8-1.8-.2.5-1.9 1.1-4.1 2.1-5.9 2 4.2.9 8.7-.1 13.4 0 .2.2.3.2.1 1.3-4.4 2.6-10.1 0-13.7 1.1-2.1 2.6-3.7 4.5-3.6.1.1.2-.2 0-.3z" fill="#ac642f" stroke-width="none" opacity="1" stroke="none"></path><path id="SvgjsPath15400" d="M138.9 108.8c-.1 1.1 0 2.2.5 3 .1.1.2 0 .1-.1-.3-.9-.6-1.8-.5-2.9.1-.1 0-.2-.1 0z" fill="#ac642f" stroke-width="none" opacity="1" stroke="none"></path></g></g><g id="svga-group-faceshape-wrap" transform="matrix(1,0,0,1,0,0)"><g id="svga-group-faceshape-single"><path id="SvgjsPath15429" d="M141 88.4c0 30.3-18.9 65.2-41 65.2s-41-34.9-41-65.2 18.9-47 41-47 41 16.6 41 47z" fill="#cb8d60" stroke-width="none" opacity="1" stroke="none"></path><path id="SvgjsPath15430" d="M100 41.3c-22.1 0-41.1 16.7-41.1 47s19 65.5 41.1 65.5 41.1-35.2 41.1-65.5-19-47-41.1-47zm28.2 13.6.8.8c.3.3.5.6.8.9.3.3.5.6.8.9l.7.9c.2.3.5.6.7.9l.7 1 .3.5.3.5c.4.7.9 1.3 1.2 2l.6 1c.2.3.4.7.5 1l.5 1.1.5 1.1c.2.4.3.7.5 1.1l.4 1.1c2.3 5.9 3.2 12.4 3.3 18.7 0 6.4-.9 12.8-2.6 18.9-.8 3.1-1.9 6.1-3.1 9-1.2 2.9-2.5 5.8-4 8.6s-3.1 5.5-4.8 8.1c-.9 1.3-1.8 2.6-2.7 3.8-.9 1.2-1.9 2.4-3 3.6-2 2.3-4.3 4.4-6.7 6.3-2.4 1.8-5 3.3-7.8 4.3-1.4.5-2.8.9-4.3 1-1.5.2-2.9.2-4.4.1-3-.2-5.9-1.2-8.6-2.6-2.7-1.4-5.3-3.3-7.6-5.4-2.3-2.1-4.4-4.5-6.3-7.1s-3.6-5.3-5-8.1c-1.5-2.8-2.8-5.7-3.9-8.7-.6-1.5-1.1-3-1.6-4.5s-.9-3-1.3-4.6c-.8-3.1-1.4-6.2-1.8-9.3-.4-3.1-.7-6.3-.8-9.4 0-1.6 0-3.1.1-4.7 0-.8.1-1.6.1-2.3l.2-2.3c.3-3.1.9-6.2 1.7-9.1.8-3 1.8-5.9 3.2-8.6.2-.4.3-.7.5-1l.5-1c.4-.7.8-1.3 1.2-2 .4-.6.8-1.3 1.3-1.9l.7-.9.3-.5.4-.4c1.9-2.4 4.1-4.5 6.5-6.3s5-3.3 7.8-4.5 5.7-2 8.6-2.5c.7-.2 1.5-.2 2.2-.3.4-.1.8-.1 1.1-.1l1.1-.1c.8 0 1.5-.1 2.3-.1H102.6l1.1.1c.4 0 .8.1 1.1.1.4 0 .8.1 1.1.1l1.1.2.6.1.6.1 1.1.2c.4.1.7.2 1.1.3s.7.2 1.1.3c1.4.4 2.9.9 4.3 1.5s2.8 1.2 4.1 2c2.7 1.5 5.2 3.3 7.4 5.4l.4.4.5.3z" fill="#9d521b" stroke-width="none" opacity="1" stroke="none"></path></g></g><g id="svga-group-mouth-single-move" transform="matrix(1,0,0,1,0,0)"><g id="svga-group-mouth-single" transform="matrix(1,0,0,1,0,0)"><path id="SvgjsPath15373" d="m112.6 130.4.5-.5s-1.4-.1-2.5-.9-2.5-3.9-3.5-4.9c-.9-1-3.2-2-5.6-.9-2.4 1-2.4.5-4.1-.3-1.6-.9-4.8.5-6.9 4.3s-3.8 3.5-3.8 3.5 1.7 1.3 3.9-.1c2.2-1.4 15.4-1.4 15.7-1.2s5 1.4 5 1.4l1.3-.4z" fill="#d26d79" stroke-width="none" opacity="1" transform="translate(0 3)" stroke="none"></path><path id="SvgjsPath15374" d="M90.6 131.1s1.42 2.86 3.42 3.46c2 .6 12.46-.22 13.66-.92s2.01-3.04 2.01-3.04-3.2-1.6-4.5-2.7c-1.3-1.1 0 0 0 0s-2.1 1.7-3.9 1.7c0 0-2.7.9-6.5-1.5.11.1-1.79 2.5-4.19 3z" fill="#DA7C87" stroke-width="none" opacity="1" transform="translate(0 3)" stroke="none"></path><path id="SvgjsPath15375" d="M113.1 129.4c-2.3 1.9-6.1-.4-7.8-2.1-.2-.2-.4-.2-.6 0-.5.1-.7.4-1.2.8-.9.6-1.9.9-2.9 1.1-1.1.1-2.2 0-3.3-.4-.7-.3-1.3-.7-2.1-.9-.1-.2-.4-.3-.6-.1-2.1 2.2-4.8 3.4-7.9 2.7-.6-.1-.8.8-.3.9 3.1.9 6.7-.2 8.7-2.8 1.1 1.6 3.9 2 5.7 1.8 1.3-.1 3.5-.7 4.4-2 1.4 1.3 3.1 2.2 5 2.6 1.3.3 3.1.4 3.8-1 .1-.5-.5-.9-.9-.6z" fill="#cb5f6c" stroke-width="none" opacity="1" transform="translate(0 3)" stroke="none"></path><path id="SvgjsPath15376" d="M92.3 133.2c1 2.4 5.4 1.5 7.3 1.4 2 0 4 0 6-.2 1.2-.2 2.2-.5 2.9-1.4.3-.4-.3-.8-.6-.6-2.3 1.2-5.3.8-7.9.9-2.2.1-5.4.9-7.4-.3-.1-.2-.4 0-.3.2z" fill="#cb5f6c" stroke-width="none" opacity="1" transform="translate(0 3)" stroke="none"></path><path id="SvgjsPath15377" d="M95.8 128c2.9 1.7 8.6 1.9 9.9-2 .1-.2-.2-.3-.3-.2-1.2 1.1-2.2 2-3.8 2.4-1.9.5-3.7 0-5.6-.5-.2 0-.3.2-.2.3z" fill="#e28c96" stroke-width="none" opacity="1" transform="translate(0 3)" stroke="none"></path><path id="SvgjsPath15378" d="M108.1 132c-1.1.1-2.1.6-3.2.8-1.4.3-2.8.3-4.3.4-.2 0-.2.3 0 .3 2.3.3 5.7.2 7.6-1.1.2-.2.2-.5-.1-.4z" fill="#e28c96" stroke-width="none" opacity="1" transform="translate(0 3)" stroke="none"></path></g></g><g id="svga-group-eyes-left-move" transform="matrix(1,0,0,1,0,0)"><g id="svga-group-eyes-left" transform="matrix(1,0,0,1,0,0)"><g id="svga-group-eyesback-left"><path id="SvgjsPath15487" d="M92.2 101.8s-.6-1.9-2-3.8-3.3-3.9-6.6-4.5c-3.3-.6-12.1 2.2-12.1 2.2s1.4 1.9 3.1 3.1 6.3 2.9 8.2 2.8c1.9-.1 4.2-.5 5.2-.5 1.2 0 3.2 0 4.2.7z" fill="#ffffff" stroke-width="none" opacity="1"></path></g><g id="svga-group-eyesiriswrapper-left" transform="matrix(1,0,0,1,0,0)"><g id="svga-group-eyesiriscontrol-left" transform="matrix(1,0,0,1,0,0)"><g id="svga-group-eyesiris-left" transform="matrix(1,0,0,1,0,0)"><path id="SvgjsPath15443" d="M82 91.2c2.9 0 5.2 2.3 5.2 5.2s-2.3 5.2-5.2 5.2-5.2-2.3-5.2-5.2 2.3-5.2 5.2-5.2z" fill="#b0b9d9" stroke-width="none" opacity="1"></path><path id="SvgjsPath15444" d="M82 101.8c-3 0-5.4-2.4-5.4-5.4S79 91 82 91s5.4 2.4 5.4 5.4-2.4 5.4-5.4 5.4zm0-10.3c-2.7 0-4.9 2.2-4.9 4.9s2.2 4.9 4.9 4.9 4.9-2.2 4.9-4.9-2.2-4.9-4.9-4.9z" fill="#7282ba" stroke-width="none" opacity="1"></path><path id="SvgjsPath15445" d="M86.9 96.4c-.6 0-1.3-.1-1.9 0 0-.3 0-.5-.1-.8.7-.1 1.5-.3 2.2-.6.2-.1.1-.3-.1-.3-.7.1-1.5.4-2.2.6 0-.1-.1-.2-.1-.3.3-.1.6-.3.8-.4.4-.2.8-.2 1.1-.4.1-.1.1-.2-.1-.2-.6.1-1.4.4-2 .8 0-.1-.1-.1-.1-.2.2-.2.4-.3.7-.5.3-.2.7-.5 1-.8.1-.1 0-.3-.2-.2-.3.3-.7.5-1 .8-.2.2-.4.3-.6.5l-.3-.3c.5-.6.9-1.2 1.2-1.9.1-.1-.1-.2-.1-.1-.5.5-1 1.2-1.3 1.8-.1-.1-.2-.1-.3-.2.2-.7.3-1.5.3-2.2 0-.2-.2-.2-.3 0-.1.5-.2 1.1-.2 1.6 0 .2-.1.3-.1.5-.2-.1-.3-.1-.5-.1 0-.7-.1-1.5-.3-2.2 0-.1-.1 0-.1 0-.1.7-.1 1.4-.1 2.1h-.4c0-.2-.1-.4-.1-.6-.1-.5-.1-.9-.2-1.4 0-.1-.2-.1-.2 0-.1.6 0 1.3.2 2-.1 0-.2 0-.2.1-.2-.7-.4-1.4-.7-2.1 0-.1-.2-.1-.2 0 .1.7.3 1.4.6 2.1 0 0-.1 0-.1.1-.3-.7-.8-1.3-1.3-1.9-.1-.1-.2 0-.1.1.3.6.7 1.3 1.2 1.9-.1.1-.2.1-.2.2-.1-.1-.2-.3-.3-.4-.3-.4-.7-.9-1.1-1.2-.1-.1-.2 0-.2.1.2.4.6.8.9 1.2.1.2.3.3.4.5-.1.1-.2.2-.3.4-.6-.4-1.2-.9-1.8-1.2-.1 0-.1.1-.1.1.5.5 1.1.9 1.7 1.3-.1.2-.2.3-.2.5-.1 0-.2-.1-.3-.1-.6-.2-1.2-.5-1.7-.7-.1-.1-.2.2-.1.2.5.2 1 .5 1.5.7.2.1.3.1.5.2 0 .1 0 .2-.1.3-.2 0-.3-.1-.5-.1-.5-.1-1.1-.2-1.6-.1-.1 0-.1.2 0 .2.6.2 1.4.3 2.1.4v.4c-.3.1-.6.2-.9.4-.4.2-.8.2-1.1.5-.1.1-.1.3.1.3.4 0 .9-.2 1.3-.4.2-.1.5-.2.7-.3 0 .2.1.3.1.4-.1.1-.2.1-.3.2-.5.3-1 .6-1.4 1-.1.1 0 .3.2.2.6-.3 1.1-.6 1.6-.9.1 0 .1-.1.2-.1.1.1.2.3.2.4-.5.4-1 1-1.5 1.5-.1.1 0 .2.1.1.5-.4 1.1-.9 1.6-1.4l.3.3c-.2.2-.3.4-.4.6-.3.4-.6.8-.9 1.3-.1.1.1.2.2.1.3-.4.7-.8 1-1.2.2-.2.3-.4.5-.6.1 0 .1.1.2.1-.1.2-.1.3-.2.4-.2.4-.5.9-.6 1.4 0 .1.2.2.2.1.3-.4.5-.9.8-1.4.1-.1.1-.2.2-.4h.1c-.3.7-.5 1.4-.6 2.1 0 .1.2.1.2 0 .2-.7.5-1.4.7-2.1.1 0 .2 0 .3.1-.2.7-.2 1.5-.3 2.2 0 .2.3.2.3 0 0-.7.2-1.5.2-2.2h.2c-.1.7-.1 1.4 0 2.1 0 .2.3.2.3 0-.1-.7 0-1.4-.1-2.1.2 0 .4-.1.6-.1.1.3.3.7.4 1 .2.3.2.7.6.9.1 0 .1 0 .1-.1 0-.3-.2-.7-.4-1-.2-.3-.3-.7-.5-1 .1 0 .1-.1.2-.1.1.3.3.6.4.8.2.3.3.8.6 1 .1.1.2 0 .2-.1-.1-.4-.4-.7-.6-1.1-.2-.3-.3-.6-.5-.8.1-.1.2-.1.3-.2.3.6.8 1.2 1.3 1.7.2.2.4-.1.2-.2-.5-.5-.9-1-1.3-1.6.2-.2.4-.4.5-.6.6.4 1.1.8 1.7 1.2.1.1.3-.1.2-.2-.5-.4-1.2-.8-1.8-1.2 0-.1.1-.1.1-.2.6.3 1.3.7 1.9.9.1.1.2-.2.1-.2-.6-.3-1.3-.6-1.9-.8.1-.2.2-.5.2-.8.7.1 1.3.1 2 .1-.2.3-.2-.2-.5-.2z" fill="#7282ba" stroke-width="none" opacity="1"></path><path id="SvgjsPath15446" d="M82 93.6c1.5 0 2.8 1.3 2.8 2.8s-1.3 2.8-2.8 2.8-2.8-1.3-2.8-2.8 1.3-2.8 2.8-2.8z" fill="#000000" stroke-width="none" opacity="1"></path><path id="SvgjsPath15447" d="M80.4 94c.6 0 1.1.5 1.1 1.1s-.5 1.1-1.1 1.1-1.1-.5-1.1-1.1.5-1.1 1.1-1.1zm3.4 4c.3 0 .6.3.6.6s-.3.6-.6.6-.6-.3-.6-.6.3-.6.6-.6z" fill="#ffffff" stroke-width="none" opacity="1"></path></g></g></g><g id="svga-group-eyesfront-left"><path id="SvgjsPath15495" d="M70.7 98c0 6.9 4.9 12.5 11 12.5s11-5.6 11-12.5-4.9-12.5-11-12.5-11 5.6-11 12.5zm.9-2.3s8.8-2.9 12.1-2.2c3.3.6 5.3 2.6 6.6 4.5 1.4 1.9 2 3.8 2 3.8-1-.7-3.1-.7-4.1-.7-1.1 0-3.3.5-5.2.5-1.9.1-6.4-1.7-8.2-2.8-1.9-1.2-3.2-3.1-3.2-3.1z" fill="#cb8d60" stroke-width="none" opacity="1" stroke="none"></path><path id="SvgjsPath15496" d="M71.4 96c.2.3.4.6.7.9-.8-.2-1.8 0-2.4.5-.1.1 0 .2.1.2.5-.2 1.1-.3 1.7-.3.5 0 .9.2 1.3.4.1.1.2.2.4.3-.6.1-1.1.4-1.4.8-.1.1 0 .3.1.2.5-.3 1.1-.5 1.6-.7 1.7 1.4 3.7 2.4 5.6 3 1.7.5 3.4.8 5.2.6 2.7-.3 5.1-1.4 7.8 0 .1.1.2-.1.1-.2.1 0 .1-.1.1-.2-1.2-4.4-4.7-8.2-9.4-9.1-1.9-.3-3.7 0-5.5.5-1.2-.3-2.1-.9-3.1-1.8-.1-.1-.3 0-.2.2.5.9 1.5 1.6 2.5 1.9-.3.1-.6.2-.8.3-1.8.1-3.2-.6-4.6-1.7-.1-.1-.3.1-.2.2.9 1.1 2.3 1.7 3.7 1.9-.5.2-.9.3-1.4.4-1.9 0-3.5-.6-5.2-1.7-.1-.1-.2.1-.1.2 1 1.1 2.5 1.8 4 1.9-2.3.5-4.4.3-6.8-1.2-.1-.1-.3.1-.2.2 2.2 1.9 4.3 2.4 6.4 2.3zm.5 0c1.3-.1 2.7-.5 4.2-1 3.2-1 7-1.9 10.1-.2 2.8 1.5 4.4 4.1 5.8 6.8-2.9-1.5-5.7-.3-8.8-.5-4.5-.2-8-2.4-11.3-5.1z" fill="#000000" stroke-width="none" opacity="1" stroke="none"></path></g></g></g><g id="svga-group-eyes-right-move" transform="matrix(1,0,0,1,0,0)"><g id="svga-group-eyes-right" transform="matrix(1,0,0,1,0,0)"><g id="svga-group-eyesback-right"><path id="SvgjsPath15488" d="M107.8 101.8s.6-1.9 2-3.8 3.3-3.9 6.6-4.5c3.3-.6 12.1 2.2 12.1 2.2s-1.4 1.9-3.1 3.1-6.3 2.9-8.2 2.8c-1.9-.1-4.2-.5-5.2-.5-1.2 0-3.2 0-4.2.7z" fill="#ffffff" stroke-width="none" opacity="1"></path></g><g id="svga-group-eyesiriswrapper-right" transform="matrix(1,0,0,1,0,0)"><g id="svga-group-eyesiriscontrol-right" transform="matrix(1,0,0,1,0,0)"><g id="svga-group-eyesiris-right" transform="matrix(1,0,0,1,0,0)"><path id="SvgjsPath15448" d="M118 91.2c2.9 0 5.2 2.3 5.2 5.2s-2.3 5.2-5.2 5.2-5.2-2.3-5.2-5.2 2.3-5.2 5.2-5.2z" fill="#b0b9d9" stroke-width="none" opacity="1"></path><path id="SvgjsPath15449" d="M118 101.8c-3 0-5.4-2.4-5.4-5.4S115 91 118 91s5.4 2.4 5.4 5.4-2.4 5.4-5.4 5.4zm0-10.3c-2.7 0-4.9 2.2-4.9 4.9s2.2 4.9 4.9 4.9 4.9-2.2 4.9-4.9-2.2-4.9-4.9-4.9z" fill="#7282ba" stroke-width="none" opacity="1"></path><path id="SvgjsPath15450" d="M122.9 96.4c-.6 0-1.3-.1-1.9 0 0-.3 0-.5-.1-.8.7-.1 1.5-.3 2.2-.6.2-.1.1-.3-.1-.3-.7.1-1.5.4-2.2.6 0-.1-.1-.2-.1-.3.3-.1.6-.3.8-.4.4-.2.8-.2 1.1-.4.1-.1.1-.2-.1-.2-.6.1-1.4.4-2 .8 0-.1-.1-.1-.1-.2.2-.2.4-.3.7-.5.3-.2.7-.5 1-.8.1-.1 0-.3-.2-.2-.3.3-.7.5-1 .8-.2.2-.4.3-.6.5l-.3-.3c.5-.6.9-1.2 1.2-1.9.1-.1-.1-.2-.1-.1-.5.5-1 1.2-1.3 1.8-.1-.1-.2-.1-.3-.2.2-.7.3-1.5.3-2.2 0-.2-.2-.2-.3 0-.1.5-.2 1.1-.2 1.6 0 .2-.1.3-.1.5-.2-.1-.3-.1-.5-.1 0-.7-.1-1.5-.3-2.2 0-.1-.1 0-.1 0-.1.7-.1 1.4-.1 2.1h-.4c0-.2-.1-.4-.1-.6-.1-.5-.1-.9-.2-1.4 0-.1-.2-.1-.2 0-.1.6 0 1.3.2 2-.1 0-.2 0-.2.1-.2-.7-.4-1.4-.7-2.1 0-.1-.2-.1-.2 0 .1.7.3 1.4.6 2.1 0 0-.1 0-.1.1-.3-.7-.8-1.3-1.3-1.9-.1-.1-.2 0-.1.1.3.6.7 1.3 1.2 1.9-.1.1-.2.1-.2.2-.1-.1-.2-.3-.3-.4-.3-.4-.7-.9-1.1-1.2-.1-.1-.2 0-.2.1.2.4.6.8.9 1.2.1.2.3.3.4.5-.1.1-.2.2-.3.4-.6-.4-1.2-.9-1.8-1.2-.1 0-.1.1-.1.1.5.5 1.1.9 1.7 1.3-.1.2-.2.3-.2.5-.1 0-.2-.1-.3-.1-.6-.2-1.2-.5-1.7-.7-.1-.1-.2.2-.1.2.5.2 1 .5 1.5.7.2.1.3.1.5.2 0 .1 0 .2-.1.3-.2 0-.3-.1-.5-.1-.5-.1-1.1-.2-1.6-.1-.1 0-.1.2 0 .2.6.2 1.4.3 2.1.4v.4c-.3.1-.6.2-.9.4-.4.2-.8.2-1.1.5-.1.1-.1.3.1.3.4 0 .9-.2 1.3-.4.2-.1.5-.2.7-.3 0 .2.1.3.1.4-.1.1-.2.1-.3.2-.5.3-1 .6-1.4 1-.1.1 0 .3.2.2.6-.3 1.1-.6 1.6-.9.1 0 .1-.1.2-.1.1.1.2.3.2.4-.5.4-1 1-1.5 1.5-.1.1 0 .2.1.1.5-.4 1.1-.9 1.6-1.4l.3.3c-.2.2-.3.4-.4.6-.3.4-.6.8-.9 1.3-.1.1.1.2.2.1.3-.4.7-.8 1-1.2.2-.2.3-.4.5-.6.1 0 .1.1.2.1-.1.2-.1.3-.2.4-.2.4-.5.9-.6 1.4 0 .1.2.2.2.1.3-.4.5-.9.8-1.4.1-.1.1-.2.2-.4h.1c-.3.7-.5 1.4-.6 2.1 0 .1.2.1.2 0 .2-.7.5-1.4.7-2.1.1 0 .2 0 .3.1-.2.7-.2 1.5-.3 2.2 0 .2.3.2.3 0 0-.7.2-1.5.2-2.2h.2c-.1.7-.1 1.4 0 2.1 0 .2.3.2.3 0-.1-.7 0-1.4-.1-2.1.2 0 .4-.1.6-.1.1.3.3.7.4 1 .2.3.2.7.6.9.1 0 .1 0 .1-.1 0-.3-.2-.7-.4-1-.2-.3-.3-.7-.5-1 .1 0 .1-.1.2-.1.1.3.3.6.4.8.2.3.3.8.6 1 .1.1.2 0 .2-.1-.1-.4-.4-.7-.6-1.1-.2-.3-.3-.6-.5-.8.1-.1.2-.1.3-.2.3.6.8 1.2 1.3 1.7.2.2.4-.1.2-.2-.5-.5-.9-1-1.3-1.6.2-.2.4-.4.5-.6.6.4 1.1.8 1.7 1.2.1.1.3-.1.2-.2-.5-.4-1.2-.8-1.8-1.2 0-.1.1-.1.1-.2.6.3 1.3.7 1.9.9.1.1.2-.2.1-.2-.6-.3-1.3-.6-1.9-.8.1-.2.2-.5.2-.8.7.1 1.3.1 2 .1-.2.3-.2-.2-.5-.2z" fill="#7282ba" stroke-width="none" opacity="1"></path><path id="SvgjsPath15451" d="M118 93.6c1.5 0 2.8 1.3 2.8 2.8s-1.3 2.8-2.8 2.8-2.8-1.3-2.8-2.8 1.3-2.8 2.8-2.8z" fill="#000000" stroke-width="none" opacity="1"></path><path id="SvgjsPath15452" d="M116.5 94c.6 0 1.1.5 1.1 1.1s-.5 1.1-1.1 1.1-1.1-.5-1.1-1.1.5-1.1 1.1-1.1zm3.4 4c.3 0 .6.3.6.6s-.3.6-.6.6-.6-.3-.6-.6.3-.6.6-.6z" fill="#ffffff" stroke-width="none" opacity="1"></path></g></g></g><g id="svga-group-eyesfront-right"><path id="SvgjsPath15497" d="M118.3 85.5c-6.1 0-11 5.6-11 12.5s4.9 12.5 11 12.5 11-5.6 11-12.5-5-12.5-11-12.5zm7 13.3c-1.7 1.2-6.3 2.9-8.2 2.8-1.9-.1-4.2-.5-5.2-.5-1.1 0-3.1 0-4.1.7 0 0 .6-1.9 2-3.8s3.3-3.9 6.6-4.5c3.3-.6 12.1 2.2 12.1 2.2s-1.4 1.9-3.2 3.1z" fill="#cb8d60" stroke-width="none" opacity="1" stroke="none"></path><path id="SvgjsPath15500" d="M134.8 93.7c.1-.1 0-.3-.2-.2-2.4 1.5-4.5 1.7-6.8 1.2 1.5-.1 2.9-.8 4-1.9.1-.1 0-.3-.1-.2-1.6 1.2-3.3 1.8-5.2 1.7-.4-.1-.9-.3-1.4-.4 1.4-.1 2.9-.7 3.7-1.9.1-.1-.1-.3-.2-.2-1.5 1.1-2.8 1.8-4.6 1.7-.3-.1-.6-.2-.8-.3 1-.3 2-1 2.5-1.9.1-.1-.1-.3-.2-.2-1 .9-1.9 1.5-3.1 1.8-1.8-.5-3.6-.8-5.5-.5-4.6.9-8.1 4.6-9.4 9.1 0 .1 0 .2.1.2-.1.1 0 .2.1.2 2.7-1.4 5.1-.3 7.8 0 1.8.2 3.5-.1 5.2-.6 1.9-.6 3.9-1.7 5.6-3 .6.2 1.1.4 1.6.7.1.1.2-.1.1-.2-.4-.4-.9-.7-1.4-.8.1-.1.2-.2.4-.3.4-.2.8-.4 1.3-.4.6 0 1.1.1 1.7.3.1 0 .2-.1.1-.2-.6-.5-1.5-.7-2.4-.5.2-.3.5-.6.7-.9 2.3.1 4.4-.4 6.4-2.3zm-18 7.5c-3.1.2-5.9-1-8.8.5 1.3-2.7 3-5.3 5.8-6.8 3.2-1.7 6.9-.8 10.1.2 1.5.5 2.9.8 4.2 1-3.3 2.6-6.8 4.8-11.3 5.1z" fill="#000000" stroke-width="none" opacity="1" stroke="none"></path></g></g></g><g id="svga-group-facehighlight-single"></g><g id="svga-group-eyebrows-left-move" transform="matrix(1,0,0,1,0,0)"><g id="svga-group-eyebrows-left-rotate" transform="matrix(1,0,0,1,0,0)"><g id="svga-group-eyebrows-left" transform="matrix(1,0,0,1,0,0)"><path id="SvgjsPath15548" d="M69.6 87.3c0-.4.2-.7.5-.9.1-.2.3-.4.4-.6.1-.2.2-.3.4-.4.6-.8 1.8-1.5 2.6-2 1.2-.8 2.6-1.1 4.1-1.3 1.3-.4 2.8-.5 4-.2.1 0 .1.1.2.1 1 0 2 .2 3 .5.5.1 1 .2 1.5.5.1.1.2.2.2.3.6.2 1.1.4 1.6.7.8.4 1.6 1 2 1.6.1-.1.2-.1.4-.1.9.3 1 1 .6 1.6.3.3-.2.8-.7.6-.2 0-.3 0-.4-.1-1.4.7-3.5.3-5.1 0-.1 0-.1.1-.2.1-1.1 0-2.1-.1-3.2-.1-1.9.3-3.7.3-5.6.2-.6-.1-1.3-.1-1.9-.2-.3.1-.6.1-.9.1h-2.4c-.1.1-.3.1-.5 0-.4.1-.6-.1-.6-.4z" fill="#6b4e40" stroke-width="none" opacity="1"></path><path id="SvgjsPath15549" d="M90.2 86.9c.1-.4.1-.8-.2-1.1-.1-.1.1-.3.3-.2.8.5.8 1.8-.1 2.2-.1 0-.2 0-.2-.1-.1-.2.1-.5.2-.8zm-5.3-4.2c1.2.1 2.1 1.3 2.8 2 .7.8 1.7 1.8 1.6 2.9 0 .1-.2.2-.3.1-.6-.9-1-1.8-1.8-2.6-.7-.8-1.7-1.4-2.4-2.2 0-.1 0-.2.1-.2zm-4.1-.9c1.5 0 2.8 1.1 3.7 2 1.1 1.1 2.1 2.4 2.4 3.9 0 .2-.2.3-.3.1-1.4-2.4-2.5-4.7-5.8-5.7-.2-.1-.2-.3 0-.3zM75 83c4.4-.5 8.6 1.5 10.5 4.7.2.3-.3.5-.5.2-2-3.2-5.6-4.8-9.9-4.7-.2 0-.3-.2-.1-.2zm-3.2 1.1c3.3-.2 7.3 1.4 9.2 3.6.1.1-.1.2-.2.1-1.3-.9-2.6-1.8-4.2-2.4-1.6-.6-3.2-.8-4.9-1-.1-.1-.1-.3.1-.3zm-1.1 1.7c2.4-.3 6.5.2 8.2 1.8.1.1 0 .3-.2.2-2.4-1.4-5.2-1.5-7.9-1.7-.2-.1-.3-.3-.1-.3zm-1 1.8c1.1-.3 2.4-.1 3.5-.1.2 0 .2.3 0 .3-1.2 0-2.4.1-3.5-.1-.1 0 0-.1 0-.1z" fill="#7a6155" stroke-width="none" opacity="1"></path><path id="SvgjsPath15550" d="M69.8 85.9c-.6.7-1.4 1.8 0 2.2.7.2 1.7 0 2.4 0h16.4c1 0 3.5.2 3.1-1.2 0-.1-.2-.1-.3 0 0 .2-.1.3-.3.4.5-.9-.5-2.2-1.3-2.7-.1-.1-.2 0-.2.1-2.3-2-5.8-3.1-9-3.3-4-.2-8.4 1.6-10.8 4.5zM89 87.8c-.7-1.7-2.1-3.4-3.7-4.8 1.4.5 2.7 1.2 3.9 2.1.3.4.5.9.5 1.4.1.4 0 .8-.1 1.3H89zm1.8-.2c-.2.1-.4.1-.6.1.3-.6.3-1.2.1-1.8.3.2.5.5.8.7-.1.3-.2.6-.3 1 0-.1 0-.1 0 0zm-20.6-1.3c.5-.6 1.1-1.2 1.7-1.7.1-.1.2-.1.2-.2 2.5.9 4.9 1.8 7.2 3 .1.1.3-.1.2-.2-2-1.4-4.4-2.6-7-3.1 3.7-2.5 8.2-2.7 12.1-1.5.8.8 1.6 1.7 2.4 2.6.6.8 1.1 1.6 1.7 2.4-.8 0-1.7 0-2.5-.1-1.2-2.6-3.9-4.8-7.2-5.6-.2 0-.3.2-.1.2 3 1.3 5.3 2.9 7 5.3-.5 0-.9-.1-1.2-.1h-1.5v-.1c-1.8-2-4.4-3.7-7.4-4.3-.2 0-.3.2-.1.2 2.8 1.1 5.1 2.3 7.2 4.2h-11c-.3 0-1.4.2-1.7 0-.6 0-.3-.6 0-1zm1.3.3c.8 0 1.6.4 2.2.8.2.1 0 .3-.2.2-.3-.2-.7-.3-1-.4-.4-.1-.7-.2-1.1-.3-.1-.1-.1-.3.1-.3z" fill="#5c3d2e" stroke-width="none" opacity="1"></path></g></g></g><g id="svga-group-eyebrows-right-move" transform="matrix(1,0,0,1,0,0)"><g id="svga-group-eyebrows-right-rotate" transform="matrix(1,0,0,1,0,0)"><g id="svga-group-eyebrows-right" transform="matrix(1,0,0,1,0,0)"><path id="SvgjsPath15551" d="M130.4 87.3c0-.4-.2-.7-.5-.9-.1-.2-.3-.4-.4-.6-.1-.2-.2-.3-.4-.4-.6-.8-1.8-1.5-2.6-2-1.2-.8-2.6-1.1-4.1-1.3-1.3-.4-2.8-.5-4-.2-.1 0-.1.1-.2.1-1 0-2 .2-3 .5-.5.1-1 .2-1.5.5-.1.1-.2.2-.2.3-.6.2-1.1.4-1.6.7-.8.4-1.6 1-2 1.6-.1-.1-.2-.1-.4-.1-.9.3-1 1-.6 1.6-.3.3.2.8.7.6.2 0 .3 0 .4-.1 1.4.7 3.5.3 5.1 0 .1 0 .1.1.2.1 1.1 0 2.1-.1 3.2-.1 1.9.3 3.7.3 5.6.2.6-.1 1.3-.1 1.9-.2.3.1.6.1.9.1h2.4c.1.1.3.1.5 0 .4.1.6-.1.6-.4z" fill="#6b4e40" stroke-width="none" opacity="1"></path><path id="SvgjsPath15552" d="M109.8 86.9c-.1-.4-.1-.8.2-1.1.1-.1-.1-.3-.3-.2-.8.5-.8 1.8.1 2.2.1 0 .2 0 .2-.1.1-.2-.1-.5-.2-.8zm5.3-4.2c-1.2.1-2.1 1.3-2.8 2-.7.8-1.7 1.8-1.6 2.9 0 .1.2.2.3.1.6-.9 1-1.8 1.8-2.6.7-.8 1.7-1.4 2.4-2.2 0-.1 0-.2-.1-.2zm4.1-.9c-1.5 0-2.8 1.1-3.7 2-1.1 1.1-2.1 2.4-2.4 3.9 0 .2.2.3.3.1 1.4-2.4 2.5-4.7 5.8-5.7.2-.1.2-.3 0-.3zM125 83c-4.4-.5-8.6 1.5-10.5 4.7-.2.3.3.5.5.2 2-3.2 5.6-4.8 9.9-4.7.2 0 .3-.2.1-.2zm3.2 1.1c-3.3-.2-7.3 1.4-9.2 3.6-.1.1.1.2.2.1 1.3-.9 2.6-1.8 4.2-2.4 1.6-.6 3.2-.8 4.9-1 .1-.1.1-.3-.1-.3zm1.1 1.7c-2.4-.3-6.5.2-8.2 1.8-.1.1 0 .3.2.2 2.4-1.4 5.2-1.5 7.9-1.7.2-.1.3-.3.1-.3zm1 1.8c-1.1-.3-2.4-.1-3.5-.1-.2 0-.2.3 0 .3 1.2 0 2.4.1 3.5-.1.1 0 .1-.1 0-.1z" fill="#7a6155" stroke-width="none" opacity="1"></path><path id="SvgjsPath15553" d="M119.2 81.4c-3.2.2-6.7 1.3-9 3.3 0-.1-.1-.2-.2-.1-.8.5-1.8 1.8-1.3 2.7-.1-.1-.2-.2-.3-.4 0-.1-.2-.1-.3 0-.4 1.4 2.1 1.2 3.1 1.2h16.4c.7 0 1.8.2 2.5 0 1.4-.4.6-1.5 0-2.2-2.3-2.9-6.7-4.7-10.9-4.5zm-8.9 6.3c0-.4-.1-.8-.1-1.3.1-.5.3-.9.5-1.4 1.2-.9 2.5-1.6 3.9-2.1-1.6 1.3-3 3.1-3.7 4.8-.2.1-.4.1-.6 0zm-1.1-.2c-.2-.3-.3-.6-.3-.9.3-.3.5-.5.8-.7-.2.6-.3 1.3.1 1.8-.2 0-.4-.1-.6-.2zm20.5.2c-.3.2-1.3 0-1.6 0h-11c2.1-1.9 4.4-3.1 7.2-4.2.2-.1.1-.3-.1-.2-3 .6-5.6 2.3-7.4 4.3v.1h-1.5c-.2 0-.7 0-1.2.1 1.7-2.4 4-4 7-5.3.2-.1.1-.3-.1-.2-3.3.8-6 3-7.2 5.6-.8 0-1.6.1-2.5.1.6-.8 1.1-1.7 1.7-2.4.7-.9 1.6-1.7 2.4-2.6 4-1.3 8.5-1 12.1 1.5-2.6.5-5 1.8-7 3.1-.1.1 0 .2.2.2 2.3-1.2 4.7-2.1 7.2-3 .1.1.2.1.2.2.7.5 1.2 1.1 1.7 1.7.3 0 .6.6-.1 1zm-1.2-1.1c-.8 0-1.6.4-2.2.8-.2.1 0 .3.2.2.3-.2.7-.3 1-.4.4-.1.7-.2 1.1-.3.1-.1.1-.3-.1-.3z" fill="#5c3d2e" stroke-width="none" opacity="1"></path></g></g></g><g id="svga-group-nose-single-move" transform="matrix(1,0,0,1,0,0)"><g id="svga-group-nose-single" transform="matrix(1,0,0,1,0,0)"><path id="SvgjsPath15527" d="M94.94 88.27c1.09.9 1.93 1.85 2.34 3.25.46 1.58.01 2.89-.24 4.43-.13.83-.12 1.6.01 2.43.3 1.82.37 3.1-.45 4.84-.89 1.9-1.83 3.6-1.99 5.74-.16 2.17.41 4.19 1.48 6.07.08.15.3.02.23-.13-1.42-3.01-1.47-6.54-.07-9.57.83-1.8 1.93-3.43 1.69-5.5-.18-1.62-.5-2.94-.16-4.61.18-.87.35-1.73.26-2.63-.18-1.86-1.29-3.63-2.92-4.55-.15-.08-.32.12-.18.23z" fill="#9d521b" stroke-width="none" opacity="1" transform="translate(0 2)"></path><path id="SvgjsPath15528" d="M93.24 112.44c-1.27 1.59-2.06 6.22.65 7.01 1.79.52 2.16-2.61 4-1.23.99.74 1.24 2.28 2.78 2.12 1.1-.12 1.64-1.17 2.46-1.75 1.49-1.06 2.77 1.2 4.24.13 2.19-1.59.45-5.37-1.21-6.58-.31-.23-.67.27-.41.53 1.04 1.01 2.38 2.98 1.66 4.56-.88 1.93-2.26.03-3.42.11-1.92.13-2.62 3.5-4.74 1.47-.84-.8-1.73-2.54-3.19-1.71-.17.1-.3.26-.43.4-.16.23-.31.48-.43.73-1.44.21-2.24-.2-2.38-1.24-.48-1.46.09-3.07.65-4.41.07-.13-.14-.25-.23-.14z" fill="#9d521b" stroke-width="none" opacity="1" transform="translate(0 2)"></path><path id="SvgjsPath15529" d="M105.73 88.66c-3.59 2.68-1.04 6.83-1.81 10.38-.03.14.16.23.23.1.63-1.1.51-2.29.3-3.5-.48-2.75-.43-4.56 1.48-6.72.11-.13-.04-.37-.2-.26z" fill="#9d521b" stroke-width="none" opacity="1" transform="translate(0 2)"></path><path id="SvgjsPath15530" d="M103.91 102.3c.7 2.53.9 4.93 1.01 7.53 0 .11.18.15.2.03.41-2.5-.08-5.28-1.03-7.61-.04-.11-.21-.07-.18.05z" fill="#9d521b" stroke-width="none" opacity="1" transform="translate(0 2)"></path><path id="SvgjsPath15531" d="M104.48 108.47c-.12-1.87-.5-4.29-1.95-5.6-.25-.23-.69-.08-.68.28.03 1.79.74 3.49.74 5.31 0 1.52-.87 3.56-.29 4.98.12.3.45.5.76.31 1.55-.93 1.52-3.67 1.42-5.28z" fill="#d3986e" stroke-width="none" opacity="1" transform="translate(0 2)"></path></g></g><g id="svga-group-hair-front" transform="matrix(1,0,0,1,0,0)"><path id="SvgjsPath15664" d="M160 89.7c-4.1-18.8-35.3-51.9-48.6-51.9-10.9 0-26.6 2.6-28.9 13.2-1.4-.3-3.6-.4-6.3 1.3-4.9 2.9-15.5 12.8-15.4 22.5.1 9.7 9.1 12.4 9.1 12.4-1.2-10.7-1.6-14.3 1.4-20.3s11.8-7.8 11.8-7.8c.3 1.1 8-9.7 18.2-10.5 10.5-.8 13.7 5.3 12.5 13s1.2 12.1 6.2 14.5c5 2.3 7.7-1.8 11.8 1.8 4.1 3.5 7.9 10.3 4.4 23.2-3.5 12.9-4.4 21.5 1.5 24.1s26.4-16.6 22.3-35.5z" fill="#5c3d2e" stroke-width="none" opacity="1"></path><path id="SvgjsPath15665" d="M180.6 133.3c-3.8-2.6-6.1-2.9-3.5-13 .2-1 .4-1.8.5-2.7 1.5-1.8 2.7-3.7 2.6-5.8-.2-5.3-13.1-7.7-14.3-10.8-1.2-3.1-3.1-6.7 1.9-18.6s1.9-23.2-11.5-25.6-6.9-6.7-10.5-13.9c-3.6-7.2-15.8-16.5-27.2-13.9-11.5 2.6-10-6.7-23.9-4.8s-8.6 6.9-14.6 9.8-7.9 2.2-9.6 5.3c-1.7 3.1-1.7 5.5-.5 8.4 0 0-4.5-5-14.3-1.9S30.6 58.1 37.3 69.3s5.5 11.5-5.7 20.8-6 16.7 2.6 23.2 6.9 9.8-1.7 15.3-11.7 18.6 1 26.3 13.1 12.9 12 18.9c-1.2 6 2.4 16.5 23.4 16.5 0 0-9.3-3.6-5.7-11.7s7.4-10.5 0-19.6-10.8-16.2-6.5-23.2 13.6-7.6 6.2-16.5-8.6-12.7-.7-18.9c7.9-6.2 11.5-8.8 5.7-18.6C62.2 72 70.5 58.3 83 59.3c0 0 2.2-7.4 11.5-12.2s24.6-4.1 24.4 4.8c-.2 8.8-6 16.5-.7 24.4 5.3 7.9 13.1 2.2 22.5 1.9 9.3-.2 14.8 11 3.6 23.9s-11.7 18.2-8.4 23.7 11.7.5 14.8 5.3c3.1 4.8-11.9 6.9-12.9 13.1s.7 8.8 7.2 11c6.4 2.1 8.4 11 .5 13.9-7.7 2.8-6.9 13.7-1 18.8l.3.3s-1.8-4.1.3-7.3c2-3.2 12.7-1.7 22.2-1.4 9.5.3 7.8-5.8 4.3-17s4.6-12.7 7.2-15.6c2.4-3 5.6-11 1.8-13.6z" fill="#6b4e40" stroke-width="none" opacity="1"></path><path id="SvgjsPath15666" d="M73.9 53.6s-15.1-4.2-20.8 8.3 4.9 17 6.4 23.8C61 92.5 44.8 96.2 41 102.3c-3.8 6-2.3 12.8 9.4 19.3s-3 12.8-6 16.6 3 7.9 6.8 13.2c3.8 5.3 3 12.1 1.1 16.2s-1.9 7.2 1.5 9.8c0 0-3.4-2.6 1.5-10.9s-6.4-19.6-7.5-24.5c-1.1-4.9 9.8-10.9 11-14.7s-8.3-5.7-14.4-11.7c-6-6-3-12.8.8-14.7S63 93 64.1 89.6c1.1-3.4-9.8-12.1-9.8-18.5s.3-17.9 19.6-17.5zm3-3.1s1.9-7.5 9.4-11.7c7.6-4.2 29.8-6 37 0 7.2 6-3.4 19.6-.8 27.9s12.8 3.8 21.5 3c8.7-.8 17.4 3.8 15.5 14.7s-23 24.2-18.1 32.5c4.9 8.3 20.8-1.5 21.9 6.4 1.1 7.9-21.8 12.7-16.8 23.7s15.7 3.9 13.4 12.2-6 9.1-10.2 11.7c-4.1 2.6-3.8 5.7-3.8 5.7s.8-4.9 8.7-6.4 12.1-11.3 9.8-17.8-.5-11.1 3.6-19 8-15.5 3.5-17.7-16.9-.6-16.5-7.4c.4-6.8 7.9-21.5 8.3-29.1.4-7.6-.4-9.1-10.9-12.8-10.6-3.8-15.5-3-15.1-14 .4-11-7.9-17-14.3-18.9s-20.8-1.9-33.6 1.5c-12.9 3.5-12.5 15.5-12.5 15.5zm-7.7-.4s-10.4-.3-17 3.6-7.3 15.4.2 24.8-6.2 13-11 15.2-9.9 10.5-6.5 14.9c3.4 4.4 11.2 11.5 14.1 14.6 2.9 3.1-2.4 7.8-7.6 11.5s-6.7 7.8-3.9 11.2c2.8 3.4 11.5 7.6 12.6 12.6s-.3 8.6-.3 8.6 1-8.3-2.9-11c-3.9-2.8-15.6-4.5-16.5-13.6s11.4-11 13.4-15.1-2.3-10.4-4.7-12.2c-2.4-1.8-10.2-7.9-10.5-13.3-.3-5.3 4-10.5 9.7-13.1C44 86.2 48.2 85.7 49 82c.8-3.7-6.5-9.4-7.5-14.1-1-4.7-.8-11.5 6.3-15.4s12.7-3.7 21.4-2.4z" fill="#5c3d2e" stroke-width="none" opacity="1"></path><path id="SvgjsPath15667" d="M81.6 54.5s3.5-11.1 12.7-15.2 23.1-3.8 27.6 1 .4 13-1.5 17.6-4.7 11.8-1.1 15.2c3.6 3.5 10.4 2.6 14.9.8s16.7-4.1 21.4 2-.9 16.6-6.2 22.5c-5.3 5.9-10.7 11.8-10.1 16.9.6 5.1 5.7 6.5 15.5 6.9 9.8.4 3.6 6.9-7.4 15.8s2 16 2 16-7.1-1.7-7.7-7.2 3-8.6 7.1-11.4 10.7-8.6 9.3-10.4c-1.4-1.8-14.8 2.3-18.7-.4s-4.5-5.9-2.1-12.8 11.9-13.9 14.2-18.4 6.3-12.8 2.7-16.4-16.7-1.1-24.4 1.2-13.1-2.7-13.1-6.6-.9-3.9 3.6-15.8-1.7-15.7-5.9-16.6-21.7-3.5-32.8 15.3zm-5 3.9s-11.3 2.1-13 9.3 2.7 15.5 4.5 19.6c1.8 4.1-6 8.9-10.5 13s-6.9 7.8-3.9 12.5 10.2 10.1 9.5 13c-.8 2.9-3.8 4.5-3.8 4.5s4.4-4.8.6-7.7c-3.8-2.9-13.9-6.6-13.3-13.9.6-7.2 7.1-8.6 11.9-12.1s8.1-3.6 8.1-8.3-6-9-8-15.8c-1.8-6.7.7-11.8 17.9-14.1zm55.6-22.7s5.6 1 8 8.8.2 10.7 3.4 14.1 14.2 3 18 6.3c3.7 3.2 5.3 12.9 1.7 23.6 0 0 5.6-8.8 4.6-16.8s-6.3-8.5-17.6-12.4-5.3-10.2-8.5-16.8-9.6-6.8-9.6-6.8zm41 82.2c-1.9-3.3-6.1-3.6-9.5-3.6-4.7 0-9.5.4-11.3-5.3-1.5-4.7 1.4-9.2 3.3-13.3 3.5-7.4 9.7-19.5.3-25-4-2.3-8.6-2.3-13-1.7-3.7.6-7.8 2.1-11.6 1.7-7.6-.7-6.7-7.9-4.9-13.1.1-.2-.2-.3-.3-.1-1.5 3.4-3.1 7.7-.8 11.2 2.3 3.4 6.9 3.1 10.4 2.6 7-.9 16.4-3.9 22 2.4 5.9 6.7-1.9 19.2-4.8 25.7-1.6 3.7-3 8-.9 11.8 2 3.8 6.3 4 10.1 4.2 5 .1 11.9 1.2 9.9 8.6-.9 3.3-3.1 6.4-5 9.1-3.3 4.9-6.8 9.9-6 16.1 0 .4.6.4.6 0 .2-8.4 5.7-13.6 9.7-20.3 1.8-3.1 3.9-7.5 1.8-11zm-45.7-83.4c-5.6-3.4-10.6-2.4-16.8-2.5-6.1 0-10-6.2-16.1-5-2 .4-3.6 1.4-5.1 2.8-1.2 1.1-1.8 2.8-2.9 4-1.8 1.7-3.9 2.2-6 3.2-3.2 1.5-6.3 3.9-5.2 7.8.1.3.6.2.5-.1-.4-2.4 1.7-5.2 3.7-6.4 1.2-.7 2.6-1 3.9-1.6 1.4-.6 2.7-1.2 3.8-2.2 1.6-1.4 2.4-3.4 4.2-4.7 3.8-2.8 7.4-1.6 11.2.6 3.1 1.8 5.4 2.8 9 2.7 5.7-.2 10.4-.2 15.7 2 .1 0 .3-.5.1-.6zM63.9 53.2c-7.4 1.3-15 5.7-16.2 13.8-.5 3.2.4 6.2 2.1 8.9 3 4.7 11.1 8.9 7.2 15.4-4.5 7.3-17.1 5.7-20 14.6-2.5 7.3 4.5 13.1 9.9 16.5.2.1.4-.2.2-.3-3.6-2.9-7.9-5.8-9.2-10.5-1.9-6.7 3.5-10.4 8.8-12.5 4.9-1.9 10.6-3.6 12.5-9.1 2-5.7-3.1-8.7-6.4-12.4-4.1-4.5-5.7-10.1-2.3-15.6 3-4.9 8.3-7 13.5-8.5.1-.1.1-.3-.1-.3zm-8-4.3c-6.3 2.2-12.8 5.6-15.1 12.3-1 3-1 6 .3 8.9 2.1 4.8 6.8 8.2 5.3 14.2 0 .2.2.2.3.1 2.1-5.3-1.8-8.9-4.2-13.3-5.8-10.6 5-18.3 13.5-21.8.3-.1.2-.5-.1-.4zM174 111.4c-1.3-2-3.3-3.3-5.4-4.4-3-1.5-6.8-3.1-6.7-7.2 0-.3-.4-.4-.5-.1-.4 2.4.8 4.3 2.6 5.8 1.5 1.1 3.2 1.7 4.8 2.6 1.8 1 3.1 2.3 4.6 3.6.4.4.8.1.6-.3zm-3.6 36.2c-2.9.6-4.5 2.9-5.1 5.7-1.3 6.1 2.9 12.1-2.6 17.3-5.3 5-20.8 1.5-20.5 12.1 0 .2.3.2.3 0 .5-10.5 16.6-5.6 22.1-12.2 1.7-2.1 2.5-4.6 2.5-7.2.1-4.9-3.2-12.4 3.5-14.8.4-.3.3-1-.2-.9zM62.8 161.9c-.9-3-2.6-5.7-4.6-8.2-3.6-4.4-10.4-9.6-6-16 .2-.2-.2-.6-.4-.3-6.3 7 3.1 13.9 6.8 19.2 1.8 2.6 3.7 6 3.5 9.2-.2 3.9-3.1 6.1-4.5 9.4-1.3 3.2-1.2 6.4.3 9.4.1.3.6.1.5-.2-1-3.6-1-6.7.9-10.1 1-1.8 2.5-3.4 3.3-5.3 1-2.3 1-4.6.2-7.1zM55 183.1c-4.9-4.2-6.2-9.2-5-15.5.6-3.3 1.7-6.6 1-9.9-.4-2.1-1.4-3.8-2.9-5.3-3.3-3.2-12-5.7-8.5-12.5.1-.2-.2-.4-.4-.2-1.7 2.6-1.3 5.2.6 7.6 3.7 4.7 10 5.3 10.2 12.6.1 5.1-2.5 10-1.4 15.2.8 3.6 2.8 6.5 5.9 8.5.4.2.7-.2.5-.5z" fill="#7a6155" stroke-width="none" opacity="1"></path></g><g id="svga-group-glasses-single-move" transform="matrix(1,0,0,1,0,0)"><g id="svga-group-glasses-single" transform="matrix(1,0,0,1,0,0)"><path id="SvgjsPath15582" d="M118.8 82.8c8.3 0 15.1 6.8 15.1 15.1s-6.8 15.1-15.1 15.1-15.1-6.8-15.1-15.1 6.8-15.1 15.1-15.1z" fill="url(#SvgjsLinearGradient15583)" opacity="1"></path><path id="SvgjsPath15590" d="M81.2 82.8c8.3 0 15.1 6.8 15.1 15.1S89.5 113 81.2 113s-15.1-6.8-15.1-15.1 6.8-15.1 15.1-15.1z" fill="url(#SvgjsLinearGradient15591)" opacity="1"></path><path id="SvgjsPath15598" d="M137.5 94.5c-2-.1-3.4-1.6-4.1-2.7-2.4-5.7-8-9.7-14.6-9.7-7.1 0-13.1 4.7-15.1 11.1-.2 0-.5 0-.8-.1-1.2-.3-2-1-3-1s-1.8.7-2.9 1c-.3.1-.6.1-.8.1-2-6.4-8-11.1-15.1-11.1-6.6 0-12.2 4-14.6 9.7-.7 1-2.1 2.6-4.1 2.7 0 0-.3 2.3-.1 4.4 0 0 2.4.4 3.4 2.6 1.6 7 7.9 12.2 15.3 12.2 8.4 0 15.3-6.6 15.7-15 .7-2.1 1.8-3 2.4-3.4.4-.2.9-.2 1.3 0 .7.4 1.7 1.3 2.4 3.4.4 8.3 7.3 15 15.7 15 7.5 0 13.7-5.2 15.3-12.2 1-2.2 3.4-2.6 3.4-2.6.6-2 .3-4.4.3-4.4zM83 112.2c-9.4 1.2-17.3-6.7-16.1-16.1.8-6.4 6-11.6 12.4-12.4 9.4-1.2 17.3 6.7 16.1 16.1-.8 6.4-6 11.5-12.4 12.4zm37.7 0c-9.4 1.2-17.3-6.7-16.1-16.1.8-6.4 6-11.6 12.4-12.4 9.4-1.2 17.3 6.7 16.1 16.1-.8 6.4-6 11.5-12.4 12.4z" fill="#28be9c" stroke-width="none" opacity="1"></path><path id="SvgjsPath15599" d="M137.5 94.6c-.8 0-1.7-.3-2.4-.8s-1.3-1.1-1.8-1.8c-1.3-2.9-3.4-5.5-6.1-7.2s-5.9-2.6-9.1-2.4c-3.2.2-6.3 1.3-8.8 3.3-2.5 1.9-4.4 4.7-5.3 7.7v.1h-.1c-.7 0-1.4-.2-2-.5-.6-.3-1.2-.6-1.8-.6-.6 0-1.2.3-1.8.6-.6.3-1.3.5-2 .5h-.1v-.1c-.9-3.1-2.8-5.8-5.3-7.8s-5.6-3.1-8.8-3.3c-3.2-.2-6.4.7-9.1 2.4-2.7 1.7-4.9 4.3-6.1 7.2-.5.7-1.1 1.4-1.8 1.9s-1.5.8-2.4.8l.1-.1c-.2 1.4-.2 2.9-.1 4.3l-.1-.1c.8.2 1.5.5 2.1.9.6.4 1.1 1.1 1.4 1.8.9 3.6 3.1 6.9 6.1 9.1 3 2.2 6.8 3.2 10.5 2.9 3.7-.3 7.2-2.1 9.8-4.7 2.6-2.7 4.1-6.3 4.3-10 .3-.8.6-1.6 1.2-2.3.3-.3.6-.7.9-.9.3-.2.8-.5 1.3-.5s.9.3 1.3.5c.3.3.7.6.9.9.5.7.9 1.5 1.2 2.3.2 3.7 1.8 7.3 4.3 10s6.1 4.4 9.8 4.8c3.7.4 7.5-.7 10.5-2.9s5.2-5.4 6.1-9.1c.3-.7.8-1.3 1.4-1.7.6-.4 1.3-.8 2.1-.9l-.1.1c.1-.7.1-1.4.1-2.2v-1.1l-.3-1.1zm0-.1c.1.4.1.7.1 1.1 0 .4.1.7.1 1.1 0 .7 0 1.5-.1 2.2-.7.2-1.4.5-2 .9-.6.4-1 1-1.3 1.7-.8 3.7-3.1 7-6.1 9.3-3.1 2.2-6.9 3.4-10.7 3-3.8-.3-7.4-2.1-10.1-4.8-2.7-2.7-4.3-6.4-4.5-10.3v.1c-.3-.8-.6-1.5-1.1-2.1-.2-.3-.5-.6-.8-.8-.3-.2-.6-.4-1-.4-.3 0-.7.2-1 .4-.3.2-.6.5-.8.8-.5.6-.8 1.4-1.1 2.1v-.1c-.2 3.8-1.8 7.5-4.5 10.2-2.6 2.8-6.3 4.5-10.1 4.8-3.8.3-7.7-.8-10.7-3-3.1-2.2-5.3-5.6-6.2-9.3-.3-.7-.8-1.2-1.3-1.7-.6-.4-1.3-.8-2-.9h-.1v-.1c-.1-1.5-.1-2.9.1-4.4v-.1h.1c.8 0 1.6-.3 2.3-.8s1.2-1.1 1.7-1.8c1.3-3 3.4-5.6 6.2-7.3 2.7-1.8 6-2.6 9.2-2.5 3.2.1 6.4 1.3 9 3.3 2.6 2 4.5 4.8 5.5 7.9l-.2-.1c.6 0 1.2-.2 1.8-.4.6-.3 1.2-.6 1.9-.6s1.4.4 1.9.6c.6.3 1.2.5 1.8.4l-.2.2c1-3.1 2.9-5.9 5.5-7.9s5.8-3.2 9-3.3c3.2-.2 6.5.7 9.3 2.5 2.7 1.7 4.9 4.3 6.1 7.3.5.7 1 1.3 1.7 1.8 1 .7 1.7 1 2.6 1zM83 112.2c-3.7.4-7.7-.5-10.7-2.8-3-2.3-5.2-5.8-5.6-9.6-.2-1.9-.1-3.8.4-5.7.5-1.8 1.4-3.6 2.6-5 1.2-1.5 2.6-2.8 4.2-3.7 1.6-1 3.4-1.6 5.3-1.9 3.8-.4 7.8.5 10.8 2.9 3 2.3 5.2 5.8 5.6 9.7.1.5.1.9.1 1.4v1.4c-.1.9-.2 1.9-.5 2.8-.5 1.8-1.4 3.6-2.6 5.1-2.3 2.9-5.8 4.9-9.6 5.4zm0-.1c1.9-.3 3.7-.9 5.3-1.8 1.6-.9 3-2.2 4.1-3.7 2.3-3 3.2-6.8 2.7-10.5s-2.5-7.1-5.4-9.4c-2.9-2.3-6.8-3.3-10.5-2.9-3.7.5-7.2 2.4-9.5 5.4-1.1 1.5-2 3.2-2.4 5-.5 1.8-.5 3.7-.3 5.5.5 3.7 2.5 7.1 5.4 9.4 3 2.5 6.9 3.5 10.6 3zm37.7.1c-3.7.4-7.7-.5-10.7-2.8-3-2.3-5.2-5.8-5.6-9.6-.2-1.9-.1-3.8.4-5.7.5-1.8 1.4-3.6 2.6-5 1.2-1.5 2.6-2.8 4.2-3.7 1.6-1 3.4-1.6 5.3-1.9 3.8-.5 7.7.4 10.8 2.8 3 2.3 5.2 5.8 5.6 9.7.1.5.1.9.1 1.4v1.4c-.1.9-.2 1.9-.5 2.8-.5 1.8-1.4 3.6-2.6 5.1-2.3 3-5.9 5-9.6 5.5zm0-.1c1.9-.3 3.7-.9 5.3-1.8 1.6-.9 3-2.2 4.1-3.7 2.3-3 3.2-6.8 2.7-10.5s-2.5-7.1-5.4-9.4c-2.9-2.3-6.8-3.3-10.5-2.9-3.7.5-7.2 2.4-9.5 5.4-1.1 1.5-2 3.2-2.4 5-.5 1.8-.5 3.7-.3 5.5.5 3.7 2.5 7.1 5.4 9.4 3 2.5 6.9 3.5 10.6 3z" fill="#029f7c" stroke-width="none" opacity="1"></path></g></g></g></g></g><rect id="svga-credit-rect" width="200" height="15" x="0" y="185" fill="#ecf0f1" opacity="0.5" style="display: none;"></rect><text id="svga-credit-text" font-family="Avenir Next, Roboto, Helvetica, Arial, sans-serif" font-size="10px" text-anchor="start" font-weight="400" size="10px" anchor="start" weight="400" fill="#333333" x="33.40447998046875" y="182.60824704170227" style="display: none;"><tspan id="SvgjsTspan14937" dy="13" x="33.40447998046875">Created on AvatarMaker.com</tspan></text></g></svg>