<svg xmlns="http://www.w3.org/2000/svg" version="1.1" width="600px" height="600px" viewBox="0 0 200 200" style="overflow:hidden!important;"><defs id="SvgjsDefs3215"><radialGradient id="SvgjsRadialGradient3281" cx="100" cy="114" r="41" gradientUnits="userSpaceOnUse" class="svga-on-canvas-facehighlight-gradient-single-0"><stop id="SvgjsStop3282" stop-opacity="0.5" stop-color="#ffffff" offset="0" ></stop><stop id="SvgjsStop3283" stop-opacity="0" stop-color="#f6e4e2" offset="0.9" ></stop></radialGradient><radialGradient id="SvgjsRadialGradient3285" cx="100" cy="54" r="37" gradientUnits="userSpaceOnUse" class="svga-on-canvas-facehighlight-gradient-single-1"><stop id="SvgjsStop3286" stop-opacity="0.5" stop-color="#ffffff" offset="0" ></stop><stop id="SvgjsStop3287" stop-opacity="0" stop-color="#f6e4e2" offset="0.9" ></stop></radialGradient><radialGradient id="SvgjsRadialGradient3370" cx="-568.659" cy="-521.042" r="59.751" gradientTransform="matrix(0.096 -0.0248 0.0245 0.0961 141.2814 119.9893)" gradientUnits="userSpaceOnUse" class="svga-on-canvas-eyesiris-gradient-left-1"><stop id="SvgjsStop3371" stop-opacity="1" stop-color="#ffffff" offset="0" ></stop><stop id="SvgjsStop3372" stop-opacity="0" stop-color="#ffffff" offset="1" ></stop></radialGradient><radialGradient id="SvgjsRadialGradient3374" cx="-582.838" cy="-519.099" r="59.745" gradientTransform="matrix(0.0991 8.856319e-004 -0.0011 0.0991 131.1134 135.9855)" gradientUnits="userSpaceOnUse" class="svga-on-canvas-eyesiris-gradient-left-2"><stop id="SvgjsStop3375" stop-opacity="1" stop-color="#ffffff" offset="0" ></stop><stop id="SvgjsStop3376" stop-opacity="0" stop-color="#ffffff" offset="1" ></stop></radialGradient><linearGradient id="SvgjsLinearGradient3380" x1="122.67" y1="88.268" x2="123.606" y2="87.152" gradientTransform="matrix(1 0 0 1 -52 0)" gradientUnits="userSpaceOnUse" class="svga-on-canvas-eyesiris-gradient-left-5"><stop id="SvgjsStop3381" stop-opacity="1" stop-color="#ffffff" offset="0" ></stop><stop id="SvgjsStop3382" stop-opacity="0" stop-color="#ffffff" offset="1" ></stop></linearGradient><linearGradient id="SvgjsLinearGradient3384" x1="127.212" y1="82.296" x2="126.463" y2="83.189" gradientTransform="matrix(1 0 0 1 -52 0)" gradientUnits="userSpaceOnUse" class="svga-on-canvas-eyesiris-gradient-left-6"><stop id="SvgjsStop3385" stop-opacity="1" stop-color="#ffffff" offset="0" ></stop><stop id="SvgjsStop3386" stop-opacity="0" stop-color="#ffffff" offset="1" ></stop></linearGradient><linearGradient id="SvgjsLinearGradient3388" x1="129.636" y1="79.822" x2="127.91" y2="81.879" gradientTransform="matrix(1 0 0 1 -52 0)" gradientUnits="userSpaceOnUse" class="svga-on-canvas-eyesiris-gradient-left-7"><stop id="SvgjsStop3389" stop-opacity="1" stop-color="#ffffff" offset="0" ></stop><stop id="SvgjsStop3390" stop-opacity="0" stop-color="#ffffff" offset="1" ></stop></linearGradient><radialGradient id="SvgjsRadialGradient3393" cx="-568.654" cy="-521.042" r="59.752" gradientTransform="matrix(0.096 -0.0248 0.0245 0.0961 193.2804 119.9894)" gradientUnits="userSpaceOnUse" class="svga-on-canvas-eyesiris-gradient-right-1"><stop id="SvgjsStop3394" stop-opacity="1" stop-color="#ffffff" offset="0" ></stop><stop id="SvgjsStop3395" stop-opacity="0" stop-color="#ffffff" offset="1" ></stop></radialGradient><radialGradient id="SvgjsRadialGradient3397" cx="-582.833" cy="-519.102" r="59.747" gradientTransform="matrix(0.0991 8.856319e-004 -0.0011 0.0991 183.1126 135.9856)" gradientUnits="userSpaceOnUse" class="svga-on-canvas-eyesiris-gradient-right-2"><stop id="SvgjsStop3398" stop-opacity="1" stop-color="#ffffff" offset="0" ></stop><stop id="SvgjsStop3399" stop-opacity="0" stop-color="#ffffff" offset="1" ></stop></radialGradient><linearGradient id="SvgjsLinearGradient3403" x1="122.67" y1="88.268" x2="123.606" y2="87.152" gradientUnits="userSpaceOnUse" class="svga-on-canvas-eyesiris-gradient-right-5"><stop id="SvgjsStop3404" stop-opacity="1" stop-color="#ffffff" offset="0" ></stop><stop id="SvgjsStop3405" stop-opacity="0" stop-color="#ffffff" offset="1" ></stop></linearGradient><linearGradient id="SvgjsLinearGradient3407" x1="127.212" y1="82.296" x2="126.463" y2="83.189" gradientUnits="userSpaceOnUse" class="svga-on-canvas-eyesiris-gradient-right-6"><stop id="SvgjsStop3408" stop-opacity="1" stop-color="#ffffff" offset="0" ></stop><stop id="SvgjsStop3409" stop-opacity="0" stop-color="#ffffff" offset="1" ></stop></linearGradient><linearGradient id="SvgjsLinearGradient3411" x1="129.636" y1="79.822" x2="127.91" y2="81.879" gradientUnits="userSpaceOnUse" class="svga-on-canvas-eyesiris-gradient-right-7"><stop id="SvgjsStop3412" stop-opacity="1" stop-color="#ffffff" offset="0" ></stop><stop id="SvgjsStop3413" stop-opacity="0" stop-color="#ffffff" offset="1" ></stop></linearGradient><linearGradient id="SvgjsLinearGradient3419" x1="100" y1="142" x2="100" y2="139" gradientUnits="userSpaceOnUse" class="svga-on-canvas-mouth-gradient-single-0"><stop id="SvgjsStop3420" stop-opacity="1" stop-color="#eed2cf" offset="0.1" ></stop><stop id="SvgjsStop3421" stop-opacity="1" stop-color="#e7c1bd" offset="1" ></stop></linearGradient><linearGradient id="SvgjsLinearGradient3446" x1="100" y1="171" x2="100" y2="131" gradientUnits="userSpaceOnUse" class="svga-on-canvas-chinshadow-gradient-single-0"><stop id="SvgjsStop3447" stop-opacity="0.8" stop-color="#e7c1bd" offset="0" ></stop><stop id="SvgjsStop3448" stop-opacity="1" stop-color="#c8837c" offset="0.7" ></stop></linearGradient><radialGradient id="SvgjsRadialGradient3756" cx="125.861" cy="84.497" r="10.213" gradientTransform="matrix(-1 0 0 1 200 0)" gradientUnits="userSpaceOnUse" class="svga-on-canvas-eyesback-gradient-left-0"><stop id="SvgjsStop3757" stop-opacity="1" stop-color="#ffffff" offset="0" ></stop><stop id="SvgjsStop3758" stop-opacity="1" stop-color="#fdfefe" offset="0.544" ></stop><stop id="SvgjsStop3759" stop-opacity="1" stop-color="#f6f8f9" offset="0.74" ></stop><stop id="SvgjsStop3760" stop-opacity="1" stop-color="#eaeff2" offset="0.879" ></stop><stop id="SvgjsStop3761" stop-opacity="1" stop-color="#d9e3e8" offset="0.992" ></stop><stop id="SvgjsStop3762" stop-opacity="1" stop-color="#d8e2e7" offset="1" ></stop></radialGradient><radialGradient id="SvgjsRadialGradient3764" cx="125.861" cy="84.497" r="10.213" gradientUnits="userSpaceOnUse" class="svga-on-canvas-eyesback-gradient-right-0"><stop id="SvgjsStop3765" stop-opacity="1" stop-color="#ffffff" offset="0" ></stop><stop id="SvgjsStop3766" stop-opacity="1" stop-color="#fdfefe" offset="0.544" ></stop><stop id="SvgjsStop3767" stop-opacity="1" stop-color="#f6f8f9" offset="0.74" ></stop><stop id="SvgjsStop3768" stop-opacity="1" stop-color="#eaeff2" offset="0.879" ></stop><stop id="SvgjsStop3769" stop-opacity="1" stop-color="#d9e3e8" offset="0.992" ></stop><stop id="SvgjsStop3770" stop-opacity="1" stop-color="#d8e2e7" offset="1" ></stop></radialGradient><radialGradient id="SvgjsRadialGradient3772" cx="125.861" cy="84.497" r="10.213" gradientTransform="matrix(-1 0 0 1 200 0)" gradientUnits="userSpaceOnUse" class="svga-on-canvas-eyesfront-gradient-left-0"><stop id="SvgjsStop3773" stop-opacity="1" stop-color="#ffffff" offset="0" ></stop><stop id="SvgjsStop3774" stop-opacity="1" stop-color="#fdfefe" offset="0.544" ></stop><stop id="SvgjsStop3775" stop-opacity="1" stop-color="#f6f8f9" offset="0.74" ></stop><stop id="SvgjsStop3776" stop-opacity="1" stop-color="#eaeff2" offset="0.879" ></stop><stop id="SvgjsStop3777" stop-opacity="1" stop-color="#d9e3e8" offset="0.992" ></stop><stop id="SvgjsStop3778" stop-opacity="1" stop-color="#d8e2e7" offset="1" ></stop></radialGradient><radialGradient id="SvgjsRadialGradient3782" cx="123.755" cy="83.738" fx="136.189" fy="83.773" r="17.684" gradientTransform="matrix(0.9998 0.0208 0.0166 -0.7998 -48.8769 148.1393)" gradientUnits="userSpaceOnUse" class="svga-on-canvas-eyesfront-gradient-left-3"><stop id="SvgjsStop3783" stop-opacity="1" stop-color="#e7c1bd" offset="0" ></stop><stop id="SvgjsStop3784" stop-opacity="0.3" stop-color="#e7c1bd" offset="0.7" ></stop><stop id="SvgjsStop3785" stop-opacity="0" stop-color="#f6e4e2" offset="1" ></stop></radialGradient><radialGradient id="SvgjsRadialGradient3787" cx="122.636" cy="100.958" r="25.824" gradientTransform="matrix(-0.8746 -0.4848 -0.3636 0.656 221.3328 94.1879)" gradientUnits="userSpaceOnUse" class="svga-on-canvas-eyesfront-gradient-left-4"><stop id="SvgjsStop3788" stop-opacity="0" stop-color="#000000" offset="0.94" ></stop><stop id="SvgjsStop3789" stop-opacity="0.2" stop-color="#000000" offset="1" ></stop></radialGradient><radialGradient id="SvgjsRadialGradient3793" cx="125.861" cy="84.497" r="10.213" gradientUnits="userSpaceOnUse" class="svga-on-canvas-eyesfront-gradient-right-0"><stop id="SvgjsStop3794" stop-opacity="1" stop-color="#ffffff" offset="0" ></stop><stop id="SvgjsStop3795" stop-opacity="1" stop-color="#fdfefe" offset="0.544" ></stop><stop id="SvgjsStop3796" stop-opacity="1" stop-color="#f6f8f9" offset="0.74" ></stop><stop id="SvgjsStop3797" stop-opacity="1" stop-color="#eaeff2" offset="0.879" ></stop><stop id="SvgjsStop3798" stop-opacity="1" stop-color="#d9e3e8" offset="0.992" ></stop><stop id="SvgjsStop3799" stop-opacity="1" stop-color="#d8e2e7" offset="1" ></stop></radialGradient><radialGradient id="SvgjsRadialGradient3803" cx="123.755" cy="83.738" fx="136.19" fy="83.773" r="17.685" gradientTransform="matrix(-0.9998 0.0208 -0.0166 -0.7998 248.8769 148.1393)" gradientUnits="userSpaceOnUse" class="svga-on-canvas-eyesfront-gradient-right-3"><stop id="SvgjsStop3804" stop-opacity="1" stop-color="#e7c1bd" offset="0" ></stop><stop id="SvgjsStop3805" stop-opacity="0.3" stop-color="#e7c1bd" offset="0.7" ></stop><stop id="SvgjsStop3806" stop-opacity="0" stop-color="#f6e4e2" offset="1" ></stop></radialGradient><radialGradient id="SvgjsRadialGradient3808" cx="122.636" cy="100.958" r="25.824" gradientTransform="matrix(0.8746 -0.4848 0.3636 0.656 -21.3328 94.1879)" gradientUnits="userSpaceOnUse" class="svga-on-canvas-eyesfront-gradient-right-4"><stop id="SvgjsStop3809" stop-opacity="0" stop-color="#000000" offset="0.94" ></stop><stop id="SvgjsStop3810" stop-opacity="0.2" stop-color="#000000" offset="1" ></stop></radialGradient></defs><g id="svga-group-wrapper"><g id="svga-group-backs-single"><path id="SvgjsPath3843" d="M225 225H-25V-25h250V225z" fill="#ecf0f1" stroke-width="none" opacity="1"></path><path id="SvgjsPath3844" d="M100 85c-8.284 0-15 6.716-15 15s6.716 15 15 15 15-6.716 15-15S108.284 85 100 85zM100 110c-5.522 0-10-4.478-10-10s4.478-10 10-10 10 4.478 10 10S105.522 110 100 110zM100 70c-16.568 0-30 13.432-30 30s13.432 30 30 30 30-13.432 30-30S116.568 70 100 70zM100 125c-13.807 0-25-11.193-25-25s11.193-25 25-25 25 11.193 25 25S113.807 125 100 125zM100 55c-24.853 0-45 20.147-45 45s20.147 45 45 45 45-20.147 45-45S124.853 55 100 55zM100 140c-22.091 0-40-17.909-40-40s17.909-40 40-40 40 17.909 40 40S122.091 140 100 140zM100 40c-33.137 0-60 26.863-60 60s26.863 60 60 60 60-26.863 60-60S133.137 40 100 40zM100 155c-30.375 0-55-24.625-55-55s24.625-55 55-55 55 24.625 55 55S130.375 155 100 155zM100 25c-41.421 0-75 33.579-75 75s33.579 75 75 75 75-33.579 75-75S141.421 25 100 25zM100 170c-38.658 0-70-31.342-70-70s31.342-70 70-70 70 31.342 70 70S138.658 170 100 170zM100 10c-49.705 0-90 40.295-90 90s40.295 90 90 90 90-40.295 90-90S149.705 10 100 10zM100 184.999c-46.943 0-85-38.057-85-84.999s38.057-85.001 85-85.001S185 53.058 185 100 146.943 184.999 100 184.999zM100-5C42.011-5-5 42.011-5 100s47.011 105 105 105 105-47.011 105-105S157.989-5 100-5zM100 199.998C44.772 199.998 0 155.226 0 100 0 44.773 44.772-0.001 100-0.001S200 44.773 200 100C200 155.226 155.228 199.998 100 199.998zM100-35C25.442-35-35 25.442-35 100s60.442 135 135 135 135-60.442 135-135S174.558-35 100-35zM100 229.998c-71.795 0-130-58.205-130-129.998 0-71.795 58.205-130.002 130-130.002 71.794 0 130 58.207 130 130.002C230 171.793 171.794 229.998 100 229.998zM100-20C33.727-20-20 33.727-20 100s53.727 120 120 120 120-53.727 120-120S166.273-20 100-20zM100 214.998C36.489 214.998-15 163.51-15 100c0-63.511 51.489-115.002 115-115.002S215 36.489 215 100C215 163.51 163.511 214.998 100 214.998z" fill="#c6dce2" stroke-width="none" opacity="1"></path></g><g id="svga-group-humanwrap-move" transform="matrix(1,0,0,1,0,0)"><g id="svga-group-humanwrap" transform="matrix(0.8499995000000001,0,0,0.8499995000000001,14.979301542071454,16.705895701544748)"><g id="svga-group-hair-back-move" transform="matrix(1,0,0,1,0,0)"><g id="svga-group-hair-back" transform="matrix(1,0,0,1,0,0)"><path id="SvgjsPath3491" d="M100.5,100.5h-1v-1h1V100.5z" fill="#2a232b" stroke-width="none" opacity="1"></path></g></g><g id="svga-group-humanbody-single"><path id="SvgjsPath3288" d="M195.417 199.778c-2.196-4.746-8.195-11.779-14.86-13.722 -8.239-2.403-26.837-5.308-33.733-6.923 -5.528-1.296-16.662-11.294-20.564-14.65 -0.7-0.6-1.273-1.839-1.287-2.76 -0.139-10.864 4.195-39.724 4.195-39.724H100 70.833c0 0 4.334 28.859 4.193 39.724 -0.011 0.921-0.587 2.16-1.285 2.76 -3.902 3.356-15.036 13.354-20.564 14.65 -6.897 1.615-25.495 4.619-33.733 7.022 -6.667 1.942-12.664 8.876-14.86 13.622 -3.708 8.008-4.584 22.5-4.584 35h100 100C200 222.278 199.123 207.786 195.417 199.778z" fill="#f6e4e2" stroke-width="none" opacity="1" stroke="none"></path><path id="SvgjsPath3289" d="M159.156 184.058c24.342 3.542 34.586 8.708 37.794 50.721H200c0-12.5-0.877-26.992-4.583-35 -2.196-4.746-8.195-11.779-14.86-13.722 -8.239-2.403-26.837-5.308-33.733-6.923 -5.528-1.296-18.242-12.069-21.643-16.35 3.36 4.704 12.791 15.605 21.054 18.46C150.188 182.61 153.48 183.232 159.156 184.058zM53.766 181.244c8.263-2.854 17.693-13.756 21.054-18.46 -3.4 4.28-16.114 15.054-21.643 16.35 -6.896 1.615-25.494 4.619-33.733 7.022 -6.665 1.942-12.664 8.876-14.86 13.622 -3.706 8.008-4.583 22.5-4.583 35h3.05c3.188-41.744 13.475-47.183 37.794-50.721C46.52 183.232 49.813 182.61 53.766 181.244z" fill="#ffffff" stroke-width="none" opacity="1" stroke="none"></path><path id="SvgjsPath3290" d="M95.646 197.62c0 0-5.074-1.609-7.083-2.379 -10.449-4.009-44.395-6.607-44.395-6.607s35.754 1.419 43.644 2.779c-0.458-4.767-3.017-20.004-3.017-20.004s5.149 16.815 6.409 21.057C91.878 194.734 95.646 197.62 95.646 197.62zM106.445 196.278c-0.089 0.073-0.191 0.168-0.302 0.268C106.256 196.461 106.358 196.372 106.445 196.278zM95.646 197.62c0 0 2.893 2.992 4.347 3.03 1.91 0.051 4.828-2.899 6.151-4.104 -1.265 0.957-4.159 1.391-5.31 1.436C99.504 198.033 95.646 197.62 95.646 197.62zM116.664 190.101c-1.545 0.248-4.386 0.789-4.386 0.789l2.287-14.89c-0.646 3.071-4.474 16.211-8.12 20.278 1.91-1.616 6.158-2.391 8.324-2.704 10.236-1.484 10.232-1.483 41.062-4.94C155.831 188.634 126.76 188.479 116.664 190.101z" fill="#e7c1bd" stroke-width="none" opacity="1" stroke="none"></path><path id="SvgjsPath3291" d="M195.417 199.778c-2.196-4.746-8.195-11.779-14.86-13.722 -8.239-2.403-26.837-5.308-33.733-6.923 -5.528-1.296-16.662-11.294-20.564-14.65 -0.7-0.6-1.273-1.839-1.287-2.76 -0.139-10.864 4.195-39.724 4.195-39.724H100 70.833c0 0 4.334 28.859 4.193 39.724 -0.011 0.921-0.587 2.16-1.285 2.76 -3.902 3.356-15.036 13.354-20.564 14.65 -6.897 1.615-25.495 4.619-33.733 7.022 -6.667 1.942-12.664 8.876-14.86 13.622 -3.708 8.008-4.584 22.5-4.584 35h100 100C200 222.278 199.123 207.786 195.417 199.778z" fill="none" stroke="#c8837c" stroke-width="1.5" opacity="1"></path></g><g id="svga-group-chinshadow-single"><path id="SvgjsPath3445" d="M100.002 170.866c14.133 0 19-4.815 24.219-9.24 -0.068-6.741 1.494-19.936 2.735-29.278 -15.658-2.196-38.256-2.195-53.914 0 1.241 9.342 2.802 22.531 2.733 29.272C80.999 166.047 85.863 170.866 100.002 170.866z" fill="url(#SvgjsLinearGradient3446)" opacity="1"></path></g><g id="svga-group-clothes-single"><path id="SvgjsPath3816" d="M83.208 235.787c-42.755 0-73.116-0.341-83.557-0.936 -3.228-41.46 17.049-50.314 25.922-52.197 5.111-1.218 9.139-1.593 12.692-1.923 8.462-0.786 15.16-1.409 30.099-12.227 0.523 0.666 1.8 2.359 4.153 5.55 6.948 9.244 17.385 14.505 28.689 14.505 0.001 0 0.002 0 0.004 0 12.805-0.002 24.814-6.654 33.019-18.271 15.056 9.254 18.229 9.549 25.801 10.25 2.497 0.231 5.604 0.52 9.799 1.21 11.838 1.591 20.825 8.087 26.003 18.786 4.405 9.103 6.021 21.193 4.56 34.087 -11.646 0.646-63.764 1.166-117.175 1.166C83.212 235.787 83.211 235.787 83.208 235.787z" fill="#f3f1f4" stroke-width="none" opacity="1"></path><path id="SvgjsPath3817" d="M170.909 182.255c-16.76-2.76-17.282-1.24-36.82-12.64 -16.477 23.799-46.336 23.876-61.12 4.21 -0.313-0.425-4.146-5.627-4.52-6 -21.537 15.697-25.967 10.671-43.18 14.539 -17.198 3.865-28.875 17.4-26.11 52.611 0.01 0.12 0.01 0.229 0.03 0.35 26.152 1.595 181.717 0.986 201.65-0.229C202.268 210.162 200.249 187.03 170.909 182.255zM-0.331 234.966c-0.458-22.065 2.924-46.19 26.26-50.9 17.291-3.49 21.274 1.1 42.39-15.7 1.11 1.66 2.4 3.72 3.84 5.98 13.218 20.3 44.471 23.502 62.05-4 1.851 1.43 4.03 3.02 6.47 4.59 23.186 15.306 60.738-4.709 59.65 59.89C134.92 233.624 65.973 233.646-0.331 234.966z" fill="#cfc8d7" stroke-width="none" opacity="1"></path><path id="SvgjsPath3818" d="M107.44 237.709c-2.775 0-10.727 0.208-16.512-0.23l-0.01-0.171c-0.818-18.658 1.129-30.719 4.537-39.288l0.048-0.123 -0.093-0.093c-0.905-0.904-2.425-1.935-4.034-3.025 -1.611-1.093-3.275-2.221-4.336-3.246 0.625-0.732 1.395-1.454 2.348-2.201 0.245-0.125 1.162-0.843 5.974-4.971 0.214-0.184 0.345-0.296 0.362-0.31 0.818-0.178 2.138-0.293 3.738-0.293 2.183 0 4.731 0.221 6.512 0.563 1.561 1.458 3.451 5.329 4.158 7.17 -0.976 2.291-2.128 3.129-3.717 4.284 -0.774 0.563-1.652 1.201-2.652 2.112l-0.083 0.075 0.021 0.111c4.026 20.31 4.027 25.054 4.027 29.642 0.001 2.021 0.001 6.609 0.339 9.985C107.917 237.707 107.704 237.709 107.44 237.709z" fill="#131111" stroke-width="none" opacity="1"></path><path id="SvgjsPath3819" d="M110.35 191.495c-0.754-1.995-2.71-5.93-4.28-7.359 -2.876-0.563-7.983-0.843-10.47-0.24 -0.108 0.088-6.248 5.383-6.31 5.26 -0.906 0.708-1.788 1.504-2.52 2.39 2.061 2.076 6.655 4.556 8.5 6.4 -3.65 9.18-5.33 21.59-4.55 39.38 0.01 0.11 0.01 0.23 0.02 0.34 6.756 0.52 16.55 0.331 17.55 0.223 -1.16-11.307 1.438-10.455-4.39-39.853C106.968 195.241 108.865 195.04 110.35 191.495zM105.1 210.535c-0.021-0.05-0.04-0.1-0.051-0.13 2 10.55 1.38 18.632 2.891 26.972 -4.736-0.318-12.014-0.052-16.771-0.052 0.369-7.198 1.188-31.684 4.74-39.74 0.17-0.046 0.339-0.084 0.509-0.125l-1.032 34.736 2.747-35.066c0.02-0.002 0.04-0.005 0.06-0.008l1.801 32.605 0.417-32.734c0.026 0.001 0.051-0.001 0.077 0l4.199 36.355 -2.3-36.137c0.314 0.063 0.629 0.141 0.942 0.233 0.03 0 0.07 0.01 0.1 0.03C103.533 198.476 104.365 205.876 105.1 210.535zM104.219 196.726c-2.774-1.251-6.363-1.026-9.129 0.24 -1.681-1.813-4.08-3.077-7.53-5.391 0.55-0.479 1.26-1.07 2.21-1.81 0.08 0 3.48-2.771 3.54-2.83 0.92-0.84 1.74-1.79 2.52-2.62 2.93-0.12 7.23 0.02 9.82 0.14 1.5 1.876 2.931 4.696 4.01 6.94C107.699 194.266 105.759 195.545 104.219 196.726z" fill="#000000" stroke-width="none" opacity="1"></path><path id="SvgjsPath3820" d="M78.196 213.077c-11.534-40.071-9.954-27.403-13.027-43.143 2.028-4.813 7.587-12.618 8.67-13.775l0.08-0.086c2.292 24.007 8.958 13.636 23.784 27.722C89.228 189.449 81.372 204.127 78.196 213.077zM135.364 170.3c-1.448-3.702-8.248-11.669-9.386-12.873 1.424 20.678-15.146 16.551-24.35 26.2 8.812 5.713 17.173 20.66 20.172 29.455C134.653 176.403 132.021 191.215 135.364 170.3z" fill="#f3f1f4" stroke-width="none" opacity="1"></path><path id="SvgjsPath3821" d="M125.801 156.967c0 5.137-0.42 9.162-1.262 10.339 -2.443 5.809-13.103 9.853-16.39 11.51 -2.495 1.227-4.942 2.809-6.83 4.85 3.813 2.476 5.705 3.383 12.93 14.44 4.246 7.109 6.539 12.448 7.561 15.64 12.922-35.152 10.657-23.062 13.793-43.507C134.018 166.153 126.801 157.885 125.801 156.967zM121.709 210.676c-2.716-8.644-11.075-22.913-19.43-27.091 3.937-2.957 5.031-3.131 9.729-5.279 14.396-6.42 14.985-12.385 14.138-20.271 1.207 1.423 7.328 8.664 8.896 12.023C131.034 193.116 126.945 192.299 121.709 210.676zM79.199 171.896c-4.408-3.649-3.16-8.162-5.189-16.215 -0.902 1-7.741 8.882-10.016 14.305 7.125 24.375 7.375 22.5 14.185 43.75 3.031-8.905 11.558-24.37 20.24-30.009C91.489 177.401 82.765 174.999 79.199 171.896zM84.659 197.405c-2.221 3.666-4.517 7.48-6.37 13.28 -1.17-7.95-11.17-32.296-12.92-40.95 1.638-3.588 7.771-12.451 8.521-13.165 1.366 7.078 0.066 13.462 5.669 16.995 2.621 1.996 11.104 5.32 17.52 10.36C93.188 186.235 91.094 187.596 84.659 197.405z" fill="#cfc8d7" stroke-width="none" opacity="1"></path><path id="SvgjsPath3822" d="M49.857 234.908c-8.87 0-16.864-0.137-23.156-0.396 -0.07-0.556-0.155-1.27-0.257-2.121 -1.053-8.829-3.834-32.147-9.695-47.528 9.497-3.835 25.02-6.691 36.643-8.118 7.833 16.249 26.729 42.336 39.987 57.234 -14.945 0.607-29.971 0.929-43.519 0.929C49.86 234.908 49.859 234.908 49.857 234.908zM150.143 234.908c8.87 0 16.863-0.137 23.156-0.396 0.07-0.556 0.154-1.27 0.256-2.121 1.054-8.829 3.835-32.147 9.695-47.528 -9.497-3.835-25.02-6.691-36.643-8.118 -7.833 16.249-26.729 42.336-39.987 57.234 14.945 0.607 29.971 0.929 43.519 0.929C150.141 234.908 150.141 234.908 150.143 234.908z" fill="#39557e" stroke-width="none" opacity="1" stroke="none"></path><path id="SvgjsPath3823" d="M32.153 211.959l-10.48-12.96 2.43-16.078 9.723 12.804L32.153 211.959zM47.384 192.569l-11.591-12.686 -1.968 15.841 11.61 12.397L47.384 192.569zM58.817 188.148l-11.708-10.331 0.275 14.752 12.322 11.557L58.817 188.148zM42.32 223.673l-10.167-11.714 -5.018 15.35 11.118 12.987L42.32 223.673zM58.107 219.842l-12.671-11.72 -3.116 15.551 14.234 11.113L58.107 219.842zM73.379 213.533l-13.673-9.407 -1.599 15.716 14.288 11.107L73.379 213.533zM166.174 195.725l9.724-12.804 2.43 16.078 -10.48 12.96L166.174 195.725zM154.564 208.122l11.609-12.397 -1.967-15.841 -11.592 12.686L154.564 208.122zM140.294 204.126l12.321-11.557 0.275-14.752 -11.708 10.331L140.294 204.126zM161.746 240.296l11.119-12.987 -5.019-15.35 -10.167 11.714L161.746 240.296zM143.445 234.786l14.234-11.113 -3.115-15.551 -12.672 11.72L143.445 234.786zM127.605 230.949l14.287-11.107 -1.599-15.716 -13.673 9.407L127.605 230.949z" fill="#4e688d" stroke-width="none" opacity="1" stroke="none"></path><path id="SvgjsPath3824" d="M53.689 176.205c-10.802 1.308-27.48 4.184-37.58 8.38 0 0.011 0.01 0.021 0.01 0.03 6.68 17.19 9.418 44.907 10.14 50.38 13.662 0.58 38.444 0.678 68.2-0.56C81.652 220.216 61.683 192.972 53.689 176.205zM26.929 234.266c0-8.767-2.644-33.854-9.81-49.33 14.354-4.252 24.106-5.545 36.1-7.931 8.677 20.651 22.083 40.424 38.45 56.45C70.854 232.966 47.735 233.228 26.929 234.266zM105.541 234.436c29.756 1.237 54.538 1.14 68.199 0.56 0.723-5.473 3.461-33.189 10.141-50.38 0-0.01 0.01-0.02 0.01-0.03 -10.1-4.196-26.777-7.072-37.58-8.38C138.317 192.972 118.348 220.216 105.541 234.436zM108.331 233.455c16.367-16.026 29.772-35.799 38.45-56.45 11.993 2.386 21.746 3.679 36.1 7.931 -7.166 15.477-9.811 40.563-9.811 49.33C152.266 233.228 129.146 232.966 108.331 233.455z" fill="#0c2850" stroke-width="none" opacity="1" stroke="none"></path></g><g id="svga-group-head" transform="matrix(1,0,0,1,0,0)"><g id="svga-group-ears-left-move" transform="matrix(1,0,0,1,0,0)"><g id="svga-group-ears-left" transform="matrix(1,0,0,1,0,0)"><path id="SvgjsPath3426" d="M45.671 84.344c-1.485-2.462-6.327-9.199-10.031-8.254 -3.012 0.772-2.973 4.971-3.206 7.455 -0.34 3.644-0.464 9.992 0.525 12.568 0.951 2.473 3.96 7.252 5.828 9.075 2.299 2.235 5.97 9.358 6.422 10.097 0.711 1.168 2.137 2.84 4.325 2.708 3.071-0.185 5.724-3.087 5.965-4.485C56.8 105.918 49.536 90.75 45.671 84.344z" fill="#f6e4e2" stroke="#c8837c" stroke-width="1.5" opacity="1"></path><path id="SvgjsPath3427" d="M44.2 99.341c-0.143-0.563 0.007-1.513 0.154-2.429 0.133-0.835 0.258-1.624 0.182-2.182 -0.289-2.09-1.915-6.06-2.976-8.212 -1.223-2.476-3.199-5.595-5.679-6.399 -1.024-0.333-1.699 0.065-2.089 0.468 -0.288 0.296-0.353 0.645-0.259 0.687 0.095 0.041 0.307-0.248 0.617-0.519 0.254-0.222-0.508-0.04 0 0 -0.205 1.04-0.865 6.302-0.41 10.143 0.358 3.022 1.05 5.279 1.263 5.617 0.031 0.356 0.083 0.705 0.16 1.043 1.002 4.41 7.518 10.177 9.034 11.82 0.28 0.303 0.574 0.483 0.646 0.409s-0.101-0.373-0.379-0.678c-1.498-1.632-7.971-7.381-8.939-11.635 -1.027-4.514 3.912-11.207 4.699-12.623 0.401 0.665 0.742 1.303 1.004 1.835 0.207 0.417 0.434 0.906 0.67 1.435 -0.463 0.738-5.118 6.127-3.934 10.441 0.438 1.591 3.822 3.642 5.131 4.203 0.72 0.31 0.99 0.772 1.304 1.306 0.364 0.624 0.033 2.229 1.23 2.739 0.244 0.104 0.464 0.146 0.659 0.146 0.338 0 0.594-0.13 0.783-0.284 0.02 0.271 0.019 0.619 0.009 0.941 -0.012 0.418 0.047 0.609 0.148 0.617 0.103 0.009 0.21-0.174 0.223-0.587 0.017-0.51 0.014-1.141-0.077-1.444 -0.269-0.889-1.088-1.894-1.957-2.957C44.563 102.197 44.422 100.213 44.2 99.341zM34.969 95.432c-2.348-6.923 1.283-13.229 1.81-14.179 1.012 0.399 2.562 2.193 3.221 3.235C39.52 85.321 35.067 90.775 34.969 95.432zM45.772 106.464c-1.084-0.462-0.706-1.984-1.056-2.584 -0.318-0.542-0.646-1.102-1.479-1.46 -0.18-0.078-0.379-0.196-0.583-0.332 -2.682-6.075 0.293-8.73 1.039-9.273 0.229 0.742 0.399 1.423 0.476 1.97 0.068 0.5-0.059 1.298-0.181 2.068 -0.153 0.955-0.31 1.944-0.147 2.584 0.244 0.953 0.411 2.97 1.291 4.048 0.781 0.956 1.583 1.942 1.857 2.746C46.871 106.391 46.5 106.775 45.772 106.464z" fill="#c8837c" stroke-width="none" opacity="1" stroke="none"></path></g></g><g id="svga-group-ears-right-move" transform="matrix(1,0,0,1,0,0)"><g id="svga-group-ears-right" transform="matrix(1,0,0,1,0,0)"><path id="SvgjsPath3428" d="M154.066 84.344c1.486-2.462 6.328-9.199 10.031-8.254 3.012 0.772 2.973 4.971 3.207 7.455 0.34 3.644 0.463 9.992-0.525 12.568 -0.951 2.473-3.961 7.252-5.828 9.075 -2.299 2.235-5.971 9.358-6.422 10.097 -0.711 1.168-2.137 2.84-4.326 2.708 -3.07-0.185-5.723-3.087-5.965-4.485C142.938 105.918 150.203 90.75 154.066 84.344z" fill="#f6e4e2" stroke="#c8837c" stroke-width="1.5" opacity="1"></path><path id="SvgjsPath3429" d="M154.322 103.243c-0.869 1.063-1.688 2.068-1.957 2.957 -0.092 0.304-0.094 0.935-0.078 1.444 0.014 0.413 0.121 0.596 0.225 0.587 0.102-0.008 0.16-0.199 0.148-0.617 -0.01-0.322-0.012-0.67 0.008-0.941 0.189 0.154 0.445 0.284 0.783 0.284 0.195 0 0.416-0.042 0.66-0.146 1.195-0.511 0.865-2.116 1.229-2.739 0.314-0.534 0.584-0.997 1.305-1.306 1.309-0.561 4.693-2.611 5.131-4.203 1.184-4.314-3.471-9.704-3.934-10.441 0.234-0.529 0.463-1.018 0.668-1.435 0.264-0.532 0.604-1.171 1.006-1.835 0.787 1.416 5.725 8.108 4.699 12.623 -0.969 4.254-7.441 10.003-8.939 11.635 -0.279 0.305-0.453 0.604-0.381 0.678 0.074 0.074 0.367-0.106 0.646-0.409 1.516-1.643 8.031-7.41 9.033-11.82 0.078-0.338 0.131-0.687 0.162-1.043 0.211-0.337 0.904-2.594 1.262-5.617 0.455-3.841-0.205-9.103-0.41-10.143 0.508-0.04-0.254-0.222 0 0 0.311 0.271 0.523 0.56 0.617 0.519 0.094-0.042 0.029-0.39-0.258-0.687 -0.391-0.403-1.066-0.801-2.09-0.468 -2.48 0.804-4.457 3.923-5.68 6.399 -1.061 2.152-2.686 6.122-2.975 8.212 -0.076 0.558 0.049 1.347 0.182 2.182 0.146 0.916 0.297 1.866 0.154 2.429C155.316 100.213 155.176 102.197 154.322 103.243zM159.738 84.488c0.66-1.042 2.209-2.835 3.221-3.235 0.527 0.95 4.158 7.256 1.811 14.179C164.672 90.775 160.219 85.321 159.738 84.488zM152.75 106.229c0.273-0.804 1.076-1.79 1.857-2.746 0.879-1.078 1.047-3.095 1.291-4.048 0.162-0.64 0.006-1.629-0.146-2.584 -0.123-0.77-0.25-1.568-0.182-2.068 0.076-0.547 0.246-1.228 0.475-1.97 0.746 0.543 3.721 3.199 1.039 9.273 -0.203 0.136-0.402 0.254-0.584 0.332 -0.832 0.358-1.16 0.918-1.479 1.46 -0.35 0.6 0.029 2.123-1.055 2.584C153.238 106.775 152.867 106.391 152.75 106.229z" fill="#c8837c" stroke-width="none" opacity="1" stroke="none"></path></g></g><g id="svga-group-faceshape-wrap" transform="matrix(1,0,0,1,0,0)"><g id="svga-group-faceshape-single"><path id="SvgjsPath3442" d="M100.002 0.867C66.384 0.921 39.082 28.71 39.134 62.948c0.008 5.438 0.704 10.709 2.002 15.733h0.001c0.012 0.054 11.542 38.834 14.02 51.571 1.382 7.104 9.796 13.505 17.265 18.729 6.967 4.876 10.529 11.885 27.58 11.885s20.613-7.009 27.58-11.885c7.468-5.225 15.883-11.625 17.265-18.729 2.479-12.737 14.009-51.518 14.02-51.571h0.002c1.298-5.023 1.994-10.295 2.002-15.733C160.923 28.71 133.62 0.921 100.002 0.867z" fill="#f6e4e2" stroke-width="none" opacity="1" stroke="none"></path><path id="SvgjsPath3443" d="M146.772 23.236c7.478 10.415 11.917 23.391 11.898 37.461 -0.009 5.438-0.679 10.709-1.93 15.733h-0.002c-0.011 0.054-11.124 38.833-13.512 51.572 -1.335 7.104-9.471 13.505-16.668 18.729 -6.718 4.875-10.121 11.886-26.557 11.886 -16.434 0-19.842-7.011-26.557-11.886 -7.197-5.225-15.335-11.625-16.665-18.729C54.39 115.264 43.277 76.484 43.266 76.43h0c-1.252-5.023-1.922-10.295-1.931-15.733C41.314 46.631 45.75 33.66 53.224 23.247 44.412 34.011 39.111 47.85 39.134 62.948c0.008 5.438 0.704 10.709 2.002 15.733h0.001c0.012 0.054 11.542 38.834 14.02 51.571 1.382 7.104 9.796 13.505 17.265 18.729 6.967 4.876 10.529 11.885 27.58 11.885s20.613-7.009 27.58-11.885c7.468-5.225 15.883-11.625 17.265-18.729 2.479-12.737 14.009-51.518 14.02-51.571h0.002c1.298-5.023 1.994-10.295 2.002-15.733C160.894 47.846 155.589 34.002 146.772 23.236z" fill="#eed2cf" stroke-width="none" opacity="1" stroke="none"></path><path id="SvgjsPath3444" d="M100.002 0.867C66.384 0.921 39.082 28.71 39.134 62.948c0.008 5.438 0.704 10.709 2.002 15.733h0.001c0.012 0.054 11.542 38.834 14.02 51.571 1.382 7.104 9.796 13.505 17.265 18.729 6.967 4.876 10.529 11.885 27.58 11.885s20.613-7.009 27.58-11.885c7.468-5.225 15.883-11.625 17.265-18.729 2.479-12.737 14.009-51.518 14.02-51.571h0.002c1.298-5.023 1.994-10.295 2.002-15.733C160.923 28.71 133.62 0.921 100.002 0.867z" fill="none" stroke="#c8837c" stroke-width="1.5" opacity="1"></path></g></g><g id="svga-group-mouth-single-move" transform="matrix(1,0,0,1,0,0)"><g id="svga-group-mouth-single" transform="matrix(1,0,0,1,0,0)"><path id="SvgjsPath3418" d="M96.227 139.237l8.297-0.207C103.563 143.5 96.884 142.858 96.227 139.237z" fill="url(#SvgjsLinearGradient3419)" opacity="1"></path><path id="SvgjsPath3422" d="M96.343 139.52c-0.371-0.05-0.315-0.579 0.08-0.542 0.043 0.006 4.308 0.546 7.878-0.215 0.386-0.075 0.5 0.455 0.13 0.534C101.634 139.895 98.015 139.755 96.343 139.52zM100.083 135.95c-1.503 0-2.96-0.521-4.424-0.776 -1.64-0.287-3.274-0.041-4.915 0.104 -1.676 0.149-5.333-0.013-6.365-0.666 -0.578-0.367-0.47-1.221 0.181-1.449 0.614-0.22 1.571 0.236 2.191 0.347 2.872 0.515 4.384-0.034 6.902-0.118 3.851-0.116 4.26 1.501 9.064 0.53 5.165-1.044 7.491-0.254 11.197-1.37 0.508-0.154 1.112-0.56 1.645-0.286 0.615 0.318 0.585 1.185-0.049 1.464 -3.406 1.502-7.174 0.895-10.955 1.526C103.073 135.502 101.596 135.95 100.083 135.95z" fill="#c8837c" stroke-width="none" opacity="1" stroke="none"></path></g></g><g id="svga-group-eyes-left-move" transform="matrix(1,0,0,1,0,0)"><g id="svga-group-eyes-left" transform="matrix(1,0,0,1,0,0)"><g id="svga-group-eyesback-left"><path id="SvgjsPath3755" d="M60.942 83.152c-0.216 2.76 1.682 6.038 12.492 6.964 9.553 0.818 13.62-0.758 13.903-3.902s-3.407-6.987-12.88-7.482C66.026 78.292 61.188 80.005 60.942 83.152z" fill="url(#SvgjsRadialGradient3756)" opacity="1"></path></g><g id="svga-group-eyesiriswrapper-left" transform="matrix(1,0,0,1,0.5,0.25)"><g id="svga-group-eyesiriscontrol-left" transform="matrix(1,0,0,1,0,0)"><g id="svga-group-eyesiris-left" transform="matrix(1,0,0,1,0,0)"><path id="SvgjsPath3368" d="M80 84c0 3.313-2.687 6-6 6 -3.313 0-6-2.687-6-6l0 0c0-3.314 2.687-6 6-6C77.313 77.999 80 80.686 80 84L80 84z" fill="#4e60a3" stroke-width="none" opacity="1"></path><path id="SvgjsPath3369" d="M73.328 78.066c-0.023 0.003-0.047 0.006-0.071 0.009 0.029 0.135 0.057 0.271 0.085 0.406C73.336 78.344 73.333 78.204 73.328 78.066zM73.341 78.48c0.07 1.972 0.185 3.729 0.517 4.364C74.033 82.148 73.735 80.414 73.341 78.48zM73.859 82.845c-0.043 0.167-0.108 0.281-0.208 0.319 -0.1 0.038-0.226-0.006-0.368-0.103 0.041 0.167 0.037 0.297-0.036 0.378 -0.072 0.081-0.201 0.101-0.373 0.078 0.113 0.13 0.171 0.249 0.146 0.353 -0.027 0.104-0.134 0.182-0.293 0.242 0.159 0.063 0.266 0.141 0.291 0.245 0.025 0.104-0.033 0.223-0.145 0.352 0.17-0.021 0.301 0.001 0.371 0.082 0.071 0.081 0.075 0.212 0.035 0.379 0.141-0.097 0.265-0.139 0.365-0.1 0.101 0.038 0.166 0.152 0.206 0.32 0.081-0.152 0.171-0.249 0.28-0.26 0.104-0.014 0.216 0.059 0.329 0.188 0.001-0.172 0.037-0.299 0.127-0.36 0.088-0.061 0.219-0.049 0.379 0.013 -0.078-0.152-0.105-0.281-0.055-0.377 0.05-0.095 0.173-0.146 0.344-0.166 -0.141-0.099-0.227-0.2-0.225-0.308 0-0.108 0.084-0.209 0.227-0.306 -0.17-0.021-0.291-0.072-0.342-0.167 -0.049-0.095-0.022-0.225 0.058-0.377 -0.162 0.06-0.292 0.072-0.38 0.011 -0.089-0.061-0.125-0.188-0.125-0.36 -0.112 0.128-0.224 0.199-0.33 0.185C74.029 83.092 73.938 82.998 73.859 82.845zM74.466 82.92c0.479-0.535 1.021-2.209 1.57-4.104C75.182 80.593 74.467 82.202 74.466 82.92zM76.035 78.816c0.06-0.122 0.121-0.246 0.178-0.37 -0.021-0.007-0.042-0.017-0.063-0.026C76.112 78.553 76.074 78.686 76.035 78.816zM74.972 83.27c0.672-0.252 1.931-1.483 3.297-2.905C76.688 81.541 75.306 82.634 74.972 83.27zM78.269 80.365c0.1-0.075 0.203-0.15 0.305-0.225 -0.014-0.018-0.03-0.033-0.042-0.049C78.445 80.181 78.358 80.274 78.269 80.365zM75.254 83.814c0.713 0.088 2.4-0.417 4.272-1.041C77.578 83.081 75.848 83.406 75.254 83.814zM79.526 82.774c0.11-0.016 0.225-0.034 0.337-0.052 -0.004-0.019-0.009-0.038-0.014-0.057C79.742 82.701 79.632 82.738 79.526 82.774zM75.253 84.427c0.59 0.412 2.318 0.747 4.262 1.063C77.65 84.857 75.967 84.342 75.253 84.427zM79.516 85.49c0.095 0.033 0.191 0.067 0.285 0.098 0.005-0.017 0.009-0.033 0.012-0.05C79.716 85.523 79.615 85.507 79.516 85.49zM74.965 84.97c0.333 0.637 1.708 1.738 3.282 2.924C76.888 86.464 75.638 85.226 74.965 84.97zM78.248 87.892c0.059 0.062 0.12 0.126 0.179 0.189 0.01-0.012 0.019-0.021 0.03-0.032C78.387 87.997 78.315 87.944 78.248 87.892zM74.46 85.317c-0.003 0.719 0.703 2.331 1.547 4.113C75.468 87.533 74.937 85.855 74.46 85.317zM76.007 89.431c0.021 0.075 0.043 0.152 0.063 0.229 0.015-0.006 0.025-0.01 0.039-0.014C76.076 89.574 76.041 89.5 76.007 89.431zM73.851 85.389c-0.336 0.637-0.461 2.39-0.542 4.361C73.713 87.82 74.022 86.087 73.851 85.389zM73.309 89.75c-0.017 0.075-0.031 0.151-0.047 0.228 0.014 0.003 0.025 0.003 0.039 0.005C73.303 89.906 73.307 89.826 73.309 89.75zM73.28 85.169c-0.596 0.407-1.521 1.904-2.508 3.61C72.026 87.259 73.106 85.867 73.28 85.169zM70.772 88.779c-0.053 0.063-0.108 0.13-0.162 0.193 0.013 0.008 0.024 0.014 0.038 0.024C70.688 88.924 70.731 88.851 70.772 88.779zM72.875 84.71c-0.716 0.083-2.231 0.978-3.898 2.029C70.795 85.977 72.395 85.248 72.875 84.71zM68.976 86.741c-0.086 0.036-0.174 0.072-0.263 0.11 0.006 0.013 0.015 0.027 0.023 0.04C68.817 86.842 68.897 86.791 68.976 86.741zM72.728 84.113c-0.671-0.257-2.429-0.168-4.395-0.011C70.297 84.27 72.055 84.367 72.728 84.113zM68.333 84.102c-0.107-0.01-0.217-0.02-0.323-0.029 0 0.019-0.002 0.038 0 0.056C68.119 84.119 68.228 84.11 68.333 84.102zM72.875 83.519c-0.473-0.539-2.069-1.277-3.881-2.051C70.653 82.528 72.163 83.432 72.875 83.519zM68.994 81.468c-0.104-0.067-0.209-0.134-0.315-0.201 -0.009 0.019-0.019 0.038-0.029 0.055C68.766 81.371 68.882 81.419 68.994 81.468zM73.284 83.061c-0.169-0.698-1.241-2.094-2.485-3.623C71.775 81.15 72.692 82.651 73.284 83.061zM70.799 79.438c-0.067-0.115-0.132-0.232-0.199-0.349 -0.019 0.013-0.039 0.026-0.056 0.039C70.628 79.231 70.716 79.335 70.799 79.438z" fill="url(#SvgjsRadialGradient3370)" opacity="0.7"></path><path id="SvgjsPath3373" d="M74.886 78.086c-0.024-0.003-0.047-0.007-0.07-0.01 -0.007 0.138-0.016 0.277-0.024 0.414C74.822 78.356 74.855 78.22 74.886 78.086zM74.791 78.489c-0.442 1.922-0.787 3.649-0.629 4.35C74.511 82.211 74.671 80.459 74.791 78.489zM74.161 82.839c-0.084 0.15-0.176 0.243-0.283 0.254 -0.106 0.01-0.216-0.064-0.327-0.195 -0.004 0.171-0.042 0.297-0.133 0.356 -0.09 0.059-0.221 0.045-0.38-0.021 0.076 0.155 0.101 0.285 0.049 0.378 -0.053 0.094-0.176 0.142-0.345 0.158 0.137 0.101 0.22 0.204 0.217 0.312 -0.002 0.107-0.089 0.207-0.231 0.302 0.169 0.024 0.29 0.079 0.337 0.174 0.048 0.096 0.018 0.225-0.064 0.375 0.161-0.057 0.292-0.065 0.379-0.002 0.087 0.063 0.12 0.19 0.116 0.363 0.117-0.125 0.229-0.196 0.337-0.179 0.105 0.014 0.194 0.113 0.27 0.268 0.045-0.167 0.113-0.279 0.216-0.315 0.101-0.036 0.225 0.01 0.363 0.111 -0.036-0.167-0.029-0.299 0.044-0.378 0.073-0.079 0.205-0.096 0.376-0.072 -0.111-0.132-0.168-0.251-0.138-0.355 0.028-0.104 0.136-0.18 0.299-0.237 -0.16-0.064-0.263-0.145-0.288-0.25 -0.023-0.105 0.037-0.223 0.154-0.349 -0.172 0.016-0.301-0.006-0.37-0.088 -0.07-0.082-0.072-0.214-0.028-0.379 -0.142 0.094-0.268 0.134-0.367 0.093C74.261 83.122 74.199 83.007 74.161 82.839zM74.729 83.07c0.601-0.394 1.557-1.871 2.578-3.558C76.022 81.007 74.916 82.375 74.729 83.07zM77.307 79.511c0.089-0.102 0.18-0.206 0.268-0.311 -0.019-0.013-0.036-0.028-0.055-0.042C77.449 79.277 77.378 79.396 77.307 79.511zM75.127 83.538c0.715-0.07 2.25-0.934 3.937-1.953C77.231 82.312 75.614 83.01 75.127 83.538zM79.063 81.584c0.117-0.046 0.235-0.092 0.354-0.138 -0.01-0.021-0.021-0.04-0.028-0.059C79.281 81.453 79.173 81.52 79.063 81.584zM75.259 84.137c0.666 0.27 2.426 0.218 4.395 0.101C77.693 84.03 75.938 83.896 75.259 84.137zM79.654 84.237c0.112 0.013 0.226 0.025 0.339 0.037 0-0.02 0.001-0.039 0.002-0.058C79.881 84.223 79.766 84.23 79.654 84.237zM75.1 84.729c0.462 0.551 2.046 1.321 3.842 2.129C77.303 85.763 75.811 84.831 75.1 84.729zM78.941 86.858c0.083 0.057 0.167 0.114 0.25 0.168 0.009-0.015 0.017-0.03 0.025-0.045C79.126 86.942 79.032 86.9 78.941 86.858zM74.68 85.179c0.156 0.701 1.2 2.12 2.414 3.674C76.151 87.119 75.264 85.599 74.68 85.179zM77.094 88.85c0.042 0.075 0.083 0.153 0.125 0.229 0.012-0.009 0.024-0.016 0.037-0.024C77.202 88.987 77.147 88.917 77.094 88.85zM74.103 85.383c-0.188 0.693 0.076 2.433 0.43 4.373C74.502 87.784 74.424 86.026 74.103 85.383zM74.532 89.756c0.001 0.078 0.003 0.158 0.003 0.238 0.014-0.002 0.027-0.004 0.041-0.004C74.562 89.913 74.547 89.833 74.532 89.756zM73.496 85.294c-0.49 0.528-1.064 2.189-1.652 4.072C72.733 87.607 73.481 86.013 73.496 85.294zM71.843 89.366c-0.035 0.068-0.07 0.138-0.104 0.208 0.012 0.006 0.023 0.009 0.036 0.015C71.797 89.516 71.821 89.439 71.843 89.366zM73 84.934c-0.68 0.239-1.962 1.446-3.357 2.838C71.25 86.628 72.652 85.563 73 84.934zM69.644 87.772c-0.067 0.047-0.137 0.098-0.205 0.145 0.01 0.011 0.02 0.02 0.029 0.032C69.525 87.89 69.585 87.832 69.644 87.772zM72.728 84.385c-0.713-0.104-2.407 0.368-4.291 0.952C70.392 85.071 72.125 84.781 72.728 84.385zM68.437 85.339c-0.092 0.013-0.187 0.024-0.283 0.039 0.003 0.015 0.008 0.03 0.013 0.044C68.258 85.396 68.348 85.366 68.437 85.339zM72.741 83.772c-0.582-0.423-2.303-0.792-4.242-1.149C70.353 83.294 72.025 83.843 72.741 83.772zM68.499 82.623c-0.101-0.037-0.205-0.075-0.305-0.112 -0.005 0.019-0.011 0.037-0.015 0.054C68.288 82.584 68.395 82.604 68.499 82.623zM73.038 83.235c-0.318-0.643-1.668-1.769-3.219-2.986C71.147 81.704 72.372 82.968 73.038 83.235zM69.818 80.25c-0.083-0.091-0.167-0.183-0.251-0.275 -0.014 0.016-0.029 0.031-0.042 0.046C69.624 80.097 69.723 80.173 69.818 80.25zM73.551 82.899c0.017-0.718-0.656-2.344-1.464-4.142C72.587 80.663 73.085 82.35 73.551 82.899zM72.087 78.757c-0.034-0.128-0.067-0.259-0.101-0.389 -0.021 0.007-0.043 0.015-0.063 0.023C71.977 78.513 72.033 78.636 72.087 78.757z" fill="url(#SvgjsRadialGradient3374)" opacity="0.4"></path><path id="SvgjsPath3377" d="M76.354 84c0 1.3-1.053 2.353-2.353 2.353 -1.299 0-2.354-1.053-2.354-2.353 0-1.299 1.055-2.354 2.354-2.354C75.301 81.646 76.354 82.7 76.354 84z" fill="#4e60a3" stroke-width="none" opacity="1"></path><path id="SvgjsPath3378" d="M76.354 84c0 1.3-1.053 2.353-2.353 2.353 -1.299 0-2.354-1.053-2.354-2.353 0-1.299 1.055-2.354 2.354-2.354C75.301 81.646 76.354 82.7 76.354 84z" fill="#000000" stroke-width="none" opacity="0.9"></path><path id="SvgjsPath3379" d="M70.717 86.748c0.449-0.302 1.059-0.18 1.36 0.268 0.301 0.449 0.182 1.059-0.268 1.36 -0.45 0.303-1.059 0.183-1.36-0.267C70.148 87.66 70.268 87.049 70.717 86.748L70.717 86.748z" fill="url(#SvgjsLinearGradient3380)" opacity="0.5"></path><path id="SvgjsPath3383" d="M75.86 83.672c-0.251 0.374-0.969 0.331-1.606-0.096 -0.638-0.427-0.95-1.078-0.7-1.451l0-0.001c0.25-0.374 0.969-0.331 1.605 0.097C75.798 82.647 76.11 83.297 75.86 83.672 75.86 83.672 75.86 83.672 75.86 83.672z" fill="url(#SvgjsLinearGradient3384)" opacity="0.5"></path><path id="SvgjsPath3387" d="M78.716 82.673c-0.568 0.873-2.036 0.925-3.275 0.117 -1.24-0.808-1.784-2.17-1.215-3.043 0.568-0.872 2.036-0.924 3.275-0.117C78.74 80.439 79.284 81.802 78.716 82.673L78.716 82.673z" fill="url(#SvgjsLinearGradient3388)" opacity="0.75"></path></g></g></g><g id="svga-group-eyesfront-left"><path id="SvgjsPath3780" d="M55.772 86.694c1.203 13.754 10.653 24.163 21.106 23.249 10.453-0.915 17.952-12.807 16.749-26.561 -1.203-13.754-10.653-24.164-21.106-23.249C62.067 61.048 54.569 72.94 55.772 86.694zM60.942 83.152c0.246-3.146 5.084-4.86 13.516-4.419 9.473 0.495 13.163 4.338 12.88 7.482s-4.351 4.72-13.903 3.902C62.624 89.19 60.726 85.912 60.942 83.152z" fill="#f6e4e2" stroke-width="none" opacity="1" stroke="none"></path><path id="SvgjsPath3781" d="M57.798 85.194c0.596 7.711 10.263 13.338 19.882 12.458 9.616-0.885 17.535-6.722 16.834-14.425 -0.697-7.699-9.053-13.224-18.673-12.342C66.221 71.771 56.98 74.647 57.798 85.194zM60.942 83.152c0.246-3.146 5.084-4.86 13.516-4.419 9.473 0.495 13.163 4.338 12.88 7.482s-4.351 4.72-13.903 3.902C62.624 89.19 60.726 85.912 60.942 83.152z" fill="url(#SvgjsRadialGradient3782)" opacity="1"></path><path id="SvgjsPath3786" d="M60.942 83.152c-0.216 2.76 1.682 6.038 12.492 6.964 9.553 0.818 13.62-0.758 13.903-3.902s-3.407-6.987-12.88-7.482C66.026 78.292 61.188 80.005 60.942 83.152z" fill="url(#SvgjsRadialGradient3787)" opacity="1"></path><path id="SvgjsPath3790" d="M85.569 79.486c-1.025-0.673-3.285-1.602-3.285-1.602s2.571 0.588 3.59 1.279 2.082 2.366 2.082 2.366S86.594 80.159 85.569 79.486zM67.02 77.131c0 0-2.657-0.034-4.546 1.136 -1.734 1.074-2.448 2.685-2.448 2.685s1.649-1.725 2.813-2.501C63.927 77.725 67.02 77.131 67.02 77.131z" fill="#c8837c" stroke-width="none" opacity="1" stroke="none"></path><path id="SvgjsPath3791" d="M74.758 78.929c-6.156-0.216-15.613 0.376-13.409 6.209 -3.203-1.934-0.741-8.81 13.992-7.583 7.137 0.594 15.623 4.275 11.685 9.764C88.273 81.582 80.8 79.142 74.758 78.929zM85.623 89.012l-3.021 0.956c-5.294 0.085-8.251-0.28-13.196-0.504 -2.279-0.104-4.328-1.226-6.996-2.467 1.537 1.698 4.094 3.061 6.943 3.226 4.789 0.278 8.032 0.342 13.408 0.382L85.623 89.012z" fill="#000000" stroke-width="none" opacity="1" stroke="none"></path></g></g></g><g id="svga-group-eyes-right-move" transform="matrix(1,0,0,1,0,0)"><g id="svga-group-eyes-right" transform="matrix(1,0,0,1,0,0)"><g id="svga-group-eyesback-right"><path id="SvgjsPath3763" d="M139.059 83.152c0.216 2.76-1.682 6.038-12.492 6.964 -9.553 0.818-13.62-0.758-13.903-3.902s3.407-6.987 12.88-7.482C133.975 78.292 138.813 80.005 139.059 83.152z" fill="url(#SvgjsRadialGradient3764)" opacity="1"></path></g><g id="svga-group-eyesiriswrapper-right" transform="matrix(1,0,0,1,-0.5,0.25)"><g id="svga-group-eyesiriscontrol-right" transform="matrix(1,0,0,1,0,0)"><g id="svga-group-eyesiris-right" transform="matrix(1,0,0,1,0,0)"><path id="SvgjsPath3391" d="M132 84c0 3.313-2.687 6-5.999 6 -3.313 0-6.001-2.687-6.001-6l0 0c0-3.314 2.688-6 6.001-6C129.313 77.999 132 80.686 132 84L132 84z" fill="#4e60a3" stroke-width="none" opacity="1"></path><path id="SvgjsPath3392" d="M125.328 78.066c-0.023 0.003-0.047 0.006-0.071 0.009 0.029 0.135 0.058 0.271 0.085 0.406C125.336 78.344 125.333 78.204 125.328 78.066zM125.341 78.48c0.069 1.972 0.185 3.729 0.518 4.364C126.033 82.148 125.735 80.414 125.341 78.48zM125.858 82.845c-0.042 0.167-0.108 0.281-0.207 0.319 -0.101 0.038-0.226-0.006-0.367-0.103 0.04 0.167 0.036 0.297-0.036 0.378 -0.072 0.081-0.201 0.101-0.372 0.078 0.112 0.13 0.171 0.249 0.146 0.353 -0.028 0.104-0.134 0.182-0.293 0.242 0.158 0.063 0.265 0.141 0.29 0.245 0.025 0.104-0.032 0.223-0.145 0.352 0.17-0.021 0.3 0.001 0.37 0.082 0.071 0.081 0.075 0.212 0.035 0.379 0.141-0.097 0.266-0.139 0.365-0.1 0.102 0.038 0.166 0.152 0.206 0.32 0.08-0.152 0.172-0.249 0.279-0.26 0.105-0.014 0.217 0.059 0.329 0.188 0.002-0.172 0.037-0.299 0.128-0.36 0.087-0.061 0.219-0.049 0.379 0.013 -0.078-0.152-0.104-0.281-0.056-0.377 0.051-0.095 0.174-0.146 0.345-0.166 -0.141-0.099-0.228-0.2-0.225-0.308 -0.001-0.108 0.084-0.209 0.227-0.306 -0.171-0.021-0.291-0.072-0.342-0.167 -0.05-0.095-0.022-0.225 0.057-0.377 -0.161 0.06-0.291 0.072-0.38 0.011s-0.124-0.188-0.125-0.36c-0.111 0.128-0.224 0.199-0.33 0.185C126.029 83.092 125.938 82.998 125.858 82.845zM126.466 82.92c0.479-0.535 1.021-2.209 1.569-4.104C127.182 80.593 126.468 82.202 126.466 82.92zM128.035 78.816c0.06-0.122 0.121-0.246 0.179-0.37 -0.021-0.007-0.042-0.017-0.063-0.026C128.112 78.553 128.074 78.686 128.035 78.816zM126.972 83.27c0.673-0.252 1.932-1.483 3.298-2.905C128.688 81.541 127.307 82.634 126.972 83.27zM130.27 80.365c0.1-0.075 0.202-0.15 0.305-0.225 -0.015-0.018-0.03-0.033-0.042-0.049C130.445 80.181 130.358 80.274 130.27 80.365zM127.255 83.814c0.713 0.088 2.399-0.417 4.271-1.041C129.578 83.081 127.848 83.406 127.255 83.814zM131.526 82.774c0.11-0.016 0.225-0.034 0.337-0.052 -0.005-0.019-0.009-0.038-0.014-0.057C131.742 82.701 131.632 82.738 131.526 82.774zM127.253 84.427c0.591 0.412 2.318 0.747 4.263 1.063C129.65 84.857 127.967 84.342 127.253 84.427zM131.516 85.49c0.095 0.033 0.19 0.067 0.285 0.098 0.005-0.017 0.009-0.033 0.013-0.05C131.716 85.523 131.614 85.507 131.516 85.49zM126.965 84.97c0.332 0.637 1.708 1.738 3.282 2.924C128.889 86.464 127.638 85.226 126.965 84.97zM130.248 87.892c0.059 0.062 0.119 0.126 0.178 0.189 0.01-0.012 0.02-0.021 0.031-0.032C130.387 87.997 130.315 87.944 130.248 87.892zM126.461 85.317c-0.003 0.719 0.702 2.331 1.547 4.113C127.468 87.533 126.937 85.855 126.461 85.317zM128.008 89.431c0.021 0.075 0.043 0.152 0.063 0.229 0.015-0.006 0.026-0.01 0.039-0.014C128.076 89.574 128.041 89.5 128.008 89.431zM125.851 85.389c-0.336 0.637-0.461 2.39-0.542 4.361C125.713 87.82 126.022 86.087 125.851 85.389zM125.309 89.75c-0.017 0.075-0.031 0.151-0.047 0.228 0.014 0.003 0.024 0.003 0.039 0.005C125.303 89.906 125.307 89.826 125.309 89.75zM125.279 85.169c-0.596 0.407-1.521 1.904-2.508 3.61C124.026 87.259 125.105 85.867 125.279 85.169zM122.771 88.779c-0.052 0.063-0.107 0.13-0.161 0.193 0.013 0.008 0.024 0.014 0.037 0.024C122.688 88.924 122.731 88.851 122.771 88.779zM124.874 84.71c-0.716 0.083-2.23 0.978-3.897 2.029C122.795 85.977 124.395 85.248 124.874 84.71zM120.977 86.741c-0.087 0.036-0.175 0.072-0.263 0.11 0.006 0.013 0.014 0.027 0.023 0.04C120.817 86.842 120.897 86.791 120.977 86.741zM124.729 84.113c-0.672-0.257-2.43-0.168-4.396-0.011C122.298 84.27 124.055 84.367 124.729 84.113zM120.333 84.102c-0.106-0.01-0.217-0.02-0.322-0.029 -0.001 0.019-0.003 0.038-0.001 0.056C120.119 84.119 120.228 84.11 120.333 84.102zM124.876 83.519c-0.474-0.539-2.069-1.277-3.882-2.051C122.653 82.528 124.163 83.432 124.876 83.519zM120.994 81.468c-0.104-0.067-0.21-0.134-0.315-0.201 -0.009 0.019-0.019 0.038-0.028 0.055C120.766 81.371 120.883 81.419 120.994 81.468zM125.284 83.061c-0.169-0.698-1.241-2.094-2.485-3.623C123.775 81.15 124.692 82.651 125.284 83.061zM122.799 79.438c-0.067-0.115-0.133-0.232-0.198-0.349 -0.019 0.013-0.039 0.026-0.057 0.039C122.629 79.231 122.716 79.335 122.799 79.438z" fill="url(#SvgjsRadialGradient3393)" opacity="0.7"></path><path id="SvgjsPath3396" d="M126.886 78.086c-0.024-0.003-0.047-0.007-0.07-0.01 -0.008 0.138-0.016 0.277-0.024 0.414C126.821 78.356 126.854 78.22 126.886 78.086zM126.791 78.489c-0.443 1.922-0.787 3.649-0.63 4.35C126.511 82.211 126.671 80.459 126.791 78.489zM126.161 82.839c-0.084 0.15-0.177 0.243-0.283 0.254 -0.106 0.01-0.216-0.064-0.327-0.195 -0.004 0.171-0.042 0.297-0.133 0.356 -0.09 0.059-0.221 0.045-0.38-0.021 0.075 0.155 0.101 0.285 0.049 0.378 -0.054 0.094-0.176 0.142-0.346 0.158 0.138 0.101 0.22 0.204 0.217 0.312 -0.002 0.107-0.089 0.207-0.23 0.302 0.17 0.024 0.289 0.079 0.337 0.174 0.048 0.096 0.018 0.225-0.064 0.375 0.162-0.057 0.293-0.065 0.38-0.002 0.087 0.063 0.12 0.19 0.115 0.363 0.117-0.125 0.229-0.196 0.337-0.179 0.105 0.014 0.194 0.113 0.27 0.268 0.046-0.167 0.113-0.279 0.216-0.315 0.101-0.036 0.226 0.01 0.363 0.111 -0.035-0.167-0.028-0.299 0.045-0.378 0.072-0.079 0.204-0.096 0.375-0.072 -0.11-0.132-0.168-0.251-0.138-0.355 0.027-0.104 0.136-0.18 0.299-0.237 -0.159-0.064-0.263-0.145-0.288-0.25 -0.022-0.105 0.038-0.223 0.154-0.349 -0.172 0.016-0.302-0.006-0.37-0.088 -0.07-0.082-0.072-0.214-0.027-0.379 -0.143 0.094-0.269 0.134-0.368 0.093C126.262 83.122 126.198 83.007 126.161 82.839zM126.729 83.07c0.601-0.394 1.557-1.871 2.578-3.558C128.022 81.007 126.916 82.375 126.729 83.07zM129.307 79.511c0.089-0.102 0.18-0.206 0.269-0.311 -0.02-0.013-0.037-0.028-0.056-0.042C129.449 79.277 129.378 79.396 129.307 79.511zM127.127 83.538c0.715-0.07 2.249-0.934 3.937-1.953C129.231 82.312 127.614 83.01 127.127 83.538zM131.063 81.584c0.116-0.046 0.234-0.092 0.354-0.138 -0.01-0.021-0.021-0.04-0.028-0.059C131.281 81.453 131.173 81.52 131.063 81.584zM127.259 84.137c0.666 0.27 2.426 0.218 4.396 0.101C129.692 84.03 127.938 83.896 127.259 84.137zM131.654 84.237c0.111 0.013 0.226 0.025 0.339 0.037 0.001-0.02 0.001-0.039 0.002-0.058C131.882 84.223 131.766 84.23 131.654 84.237zM127.1 84.729c0.463 0.551 2.046 1.321 3.842 2.129C129.303 85.763 127.811 84.831 127.1 84.729zM130.941 86.858c0.082 0.057 0.167 0.114 0.25 0.168 0.009-0.015 0.018-0.03 0.024-0.045C131.126 86.942 131.032 86.9 130.941 86.858zM126.681 85.179c0.155 0.701 1.199 2.12 2.413 3.674C128.151 87.119 127.265 85.599 126.681 85.179zM129.095 88.85c0.041 0.075 0.082 0.153 0.124 0.229 0.012-0.009 0.023-0.016 0.037-0.024C129.202 88.987 129.146 88.917 129.095 88.85zM126.103 85.383c-0.188 0.693 0.076 2.433 0.43 4.373C126.502 87.784 126.424 86.026 126.103 85.383zM126.532 89.756c0.001 0.078 0.003 0.158 0.003 0.238 0.015-0.002 0.026-0.004 0.04-0.004C126.562 89.913 126.547 89.833 126.532 89.756zM125.495 85.294c-0.489 0.528-1.064 2.189-1.652 4.072C124.733 87.607 125.48 86.013 125.495 85.294zM123.843 89.366c-0.035 0.068-0.069 0.138-0.104 0.208 0.012 0.006 0.022 0.009 0.035 0.015C123.797 89.516 123.821 89.439 123.843 89.366zM125 84.934c-0.68 0.239-1.961 1.446-3.356 2.838C123.25 86.628 124.652 85.563 125 84.934zM121.644 87.772c-0.067 0.047-0.138 0.098-0.205 0.145 0.01 0.011 0.02 0.02 0.029 0.032C121.525 87.89 121.586 87.832 121.644 87.772zM124.728 84.385c-0.713-0.104-2.406 0.368-4.29 0.952C122.392 85.071 124.126 84.781 124.728 84.385zM120.438 85.339c-0.093 0.013-0.188 0.024-0.283 0.039 0.004 0.015 0.008 0.03 0.013 0.044C120.258 85.396 120.348 85.366 120.438 85.339zM124.741 83.772c-0.582-0.423-2.303-0.792-4.242-1.149C122.353 83.294 124.025 83.843 124.741 83.772zM120.499 82.623c-0.101-0.037-0.205-0.075-0.305-0.112 -0.006 0.019-0.011 0.037-0.015 0.054C120.287 82.584 120.395 82.604 120.499 82.623zM125.038 83.235c-0.318-0.643-1.669-1.769-3.22-2.986C123.147 81.704 124.372 82.968 125.038 83.235zM121.818 80.25c-0.083-0.091-0.167-0.183-0.251-0.275 -0.015 0.016-0.028 0.031-0.043 0.046C121.623 80.097 121.724 80.173 121.818 80.25zM125.551 82.899c0.017-0.718-0.656-2.344-1.464-4.142C124.588 80.663 125.085 82.35 125.551 82.899zM124.087 78.757c-0.034-0.128-0.067-0.259-0.102-0.389 -0.021 0.007-0.043 0.015-0.063 0.023C123.977 78.513 124.033 78.636 124.087 78.757z" fill="url(#SvgjsRadialGradient3397)" opacity="0.4"></path><path id="SvgjsPath3400" d="M128.354 84c0 1.3-1.054 2.353-2.353 2.353 -1.3 0-2.354-1.053-2.354-2.353 0-1.299 1.055-2.354 2.354-2.354C127.302 81.646 128.354 82.7 128.354 84z" fill="#4e60a3" stroke-width="none" opacity="1"></path><path id="SvgjsPath3401" d="M128.354 84c0 1.3-1.054 2.353-2.353 2.353 -1.3 0-2.354-1.053-2.354-2.353 0-1.299 1.055-2.354 2.354-2.354C127.302 81.646 128.354 82.7 128.354 84z" fill="#000000" stroke-width="none" opacity="0.9"></path><path id="SvgjsPath3402" d="M122.718 86.748c0.448-0.302 1.059-0.18 1.359 0.268 0.302 0.449 0.183 1.059-0.268 1.36 -0.45 0.303-1.059 0.183-1.359-0.267C122.148 87.66 122.268 87.049 122.718 86.748L122.718 86.748z" fill="url(#SvgjsLinearGradient3403)" opacity="0.5"></path><path id="SvgjsPath3406" d="M127.859 83.672c-0.251 0.374-0.969 0.331-1.605-0.096 -0.638-0.427-0.95-1.078-0.7-1.451l0.001-0.001c0.25-0.374 0.969-0.331 1.605 0.097C127.798 82.647 128.11 83.297 127.859 83.672 127.859 83.672 127.859 83.672 127.859 83.672z" fill="url(#SvgjsLinearGradient3407)" opacity="0.5"></path><path id="SvgjsPath3410" d="M130.717 82.673c-0.569 0.873-2.036 0.925-3.276 0.117 -1.239-0.808-1.784-2.17-1.215-3.043 0.568-0.872 2.035-0.924 3.275-0.117C130.74 80.439 131.284 81.802 130.717 82.673L130.717 82.673z" fill="url(#SvgjsLinearGradient3411)" opacity="0.75"></path></g></g></g><g id="svga-group-eyesfront-right"><path id="SvgjsPath3801" d="M127.479 60.133c-10.453-0.915-19.903 9.495-21.106 23.249 -1.203 13.754 6.296 25.646 16.749 26.561 10.453 0.914 19.903-9.495 21.106-23.249C145.432 72.94 137.934 61.048 127.479 60.133zM126.566 90.116c-9.553 0.818-13.62-0.758-13.903-3.902s3.407-6.987 12.88-7.482c8.432-0.44 13.27 1.273 13.516 4.419C139.274 85.912 137.377 89.19 126.566 90.116z" fill="#f6e4e2" stroke-width="none" opacity="1" stroke="none"></path><path id="SvgjsPath3802" d="M124.159 70.885c-9.62-0.882-17.976 4.643-18.673 12.342 -0.701 7.703 7.218 13.54 16.834 14.425 9.619 0.88 19.286-4.747 19.882-12.458C143.021 74.647 133.779 71.771 124.159 70.885zM126.566 90.116c-9.553 0.818-13.62-0.758-13.903-3.902s3.407-6.987 12.88-7.482c8.432-0.44 13.27 1.273 13.516 4.419C139.274 85.912 137.377 89.19 126.566 90.116z" fill="url(#SvgjsRadialGradient3803)" opacity="1"></path><path id="SvgjsPath3807" d="M139.059 83.152c0.216 2.76-1.682 6.038-12.492 6.964 -9.553 0.818-13.62-0.758-13.903-3.902s3.407-6.987 12.88-7.482C133.975 78.292 138.813 80.005 139.059 83.152z" fill="url(#SvgjsRadialGradient3808)" opacity="1"></path><path id="SvgjsPath3811" d="M112.045 81.529c0 0 1.063-1.675 2.082-2.366s3.59-1.279 3.59-1.279 -2.26 0.929-3.285 1.602S112.045 81.529 112.045 81.529zM137.161 78.451c1.164 0.776 2.813 2.501 2.813 2.501s-0.714-1.61-2.448-2.685c-1.889-1.169-4.546-1.136-4.546-1.136S136.073 77.725 137.161 78.451z" fill="#c8837c" stroke-width="none" opacity="1" stroke="none"></path><path id="SvgjsPath3812" d="M112.975 87.32c-3.938-5.489 4.548-9.17 11.685-9.764 14.733-1.227 17.195 5.648 13.992 7.583 2.204-5.833-7.253-6.425-13.409-6.209C119.2 79.142 111.728 81.582 112.975 87.32zM117.239 90.604c5.376-0.04 8.619-0.104 13.408-0.382 2.85-0.165 5.406-1.528 6.943-3.226 -2.668 1.241-4.717 2.363-6.996 2.467 -4.945 0.225-7.902 0.589-13.196 0.504l-3.021-0.956L117.239 90.604z" fill="#000000" stroke-width="none" opacity="1" stroke="none"></path></g></g></g><g id="svga-group-facehighlight-single"><path id="SvgjsPath3280" d="M141 113.974c0.035 22.622-18.292 40.994-40.938 41.025 -22.642 0.037-41.028-18.273-41.063-40.9 -0.035-22.62 18.292-41.064 40.937-41.1C122.579 72.964 140.967 91.349 141 113.974z" fill="url(#SvgjsRadialGradient3281)" opacity="1"></path><path id="SvgjsPath3284" d="M137.5 53.999c0 20.711-16.789 37.5-37.499 37.5 -20.711 0-37.501-16.789-37.501-37.5s16.79-37.5 37.501-37.5C120.711 16.499 137.5 33.288 137.5 53.999z" fill="url(#SvgjsRadialGradient3285)" opacity="1"></path></g><g id="svga-group-eyebrows-left-move" transform="matrix(1,0,0,1,0,0)"><g id="svga-group-eyebrows-left-rotate" transform="matrix(1,0,0,1,0,0)"><g id="svga-group-eyebrows-left" transform="matrix(1,0,0,1,0,0)"><path id="SvgjsPath3813" d="M52.488 73.87c7.475-9.383 20.338-7.822 30.878-6.314 2.681 0.384 5.441 0.672 8.07 1.336 1.884 0.475 3.365 2.622 1.851 4.356 -0.708 0.825-2.253 0.672-3.207 0.652C77.459 73.645 63.193 66.387 52.488 73.87z" fill="#2a232b" stroke-width="none" opacity="1"></path></g></g></g><g id="svga-group-eyebrows-right-move" transform="matrix(1,0,0,1,0,0)"><g id="svga-group-eyebrows-right-rotate" transform="matrix(1,0,0,1,0,0)"><g id="svga-group-eyebrows-right" transform="matrix(1,0,0,1,0,0)"><path id="SvgjsPath3814" d="M147.577 73.49c-2.164-1.448-4.454-2.47-7.043-2.889 -9.497-1.54-27.586 4.79-32.341 3.45 -2.912-0.822-2.323-3.739-1.035-4.458 0.775-0.433 0.99-0.422 7.909-1.612C126.824 65.961 139.988 64.355 147.577 73.49z" fill="#2a232b" stroke-width="none" opacity="1"></path></g></g></g><g id="svga-group-nose-single-move" transform="matrix(1,0,0,1,0,0)"><g id="svga-group-nose-single" transform="matrix(1,0,0,1,0,0)"><path id="SvgjsPath3578" d="M109.895 118.829c0.19-0.512 0.307-1.047 0.396-1.584 0.033-0.198-0.229-0.929-0.252-0.697 -0.101 0.941-0.612 2.262-1.6 2.551 -1.133 0.329-1.783-0.056-1.886-1.172 -0.104-1.125 0.297-2.619-0.109-3.665 -0.264-0.676-0.856-1.226-1.464-1.606 0.458 2.04 0.823 4.704-1.128 6.164 0.167 0.199 0.319 0.293 0.467 0.333 -0.153 0.026-0.308 0.059-0.467 0.13 -0.771 0.352-3.586 1.015-4.404 0.657 -0.193-0.085-0.622-0.152-1.16-0.204 -0.362-0.315-1.023-1.138-1.332-1.328 -1.215-0.751-1.851-2.069-1.926-3.472 -0.163-2.955 1.373-6.245 4.861-7.528 -3.578-1.004-4.064 4.863-6.408 6.172 -1.402 0.783-2.741 1.479-2.716 3.229 0.008 0.579 0.078 1.419 0.34 2.122 -0.421-0.591-0.699-1.125-0.739-0.653 -0.342 3.979 3.522 2.884 5.042 3.158 1.255 0.227 3.412 0.544 4.459 0.563 1.137 0.02 2.858-0.377 3.981-0.563 1.087-0.181 2.985 0.037 4.381-0.59 0.824-0.371 2.006-0.612 2.006-2.211l-0.402 0.326C109.855 118.916 109.878 118.874 109.895 118.829z" fill="#e7c1bd" stroke-width="none" opacity="1"></path><path id="SvgjsPath3579" d="M90.642 116.322c0.15-0.48 0.371-0.961 0.73-1.324 -0.631 1.095-0.719 2.661-0.152 3.799 0.697 1.399 1.94 1.104 3.131 0.563 1.191-0.54 1.188-0.938 2.426-0.526 0.963 0.319 1.737 0.795 2.797 0.793 1.132-0.002 1.977-0.471 3.03-0.798 1.278-0.38 2.357-0.162 3.559 0.378 1.13 0.509 2.426 1.15 3.301-0.117 0.773-1.148 0.69-2.922 0.017-4.092 1.51 1.542 1.145 5.938-1.745 5.384 -0.397-0.08-1.098-0.563-1.451-0.469 -0.64 0.175-1.445 0.007-2.091-0.054 -1.175-0.112-2.195-0.108-3.312 0.174 -0.429 0.1-0.869 0.158-1.309 0.154 -0.525-0.007-1.057-0.268-1.556-0.237 -1.4 0.086-1.984-0.214-3.39-0.124 -1.197 0.077-1.955 1.13-3.142 0.177C90.436 119.125 90.275 117.566 90.642 116.322 90.719 116.078 90.497 116.814 90.642 116.322zM101.211 107.662c0.557 0.115 1.063 0.367 1.531 0.684 -1.391-2.209-4.931-1.408-6.339 0.345C97.843 107.926 99.562 107.296 101.211 107.662 101.478 107.719 100.678 107.543 101.211 107.662z" fill="#c8837c" stroke-width="none" opacity="1"></path><path id="SvgjsPath3580" d="M93.079 117.678c-0.216-1.586 0.406-3.049-0.995-1.972C91.214 116.375 93.418 120.168 93.079 117.678z" fill="#ffffff" stroke-width="none" opacity="1"></path></g></g><g id="svga-group-beardwrap" transform="matrix(1,0,0,1,0,0)"><g id="svga-group-beard-single-move" transform="matrix(1,0,0,1,0,0)"><g id="svga-group-beard-single" transform="matrix(1,0,0,1,0,0)"><path id="SvgjsPath3531" d="M72.42 160.26c-5.81-3.72-13.18-11.11-15.9-14.77 -7.66-9.79-4.66-17.95-8.53-35.15 -1.98-7.5-5.26-18.5-5.66-21.25 0.92 0.14 5.78 0.8 6.6 0.93 1.2 9.39 11.79 16.08 13.6 35.39 1.59 12.14 7.59 18.02 17.41 24.08 4.16 2.58 12.18 6.78 14.08 2.24 1.54-3.67-1.1-11.12 5.3-12.33 1.33-0.24 4.18 0.28 5.27 2.75 1.75 3.96-0.91 11.56 4.76 11.56 5.88 0 16.02-7.55 18.85-10.16 11.11-9.12 7.48-20.17 12.58-32.27 5.89-13.04 7.72-11.36 10.27-21.27 0.69-0.07 5.9-0.83 6.6-0.92 -4.17 16.98-7.48 25.21-7.92 35.96 -0.79 15.97-5.59 21-16.37 30.85 -6.03 5.19-13.51 10.32-32.37 11.08C95.57 167.34 80.1 165.31 72.42 160.26z" fill="#2a232b" stroke-width="none" opacity="1"></path><path id="SvgjsPath3532" d="M95.38 142.31c0.62-1.45 1.76-2.59 3.93-3 1.36-0.24 4.28 0.3 5.38 2.81 0.04 0.08 0.06 0.17 0.09 0.25C103.09 143.86 100.5 152.4 95.38 142.31zM141 142c-8.07 14.34-22.56 22.25-38.44 22.3 -1.25 0.07-3.54 0.1-5.11 0C81.56 164.25 67.07 156.34 59 142c-9.23-13.84-7.39-31.09-14.91-45.45 1.19 4.32 2.7 9.59 3.81 13.82 3.87 17.19 0.87 25.38 8.55 35.19 2.81 3.78 10.16 11.1 15.92 14.79 7.31 4.8 21.46 6.87 27.63 6.78 6.17 0.09 20.33-1.97 27.63-6.78 5.76-3.69 13.11-11.01 15.92-14.79 7.68-9.81 4.68-18 8.55-35.19 1.11-4.23 2.62-9.5 3.81-13.82C148.39 110.91 150.23 128.16 141 142z" fill="#1b141c" stroke-width="none" opacity="1"></path><path id="SvgjsPath3533" d="M150.98 89.93c-2.55 9.97-4.37 8.25-10.28 21.33 -5.13 12.16-1.46 23.13-12.56 32.24 -2.78 2.56-14.58 11.41-20.12 9.97 -3.83-1.42-1.7-7.65-3.33-11.34 -1.1-2.51-4.02-3.05-5.38-2.81 -6.46 1.22-3.85 8.77-5.37 12.39 -1.87 4.45-9.86 0.24-13.94-2.29 -10.08-6.22-15.82-12.25-17.36-24.01 -1.82-19.41-12.46-26.06-13.61-35.47 -0.1-0.02-6.7-0.92-6.81-0.96 0.31 2.51 3.65 13.7 5.68 21.39 3.87 17.19 0.87 25.38 8.55 35.19 2.81 3.78 10.16 11.1 15.92 14.79 7.74 5.09 23.16 7.11 28.64 6.74 18.77-0.76 26.34-5.87 32.43-11.11 10.96-10.02 15.62-15.01 16.4-30.92 0.44-10.78 3.73-18.87 7.95-36.08C157.74 88.98 151.22 89.93 150.98 89.93zM148.16 124.87c-1.33 16.05-4.59 19.53-15.46 29.44 -7.73 6.67-15.89 10.48-32.74 11.68 -7.52-0.57-20.89-3.02-27.2-7.45 -6.56-4.44-13.32-11.94-15.07-14.32 -7.22-9.27-3.76-17.8-8.36-34.18 -3.01-9.46-4.51-12.5-6.94-20.78 1 0.14 3.37 0.62 6.56 0.93 1.35 10.67 10.52 15.97 12.17 35.34 0.35 2.32 0.77 6.86 4.03 12.27 1.66 2.8 3.82 5.3 5.7 6.85 5.59 5.16 24.18 17.39 24.44 4.11 0.04-3.62-0.46-8.59 4.72-9.35 8.73 1.24 1.26 13.05 7.76 15.11 6.22 1.75 27.12-8.89 30.41-24.98 1.7-6.03-0.87-10.33 8.5-28.01 2.48-4.5 3.69-6.57 4.38-11.34 1.23-0.12 5.73-0.7 6.56-0.94C153.92 101.69 148.85 113.11 148.16 124.87z" fill="#000000" stroke-width="none" opacity="1"></path></g></g></g><g id="svga-group-mustache-single-move" transform="matrix(1,0,0,1,0,0)"><g id="svga-group-mustache-single" transform="matrix(1,0,0,1,0,0)"><path id="SvgjsPath3544" d="M76.83 146.84c1.35-6.96-3.57-7.77-1.81-18.87 0.14-0.99 0.58-3.13 1-4.39 1.45-3.71 12.75-5.15 15.81-4.94 3.35 0.27 5.64 1.82 8.17 4.04 4.77-4.14 7.57-5.2 17.33-2.83 6.47 1.67 6.87 2.85 7.65 8.13 1.71 11.21-3.09 11.66-1.84 18.97 -0.8 0.73-1.71 1.16-2.62 1.16l0 0c-0.88 0-1.68-0.41-2.31-1.18 -1.49-1.82-1.83-5.38-0.95-9.76 1.51-8.16 0.2-4.03-11.16-6.37 -2.44-0.53-4.39-1.26-6.1-3.08 -2.77 2.94-6.58 3.27-11.86 3.89 -0.57 0.07-1.17 0.1-1.83 0.1 -3.47 0-4.82-0.83-3.56 5.46 0.63 3.24 1 6.57-0.47 8.98C80.65 148.8 78.36 148.59 76.83 146.84z" fill="#2a232b" stroke-width="none" opacity="1"></path><path id="SvgjsPath3545" d="M123.24 146.93c-3.3 3.26-8.13 0.36-6.08-9.79 1.49-8.04 0.31-3.91-11.08-6.25 -2.41-0.53-4.41-1.26-6.08-3.03 -2.77 2.92-6.87 3.26-11.85 3.84 -4.81 0.55-6.74-1.74-5.3 5.44 0.56 2.92 1.08 6.49-0.48 9.05 -1.81 2.97-4.24 2.29-5.61 0.72 1.29-7.1-3.6-7.83-1.83-18.95 0.14-1.04 0.6-3.19 1-4.41 0.26-0.68 0.85-1.28 1.64-1.8 -2.45 14.1 0.25 14.8 1.13 24.26 5.21-4.28-1.7-14 3.3-16 6.65-2.85 12.6-0.67 18-4.74 4.19 3.67 15.48 2.77 19 4.74 3 2-1.63 12.62 2 16 -0.03-6.5 4.03-9.46 1.59-24.21 1.64 1.22 2 2.93 2.49 6.16C126.8 139.19 122 139.66 123.24 146.93zM86.72 126.01c4.35-0.83 8.3-0.97 11.65-2.44 -3.57 1.21-7.87 1-11.78 1.74 -12.26 2.15-7.9 9.85-7.56 14.76C79.18 134.5 75.42 127.98 86.72 126.01zM120.96 140.07c-0.03-1.33-0.11-1.78 0.29-4.18 2.22-12.3-11.58-8.78-19.62-12.32 6.76 2.27 23.34-0.53 19.98 12.36C121.01 138.41 121.06 138.68 120.96 140.07zM78.04 127.24c1.57-4.65 10.53-7.44 15.17-5.83C89.11 120.68 80.11 123.4 78.04 127.24zM122.04 126.57c-0.68-1.08-0.27-0.46-0.85-1.11 -1.57-1.92-10.71-5.24-14.99-3.56C110.12 119.58 120.09 121.79 122.04 126.57z" fill="#1b141c" stroke-width="none" opacity="1"></path><path id="SvgjsPath3546" d="M125.08 127.96c-0.8-5.34-1.24-6.53-7.73-8.21 -9.74-2.35-12.6-1.32-17.35 2.8 -2.65-2.35-4.95-3.76-8.16-4.01 -3.01-0.21-14.43 1.23-15.91 5.01 -0.4 1.22-0.86 3.37-1 4.41 -1.77 11.12 3.12 11.85 1.83 18.95 1.37 1.57 3.8 2.25 5.61-0.72 1.56-2.56 1.04-6.13 0.48-9.05 -1.44-7.18 0.49-4.89 5.3-5.44 4.98-0.58 9.08-0.92 11.85-3.84 1.67 1.77 3.67 2.5 6.08 3.03 11.39 2.34 12.57-1.79 11.08 6.25 -2.05 10.15 2.78 13.05 6.08 9.79C122 139.66 126.8 139.19 125.08 127.96zM123.85 136.83c-0.96 3.75-1.98 6.71-0.94 9.96 -3.16 2.79-6.05-1.12-5.11-6.66 1.02-6.97 3-9.65-4.1-9.52 -1.02 0.03-8.33-0.31-11.63-1.88 -0.58-0.24-1.64-1.09-2.07-1.52 -2.9 2.91-6.89 2.81-11.97 3.35 -3.35 0.41-7.74-1.47-6.66 5.02 0.67 3.58 1.73 7.47 0.27 10.26 -1.11 2.17-2.91 2.41-4.56 0.96 1.39-4.43-0.96-8.31-1.19-11.76 -0.24-3.35 0.48-8.22 1.36-10.99 0.88-2.59 11.92-4.37 14.5-4.33 3.32 0.06 5.26 1.34 8.25 3.48 1.97-1.26 4.18-3.41 8.22-3.48 2.39-0.04 13.63 1.69 14.53 4.33C123.69 126.87 124.67 133.53 123.85 136.83z" fill="#000000" stroke-width="none" opacity="1"></path></g></g><g id="svga-group-hair-front" transform="matrix(1,0,0,1,0,0)"><path id="SvgjsPath3493" d="M45.777 90.313c-2.998-2.502-6.749-8.939-8.423-17.962 -0.356-1.849-0.61-3.75-0.88-5.763 -1.131-8.446-3.555-18.289-1.878-28.373 2.013-12.337 11.271-25.693 23.036-33.237 18.191-11.772 64.171-17.033 73.754-1.537 5.559-0.203 11.557 1.249 15.699 4.471 13.709 10.284 19.01 45.211 15.211 62.559 -2.528 11.847-3.191 14.954-8.264 19.599 1.812-54.323-0.99-39.665-3.306-54.253 -2.715-1.99-3.727-1.168-7.909-3.542 -8.318-6.142-7.915-8.602-11.683-12.898 -3.356 3.969-8.181 7.463-11.907 9.077 0.944-1.547 1.749-3.282 2.282-4.398l-0.446-0.373c-3.129 2.262-9.451 5.478-13.336 5.823 2.087-2.565 1.843-2.242 2.677-3.805 -3.116 1.916-6.427 3.217-10.604 3.583 3.935-1.944 5.699-3.274 8.751-5.817l-0.279-0.518c-21.191 6.437-26.218 7.895-41.755 10.651 -13.012 1.627-8.248 0.252-12.968 0.252 -7.593 0-8.798 22.789-8.47 30.387C45.925 85.479 44.837 81.343 45.777 90.313z" fill="#2a232b" stroke-width="none" opacity="1"></path><path id="SvgjsPath3494" d="M162.296 70.471c-2.528 11.847-3.191 14.954-8.264 19.599 1.812-54.323-0.99-39.665-3.306-54.253 -2.715-1.99-3.727-1.168-7.909-3.542 -8.318-6.142-7.915-8.602-11.683-12.898 -3.356 3.969-8.181 7.463-11.907 9.077 0.944-1.547 1.749-3.282 2.282-4.398l-0.446-0.373c-3.129 2.262-9.451 5.478-13.336 5.823 2.087-2.565 1.843-2.242 2.677-3.805 -3.116 1.916-6.427 3.217-10.604 3.583 3.935-1.944 5.699-3.274 8.751-5.817l-0.279-0.518c-21.191 6.437-26.218 7.895-41.755 10.651 -13.012 1.627-8.248 0.252-12.968 0.252 -7.593 0-8.798 22.789-8.47 30.387 0.846 21.241-0.242 17.104 0.698 26.075 -2.998-2.502-6.749-8.939-8.423-17.962 -0.356-1.849-0.61-3.75-0.88-5.763 -1.131-8.446-3.555-18.289-1.878-28.373 1.59-9.746 13.727-24.08 22.024-31.729 -25.5 23.75-18 50.252-13.75 71.5C41.619 59.235 38 29 55 28c23 0 48.869-3.265 64.869-19.265C118.869 15.735 118 17 113 22c4-3 9-5 11-10 -1 4-1 7-4 10 3-2 6-5 9-8 0 3-2 6-3 9 2-5 8-8 9-13 -3 13 12.369 19.985 17.119 22.735 6.5 9 6.75 28 5.25 43.75 5.5-18 3-48.75-13.25-70C161.869 19.485 165.6 55.386 162.296 70.471zM60.369 19.985c12.207-0.359 21.165-2.337 34.25-9.75C82.032 15.751 74.067 18.383 60.369 19.985zM93.619 15.735c6.46-2.681 10.955-8.497 18.25-10.25C105.146 7.818 100.471 13.67 93.619 15.735zM54.869 19.485c4.629-8.324 14.52-15.222 27-16.25C71.713 5.123 60.837 10.953 54.869 19.485z" fill="#1b141c" stroke-width="none" opacity="1"></path><path id="SvgjsPath3495" d="M86.619 0c13.085-5.594 24.996-5.023 37.5 1.985 -13.123-5.605-23.154-4.532-23.154-4.532C98.577-2.36 94.759-2.452 86.619 0zM138.119 7.985c4.139 1.594 5.866 4.016 8.383 7.511 3.685 5.954 4.716 8.533 6.863 14.489C151.28 21.431 146.603 10.292 138.119 7.985zM114.619 7.735c-7.115 6.003-12.274 9.237-26.5 14C99.361 19.065 106.526 15.916 114.619 7.735zM137.619 13.985c2.067 7.036 5.876 10.957 11.75 14.5C143.909 24.378 140.339 20.566 137.619 13.985zM58.619 10.235c0 0-0.486 0.36-1.287 0.952 -9.145 6.479-16.294 18.86-16.463 34.548C42.864 30.127 49.049 19.143 58.619 10.235zM63.369 14.735c7.757-4.055 11.339-4.087 24.25-6.25C76.476 9.262 70.964 9.793 63.369 14.735zM84.417 18.964c-4.565 2.29-15.277 4.855-15.277 4.74 -3.757 0.834-10.27 2.281-10.27 2.281 2.522-0.319 6.849-0.825 10.418-1.591 0 0.135 8.796-1.985 11.379-3.319 2.836-1.338 1.875-0.813 4.703-2.59C85.369 18.485 85.008 18.667 84.417 18.964z" fill="#3a353a" stroke-width="none" opacity="1"></path><path id="SvgjsPath3496" d="M147.27 7.675c-4.229-3.289-10.323-4.741-15.721-4.54 -4.611-7.454-19.151-9.598-27.97-9.69 -13.304-0.138-34.324 3.653-46.11 11.28 -10.968 7.032-21.023 20.286-23.17 33.44 -1.284 7.721-0.178 15.721 1.13 23.38 0.64 3.7 0.97 7.43 1.63 10.86 1.897 10.227 6.295 16.626 9.09 18.57 -1.065-9.855 0.097-4.998-0.77-26.75 -0.403-9.331 1.305-30.714 8.49-30.06 4.883 0.345 1.014 1.191 12.7-0.271 15.347-2.722 20.366-4.152 41.79-10.659 -3.357 2.798-5.103 4.068-9.6 6.22 -0.01-0.01-0.01 0-0.01 0 -0.14 0.07-0.29 0.14-0.43 0.2 3.719-0.024 8.346-1.305 11.299-3.12 -0.407 0.762-1.632 2.147-2.539 3.3 3.844 0 10.74-3.438 14.16-5.91 -0.48 1-1.603 3.462-2.811 5.21 1.141-0.57 3.874-1.313 9.33-5.93 1.11-0.93 2.38-2.19 3.38-3.37 3.349 3.818 3.148 6.516 11.53 12.7 4.158 2.36 5.282 1.625 7.78 3.45 2.206 14.448 5.134-0.795 3.26 54.78 5.6-4.96 6.275-8.026 8.88-20.23C166.297 53.602 161.249 18.163 147.27 7.675zM160.949 70.325c-2.216 12.286-2.402 14.36-6.88 19.22 0.814-10.8 1.53-20.459 1.319-31.34 -0.444-16.061-2.58-13.048-4.1-22.72 -2.878-2.021-4.273-1.655-6.92-2.85 -0.46-0.17-0.84-0.46-1.27-0.68 -8.392-5.824-8.398-8.604-11.83-12.27 0.971-1.114 1.813-2.391 2.09-2.94 -1.509 2.264-7.977 8.239-14.11 11.63 1.059-1.676 1.864-3.305 2.44-4.78 1.735-1.212 2.92-2.358 3.92-3.35 -3.419 2.84-12.225 7.96-17.75 9.07 0.174-0.179 1.875-1.826 2.516-3.074 1.355-0.542 5.016-2.779 6.304-4.203 -6.304 4.203-13.475 6.72-15.979 7.136 3.064-1.149 7.04-4.731 9.08-6.36 1.971-1.574 2.353-2.206 4.399-4.28 -1.344 0.938-3.44 2.993-6.056 4.097 -1.547 0.653-43.89 12.498-51.254 10.574 -1.478-0.37-3.149-0.818-4.62-0.39 -11.8 5.076-7.461 37.634-7.3 47.63 0.136 8.423 0.74 9.89 0.74 9.89 -7.751-7.36-8.089-23.554-8.9-29.18 -1.028-7.456-1.923-15.371-0.55-22.77 2.24-12.64 11.912-25.407 22.26-32.06 15.469-10.04 61.594-18.533 73.04-2.83C159.954 3.495 163.94 50.271 160.949 70.325z" fill="#000000" stroke-width="none" opacity="1"></path></g><g id="svga-group-glasses-single-move" transform="matrix(1,0,0,1,0,0)"><g id="svga-group-glasses-single" transform="matrix(1,0,0,1,0,0)"><path id="SvgjsPath3839" d="M148.02 85.54c-0.11 1.96-0.35 4.05-0.59 6.25 -1.04 9.74-5.26 12.49-24.57 11.1 -6.3-0.45-11.06-4.04-13.41-10.1 -0.99-2.55-1.87-5.52-2.37-8.48C116.7 77.81 139.4 77.62 148.02 85.54zM51.98 85.54c0.11 1.96 0.35 4.05 0.59 6.25 1.04 9.74 5.26 12.49 24.57 11.1 6.3-0.45 11.06-4.04 13.41-10.1 0.99-2.55 1.87-5.52 2.37-8.48C83.3 77.81 60.6 77.62 51.98 85.54z" fill="#ffffff" stroke-width="none" opacity="0.2"></path><path id="SvgjsPath3840" d="M148.02 85.54c-8.62-7.92-31.33-7.73-40.93-1.23 -0.36-2.11-0.52-4.22-0.36-6.16h0c0.66-7.81 13.45-6.88 20.98-7.17C146.33 70.26 148.56 76.34 148.02 85.54zM93.27 78.14L93.27 78.14c-0.66-7.81-13.45-6.88-20.99-7.17 -18.61-0.71-20.85 5.37-20.31 14.56 8.62-7.92 31.33-7.73 40.93-1.23C93.26 82.19 93.43 80.09 93.27 78.14z" fill="#ffffff" stroke-width="none" opacity="0.4"></path><path id="SvgjsPath3841" d="M149.91 75.08c-0.62-1.42-1.48-2.7-2.56-3.65 -2.47-2.16-7.08-2.46-11.39-2.71 -4.19-0.23-12.15-0.42-17.46-0.08 -13.8 0.9-13.57 7-13.57 7 -1.81 0-8.03 0-9.84 0 0 0 0.23-6.11-13.57-7 -5.32-0.34-13.27-0.16-17.46 0.08 -4.31 0.24-8.93 0.55-11.39 2.71 -1.09 0.95-1.94 2.22-2.56 3.65l-8.19-1.58v3.99c7.17 1.38 9.02 1.82 10.02 1.76 -0.25 3.01-0.36 8.35 0.29 12.59 1.54 10.07 5.78 12.78 24.94 11.4 6.36-0.46 11.35-4.23 13.72-10.33 1.86-4.8 3.14-9.09 2.81-14.28h12.64c-0.33 5.19 0.95 9.49 2.81 14.28 2.36 6.1 7.36 9.87 13.72 10.33 19.17 1.38 23.41-1.33 24.94-11.4 0.65-4.24 0.54-9.58 0.29-12.59 1 0.06 2.85-0.38 10.02-1.76V73.5L149.91 75.08zM90.07 92.61c-2.27 5.87-6.88 9.35-12.98 9.78 -19.08 1.37-22.61-1.33-24.04-10.68 -0.76-5.01-0.35-11.52-0.25-12.52 0.19-0.03 0.31-0.06 0.32-0.1 1.09-6.36 6.45-8.42 29.02-7.35 3.73 0.18 6.92 0.88 8.69 2.75 1.04 1.09 2.04 2.66 1.95 4.17l0.04 0C93.02 81.2 92.44 86.5 90.07 92.61zM146.94 91.72c-1.43 9.35-4.96 12.05-24.04 10.68 -6.1-0.44-10.71-3.92-12.98-9.78 -2.37-6.11-2.94-11.41-2.74-13.95l0.04 0c-0.09-1.5 0.91-3.07 1.95-4.17 1.77-1.87 4.96-2.57 8.69-2.75 22.57-1.06 27.92 0.99 29.02 7.35 0.01 0.04 0.13 0.08 0.32 0.1C147.29 80.2 147.71 86.71 146.94 91.72z" fill="#26120b" stroke-width="none" opacity="1"></path><path id="SvgjsPath3842" d="M104.94 75.34c0.17-1.26 1.63-5.92 13.54-6.69 5.32-0.34 13.27-0.16 17.46 0.08 4.31 0.24 8.93 0.55 11.39 2.71 1.09 0.95 1.94 2.22 2.56 3.65l0 0c-3.72-6.16-10.22-5.54-14.01-5.75 -2.3-0.13-6.21-0.27-10.28-0.27 -2.77 0-5.15 0.06-7.06 0.19C111.48 69.71 107.56 70.92 104.94 75.34zM95.06 75.34c-0.17-1.26-1.63-5.92-13.54-6.69 -5.32-0.34-13.27-0.16-17.46 0.08 -4.31 0.24-8.93 0.55-11.39 2.71 -1.09 0.95-1.94 2.22-2.56 3.65l0 0c3.72-6.16 10.22-5.54 14.01-5.75 2.3-0.13 6.21-0.27 10.28-0.27 2.77 0 5.15 0.06 7.06 0.19C88.52 69.71 92.44 70.92 95.06 75.34z" fill="#351d15" stroke-width="none" opacity="1"></path></g></g></g></g></g><rect id="svga-credit-rect" width="200" height="15" x="0" y="185" fill="#ecf0f1" opacity="0.5" style="display: none;"></rect><text id="svga-credit-text" font-family="Avenir Next, Roboto, Helvetica, Arial, sans-serif" font-size="10px" text-anchor="start" font-weight="400" size="10px" anchor="start" weight="400" fill="#333333" x="33.3125" y="182.609375" style="display: none;"><tspan id="SvgjsTspan3267" dy="13" x="33.3125">Created on AvatarMaker.com</tspan></text></g></svg>