<svg xmlns="http://www.w3.org/2000/svg" version="1.1" width="600px" height="600px" viewBox="0 0 200 200" style="overflow:hidden!important;"><defs id="SvgjsDefs27831"><linearGradient id="SvgjsLinearGradient28501" x1="81.0335" y1="111.8772" x2="81.0335" y2="93.2499" gradientTransform="matrix(1 0 0 -1 0 202)" gradientUnits="userSpaceOnUse" class="svga-on-canvas-glasses-gradient-single-0-null"><stop id="SvgjsStop28502" stop-opacity="1" stop-color="#bfeaf2" offset="0" ></stop><stop id="SvgjsStop28503" stop-opacity="0.649" stop-color="#a1cae3" offset="0.351" ></stop><stop id="SvgjsStop28504" stop-opacity="0" stop-color="#6086c4" offset="1" ></stop></linearGradient><linearGradient id="SvgjsLinearGradient28506" x1="-1736.9666" y1="111.8772" x2="-1736.9666" y2="93.2499" gradientTransform="matrix(-1 0 0 -1 -1618 202)" gradientUnits="userSpaceOnUse" class="svga-on-canvas-glasses-gradient-single-1-null"><stop id="SvgjsStop28507" stop-opacity="1" stop-color="#bfeaf2" offset="0" ></stop><stop id="SvgjsStop28508" stop-opacity="0.649" stop-color="#a1cae3" offset="0.351" ></stop><stop id="SvgjsStop28509" stop-opacity="0" stop-color="#6086c4" offset="1" ></stop></linearGradient><linearGradient id="SvgjsLinearGradient28665" x1="80.9656" y1="87.264" x2="80.9656" y2="114.3098" gradientUnits="userSpaceOnUse" class="svga-on-canvas-glasses-gradient-single-0-null"><stop id="SvgjsStop28666" stop-opacity="1" stop-color="#ff73b2" offset="0.004166667" ></stop><stop id="SvgjsStop28667" stop-opacity="0.8085" stop-color="#ff75ae" offset="0.1949" ></stop><stop id="SvgjsStop28668" stop-opacity="0.5986" stop-color="#ff79a0" offset="0.4039" ></stop><stop id="SvgjsStop28669" stop-opacity="0.3799" stop-color="#ff818a" offset="0.6217" ></stop><stop id="SvgjsStop28670" stop-opacity="0.1566" stop-color="#ff8b6c" offset="0.844" ></stop><stop id="SvgjsStop28671" stop-opacity="0" stop-color="#ff9452" offset="1" ></stop></linearGradient><linearGradient id="SvgjsLinearGradient28673" x1="-19.0344" y1="87.264" x2="-19.0344" y2="114.3098" gradientTransform="matrix(-1 0 0 1 100 0)" gradientUnits="userSpaceOnUse" class="svga-on-canvas-glasses-gradient-single-1-null"><stop id="SvgjsStop28674" stop-opacity="1" stop-color="#ff73b2" offset="0.004166667" ></stop><stop id="SvgjsStop28675" stop-opacity="0.8085" stop-color="#ff75ae" offset="0.1949" ></stop><stop id="SvgjsStop28676" stop-opacity="0.5986" stop-color="#ff79a0" offset="0.4039" ></stop><stop id="SvgjsStop28677" stop-opacity="0.3799" stop-color="#ff818a" offset="0.6217" ></stop><stop id="SvgjsStop28678" stop-opacity="0.1566" stop-color="#ff8b6c" offset="0.844" ></stop><stop id="SvgjsStop28679" stop-opacity="0" stop-color="#ff9452" offset="1" ></stop></linearGradient></defs><g id="svga-group-wrapper"><g id="svga-group-backs-single"><path id="SvgjsPath28983" d="M0 0h200v200H0V0z" fill="#88a65e" stroke-width="none" opacity="1"></path><path id="SvgjsPath28984" d="M0 0h28.6v28.6H0V0zm57.1 0h28.6v28.6H57.1V0zm57.2 0h28.6v28.6h-28.6V0zm57.1 0H200v28.6h-28.6V0zM28.6 28.6h28.6v28.6H28.6V28.6zm57.1 0h28.6v28.6H85.7V28.6zm57.2 0h28.6v28.6h-28.6V28.6zM0 57.1h28.6v28.6H0V57.1zm57.1 0h28.6v28.6H57.1V57.1zm57.2 0h28.6v28.6h-28.6V57.1zm57.1 0H200v28.6h-28.6V57.1zM28.6 85.7h28.6v28.6H28.6V85.7zm57.1 0h28.6v28.6H85.7V85.7zm57.2 0h28.6v28.6h-28.6V85.7zM0 114.3h28.6v28.6H0v-28.6zm57.1 0h28.6v28.6H57.1v-28.6zm57.2 0h28.6v28.6h-28.6v-28.6zm57.1 0H200v28.6h-28.6v-28.6zM28.6 142.9h28.6v28.6H28.6v-28.6zm57.1 0h28.6v28.6H85.7v-28.6zm57.2 0h28.6v28.6h-28.6v-28.6zM0 171.4h28.6V200H0v-28.6zm57.1 0h28.6V200H57.1v-28.6zm57.2 0h28.6V200h-28.6v-28.6zm57.1 0H200V200h-28.6v-28.6z" fill="#759746" stroke-width="none" opacity="1"></path></g><g id="svga-group-humanwrap-move" transform="matrix(1,0,0,1,0,0)"><g id="svga-group-humanwrap" transform="matrix(1.1000003000000003,0,0,1.1000003000000003,-9.955191150884275,-12.177039247072628)"><g id="svga-group-hair-back-move" transform="matrix(1,0,0,1,0,0)"><g id="svga-group-hair-back" transform="matrix(1,0,0,1,0,0)"></g></g><g id="svga-group-humanbody-back"><path id="SvgjsPath28135" d="m168.5 219.5-1.7-21.5s.7-9-8.8-15.3-23.4-10.1-29.5-14.2c-6.1-4.1-9.2-4.5-9-16.9s.9-40.3.9-40.3H79.6s.7 27.9.9 40.3c.2 12.4-2.9 12.8-9 16.9-6.1 4.1-20 7.9-29.5 14.2S33.2 198 33.2 198l-1.6 21.5h136.9z" fill="#fbd5c0" stroke-width="none" opacity="1" stroke="none"></path></g><g id="svga-group-chinshadow-single"><path id="SvgjsPath28660" d="M80.4 155.4c5.9 5.8 12.6 9.3 19.6 9.3s13.7-3.5 19.6-9.3c-.1-1.1-.1-2.4-.1-3.8.2-12.4.9-40.3.9-40.3H79.6s.7 27.9.9 40.3c0 1.4 0 2.7-.1 3.8z" fill="#dc9f7d" stroke-width="none" opacity="0.65"></path></g><g id="svga-group-humanbody-front"><path id="SvgjsPath28136" d="M73.8 175.9c5.1 2.9 11.8 5.2 17.6 5.7.4 0 .4-.6.1-.7-2.8-1.1-5.9-1.7-8.8-2.6-2.9-.9-5.8-2-8.8-2.7-.1-.1-.3.2-.1.3zm35.2 6.2c5.3-.6 11.3-3 15.9-5.8.3-.2.1-.6-.2-.5-2.6.9-5.2 2-7.8 2.9-2.6.9-5.4 1.5-8 2.5-.5.1-.5.9.1.9z" fill="#dc9f7d" stroke-width="none" opacity="1" stroke="none"></path><path id="SvgjsPath28137" d="m168.4 219.4-2.1-21.4c0-2.2-.5-4.5-1.5-6.6-.9-2.1-2.3-3.9-3.9-5.5s-3.5-2.8-5.5-4c-2-1.2-4.1-2.2-6.2-3.1-4.2-1.9-8.6-3.6-12.9-5.4-2.2-.9-4.3-1.9-6.4-3-1.1-.6-2.1-1.2-3-1.9-1-.6-2-1.2-3-1.9s-2-1.5-2.8-2.6c-.8-1-1.3-2.2-1.7-3.4-.7-2.4-.8-4.8-.8-7.2 0-4.7.2-9.4.3-14.1.2-9.4.6-18.7.9-28l.6.6-20.4-.2-20.4-.1.3-.3.7 28c.1 4.7.3 9.3.4 14 0 2.4-.1 4.7-.8 7.1-.3 1.2-.9 2.3-1.6 3.3-.8 1-1.7 1.8-2.7 2.5s-2 1.3-2.9 2c-.9.6-1.9 1.3-3 1.9-2.1 1.2-4.2 2.1-6.4 3.1-4.3 1.9-8.6 3.6-12.8 5.6-2.1 1-4.2 2.1-6.1 3.2-2 1.2-3.8 2.4-5.4 4-1.6 1.6-2.9 3.4-3.8 5.4-.4 1-.8 2.1-1 3.1-.2 1.1-.4 2.2-.3 3.2v.2l-1.5 21.5-1-1.1 34 .1c11.3 0 22.7.1 34.1.2l34.2.3 34.4.5zm.2.2-34 .4-34.2.3c-11.4.1-22.9.2-34.4.2l-34.4.1h-1.1l.1-1.1 1.7-21.5v.1c-.1-5.1 2.2-9.8 5.7-13.3 1.7-1.7 3.8-3.1 5.8-4.3 2-1.2 4.2-2.2 6.3-3.2 4.3-2 8.7-3.7 13-5.4 2.1-.9 4.3-1.8 6.3-2.9 1-.5 1.9-1.1 3-1.8 1-.6 2-1.2 2.9-1.9.9-.6 1.8-1.4 2.4-2.2.7-.9 1.2-1.9 1.5-2.9.6-2.1.8-4.5.8-6.8 0-4.6-.1-9.3-.2-14l-.6-28v-.3h.3l20.4-.1 20.4-.2h.6v.6c-.1 9.3-.2 18.7-.4 28-.1 4.7-.2 9.4-.2 14 .1 2.3.2 4.6.8 6.7.3 1.1.8 2 1.4 2.9.6.8 1.4 1.6 2.4 2.2.9.6 1.9 1.3 2.9 1.9 1 .7 1.9 1.3 2.9 1.8 2 1.1 4.1 2.1 6.3 3 4.3 1.8 8.6 3.6 12.9 5.6 2.1 1 4.2 2.1 6.2 3.3 2 1.2 4 2.6 5.7 4.3 3.4 3.4 5.6 8.1 5.4 13v-.1l1.4 21.6zm-112.8-.4 1.9-13.8.1 13.8h-2zm88.6 0-1.9-13.8-.1 13.8h2z" fill="#cd865f" stroke-width="none" opacity="1" stroke="none"></path></g><g id="svga-group-clothes-single"><path id="SvgjsPath28993" d="M168.4 195.7c-.9-7.5-3.8-11.9-9.4-15.1s-20.9-8.7-29-12.9c-6.4-3.3-8.6-7.6-8.8-10.3s0-14.5 0-14.5-6 5.3-22.5 5.3c-12.7 0-19.7-5.1-19.7-5.1s.2 11.4 0 14.1-2.7 7.1-9.1 10.4c-8.1 4.2-23.2 9.7-28.8 12.9s-8.6 7.6-9.5 15.1c-.9 7.5-2.8 24.3-2.8 24.3h142.3c.1.1-1.9-16.7-2.7-24.2zm-69.3 5.5c-6 0-12-3.9-12-8.4 0-3.3 4.7-22.3 4.7-22.3s9.9.8 16 .2c0 0 3.1 15.2 3.5 21.4s-6.2 9.1-12.2 9.1z" fill="#e4aacd" stroke-width="none" opacity="1" stroke="none"></path><path id="SvgjsPath28994" d="M171.4 219.8v-.2l-.1-.6-.3-2.6-2.5-20.7c-.4-3.3-1.2-6.6-3-9.4-1.8-2.8-4.5-4.9-7.4-6.4-5.9-3-12-5.4-18-8.1-3-1.3-6-2.7-8.9-4.2-2.9-1.4-5.6-3.3-7.4-5.8-.9-1.2-1.6-2.7-1.8-4.1-.1-1.5-.1-3.2-.1-4.8l.1-9.9c0-.2-.1-.4-.2-.6-.3-.4-.9-.4-1.3-.1-.6.5-1.4.9-2.1 1.3-.8.4-1.6.8-2.4 1.1-1.7.6-3.4 1.1-5.2 1.5-3.5.8-7.1 1.1-10.8 1.2-3.6.1-7.2-.1-10.8-.9-3.5-.7-7-1.9-10-3.8-.1-.1-.2-.1-.3-.1-.3 0-.6.3-.5.6.1 4.3.2 8.6.2 12.9 0 1.1-.1 2.1-.5 3-.4 1-.9 1.9-1.5 2.7-1.2 1.7-2.9 3.1-4.6 4.3-1.8 1.2-3.7 2.1-5.7 3-1.9.9-3.9 1.8-5.9 2.6l-11.9 5c-2 .9-4 1.7-5.9 2.7-2 .9-3.8 2.1-5.5 3.5-1.7 1.4-3 3.2-4 5.2s-1.6 4.1-1.9 6.3c-1.1 8.6-2.1 17.1-3.2 25.6v.1c0 .5.4.8.8.8l41.7.2c13.9.1 27.8 0 41.7 0 13.9-.1 27.8-.2 41.7-.5l10.4-.2 5.2-.1h1.5c.1 0 .1 0 .2-.1.2-.1.2-.4.2-.4zm-7-.2-10.4-.2c-13.9-.2-27.8-.4-41.7-.5-13.9 0-27.8-.1-41.7 0l-40.8.2 2.6-24.7c.3-2.1.8-4.1 1.7-6 .9-1.9 2.1-3.6 3.7-5 1.5-1.4 3.4-2.5 5.3-3.5s3.9-1.9 5.8-2.7l11.9-5.1c2-.9 3.9-1.7 5.9-2.6 1.9-.9 3.9-1.8 5.8-3 1.8-1.2 3.5-2.6 4.8-4.4.7-.9 1.2-1.8 1.6-2.9.2-.5.3-1.1.4-1.6.1-.6.1-1.1.1-1.6.1-4 .1-7.9.1-11.9 3 1.8 6.2 2.9 9.5 3.7 3.6.9 7.4 1.2 11.1 1.1 3.7 0 7.4-.4 11.1-1.1 1.8-.4 3.6-.9 5.4-1.5.9-.3 1.8-.7 2.6-1.1.3-.2.7-.4 1-.6v8.2c0 1.7 0 3.2.2 5 .2 1.8 1.1 3.4 2.1 4.8 2.1 2.8 5.1 4.7 8.1 6.1 3 1.4 6 2.7 9.1 3.9l9.1 3.7c3 1.2 6.1 2.5 9 3.9 2.9 1.5 5.6 3.5 7.4 6.2 1.8 2.7 2.7 6 3.1 9.2l2.2 20.7.3 2.6.1.6v.1h-6.5zm6.6.1h-.1.1c.2 0 .1 0 0 0zM110.6 180c-.6-3.2-1.3-6.4-2-9.5-.1-.4-.5-.7-.9-.6-2.6.3-5.2.4-7.9.5-2.7.1-5.3 0-8-.1-.2 0-.3.1-.3.2-.7 3.1-1.6 6.3-2.5 9.4-.9 3.1-1.8 6.2-2.3 9.4-.2.8-.3 1.6-.3 2.4-.1.9-.1 1.8.2 2.7.3.9.7 1.7 1.3 2.3.6.7 1.2 1.2 1.9 1.8 2.8 1.9 6.1 2.8 9.3 2.8 1.6 0 3.3-.2 4.9-.5 1.6-.4 3.2-.9 4.6-1.8 1.4-.9 2.7-2.3 3.2-4.1.3-.9.4-1.8.4-2.7 0-.9-.1-1.7-.2-2.5-.3-3.3-.8-6.5-1.4-9.7zm-.4 14.4c-.3 1.4-1.1 2.7-2.3 3.7-2.3 2-5.7 3-8.9 3s-6.4-1.3-8.7-3.4c-1.1-1.1-2-2.4-2.3-3.7-.2-.7-.1-1.3 0-2.1s.3-1.6.4-2.3c.6-3.1 1.1-6.3 1.7-9.5.5-3.1 1.2-6.2 1.9-9.2 2.6.2 5.2.4 7.7.6 2.4.2 4.8.3 7.3.1.5 2.9 1 5.9 1.5 8.8.5 3.2 1.1 6.4 1.5 9.5l.3 2.4c0 .7 0 1.4-.1 2.1zM48 200.3c-.8-2.9-2.3-5.6-4.1-8.1-1.8-2.4-3.8-4.7-6-6.6 1 1.1 1.9 2.2 2.8 3.4.9 1.2 1.8 2.4 2.6 3.6 1.6 2.5 3 5.1 3.7 7.9.8 2.8 1.3 5.8 1.8 8.7.2 1.5.4 2.9.6 4.4.2 1.5.3 2.9.5 4.4.1-3-.1-6-.4-8.9-.2-2.9-.7-5.9-1.5-8.8zm107.9-8.1c-1.8 2.4-3.3 5.1-4.1 8.1-.8 2.9-1.3 5.9-1.6 8.9-.3 3-.4 5.9-.4 8.9.2-1.5.3-3 .5-4.4.2-1.5.4-2.9.6-4.4.5-2.9.9-5.9 1.8-8.7.8-2.8 2.2-5.4 3.7-7.9.8-1.2 1.7-2.4 2.6-3.6.9-1.2 1.9-2.3 2.8-3.4-2.1 1.9-4.1 4.1-5.9 6.5z" fill="#c56ca2" stroke-width="none" opacity="1" stroke="none"></path></g><g id="svga-group-head" transform="matrix(1,0,0,1,0,0)"><g id="svga-group-ears-left-move" transform="matrix(1,0,0,1,0,0)"><g id="svga-group-ears-left" transform="matrix(1,0,0,1,0,0)"><path id="SvgjsPath28334" d="M64 93.7s-2.3-2.2-5-3.3-5.7.7-6.6 3.4 1.2 14 4.7 18.1 5.8 4.4 8.1 2.3c2.3-2 6.4-9.9-1.2-20.5z" fill="#fbd5c0" stroke-width="none" opacity="1" stroke="none"></path><path id="SvgjsPath28335" d="M65.2 95.3c.4.6.7 1.2 1.1 1.8.4.6.7 1.3 1 1.9.3.7.6 1.3.8 2 .2.7.5 1.4.6 2.2.1.4.1.8.2 1.1l.1 1.2c0 1.6-.2 3.1-.6 4.6-.5 1.5-1.1 2.8-2.1 3.9-.2.3-.5.5-.7.8-.3.2-.5.4-.8.6-.6.4-1.2.7-1.9.7-.7.1-1.4 0-2-.3s-1.2-.7-1.7-1.1-1-.9-1.5-1.5c-.5-.5-.9-1.1-1.3-1.7-1.5-2.5-2.4-5.3-3.2-8.1-.4-1.4-.7-2.8-1-4.3s-.5-2.9-.4-4.5c0-.4.1-.8.2-1.3.1-.2.1-.4.2-.6l.3-.5c.4-.7.9-1.2 1.4-1.7 1.1-.9 2.4-1.3 3.7-1.1.6.1 1.3.3 1.8.6.6.3 1.1.6 1.7 1 1.1.7 2.1 1.5 3.1 2.4l1 1.9zm-4.4-3.8c-.6-.3-1.1-.5-1.7-.7-.6-.2-1.1-.3-1.7-.3-1.1.1-2.2.5-3.1 1.3-.4.4-.8.8-1.1 1.4-.1.3-.3.5-.4.8-.1.3-.2.5-.2.9-.2 1.3-.1 2.8.1 4.2.2 1.4.4 2.9.7 4.3.7 2.8 1.7 5.6 3.3 7.7.8 1 1.8 1.9 2.7 2.7 1 .7 2.1 1.2 3.1 1 .5-.1 1-.3 1.5-.6s.9-.7 1.3-1.2c.7-1 1.4-2.1 1.7-3.4.4-1.3.6-2.6.7-4 0-1.4-.1-2.8-.4-4.2-.6-2.8-1.8-5.4-3.4-7.6-.9-1-2-1.7-3.1-2.3z" fill="#ecb99d" stroke-width="none" opacity="1" stroke="none"></path><path id="SvgjsPath28336" d="M55.9 93.3c3 .5 5 5.7 5.6 9.2.1.1.1.2.2.3.3.5-.4 1.1-.7.6-.4-.7-1-1.5-1.7-1.8-1.3-.5-2 1-1.7 2.5.4 1.7 1.5 2.8 2.5 4.1.1.1 0 .3-.1.2-1.6-1-4-4.5-2.9-6.7.8-1.6 2.1-1.3 3.2-.4-.7-2-1.3-4-2.8-5.5-.5-.5-1.4-1.3-2.1-1.2-1.2.2-1.2 2-1.3 3.1-.1 1.5.1 3.1.3 4.7 0 .2-.2.2-.2.1-.6-2.4-1.8-9.8 1.7-9.2z" fill="#dc9f7d" stroke-width="none" opacity="1" stroke="none"></path></g></g><g id="svga-group-ears-right-move" transform="matrix(1,0,0,1,0,0)"><g id="svga-group-ears-right" transform="matrix(1,0,0,1,0,0)"><path id="SvgjsPath28337" d="M136 93.7s2.3-2.2 5-3.3 5.7.7 6.6 3.4-1.2 14-4.7 18.1-5.8 4.4-8.1 2.3c-2.3-2-6.4-9.9 1.2-20.5z" fill="#fbd5c0" stroke-width="none" opacity="1" stroke="none"></path><path id="SvgjsPath28338" d="M136 93.6c1-.9 2-1.7 3.1-2.4.5-.4 1.1-.7 1.7-1 .6-.3 1.2-.5 1.8-.6 1.3-.1 2.6.2 3.7 1.1.5.4 1 1 1.4 1.7l.3.5c.1.2.1.4.2.6.1.4.2.9.2 1.3.1 1.6-.2 3.1-.4 4.5-.3 1.5-.6 2.9-1 4.3-.8 2.8-1.7 5.6-3.2 8.1-.4.6-.8 1.1-1.3 1.7-.4.5-.9 1-1.5 1.5-.5.4-1.1.8-1.7 1.1-.6.3-1.3.4-2 .3s-1.3-.4-1.9-.7c-.3-.2-.6-.4-.8-.6-.3-.2-.5-.5-.7-.8-.9-1.1-1.6-2.5-2.1-3.9-.4-1.5-.7-3-.6-4.6l.1-1.2c0-.4.1-.8.2-1.1.1-.8.4-1.5.6-2.2.3-.7.5-1.4.8-2s.6-1.3 1-1.9.7-1.2 1.1-1.8l1-1.9zm0 .1c-1.6 2.2-2.8 4.9-3.4 7.6-.3 1.4-.4 2.8-.4 4.2 0 1.4.2 2.7.7 4 .4 1.3 1 2.4 1.7 3.4.4.5.8.9 1.3 1.2.5.3.9.6 1.5.6 1 .2 2.1-.3 3.1-1 1-.8 1.9-1.7 2.7-2.7 1.6-2.1 2.6-4.9 3.3-7.7.4-1.4.6-2.8.7-4.3.2-1.4.2-2.9.1-4.2 0-.3-.1-.6-.2-.9-.1-.3-.2-.6-.4-.8-.3-.5-.7-1-1.1-1.4-.9-.7-1.9-1.2-3.1-1.3-.6 0-1.1.1-1.7.3-.6.2-1.1.4-1.7.7-1 .7-2.1 1.4-3.1 2.3z" fill="#ecb99d" stroke-width="none" opacity="1" stroke="none"></path><path id="SvgjsPath28339" d="M144.1 93.3c-3 .5-5 5.7-5.6 9.2-.1.1-.1.2-.2.3-.3.5.4 1.1.7.6.4-.7 1-1.5 1.7-1.8 1.3-.5 2 1 1.7 2.5-.4 1.7-1.5 2.8-2.5 4.1-.1.1 0 .3.1.2 1.6-1 4-4.5 2.9-6.7-.8-1.6-2.1-1.3-3.2-.4.7-2 1.3-4 2.8-5.5.5-.5 1.4-1.3 2.1-1.2 1.2.2 1.2 2 1.3 3.1.1 1.5-.1 3.1-.3 4.7 0 .2.2.2.2.1.6-2.4 1.8-9.8-1.7-9.2z" fill="#dc9f7d" stroke-width="none" opacity="1" stroke="none"></path></g></g><g id="svga-group-faceshape-wrap" transform="matrix(1,0,0,1,0,0)"><g id="svga-group-faceshape-single"><path id="SvgjsPath28650" d="M141 88.4c0 30.3-18.9 65.2-41 65.2s-41-34.9-41-65.2 18.9-47 41-47 41 16.6 41 47z" fill="#fbd5c0" stroke-width="none" opacity="1"></path><path id="SvgjsPath28651" d="M100 41.3c-22.1 0-41.1 16.7-41.1 47s19 65.5 41.1 65.5 41.1-35.2 41.1-65.5-19-47-41.1-47zm28.2 13.6.8.8c.3.3.5.6.8.9.3.3.5.6.8.9l.7.9c.2.3.5.6.7.9l.7 1 .3.5.3.5c.4.7.9 1.3 1.2 2l.6 1c.2.3.4.7.5 1l.5 1.1.5 1.1c.2.4.3.7.5 1.1l.4 1.1c2.3 5.9 3.2 12.4 3.3 18.7 0 6.4-.9 12.8-2.6 18.9-.8 3.1-1.9 6.1-3.1 9-1.2 2.9-2.5 5.8-4 8.6s-3.1 5.5-4.8 8.1c-.9 1.3-1.8 2.6-2.7 3.8-.9 1.2-1.9 2.4-3 3.6-2 2.3-4.3 4.4-6.7 6.3-2.4 1.8-5 3.3-7.8 4.3-1.4.5-2.8.9-4.3 1-1.5.2-2.9.2-4.4.1-3-.2-5.9-1.2-8.6-2.6-2.7-1.4-5.3-3.3-7.6-5.4-2.3-2.1-4.4-4.5-6.3-7.1s-3.6-5.3-5-8.1c-1.5-2.8-2.8-5.7-3.9-8.7-.6-1.5-1.1-3-1.6-4.5s-.9-3-1.3-4.6c-.8-3.1-1.4-6.2-1.8-9.3-.4-3.1-.7-6.3-.8-9.4 0-1.6 0-3.1.1-4.7 0-.8.1-1.6.1-2.3l.2-2.3c.3-3.1.9-6.2 1.7-9.1.8-3 1.8-5.9 3.2-8.6.2-.4.3-.7.5-1l.5-1c.4-.7.8-1.3 1.2-2 .4-.6.8-1.3 1.3-1.9l.7-.9.3-.5.4-.4c1.9-2.4 4.1-4.5 6.5-6.3s5-3.3 7.8-4.5 5.7-2 8.6-2.5c.7-.2 1.5-.2 2.2-.3.4-.1.8-.1 1.1-.1l1.1-.1c.8 0 1.5-.1 2.3-.1H102.6l1.1.1c.4 0 .8.1 1.1.1.4 0 .8.1 1.1.1l1.1.2.6.1.6.1 1.1.2c.4.1.7.2 1.1.3s.7.2 1.1.3c1.4.4 2.9.9 4.3 1.5s2.8 1.2 4.1 2c2.7 1.5 5.2 3.3 7.4 5.4l.4.4.5.3z" fill="#cd865f" stroke-width="none" opacity="1"></path></g></g><g id="svga-group-mouth-single-move" transform="matrix(1,0,0,1,0,0)"><g id="svga-group-mouth-single" transform="matrix(1,0,0,1,0,0)"><path id="SvgjsPath28315" d="M88.3 128.3s3.8-1.8 4.9-2.7c1.1-.9 3.4-2.7 3.9-2.8.5 0 2.3 1.6 3 1.5.6 0 2.1-1.5 2.7-1.7s3.5 2.2 5.4 3.2c1.8 1 4.9 2 5.4 2.3.6.3-.4 0-.4 0s-4.2 2.9-5.5 4.1-2.2 2-2.9 2.4-8.1-.1-8.9-.4-3.5-2.9-4.7-3.9c-1.7-1.2-2.9-2-2.9-2z" fill="#DA7C87" stroke-width="none" opacity="1" transform="translate(0 3)" stroke="none"></path><path id="SvgjsPath28316" d="M95.6 134.1c2.7 1.5 6.7 2.1 9.4.4.2-.1.1-.5-.1-.5-1.4 0-2.8.4-4.3.4-1.6 0-3.2-.4-4.8-.8-.3-.1-.5.3-.2.5z" fill="#cb5f6c" stroke-width="none" opacity="1" transform="translate(0 3)" stroke="none"></path><path id="SvgjsPath28317" d="M85.9 128c1.7.9 4.1.9 6 .9 2.2 0 4.4-.2 6.6-.8 2.5-.7 5.2.4 7.8.6 2.8.2 5.8.2 8.6-.6.2-.1.2-.5-.1-.5-3 .2-5.8.6-8.8.3-1.3-.1-2.7-.3-4-.6-.8-.2-1.5-.5-2.4-.4-1.1.1-2.1.6-3.2.8-1.1.2-2.3.3-3.4.3-2.4.1-4.7-.1-7.1-.4-.1.1-.1.3 0 .4z" fill="#cb5f6c" stroke-width="none" opacity="1" transform="translate(0 3)" stroke="none"></path><path id="SvgjsPath28318" d="M99.3 134c3.1 1.2 7.9-.5 8.5-4.1.1-.3-.3-.5-.6-.3-1.1.9-2.1 2-3.4 2.7-1.4.8-2.9 1.2-4.4 1.4-.3-.1-.4.2-.1.3z" fill="#e99ca5" stroke-width="none" opacity="1" transform="translate(0 3)" stroke="none"></path><path id="SvgjsPath28319" d="M101.5 124.4c1.6-1 3 2.6 4.6 2.4.2 0 .4-.2.4-.4-.1-.6-.5-.9-.9-1.3-.6-.5-1.1-1-1.8-1.4-.9-.5-1.9-.4-2.5.4-.1.2.1.4.2.3z" fill="#e99ca5" stroke-width="none" opacity="1" transform="translate(0 3)" stroke="none"></path></g></g><g id="svga-group-eyes-left-move" transform="matrix(1,0,0,1,0,0)"><g id="svga-group-eyes-left" transform="matrix(1,0,0,1,0,0)"><g id="svga-group-eyesback-left"><path id="SvgjsPath28411" d="M92.2 101.8s-.6-1.9-2-3.8-3.3-3.9-6.6-4.5c-3.3-.6-12.1 2.2-12.1 2.2s1.4 1.9 3.1 3.1 6.3 2.9 8.2 2.8c1.9-.1 4.2-.5 5.2-.5 1.2 0 3.2 0 4.2.7z" fill="#ffffff" stroke-width="none" opacity="1"></path></g><g id="svga-group-eyesiriswrapper-left" transform="matrix(1,0,0,1,0,0)"><g id="svga-group-eyesiriscontrol-left" transform="matrix(1,0,0,1,0,0)"><g id="svga-group-eyesiris-left" transform="matrix(1,0,0,1,0,0)"><path id="SvgjsPath28381" d="M82 91.5c2.7 0 4.9 2.2 4.9 4.9s-2.2 4.9-4.9 4.9-4.9-2.2-4.9-4.9 2.2-4.9 4.9-4.9z" fill="#ddb332" stroke-width="none" opacity="1"></path><path id="SvgjsPath28382" d="M82 93.8c1.4 0 2.6 1.2 2.6 2.6S83.4 99 82 99s-2.6-1.2-2.6-2.6 1.2-2.6 2.6-2.6z" fill="#000000" stroke-width="none" opacity="1"></path><path id="SvgjsPath28383" d="m81.3 94.3-.5-.5c-.2-.2-.4-.3-.7-.3s-.5.1-.7.3c-.2.2-.3.4-.3.7s.1.5.3.7l.5.5c.2.2.4.3.7.3.2 0 .5-.1.7-.3.4-.5.4-1 0-1.4zm2.5 4.4c.8 0 .8-1.3 0-1.3s-.9 1.3 0 1.3z" fill="#ffffff" stroke-width="none" opacity="1"></path></g></g></g><g id="svga-group-eyesfront-left"><path id="SvgjsPath28419" d="M70.7 98c0 6.9 4.9 12.5 11 12.5s11-5.6 11-12.5-4.9-12.5-11-12.5-11 5.6-11 12.5zm.9-2.3s8.8-2.9 12.1-2.2c3.3.6 5.3 2.6 6.6 4.5 1.4 1.9 2 3.8 2 3.8-1-.7-3.1-.7-4.1-.7-1.1 0-3.3.5-5.2.5-1.9.1-6.4-1.7-8.2-2.8-1.9-1.2-3.2-3.1-3.2-3.1z" fill="#fbd5c0" stroke-width="none" opacity="1" stroke="none"></path><path id="SvgjsPath28420" d="M71.4 96c.2.3.4.6.7.9-.8-.2-1.8 0-2.4.5-.1.1 0 .2.1.2.5-.2 1.1-.3 1.7-.3.5 0 .9.2 1.3.4.1.1.2.2.4.3-.6.1-1.1.4-1.4.8-.1.1 0 .3.1.2.5-.3 1.1-.5 1.6-.7 1.7 1.4 3.7 2.4 5.6 3 1.7.5 3.4.8 5.2.6 2.7-.3 5.1-1.4 7.8 0 .1.1.2-.1.1-.2.1 0 .1-.1.1-.2-1.2-4.4-4.7-8.2-9.4-9.1-1.9-.3-3.7 0-5.5.5-1.2-.3-2.1-.9-3.1-1.8-.1-.1-.3 0-.2.2.5.9 1.5 1.6 2.5 1.9-.3.1-.6.2-.8.3-1.8.1-3.2-.6-4.6-1.7-.1-.1-.3.1-.2.2.9 1.1 2.3 1.7 3.7 1.9-.5.2-.9.3-1.4.4-1.9 0-3.5-.6-5.2-1.7-.1-.1-.2.1-.1.2 1 1.1 2.5 1.8 4 1.9-2.3.5-4.4.3-6.8-1.2-.1-.1-.3.1-.2.2 2.2 1.9 4.3 2.4 6.4 2.3zm.5 0c1.3-.1 2.7-.5 4.2-1 3.2-1 7-1.9 10.1-.2 2.8 1.5 4.4 4.1 5.8 6.8-2.9-1.5-5.7-.3-8.8-.5-4.5-.2-8-2.4-11.3-5.1z" fill="#09112e" stroke-width="none" opacity="1" stroke="none"></path></g></g></g><g id="svga-group-eyes-right-move" transform="matrix(1,0,0,1,0,0)"><g id="svga-group-eyes-right" transform="matrix(1,0,0,1,0,0)"><g id="svga-group-eyesback-right"><path id="SvgjsPath28412" d="M107.8 101.8s.6-1.9 2-3.8 3.3-3.9 6.6-4.5c3.3-.6 12.1 2.2 12.1 2.2s-1.4 1.9-3.1 3.1-6.3 2.9-8.2 2.8c-1.9-.1-4.2-.5-5.2-.5-1.2 0-3.2 0-4.2.7z" fill="#ffffff" stroke-width="none" opacity="1"></path></g><g id="svga-group-eyesiriswrapper-right" transform="matrix(1,0,0,1,0,0)"><g id="svga-group-eyesiriscontrol-right" transform="matrix(1,0,0,1,0,0)"><g id="svga-group-eyesiris-right" transform="matrix(1,0,0,1,0,0)"><path id="SvgjsPath28384" d="M118 91.5c2.7 0 4.9 2.2 4.9 4.9s-2.2 4.9-4.9 4.9-4.9-2.2-4.9-4.9 2.2-4.9 4.9-4.9z" fill="#ddb332" stroke-width="none" opacity="1"></path><path id="SvgjsPath28385" d="M118 93.8c1.4 0 2.6 1.2 2.6 2.6S119.4 99 118 99s-2.6-1.2-2.6-2.6 1.2-2.6 2.6-2.6z" fill="#000000" stroke-width="none" opacity="1"></path><path id="SvgjsPath28386" d="m117.4 94.3-.5-.5c-.2-.2-.4-.3-.7-.3s-.5.1-.7.3c-.2.2-.3.4-.3.7s.1.5.3.7l.5.5c.2.2.4.3.7.3.2 0 .5-.1.7-.3.3-.5.4-1 0-1.4zm2.4 4.4c.8 0 .8-1.3 0-1.3s-.8 1.3 0 1.3z" fill="#ffffff" stroke-width="none" opacity="1"></path></g></g></g><g id="svga-group-eyesfront-right"><path id="SvgjsPath28421" d="M118.3 85.5c-6.1 0-11 5.6-11 12.5s4.9 12.5 11 12.5 11-5.6 11-12.5-5-12.5-11-12.5zm7 13.3c-1.7 1.2-6.3 2.9-8.2 2.8-1.9-.1-4.2-.5-5.2-.5-1.1 0-3.1 0-4.1.7 0 0 .6-1.9 2-3.8s3.3-3.9 6.6-4.5c3.3-.6 12.1 2.2 12.1 2.2s-1.4 1.9-3.2 3.1z" fill="#fbd5c0" stroke-width="none" opacity="1" stroke="none"></path><path id="SvgjsPath28424" d="M134.8 93.7c.1-.1 0-.3-.2-.2-2.4 1.5-4.5 1.7-6.8 1.2 1.5-.1 2.9-.8 4-1.9.1-.1 0-.3-.1-.2-1.6 1.2-3.3 1.8-5.2 1.7-.4-.1-.9-.3-1.4-.4 1.4-.1 2.9-.7 3.7-1.9.1-.1-.1-.3-.2-.2-1.5 1.1-2.8 1.8-4.6 1.7-.3-.1-.6-.2-.8-.3 1-.3 2-1 2.5-1.9.1-.1-.1-.3-.2-.2-1 .9-1.9 1.5-3.1 1.8-1.8-.5-3.6-.8-5.5-.5-4.6.9-8.1 4.6-9.4 9.1 0 .1 0 .2.1.2-.1.1 0 .2.1.2 2.7-1.4 5.1-.3 7.8 0 1.8.2 3.5-.1 5.2-.6 1.9-.6 3.9-1.7 5.6-3 .6.2 1.1.4 1.6.7.1.1.2-.1.1-.2-.4-.4-.9-.7-1.4-.8.1-.1.2-.2.4-.3.4-.2.8-.4 1.3-.4.6 0 1.1.1 1.7.3.1 0 .2-.1.1-.2-.6-.5-1.5-.7-2.4-.5.2-.3.5-.6.7-.9 2.3.1 4.4-.4 6.4-2.3zm-18 7.5c-3.1.2-5.9-1-8.8.5 1.3-2.7 3-5.3 5.8-6.8 3.2-1.7 6.9-.8 10.1.2 1.5.5 2.9.8 4.2 1-3.3 2.6-6.8 4.8-11.3 5.1z" fill="#09112e" stroke-width="none" opacity="1" stroke="none"></path></g></g></g><g id="svga-group-facehighlight-single"></g><g id="svga-group-eyebrows-left-move" transform="matrix(1,0,0,1,0,0)"><g id="svga-group-eyebrows-left-rotate" transform="matrix(1,0,0,1,0,0)"><g id="svga-group-eyebrows-left" transform="matrix(1,0,0,1,0,0)"><path id="SvgjsPath28472" d="M72.9 84.2c.1-.2.4-.3.6-.4.2-.1.4-.2.6-.2.4-.2.8-.4 1.2-.5.5-.1 1.2-.5 1.7-.2 1.6-.6 3.7-.2 5.1.6 1.9.2 3.9.8 5.3 1.8.1.1.2.2.2.3.3.1.5.2.8.3 1 .4 2.1.7 3.1 1.2.1 0 .2.1.3.1.3.1.4.7.2.8-.1.1-.1.2-.2.3-.8.6-1.8.2-2.6-.1-.7-.3-1.5-.6-2-1.2-.8-.3-1.4-.7-2.1-1.1-.1 0-.2-.1-.3-.1-1.2-.2-2.5-.7-3.7-1.3-.7-.1-1.3-.3-2-.3-.9-.1-1.8.2-2.8-.1h-.1c-.2.1-.4.1-.6.2-.8.2-1.5.4-2.3.4-.1 0-.2-.1-.2-.2H73s-.2-.1-.1-.3z" fill="#caa478" stroke-width="none" opacity="1"></path><path id="SvgjsPath28473" d="M77.4 82.3c3.1-.2 6.2 1.5 9 2.6 1.7.7 5.2.9 5.9 3 .1.3-.3.4-.5.2-.9-1.2-2.4-1.4-3.8-1.8-1.2-.4-2.3-.8-3.5-1.3-2.4-1-4.8-1.6-7.3-2.2-.1-.1 0-.4.2-.5z" fill="#d9ba97" stroke-width="none" opacity="1"></path><path id="SvgjsPath28474" d="M93.3 87.9c.3-1.4-1.8-1.9-2.8-2.3-2.4-1-4.9-2.1-7.4-2.8-1.5-.4-3.1-.7-4.6-.7-1.2 0-2.3.1-3.5.5-2 .6-3.9 1.8-5.6 3.1-.9.5-1.8 1.2-2.5 1.9-.1.1 0 .3.2.2 0 0 .1 0 .1-.1 0 .1.1.1.2.1 1.5-.7 2.8-1.6 4.3-2.2 1.5-.6 3.1-1 4.7-1.1h.7c1.9 0 3.7.4 5.4 1.2 2.4 1.1 4.6 2.6 7 3.5.4.2.9.2 1.4.2 1.1 0 2.2-.4 2.4-1.5zM78.5 83c1.6 0 3.2.4 4.8.9 2 .7 4 1.6 6 2.4.4.2 2.4.7 2.6 1.2.2.6-.2.8-.8.9-.3 0-.6-.1-.8-.1-.6-.2-1.2-.6-1.7-.9-3.1-1.6-6.3-3.5-9.8-3.7h-1c-1.1 0-2.3.1-3.5.3.5-.2 1-.4 1.6-.6.8-.3 1.7-.4 2.6-.4z" fill="#bb8f5c" stroke-width="none" opacity="1"></path></g></g></g><g id="svga-group-eyebrows-right-move" transform="matrix(1,0,0,1,0,0)"><g id="svga-group-eyebrows-right-rotate" transform="matrix(1,0,0,1,0,0)"><g id="svga-group-eyebrows-right" transform="matrix(1,0,0,1,0,0)"><path id="SvgjsPath28475" d="M127.1 84.2c-.1-.2-.4-.3-.6-.4-.2-.1-.4-.2-.6-.2-.4-.2-.8-.4-1.2-.5-.5-.1-1.2-.5-1.7-.2-1.6-.6-3.7-.2-5.1.6-1.9.2-3.9.8-5.3 1.8-.1.1-.2.2-.2.3-.3.1-.5.2-.8.3-1 .4-2.1.7-3.1 1.2-.1 0-.2.1-.3.1-.3.1-.4.7-.2.8.1.1.1.2.2.3.8.6 1.8.2 2.6-.1.7-.3 1.5-.6 2-1.2.8-.3 1.4-.7 2.1-1.1.1 0 .2-.1.3-.1 1.2-.2 2.5-.7 3.7-1.3.7-.1 1.3-.3 2-.3.9-.1 1.8.2 2.8-.1h.1c.2.1.4.1.6.2.8.2 1.5.4 2.3.4.1 0 .2-.1.2-.2h.1s.2-.1.1-.3z" fill="#caa478" stroke-width="none" opacity="1"></path><path id="SvgjsPath28476" d="M122.6 82.3c-3.1-.2-6.2 1.5-9 2.6-1.7.7-5.2.9-5.9 3-.1.3.3.4.5.2.9-1.2 2.4-1.4 3.8-1.8 1.2-.4 2.3-.8 3.5-1.3 2.4-1 4.8-1.6 7.3-2.2.1-.1 0-.4-.2-.5z" fill="#d9ba97" stroke-width="none" opacity="1"></path><path id="SvgjsPath28477" d="M109 89.3c.5 0 1-.1 1.4-.2 2.4-.9 4.7-2.4 7-3.5 1.8-.8 3.6-1.2 5.4-1.2h.7c1.6.1 3.2.5 4.6 1.1 1.5.6 2.9 1.6 4.3 2.2.1 0 .2 0 .2-.1 0 0 .1 0 .1.1.2.1.3-.1.2-.2-.7-.7-1.6-1.4-2.5-1.9-1.7-1.3-3.6-2.4-5.6-3.1-1.1-.4-2.3-.5-3.5-.5-1.6 0-3.1.3-4.6.7-2.5.7-5 1.8-7.4 2.8-.9.4-3.1.9-2.8 2.3.4 1.2 1.5 1.6 2.5 1.5zm15.2-5.9c.5.2 1.1.3 1.6.6-1.2-.2-2.3-.3-3.5-.3h-1c-3.5.2-6.8 2.2-9.8 3.7-.6.3-1.1.7-1.7.9-.2.1-.5.1-.8.1-.5 0-1-.2-.8-.9.2-.5 2.2-1 2.6-1.2 2-.8 4-1.7 6-2.4 1.6-.5 3.2-.9 4.8-.9.8 0 1.7.1 2.6.4z" fill="#bb8f5c" stroke-width="none" opacity="1"></path></g></g></g><g id="svga-group-nose-single-move" transform="matrix(1,0,0,1,0,0)"><g id="svga-group-nose-single" transform="matrix(1,0,0,1,0,0)"><path id="SvgjsPath28451" d="M94.94 88.27c1.09.9 1.93 1.85 2.34 3.25.46 1.58.01 2.89-.24 4.43-.13.83-.12 1.6.01 2.43.3 1.82.37 3.1-.45 4.84-.89 1.9-1.83 3.6-1.99 5.74-.16 2.17.41 4.19 1.48 6.07.08.15.3.02.23-.13-1.42-3.01-1.47-6.54-.07-9.57.83-1.8 1.93-3.43 1.69-5.5-.18-1.62-.5-2.94-.16-4.61.18-.87.35-1.73.26-2.63-.18-1.86-1.29-3.63-2.92-4.55-.15-.08-.32.12-.18.23z" fill="#cd865f" stroke-width="none" opacity="1" transform="translate(0 2)" stroke="none"></path><path id="SvgjsPath28452" d="M93.24 112.44c-1.27 1.59-2.06 6.22.65 7.01 1.79.52 2.16-2.61 4-1.23.99.74 1.24 2.28 2.78 2.12 1.1-.12 1.64-1.17 2.46-1.75 1.49-1.06 2.77 1.2 4.24.13 2.19-1.59.45-5.37-1.21-6.58-.31-.23-.67.27-.41.53 1.04 1.01 2.38 2.98 1.66 4.56-.88 1.93-2.26.03-3.42.11-1.92.13-2.62 3.5-4.74 1.47-.84-.8-1.73-2.54-3.19-1.71-.17.1-.3.26-.43.4-.16.23-.31.48-.43.73-1.44.21-2.24-.2-2.38-1.24-.48-1.46.09-3.07.65-4.41.07-.13-.14-.25-.23-.14z" fill="#cd865f" stroke-width="none" opacity="1" transform="translate(0 2)" stroke="none"></path><path id="SvgjsPath28453" d="M105.73 88.66c-3.59 2.68-1.04 6.83-1.81 10.38-.03.14.16.23.23.1.63-1.1.51-2.29.3-3.5-.48-2.75-.43-4.56 1.48-6.72.11-.13-.04-.37-.2-.26z" fill="#cd865f" stroke-width="none" opacity="1" transform="translate(0 2)" stroke="none"></path><path id="SvgjsPath28454" d="M103.91 102.3c.7 2.53.9 4.93 1.01 7.53 0 .11.18.15.2.03.41-2.5-.08-5.28-1.03-7.61-.04-.11-.21-.07-.18.05z" fill="#cd865f" stroke-width="none" opacity="1" transform="translate(0 2)" stroke="none"></path><path id="SvgjsPath28455" d="M104.48 108.47c-.12-1.87-.5-4.29-1.95-5.6-.25-.23-.69-.08-.68.28.03 1.79.74 3.49.74 5.31 0 1.52-.87 3.56-.29 4.98.12.3.45.5.76.31 1.55-.93 1.52-3.67 1.42-5.28z" fill="#ffe1d0" stroke-width="none" opacity="1" transform="translate(0 2)" stroke="none"></path></g></g><g id="svga-group-hair-front" transform="matrix(1,0,0,1,0,0)"><path id="SvgjsPath28598" d="M162.6 57.4c-.2-2.8-1.3-5.7-3.2-7.7.2-3-.9-6-3.1-8.3-.4-.4-.9-.8-1.3-1.1-.9-1.8-2.4-3.4-4-4.6-2.8-6.5-8.6-12-15.2-9.1-3.9-2.5-10.2-2.3-11.8 2.4-4.2 1.4-7.5 5.5-7.3 9.7-5.3-2.4-12.3-1.5-17.2 1.5-4.3-2.8-10.1-3.6-15.5-2.6-.3-2.7-1.5-5.3-3.7-7.1-.8-3-3-5.8-6.1-7-4.3-1.8-8.6-1-12.3 1.2-3.5 1.2-6.6 3.9-8 7.2-1.5.5-2.8 1.3-4 2.3-.6.5-1.1 1.1-1.6 1.7h-.1c-4.3 2.4-7.3 7.2-6.4 12.3 0 .3.1.6.2.9-.1.2-.2.5-.3.7-3.2 3-5.6 6.7-4.8 11.3.4 2.7 2.1 5.1 4.5 6.1.2.3.5.6.7.9 1.1 1.1 2.6 1.7 4 1.6 1.2 1.4 2.9 2.4 4.9 2.7 1.1.2 2.2.1 3.2-.2-.8 6.8.5 14.1 3.9 18.7.1.2.3.2.4.1.7 1.3 1.4 2.6 2.2 3.8-.1.9-.4 1.9-.8 3-.3.9-.5 1.7-.4 2.7.2 2.8 2.4 4.9 2.8 7.7 0 .2.4.2.4 0 .6-3.5-2.2-6.4-1.2-9.9.4-1.4.8-2.7.8-3.9.4-2 0-4.4-.6-6.6.3-.1.5-.4.4-.7-.1-.2-.1-.5-.2-.7.2.2.8.2.7-.2-.1-1-.3-1.9-.5-2.9v-.6c.1-.1.2-.3.2-.5-.1-.7-.2-1.4-.4-2.1.1.1.3.1.5.1.1.1.1.2.2.3.2.3.6 0 .5-.3-.1-.3-.2-.5-.3-.8v-.6c.4.2.9-.1.8-.6-.1-.4-.2-.8-.4-1.2.3.2.7-.1.6-.5l-.3-1.2c.5.2 1.1-.2.9-.8l-.3-.9.4.4c.3.3.8-.2.7-.5 0-.1-.1-.2-.1-.4.7.3 1.4-.6 1.1-1.3-.2-.5-.5-1.1-.7-1.6.1.1.1.2.2.3.2.3.7.1.6-.2 0-.1-.1-.2-.1-.3.1.2.3.3.4.4.4.4 1.2 0 1.1-.5.7.4 1.6-.3 1.2-1.2-.3-.7-.7-1.4-1-2.1l1.2 1.5c.1.2.3.2.4.2.1.1.2.2.3.4.4.4 1.2-.1.8-.6-.5-.7-1-1.4-1.5-2.2-.1-.1-.1-.2-.2-.3.2.2.3.5.5.7.2.2.5.3.7.2.3.1.8-.3.5-.7-.1-.1-.1-.2-.2-.4.5.4 1 .7 1.5 1 .5.3 1.3-.3.9-.9-.2-.2-.4-.5-.5-.7.2 0 .4-.2.4-.4.2.1.5.2.7.3.7.2 1.1-.7.7-1.1-.3-.3-.6-.6-.9-.8.7.3 1.3.5 2 .6.6.1.9-.6.4-1-.1-.1-.2-.2-.4-.3.4.1.8.2 1.1.3.7.1 1-.7.4-1.1h.2c.2 0 .3 0 .4-.1.2.2.4.3.6.5.7.6 1.8-.4 1.1-1.1-.1 0-.1-.1-.2-.2.3.3.7.5 1 .8.4.3.9-.4.6-.8l-.6-.6c.5.1 1 .2 1.4.3h.2c-1.2 1-2.2 2.5-2.5 4-.1.3.4.5.5.2.8-1.6 1.8-3 3.4-3.9.9-.5 1.8-.7 2.6-.8h.5c-1.7 1.5-3 3.7-3.4 6-.3 1.9 0 3.7.3 5.5 0 3.4.5 7 .2 10 0 .2.3.2.3 0 .7-2.2.8-4.4.8-6.7.5-2 .2-3.9.2-5.8.3-2.4 1-4.6 2.7-6.7 0 0 .1-.1.1-.2 1.3-1.2 2.8-1.7 4.4-1.9-.6.3-1.1.7-1.5 1-1.8 1.6-2.9 4.2-3.2 6.7-.8 3.6-.7 7.5-1.1 10.9 0 .2.3.2.3 0 1.5-3.9 1.7-12 4.5-16 1.8-1.9 4.2-2.4 6.7-1.8h.3c.1 0 .2 0 .2.1h.2c.2.1.3.1.5.2.3.4.9.6 1.5.3.1.2.3.2.4.1 2.8-1.8 7.9-2.5 8.6 2 .4 2.4-1.3 4.6-.7 7.1.1.2.4.2.5 0 .7-3.5 3.4-7.3.3-10.4h.1c.5-.1 1-.2 1.6-.3-.2.5.3 1.2.9 1 1.1-.2 2.4-.6 3.7-.9l-.9.6c-.8.5-.3 2.1.7 1.7l3.6-1.5c-.6.4-1.3.8-1.9 1.3-.6.4-.1 1.2.6 1 .4-.2.9-.4 1.3-.6.1.3.4.6.8.5.1 0 .2 0 .2-.1-.2.6.2 1.3.9 1 1-.4 1.8-.9 2.7-1.5-.5.6-1.1 1.2-1.6 1.8-.6.6.2 1.6.9 1.2h.1l-.2.2c-.5.5.2 1.4.8 1 .6-.3 1.2-.7 1.7-1.1-.1.2-.3.4-.4.6-.4.6.4 1.1 1 .7h.1c-.1.6.6 1.1 1.2.6.5-.5 1.1-1 1.7-1.6-.5.6-1.1 1.3-1.7 1.9-.5.5.2 1.5.8 1.1.8-.5 1.6-1.2 2.4-1.9-.6 1.1-1.2 2.1-1.7 3.2-.3.6.4 1.3 1 .8s1.1-1.1 1.6-1.7c-.5.8-1 1.5-1.3 2.3-.2.5.2 1 .7.7.2-.1.4-.2.6-.4.1.5.8.8 1.2.3 1.5-1.7 2.8-3.4 3.9-5.5.1-.2.2-.3.3-.5-.3.7-.6 1.5-.9 2.2-1 2.1-2.4 4-3.9 5.8-.4.5.1 1.5.8 1 .9-.7 1.8-1.5 2.6-2.5-.9 1.7-2 3.2-3.2 4.6-.5.6.3 1.4.9.9 1.2-1 2.3-2.2 3.1-3.5-.7 1.8-1.5 3.5-2.4 5.3-.3.5.4 1.1.8.6 1.1-1.2 2.1-2.7 3-4.2-.7 1.7-1.4 3.3-2.2 4.9-.2.4.2.9.6.8-.2.3-.4.5-.6.8-.4.6.4 1.1.9.7.4-.3.9-.8 1.3-1.2-.5 1-.9 2-1.2 3.1-.2.6.6 1 1 .6.1-.1.1-.2.2-.2-.4.8-.7 1.6-1.1 2.4-.2.5.2.9.6.7-.1.3-.1.5-.2.8-.1.3-.3.6-.4.9-.1.3-.1.7.2.9v.2c-.5 2.2-.6 4.5-.2 6.7 0 .1.1.2.1.2v.6c-.4 1.8-.4 3.6-.1 5.5.6 3.6 2 6.2 1 10-.7 2.6-1.4 4-.4 6.6.1.2.4.2.4-.1-1.1-4.6 2.4-8.1 1.8-12.6-.3-2.3-1.3-4.5-1.2-6.9.1-1.8.6-3.4 1.2-5.1 1.2-1.3 2.1-3.4 2.5-5.3 2.1-4 3.8-8.5 4.2-12.9 1.7.3 3.6-.3 4.8-1.6 1.1-1 1.7-2.4 2-3.9.5-.5.9-1.1 1.3-1.8 2.1 1 4.1-.4 5.4-2.4 3.6-1.8 3.9-7.6 3.5-11.1zm-122.2-1c-.4 1.6-.6 3.1-.5 4.6-.5-1.7-.2-3.6.5-5.5v.9zM45.8 44c0-.4.1-.8.2-1.2v1c0 .1-.1.1-.2.2zm3.4-5.7c0 .1-.1.1-.1.2.1-.2.2-.5.4-.7-.2.2-.3.4-.3.5zm10.1 50.1c-.1-.3-.3-.7-.4-1 .2.3.3.6.4 1zm.6-3.2c.1.3.2.6.4.8.1.5.3.9.4 1.4-.3-.7-.6-1.5-.8-2.2zm2.3-54.8h-1.3.1c.5-.1 1.1-.2 1.6-.2-.2 0-.3.1-.4.2zm3.9-3.4c-.5-.1-1-.1-1.5-.1.3 0 .6-.1.9-.1h.6v.2zm10.3 4.5c-.2 0-.3-.1-.5-.1 0-.1 0-.1-.1-.2l.6.3zm-1.6-4.1c-.2 0-.4-.1-.6-.1-.2-.3-.5-.6-.8-.8.5.3 1 .6 1.4.9zm-2-1.2c-.2 0-.3-.1-.5-.1l-.1-.1c.2.1.4.1.6.2zm9.3 33.5v-.2c.3.1.5-.1.5-.3.1 0 .1 0 .2.1-.2.1-.5.2-.7.4zm10.2-6.3c.2.1.3.2.5.2-.1 0-.3-.1-.5-.2zm4.4-10c-.1 0-.2-.1-.2-.1h.3s0 .1-.1.1zm11.8-1.1s0-.1 0 0c0-.1 0-.1 0 0 0-.1 0 0 0 0zm14.2-10.4c-.8.3-1.7.8-2.4 1.4.8-1.2 1.9-2.1 3.1-2.8-.3.4-.5.9-.7 1.4zm2.5-.5c.1-.2.2-.3.3-.4-.1.1-.2.3-.3.4zm5.6-3.3c-.9-.4-2-.5-2.9-.5-.2 0-.4.1-.7.1 1-.6 2.2-.8 3.4-.6.5.1 1 .2 1.4.4-.3.1-.8.3-1.2.6zm4.7 5.5c-.3-.3-.5-.7-.9-1v-.1s.1 0 .1.1c.4.3.7.6 1 1-.1-.1-.2-.1-.2 0zm1.2 61.2zm.3-1-.1.1v-.2c.1 0 .1 0 .1.1zm3.2-62.4c-.5-.5-1.1-.9-1.7-1.3.8.4 1.6.8 2.4 1.3h-.7zm2.9-1.9c-.5-.3-1-.6-1.6-.9 1.3.5 2.5 1.4 3.6 2.4-.6-.6-1.3-1.1-2-1.5zm2.6 46.7v-.6c.9 0 1.7-.1 2.5-.4-.7.7-1.6 1.1-2.5 1zm8.6-16c-.3-1.4-.6-2.9-1.1-4.4 0-.3-.1-.5-.1-.8.4.8.6 1.7.9 2.6 0 .3.2 1.4.3 2.6zm1.6-15.3v-.1c.1.2.2.3.3.5-.1-.1-.2-.3-.3-.4z" fill="#caa478" stroke-width="none" opacity="1" stroke="none"></path><path id="SvgjsPath28599" d="M151.8 70.8c-.5 1.7-1.6 3.3-3.6 3.5-1.9.3-3.6-.8-4.4-2.5v-1.4c0-.1 0-.1-.1-.1 1.9 1.3 4.1 1.8 5.8-.6.2-.3-.2-.6-.4-.3-4.1 3.9-9.4-4.6-10.9-7.3-2-3.5-3-7.3-2.6-11.4 0-.3-.5-.4-.6-.1-.1.6-.2 1.2-.2 1.7-.2-1.2-.4-2.5-.4-3.7h.9c.1.7.4 1.5.9 2.1.8 2.4 2.6 4.4 5 5.1 2.4.7 5.4-.3 5.4-3.2-.1-4.5-7.4-12.7-11.6-8.5.9-3.1 3.2-5.6 7.1-6.2 1.6 1.7 3 3.6 4.2 5.6 1.2 2.1 2.2 4.3 3 6.6 1.1 3.3 3.4 13.6-4.6 12.1-.4-.1-.6.5-.2.6 7.6 2.7 7.2-7.8 5.9-12.3-1.4-4.8-3.9-9.3-7.3-12.9.2-.2.2-.5-.1-.6h-.4c-1.9-1.9-4.1-3.6-6.4-5-.2-.1-.4.2-.2.3 1.9 1.4 3.6 2.8 5.2 4.4-6.1-.4-9.9 4.6-9.9 9.8-1.9-.9-3.7-2.2-4.9-4.2-2-3.1-3.5-10.3 1.9-11 .2 0 .2-.3 0-.3-4.9.4-5.3 5.8-3.9 9.5 1.2 3.4 3.8 6 7 7.2v.1c-7.2-.2-13.1-6.7-10.7-14.5.1-.3-.4-.4-.5-.1-1.5 4.5-.3 8.9 2.4 11.9-2.3-1.8-4.1-4-5.1-7-.1-.3-.6-.2-.5.2.1.4.2.7.3 1.1-2.3-1.4-5.3-1.9-7.9-.9-.3.1-.3.7.1.7 2.8-.4 5.2-.3 7.8 1.1.1.1.2.1.3 0 .2.4.3.7.5 1.1-3.9-1.5-8.6-1.5-12.4.3-.4.2-.1.8.3.7 4.2-1.1 7.8-1.4 12-.3.2 0 .3 0 .3-.1.7 1.2 1.6 2.4 2.6 3.3-.7-.1-1.6-.3-2.2-.1-.3.1-.2.5 0 .6.4.1.8.1 1.2.2h1.3c.1 0 .2-.1.2-.2.9.7 1.8 1.3 2.9 1.7.2 0 .3 0 .3-.1.4.3.9.5 1.3.8-2.4-.4-5 .3-7.2 1.3-.2.1-.1.5.2.4 2.6-.7 5.1-.7 7.7-.8.2 0 .3-.2.3-.4 1.4.5 2.9.7 4.5.6.4 1.9 1.4 3.8 3.1 5.2 0 0 .1 0 .1.1.1.2.1.4.2.6v.1l-.1-.1c-1.3-.4-2.4-.6-3.5-1.4-1.2-.8-2.1-2-2.6-3.4-.1-.3-.5-.2-.4.1.1.2.1.5.2.7-1.4-.2-3.1-.3-4.3.4-.3.2-.2.7.2.6 1.4-.1 2.8-.4 4.2-.4.1 0 .2 0 .2-.1 1 2.1 3.1 4.1 5.5 4.2-1.7 1.6-3.3 3.3-4.9 5-.2.2.1.5.3.3 1.8-1.6 3.4-3.3 5-5.1.1-.1.1-.2 0-.2h.1c.1 0 .2-.1.3-.2.2 1.4.5 2.7 1 4-.8 2.5-2 4.6-3.5 6.7-.2.2.2.5.4.3 1.7-1.6 2.9-3.9 3.4-6.2.3.7.7 1.5 1.1 2.2-.6 1.4-1.2 2.8-1.9 4.2-.8 1.5-1.7 2.8-2.5 4.2-.2.3.3.7.6.4 2-2.1 3.6-5 4.4-7.9.4.6.7 1.1 1.1 1.7-1.2 2.5-2.4 5.1-3.3 7.8-.1.3.4.5.5.2 1.2-2.4 2.2-5 3.2-7.5.2.3.5.7.7 1-.2-.1-.4-.1-.4.2-.4 3.1-1.5 5.7-2.8 8.4-.2.4.3.7.6.3 1.9-2.5 2.6-5.6 2.8-8.7v-.1c.1.1.2.2.3.4.6.7 1.3 1.6 2.2 2.3-.3 2.8-1 5.3-1.9 7.9-.1.3.3.5.5.2 1.2-2.4 2-5 2.1-7.6.1.1.2.2.4.3-.1 0-.3 0-.3.2-.4 4.1-1.3 7.5-2.8 11.3-.1.3.4.6.6.2 1.6-2.7 2.4-6 2.6-9.1.1.2.2.3.3.5l-.1.1c-.9 6.1-2.6 11.5-5.4 17-.2.3.3.6.5.3l1.8-3c-.2.5-.4 1-.5 1.5-.1.2.3.4.4.2 1.7-3.4 2.7-7.2 3.2-11 .3-1.6.4-3.1.5-4.7 1 1 2.3 1.6 3.8 1.4 2.1-.3 3.9-2.1 4-4.3-.2-.5-.7-.5-.8-.2zm-6.5-19.6c1.3 4.2-2.7 4.7-5.4 3.1-.2-.2-.5-.3-.7-.5 2.2 1.2 5.4.6 5.6-2.3 0-.3-.4-.3-.5-.1-1 2.6-4 2.2-5.7.6-.5-.5-1.2-1.2-1.7-2.1-.1-.2-.1-.4-.1-.5 0-.2-.2-.3-.3-.3-.1-.1-.1-.3-.1-.4.3-.1.3-.6-.1-.6h-.1c-.1-.6 0-1.1.3-1.6.1-.2-.2-.5-.4-.3-.3.4-.5.8-.6 1.3-.3.1-.6.2-.9.2 0-.8.1-1.5.3-2.3 4.1-4.1 9.2 1.8 10.4 5.8zm-12.6-7.8c1.2-2.8 3.5-4.5 6.2-5.3-1.8 1-3.2 2.5-4.2 4.4-.8 1.6-1.2 3.3-1.2 5-.5-.1-1-.3-1.4-.5 0-1.2.1-2.4.6-3.6zm-.4 5.5c.4-.1.8-.2 1.2-.2.1 1.4.4 2.9.8 4.3-.9-1.3-1.6-2.6-2-4.1zm27.8 7c-.1-.3-.6-.2-.6.1.1 4.1.4 11.3-5.4 11.4 2.6-2.8 2.1-8.7 1.7-11.8-1.2-9.5-7.1-18.7-15.8-22.9-.3-.1-.5.2-.2.4 5.6 3.5 10.1 8 12.8 14 1.5 3.3 2.4 6.9 2.6 10.5.1 1.2 0 2.3-.1 3.5-.1 1.1-.2 2.2-.5 3.3-3.8 2.7-6.8 2.8-9.1.3-.3-.2-.7.1-.4.4 1.9 2.2 5.1 5 8.2 3 .1-.1.2-.1.3-.2l.1.1c6.7.8 7.3-7.5 6.4-12.1zm-26.6-22.5c-1.9 1.4-2.9 4.8-1 6.7.2.2.7 0 .6-.3-.4-1-.8-1.8-.7-2.8.1-1.2.6-2.3 1.4-3.1.2-.2 0-.6-.3-.5zm-8.5-1.5c.6-3.7 3.9-5.7 7.6-4.8 2.9.8 4.9 3.1 6.6 5.5.2.3.8 0 .6-.3-1.8-3.5-5.1-6.6-9.4-6.4-3.2.2-5.8 2.6-5.7 5.9 0 .3.3.3.3.1zm3.6 1.7c-1.3 2.7-.6 6.6 2.3 7.9.3.1.6-.2.4-.5-2.1-1.8-3.2-4.4-2-7.1.2-.3-.4-.7-.7-.3zm12.5 36.2c-.1.2-.2.3-.3.5-.1.1 0 .2 0 .3-1.2 3.6-2.5 7-4.1 10.5-.2.5.4.8.7.4 2.3-3.2 3.9-7.5 4.5-11.5 0-.4-.7-.6-.8-.2zm-7.1-11c-1.1 1.7-2.4 3.2-3.8 4.7-.1.2.1.4.2.2 1.5-1.3 2.8-3.1 3.9-4.8.2-.2-.1-.4-.3-.1zM77.5 44.2c-1.7 1.4-3.6 2.5-5.7 3.4-.2.1 0 .3.1.3 2.3-.8 4.5-1.9 6.3-3.5 1.5.2 3.2.5 4.6.4.1 0 .1 0 .1-.1 4.1 1.4 8.1 3 11.8 5.3.2.1.3-.2.2-.3-3.6-2.6-7.6-4.7-12-5.7h-.1c-.3-.1-.7-.2-1-.2h-.1c-.9-.1-1.8-.1-2.7-.1l.6-.6c-.1.2 0 .5.2.4 2-.1 3.9 0 5.9.2.4 0 .4-.5.1-.6-1.8-.7-4.2-.7-6.1-.1-.1 0-.1.1-.1.1.3-.3.6-.6.9-1 0 .1.1.3.3.3 1 0 2 0 3.1.1 0 .1.1.1.2.1 4.5.2 8.5 1.4 12.2 4 .2.2.4-.2.2-.4-2.2-1.7-4.8-3-7.5-3.7.1-.1.1-.4-.1-.4-2.6-.8-5.3-.8-8-.5.3-.3.5-.6.7-1 2.5-.4 4.8-.2 7.3 0 .3 0 .4-.5.1-.6-2.2-.8-4.7-.7-7-.1.3-.5.6-.9.9-1.4.1-.2-.2-.5-.4-.2-1.2 2-2.8 3.7-4.5 5.2h-.3c-.2.2-.3.5-.2.7zm5.8-4.7c3.1 0 6 0 9.1.5.3 0 .4-.3.1-.5-.9-.4-1.9-.6-2.9-.8.3 0 .6 0 .9-.1.2 0 .2-.3 0-.3-1.9-.2-3.8-.2-5.7 0-.2 0-.2.3 0 .4-.5.1-1.1.2-1.6.4-.3 0-.2.4.1.4zm32.2 4.1c.9.3 2 .3 2.9.4.3 0 .4-.5.1-.6-.9-.2-2-.5-2.9-.4-.3.1-.4.5-.1.6zm-25.1-2.7c2.4.5 4.8 1.2 7 2.2.2.1.4-.2.2-.4-2.3-1.1-4.7-1.8-7.2-2.1-.1.1-.1.3 0 .3zM39.2 61.8c-.9-2.9-.1-6.8 2.9-8.2.2-.1.1-.4-.2-.4-3.2.9-4.3 4.8-3.8 7.8.5 3.2 2.8 5.6 5.8 6.5.2.1.4-.3.2-.4-2.2-1-4.2-2.8-4.9-5.3zm14.5 7.9c-1.9.7-4 .7-5.7-.6-.3-.2-.7.2-.4.4 1.7 1.5 4.3 1.9 6.2.5.2-.1.2-.4-.1-.3zm8.8-41.6c2.9.5 5.1 2.8 5.9 5.6.1.2.3.1.3 0-.4-3.1-3-5.5-6.1-5.9-.2-.1-.3.2-.1.3zM50.2 40.2c-2.3 3.5-.5 9.3 4.3 9.1.4 0 .6-.7.1-.8-1.6-.5-3-1-4-2.5-1-1.7-.9-3.8.1-5.4.3-.5-.3-.8-.5-.4zm9 25.6c-1.1 4.2-.8 8.4 1.1 12.3.1.2.4.1.3-.1-1.3-3.9-1.7-7.9-.9-12.1.1-.3-.4-.5-.5-.1zm-3.9 3.6c-.1.8-.2 1.6-.2 2.4-.1 0-.1.1-.1.2-.5 5.1.8 10.4 4.3 14.3.2.3.7-.1.5-.4-1.6-2.4-2.8-4.7-3.5-7.3.7 2 1.8 3.8 3.2 5.4.3.3.8-.1.5-.4-2.9-4.4-4.5-8.7-4.2-14.1.1-.3-.5-.4-.5-.1zm-.7 6.3c0-.2-.3-.1-.3 0 .3 4.9 2.4 9.9 6.2 13 .2.2.5-.1.3-.3-3.2-3.7-5.5-7.6-6.2-12.7zM63.2 61l1.2-1.8c.2-.3-.2-.5-.4-.2-.1.1-.1.2-.2.2.1-.2-.1-.3-.2-.4.1-.5.3-1 .5-1.4.1-.2-.3-.4-.4-.2-.4.7-.7 1.5-.9 2.3-.7 1-1.4 2-2.2 2.9-2.1 1.7-4.5 2.7-7.3 2.8-5 .1-8.9-3.4-9.7-8.3 0-.3-.5-.2-.5.1.3 4.9 3.9 8.5 8.8 9.1 1.9.2 3.7-.1 5.4-.7-1.4.9-3.1 1.6-4.9 1.9-6.1.8-11.6-4.1-9.7-10.4.1-.2-.2-.3-.3-.1-2.2 5.1 1.1 10.4 6.4 11.4 3.5.7 6.7-.3 9.3-2.2-.3.7-.5 1.3-.6 2v-.4c0-.3-.5-.3-.5 0-.4 5.3.7 10.7 3.7 15.1.2.2.5 0 .4-.2-1.9-4.2-3.1-8.3-3.5-12.8.1 0 .2 0 .2-.1.3-1.5.6-2.9 1.2-4.3.5-.4.9-.8 1.4-1.3-.8 3-.7 6.4.5 9.2.2.4.7.1.7-.3-.6-3.5-.8-6.6-.1-10.1v-.1l.9-.9c-.2 2.4.3 4.8 1.7 6.8.2.3.7.1.6-.3-1.1-2.4-1.7-4.8-1.5-7.3zm2.1-8.9s0-.1-.1-.1v-.1c2.2-1.8 3.9-3.9 5.2-6.3v.5c0 .2.3.2.3 0 .1-.4.1-.9.1-1.3 2.7-5.7 2.7-12.5-.4-18.4-.1-.2-.6-.1-.5.2 2.2 5.4 2.5 10.8.9 15.7-.3-3.6-1.8-7.1-4.2-9.8-2.4-2.6-6.1-4.6-9.1-1.8-.3.3.1.7.4.4 4.1-3.7 8.7 2.1 10.4 5.2 1.2 2.2 1.8 4.6 2 7.1-1 2.6-2.6 5.1-4.8 7.3.2-.8.3-1.7.4-2.6 0-.3-.5-.4-.5-.1-.3 2.1-1.1 3.9-2.2 5.5.1-.6.2-1.2.3-1.7 1.9-3 2.6-6.8 1.2-10.2-.1-.2-.5-.2-.4.1.8 3.2.7 6.3-.8 9.1 0-.9-.1-1.7-.3-2.5 0-1.8-.5-3.5-1.3-5.1 1.1-1 2-2.2 2.6-3.5.1-.2-.2-.4-.3-.2-.7 1.1-1.6 2.2-2.6 3.1-1.8-2.9-4.8-5.1-8.6-5.4-.2 0-.2.3 0 .3 3.7.9 6.4 3 7.9 5.7 0 0-.1.1-.2.1-2-2.4-5-4-8.2-4.2-.1-2 .7-4 2.2-5.5.1-.1 0-.2-.1-.1-1.7 1.4-2.7 3.5-2.8 5.6-1.1 0-2.2.1-3.4.4-.2.1-.1.3.1.3 1.2-.2 2.3-.3 3.3-.2.1 1.6.9 3.2 2.4 4.3 2.2 1.6 4.4 1.4 6.2.3.8 1.1 1.5 2.4 1.9 3.7.1 1.8-.2 3.7-1 5.6-2 1.5-4.1 2.7-6.4 3.2-4.5-3.5-7.2-8.9-6.4-14.8 0-.3-.6-.4-.6-.1-.9 5.8 1.3 11.8 6.1 15-1.9.2-3.8-.2-5.8-1.4-5.5-3.4-5.5-10.4-1.8-15.1.2-.3-.1-.7-.4-.4-3.5 3.1-4.4 7.8-2.9 11.8-.2-.1-.5.1-.3.3 4.4 10 17.8 9.5 22 1 .1.6.3 1.2.4 1.8 0 0-.1 0-.1.1-1.1 3.5-.8 7.4 1.4 10.4.2.3.6 0 .4-.2-1.5-3.2-2.2-6.3-1.6-9.8.9 3.2 2.5 6.3 4.9 8.4.3.3.9-.1.7-.5-2.4-3.4-4.5-6.7-5.6-11.1zm-10.2-8.5c-1.5-.9-2.4-2.3-2.6-3.8 3 .4 5.6 1.9 7.5 4-1.5.8-3.1.9-4.9-.2zm6 .3s.1 0 0 0c.1 0 .1.2.2.2l-.2-.2zm1.7 8.3c-.1.1-.2.3-.3.4-.1.1.1.3.2.2 0 .5-.1 1.1-.2 1.7-.7.8-1.5 1.5-2.4 2.1.8-.7 1.5-1.5 2-2.5.1-.1 0-.3 0-.5.3-.6.6-1.3.8-2-.1.3-.1.5-.1.6zm3.8 1.4c.7 2.3 1.7 5.1 3.5 6.8.3.3.8-.1.6-.4-.6-1-1.3-2-1.9-3-.6-1.1-1.2-2.3-1.6-3.5-.2-.4-.7-.3-.6.1zm5.6 1.3c-1.2-1.3-2.3-2.7-3.7-3.7-.3-.2-.7.2-.5.5.8 1.4 2.1 2.6 3.1 3.8 1.2 1.3 2.3 2.8 3.7 3.9.4.3 1-.1.7-.5-.9-1.4-2.2-2.7-3.3-4zm-2.8-4.7c-.1 0-.1 0 0 0 5.8-5.1 12.4-18.2 4.5-23.4-.2-.1-.5.2-.3.4 7.3 6.7-.5 18.7-6 23.5-.3.3.1.8.4.6l.9-.6c0 .1.1.2.2.2 2.6 1.6 4.7 3.7 6.8 5.9.2.3.7-.1.5-.4-1.7-2.9-4.2-4.9-7-6.2zm4.3-2.2c-.2 0-.2.4.1.4 2.9-.1 5.2.6 7.8 1.8.4.2.6-.3.3-.5-2.3-1.8-5.5-2.2-8.2-1.7zm11.3.5c2.5 1 4.8 2.2 7.1 3.7.1.1.2-.1.1-.2-2.2-1.7-4.6-2.9-7.2-3.8 0-.1-.1-.1-.1-.2-2.4-1.5-5.4-2-8.1-2.1-.3 0-.4.5-.1.5 2.8.4 5.3 1.3 7.9 2.1.2.1.3 0 .4 0zm-2.9 4c-2.9-2.4-6.7-3.5-10.4-3.5-.3 0-.3.5 0 .5h.1c-.1.1-.1.3.1.4 2.6 1 5.3 2.2 8 3 .2.1.4-.3.2-.4-2.5-1.1-5.2-2.1-7.8-3 4.1.4 7.5 2 10.8 4.4.1.1.2 0 .3 0 3.3 1.9 6.9 3.5 10.5 4.7.2.1.4-.3.2-.4-4.3-1.8-8.2-3.6-12-5.7zm-6.1-.4c-.3-.1-.5.2-.2.4 3.3 2.2 6.9 4 10.5 5.8.2.1.4-.2.2-.3-3.5-2-6.9-4.2-10.5-5.9zm.7 2.9c-.3-.1-.6.2-.3.4 1.6 1.5 3.7 2.5 5.5 3.7.2.1.4-.2.2-.4-1.7-1.2-3.4-2.7-5.4-3.7zm41.3-4.1c-5.7 1.1-12.6 3.7-17.1 7.5-.2.1 0 .3.2.2 2.8-1.2 5.4-3 8.3-4.2 2.8-1.2 5.8-2.1 8.8-3 .3-.1.1-.6-.2-.5zm-16.8 3.7c4.6-2.3 9-3.6 14-4.3.2 0 .2-.4-.1-.4-5 0-10.1 1.6-14.2 4.4-.1.1.1.5.3.3zm.1-2.7c3.9-1.9 7.8-2.9 12-3.6.2 0 .2-.4-.1-.4-4.3 0-8.5 1.5-12.2 3.7-.1.1.1.4.3.3zm.8-4c3.8-1.3 7.6-2.1 11.4-3 .2 0 .2-.4-.1-.4-3.9.5-7.8 1.7-11.4 3.2-.1.1 0 .2.1.2zm21.6 5.7c-4.2 1.9-8.4 3.9-12.7 5.5-.2.1-.2.5.1.4 4.5-1.3 8.9-3.1 12.9-5.5.2-.2-.1-.6-.3-.4zm2.4 1.6c-2.9 1.5-5.8 3.3-8.8 4.8-.3.1 0 .5.2.4 3.1-1.3 6.1-2.7 8.7-4.8.4-.2.2-.5-.1-.4zm1 3.3c-1.8 1.2-3.6 2.5-5.4 3.7-.3.2 0 .8.3.5 1.8-1.3 3.6-2.6 5.3-4 .2 0 0-.3-.2-.2zm-32.4-4.8c-.2-.1-.4.3-.2.4 1.1.9 2.5 1.8 3.8 2.5.5.2.8-.4.4-.7-1.3-.9-2.6-1.7-4-2.2zm1.1 3.3c-.2-.1-.3.2-.1.3.7.5 1.7.9 2.4 1.4.2.1.4-.2.2-.3-.7-.6-1.6-1.1-2.5-1.4zm.4-5.2c-.2 0-.4.2-.2.4.7.8 1.8 1.2 2.7 1.7.3.2.5-.3.3-.4-.9-.6-1.8-1.4-2.8-1.7zm.9-.2c.4.3.9.5 1.3.7.4.2.7-.4.3-.6-.5-.2-.9-.5-1.4-.5-.1 0-.4.2-.2.4zm1.3-2.1c.2.2.6-.1.4-.3-.2-.3-.4-.6-.6-.8-.2-.1-.5 0-.4.2.2.4.4.6.6.9zm0-2.4c-.2-.2-.4.1-.3.3.2.2.3.4.5.6.2.2.6-.1.4-.4-.2-.1-.4-.3-.6-.5zm.1-1.8-.3-.3c-.1-.1-.3 0-.2.1 0 .2 0 .3.1.5 0 .4.8.1.4-.3z" fill="#bb8f5c" stroke-width="none" opacity="1" stroke="none"></path><path id="SvgjsPath28600" d="M60.1 51.2c.1-.2-.2-.5-.3-.3-2.2 2.4-5.5 3.7-8.7 2.6-3.6-1.2-5.3-5.4-4.5-8.9.1-.4-.5-.5-.6-.2-2.5 8.6 9.2 14.6 14.1 6.8zm-2.6 8.1c.2-.2-.1-.6-.3-.4-3.5 2.3-9.3.3-11.1-3.4-.1-.2-.5-.1-.4.2 1.5 3.9 8.4 6.9 11.8 3.6zm1.6-.1c.2-.2-.1-.6-.3-.4-2.9 1.8-6 3.6-9.3 1.6-.2-.1-.4.2-.2.4 3.2 2.2 7.2.9 9.8-1.6zm0 1.9c.1-.2-.2-.5-.4-.3-1.5 1.8-3.4 2.9-5.8 2.2-.3-.1-.4.3-.1.4 2.3.7 5.3-.1 6.3-2.3zm-2.3-24c3.4-1.5 6.2 1.2 7 4.3.6 2.1.9 5.8-.7 7.5-.2.2.1.6.3.4 1.3-.8 1.7-2.6 1.7-4.5 2.4-4.1-.9-8-4.2-10.3-.2-.2-.5.2-.2.4 2.9 2.2 5.4 5.3 4.3 8.9-.1-1.6-.6-3.2-1-4.2-1.3-3-4.5-4.7-7.5-3.1-.2.3 0 .7.3.6zm2.9-4.1c7 2.1 9.7 8.9 7.3 15.5-.1.3.3.5.5.2 3.4-6.7-.7-14.3-7.7-16.1-.3-.1-.4.3-.1.4zm7.2-6.7c3.4 1.4 3.9 5 4.2 8.3 0 .3.4.3.5 0 .3-3.6-.9-7.6-4.6-8.8-.3-.1-.4.4-.1.5zM60 27.4c2.5-1.1 4.3.8 6 2.2.2.2.6 0 .4-.3-1.5-2.1-4.2-3.6-6.7-2.3-.2.1 0 .5.3.4zm16.5-1.1c-.1-.2-.3 0-.2.1 4.9 8.5 1.8 18.2-6.6 22.8-.2.1 0 .3.2.3 9-4.1 11.8-14.7 6.6-23.2zm1.3 16.1c-.1.2.2.4.3.2 1.9-1.9 3.6-4.4 3.1-7.2 0-.2-.3-.2-.3 0 .2 2.9-1.5 4.9-3.1 7zm-22.5 4.7c.2 0 .3-.2.1-.3-2.2-1.1-4.8-3-3.9-5.8.1-.3-.3-.4-.4-.1-1 2.9 1.3 5.6 4.2 6.2zm-1.1 18.2c-4.5.5-10.9-.7-10.8-6.5 0-.2-.3-.2-.3 0-.4 6.2 6.3 8 11.2 6.9.2-.1.2-.4-.1-.4zm14.7-12.2c-.2-.2-.5 0-.4.2 1.4 2.5 2.9 5.2 5.1 7.1.2.2.5 0 .3-.3-1.6-2.3-3.5-4.5-5-7zm.4 3.1c-.1-.2-.5 0-.3.2 1.3 2.1 2.5 4.2 4 6.1.1.2.4 0 .3-.2-1.2-2.1-2.6-4.1-4-6.1zm-2.8 3.1c-.2-.2-.5 0-.3.2 1.2 2 2.2 4.3 3.7 6.1.2.2.5-.1.4-.3-1-2.1-2.5-4.1-3.8-6zm-2.9 3.5c.5 2.1 1.3 4.4 2.6 6.1.2.2.6.1.5-.2-.8-2-1.9-3.9-2.7-6-.1-.2-.4-.1-.4.1zm-.4 2.1c.5 1.8 1.1 3.7 2.1 5.2.1.2.5.1.4-.2-.6-1.8-1.5-3.4-2.1-5.2-.1-.2-.5 0-.4.2zm-1.5 2.9c.3 2.4.6 5.1 1.6 7.3.1.2.5.1.4-.2-.5-2.4-1.3-4.7-1.7-7.2 0-.2-.4-.1-.3.1zm-1.5 2.9c.4 1.9.8 3.9 1.8 5.5.1.2.5.1.5-.2-.6-1.8-1.4-3.6-1.9-5.4-.1-.3-.4-.2-.4.1zm-.6 4c0-.2-.4-.1-.4.1.2 1.6.6 3.5 1.6 4.8.1.2.3 0 .3-.2-.2-.8-.7-1.5-.9-2.3l-.6-2.4zm-.8 5.2c-.1-.2-.4-.1-.3.1.3 1.1.8 2.3 1.7 3.2.1.1.3 0 .2-.2-.6-1.1-1.2-2-1.6-3.1zm25.6-27.4c-.3-.1-.4.3-.1.4 3.1 1.2 6.1 2.9 9.2 4 .2.1.3-.2.2-.4-2.7-1.8-6.2-2.9-9.3-4zm4-.9c-.2-.1-.5.2-.2.4 1.3.7 2.7 1.5 4 2.3-2.2-1.2-4.7-2.1-7.1-3.1-.2-.1-.4.3-.2.5 2.5 1.1 5 2.5 7.6 3.3.2.1.4-.2.2-.4.7.4 1.5.8 2.2 1.1.2.1.6-.2.3-.4-1.9-1.7-4.4-2.7-6.8-3.7zm-.4-3.7c-.3-.1-.6.3-.3.5 2.8 1.3 5.4 3 8.1 4.5.2.1.4-.2.2-.3-2.3-2-5.1-3.4-8-4.7zm2.5-.9c-.2-.1-.4.2-.2.3 2 1.2 4 2.5 6.1 3.5.2.1.3-.1.1-.2-1.9-1.4-4-2.4-6-3.6zm1.8.1c1.3.6 2.5 1.4 3.7 2.2.1.1.2-.1.1-.2-1.1-1-2.4-1.7-3.7-2.3-.2 0-.3.2-.1.3zm3.9-.5c-1.6-1-3.4-1.7-5.2-2.3-.2-.1-.3.3-.1.3 1.8.7 3.4 1.5 5.2 2.2.2.2.3-.1.1-.2zm-4.1-4.2c-.2 0-.3.2-.1.3 1.8.5 3.2 1.5 4.8 2.4.2.1.4-.2.3-.3-1.4-1.3-3.3-2-5-2.4zm3.7.4c.1 0 .2-.1.1-.2-.9-.5-2-.9-3-1.2-.2 0-.2.2-.1.2 1.1.4 2 .9 3 1.2zm-5.6-3.5c-.3 0-.4.3-.1.4 2.6.5 5 1.4 7.4 2.4.2.1.3-.1.1-.2-2.3-1.4-4.8-2.1-7.4-2.6zm3 .4c.7.2 1.3.4 1.9.7.2.1.3-.2.2-.3-.6-.4-1.2-.6-1.9-.8-.4-.1-.5.3-.2.4zm-5.4 17.5c-2.2-1.1-4.5-2.1-6.7-3.2-.3-.2-.6.3-.3.5 2.2 1.2 4.5 2.3 6.9 3.1.2 0 .3-.3.1-.4zM75 52.6c-.2-.1-.4.2-.2.3 1.7 1.5 3.6 2.8 5.7 3.7.3.1.5-.2.2-.4-2-1.2-3.9-2.3-5.7-3.6zm16.2 6.9c-2.5-.4-5.3.5-6.8 2.6-2.3 3.1-.1 6.2-.1 9.5 0 .2.3.2.3 0 .3-2.3-.9-4.4-.6-6.7.5-3.8 3.9-4.8 7.1-5.1.2.1.3-.3.1-.3zm20.7-8.7c-4.6 1.5-9.3 3.9-12.4 7.7-.1.2.1.4.2.2 3.6-3.6 8-5.2 12.4-7.5.3-.1.1-.5-.2-.4zm-11 2.6c2.3-1.7 5-2.4 7.6-3.5.3-.1.2-.5-.1-.5-2.8.6-5.6 1.7-7.7 3.7-.2.2 0 .4.2.3zm8.5-7.2c-2.6.6-5.1 1.8-7.4 3-.2.1 0 .3.2.2 2.4-1.1 4.9-1.9 7.3-2.9.2 0 .1-.3-.1-.3zm.2-1.5c-3 .3-5.9 1.6-8.4 3.5-.1.1 0 .3.1.2 2.6-1.6 5.3-2.6 8.3-3.3.2-.1.2-.4 0-.4zm-8 1.3c2.4-1.3 4.9-2.1 7.4-2.9.2-.1.2-.4-.1-.4-2.6.5-5.2 1.7-7.4 3.1-.1.1 0 .2.1.2zm5.9-4.4c-2.6.6-4.9 1.8-7 3.4-.1.1 0 .3.1.2 2.2-1.4 4.5-2.4 6.9-3.2.3-.2.2-.5 0-.4zm-7.1 1.9c2.9-1.6 5.9-2.5 9.1-3.3.1 0 .1-.3 0-.3-3.2.2-6.4 1.7-9.1 3.5-.2 0-.1.1 0 .1zm.5-2.3c2.8-1.2 5.7-1.7 8.7-2 .2 0 .2-.3 0-.3-3.1 0-6.1.8-8.8 2.1-.1.1 0 .2.1.2zm20.4 10.6c-5.6 1.3-11.2 3.3-16.5 5.4-.2.1-.1.4.1.4 5.6-1.4 11.3-2.9 16.6-5 .5-.2.3-.9-.2-.8zm2.5.3c-5.1 2.2-10 4.1-15.4 5.5-.2.1-.2.4.1.4 5.4-.6 11.1-2.4 15.7-5.4.2-.2-.1-.6-.4-.5zm3.5 1.8c-3.7 2.1-7.3 3.9-11.5 4.8-.3.1-.2.6.2.5 4.2-.7 8.3-2.2 11.6-4.9.2-.2 0-.5-.3-.4zm.5 2.6c-2.5 1.4-4.7 2.8-7.4 3.8-.3.1-.2.6.1.5 2.7-.8 5.5-1.9 7.6-3.8.2-.3-.1-.7-.3-.5zm1.8 2.6c.2-.2-.1-.5-.3-.4-1 .5-1.8 1.3-2.7 2-.9.7-1.8 1.3-2.8 1.9-.2.2 0 .5.2.4 1.9-1 4.1-2.2 5.6-3.9zm3.8-.1c.2-.2-.1-.5-.3-.3-2.4 2-4.7 3.9-7.4 5.3-.3.2 0 .7.3.5 2.8-1.3 5.5-3.1 7.4-5.5zm.9 3.3c.1-.2-.1-.5-.4-.3-1.7 1.2-3.2 2.8-4.9 4.1-.3.2 0 .7.3.5 1.8-1.3 3.8-2.6 5-4.3zm.8 2.3c.2-.2-.2-.4-.4-.3-1.8 1.4-3.3 3.3-4.9 5-.2.2.1.5.3.3 1.7-1.6 3.6-3.2 5-5zm.6 2c.1-.2-.1-.5-.3-.3-1.5 1.1-2.8 2.7-4.1 4.1-.3.3.2.7.4.4 1.3-1.3 2.9-2.6 4-4.2zm.5 2.2c.1-.2-.2-.4-.3-.2-1.1.9-2 2.3-2.8 3.4-.1.2.2.4.4.2.5-.6 1-1.3 1.5-1.9.3-.5.8-1 1.2-1.5zm.3 6.1c-.4.3-.7.8-1 1.2s-.6.8-1 1.2c-.2.3.2.7.4.4.3-.4.7-.9 1-1.3.3-.4.7-.8.9-1.2.1-.3-.1-.5-.3-.3zm1.6 2c-.5.9-1 1.9-1.6 2.7-.3.4.4.7.6.3.6-.9 1.1-1.9 1.4-2.9 0-.2-.3-.3-.4-.1zm-9.9-34.1c.1-.1.1-.2.1-.4-2-3.6-3.1-7.3-.2-10.8.3-.3-.2-.8-.5-.5-1.8 1.7-2.5 4.1-2.2 6.3-.3-1.1-.4-2.3 0-3.7.1-.2-.3-.3-.3-.1-1.2 3.4.3 6.9 2.8 9.3.1.4.5.1.3-.1zm-1 1.9c.2.1.4-.2.2-.4-1.1-1.2-2.3-2.2-3.1-3.8-.9-1.8-1.4-3.8-1.4-5.8 0-.3-.4-.3-.4 0-.2 3.3 1 8.8 4.7 10zm-.2.7c.3 0 .3-.3.1-.4-3.4-1.4-6-6.5-5.2-10.1.1-.3-.3-.4-.4-.1-1 3.5 1.2 10.6 5.5 10.6zm-5.4-1.5c.2.1.4-.2.2-.3-1.2-1.4-2.3-2.7-3.1-4.4-.1-.3-.6 0-.5.3.8 1.6 1.9 3.4 3.4 4.4zm19.7 11.8c.3.2.6-.2.4-.5-3.3-3-4.8-6.8-3.2-11.2.1-.4-.5-.6-.6-.2-1.6 4.2-.6 9.3 3.4 11.9zm4.3 11.3c-5.5-.9-9-5.6-7.8-11.2.1-.3-.4-.4-.5-.1-1.2 5.4 1.9 12.1 8.2 11.9.3 0 .4-.6.1-.6zm1.8-1.6c-3.8 1.2-7.6-4.8-7.3-8.1 0-.2-.4-.3-.4-.1-.4 2.6.9 4.8 2.4 6.8 1.3 1.6 3.5 3.5 5.5 2 .4-.2.2-.7-.2-.6zm-2.6-22.2c-.4-.4-.7-.7-1.2-1-.3-.2-.6.3-.4.5 4.7 3.7 6.9 14 2.6 18.5-.2-.2-.4-.3-.6-.5-.9-.9-1.6-2-2.1-3.2-.2-.4-.8-.2-.6.2.8 2.2 2.7 4.9 5.1 5.6.3.1.6-.3.3-.5-.5-.4-1.1-.8-1.6-1.2 2.9-2.2 3.2-5.7 2.5-9.1-.4-1.9-.9-4-1.8-5.9.1 0 .1-.1.1-.2-.4-1.2-1.1-2.2-1.9-3.1-.2-.2-.3-.2-.4-.1zm-5-13.7c4.9 1.6 6.8 8.9 2.1 11.8-.2.1-.1.5.2.4 6.2-2 2.7-11.2-2.2-12.5-.2-.1-.3.2-.1.3zm-5 9.2c.3.2.7-.2.5-.5-.5-.7-1.1-1.3-1.5-2.2-.3-.9-.4-1.9-.2-2.8.1-.5-.7-.7-.8-.2-.3 2 .2 4.6 2 5.7zm19.9 9.2c-.2-.1-.4-.3-.6-.4-.6-3.3-3-6.4-5.2-8.8-.2-.3-.6.1-.4.4 1.2 1.5 2.2 3.1 3.1 4.7.6 1.1 1 2.2 1.5 3.3-.1 0-.2-.1-.4-.1-.3-.1-.5.4-.2.5.4.2.7.4 1 .6.1.1.1.3.2.4.1.2.3.1.4 0 5.6 4.1 3.8 13.7-1.8 17.4-.3.2-.1.7.3.5 6.2-2.7 7.9-13.4 2.8-17.8v-.2c-.8-5.4-3.2-11-7.8-14.1-.3-.2-.5.3-.3.5 4.7 3.3 5.8 8.2 7.4 13.1zM148 65c2.3.4 3.9-1.4 4.8-3.3 1.2-2.7 1-5.6-.1-8.3-.2-.4-.9-.1-.7.3 1.4 3.5.9 10.2-3.9 10.7-.3 0-.4.6-.1.6zm2.5 7.5c-1 .7-2.2 1-3.3.2-.2-.2-.5.1-.3.3 1.1.9 2.9 1 3.8-.2.2-.2 0-.4-.2-.3zm1.7-3.1c-.7.5-1.3 1.1-2.2 1.4-.9.3-1.9.4-2.8.1-.4-.1-.6.5-.2.6 1.8.7 4.8.4 5.7-1.6.2-.3-.2-.8-.5-.5zm6.8-6.2c-.4.9-.7 1.8-1.3 2.6-.6.9-1.7 2.1-2.9 1.7-.4-.1-.6.5-.3.6 2.6 1.1 5-2.6 5.1-4.8.1-.3-.4-.4-.6-.1zm-6.5-10.6c.3-4-1.1-8-3.4-11.3-.3-.4-.9 0-.6.4 2.2 3.4 3.1 6.9 3.6 10.9-.1.3.4.3.4 0z" fill="#d9ba97" stroke-width="none" opacity="1" stroke="none"></path></g><g id="svga-group-glasses-single-move" transform="matrix(1,0,0,1,0,0)"><g id="svga-group-glasses-single" transform="matrix(1,0,0,1,0,0)"><path id="SvgjsPath28664" d="M96.79 95.61c0-4.61-3.74-8.35-8.35-8.35-3 0-5.62 1.58-7.09 3.95 0 0-.15.18-.36.19-.25.02-.42-.19-.42-.19a8.326 8.326 0 0 0-7.09-3.95c-4.61 0-8.35 3.74-8.35 8.35 0 .37.03.74.08 1.1h-.01s.75 6.13 5.02 10.59c4.71 4.91 9.89 6.98 10.72 7 .84-.02 6.02-2.09 10.72-7 4.28-4.46 5.02-10.59 5.02-10.59h-.01c.09-.36.12-.72.12-1.1z" fill="url(#SvgjsLinearGradient28665)" opacity="1"></path><path id="SvgjsPath28672" d="M103.21 95.61c0-4.61 3.74-8.35 8.35-8.35 3 0 5.62 1.58 7.09 3.95 0 0 .15.18.36.19.25.02.42-.19.42-.19a8.326 8.326 0 0 1 7.09-3.95c4.61 0 8.35 3.74 8.35 8.35 0 .37-.03.74-.08 1.1h.01s-.75 6.13-5.02 10.59c-4.71 4.91-9.89 6.98-10.72 7-.84-.02-6.02-2.09-10.72-7-4.28-4.46-5.02-10.59-5.02-10.59h.01a4.47 4.47 0 0 1-.12-1.1z" fill="url(#SvgjsLinearGradient28673)" opacity="1"></path><path id="SvgjsPath28680" d="M134.85 94.69c-.14-1.22-.53-2.4-1.18-3.44-.99-1.62-2.53-2.91-4.32-3.54-1.79-.65-3.8-.68-5.6-.05-1.8.62-3.37 1.88-4.38 3.49l-.01.01-.01.01-.02.02-.04.03c-.03.02-.05.04-.08.05-.06.03-.11.04-.17.04-.11 0-.24-.07-.31-.16a8.306 8.306 0 0 0-4.12-3.41c-1.7-.66-3.61-.73-5.34-.22-1.74.5-3.31 1.58-4.38 3.04-.84 1.09-1.36 2.41-1.57 3.76a9.757 9.757 0 0 0-3.17-.57h-.06c-1.36 0-2.51.29-3.37.62-.2-1.38-.72-2.71-1.57-3.81-1.07-1.46-2.64-2.53-4.38-3.04a8.35 8.35 0 0 0-5.34.22c-1.7.64-3.17 1.87-4.12 3.41a.45.45 0 0 1-.31.16c-.06 0-.12-.02-.17-.04-.03-.01-.05-.03-.08-.05l-.04-.03-.02-.02-.01-.01-.01-.01c-1.02-1.61-2.58-2.87-4.38-3.49-1.8-.63-3.82-.61-5.6.05-1.8.63-3.34 1.92-4.32 3.54a8.115 8.115 0 0 0-1.18 3.44l-1.08-.07.16 1.33.88.03c.01.23.03.47.06.7l-.01.01.01.04c.67 4.08 2.42 8.08 5.38 11.03 1.46 1.48 3.08 2.8 4.8 3.96.87.57 1.76 1.11 2.69 1.58.94.45 1.85.94 2.94 1.13 1.09-.19 2-.67 2.94-1.12.93-.47 1.82-1.01 2.69-1.58 1.73-1.16 3.33-2.49 4.78-3.98 2.95-2.96 4.7-6.95 5.36-11.02v-.01h-.01l.08-1.09c0-.09-.02-.18-.02-.27.81-.34 1.95-.68 3.35-.66 1.06.01 2.11.22 3.09.61 0 .11-.03.22-.03.33l.08 1.09h-.01v.01c.66 4.08 2.41 8.06 5.36 11.02 1.45 1.49 3.06 2.82 4.78 3.98.87.57 1.76 1.1 2.69 1.58.94.45 1.85.94 2.94 1.12 1.09-.19 2-.67 2.94-1.13.93-.47 1.82-1.01 2.69-1.58 1.73-1.15 3.34-2.48 4.8-3.96 2.96-2.96 4.71-6.95 5.38-11.03l.01-.04-.01-.01c.03-.23.05-.47.06-.7l.88-.03.16-1.33-1.15.06zm-38.07.92-.09 1.1v.01h.01c-.7 4.06-2.48 8.01-5.44 10.9a31 31 0 0 1-4.8 3.9c-.86.57-1.75 1.1-2.67 1.57-.91.45-1.88.93-2.84 1.1-.96-.17-1.93-.65-2.84-1.1-.92-.47-1.81-1-2.67-1.56a30.506 30.506 0 0 1-4.78-3.92c-2.94-2.88-4.72-6.83-5.41-10.87h.01l-.01-.04c-.26-1.86.13-3.81 1.12-5.42a8.121 8.121 0 0 1 4.3-3.48c1.77-.63 3.75-.64 5.52-.01 1.77.62 3.3 1.88 4.28 3.47l.11.04c-.03.02-.1-.01-.1-.02l.01.01.02.02.05.04c.03.03.07.05.11.07.08.04.17.07.26.07.19 0 .35-.09.46-.23v-.01c.95-1.5 2.37-2.71 4.03-3.36a8.21 8.21 0 0 1 5.25-.26c1.72.48 3.28 1.53 4.36 2.96.86 1.09 1.39 2.41 1.6 3.79-.26.1-.5.2-.7.3l.4.83c.11-.05.26-.11.4-.17.03.1.05.18.05.27zm37.95 1.14c-.69 4.04-2.47 7.98-5.41 10.87a29.955 29.955 0 0 1-4.78 3.92c-.86.57-1.75 1.1-2.67 1.56-.91.45-1.88.93-2.84 1.1-.96-.17-1.93-.65-2.84-1.1-.92-.47-1.8-1-2.67-1.57a31 31 0 0 1-4.8-3.9c-2.96-2.89-4.74-6.85-5.44-10.9h.01v-.01l-.09-1.1c0-.11.02-.21.03-.32.18.07.37.14.54.22l.4-.83c-.28-.13-.56-.24-.85-.35.22-1.35.75-2.65 1.59-3.73a8.296 8.296 0 0 1 9.61-2.7c1.66.65 3.08 1.86 4.03 3.36v.01c.12.13.27.22.46.23a.673.673 0 0 0 .37-.14l.05-.04.02-.02.01-.01c0 .01-.07.04-.1.02l.11-.04a8.373 8.373 0 0 1 4.28-3.47c1.77-.63 3.75-.63 5.52.01 1.78.61 3.33 1.87 4.3 3.48.99 1.6 1.38 3.55 1.12 5.42l.04.03z" fill="#2c2c2c" stroke-width="none" opacity="1"></path></g></g></g></g></g><rect id="svga-credit-rect" width="200" height="15" x="0" y="185" fill="#ecf0f1" opacity="0.5" style="display: none;"></rect><text id="svga-credit-text" font-family="Avenir Next, Roboto, Helvetica, Arial, sans-serif" font-size="10px" text-anchor="start" font-weight="400" size="10px" anchor="start" weight="400" fill="#333333" x="33.40447998046875" y="182.60824704170227" style="display: none;"><tspan id="SvgjsTspan27879" dy="13" x="33.40447998046875">Created on AvatarMaker.com</tspan></text></g></svg>