<svg xmlns="http://www.w3.org/2000/svg" version="1.1" width="600px" height="600px" viewBox="0 0 200 200" style="overflow:hidden!important;"><defs id="SvgjsDefs4940"><radialGradient id="SvgjsRadialGradient5001" cx="100" cy="113" r="40" gradientUnits="userSpaceOnUse" class="svga-on-canvas-facehighlight-gradient-single-0"><stop id="SvgjsStop5002" stop-opacity="0.5" stop-color="#ffe9dd" offset="0" ></stop><stop id="SvgjsStop5003" stop-opacity="0" stop-color="#fbd5c0" offset="0.9" ></stop></radialGradient><radialGradient id="SvgjsRadialGradient5005" cx="100" cy="57" r="36" gradientUnits="userSpaceOnUse" class="svga-on-canvas-facehighlight-gradient-single-1"><stop id="SvgjsStop5006" stop-opacity="0.5" stop-color="#ffe9dd" offset="0" ></stop><stop id="SvgjsStop5007" stop-opacity="0" stop-color="#fbd5c0" offset="0.9" ></stop></radialGradient><radialGradient id="SvgjsRadialGradient5086" cx="-558.588" cy="-490.918" r="84.646" gradientTransform="matrix(0.096 -0.0248 0.0245 0.0961 140.5478 120.3577)" gradientUnits="userSpaceOnUse" class="svga-on-canvas-eyesiris-gradient-left-1"><stop id="SvgjsStop5087" stop-opacity="0.8" stop-color="#ffffff" offset="0" ></stop><stop id="SvgjsStop5088" stop-opacity="0" stop-color="#ffffff" offset="1" ></stop></radialGradient><radialGradient id="SvgjsRadialGradient5090" cx="-565.337" cy="-492.691" r="84.644" gradientTransform="matrix(0.0991 8.856325e-004 -0.0011 0.0991 130.3774 136.3533)" gradientUnits="userSpaceOnUse" class="svga-on-canvas-eyesiris-gradient-left-2"><stop id="SvgjsStop5091" stop-opacity="0.8" stop-color="#ffffff" offset="0" ></stop><stop id="SvgjsStop5092" stop-opacity="0" stop-color="#ffffff" offset="1" ></stop></radialGradient><linearGradient id="SvgjsLinearGradient5096" x1="122.283" y1="93.047" x2="123.61" y2="91.466" gradientTransform="matrix(1 0 0 1 -52 0)" gradientUnits="userSpaceOnUse" class="svga-on-canvas-eyesiris-gradient-left-5"><stop id="SvgjsStop5097" stop-opacity="1" stop-color="#ffffff" offset="0" ></stop><stop id="SvgjsStop5098" stop-opacity="0" stop-color="#ffffff" offset="1" ></stop></linearGradient><linearGradient id="SvgjsLinearGradient5100" x1="127" y1="85" x2="125" y2="87" gradientTransform="matrix(1 0 0 1 -50 0)" gradientUnits="userSpaceOnUse" class="svga-on-canvas-eyesiris-gradient-left-6"><stop id="SvgjsStop5101" stop-opacity="1" stop-color="#ffffff" offset="0" ></stop><stop id="SvgjsStop5102" stop-opacity="0" stop-color="#ffffff" offset="1" ></stop></linearGradient><linearGradient id="SvgjsLinearGradient5104" x1="130" y1="81" x2="126" y2="85" gradientTransform="matrix(1 0 0 1 -50 0)" gradientUnits="userSpaceOnUse" class="svga-on-canvas-eyesiris-gradient-left-7"><stop id="SvgjsStop5105" stop-opacity="1" stop-color="#ffffff" offset="0" ></stop><stop id="SvgjsStop5106" stop-opacity="0" stop-color="#ffffff" offset="1" ></stop></linearGradient><radialGradient id="SvgjsRadialGradient5109" cx="-578.76" cy="-490.73" r="84.646" gradientTransform="matrix(0.096 -0.0248 0.0245 0.0961 192.4794 119.8404)" gradientUnits="userSpaceOnUse" class="svga-on-canvas-eyesiris-gradient-right-1"><stop id="SvgjsStop5110" stop-opacity="0.8" stop-color="#ffffff" offset="0" ></stop><stop id="SvgjsStop5111" stop-opacity="0" stop-color="#ffffff" offset="1" ></stop></radialGradient><radialGradient id="SvgjsRadialGradient5113" cx="-584.778" cy="-487.329" r="84.644" gradientTransform="matrix(0.0991 8.856325e-004 -0.0011 0.0991 182.3104 135.839)" gradientUnits="userSpaceOnUse" class="svga-on-canvas-eyesiris-gradient-right-2"><stop id="SvgjsStop5114" stop-opacity="0.8" stop-color="#ffffff" offset="0" ></stop><stop id="SvgjsStop5115" stop-opacity="0" stop-color="#ffffff" offset="1" ></stop></radialGradient><linearGradient id="SvgjsLinearGradient5119" x1="120.284" y1="93.047" x2="121.611" y2="91.467" gradientUnits="userSpaceOnUse" class="svga-on-canvas-eyesiris-gradient-right-5"><stop id="SvgjsStop5120" stop-opacity="1" stop-color="#ffffff" offset="0" ></stop><stop id="SvgjsStop5121" stop-opacity="0" stop-color="#ffffff" offset="1" ></stop></linearGradient><linearGradient id="SvgjsLinearGradient5123" x1="127" y1="85" x2="125" y2="87" gradientUnits="userSpaceOnUse" class="svga-on-canvas-eyesiris-gradient-right-6"><stop id="SvgjsStop5124" stop-opacity="1" stop-color="#ffffff" offset="0" ></stop><stop id="SvgjsStop5125" stop-opacity="0" stop-color="#ffffff" offset="1" ></stop></linearGradient><linearGradient id="SvgjsLinearGradient5127" x1="130" y1="81" x2="126" y2="85" gradientUnits="userSpaceOnUse" class="svga-on-canvas-eyesiris-gradient-right-7"><stop id="SvgjsStop5128" stop-opacity="1" stop-color="#ffffff" offset="0" ></stop><stop id="SvgjsStop5129" stop-opacity="0" stop-color="#ffffff" offset="1" ></stop></linearGradient><linearGradient id="SvgjsLinearGradient5160" x1="99.98" y1="171.27" x2="99.98" y2="136.351" gradientUnits="userSpaceOnUse" class="svga-on-canvas-chinshadow-gradient-single-0"><stop id="SvgjsStop5161" stop-opacity="0.8" stop-color="#ecb99d" offset="0" ></stop><stop id="SvgjsStop5162" stop-opacity="1" stop-color="#cd865f" offset="0.7" ></stop></linearGradient><radialGradient id="SvgjsRadialGradient5172" cx="126.672" cy="88.669" r="14.058" gradientTransform="matrix(-1.0357 0 0 1.0357 204.6606 -3.2718)" gradientUnits="userSpaceOnUse" class="svga-on-canvas-eyesback-gradient-left-0"><stop id="SvgjsStop5173" stop-opacity="1" stop-color="#ffffff" offset="0" ></stop><stop id="SvgjsStop5174" stop-opacity="1" stop-color="#fdfefe" offset="0.544" ></stop><stop id="SvgjsStop5175" stop-opacity="1" stop-color="#f6f8f9" offset="0.74" ></stop><stop id="SvgjsStop5176" stop-opacity="1" stop-color="#eaeff2" offset="0.879" ></stop><stop id="SvgjsStop5177" stop-opacity="1" stop-color="#d9e3e8" offset="0.992" ></stop><stop id="SvgjsStop5178" stop-opacity="1" stop-color="#d8e2e7" offset="1" ></stop></radialGradient><radialGradient id="SvgjsRadialGradient5180" cx="126.672" cy="88.669" r="14.058" gradientTransform="matrix(1.0357 0 0 1.0357 -4.6606 -3.2718)" gradientUnits="userSpaceOnUse" class="svga-on-canvas-eyesback-gradient-right-0"><stop id="SvgjsStop5181" stop-opacity="1" stop-color="#ffffff" offset="0" ></stop><stop id="SvgjsStop5182" stop-opacity="1" stop-color="#fdfefe" offset="0.544" ></stop><stop id="SvgjsStop5183" stop-opacity="1" stop-color="#f6f8f9" offset="0.74" ></stop><stop id="SvgjsStop5184" stop-opacity="1" stop-color="#eaeff2" offset="0.879" ></stop><stop id="SvgjsStop5185" stop-opacity="1" stop-color="#d9e3e8" offset="0.992" ></stop><stop id="SvgjsStop5186" stop-opacity="1" stop-color="#d8e2e7" offset="1" ></stop></radialGradient><radialGradient id="SvgjsRadialGradient5188" cx="126.672" cy="88.669" r="14.058" gradientTransform="matrix(-1.0357 0 0 1.0357 204.6606 -3.2718)" gradientUnits="userSpaceOnUse" class="svga-on-canvas-eyesfront-gradient-left-0"><stop id="SvgjsStop5189" stop-opacity="1" stop-color="#ffffff" offset="0" ></stop><stop id="SvgjsStop5190" stop-opacity="1" stop-color="#fdfefe" offset="0.544" ></stop><stop id="SvgjsStop5191" stop-opacity="1" stop-color="#f6f8f9" offset="0.74" ></stop><stop id="SvgjsStop5192" stop-opacity="1" stop-color="#eaeff2" offset="0.879" ></stop><stop id="SvgjsStop5193" stop-opacity="1" stop-color="#d9e3e8" offset="0.992" ></stop><stop id="SvgjsStop5194" stop-opacity="1" stop-color="#d8e2e7" offset="1" ></stop></radialGradient><radialGradient id="SvgjsRadialGradient5198" cx="123.623" cy="87.41" fx="136.422" fy="87.446" r="18.203" gradientTransform="matrix(0.9998 0.0208 0.0166 -0.7998 -48.6744 154.7508)" gradientUnits="userSpaceOnUse" class="svga-on-canvas-eyesfront-gradient-left-3"><stop id="SvgjsStop5199" stop-opacity="1" stop-color="#ecb99d" offset="0" ></stop><stop id="SvgjsStop5200" stop-opacity="0.3" stop-color="#ecb99d" offset="0.7" ></stop><stop id="SvgjsStop5201" stop-opacity="0" stop-color="#fbd5c0" offset="1" ></stop></radialGradient><radialGradient id="SvgjsRadialGradient5203" cx="72.134" cy="102.21" r="22.89" gradientTransform="matrix(0.9878 -0.0515 0.0518 0.9833 -2.5169 7.7255)" gradientUnits="userSpaceOnUse" class="svga-on-canvas-eyesfront-gradient-left-4"><stop id="SvgjsStop5204" stop-opacity="0" stop-color="#000000" offset="0.95" ></stop><stop id="SvgjsStop5205" stop-opacity="0.3" stop-color="#000000" offset="1" ></stop></radialGradient><radialGradient id="SvgjsRadialGradient5209" cx="126.672" cy="88.669" r="14.058" gradientTransform="matrix(1.0357 0 0 1.0357 -4.6606 -3.2718)" gradientUnits="userSpaceOnUse" class="svga-on-canvas-eyesfront-gradient-right-0"><stop id="SvgjsStop5210" stop-opacity="1" stop-color="#ffffff" offset="0" ></stop><stop id="SvgjsStop5211" stop-opacity="1" stop-color="#fdfefe" offset="0.544" ></stop><stop id="SvgjsStop5212" stop-opacity="1" stop-color="#f6f8f9" offset="0.74" ></stop><stop id="SvgjsStop5213" stop-opacity="1" stop-color="#eaeff2" offset="0.879" ></stop><stop id="SvgjsStop5214" stop-opacity="1" stop-color="#d9e3e8" offset="0.992" ></stop><stop id="SvgjsStop5215" stop-opacity="1" stop-color="#d8e2e7" offset="1" ></stop></radialGradient><radialGradient id="SvgjsRadialGradient5219" cx="123.623" cy="87.41" fx="136.422" fy="87.446" r="18.203" gradientTransform="matrix(-0.9998 0.0208 -0.0166 -0.7998 248.6744 154.7508)" gradientUnits="userSpaceOnUse" class="svga-on-canvas-eyesfront-gradient-right-3"><stop id="SvgjsStop5220" stop-opacity="1" stop-color="#ecb99d" offset="0" ></stop><stop id="SvgjsStop5221" stop-opacity="0.3" stop-color="#ecb99d" offset="0.7" ></stop><stop id="SvgjsStop5222" stop-opacity="0" stop-color="#fbd5c0" offset="1" ></stop></radialGradient><radialGradient id="SvgjsRadialGradient5224" cx="72.134" cy="102.21" r="22.89" gradientTransform="matrix(-0.9878 -0.0515 -0.0518 0.9833 202.5169 7.7255)" gradientUnits="userSpaceOnUse" class="svga-on-canvas-eyesfront-gradient-right-4"><stop id="SvgjsStop5225" stop-opacity="0" stop-color="#000000" offset="0.95" ></stop><stop id="SvgjsStop5226" stop-opacity="0.3" stop-color="#000000" offset="1" ></stop></radialGradient><linearGradient id="SvgjsLinearGradient5249" x1="100" y1="142" x2="100" y2="139" gradientUnits="userSpaceOnUse" class="svga-on-canvas-mouth-gradient-single-0"><stop id="SvgjsStop5250" stop-opacity="1" stop-color="#f3c7ae" offset="0.1" ></stop><stop id="SvgjsStop5251" stop-opacity="1" stop-color="#ecb99d" offset="1" ></stop></linearGradient></defs><g id="svga-group-wrapper"><g id="svga-group-backs-single"><path id="SvgjsPath5154" d="M225 225H-25V-25h250V225z" fill="#547980" stroke-width="none" opacity="1"></path><path id="SvgjsPath5155" d="M100 85c-8.284 0-15 6.716-15 15s6.716 15 15 15 15-6.716 15-15S108.284 85 100 85zM100 110c-5.522 0-10-4.478-10-10s4.478-10 10-10 10 4.478 10 10S105.522 110 100 110zM100 70c-16.568 0-30 13.432-30 30s13.432 30 30 30 30-13.432 30-30S116.568 70 100 70zM100 125c-13.807 0-25-11.193-25-25s11.193-25 25-25 25 11.193 25 25S113.807 125 100 125zM100 55c-24.853 0-45 20.147-45 45s20.147 45 45 45 45-20.147 45-45S124.853 55 100 55zM100 140c-22.091 0-40-17.909-40-40s17.909-40 40-40 40 17.909 40 40S122.091 140 100 140zM100 40c-33.137 0-60 26.863-60 60s26.863 60 60 60 60-26.863 60-60S133.137 40 100 40zM100 155c-30.375 0-55-24.625-55-55s24.625-55 55-55 55 24.625 55 55S130.375 155 100 155zM100 25c-41.421 0-75 33.579-75 75s33.579 75 75 75 75-33.579 75-75S141.421 25 100 25zM100 170c-38.658 0-70-31.342-70-70s31.342-70 70-70 70 31.342 70 70S138.658 170 100 170zM100 10c-49.705 0-90 40.295-90 90s40.295 90 90 90 90-40.295 90-90S149.705 10 100 10zM100 184.999c-46.943 0-85-38.057-85-84.999s38.057-85.001 85-85.001S185 53.058 185 100 146.943 184.999 100 184.999zM100-5C42.011-5-5 42.011-5 100s47.011 105 105 105 105-47.011 105-105S157.989-5 100-5zM100 199.998C44.772 199.998 0 155.226 0 100 0 44.773 44.772-0.001 100-0.001S200 44.773 200 100C200 155.226 155.228 199.998 100 199.998zM100-35C25.442-35-35 25.442-35 100s60.442 135 135 135 135-60.442 135-135S174.558-35 100-35zM100 229.998c-71.795 0-130-58.205-130-129.998 0-71.795 58.205-130.002 130-130.002 71.794 0 130 58.207 130 130.002C230 171.793 171.794 229.998 100 229.998zM100-20C33.727-20-20 33.727-20 100s53.727 120 120 120 120-53.727 120-120S166.273-20 100-20zM100 214.998C36.489 214.998-15 163.51-15 100c0-63.511 51.489-115.002 115-115.002S215 36.489 215 100C215 163.51 163.511 214.998 100 214.998z" fill="#3f6971" stroke-width="none" opacity="1"></path></g><g id="svga-group-humanwrap-move" transform="matrix(1,0,0,1,0,0)"><g id="svga-group-humanwrap" transform="matrix(0.8499995000000001,0,0,0.8499995000000001,14.98490104756425,17.59494995937584)"><g id="svga-group-hair-back-move" transform="matrix(1,0,0,1,0,0)"><g id="svga-group-hair-back" transform="matrix(1,0,0,1,0,0)"><path id="SvgjsPath5163" d="M100.5,100.5h-1v-1h1V100.5z" fill="#56342e" stroke-width="none" opacity="1"></path></g></g><g id="svga-group-humanbody-single"><path id="SvgjsPath5008" d="M190.858 199.866c-6.008-10.158-13.474-11.973-19.628-13.936 -6.323-2.016-19.346-3.178-26.449-4.6 -6.86-1.373-23.153-5.789-23.339-13.488 -0.192-8.066 4.291-40.09 4.291-40.09H74.005c0 0 4.487 32.023 4.294 40.09 -0.184 7.699-16.48 12.115-23.341 13.488 -7.104 1.422-20.125 2.584-26.448 4.6 -6.156 1.963-13.624 3.777-19.632 13.936 -3.644 6.16-6.008 16.133-6.008 27.133h194C196.869 215.999 194.509 206.026 190.858 199.866z" fill="#fbd5c0" stroke-width="none" opacity="1" stroke="none"></path><path id="SvgjsPath5009" d="M121.442 167.843c2.495 10.929 18.165 13.698 26.293 15.325 21.909 4.379 33.772 5.134 42.297 19.539 2.903 4.916 5.459 15.864 5.962 24.153 1.835 0.291 0.531-17.432-5.136-26.994 -9.742-16.472-29.089-15.135-46.077-18.535C137.921 179.958 121.628 175.542 121.442 167.843L121.442 167.843zM78.558 167.843c-0.186 7.699-16.479 12.115-23.339 13.488 -16.988 3.4-36.335 2.063-46.077 18.535 -5.667 9.563-6.971 27.285-5.136 26.994 0.503-8.289 3.059-19.237 5.962-24.153 8.524-14.405 20.388-15.16 42.297-19.539C60.393 181.541 76.063 178.771 78.558 167.843L78.558 167.843z" fill="#ffe9dd" stroke-width="none" opacity="1" stroke="none"></path><path id="SvgjsPath5010" d="M51.206 189.513c0 0 28.641 0.299 33.473 1.885 2.314 0.758 8.372 5.633 8.372 5.633s-6.556-3.17-8.658-3.758C79.51 191.909 51.206 189.513 51.206 189.513zM99.795 199.999c2.053-0.041 7.887-3.799 7.887-3.799s-5.574 2.059-7.342 2.16c-1.491 0.086-6.366-1.238-6.366-1.238S98.112 200.032 99.795 199.999zM117.008 192.757c6.75-1.818 29.786-3.23 29.786-3.23s-23.791-0.516-30.51 1.725c-2.252 0.752-7.562 5.16-7.562 5.16S114.786 193.354 117.008 192.757z" fill="#ecb99d" stroke-width="none" opacity="1" stroke="none"></path><path id="SvgjsPath5011" d="M190.858 199.866c-9.741-16.471-29.122-15.142-46.077-18.535 -6.86-1.373-23.153-5.789-23.339-13.488 -0.192-8.066 4.291-40.09 4.291-40.09H74.005c0 0 4.487 32.023 4.294 40.09 -0.184 7.699-16.48 12.115-23.341 13.488 -7.104 1.422-20.125 2.584-26.448 4.6 -6.156 1.963-13.624 3.777-19.632 13.936 -3.644 6.16-6.008 16.133-6.008 27.133h194C196.869 215.999 194.509 206.026 190.858 199.866z" fill="none" stroke="#cd865f" stroke-width="1.5" opacity="1"></path></g><g id="svga-group-chinshadow-single"><path id="SvgjsPath5159" d="M74.767 128.517c0.729 5.276 4.358 31.969 4.182 39.342 -0.001 0.048-0.011 0.094-0.013 0.141 5.877 2.477 12.865 4.005 21.167 4 8.141 0.005 14.977-1.448 20.719-3.824 -0.008-0.105-0.026-0.209-0.029-0.315 -0.175-7.381 3.45-34.068 4.179-39.343l0.017-0.113H74.751L74.767 128.517z" fill="url(#SvgjsLinearGradient5160)" opacity="1"></path></g><g id="svga-group-clothes-single"><path id="SvgjsPath5263" d="M1.509 238.026c0.211-43.783 8.946-50.671 43.101-55.823 13.099-1.976 25.278-3.824 31.798-13.197 -1.371-1.441-1.8-3.341-0.473-4.779 -0.706-1.084-0.696-3.223 1.426-3.401 0.198 1.43-0.4 0.875 2.776 2.219 19.874 8.397 27.911 4.119 39.35 0.265 2.39-0.809 2.695-0.969 2.955-2.997 0.506 0.199 0.846 0.559 0.891 0.712 0.56 0.894-0.327 2.033-0.483 2.944 1.049 1.008 0.442 2.331-0.431 3.502 15.514 25.709 65.877 1.542 74.242 44.425 1.391 12.381 1.61 25.702 1.626 26.956C197.287 238.851 66.557 239.192 1.509 238.026z" fill="#653220" stroke-width="none" opacity="1"></path><path id="SvgjsPath5264" d="M191.032 202.707c5.877 8.853 4.81 18.807 6.837 24.292 0-11-2.36-20.973-6.011-27.133 -9.742-16.472-26.089-14.936-43.077-18.336 -16.079-3.218-21.88-6.521-25.599-12.503C135.104 189.31 175.119 178.735 191.032 202.707zM76.817 169.027c-3.719 5.981-9.52 9.285-25.599 12.503 -16.988 3.4-33.335 1.864-43.077 18.336 -3.65 6.16-6.011 16.133-6.011 27.133 2.027-5.485 0.96-15.439 6.837-24.292C24.881 178.735 64.896 189.31 76.817 169.027z" fill="#744230" stroke-width="none" opacity="1"></path><path id="SvgjsPath5265" d="M75.177 165.438c-2.58 9.201 40.672 8.591 30.123 8.857C96.484 174.524 72.865 172.321 75.177 165.438zM111.789 173.288c10.395-3.424 11.681-7.793 11.681-7.793 -0.05 0.053-0.198 0.512-0.668 0.945 -0.907 0.995-10.79 6.722-12.128 7.167C110.674 173.607 111.118 173.52 111.789 173.288zM105.973 171.604c14.206-1.792 16.845-7.246 16.845-7.246 -4.313 6.62-29.991 10.398-46.95-0.03C83.98 170.032 94.415 173.021 105.973 171.604z" fill="#562413" stroke-width="none" opacity="1"></path><path id="SvgjsPath5266" d="M196.759 211.875c-8.383-42.978-59.187-18.908-74.22-44.399 0.885-1.192 1.451-2.551 0.38-3.58 0.405-0.852 1.035-2.112 0.51-2.9 -0.061-0.205-0.485-0.629-1.069-0.819l-0.061 0.46c0 0 0 0 0.001 0 -0.278 2.326-1.229 1.798-5.961 3.72 -18.553 7.739-31.947 0.168-38.58-2.399 -0.25-0.07-0.261-0.64-0.261-1.008 -0.002 0.003-0.014 0.005-0.018 0.007l-0.033-0.235c-0.613 0.026-1.382 0.307-1.728 0.886 0 0.01-0.01 0.01-0.01 0.02 -0.357 0.559-0.442 1.75 0.1 2.591 -1.129 1.227-1.058 3.197 0.47 4.8 -15.166 21.719-62.593 2.866-72.31 39.14 -2.093 9.049-2.56 28.104-2.56 29.97 0 0 62.375 1.143 196.89 0.82 0.03-0.01 0.061-0.01 0.09 0C198.389 237.945 198.151 224.264 196.759 211.875zM1.519 237.766c0.27-5.87 0.85-15.73 2.22-25.79 9.012-40.5 55.892-18.97 72.77-42.73 5.653 5.751 24.777 6.521 31.05 4.851 -9.29 1.206-36.968-2.302-31.61-9.7 0.315 0.445 1.567 1.588 2.135 1.629 -0.039 0.077 0.044-0.082 0.002-0.004 -0.227-0.319-1.636-1.794-1.727-2.025 -0.338-0.42-0.451-1.741-0.17-2.21 0.144-0.283 0.475-0.453 0.774-0.562 0.359 2.418-0.533 1.245 7.996 4.361 19.91 7.275 28.574 0.224 35.76-2.25 1.653-0.534 1.917-1.917 1.959-2.43 0.063 0.048 0.118 0.095 0.132 0.14 0.643 0.79 0.121 1.876-0.19 2.841 -0.01 0.01-0.01 0.029-0.02 0.04 -0.213 0.564-0.601 1.341-0.949 1.841 0.569-0.422 0.846-1.043 1.148-1.621 2.183 2.98-8.034 7.582-11.37 9.25 1.98-0.792 7.546-1.585 10.921-5.69 16.262 27.701 70.326-0.145 74.72 52.261 0.903 10.771 0.804 9.778 1.22 18.81C95.539 237.251 111.997 237.184 1.519 237.766z" fill="#370f01" stroke-width="none" opacity="1"></path></g><g id="svga-group-head" transform="matrix(1,0,0,1,0,0)"><g id="svga-group-ears-left-move" transform="matrix(1,0,0,1,0,0)" style="display: none;"><g id="svga-group-ears-left" transform="matrix(1,0,0,1,0,0)"><path id="SvgjsPath5258" d="M47.218 82.634c-0.967-2.31-8.082-5.576-11.21-5.06 -3.538 0.583-4.838 4.047-4.369 6.612 1.103 6.025 3.996 8.563 5.296 13.268 1.096 3.97 3.433 6.253 4.588 7.938 1.42 2.07 2.73 6.818 3.023 7.512 0.463 1.096 2.103 3.757 5.002 3.619 3.333-0.16 7.545-6.211 7.614-7.557C57.544 101.679 49.733 88.647 47.218 82.634z" fill="#fbd5c0" stroke="#cd865f" stroke-width="1.5" opacity="1"></path><path id="SvgjsPath5259" d="M47.953 107.204c0 0 0.429-0.995-0.094-1.879 -0.672-1.134-2.423-3.219-2.821-4.467 -0.325-1.021-0.16-3.2-0.213-4.266 -0.094-1.886-1.492-3.177-1.927-4.26 -2.914-7.238-6.792-11.723-9-12.656 -1.633 3.705-0.339 6.416 1.94 12.116 -1.375-7.748-0.054-10.17-0.054-10.17S39.803 84.842 41.786 92c0.359 1.292-1.111 3.988-0.83 5.299 0.352 1.646 4.184 4.83 5.257 6.163C47.049 104.5 47.953 107.204 47.953 107.204z" fill="#cd865f" stroke-width="none" opacity="1"></path></g></g><g id="svga-group-ears-right-move" transform="matrix(1,0,0,1,0,0)" style="display: none;"><g id="svga-group-ears-right" transform="matrix(1,0,0,1,0,0)"><path id="SvgjsPath5260" d="M152.52 82.634c0.967-2.31 8.082-5.576 11.211-5.06 3.539 0.583 4.838 4.047 4.369 6.612 -1.104 6.025-3.996 8.563-5.297 13.268 -1.096 3.97-3.434 6.253-4.588 7.938 -1.42 2.07-2.73 6.818-3.023 7.512 -0.463 1.096-2.104 3.757-5.002 3.619 -3.332-0.16-7.545-6.211-7.613-7.557C142.193 101.679 150.006 88.647 152.52 82.634z" fill="#fbd5c0" stroke="#cd865f" stroke-width="1.5" opacity="1"></path><path id="SvgjsPath5261" d="M151.785 107.204c0 0-0.43-0.995 0.094-1.879 0.672-1.134 2.424-3.219 2.82-4.467 0.324-1.021 0.16-3.2 0.215-4.266 0.094-1.886 1.49-3.177 1.926-4.26 2.914-7.238 6.793-11.723 9-12.656 1.633 3.705 0.338 6.416-1.939 12.116 1.375-7.748 0.053-10.17 0.053-10.17s-4.018 3.219-6.002 10.376c-0.357 1.292 1.111 3.988 0.83 5.299 -0.352 1.646-4.184 4.83-5.256 6.163C152.689 104.5 151.785 107.204 151.785 107.204z" fill="#cd865f" stroke-width="none" opacity="1"></path></g></g><g id="svga-group-faceshape-wrap" transform="matrix(1,0,0,1,0,0)"><g id="svga-group-faceshape-single"><path id="SvgjsPath5156" d="M100.103 0.867C66.481 0.814 39.286 27.899 39.234 61.374c-0.008 5.316 0.669 10.473 1.953 15.389l0.004 0c0.011 0.053 6.322 32.098 11.785 46.085 4.253 10.89 10.61 37.576 47.125 37.555 36.515 0.021 42.872-26.665 47.125-37.555 5.463-13.987 11.773-46.032 11.785-46.085l0.005 0c1.283-4.916 1.961-10.072 1.952-15.389C160.919 27.899 133.723 0.814 100.103 0.867z" fill="#fbd5c0" stroke-width="none" opacity="1" stroke="none"></path><path id="SvgjsPath5157" d="M150.307 27.3c5.293 9.096 8.347 19.746 8.364 31.14 0.008 5.316-0.645 10.473-1.883 15.389l-0.004 0c-0.012 0.053-5.969 32.098-11.234 46.085 -4.1 10.89-10.353 37.576-45.547 37.555 -35.195 0.021-41.448-26.665-45.547-37.555 -5.266-13.987-11.223-46.032-11.234-46.085l-0.004 0c-1.237-4.916-1.891-10.072-1.882-15.389 0.017-11.394 3.071-22.043 8.362-31.139 -6.647 9.702-10.543 21.43-10.563 34.072 -0.008 5.316 0.669 10.473 1.953 15.389l0.004 0c0.011 0.053 6.322 32.098 11.785 46.085 4.253 10.89 10.61 37.576 47.125 37.555 36.515 0.021 42.873-26.665 47.125-37.555 5.463-13.987 11.773-46.032 11.785-46.085l0.005 0c1.283-4.916 1.961-10.072 1.952-15.389C160.852 48.73 156.954 37.002 150.307 27.3z" fill="#f3c7ae" stroke-width="none" opacity="1" stroke="none"></path><path id="SvgjsPath5158" d="M100.103 0.867C66.481 0.814 39.286 27.899 39.234 61.374c-0.008 5.316 0.669 10.473 1.953 15.389l0.004 0c0.011 0.053 6.322 32.098 11.785 46.085 4.253 10.89 10.61 37.576 47.125 37.555 36.515 0.021 42.872-26.665 47.125-37.555 5.463-13.987 11.773-46.032 11.785-46.085l0.005 0c1.283-4.916 1.961-10.072 1.952-15.389C160.919 27.899 133.723 0.814 100.103 0.867z" fill="none" stroke="#cd865f" stroke-width="1.5" opacity="1"></path></g></g><g id="svga-group-mouth-single-move" transform="matrix(1,0,0,1,0,0)"><g id="svga-group-mouth-single" transform="matrix(1,0,0,1,0,0)"><path id="SvgjsPath5248" d="M100.126 141.95c-2.835 0-3.5-2.934-3.5-2.934s3.898 0.763 7 0C103.626 139.017 102.621 141.95 100.126 141.95z" fill="url(#SvgjsLinearGradient5249)" opacity="1"></path><path id="SvgjsPath5252" d="M100.523 139.779c-1.987 0-3.757-0.267-3.868-0.283 -0.137-0.021-0.23-0.147-0.209-0.284 0.021-0.137 0.154-0.226 0.285-0.209 0.041 0.005 4.071 0.61 6.747 0.002 0.133-0.025 0.27 0.055 0.3 0.189s-0.054 0.268-0.188 0.299C102.643 139.708 101.554 139.779 100.523 139.779z" fill="#cd865f" stroke-width="none" opacity="1" stroke="none"></path><path id="SvgjsPath5253" d="M84 130c0 0 11.487 1.189 15.325 1.199C103.499 131.208 117 130 117 130c-3.903 2.826-8.199 5.543-17.926 5.597C90.373 135.646 88.145 132.889 84 130z" fill="#ffffff" stroke-width="none" opacity="1"></path><path id="SvgjsPath5254" d="M84 130c0 0 11.487 1.189 15.325 1.199C103.499 131.208 117 130 117 130c-3.903 2.826-8.199 5.543-17.926 5.597C90.373 135.646 88.145 132.889 84 130z" fill="none" stroke="#0c2850" stroke-width="0.75" opacity="1"></path></g></g><g id="svga-group-eyes-left-move" transform="matrix(1,0,0,1,0,0)"><g id="svga-group-eyes-left" transform="matrix(1,0,0,1,0,0)"><g id="svga-group-eyesback-left"><path id="SvgjsPath5171" d="M60.956 84.178c11.334-7.516 23.563-3.623 26.092 3.5 0.994 2.798 0.327 5.276-1.739 6.934C70.023 100.123 62.391 92.664 60.956 84.178z" fill="url(#SvgjsRadialGradient5172)" opacity="1"></path></g><g id="svga-group-eyesiriswrapper-left" transform="matrix(1,0,0,1,-0.5,1.5)"><g id="svga-group-eyesiriscontrol-left" transform="matrix(1,0,0,1,0,0)"><g id="svga-group-eyesiris-left" transform="matrix(1,0,0,1,0,0)"><path id="SvgjsPath5229" d="M83.5 87.001c0 4.693-3.806 8.498-8.5 8.498s-8.5-3.805-8.5-8.498c0-4.697 3.806-8.502 8.5-8.502S83.5 82.304 83.5 87.001z" fill="#00f0f1" stroke="#00c2c3" stroke-width="0.5" opacity="1"></path><path id="SvgjsPath5230" d="M70.058 90.974c1.241-0.103 0.142-0.434 0.142-0.434 -0.613-0.331-1.768-0.839-1.768-1.306 0-1.461 2.002-1.839-0.048-2.416 -2.13-1.955 1.653-1.914 1.625-1.98 -1.381-3.366 0.423-1.518 1.183-2.512 2.816-3.682 0.785 0.378 2.314 0 0.554-0.136-1.105-2.169 0.048-1.884 0.763 0.187 0.937 0.821 0.937 0.821 0.557-0.109 1.428-0.966 1.428-0.966 1.061 0.32 1.806 1.827 1.478 1.545 0.522-0.063 1.252-0.313 1.822-0.483 0 0 0.1-0.338 0.196-0.047 1.3 3.77 4.652 3.5 0.792 4.589 0 0-0.249 0 0.542 0.627 3.839 3.066-2.978 2.117 0.638 3.527 0.147-0.146-2.167 1.368-2.167 1.787 0 0.71-1.477 2.576-2.757 1.841 -0.714-0.408-0.823 0.85-1.243 0.269 -0.823-1.138-2.467-0.049-1.859-1.095 0.898-0.737-0.926 0.289-1.28 0.289 -1.172 0 1.534-3.942 5.516-1.013 1.165 0.853-1.224-2.03 0.886-2.03 0.211 0.069 0.148-0.739 0.148-0.966 -1.098-0.215 1.969-0.005 1.969-1.788 0.193 0.039 0.721-0.495-2.316 0 0 0-0.097-1.063-0.048-1.256 0.156-0.62 1.72-0.422 1.28-1.063 -0.001-0.001-1.132-2.272-1.132-2.272 -3.645-0.586-1.562-0.952-3.841-0.483 -0.108 0.535-4.881 2.811-4.729 3.866 0.142 0.995 2.997 1.328 0.295 3.091C74.157 96.989 67.118 89.06 70.058 90.974z" fill="#19feff" stroke-width="none" opacity="1"></path><path id="SvgjsPath5231" d="M75,79.562l0.243,6.223l2.603-5.656l-2.158,5.84l4.572-4.229l-4.229,4.57l5.842-2.157l-5.655,2.604l6.222,0.242l-6.222,0.242l5.655,2.604l-5.842-2.157l4.229,4.57l-4.572-4.229l2.158,5.84l-2.603-5.656L75,94.437l-0.243-6.223l-2.604,5.656l2.156-5.84l-4.57,4.229l4.229-4.57l-5.842,2.157l5.655-2.604l-6.219-0.242l6.219-0.242l-5.655-2.604l5.842,2.157l-4.229-4.57l4.57,4.229l-2.156-5.84l2.604,5.656L75,79.562z" fill="#00f0f1" stroke="#00e1e2" stroke-width="0.5" opacity="1"></path><path id="SvgjsPath5232" d="M76.128,81.428l-0.764,4.697l2.808-3.841l-2.501,4.047l4.065-2.476l-3.859,2.783l4.702-0.73l-4.632,1.092l4.626,1.125l-4.699-0.762l3.842,2.808l-4.05-2.5l2.476,4.064l-2.783-3.86l0.73,4.702l-1.092-4.632l-1.126,4.625l0.764-4.697l-2.811,3.841l2.504-4.048l-4.064,2.476l3.86-2.783l-4.702,0.73l4.631-1.093l-4.625-1.125l4.697,0.761l-3.842-2.808l4.05,2.5l-2.475-4.064l2.782,3.86l-0.73-4.701l1.095,4.632L76.128,81.428z" fill="#00f0f1" stroke="#00d2d2" stroke-width="0.5" opacity="1"></path><path id="SvgjsPath5233" d="M78.188 87c0 1.761-1.428 3.187-3.188 3.187S71.813 88.76 71.813 87c0-1.76 1.428-3.188 3.188-3.188S78.188 85.239 78.188 87z" fill="#000000" stroke-width="none" opacity="0.9"></path><path id="SvgjsPath5234" d="M71.653 93.108c-0.469 0.469-1.396 0.304-2.069-0.37 -0.674-0.673-0.84-1.6-0.37-2.069 0.469-0.469 1.396-0.304 2.069 0.37S72.123 92.638 71.653 93.108z" fill="#ffffff" stroke-width="none" opacity="0.7"></path><path id="SvgjsPath5235" d="M81.809 85.326c-0.702 0.703-2.404 0.142-3.8-1.255 -1.396-1.396-1.958-3.097-1.255-3.8 0.703-0.703 2.404-0.142 3.8 1.255C81.95 82.922 82.511 84.624 81.809 85.326z" fill="#ffffff" stroke-width="none" opacity="0.9"></path></g></g></g><g id="svga-group-eyesfront-left"><path id="SvgjsPath5196" d="M56 88c0 13.808 8.06 24.999 18 24.999S92 101.808 92 88c0-13.809-8.06-25.001-18-25.001S56 74.191 56 88zM60.956 84.178c11.334-7.516 23.563-3.623 26.092 3.5 0.994 2.798 0.327 5.276-1.739 6.934C70.023 100.123 62.391 92.664 60.956 84.178z" fill="#fbd5c0" stroke-width="none" opacity="1" stroke="none"></path><path id="SvgjsPath5197" d="M58.286 88.081c0.025 8.284 8.099 14.961 18.043 14.918 9.939-0.047 17.979-6.796 17.957-15.08 -0.025-8.286-8.101-14.963-18.043-14.92C66.3 73.046 58.264 79.795 58.286 88.081zM60.956 84.178c11.334-7.516 23.563-3.623 26.092 3.5 0.994 2.798 0.327 5.276-1.739 6.934C70.023 100.123 62.391 92.664 60.956 84.178z" fill="url(#SvgjsRadialGradient5198)" opacity="1"></path><path id="SvgjsPath5202" d="M60.956 84.178c11.334-7.516 23.563-3.623 26.092 3.5 0.994 2.798 0.327 5.276-1.739 6.934C70.023 100.123 62.391 92.664 60.956 84.178z" fill="url(#SvgjsRadialGradient5203)" opacity="1"></path><path id="SvgjsPath5206" d="M67.99 77.86c6.02-0.57 13.485-1.112 20.077 3.386C79.514 77.213 75.347 77.714 67.99 77.86z" fill="#cd865f" stroke-width="none" opacity="1" stroke="none"></path><path id="SvgjsPath5207" d="M91.581 88.655c-1.807-2.671-3.564-4.351-6.535-6.319 1.776 0.43 3.052 0.963 5.007 1.944 -9.685-6.58-18.436-6.346-25.183-5.36l4.046 0.469 -2.973 0.675c-1.69 0.179-4.387-0.234-5.708-0.369l3.727 1.265c-1.922 0.919-4.02 0.629-6.643 0.475l2.031 1.622C57.485 83.25 55.904 82.72 54 82.067c2.144 3.765 4.103 5.901 7.695 7.897 1.612 2.208 2.915 3.317 5.439 4.805 -0.137 0.221-0.366 0.468-0.778 0.633 1.035-0.03 1.458-0.112 1.822 0 0.855 0.469 1.561 0.759 2.384 1.054 -0.377 0.269-0.646 0.381-1.173 0.474 1.02-0.094 1.959-0.311 2.554-0.158 2.582 0.303 4.583 0.346 7.408-0.211 1.183-0.263 2.188 0.03 3.111-0.053 -0.473-0.116-1.036-0.276-1.265-0.316l4.11-1.738C70.023 99.83 62.391 92.556 60.956 84.28c11.334-7.33 23.563-3.533 26.092 3.414 0.07-1.258-0.429-2.536-1.792-3.678C87.487 85.082 89.774 86.723 91.581 88.655z" fill="#1b2a40" stroke-width="none" opacity="1" stroke="none"></path></g></g></g><g id="svga-group-eyes-right-move" transform="matrix(1,0,0,1,0,0)"><g id="svga-group-eyes-right" transform="matrix(1,0,0,1,0,0)"><g id="svga-group-eyesback-right"><path id="SvgjsPath5179" d="M139.044 84.178c-11.334-7.516-23.563-3.623-26.092 3.5 -0.994 2.798-0.327 5.276 1.739 6.934C129.977 100.123 137.609 92.664 139.044 84.178z" fill="url(#SvgjsRadialGradient5180)" opacity="1"></path></g><g id="svga-group-eyesiriswrapper-right" transform="matrix(1,0,0,1,0.5,1.5)"><g id="svga-group-eyesiriscontrol-right" transform="matrix(1,0,0,1,0,0)"><g id="svga-group-eyesiris-right" transform="matrix(1,0,0,1,0,0)"><path id="SvgjsPath5236" d="M133.5 87.001c0 4.692-3.806 8.498-8.5 8.498s-8.5-3.806-8.5-8.498c0-4.697 3.806-8.502 8.5-8.502S133.5 82.304 133.5 87.001z" fill="#00f0f1" stroke="#00c2c3" stroke-width="0.5" opacity="1"></path><path id="SvgjsPath5237" d="M120.059 90.974c1.24-0.103 0.142-0.434 0.142-0.434 -0.613-0.33-1.768-0.838-1.768-1.305 0-1.461 2.002-1.84-0.048-2.416 -2.131-1.956 1.652-1.915 1.625-1.981 -1.382-3.366 0.423-1.518 1.182-2.512 2.816-3.682 0.785 0.378 2.314 0 0.555-0.136-1.104-2.169 0.048-1.884 0.763 0.186 0.938 0.821 0.938 0.821 0.557-0.109 1.428-0.966 1.428-0.966 1.061 0.32 1.806 1.828 1.478 1.546 0.521-0.063 1.252-0.313 1.821-0.483 0 0 0.1-0.338 0.196-0.046 1.3 3.77 4.652 3.499 0.791 4.589 0 0-0.249 0 0.542 0.627 3.84 3.065-2.978 2.117 0.638 3.527 0.148-0.147-2.167 1.367-2.167 1.786 0 0.711-1.477 2.576-2.757 1.842 -0.714-0.409-0.822 0.85-1.243 0.269 -0.823-1.138-2.468-0.049-1.859-1.095 0.898-0.737-0.926 0.288-1.28 0.288 -1.172 0 1.534-3.942 5.516-1.013 1.165 0.854-1.225-2.029 0.886-2.029 0.212 0.069 0.148-0.739 0.148-0.967 -1.097-0.214 1.97-0.004 1.97-1.787 0.193 0.038 0.721-0.496-2.316 0 0 0-0.097-1.064-0.048-1.256 0.156-0.619 1.721-0.422 1.28-1.063 -0.001-0.001-1.133-2.271-1.133-2.271 -3.645-0.587-1.562-0.953-3.84-0.483 -0.108 0.535-4.881 2.811-4.729 3.866 0.142 0.994 2.996 1.328 0.295 3.092C124.157 96.989 117.118 89.06 120.059 90.974z" fill="#19feff" stroke-width="none" opacity="1"></path><path id="SvgjsPath5238" d="M125,79.562l0.242,6.222l2.604-5.656l-2.158,5.84l4.571-4.228l-4.229,4.57l5.842-2.157l-5.655,2.604l6.222,0.242l-6.222,0.242l5.655,2.604l-5.842-2.157l4.229,4.57l-4.571-4.228l2.158,5.84l-2.604-5.656L125,94.437l-0.242-6.222l-2.605,5.656l2.157-5.84l-4.57,4.228l4.229-4.57l-5.842,2.157l5.654-2.604l-6.219-0.242l6.219-0.242l-5.654-2.604l5.842,2.157l-4.229-4.57l4.57,4.228l-2.157-5.84l2.605,5.656L125,79.562z" fill="#00f0f1" stroke="#00e1e2" stroke-width="0.5" opacity="1"></path><path id="SvgjsPath5239" d="M126.128,81.428l-0.764,4.697l2.808-3.841l-2.501,4.047l4.064-2.475l-3.859,2.782l4.702-0.73l-4.632,1.093l4.626,1.125l-4.699-0.762l3.843,2.808l-4.05-2.5l2.476,4.063l-2.783-3.86l0.73,4.702l-1.092-4.632l-1.126,4.625l0.764-4.697l-2.812,3.841l2.505-4.047l-4.065,2.475l3.86-2.782l-4.702,0.73l4.631-1.094l-4.624-1.124l4.696,0.761l-3.842-2.808l4.05,2.501l-2.476-4.063l2.782,3.86l-0.73-4.702l1.095,4.632L126.128,81.428z" fill="#00f0f1" stroke="#00d2d2" stroke-width="0.5" opacity="1"></path><path id="SvgjsPath5240" d="M128.188 87c0 1.761-1.428 3.187-3.188 3.187s-3.188-1.426-3.188-3.187c0-1.76 1.428-3.188 3.188-3.188S128.188 85.239 128.188 87z" fill="#000000" stroke-width="none" opacity="0.9"></path><path id="SvgjsPath5241" d="M121.653 93.108c-0.47 0.469-1.396 0.304-2.069-0.369 -0.674-0.673-0.84-1.601-0.369-2.07 0.469-0.47 1.395-0.304 2.068 0.369C121.956 91.712 122.122 92.639 121.653 93.108z" fill="#ffffff" stroke-width="none" opacity="0.7"></path><path id="SvgjsPath5242" d="M131.809 85.326c-0.702 0.703-2.403 0.142-3.8-1.254 -1.396-1.396-1.957-3.098-1.256-3.8 0.703-0.703 2.405-0.142 3.8 1.254C131.949 82.922 132.512 84.624 131.809 85.326z" fill="#ffffff" stroke-width="none" opacity="0.9"></path></g></g></g><g id="svga-group-eyesfront-right"><path id="SvgjsPath5217" d="M126 62.999c-9.94 0-18 11.193-18 25.001 0 13.808 8.06 24.999 18 24.999S144 101.808 144 88C144 74.191 135.94 62.999 126 62.999zM114.691 94.612c-2.066-1.658-2.733-4.135-1.739-6.934 2.528-7.123 14.758-11.016 26.092-3.5C137.609 92.664 129.977 100.123 114.691 94.612z" fill="#fbd5c0" stroke-width="none" opacity="1" stroke="none"></path><path id="SvgjsPath5218" d="M123.757 72.999c-9.942-0.043-18.018 6.635-18.043 14.92 -0.022 8.284 8.018 15.032 17.957 15.08 9.944 0.043 18.018-6.635 18.043-14.918C141.736 79.795 133.7 73.046 123.757 72.999zM114.691 94.612c-2.066-1.658-2.733-4.135-1.739-6.934 2.528-7.123 14.758-11.016 26.092-3.5C137.609 92.664 129.977 100.123 114.691 94.612z" fill="url(#SvgjsRadialGradient5219)" opacity="1"></path><path id="SvgjsPath5223" d="M139.044 84.178c-11.334-7.516-23.563-3.623-26.092 3.5 -0.994 2.798-0.327 5.276 1.739 6.934C129.977 100.123 137.609 92.664 139.044 84.178z" fill="url(#SvgjsRadialGradient5224)" opacity="1"></path><path id="SvgjsPath5227" d="M111.933 81.247c6.592-4.498 14.058-3.956 20.077-3.386C124.653 77.714 120.486 77.213 111.933 81.247z" fill="#cd865f" stroke-width="none" opacity="1" stroke="none"></path><path id="SvgjsPath5228" d="M108.419 88.655c1.807-2.671 3.564-4.351 6.535-6.319 -1.776 0.43-3.052 0.963-5.007 1.944 9.685-6.58 18.436-6.346 25.183-5.36l-4.046 0.469 2.973 0.675c1.69 0.179 4.387-0.234 5.708-0.369l-3.727 1.265c1.922 0.919 4.02 0.629 6.643 0.475l-2.031 1.622c1.865 0.194 3.446-0.335 5.351-0.989 -2.144 3.765-4.103 5.901-7.695 7.897 -1.612 2.208-2.915 3.317-5.439 4.805 0.137 0.221 0.366 0.468 0.778 0.633 -1.035-0.03-1.458-0.112-1.822 0 -0.855 0.469-1.561 0.759-2.384 1.054 0.377 0.269 0.646 0.381 1.173 0.474 -1.02-0.094-1.959-0.311-2.554-0.158 -2.582 0.303-4.583 0.346-7.408-0.211 -1.183-0.263-2.188 0.03-3.111-0.053 0.473-0.116 1.036-0.276 1.265-0.316l-4.11-1.738c15.285 5.374 22.918-1.899 24.353-10.175 -11.334-7.33-23.563-3.533-26.092 3.414 -0.07-1.258 0.429-2.536 1.792-3.678C112.513 85.082 110.226 86.723 108.419 88.655z" fill="#1b2a40" stroke-width="none" opacity="1" stroke="none"></path></g></g></g><g id="svga-group-facehighlight-single"><path id="SvgjsPath5000" d="M140.204 113.007c0.035 22.275-17.995 40.365-40.273 40.396 -22.274 0.036-40.361-17.993-40.396-40.272C59.501 90.857 77.53 72.77 99.808 72.735 122.083 72.701 140.171 90.73 140.204 113.007z" fill="url(#SvgjsRadialGradient5001)" opacity="1"></path><path id="SvgjsPath5004" d="M135,55.999c0,19.329-15.671,35-35,35c-19.329,0-35-15.671-35-35s15.671-35,35-35C119.329,20.999,135,36.67,135,55.999z" fill="url(#SvgjsRadialGradient5005)" opacity="1"></path></g><g id="svga-group-eyebrows-left-move" transform="matrix(1,0,0,1,0,0)"><g id="svga-group-eyebrows-left-rotate" transform="matrix(1,0,0,1,0,0)"><g id="svga-group-eyebrows-left" transform="matrix(1,0,0,1,0,0)"><path id="SvgjsPath5243" d="M52.488 73.87c7.475-9.383 20.338-7.822 30.878-6.314 2.681 0.384 5.441 0.672 8.07 1.336 1.884 0.475 3.365 2.622 1.851 4.356 -0.708 0.825-2.253 0.672-3.207 0.652C77.459 73.645 63.193 66.387 52.488 73.87z" fill="#56342e" stroke-width="none" opacity="1"></path></g></g></g><g id="svga-group-eyebrows-right-move" transform="matrix(1,0,0,1,0,0)"><g id="svga-group-eyebrows-right-rotate" transform="matrix(1,0,0,1,0,0)"><g id="svga-group-eyebrows-right" transform="matrix(1,0,0,1,0,0)"><path id="SvgjsPath5244" d="M147.577 73.49c-2.164-1.448-4.454-2.47-7.043-2.889 -9.497-1.54-27.586 4.79-32.341 3.45 -2.912-0.822-2.323-3.739-1.035-4.458 0.775-0.433 0.99-0.422 7.909-1.612C126.824 65.961 139.988 64.355 147.577 73.49z" fill="#56342e" stroke-width="none" opacity="1"></path></g></g></g><g id="svga-group-nose-single-move" transform="matrix(1,0,0,1,0,0)"><g id="svga-group-nose-single" transform="matrix(1,0,0,1,0,0)"><path id="SvgjsPath5255" d="M92.281 116.235c-0.745 2.063 5.028 4.289 7.218 4.426 2.374 0.147 9.024-2.899 7.896-4.991 -1.185-2.197-5.63-0.286-7.547-0.286C97.94 115.384 93.276 113.479 92.281 116.235z" fill="#ecb99d" stroke-width="none" opacity="1"></path><path id="SvgjsPath5256" d="M102.207 117.221c-0.243-0.522 1.194-1.333 1.748-1.493 0.777-0.226 2.505 0.238 2.438 0.831 -0.06 0.521-1.603-0.169-2.105-0.022C103.767 116.687 102.435 117.712 102.207 117.221zM95.214 116.742c0.706 0 1.753 0.457 1.945 0.057 0.229-0.479-1.56-1.065-2.086-1 -0.434 0.052-1.991 0.958-1.777 1.338C93.496 117.49 94.284 116.742 95.214 116.742z" fill="#cd865f" stroke-width="none" opacity="1"></path><path id="SvgjsPath5257" d="M99.857 113.479c0.669 0 1.807-0.637 1.978-1.9 0.754-5.575-0.521-20.246-1.978-20.246 -1.365 0-2.508 15.024-2.155 20.246C97.789 112.86 99.099 113.479 99.857 113.479" fill="#fff9f6" stroke-width="none" opacity="0.2"></path></g></g><g id="svga-group-hair-front" transform="matrix(1,0,0,1,0,0)"><path id="SvgjsPath5165" d="M47.869 62.985c3.513-27.218 48.858-44.766 54.189-42.089 3.002-1.44 59.328 41.036 59.561 62.839 0 0-22.007 19.356-22.043 12.485 -0.167-6.713-13.667-24.08-19.264-31.097 -5.428-6.805-11.027-15.225-14.647-23.392 -4.578 8.854-19.762 23.128-25.737 27.531C67.71 78.266 61 97.833 57.482 108.704c-0.619 1.911-4.764 11.061-5.409 13.031C47.527 110.639 44.016 90.357 47.869 62.985z" fill="#56342e" stroke-width="none" opacity="0.1"></path><path id="SvgjsPath5166" d="M168.612 36.164c-11.808-25.213-46.156-48.481-67.878-36.371C56.411-23.993-12.496 66.971 47.647 132.54c0.04 0.039 0.068 0.08 0.106 0.117 6.074 6.596 13.227 12.621 20.452 17.504 -7.228-9.984-13.803-23.407-15.666-35.879 5.939-18.021 9.266-33.725 25.459-47.317 11.026-9.255 24.281-19.122 26.669-31.375 8.063 19.831 29.816 38.467 34.742 52.624 0.175 14.627-3.735 28.098-4.854 32.623 0.078-0.156 0.164-0.309 0.252-0.461 2.984-5.375 5.861-10.77 7.771-16.451 0.83 17.059-5.808 30.435-9.904 39.925 -0.024 0.074-0.057 0.152-0.096 0.229 0.096-0.055 0.184-0.117 0.277-0.174 10.322-6.818 20.082-19.361 26.105-31.27 -0.029 6.242-0.487 14.134-0.654 16.42 12.835-17.958 14.087-34.884 15.084-37.911 1.148 5.97 3.297 11.975 4.45 14.41C177.24 88.977 179.117 61.413 168.612 36.164z" fill="#56342e" stroke-width="none" opacity="1"></path><path id="SvgjsPath5167" d="M51.208 109.438c0-6.093 5.659-15.235 9.328-19.373 -2.775 5.59-9.544 23.984-12.005 36.941 -10.121-26.649-12.492-60.43 1.831-85.612 -7.582 20.698-12.034 42.867-4.909 64.212 -0.282-10.386-3.378-28.761 11.511-52.691C52.404 70.117 49.348 88.952 51.208 109.438zM132.976 143.647c7.391-16.72 11.956-30.775 10.782-43.793 -2.152-25.444-27.056-37.068-38.985-64.839 0.318-1.777 0.471-3.621 0.444-5.539 9.521 17.034 19.978 32.215 32.325 47.389 8.24 11.171 9.617 24.143 9.675 37.368 8.372-21.988 6.938-47.563-1.999-68.982 10.55 22.035 11.512 45.986 7.673 69.938 9.591-21.079 15.347-44.071 9.591-67.063 7.674 15.328 6.716 32.574 4.798 49.817 4.887-15.444 4.245-31.577 4.527-47.23 4.599 17.244 5.055 34.973 5.669 53.032 -1.95-5.682-2.966-10.747-3.828-15.828 -0.933 7.967-8.212 29.021-13.68 36.627 0.328-4.131 1.277-12.111 0.624-15.301 7.063-15.559 9.48-33.147 4.829-48.237 5.855 21.703-3.052 49.26-18.405 68.239C140.26 137.597 132.976 143.647 132.976 143.647zM31.064 89.32c-6.8-45.275 9.097-58.79 13.522-70.31 -29.467 43.476-22.078 83.66 4.453 113.845 -4.957-12.771-8.754-27.238-9.195-40.821 -2.356-23.177 2.663-43.048 16.813-60.129C36.466 39.67 32.89 69.26 31.064 89.32zM61.507 71.393c0.009-0.046 0.054-0.11 0.073-0.151 6.306-13.188 36.734-34.118 34.307-50.216C95.953 36.276 64.273 57.929 61.507 71.393zM144.898 70.541c-6.164-26.016-21.354-29.824-28.256-47.629C121.069 39.346 141.615 56.636 144.898 70.541zM156.993 57.518c-0.429-1-2.813-44.361-41.932-52.052C147.991 14.834 155.178 53.282 156.993 57.518zM54.609 48.921c2.004-8.177 19.884-29.726 44.862-36.666C66.938 18.025 56.496 41.245 54.609 48.921z" fill="#47251f" stroke-width="none" opacity="1"></path><path id="SvgjsPath5168" d="M139.866 89.507c1.416 4.177 2.241 8.354 2.585 12.531 -1.793 5.488-4.423 10.873-7.097 16.119C138.077 106.88 139.948 98.58 139.866 89.507zM66.029 147.937c-6.774-9.178-12.443-20.299-14.15-31.596 -1.161 3.689-2.178 7.482-3.069 11.373 -0.164 1-7.26-16.94-9.166-35.68 0.441 13.583 3.739 27.053 8.696 39.825C53.527 137.663 59.466 143.026 66.029 147.937z" fill="#371813" stroke-width="none" opacity="1"></path><path id="SvgjsPath5169" d="M99.492 21.262c6.403 27.793-34.873 40.474-47.226 76.474C58.369 65.985 105.136 46.985 99.492 21.262zM61.565 55.39c7.799-16.374 20.656-28.475 35.459-38.564C80.005 25.778 68.787 37.707 61.565 55.39zM44.976 31.335C57.328 16.982 73.192 2.764 93.413 6.039 71.708-0.369 56.906 15.907 44.976 31.335zM144.42 40.044c-7.511-14.379-11.145-24.352-28.859-28.113C128.931 15.938 138.894 27.608 144.42 40.044zM160.831 41.313c-8.623-20.082-15.026-37.805-40.267-40.29C140.522 4.832 153.31 23.794 160.831 41.313zM148.999 87.979c-6.548-25.538-31.097-43.208-37.737-69.219C117.109 44.848 140.279 62.557 148.999 87.979z" fill="#654640" stroke-width="none" opacity="1"></path><path id="SvgjsPath5170" d="M68.099 150.319c-0.357-0.24-0.713-0.482-1.071-0.742 -7.286-5.061-13.82-10.709-19.416-16.789l-0.105-0.117c-18.576-20.25-26.419-44.969-22.688-71.48C28.485 32.793 56.267-4.408 85.672-4.408c5.168 0 10.234 1.339 15.061 3.98 3.049-1.681 6.354-2.657 9.824-2.902 0.989-0.11 2.008-0.165 3.02-0.165 22.907 0 46.485 20.957 55.21 39.577 10.676 25.664 8.609 53.598 9.244 69.465 -1.773 0.431-4.38-14.611-4.7-13.611 -2.573 15.701-7.636 27.015-15.258 37.785 0.342-5.056 0.642-11.302 0.69-16.279 -5.813 11.226-16.08 24.686-26.651 31.145 0.644-1.295 5.088-11.688 6.555-15.709 2.759-8.625 3.989-16.467 3.762-23.93 -1.189 3.328-7.057 16.209-8.058 15.842 1.29-5.103 5.015-18.297 4.849-32.574 -2.741-7.384-12.181-19.162-16.715-24.847 -6.644-8.33-13.507-16.938-17.777-27.128 -2.516 11.593-15.759 20.462-25.535 29.844l-1.06 1.019C62.619 79.735 58.88 95.656 52.723 114.343c1.617 10.686 6.855 22.955 14.758 34.453l0.317 0.453c0.187 0.271 0.373 0.535 0.563 0.799L68.099 150.319zM85.601-3.042c-27.724 0-51.227 30.485-57.536 57.25 -8.282 38.193 6.515 69.453 37.047 92.8 -5.138-7.166-11.279-17.813-13.293-29.828 -1.255 4.081-2.127 7.559-2.953 11.145 -0.874-1.174-11.19-25.575-9.863-52.053 1.522-30.324 18.792-47.229 19.792-46.254C34.57 56.681 38.052 98.385 48.472 126.302c8.589-43.809 21.73-53.742 30.996-62.736 9.346-9.079 22.174-17.653 24.512-29.297 0.84-3.792 0.87-8.88-0.459-14.422 1-0.263 2.621 8.516 1.45 15.145 4.28 9.938 11.15 18.077 17.798 25.946 11.641 13.784 20.032 24.737 21.18 38.901 1.676 18.497-6.649 34.395-10.519 43.248 9.021-7.685 19.341-20.076 25.357-33.021 12.789-27.033 6.814-49.114 6.814-49.114 4.394 14.256 2.641 31.864-4.81 48.315 0.605 3.115-0.233 10.563-0.574 14.588 4.892-7.168 12.303-27.878 13.241-35.958 0.15-0.004 3.665 14.189 3.777 14.535 -0.797-25.368-1.724-48.296-12.615-70.531 -7.655-16.931-31.764-34.917-52.126-34.917 -5.002 0-10.735 1.879-15.997 6.018l-0.243-0.296c1.055-0.911 2.188-1.744 3.368-2.48C95.049-1.944 90.333-3.042 85.601-3.042zM136.789 112.726c-0.259 1.234-0.548 2.518-0.87 3.895 2.262-4.479 4.684-9.54 6.353-14.64 -0.331-3.818-1.073-7.623-2.217-11.269C139.975 98.485 138.447 105.874 136.789 112.726z" fill="#280e09" stroke-width="none" opacity="1"></path></g><g id="svga-group-glasses-single-move" transform="matrix(1,0,0,1,0,0)"><g id="svga-group-glasses-single" transform="matrix(1,0,0,1,0,0)"><path id="SvgjsPath5245" d="M142.29 97.41c-4.18 2.89-9.99 4.5-16.48 3.86 -10.05-0.98-16.01-7.51-18.24-13.28 -1.93-4.85-1.14-8.25 2.64-11.36 2.87-2.36 8.27-4.17 14.16-4.76C135.43 75.65 145.22 86.87 142.29 97.41zM67.01 71.94c-6.66 0.84-12.69 3.67-15.12 9.47 -4.22 10.71 7.21 21.33 22.29 19.86 4.2-0.41 7.68-1.8 10.48-3.69C87.73 87.06 78.04 75.82 67.01 71.94z" fill="#ffffff" stroke-width="none" opacity="0.2"></path><path id="SvgjsPath5246" d="M142.29 97.41c2.93-10.54-6.86-21.75-17.91-25.54 9.5-0.95 20.27 1.28 23.73 9.54C150.51 87.51 147.83 93.58 142.29 97.41zM89.78 76.62c-4.25-3.5-14.06-5.79-22.77-4.68 11.03 3.88 20.72 15.12 17.65 25.64 3.89-2.63 6.46-6.23 7.76-9.6C94.36 83.14 93.57 79.74 89.78 76.62z" fill="#ffffff" stroke-width="none" opacity="0.4"></path><path id="SvgjsPath5247" d="M153.71 83.76c-0.2-0.95-0.69-2.01-1.04-2.35 -0.7-0.7-2.57-1.14-3.87-1.19 -6.82-14.51-37.85-11.21-42.69-0.22 -3.34-1.97-8.87-1.98-12.23 0 -4.85-11-35.88-14.29-42.69 0.22 -1.3 0.05-3.17 0.49-3.87 1.19 -0.34 0.34-0.84 1.4-1.04 2.35 -0.13 0.63-0.6 1.16-0.44 1.53 0.44 1 1.33 0.38 1.71 0.13 0.29-0.1 1.55 0.06 2.36 0.69 0.08 9.47 10.7 17.59 24.38 16.25 13.97-1.36 21.1-13.38 20.15-20.44 1.91-1.42 9.19-1.43 11.11 0 -0.95 7.05 6.18 19.07 20.15 20.44 13.67 1.34 24.3-6.78 24.38-16.25 0.81-0.63 2.06-0.79 2.36-0.69 0.38 0.25 1.28 0.87 1.72-0.13C154.31 84.92 153.84 84.39 153.71 83.76zM50.03 84.34c-0.7-0.33-1.46-0.53-2.11-0.53 0.14-0.52 0.37-1.11 0.53-1.27 0.26-0.26 1.12-0.64 2.07-0.61C50.28 82.71 50.12 83.52 50.03 84.34zM91.98 87.81c-2.16 5.6-7.98 12.01-17.83 12.98 -14.85 1.45-25.84-8.92-21.8-19.2 0.1-0.24 0.15-0.35 0.22-0.54C58.11 68.82 82.13 70.96 89.48 77 92.8 79.73 93.99 82.75 91.98 87.81zM125.86 100.79c-9.85-0.96-15.68-7.38-17.84-12.98 -2.02-5.06-0.82-8.08 2.5-10.81 7.35-6.04 31.36-8.17 36.91 4.04 0.07 0.2 0.13 0.3 0.22 0.54C151.7 91.86 140.7 102.24 125.86 100.79zM149.97 84.34c-0.1-0.82-0.25-1.63-0.49-2.41 0.95-0.03 1.81 0.34 2.07 0.61 0.16 0.17 0.39 0.75 0.53 1.27C151.43 83.82 150.67 84.01 149.97 84.34z" fill="#000000" stroke-width="none" opacity="1"></path></g></g></g></g></g><rect id="svga-credit-rect" width="200" height="15" x="0" y="185" fill="#ecf0f1" opacity="0.5" style="display: none;"></rect><text id="svga-credit-text" font-family="Avenir Next, Roboto, Helvetica, Arial, sans-serif" font-size="10px" text-anchor="start" font-weight="400" size="10px" anchor="start" weight="400" fill="#333333" x="33.3125" y="182.609375" style="display: none;"><tspan id="SvgjsTspan4987" dy="13" x="33.3125">Created on AvatarMaker.com</tspan></text></g></svg>