<svg xmlns="http://www.w3.org/2000/svg" version="1.1" width="600px" height="600px" viewBox="0 0 200 200" style="overflow:hidden!important;"><defs id="SvgjsDefs7017"><radialGradient id="SvgjsRadialGradient7078" cx="100" cy="113" r="40" gradientUnits="userSpaceOnUse" class="svga-on-canvas-facehighlight-gradient-single-0"><stop id="SvgjsStop7079" stop-opacity="0.5" stop-color="#ffe9dd" offset="0" ></stop><stop id="SvgjsStop7080" stop-opacity="0" stop-color="#fbd5c0" offset="0.9" ></stop></radialGradient><radialGradient id="SvgjsRadialGradient7082" cx="100" cy="57" r="36" gradientUnits="userSpaceOnUse" class="svga-on-canvas-facehighlight-gradient-single-1"><stop id="SvgjsStop7083" stop-opacity="0.5" stop-color="#ffe9dd" offset="0" ></stop><stop id="SvgjsStop7084" stop-opacity="0" stop-color="#fbd5c0" offset="0.9" ></stop></radialGradient><radialGradient id="SvgjsRadialGradient7163" cx="-558.588" cy="-490.918" r="84.646" gradientTransform="matrix(0.096 -0.0248 0.0245 0.0961 140.5478 120.3577)" gradientUnits="userSpaceOnUse" class="svga-on-canvas-eyesiris-gradient-left-1"><stop id="SvgjsStop7164" stop-opacity="0.8" stop-color="#ffffff" offset="0" ></stop><stop id="SvgjsStop7165" stop-opacity="0" stop-color="#ffffff" offset="1" ></stop></radialGradient><radialGradient id="SvgjsRadialGradient7167" cx="-565.337" cy="-492.691" r="84.644" gradientTransform="matrix(0.0991 8.856325e-004 -0.0011 0.0991 130.3774 136.3533)" gradientUnits="userSpaceOnUse" class="svga-on-canvas-eyesiris-gradient-left-2"><stop id="SvgjsStop7168" stop-opacity="0.8" stop-color="#ffffff" offset="0" ></stop><stop id="SvgjsStop7169" stop-opacity="0" stop-color="#ffffff" offset="1" ></stop></radialGradient><linearGradient id="SvgjsLinearGradient7173" x1="122.283" y1="93.047" x2="123.61" y2="91.466" gradientTransform="matrix(1 0 0 1 -52 0)" gradientUnits="userSpaceOnUse" class="svga-on-canvas-eyesiris-gradient-left-5"><stop id="SvgjsStop7174" stop-opacity="1" stop-color="#ffffff" offset="0" ></stop><stop id="SvgjsStop7175" stop-opacity="0" stop-color="#ffffff" offset="1" ></stop></linearGradient><linearGradient id="SvgjsLinearGradient7177" x1="127" y1="85" x2="125" y2="87" gradientTransform="matrix(1 0 0 1 -50 0)" gradientUnits="userSpaceOnUse" class="svga-on-canvas-eyesiris-gradient-left-6"><stop id="SvgjsStop7178" stop-opacity="1" stop-color="#ffffff" offset="0" ></stop><stop id="SvgjsStop7179" stop-opacity="0" stop-color="#ffffff" offset="1" ></stop></linearGradient><linearGradient id="SvgjsLinearGradient7181" x1="130" y1="81" x2="126" y2="85" gradientTransform="matrix(1 0 0 1 -50 0)" gradientUnits="userSpaceOnUse" class="svga-on-canvas-eyesiris-gradient-left-7"><stop id="SvgjsStop7182" stop-opacity="1" stop-color="#ffffff" offset="0" ></stop><stop id="SvgjsStop7183" stop-opacity="0" stop-color="#ffffff" offset="1" ></stop></linearGradient><radialGradient id="SvgjsRadialGradient7186" cx="-578.76" cy="-490.73" r="84.646" gradientTransform="matrix(0.096 -0.0248 0.0245 0.0961 192.4794 119.8404)" gradientUnits="userSpaceOnUse" class="svga-on-canvas-eyesiris-gradient-right-1"><stop id="SvgjsStop7187" stop-opacity="0.8" stop-color="#ffffff" offset="0" ></stop><stop id="SvgjsStop7188" stop-opacity="0" stop-color="#ffffff" offset="1" ></stop></radialGradient><radialGradient id="SvgjsRadialGradient7190" cx="-584.778" cy="-487.329" r="84.644" gradientTransform="matrix(0.0991 8.856325e-004 -0.0011 0.0991 182.3104 135.839)" gradientUnits="userSpaceOnUse" class="svga-on-canvas-eyesiris-gradient-right-2"><stop id="SvgjsStop7191" stop-opacity="0.8" stop-color="#ffffff" offset="0" ></stop><stop id="SvgjsStop7192" stop-opacity="0" stop-color="#ffffff" offset="1" ></stop></radialGradient><linearGradient id="SvgjsLinearGradient7196" x1="120.284" y1="93.047" x2="121.611" y2="91.467" gradientUnits="userSpaceOnUse" class="svga-on-canvas-eyesiris-gradient-right-5"><stop id="SvgjsStop7197" stop-opacity="1" stop-color="#ffffff" offset="0" ></stop><stop id="SvgjsStop7198" stop-opacity="0" stop-color="#ffffff" offset="1" ></stop></linearGradient><linearGradient id="SvgjsLinearGradient7200" x1="127" y1="85" x2="125" y2="87" gradientUnits="userSpaceOnUse" class="svga-on-canvas-eyesiris-gradient-right-6"><stop id="SvgjsStop7201" stop-opacity="1" stop-color="#ffffff" offset="0" ></stop><stop id="SvgjsStop7202" stop-opacity="0" stop-color="#ffffff" offset="1" ></stop></linearGradient><linearGradient id="SvgjsLinearGradient7204" x1="130" y1="81" x2="126" y2="85" gradientUnits="userSpaceOnUse" class="svga-on-canvas-eyesiris-gradient-right-7"><stop id="SvgjsStop7205" stop-opacity="1" stop-color="#ffffff" offset="0" ></stop><stop id="SvgjsStop7206" stop-opacity="0" stop-color="#ffffff" offset="1" ></stop></linearGradient><linearGradient id="SvgjsLinearGradient7237" x1="99.98" y1="171.27" x2="99.98" y2="136.351" gradientUnits="userSpaceOnUse" class="svga-on-canvas-chinshadow-gradient-single-0"><stop id="SvgjsStop7238" stop-opacity="0.8" stop-color="#ecb99d" offset="0" ></stop><stop id="SvgjsStop7239" stop-opacity="1" stop-color="#cd865f" offset="0.7" ></stop></linearGradient><radialGradient id="SvgjsRadialGradient7251" cx="125.219" cy="89.891" r="13.439" gradientTransform="matrix(-1.0552 0.0927 0.0919 1.0549 197.7875 -17.4055)" gradientUnits="userSpaceOnUse" class="svga-on-canvas-eyesback-gradient-left-0"><stop id="SvgjsStop7252" stop-opacity="1" stop-color="#ffffff" offset="0" ></stop><stop id="SvgjsStop7253" stop-opacity="1" stop-color="#fdfefe" offset="0.544" ></stop><stop id="SvgjsStop7254" stop-opacity="1" stop-color="#f6f8f9" offset="0.74" ></stop><stop id="SvgjsStop7255" stop-opacity="1" stop-color="#eaeff2" offset="0.879" ></stop><stop id="SvgjsStop7256" stop-opacity="1" stop-color="#d9e3e8" offset="0.992" ></stop><stop id="SvgjsStop7257" stop-opacity="1" stop-color="#d8e2e7" offset="1" ></stop></radialGradient><radialGradient id="SvgjsRadialGradient7259" cx="125.219" cy="89.891" r="13.439" gradientTransform="matrix(1.0552 0.0927 -0.0919 1.0549 2.2125 -17.4055)" gradientUnits="userSpaceOnUse" class="svga-on-canvas-eyesback-gradient-right-0"><stop id="SvgjsStop7260" stop-opacity="1" stop-color="#ffffff" offset="0" ></stop><stop id="SvgjsStop7261" stop-opacity="1" stop-color="#fdfefe" offset="0.544" ></stop><stop id="SvgjsStop7262" stop-opacity="1" stop-color="#f6f8f9" offset="0.74" ></stop><stop id="SvgjsStop7263" stop-opacity="1" stop-color="#eaeff2" offset="0.879" ></stop><stop id="SvgjsStop7264" stop-opacity="1" stop-color="#d9e3e8" offset="0.992" ></stop><stop id="SvgjsStop7265" stop-opacity="1" stop-color="#d8e2e7" offset="1" ></stop></radialGradient><radialGradient id="SvgjsRadialGradient7267" cx="125.219" cy="89.891" r="13.439" gradientTransform="matrix(-1.0552 0.0927 0.0919 1.0549 197.7875 -17.4055)" gradientUnits="userSpaceOnUse" class="svga-on-canvas-eyesfront-gradient-left-0"><stop id="SvgjsStop7268" stop-opacity="1" stop-color="#ffffff" offset="0" ></stop><stop id="SvgjsStop7269" stop-opacity="1" stop-color="#fdfefe" offset="0.544" ></stop><stop id="SvgjsStop7270" stop-opacity="1" stop-color="#f6f8f9" offset="0.74" ></stop><stop id="SvgjsStop7271" stop-opacity="1" stop-color="#eaeff2" offset="0.879" ></stop><stop id="SvgjsStop7272" stop-opacity="1" stop-color="#d9e3e8" offset="0.992" ></stop><stop id="SvgjsStop7273" stop-opacity="1" stop-color="#d8e2e7" offset="1" ></stop></radialGradient><radialGradient id="SvgjsRadialGradient7277" cx="124.909" cy="84.956" fx="139.085" fy="84.626" r="17.962" gradientTransform="matrix(0.9998 0.0208 0.0193 -0.9282 -51.4325 161.2135)" gradientUnits="userSpaceOnUse" class="svga-on-canvas-eyesfront-gradient-left-3"><stop id="SvgjsStop7278" stop-opacity="1" stop-color="#ecb99d" offset="0" ></stop><stop id="SvgjsStop7279" stop-opacity="0.3" stop-color="#ecb99d" offset="0.7" ></stop><stop id="SvgjsStop7280" stop-opacity="0" stop-color="#fbd5c0" offset="1" ></stop></radialGradient><radialGradient id="SvgjsRadialGradient7282" cx="82.066" cy="77.677" r="19.326" gradientTransform="matrix(0.6928 -0.0978 0.0983 0.7033 9.9183 45.7976)" gradientUnits="userSpaceOnUse" class="svga-on-canvas-eyesfront-gradient-left-4"><stop id="SvgjsStop7283" stop-opacity="0" stop-color="#000000" offset="0.9" ></stop><stop id="SvgjsStop7284" stop-opacity="0.3" stop-color="#000000" offset="1" ></stop></radialGradient><radialGradient id="SvgjsRadialGradient7288" cx="125.219" cy="89.891" r="13.439" gradientTransform="matrix(1.0552 0.0927 -0.0919 1.0549 2.2125 -17.4055)" gradientUnits="userSpaceOnUse" class="svga-on-canvas-eyesfront-gradient-right-0"><stop id="SvgjsStop7289" stop-opacity="1" stop-color="#ffffff" offset="0" ></stop><stop id="SvgjsStop7290" stop-opacity="1" stop-color="#fdfefe" offset="0.544" ></stop><stop id="SvgjsStop7291" stop-opacity="1" stop-color="#f6f8f9" offset="0.74" ></stop><stop id="SvgjsStop7292" stop-opacity="1" stop-color="#eaeff2" offset="0.879" ></stop><stop id="SvgjsStop7293" stop-opacity="1" stop-color="#d9e3e8" offset="0.992" ></stop><stop id="SvgjsStop7294" stop-opacity="1" stop-color="#d8e2e7" offset="1" ></stop></radialGradient><radialGradient id="SvgjsRadialGradient7298" cx="124.909" cy="84.956" fx="139.085" fy="84.626" r="17.962" gradientTransform="matrix(-0.9998 0.0208 -0.0193 -0.9282 251.4325 161.2135)" gradientUnits="userSpaceOnUse" class="svga-on-canvas-eyesfront-gradient-right-3"><stop id="SvgjsStop7299" stop-opacity="1" stop-color="#ecb99d" offset="0" ></stop><stop id="SvgjsStop7300" stop-opacity="0.3" stop-color="#ecb99d" offset="0.7" ></stop><stop id="SvgjsStop7301" stop-opacity="0" stop-color="#fbd5c0" offset="1" ></stop></radialGradient><radialGradient id="SvgjsRadialGradient7303" cx="82.066" cy="77.677" r="19.326" gradientTransform="matrix(-0.6928 -0.0978 -0.0983 0.7033 190.0817 45.7978)" gradientUnits="userSpaceOnUse" class="svga-on-canvas-eyesfront-gradient-right-4"><stop id="SvgjsStop7304" stop-opacity="0" stop-color="#000000" offset="0.9" ></stop><stop id="SvgjsStop7305" stop-opacity="0.3" stop-color="#000000" offset="1" ></stop></radialGradient><linearGradient id="SvgjsLinearGradient7350" x1="100" y1="141" x2="100" y2="138" gradientUnits="userSpaceOnUse" class="svga-on-canvas-mouth-gradient-single-0"><stop id="SvgjsStop7351" stop-opacity="1" stop-color="#f3c7ae" offset="0.1" ></stop><stop id="SvgjsStop7352" stop-opacity="1" stop-color="#ecb99d" offset="1" ></stop></linearGradient></defs><g id="svga-group-wrapper"><g id="svga-group-backs-single"><path id="SvgjsPath7378" d="M225,225H-25V-25h250V225z" fill="#45ada8" stroke-width="none" opacity="1" stroke="none"></path><path id="SvgjsPath7379" d="M137.635-25h14.142L225,48.224v14.142L137.635-25z M225,90.649V76.507L123.492-25h-14.142L225,90.649z M225,118.934v-14.142L95.208-25H81.065L225,118.934z M225,147.219v-14.143L66.925-25H52.782L225,147.219z M225,225v-7.071L-17.929-25H-25v7.071L217.929,225H225z M225,5.796V-8.345L208.345-25h-14.142L225,5.796z M225,34.081V19.939L180.061-25h-14.142L225,34.081z M225,175.503V161.36L38.64-25H24.497L225,175.503z M222.487-25L225-22.487V-25H222.487z M48.224,225h14.143L-25,137.635v14.142L48.224,225z M19.938,225h14.143L-25,165.919v14.143L19.938,225z M-8.345,225H5.798L-25,194.203v14.143L-8.345,225z M76.507,225h14.143L-25,109.351v14.142L76.507,225z M-22.487,225L-25,222.487V225H-22.487z M161.36,225h14.143L-25,24.497V38.64L161.36,225z M104.792,225h14.142L-25,81.066v14.142L104.792,225z M189.645,225h14.142L-25-3.787v14.142L189.645,225z M225,203.787v-14.143L10.354-25H-3.786L225,203.787z M133.076,225h14.142L-25,52.782v14.142L133.076,225z" fill="#2f9e98" stroke-width="none" opacity="1" stroke="none"></path></g><g id="svga-group-humanwrap-move" transform="matrix(1,0,0,1,0,0)"><g id="svga-group-humanwrap" transform="matrix(0.8499995000000001,0,0,0.8499995000000001,14.98490104756425,17.27939009251068)"><g id="svga-group-hair-back-move" transform="matrix(1,0,0,1,0,0)"><g id="svga-group-hair-back" transform="matrix(1,0,0,1,0,0)"><path id="SvgjsPath7368" d="M160 24.999H40c0 0-1 193.284-1 199h123L160 24.999z" fill="#4c2d1e" stroke-width="none" opacity="1" stroke="none"></path></g></g><g id="svga-group-humanbody-single"><path id="SvgjsPath7085" d="M190.858 199.866c-6.008-10.158-13.474-11.973-19.628-13.936 -6.323-2.016-19.346-3.178-26.449-4.6 -6.86-1.373-23.153-5.789-23.339-13.488 -0.192-8.066 4.291-40.09 4.291-40.09H74.005c0 0 4.487 32.023 4.294 40.09 -0.184 7.699-16.48 12.115-23.341 13.488 -7.104 1.422-20.125 2.584-26.448 4.6 -6.156 1.963-13.624 3.777-19.632 13.936 -3.644 6.16-6.008 16.133-6.008 27.133h194C196.869 215.999 194.509 206.026 190.858 199.866z" fill="#fbd5c0" stroke-width="none" opacity="1" stroke="none"></path><path id="SvgjsPath7086" d="M121.442 167.843c2.495 10.929 18.165 13.698 26.293 15.325 21.909 4.379 33.772 5.134 42.297 19.539 2.903 4.916 5.459 15.864 5.962 24.153 1.835 0.291 0.531-17.432-5.136-26.994 -9.742-16.472-29.089-15.135-46.077-18.535C137.921 179.958 121.628 175.542 121.442 167.843L121.442 167.843zM78.558 167.843c-0.186 7.699-16.479 12.115-23.339 13.488 -16.988 3.4-36.335 2.063-46.077 18.535 -5.667 9.563-6.971 27.285-5.136 26.994 0.503-8.289 3.059-19.237 5.962-24.153 8.524-14.405 20.388-15.16 42.297-19.539C60.393 181.541 76.063 178.771 78.558 167.843L78.558 167.843z" fill="#ffe9dd" stroke-width="none" opacity="1" stroke="none"></path><path id="SvgjsPath7087" d="M51.206 189.513c0 0 28.641 0.299 33.473 1.885 2.314 0.758 8.372 5.633 8.372 5.633s-6.556-3.17-8.658-3.758C79.51 191.909 51.206 189.513 51.206 189.513zM99.795 199.999c2.053-0.041 7.887-3.799 7.887-3.799s-5.574 2.059-7.342 2.16c-1.491 0.086-6.366-1.238-6.366-1.238S98.112 200.032 99.795 199.999zM117.008 192.757c6.75-1.818 29.786-3.23 29.786-3.23s-23.791-0.516-30.51 1.725c-2.252 0.752-7.562 5.16-7.562 5.16S114.786 193.354 117.008 192.757z" fill="#ecb99d" stroke-width="none" opacity="1" stroke="none"></path><path id="SvgjsPath7088" d="M190.858 199.866c-9.741-16.471-29.122-15.142-46.077-18.535 -6.86-1.373-23.153-5.789-23.339-13.488 -0.192-8.066 4.291-40.09 4.291-40.09H74.005c0 0 4.487 32.023 4.294 40.09 -0.184 7.699-16.48 12.115-23.341 13.488 -7.104 1.422-20.125 2.584-26.448 4.6 -6.156 1.963-13.624 3.777-19.632 13.936 -3.644 6.16-6.008 16.133-6.008 27.133h194C196.869 215.999 194.509 206.026 190.858 199.866z" fill="none" stroke="#cd865f" stroke-width="1.5" opacity="1"></path></g><g id="svga-group-chinshadow-single"><path id="SvgjsPath7236" d="M90.469 169.769c4.474 1.646 14.594 1.646 19.067 0 3.511-1.291 7.479-4.019 11.489-7.484 0.785-10.522 3.279-28.936 3.919-33.578 -1.113-0.109-2.256-0.21-3.428-0.303H78.609c-1.305 0.103-2.578 0.216-3.811 0.339 0.643 4.663 3.096 22.765 3.899 33.297C82.804 165.622 86.875 168.447 90.469 169.769z" fill="url(#SvgjsLinearGradient7237)" opacity="1"></path></g><g id="svga-group-clothes-single"><path id="SvgjsPath7364" d="M1.509 238.026c0.211-43.783 8.946-50.671 43.101-55.823 13.099-1.976 25.278-3.824 31.798-13.197 -1.371-1.441-1.8-3.341-0.473-4.779 -0.706-1.084-0.696-3.223 1.426-3.401 0.198 1.43-0.4 0.875 2.776 2.219 19.874 8.397 27.911 4.119 39.35 0.265 2.39-0.809 2.695-0.969 2.955-2.997 0.506 0.199 0.846 0.559 0.891 0.712 0.56 0.894-0.327 2.033-0.483 2.944 1.049 1.008 0.442 2.331-0.431 3.502 15.514 25.709 65.877 1.542 74.242 44.425 1.391 12.381 1.61 25.702 1.626 26.956C197.287 238.851 66.557 239.192 1.509 238.026z" fill="#ef5d25" stroke-width="none" opacity="1"></path><path id="SvgjsPath7365" d="M191.032 202.707c5.877 8.853 4.81 18.807 6.837 24.292 0-11-2.36-20.973-6.011-27.133 -9.742-16.472-26.089-14.936-43.077-18.336 -16.079-3.218-21.88-6.521-25.599-12.503C135.104 189.31 175.119 178.735 191.032 202.707zM76.817 169.027c-3.719 5.981-9.52 9.285-25.599 12.503 -16.988 3.4-33.335 1.864-43.077 18.336 -3.65 6.16-6.011 16.133-6.011 27.133 2.027-5.485 0.96-15.439 6.837-24.292C24.881 178.735 64.896 189.31 76.817 169.027z" fill="#fe7541" stroke-width="none" opacity="1"></path><path id="SvgjsPath7366" d="M75.177 165.438c-2.58 9.201 40.672 8.591 30.123 8.857C96.484 174.524 72.865 172.321 75.177 165.438zM111.789 173.288c10.395-3.424 11.681-7.793 11.681-7.793 -0.05 0.053-0.198 0.512-0.668 0.945 -0.907 0.995-10.79 6.722-12.128 7.167C110.674 173.607 111.118 173.52 111.789 173.288zM105.973 171.604c14.206-1.792 16.845-7.246 16.845-7.246 -4.313 6.62-29.991 10.398-46.95-0.03C83.98 170.032 94.415 173.021 105.973 171.604z" fill="#e0470c" stroke-width="none" opacity="1"></path><path id="SvgjsPath7367" d="M196.759 211.875c-8.383-42.978-59.187-18.908-74.22-44.399 0.885-1.192 1.451-2.551 0.38-3.58 0.405-0.852 1.035-2.112 0.51-2.9 -0.061-0.205-0.485-0.629-1.069-0.819l-0.061 0.46c0 0 0 0 0.001 0 -0.278 2.326-1.229 1.798-5.961 3.72 -18.553 7.739-31.947 0.168-38.58-2.399 -0.25-0.07-0.261-0.64-0.261-1.008 -0.002 0.003-0.014 0.005-0.018 0.007l-0.033-0.235c-0.613 0.026-1.382 0.307-1.728 0.886 0 0.01-0.01 0.01-0.01 0.02 -0.357 0.559-0.442 1.75 0.1 2.591 -1.129 1.227-1.058 3.197 0.47 4.8 -15.166 21.719-62.593 2.866-72.31 39.14 -2.093 9.049-2.56 28.104-2.56 29.97 0 0 62.375 1.143 196.89 0.82 0.03-0.01 0.061-0.01 0.09 0C198.389 237.945 198.151 224.264 196.759 211.875zM1.519 237.766c0.27-5.87 0.85-15.73 2.22-25.79 9.012-40.5 55.892-18.97 72.77-42.73 5.653 5.751 24.777 6.521 31.05 4.851 -9.29 1.206-36.968-2.302-31.61-9.7 0.315 0.445 1.567 1.588 2.135 1.629 -0.039 0.077 0.044-0.082 0.002-0.004 -0.227-0.319-1.636-1.794-1.727-2.025 -0.338-0.42-0.451-1.741-0.17-2.21 0.144-0.283 0.475-0.453 0.774-0.562 0.359 2.418-0.533 1.245 7.996 4.361 19.91 7.275 28.574 0.224 35.76-2.25 1.653-0.534 1.917-1.917 1.959-2.43 0.063 0.048 0.118 0.095 0.132 0.14 0.643 0.79 0.121 1.876-0.19 2.841 -0.01 0.01-0.01 0.029-0.02 0.04 -0.213 0.564-0.601 1.341-0.949 1.841 0.569-0.422 0.846-1.043 1.148-1.621 2.183 2.98-8.034 7.582-11.37 9.25 1.98-0.792 7.546-1.585 10.921-5.69 16.262 27.701 70.326-0.145 74.72 52.261 0.903 10.771 0.804 9.778 1.22 18.81C95.539 237.251 111.997 237.184 1.519 237.766z" fill="#c13600" stroke-width="none" opacity="1"></path></g><g id="svga-group-head" transform="matrix(1,0,0,1,0,0)"><g id="svga-group-ears-left-move" transform="matrix(1,0,0,1,0,0)"><g id="svga-group-ears-left" transform="matrix(1,0,0,1,0,0)"><path id="SvgjsPath7359" d="M46.778 83.745c-2.623-1.422-8.575-8.182-11.138-7.219 -1.655 0.62-2.377 5.286-2.638 7.174 -0.333 2.425-0.929 7.405-0.328 9.781 0.725 2.866 3.631 8.169 5.37 10.589 1.468 2.039 5.211 5.568 6.407 7.769 0.759 1.396 1.493 5.159 4.083 4.916 1.674-0.157 5.537-2.95 5.744-4.274C55.406 105.296 51.943 86.543 46.778 83.745z" fill="#fbd5c0" stroke="#cd865f" stroke-width="1.5" opacity="1"></path><path id="SvgjsPath7360" d="M43.313 99.25c-0.125-0.534 0.006-1.432 0.133-2.3 0.115-0.791 0.224-1.538 0.158-2.066 -0.251-1.978-1.66-5.737-2.578-7.775 -1.059-2.343-2.771-5.296-4.919-6.057 -0.888-0.316-1.473 0.061-1.813 0.443 -0.248 0.281-0.305 0.61-0.223 0.649 0.082 0.039 0.266-0.234 0.535-0.491 0.219-0.21 0.542-0.391 0.983-0.354 -0.178 0.985-1.091 6.32-0.696 9.957 0.311 2.86 1.489 4.996 1.673 5.316 0.028 0.337 0.073 0.667 0.139 0.987 0.869 4.175 4.648 8.921 5.963 10.476 0.243 0.285 0.496 0.456 0.56 0.388 0.062-0.07-0.087-0.354-0.33-0.642 -1.298-1.545-5.042-6.274-5.879-10.302 -0.89-4.273 2.167-10.609 2.849-11.949 0.348 0.629 0.643 1.234 0.87 1.737 0.179 0.396 0.378 0.858 0.581 1.358 -0.402 0.699-3.211 5.802-2.187 9.886 0.38 1.505 2.088 3.447 3.223 3.979 0.624 0.293 0.859 0.731 1.13 1.237 0.314 0.589 0.673 1.255 1.708 1.738 0.211 0.097 0.402 0.138 0.571 0.138 0.293 0 0.515-0.122 0.679-0.271 0.017 0.258 0.016 0.588 0.007 0.893 -0.01 0.395 0.041 0.717 0.129 0.725s0.182-0.305 0.192-0.696c0.016-0.483 0.013-1.081-0.067-1.367 -0.232-0.842-0.942-1.792-1.694-2.798C44.27 101.098 43.504 100.074 43.313 99.25zM36.538 95.548c-2.035-6.554 0-12.573 0.458-13.472 0.795 0.754 2.108 2.125 2.679 3.111C39.258 85.976 36.623 91.14 36.538 95.548zM45.318 105.137c-0.938-0.438-1.253-1.024-1.557-1.591 -0.275-0.514-0.56-1.044-1.281-1.383 -0.157-0.074-0.33-0.186-0.505-0.314 -2.324-5.75 0.254-8.264 0.899-8.779 0.199 0.703 0.346 1.348 0.411 1.865 0.061 0.475-0.05 1.229-0.156 1.959 -0.132 0.904-0.268 1.839-0.127 2.445 0.211 0.902 0.999 1.957 1.76 2.977 0.677 0.905 1.373 1.839 1.609 2.601C46.271 105.067 45.949 105.43 45.318 105.137z" fill="#cd865f" stroke-width="none" opacity="1"></path></g></g><g id="svga-group-ears-right-move" transform="matrix(1,0,0,1,0,0)"><g id="svga-group-ears-right" transform="matrix(1,0,0,1,0,0)"><path id="SvgjsPath7361" d="M152.961 83.745c2.623-1.422 8.574-8.182 11.137-7.219 1.656 0.62 2.379 5.286 2.639 7.174 0.334 2.425 0.928 7.405 0.328 9.781 -0.725 2.866-3.631 8.169-5.371 10.589 -1.467 2.039-5.211 5.568-6.406 7.769 -0.76 1.396-1.492 5.159-4.084 4.916 -1.674-0.157-5.535-2.95-5.744-4.274C144.332 105.296 147.795 86.543 152.961 83.745z" fill="#fbd5c0" stroke="#cd865f" stroke-width="1.5" opacity="1"></path><path id="SvgjsPath7362" d="M154.729 102.088c-0.752 1.006-1.463 1.957-1.695 2.798 -0.078 0.286-0.082 0.884-0.066 1.367 0.012 0.392 0.105 0.704 0.193 0.696s0.139-0.33 0.129-0.725c-0.01-0.305-0.01-0.635 0.006-0.893 0.164 0.148 0.387 0.271 0.68 0.271 0.168 0 0.359-0.041 0.57-0.138 1.035-0.483 1.395-1.149 1.709-1.738 0.271-0.506 0.506-0.943 1.131-1.237 1.133-0.532 2.842-2.473 3.223-3.979 1.023-4.084-1.785-9.187-2.188-9.886 0.203-0.5 0.402-0.962 0.582-1.358 0.225-0.503 0.521-1.108 0.869-1.737 0.682 1.34 3.738 7.676 2.848 11.949 -0.838 4.028-4.582 8.757-5.879 10.302 -0.242 0.288-0.393 0.571-0.33 0.642 0.064 0.068 0.318-0.103 0.561-0.388 1.314-1.555 5.094-6.301 5.963-10.476 0.066-0.32 0.111-0.65 0.139-0.987 0.184-0.32 1.363-2.457 1.674-5.316 0.395-3.637-0.518-8.972-0.695-9.957 0.441-0.038 0.764 0.143 0.982 0.354 0.268 0.257 0.453 0.53 0.535 0.491 0.08-0.039 0.023-0.369-0.223-0.649 -0.342-0.382-0.926-0.759-1.813-0.443 -2.148 0.761-3.861 3.713-4.92 6.057 -0.92 2.038-2.326 5.797-2.578 7.775 -0.066 0.528 0.043 1.275 0.158 2.066 0.127 0.868 0.256 1.766 0.133 2.3C156.234 100.074 155.469 101.098 154.729 102.088zM160.064 85.187c0.57-0.986 1.883-2.357 2.678-3.111 0.457 0.899 2.494 6.918 0.459 13.472C163.115 91.14 160.48 85.976 160.064 85.187zM153.367 104.916c0.236-0.762 0.932-1.695 1.609-2.601 0.762-1.02 1.549-2.075 1.76-2.977 0.141-0.606 0.006-1.541-0.127-2.445 -0.105-0.73-0.217-1.485-0.156-1.959 0.066-0.517 0.213-1.162 0.412-1.865 0.645 0.515 3.223 3.029 0.898 8.779 -0.176 0.129-0.348 0.241-0.504 0.314 -0.723 0.339-1.008 0.869-1.281 1.383 -0.305 0.567-0.619 1.154-1.559 1.591C153.789 105.43 153.467 105.067 153.367 104.916z" fill="#cd865f" stroke-width="none" opacity="1"></path></g></g><g id="svga-group-faceshape-wrap" transform="matrix(1,0,0,1,0,0)"><g id="svga-group-faceshape-single"><path id="SvgjsPath7233" d="M144.004 125.052c-6.87 10.737-23.072 30.026-34.468 34.218 -4.474 1.646-14.594 1.646-19.067 0 -11.396-4.192-27.596-23.481-34.467-34.218 -6.753-10.551-14.852-47.803-14.863-47.856 -1.3-4.912-1.996-10.066-2.004-15.382C39.082 28.339 66.289 1.168 99.907 1.116c33.621-0.052 60.913 27.032 60.963 60.506 0.009 5.316-0.669 10.473-1.952 15.389C158.901 77.063 150.78 114.46 144.004 125.052z" fill="#fbd5c0" stroke-width="none" opacity="1" stroke="none"></path><path id="SvgjsPath7234" d="M110.152 1.969c26.994 6.24 47.097 30.337 47.052 59.111 -0.009 5.315-0.704 10.471-2.004 15.382 -0.012 0.053-7.377 37.307-14.13 47.856 -6.872 10.735-22.339 29.292-33.734 33.484 -1.476 0.544-5.027 1.092-7.334 1.092 -2.307 0-5.857-0.548-7.333-1.092 -11.396-4.192-26.863-22.749-33.734-33.484 -6.753-10.55-14.119-47.803-14.13-47.856 -1.3-4.911-1.996-10.066-2.004-15.382C42.756 32.307 62.857 8.209 89.853 1.969 61.03 6.788 39.087 31.751 39.134 61.813c0.008 5.315 0.704 10.47 2.004 15.382 0.012 0.053 8.11 37.306 14.863 47.856 6.871 10.736 23.072 30.025 34.467 34.218 2.239 0.824 5.889 1.235 9.537 1.232 3.646 0.001 7.292-0.408 9.53-1.232 11.396-4.192 27.596-23.481 34.468-34.218 6.753-10.551 14.852-47.803 14.862-47.856 1.3-4.912 1.996-10.066 2.004-15.382C160.918 31.751 138.975 6.788 110.152 1.969z" fill="#f3c7ae" stroke-width="none" opacity="1" stroke="none"></path><path id="SvgjsPath7235" d="M144.004 125.052c-6.87 10.737-23.072 30.026-34.468 34.218 -4.474 1.646-14.594 1.646-19.067 0 -11.396-4.192-27.596-23.481-34.467-34.218 -6.753-10.551-14.852-47.803-14.863-47.856 -1.3-4.912-1.996-10.066-2.004-15.382C39.082 28.339 66.289 1.168 99.907 1.116c33.621-0.052 60.913 27.032 60.963 60.506 0.009 5.316-0.669 10.473-1.952 15.389C158.901 77.063 150.78 114.46 144.004 125.052z" fill="none" stroke="#cd865f" stroke-width="1.5" opacity="1"></path></g></g><g id="svga-group-mouth-single-move" transform="matrix(1,0,0,1,0,0)"><g id="svga-group-mouth-single" transform="matrix(1,0,0,1,0,0)"><path id="SvgjsPath7349" d="M100.002 141.435c-4.158 0-5.133-3.232-5.133-3.232h10.267C105.136 138.202 103.659 141.435 100.002 141.435z" fill="url(#SvgjsLinearGradient7350)" opacity="1"></path><path id="SvgjsPath7353" d="M87.536 132.96c2.756-0.951 6.239-3.625 8.432-3.723 1.133-0.051 2.351 0.87 3.574 1.166 0.851 0.207 3.264-1.156 4.13-1.166 2.272-0.022 6.326 2.771 8.769 3.723 0.135 0.055 0 0 0 0s-5.056 6.021-12.452 6.021C91.618 138.98 87.536 132.96 87.536 132.96S87.399 133.01 87.536 132.96z" fill="#a96a47" stroke="#9a5731" stroke-width="0.75" opacity="1"></path><path id="SvgjsPath7354" d="M112.808 132.902c-0.187-0.076-0.606-0.028-0.753-0.021 -0.304 0.016-0.546-0.117-1.214-0.129 -0.742-0.012-3.945-0.268-5.003-0.338 -2.129-0.143-3.824 0.666-5.848 0.666 -2.025 0-3.868-0.883-5.996-0.74 -1.057 0.072-4.113 0.395-4.857 0.412 -0.663 0.019-0.923 0.133-1.231 0.12 -0.143-0.007-0.595-0.05-0.771 0.05 -0.147 0.086-0.09 0.559 0.027 0.683 0.285 0.298 1.397-0.233 1.959-0.22 0.777 0.017 3.843-0.05 4.917-0.121 2.081-0.142 3.936 0.821 5.952 0.821s3.725-0.889 5.806-0.749c1.071 0.072 4.281 0.064 5.06 0.049 0.563-0.014 1.764 0.449 2.052 0.22C113.043 133.495 112.972 132.969 112.808 132.902z" fill="#7b350f" stroke-width="none" opacity="1" stroke="none"></path><path id="SvgjsPath7355" d="M99.989 137.439c-3.37 0-6.645-1.154-9.241-3.306 1.307-0.072 2.652-0.277 3.961-0.219 1.613 0.07 3.144 0.705 4.756 0.813 1.742 0.116 3.358-0.488 5.064-0.695 1.422-0.171 2.931 0.059 4.357 0.111C106.335 136.101 103.244 137.439 99.989 137.439zM104.78 131.682c1.313-0.08 2.661 0.088 3.974 0.141 -1.43-0.712-2.953-1.553-4.549-1.807 -1.374-0.218-2.71 0.882-4.045 1.104 -1.506 0.25-2.69-1.15-4.16-1.15 -1.592 0.07-3.198 1.099-4.576 1.805 1.282-0.076 2.6-0.263 3.884-0.141 1.572 0.147 3.094 0.714 4.682 0.714C101.612 132.348 103.161 131.78 104.78 131.682z" fill="#b87f60" stroke-width="none" opacity="1" stroke="none"></path><path id="SvgjsPath7356" d="M99.941 136.486c-2.029 0-4.007-0.701-5.707-2.001 0.38-0.037 0.764-0.066 1.133-0.066 0.117 0 0.234 0.003 0.351 0.009 0.609 0.033 1.209 0.208 1.846 0.394 0.618 0.178 1.256 0.363 1.923 0.419 0.132 0.012 0.264 0.016 0.395 0.016 0.819 0 1.596-0.204 2.348-0.399 0.477-0.126 0.928-0.245 1.392-0.313 0.253-0.04 0.527-0.058 0.837-0.058 0.268 0 0.544 0.014 0.818 0.034C103.862 135.572 102.03 136.486 99.941 136.486z" fill="#c8977c" stroke-width="none" opacity="1" stroke="none"></path></g></g><g id="svga-group-eyes-left-move" transform="matrix(1,0,0,1,0,0)"><g id="svga-group-eyes-left" transform="matrix(1,0,0,1,0,0)"><g id="svga-group-eyesback-left"><path id="SvgjsPath7250" d="M86.66 84.231c0.748 1.472 1.181 3.05 1.181 4.654 0 3.108-1.716 5.337-3.133 6.88 -6.936 6.296-17.723 5.964-23.191-1.044 -0.984-1.617-1.528-3.528-1.518-5.667C65.019 76.267 78.859 72.676 86.66 84.231z" fill="url(#SvgjsRadialGradient7251)" opacity="1"></path></g><g id="svga-group-eyesiriswrapper-left" transform="matrix(1,0,0,1,0,1)"><g id="svga-group-eyesiriscontrol-left" transform="matrix(1,0,0,1,0,0)"><g id="svga-group-eyesiris-left" transform="matrix(1,0,0,1,0,0)"><path id="SvgjsPath7308" d="M72.886 86.517l-6.655-1.519C66.084 85.643 66 86.311 66 86.999c0 0.689 0.085 1.357 0.231 2.001l8.768-2.001L72.886 86.517z" fill="#ea2e2e" stroke-width="none" opacity="1"></path><path id="SvgjsPath7309" d="M67.969 92.608c0.838 1.049 1.907 1.902 3.129 2.492l3.9-8.099L67.969 92.608z" fill="#f09330" stroke-width="none" opacity="1"></path><path id="SvgjsPath7310" d="M75.001 95.999c1.399 0 2.719-0.329 3.899-0.898l-3.9-8.1L75.001 95.999z" fill="#64398e" stroke-width="none" opacity="1"></path><path id="SvgjsPath7311" d="M75 87l7.032 5.607c0.83-1.039 1.432-2.265 1.736-3.606L75 87z" fill="#393b97" stroke-width="none" opacity="1"></path><path id="SvgjsPath7312" d="M75 86.999l2.738-0.625 6.03-1.376c-0.305-1.341-0.906-2.567-1.736-3.606L75 86.999z" fill="#00aa4f" stroke-width="none" opacity="1"></path><path id="SvgjsPath7313" d="M78.9 78.897c-1.182-0.57-2.501-0.898-3.9-0.898v8.998L78.9 78.897z" fill="#fae636" stroke-width="none" opacity="1"></path><path id="SvgjsPath7314" d="M71.098 78.898c-1.222 0.59-2.291 1.442-3.13 2.492l7.03 5.607L71.098 78.898z" fill="#9c2d91" stroke-width="none" opacity="1"></path><path id="SvgjsPath7315" d="M75 86.999L83.769 89C83.915 88.356 84 87.688 84 86.999s-0.085-1.357-0.231-2.001l-6.03 1.376L75 86.999z" fill="#ea2e2e" stroke-width="none" opacity="1"></path><path id="SvgjsPath7316" d="M75 86.999L75 86.999 75.001 87l3.9 8.1c1.223-0.59 2.293-1.443 3.131-2.493L75 86.999 75 86.999z" fill="#9b328d" stroke-width="none" opacity="1"></path><path id="SvgjsPath7317" d="M75 87L75 87 75 87 75 87 75 87 75 87 75 87l-3.9 8.1c1.181 0.57 2.501 0.899 3.9 0.899h0.001L75 87 75 87z" fill="#fde92b" stroke-width="none" opacity="1"></path><path id="SvgjsPath7318" d="M74.999 87L74.999 87 74.999 87 74.999 87 74.999 87 74.999 87 74.999 87 74.999 87 74.999 87 74.999 87 74.999 87l-8.768 2.001c0.305 1.341 0.907 2.567 1.737 3.607L74.999 87 74.999 87z" fill="#00aa4f" stroke-width="none" opacity="1"></path><path id="SvgjsPath7319" d="M75 86.998L75 86.998 75 86.998 75 86.998 75 86.998 75 86.998 75 86.998v-8.999c-1.4 0-2.72 0.329-3.901 0.899L75 86.998 75 86.998z" fill="#65378f" stroke-width="none" opacity="1"></path><path id="SvgjsPath7320" d="M75 86.999L75 86.999 75 86.999l7.032-5.608c-0.838-1.05-1.908-1.903-3.131-2.493l-3.9 8.1L75 86.999z" fill="#ec9236" stroke-width="none" opacity="1"></path><path id="SvgjsPath7321" d="M74.999 86.999L74.999 86.999l-7.031-5.608c-0.83 1.04-1.432 2.266-1.736 3.606l6.654 1.519L74.999 86.999z" fill="#393b97" stroke-width="none" opacity="1"></path><path id="SvgjsPath7322" d="M75 77.999c4.971 0 9 4.029 9 9s-4.029 9-9 9 -9-4.029-9-9S70.029 77.999 75 77.999z" fill="#000000" stroke-width="none" opacity="0.3"></path><path id="SvgjsPath7323" d="M78.5 86.999c0 1.933-1.566 3.5-3.5 3.5s-3.5-1.567-3.5-3.5 1.566-3.5 3.5-3.5S78.5 85.066 78.5 86.999z" fill="#000000" stroke-width="none" opacity="1"></path><path id="SvgjsPath7324" d="M71.653 93.108c-0.47 0.469-1.396 0.304-2.069-0.369 -0.674-0.673-0.84-1.601-0.369-2.07 0.469-0.47 1.395-0.304 2.068 0.369C71.956 91.712 72.122 92.639 71.653 93.108z" fill="#ffffff" stroke-width="none" opacity="0.7"></path><path id="SvgjsPath7325" d="M81.809 85.326c-0.702 0.703-2.403 0.142-3.8-1.254 -1.396-1.396-1.957-3.098-1.256-3.8 0.703-0.703 2.405-0.142 3.8 1.254C81.949 82.922 82.512 84.624 81.809 85.326z" fill="#ffffff" stroke-width="none" opacity="0.9"></path></g></g></g><g id="svga-group-eyesfront-left"><path id="SvgjsPath7275" d="M55 89c0 13.808 8.507 24.999 19 24.999S93 102.808 93 89c0-13.809-8.507-25.001-19-25.001S55 75.191 55 89zM61.517 94.721c-0.984-1.617-1.528-3.528-1.518-5.667 5.02-12.787 18.86-16.378 26.661-4.822 0.748 1.472 1.181 3.05 1.181 4.654 0 3.108-1.716 5.337-3.133 6.88C77.772 102.061 66.985 101.729 61.517 94.721z" fill="#fbd5c0" stroke-width="none" opacity="1" stroke="none"></path><path id="SvgjsPath7276" d="M57.063 86.713c0.814 9.341 9.499 16.142 19.41 15.198 9.908-0.95 17.284-9.286 16.465-18.625 -0.814-9.342-9.5-16.145-19.412-15.199C63.615 69.038 56.243 77.374 57.063 86.713zM59.999 89.054c5.02-12.787 18.86-16.378 26.661-4.822 0.748 1.472 1.181 3.05 1.181 4.654 0 3.108-1.716 5.337-3.133 6.88 -6.936 6.296-17.723 5.964-23.191-1.044C60.532 93.104 59.988 91.193 59.999 89.054z" fill="url(#SvgjsRadialGradient7277)" opacity="1"></path><path id="SvgjsPath7281" d="M81.835 79.36c1.751 1.137 3.391 2.746 4.825 4.871 0.748 1.472 1.181 3.05 1.181 4.654 0 3.108-1.716 5.337-3.133 6.88 -6.936 6.296-17.723 5.964-23.191-1.044 -0.984-1.617-1.528-3.528-1.518-5.667 2.306-5.874 6.475-9.8 11.063-11.216 0.492-0.123 0.994-0.221 1.506-0.293C75.914 77.071 79.118 77.794 81.835 79.36z" fill="url(#SvgjsRadialGradient7282)" opacity="1"></path><path id="SvgjsPath7285" d="M85.831 76.642c-5.97-3.487-13.357-4.669-21.869-0.887C70.286 72.031 79.389 71.736 85.831 76.642z" fill="#cd865f" stroke-width="none" opacity="1" stroke="none"></path><path id="SvgjsPath7286" d="M61.42 94.437c5.438 6.916 16.313 7.27 23.288 1.123C76.492 104.249 62.78 99.934 61.42 94.437zM89.378 80.015c-6.384-8.038-22.106-6.856-30.795-0.861 2.103-0.601 3.804-1.189 6.62-2.33 -5.615 2.601-5.615 4.669-10.263 9.476l2.246-1.852 -1.182 3.369c1.184-1.713 1.863-2.423 2.638-3.015 -0.296 1.064-0.473 1.714-0.709 3.015 1.58-2.138 2.498-3.246 3.724-4.197 -1.403 1.989-1.822 3.855-2.01 6.325 4.965-13.89 20.687-17.496 28.312-3.487 -0.464-2.242-1.42-3.989-2.482-5.556 1.747 0.8 3.175 2.443 4.492 4.965 -1.063-4.314-1.714-5.438-5.379-8.275L89.378 80.015z" fill="#582311" stroke-width="none" opacity="1" stroke="none"></path></g></g></g><g id="svga-group-eyes-right-move" transform="matrix(1,0,0,1,0,0)"><g id="svga-group-eyes-right" transform="matrix(1,0,0,1,0,0)"><g id="svga-group-eyesback-right"><path id="SvgjsPath7258" d="M113.34 84.231c-0.748 1.472-1.181 3.05-1.181 4.654 0 3.108 1.716 5.337 3.133 6.88 6.936 6.296 17.723 5.964 23.191-1.044 0.984-1.617 1.528-3.528 1.518-5.667C134.981 76.267 121.141 72.676 113.34 84.231z" fill="url(#SvgjsRadialGradient7259)" opacity="1"></path></g><g id="svga-group-eyesiriswrapper-right" transform="matrix(1,0,0,1,0,1)"><g id="svga-group-eyesiriscontrol-right" transform="matrix(1,0,0,1,0,0)"><g id="svga-group-eyesiris-right" transform="matrix(1,0,0,1,0,0)"><path id="SvgjsPath7326" d="M122.886 86.517l-6.655-1.519c-0.146 0.645-0.23 1.313-0.23 2.001 0 0.689 0.085 1.357 0.231 2.001l8.768-2.001L122.886 86.517z" fill="#ea2e2e" stroke-width="none" opacity="1"></path><path id="SvgjsPath7327" d="M117.969 92.608c0.838 1.049 1.907 1.902 3.129 2.492l3.9-8.099L117.969 92.608z" fill="#f09330" stroke-width="none" opacity="1"></path><path id="SvgjsPath7328" d="M125.001 95.999c1.399 0 2.719-0.329 3.899-0.898l-3.9-8.1L125.001 95.999z" fill="#64398e" stroke-width="none" opacity="1"></path><path id="SvgjsPath7329" d="M125 87l7.032 5.607c0.83-1.039 1.432-2.265 1.736-3.606L125 87z" fill="#393b97" stroke-width="none" opacity="1"></path><path id="SvgjsPath7330" d="M125 86.999l2.738-0.625 6.03-1.376c-0.305-1.341-0.906-2.567-1.736-3.606L125 86.999z" fill="#00aa4f" stroke-width="none" opacity="1"></path><path id="SvgjsPath7331" d="M128.9 78.897c-1.182-0.57-2.501-0.898-3.9-0.898v8.998L128.9 78.897z" fill="#fae636" stroke-width="none" opacity="1"></path><path id="SvgjsPath7332" d="M121.098 78.898c-1.222 0.59-2.291 1.442-3.13 2.492l7.03 5.607L121.098 78.898z" fill="#9c2d91" stroke-width="none" opacity="1"></path><path id="SvgjsPath7333" d="M125 86.999L133.769 89c0.146-0.645 0.231-1.313 0.231-2.001s-0.085-1.357-0.231-2.001l-6.03 1.376L125 86.999z" fill="#ea2e2e" stroke-width="none" opacity="1"></path><path id="SvgjsPath7334" d="M125 86.999L125 86.999 125.001 87l3.9 8.1c1.223-0.59 2.293-1.443 3.131-2.493L125 86.999 125 86.999z" fill="#9b328d" stroke-width="none" opacity="1"></path><path id="SvgjsPath7335" d="M125 87L125 87 125 87 125 87 125 87 125 87 125 87l-3.9 8.1c1.181 0.57 2.501 0.899 3.9 0.899h0.001L125 87 125 87z" fill="#fde92b" stroke-width="none" opacity="1"></path><path id="SvgjsPath7336" d="M124.999 87L124.999 87 124.999 87 124.999 87 124.999 87 124.999 87 124.999 87 124.999 87 124.999 87 124.999 87 124.999 87l-8.768 2.001c0.305 1.341 0.907 2.567 1.737 3.607L124.999 87 124.999 87z" fill="#00aa4f" stroke-width="none" opacity="1"></path><path id="SvgjsPath7337" d="M125 86.998L125 86.998 125 86.998 125 86.998 125 86.998 125 86.998 125 86.998v-8.999c-1.4 0-2.72 0.329-3.901 0.899L125 86.998 125 86.998z" fill="#65378f" stroke-width="none" opacity="1"></path><path id="SvgjsPath7338" d="M125 86.999L125 86.999 125 86.999l7.032-5.608c-0.838-1.05-1.908-1.903-3.131-2.493l-3.9 8.1L125 86.999z" fill="#ec9236" stroke-width="none" opacity="1"></path><path id="SvgjsPath7339" d="M124.999 86.999L124.999 86.999l-7.031-5.608c-0.83 1.04-1.432 2.266-1.736 3.606l6.654 1.519L124.999 86.999z" fill="#393b97" stroke-width="none" opacity="1"></path><path id="SvgjsPath7340" d="M125 77.999c4.971 0 9 4.029 9 9s-4.029 9-9 9 -9-4.029-9-9S120.029 77.999 125 77.999z" fill="#000000" stroke-width="none" opacity="0.3"></path><path id="SvgjsPath7341" d="M128.5 86.999c0 1.933-1.566 3.5-3.5 3.5s-3.5-1.567-3.5-3.5 1.566-3.5 3.5-3.5S128.5 85.066 128.5 86.999z" fill="#000000" stroke-width="none" opacity="1"></path><path id="SvgjsPath7342" d="M121.653 93.108c-0.47 0.469-1.396 0.304-2.069-0.369 -0.674-0.673-0.84-1.601-0.369-2.07 0.469-0.47 1.395-0.304 2.068 0.369C121.956 91.712 122.122 92.639 121.653 93.108z" fill="#ffffff" stroke-width="none" opacity="0.7"></path><path id="SvgjsPath7343" d="M131.809 85.326c-0.702 0.703-2.403 0.142-3.8-1.254 -1.396-1.396-1.957-3.098-1.256-3.8 0.703-0.703 2.405-0.142 3.8 1.254C131.949 82.922 132.512 84.624 131.809 85.326z" fill="#ffffff" stroke-width="none" opacity="0.9"></path></g></g></g><g id="svga-group-eyesfront-right"><path id="SvgjsPath7296" d="M126 63.999c-10.493 0-19 11.192-19 25.001 0 13.808 8.507 24.999 19 24.999S145 102.808 145 89C145 75.191 136.493 63.999 126 63.999zM115.292 95.765c-1.417-1.542-3.133-3.771-3.133-6.88 0-1.604 0.433-3.182 1.181-4.654 7.801-11.556 21.642-7.964 26.661 4.822 0.011 2.139-0.533 4.05-1.518 5.667C133.015 101.729 122.228 102.061 115.292 95.765z" fill="#fbd5c0" stroke-width="none" opacity="1" stroke="none"></path><path id="SvgjsPath7297" d="M126.475 68.087c-9.912-0.946-18.598 5.857-19.412 15.199 -0.819 9.339 6.557 17.676 16.465 18.625 9.911 0.944 18.596-5.857 19.41-15.198C143.757 77.374 136.385 69.038 126.475 68.087zM138.483 94.721c-5.469 7.008-16.256 7.34-23.191 1.044 -1.417-1.542-3.133-3.771-3.133-6.88 0-1.604 0.433-3.182 1.181-4.654 7.801-11.556 21.642-7.964 26.661 4.822C140.012 91.193 139.468 93.104 138.483 94.721z" fill="url(#SvgjsRadialGradient7298)" opacity="1"></path><path id="SvgjsPath7302" d="M118.165 79.36c-1.751 1.137-3.391 2.746-4.825 4.871 -0.748 1.472-1.181 3.05-1.181 4.654 0 3.108 1.716 5.337 3.133 6.88 6.936 6.296 17.723 5.964 23.191-1.044 0.984-1.617 1.528-3.528 1.518-5.667 -2.306-5.874-6.475-9.8-11.063-11.216 -0.492-0.123-0.994-0.221-1.506-0.293C124.086 77.071 120.882 77.794 118.165 79.36z" fill="url(#SvgjsRadialGradient7303)" opacity="1"></path><path id="SvgjsPath7306" d="M114.169 76.642c5.97-3.487 13.357-4.669 21.869-0.887C129.714 72.031 120.611 71.736 114.169 76.642z" fill="#cd865f" stroke-width="none" opacity="1" stroke="none"></path><path id="SvgjsPath7307" d="M115.292 95.56c6.975 6.147 17.85 5.792 23.288-1.123C137.22 99.934 123.508 104.249 115.292 95.56zM115.41 77.592c-3.665 2.837-4.315 3.96-5.379 8.275 1.317-2.522 2.745-4.165 4.492-4.965 -1.063 1.567-2.019 3.314-2.482 5.556 7.625-14.008 23.347-10.403 28.312 3.487 -0.188-2.47-0.606-4.335-2.01-6.325 1.226 0.951 2.144 2.059 3.724 4.197 -0.236-1.3-0.413-1.951-0.709-3.015 0.774 0.591 1.454 1.302 2.638 3.015l-1.182-3.369 2.246 1.852c-4.647-4.807-4.647-6.875-10.263-9.476 2.816 1.141 4.518 1.729 6.62 2.33 -8.688-5.995-24.411-7.177-30.795 0.861L115.41 77.592z" fill="#582311" stroke-width="none" opacity="1" stroke="none"></path></g></g></g><g id="svga-group-facehighlight-single"><path id="SvgjsPath7077" d="M140.204 113.007c0.035 22.275-17.995 40.365-40.273 40.396 -22.274 0.036-40.361-17.993-40.396-40.272C59.501 90.857 77.53 72.77 99.808 72.735 122.083 72.701 140.171 90.73 140.204 113.007z" fill="url(#SvgjsRadialGradient7078)" opacity="1"></path><path id="SvgjsPath7081" d="M135,55.999c0,19.329-15.671,35-35,35c-19.329,0-35-15.671-35-35s15.671-35,35-35C119.329,20.999,135,36.67,135,55.999z" fill="url(#SvgjsRadialGradient7082)" opacity="1"></path></g><g id="svga-group-eyebrows-left-move" transform="matrix(1,0,0,1,0,0)"><g id="svga-group-eyebrows-left-rotate" transform="matrix(1,0,0,1,0,0)"><g id="svga-group-eyebrows-left" transform="matrix(1,0,0,1,0,0)"><path id="SvgjsPath7344" d="M93.3 76.245c-9.176-3.089-12.813-6.054-20.729-8.735 -6.51-2.206-13.342-2.613-20.071-1.34 8.225 0.782 11.916 0.809 20.316 3.833C79.624 72.455 85.97 75.91 93.3 76.245z" fill="#cac1b2" stroke-width="none" opacity="1"></path></g></g></g><g id="svga-group-eyebrows-right-move" transform="matrix(1,0,0,1,0,0)"><g id="svga-group-eyebrows-right-rotate" transform="matrix(1,0,0,1,0,0)"><g id="svga-group-eyebrows-right" transform="matrix(1,0,0,1,0,0)"><path id="SvgjsPath7345" d="M106.5 76.545c9.176-3.089 13.013-6.354 20.929-9.035 6.51-2.206 13.342-2.613 20.071-1.34 -8.225 0.782-11.916 0.809-20.316 3.833C120.376 72.455 113.83 76.21 106.5 76.545z" fill="#cac1b2" stroke-width="none" opacity="1"></path></g></g></g><g id="svga-group-nose-single-move" transform="matrix(1,0,0,1,0,0)"><g id="svga-group-nose-single" transform="matrix(1,0,0,1,0,0)"><path id="SvgjsPath7357" d="M100.809 119.998c-0.345 0.375-0.628 0.33-0.954-0.059l-3.63-4.392h8.911L100.809 119.998z" fill="#ecb99d" stroke-width="none" opacity="1" stroke="none"></path><path id="SvgjsPath7358" d="M95.208 116.229l4.719 3.839c0.394 0.32 0.545 0.199 0.34-0.27l-1.683-3.813c-0.082-0.185-0.107-0.495-0.057-0.691l1.229-19.37 -4.681 19.008C94.755 115.327 94.814 115.91 95.208 116.229z" fill="#cd865f" stroke-width="none" opacity="1" stroke="none"></path></g></g><g id="svga-group-hair-front" transform="matrix(1,0,0,1,0,0)"><path id="SvgjsPath7370" d="M44.483 18.786v192.7h39.633c-0.985-7.894-2.345-15.114-3.827-18.896 -7.734-19.635-34.67-24.746-29.979-50.592l0.186-0.036c5.161 11.272 7.599 17.786 19.622 19.774 -16.696-13.644-13.473-26.335-11.147-42.457 1.357-9.407-1.612-16.768-3.584-24.324 2.337-6.986 3.574-13.578 4.833-21.104C71.469 6.622 121.799 9.658 136.22 52.964c9.121 27.391 1.487 36.087 12.741 53.306 0.534 12.012 3.037 24.947-11.378 41.925 -3.168 3.731-7.858 7.637-11.999 10.247 15.048-1.334 23.306-15.722 28.299-29.979l0.183 0.058c-6.601 55.459-31.788 30.36-34.347 82.965h41.151v-192.7H44.483z" fill="#6b4e40" stroke-width="none" opacity="0.1" stroke="none"></path><path id="SvgjsPath7371" d="M84.239 24.512c0 0 13.507 2.744 15.441 8.394 -9.837-0.448-14.145-3.676-28.021 1.726C74.877 29.073 84.239 24.512 84.239 24.512zM116.354 23.835c0 0-14.886-0.596-16.673 9.07 9.837-0.448 15.855-4.834 29.83 1.466C127.59 28.832 116.354 23.835 116.354 23.835z" fill="#4c2d1e" stroke-width="none" opacity="1" stroke="none"></path><path id="SvgjsPath7372" d="M171.325 103.155c12.474-84.818-28.429-117.88-66.57-108.483C62.686-15.575 30.577 5.914 25.649 64.39c-0.889 20.541 1.352 36.037 1.709 39.729 -2.823 5.811-4.602 12.117-5.334 18.632 -2.28 1.989-4.366 3.558-6.692 5.203 1.216-0.168 3.034-0.383 6.451-1.384 -0.802 22.784 10.506 26.852 9.795 45.72 -0.663 12.739-0.707 13.817 1.769 22.173 6.55 22.107-3.539 20.229-0.849 47.579 31.104-1.338 46.501 4.047 119.532-0.472 1.616-0.101 12.444-0.799 16.533-0.559 -16.247-55.787 11.274-50.916 2.58-79.354C163.35 136.169 184.674 127.674 171.325 103.155zM120.349 232.486c0.313 3.851 0.855 8.563 1.039 9.658 -14.026 0.059-13.942-0.431-36.432-0.219 0.397-13.065 1.519-40.587-1.77-48.975 -8.064-20.475-33.709-27.085-35.086-49.86l0.195-0.036c5.38 11.757 9.681 16.499 22.217 18.573 -17.408-14.226-13.83-25.25-13.383-42.226 0.265-9.903-1.679-17.482-3.736-25.362 2.437-7.282 3.738-14.154 5.041-22.003 5.299-31.981 23.306-56.507 41.03-39.238 0.001-0.001 0.225-0.316 0.225-0.316 0.096 0.134 0.084 0.114 0.202 0.302 15.169-16.919 29.792-2.734 37.781 17.474 11.073 27.991 1.55 37.627 13.281 55.582 0.56 12.526 1.191 25.365-13.838 43.069 -3.304 3.889-7.355 7.003-11.67 9.727 15.688-1.395 25.436-14.789 30.639-29.654l0.191 0.059C141.093 186.96 112.813 144.06 120.349 232.486z" fill="#6b4e40" stroke-width="none" opacity="1" stroke="none"></path><path id="SvgjsPath7373" d="M168.564 241.012c-4.089-0.24-14.917 0.458-16.533 0.559 -7.593 0.47-14.551 0.831-20.979 1.104 0.627-18.603-6.242-38.093 2.549-55.675 4.409-9.624 18.398-19 21.398-31 0.559-2.235 1.938-7.965 2.429-12.944 3.441 21.68-17.092 41.785-12.299 63.68 4.266-14.529 12.416-38.893 17.552-49.096 -0.563 16.096-1.812 20.566-1.289 30.668 4.13-9.095 7.526-16.68 5.584-38.498 0 0 2.598 6.715 4.168 11.848C179.839 190.096 152.317 185.225 168.564 241.012zM161.744 152.235c14.178-34.092-4.985-37.232-10.55-59.281C145.21 69.242 145.199 27.485 124 23c-10.773-2.279-19.332 1.04-24.926 9.434 0.13 0.122 0.26 0.239 0.39 0.366 0.001-0.001 0.225-0.316 0.225-0.316 0.096 0.134 0.084 0.114 0.202 0.302 15.169-16.919 29.792-2.734 37.781 17.474 11.073 27.991 1.55 37.627 13.281 55.582 2.666 23.645-7.074 41.159-25.508 52.796 15.263-7.068 28.199-18.51 30.174-46.749l0.398 0.199C161.471 119.218 164.952 140.731 161.744 152.235zM154.398 45c1.833 21.549 4.026 42.923 16.985 58.268 -0.021-0.038-0.038-0.074-0.059-0.112 0.178-1.207 0.604-4.451 0.76-5.638C166.309 90.678 160.708 78.757 159 66c-2.141-15.982 0.07-34.47-15.9-46C150.849 26.708 154.398 36 154.398 45zM69 18C44 33 50.146 61.473 44.146 84c-3.188 11.97-11.551 22.788-20.646 30.744 -0.609 2.384-1.069 4.813-1.377 7.277C60.299 97.473 45.24 48.478 61.199 30.666c11.568-12.911 25.383-17.769 38.489 1.817C96.415 16.706 79 13 69 18zM82.258 25.4c-7.133 1.456-14.761 9.231-18.923 16.342 -6.467 11.048-7.485 28.27-12.653 46.717 -4.4 15.707-13.998 30.571-33.68 39.249 26.759-5.687 35.423-30.752 36.391-33.667 2.437-7.282 3.738-14.154 5.041-22.003 5.26-31.746 23.042-56.139 40.64-39.604C93.415 26.512 90.127 23.793 82.258 25.4zM68.733 161.296c0.579 0.115 1.161 0.229 1.779 0.332 -17.408-14.226-14.13-25.25-13.683-42.226 0.255-9.563-1.65-17.359-3.626-24.951 -0.523 1.394-1.105 2.744-1.716 4.073C60.569 121.579 41.722 142.818 68.733 161.296zM146.702 161.628c9.171-9.346 13.167-29.969 11.369-43.484 -0.817 4.008-1.474 8.073-2.426 12.056 0.149-0.404 0.296-0.81 0.438-1.217l0.191 0.059c-15.183 57.919-43.463 15.019-35.927 103.445 0.313 3.851 0.855 8.563 1.039 9.658 -14.026 0.059-13.942-0.431-36.432-0.219 0.397-13.065 1.519-40.587-1.77-48.975 -7.75-19.678-44.052-31.323-33.378-62.632 -9.689 13.094-4.59 24.13 1.678 31.309 35.12 44.05 24.852 49.003 26.454 81.047 11.177 0.333 30.093 0.525 48.263-0.105C121.536 179.735 127.328 181.371 146.702 161.628zM39.184 142.011c-1.385-4.846 8.584-15.692 5.366-30.735C43.886 121.43 38.638 129.205 36 138c-3.999 33.884 27.286 39.376 14 74 0-13-2.667-19.437-7.667-31.437C42.333 196.563 49 207 41 223c0 0 2.761-11.765 0.26-17.418C32.879 180.272 39.439 170.276 33 154c-2.838-7.69-8.246-14.15-10.878-27.926 0.677 19.739 10.59 29.425 9.958 46.216 -0.663 12.739-1.207 13.817 1.268 22.173 6.55 22.107-3.539 20.229-0.849 47.579 12.221-0.525 22.025-0.014 33.847 0.527 2.261-24.406 5.03-40.444-7.662-60.172C51.814 171.72 37.453 160.703 39.184 142.011zM45 38c-4.149 20.744-5.556 42.857-18.478 58.357 0.366 3.807 0.713 6.488 0.837 7.762 -0.066 0.136-0.124 0.275-0.188 0.411C51.195 67.57 41.09 47.743 50 28c2-5 6.231-8.566 11-14C52.915 20.828 47 27 45 38zM166.623 102.836C155.162 84.076 155.692 61.634 148 38c-4.507-13.846-24.446-39.649-48.506-6.168 11.159-14.396 23.65-15.006 31.307-10.431 6.19 3.699 10.544 10.145 13.544 17.145 7.068 18.138 5.753 34.787 13.753 52.787 5 12 12.048 22.146 12.416 32.828 -0.332 4.575-3.198 15.689-4.698 19.253 0.479-1.376 6.27-12.165 6.27-18.4C172.085 118.144 170.466 109.127 166.623 102.836zM71.522 9.661c3.306-2.748 25.504-5.422 29.751 11.058C98.289 4.859 78.927 5.073 71.522 9.661zM135.429 8.581c3.49 2.642 2.081 1.447-0.513-0.514 -13.694-8.515-27.51-1.497-33.308 12.366C109.649 3.393 126.768 2.02 135.429 8.581zM147.768 15.763c-17.909-25.073-41.461-16.292-47.154-2.327C108.07-2.146 131.988-5.355 147.768 15.763zM47.118 21.915c-2.079 4.494 4.73-15.523 28.092-20.133 8.363-1.692 19.382-0.871 24.746 6.221C91.351-4.505 59.979-4.11 47.118 21.915zM134.716 12.859c1.24 0.864 2.13 1.626 2.078 1.583 -0.177-0.117-1.063-1.067-2.619-2.098 -11.543-7.674-29.75 1.124-33.899 15.082C105.102 13.747 123.645 5.512 134.716 12.859zM65.39 15.566c-3.443 2.883 4.383-2.277 6.732-2.839 8.25-2.126 24.014-0.522 28.82 11.981C96.429 10.93 77.129 7.13 65.39 15.566z" fill="#5c3d2e" stroke-width="none" opacity="1" stroke="none"></path><path id="SvgjsPath7374" d="M54.287 8.395c-6.063 5.795-8.245 8.121-12.733 15.896C29.969 42.645 29.465 95.483 30.12 75.647 31.003 46.753 33.226 26.926 54.287 8.395zM40.166 46.282c-1.19 10.81 2.133-9.666 3.979-14.112C51.075 15.805 71.717-1.981 91.025 6.798c3.802 1.736 6.471 3.731 7.692 4.555C71.922-9.195 43.586 15.053 40.166 46.282zM140.025 11.352c4.61 4.55 8.293 8.722 8.248 8.671 -3.867-3.539-21.245-34.352-47.079-3.221C113.365 3.41 126.815-1.016 140.025 11.352zM91.268 18.114c5.95 4.151 11.459 11.672 10.709 10.672 -0.251-0.291-1.608-2.192-3.735-4.794C75.559-3.612 50 28.843 47.748 53.002 51.44 28.64 73.278 5.713 91.268 18.114zM148.446 35.102c0.914 2.425 1.39 3.932 1.306 3.63 -0.112-0.292-0.599-2.129-1.518-4.706 -7.781-22.254-29.125-27.144-48.288-4.222C119.501 8.442 139.361 12.269 148.446 35.102zM170.729 89.177c-0.008-0.391 0.217-2.754 0.27-6.182 0.46-22.099-4.53-58.257-22.219-71.904C171.765 31.294 170.628 90.434 170.729 89.177zM160.594 109.636c1.141 1.432 1.838 2.295 1.702 2.122 -6.983-11.994-4.544 1.486-14.992-43.759C151.208 88.03 150.813 97.418 160.594 109.636zM40.224 110.197c-3.71 3.778-2.039 2.239 0.691-0.536C55.243 92.089 52.19 85.149 56.037 63.719 52.939 77.874 52.532 97.469 40.224 110.197zM80.217 24.943c1.441-0.43 2.318-0.692 2.144-0.644 -4.026 1.411-20.332 4.076-24.18 27.199C61.569 36.735 70.158 28.113 80.217 24.943zM143.451 47.042c2.782 8.476-1.829-8.357-4.675-13.598 -5.338-10.289-12.488-12.038-23.153-11.645C133.024 21.025 137.857 30.72 143.451 47.042zM34.274 152.301c2.071 11.298 11.409 25.639 15.081 38.07 1.789 5.938 1.875 6.194-0.112-1.306 -11.232-35.413-21.715-39.51-10.232-69.374C39.011 119.691 30.189 136.554 34.274 152.301zM148.784 189.284c-0.385 2.617-0.607 4.203-0.555 3.89 9.005-39.146 13.987-26.598 11.758-65.936C160.009 171.216 154.996 151.983 148.784 189.284zM46.041 133.496c-8.804 20.717 5.362 28.95 22.507 53.013 3.892 6.425 2.585 4.246 1.648 2.489 -11.499-21.461-31.094-34.2-23.91-53.677 2.383-6.427 3.979-9.329 3.182-22.331C49.611 121.966 49.23 125.986 46.041 133.496zM52.428 119.592c-0.092 12.744-6.549 21.745 6.856 35.309 4.074 3.177-2.931-3.353-4.056-5.359 -2.187-3.878-3.819-8.571-3.37-13.059 0.683-13.909 1.296-1.389 0.912-29.999C52.413 116.792 52.728 110.031 52.428 119.592zM142.67 147.298c-1.671 2.148-4.705 4.313-5.604 6.149 -0.214 0.387 0.542-0.853 1.744-1.979 17.557-16.844 13.72-27.795 16.996-34.761C152.473 123.786 154.94 131.114 142.67 147.298zM126.529 187.542c-2.762 11.25-1.063 15.187-1.063 15.187 -0.185-1-0.322-1.582-0.322-3.37 2.057-31.334 25.247-25.986 31.597-60.146C151.157 167.077 131.887 167.036 126.529 187.542z" fill="#7a6155" stroke-width="none" opacity="1" stroke="none"></path><path id="SvgjsPath7375" d="M171.429 103.136c12.069-85.836-28.95-117.955-66.649-108.561 -63.629-15.205-85.202 40.694-77.51 109.5 -2.854 5.875-4.629 12.232-5.31 18.601 -2.671 2.329-6.03 4.794-7.03 5.43 2.281-0.256 4.492-0.737 6.75-1.4 -0.454 12.987 3.396 20.927 6.94 29.32 6.294 14.887 0.154 21.277 3.39 34.07 1.24 4.85 3.11 9.63 3.55 14.64 0.946 10.766-5.545 16.426-3.15 37.41 0.08 0 0.15-0.01 0.23-0.01 24.692-0.967 13.033-0.165 29.72 0.439 62.103 2.413 88.897-1.46 106.34-1.46 -12.259-39.767-0.309-49.433 3.61-63.05 3.343-11.656-3.539-17.892-3.11-27.43C170.279 131.121 182.242 124.247 171.429 103.136zM69.579 161.266c-11.588-2.079-16.382-8.37-21.42-19.061 -0.284-5.823 1.921-12.104 2.96-17.87 1.044-5.75 0.401-10.896-0.69-22.729 1.12-2.35 2.09-4.77 2.94-7.24 1.57 6.54 3.01 13.15 3.04 19.83C56.463 128.817 50.079 147.932 69.579 161.266zM21.699 126.226c-1.71 0.529-3.46 0.96-5.23 1.27 41.837-27.209 31.729-67.088 39.07-85.77 7.243-18.434 27.63-33.995 44.1-9.15 -0.06 0.08-0.109 0.15-0.16 0.23 -17.355-18.325-36.108 8.93-40.729 31.36 -4.49 21.877-6.914 51.458-35.12 61.41C23.629 125.575 21.699 126.205 21.699 126.226zM32.619 241.855c-0.543-9.458-0.846-11.33 0.73-18.64 1.28-5.961 3.59-12.12 3.23-18.271 -0.39-6.41-3.11-12.39-3.89-18.74 -0.75-6.14 0.5-12.31 0.53-18.46 0.082-12.213-10.172-20.935-9.61-41.63 8.104-2.688 15.358-7.616 20.94-14.84 0.917 21.249-5.573 19.928-6.48 31.84 -1.511 20.052 22.174 35.669 27.74 56.09 1.939 7.062 2.03 35.213 1.99 42.561C42.492 241.322 58.322 240.284 32.619 241.855zM67.999 241.766c1.762-47.609-0.21-49.127-16.54-70.601 -22.601-29.594-7.548-34.703-6.54-50.26 0.21-3.27 0-6.56-0.21-9.84 2.15-2.82 3.97-5.86 5.51-9.05 0.795 13.27 0.928 13.425 0.83 15.92 -0.627 17.156-14.775 28.272 12.29 53.859 21.941 20.76 20.976 18.661 21.51 70.03C79.229 241.865 73.609 241.865 67.999 241.766zM85.059 241.825c0.35-11.354 1.576-40.352-1.78-48.91 -8.071-20.492-33.704-27.098-35.08-49.83 0.323 1 3.402 7.811 6.93 11.45 4.472 4.623 9.446 6.313 15.75 7.25 -17.932-13.084-14.028-28.113-13.65-42.38 0.263-9.843-1.635-17.335-3.74-25.39 4.287-12.413 4.894-24.4 7.4-33.84 5.711-21.558 22.336-43.879 38.589-27.22 0.006-0.017 0.2-0.286 0.21-0.3 0.008 0.011 0.188 0.291 0.19 0.3 13.404-16.837 29.143-4.305 37.7 17.34 11.029 27.882 1.583 37.684 13.29 55.6 0.491 11.79 1.402 25.005-13.83 42.95 -3.366 3.96-8.398 7.835-12 9.92 15.66-0.846 25.939-14.893 31.14-29.75 -15.514 57.917-43.439 15.318-35.93 103.479 0.343 4.205 0.894 8.792 1.021 9.55C109.791 242.117 111.782 241.719 85.059 241.825zM163.389 147.476c7.729-35.545-14.471-31.226-17.31-59.59 -0.996-10.411-0.63-29.001-12.86-48.65 -8.754-14.108-21.634-20.468-33.27-6.5 -0.04-0.08-0.09-0.16-0.141-0.24 15.769-21.402 42.415-19.527 49.341 26.27 4.381 29.034 5.438 27.162 15.17 47.38C168.679 115.133 174.634 126.9 163.389 147.476zM151.329 106.596c2.058 3.087 4.326 5.995 6.521 9.05 0 16.35-13.219 39.914-30.75 42.47 2.52-1.54 4.96-3.229 7.09-5.25C150.003 137.833 152.699 124.613 151.329 106.596zM167.939 156.695c1.3 5.5 3.699 10.57 3.729 16.32 -1.432 16.422-17.601 23.629-3.31 67.67 -9.831-0.523-19.654 0.533-37.141 1.149 -0.459-25.169-2.177-31.864-0.949-42.59 2.851-25.063 24.016-23.109 27.159-56.189 -4.017 34.862-28.503 30.377-29.029 61.109 -0.033 2.001 2.4 37.353 2.43 37.681 -2.771 0.093-6.599 0.199-9.37 0.199 -7.985-81.762 13.702-65.904 27.891-91.109 4.94-8.745 8.701-22.552 8.76-34.92 8.21 11.655 7.685 17.531 4.77 32.819 5.384-8.491 9.791-22.53 6.51-32.88 -1.094-4.394-4.797-11.869-6.25-14.88 -10.84-22.439-8.965-23.64-13-45.33 -7.404-40.292-33.264-47.161-50.39-23.33 -17.552-27.954-45.346-8.197-49.08 25.4 -1.354 12.346-0.255 38.468-26.65 63.02 1.906-14.99 8.729-22.372 13.75-34.22 12.649-29.735 1.814-50.492 18.65-67.33C38.122 37.494 51 59.408 34.099 91.476c-1.94 3.67-4.1 7.24-6 10.939 -5.854-64.179 16.384-121.011 75.59-107.03 40.783-10.329 64.18 25.442 67.6 67.79 1.471 18.212-0.248 34.59-0.54 38.77 -2.87-4.89-6.31-9.47-8.34-14.81 -11.876-31.337-1.556-52.06-19.32-67.28 18.119 16.345 6.485 41.9 19.79 71.61 2.613 4.897 5.803 9.391 8.16 14.36C180.63 126.046 163.44 137.618 167.939 156.695z" fill="#3d2012" stroke-width="none" opacity="1" stroke="none"></path></g><g id="svga-group-glasses-single-move" transform="matrix(1,0,0,1,0,0)"><g id="svga-group-glasses-single" transform="matrix(1,0,0,1,0,0)"><path id="SvgjsPath7346" d="M150.82 85.61c0.02 6.14-1.89 12.16-4.01 14.71 -2.43 2.93-8.12 4.76-14.84 4.76 -5.93 0-11.52-1.45-14.96-3.87 -5.16-3.64-9.63-11.19-11.25-18.06C115.62 75.7 141.43 75.3 150.82 85.61zM49.18 85.61c-0.02 6.14 1.89 12.16 4.01 14.71 2.43 2.93 8.12 4.76 14.84 4.76 5.93 0 11.52-1.45 14.96-3.87 5.16-3.64 9.63-11.19 11.25-18.06C84.38 75.7 58.57 75.3 49.18 85.61z" fill="#ffffff" stroke-width="none" opacity="0.2"></path><path id="SvgjsPath7347" d="M105.77 83.14c-0.57-2.43-0.79-4.79-0.55-6.85 0.44-3.77 2.25-6.32 5.37-7.56 1.76-0.7 6.71-1.17 12.31-1.17 4.01 0 17.49 0.3 22.45 4.22 2.98 2.35 4.82 6.18 5.33 11.07 0.1 0.91 0.14 1.83 0.14 2.75C141.43 75.3 115.62 75.7 105.77 83.14zM94.79 76.3c-0.44-3.77-2.25-6.32-5.37-7.56 -1.76-0.7-6.71-1.17-12.31-1.17 -4.01 0-17.49 0.3-22.45 4.22 -2.98 2.35-4.82 6.18-5.33 11.07 -0.1 0.91-0.14 1.83-0.14 2.75 9.39-10.31 35.2-9.91 45.06-2.47C94.81 80.71 95.03 78.36 94.79 76.3z" fill="#ffffff" stroke-width="none" opacity="0.4"></path><path id="SvgjsPath7348" d="M154.89 79.22c-0.1-0.36-0.75-0.8-1.44-1.05 -0.47-0.17-1.99-0.27-2.92-0.32 -4.25-11.92-16.29-11.04-42.6-11.11 -0.72-1-0.42-0.72-7.93-0.74 -7.52 0.01-7.21-0.26-7.93 0.74 -26.31 0.07-38.35-0.81-42.6 11.11 -0.93 0.05-2.45 0.15-2.92 0.32 -0.69 0.25-1.34 0.69-1.44 1.05 -0.1 0.36-0.14 1.82-0.06 2.1 0.08 0.28 0.61 0.93 0.61 0.93s0.04-0.04 0.1-0.1c0.17 0.32 0.73 0.91 2.54 1.03 -0.77 7.48 1.61 14.5 4.24 17.67 5.73 6.92 23.35 6.43 30.95 1.07 7.2-5.07 12.9-16.95 12.21-25.22 1.81-1.21 6.94-1.21 8.62 0 -0.69 8.27 5.01 20.15 12.21 25.22 7.6 5.36 25.22 5.85 30.95-1.07 2.63-3.17 5.01-10.19 4.24-17.67 1.81-0.12 2.37-0.71 2.54-1.03 0.07 0.06 0.1 0.1 0.1 0.1s0.53-0.65 0.61-0.93C155.04 81.04 155 79.58 154.89 79.22zM82.69 100.8c-7.64 5.39-24.38 4.92-29.12-0.8 -3.92-4.72-6.89-21.27 1.39-27.82 6.53-5.16 30.21-4.6 34.26-2.98 2.94 1.17 4.64 3.58 5.06 7.15C95.2 84.08 89.56 95.96 82.69 100.8zM95.4 74.74c-0.49-2.14-1.5-3.87-2.95-5.15 0.14-0.53 1.33-1.26 1.56-1.76 2.26-0.01 9.72-0.01 11.98 0 0.23 0.5 1.42 1.23 1.56 1.76 -1.45 1.28-2.46 3.01-2.95 5.15C101.64 73.83 98.23 73.87 95.4 74.74zM146.43 100c-4.74 5.71-21.48 6.18-29.12 0.8 -6.87-4.84-12.5-16.72-11.59-24.44 0.42-3.58 2.12-5.98 5.06-7.15 4.06-1.62 27.73-2.18 34.26 2.98C153.32 78.72 150.35 95.28 146.43 100z" fill="#a90094" stroke-width="none" opacity="1"></path></g></g></g></g></g><rect id="svga-credit-rect" width="200" height="15" x="0" y="185" fill="#ecf0f1" opacity="0.5" style="display: none;"></rect><text id="svga-credit-text" font-family="Avenir Next, Roboto, Helvetica, Arial, sans-serif" font-size="10px" text-anchor="start" font-weight="400" size="10px" anchor="start" weight="400" fill="#333333" x="33.3125" y="182.609375" style="display: none;"><tspan id="SvgjsTspan7064" dy="13" x="33.3125">Created on AvatarMaker.com</tspan></text></g></svg>