<svg xmlns="http://www.w3.org/2000/svg" version="1.1" width="600px" height="600px" viewBox="0 0 200 200" style="overflow:hidden!important;"><defs id="SvgjsDefs15957"><linearGradient id="SvgjsLinearGradient16642" x1="77.9026" y1="122.6494" x2="77.9026" y2="94.7406" gradientTransform="matrix(1 0 0 -1 0 202)" gradientUnits="userSpaceOnUse" class="svga-on-canvas-glasses-gradient-single-0-null"><stop id="SvgjsStop16643" stop-opacity="1" stop-color="#211810" offset="0" ></stop><stop id="SvgjsStop16644" stop-opacity="0.7372" stop-color="#231b13" offset="0.2628" ></stop><stop id="SvgjsStop16645" stop-opacity="0.5527" stop-color="#2b231c" offset="0.4473" ></stop><stop id="SvgjsStop16646" stop-opacity="0.3921" stop-color="#38312c" offset="0.6079" ></stop><stop id="SvgjsStop16647" stop-opacity="0.2453" stop-color="#4b4641" offset="0.7547" ></stop><stop id="SvgjsStop16648" stop-opacity="0.1091" stop-color="#62605e" offset="0.8909" ></stop><stop id="SvgjsStop16649" stop-opacity="0" stop-color="#7a7a7a" offset="1" ></stop></linearGradient><linearGradient id="SvgjsLinearGradient16651" x1="-1740.4807" y1="122.8294" x2="-1740.4807" y2="94.7364" gradientTransform="matrix(-1 0 0 -1 -1618 202)" gradientUnits="userSpaceOnUse" class="svga-on-canvas-glasses-gradient-single-1-null"><stop id="SvgjsStop16652" stop-opacity="1" stop-color="#211810" offset="0" ></stop><stop id="SvgjsStop16653" stop-opacity="0.7372" stop-color="#231b13" offset="0.2628" ></stop><stop id="SvgjsStop16654" stop-opacity="0.5527" stop-color="#2b231c" offset="0.4473" ></stop><stop id="SvgjsStop16655" stop-opacity="0.3921" stop-color="#38312c" offset="0.6079" ></stop><stop id="SvgjsStop16656" stop-opacity="0.2453" stop-color="#4b4641" offset="0.7547" ></stop><stop id="SvgjsStop16657" stop-opacity="0.1091" stop-color="#62605e" offset="0.8909" ></stop><stop id="SvgjsStop16658" stop-opacity="0" stop-color="#7a7a7a" offset="1" ></stop></linearGradient></defs><g id="svga-group-wrapper"><g id="svga-group-backs-single"><path id="SvgjsPath16783" d="M0 0h200v200H0V0z" fill="#e5fcc2" stroke-width="none" opacity="1" stroke="none"></path><path id="SvgjsPath16784" d="M0 70.8 39.2 200l39.2-86.3L0 9.9v60.9zM200 0h-47.6l23 37.5L200 0zm-28.9 104.9 16.5-40.7-70.5-26.8 54 67.5zM51.3 200h101.1v-33.1l-73.9 19.5L51.3 200zm27.2-86.3 73.9 53.2L78.5 0v113.7z" fill="#ceed9f" stroke-width="none" opacity="1" stroke="none"></path><path id="SvgjsPath16785" d="m134.4 0 2 130.8L176.2 0h-41.8zm18 166.9 47.6-14.5v-21.5L171.1 105l-18.7 61.9zm22.9-129.4 12.3 26.8 12.4 6.9V0l-24.7 37.5zm-58.2 0L96.7 26.6 117.1 0 81 18.3 46.7 0h-28l56.2 21.4L0 59.3v93.1L94.8 29l22.3 8.5zM0 200h94.2l42.2-69.2L0 189.1V200z" fill="#b8dd7e" stroke-width="none" opacity="1" stroke="none"></path><path id="SvgjsPath16786" d="M104.4 70.8 91.1 13.5 166.2 0 90 8.6 88 0H68.2l3.5 10.6L0 18.7v11.1l73.7-13.2 19.5 59-65.3 28L0 70.8v5.4l24 29.2-24 10.2 24.5-9.6 57.4 69.8L51.3 200h27.2l11.1-14.9 12.3 14.9h7.9l-16.7-19.6 24.1-32.4 17.2 52.1-29.2-125.6 94.8-37v-7.6l-95.6 40.9zm12.7 77.1-30.9 24.4-57.7-67.9 65.7-25.7 22.9 69.2zm70.5 52.1H200l-47.6-95.1 35.2 95.1z" fill="#ffffff" stroke-width="none" opacity="1"></path></g><g id="svga-group-humanwrap-move" transform="matrix(1,0,0,1,0,0)"><g id="svga-group-humanwrap" transform="matrix(1,0,0,1,0,0)"><g id="svga-group-hair-back-move" transform="matrix(1,0,0,1,0,0)"><g id="svga-group-hair-back" transform="matrix(1,0,0,1,0,0)"><path id="SvgjsPath16736" d="M51.7 79.9s-5 26.3-5.9 29c-.8 2.8 4.8 13.1 4.8 13.1s-1.7 8.1-2 10.1 4.8 7.3 4.8 7.3-4.2 8.7-4.2 9.8 3.1 8.7 3.1 8.7l-5.9 7.5 7 10.3s8.4-1.7 9.2-2.2 11.7-10.3 11.4-13.4 8.4-5.9 8.4-5.9 12-10.6 14.5-10.9c2.5-.3 24.3-3.6 26-4.2 1.7-.6 18.4-12.3 18.4-12.3s10.1-31 10.1-32.1c0-1.1-3.1-28.8-3.4-29.9-.3-1.1-84.9-5.3-84.9-5.3L51.7 79.9z" fill="#caa478" stroke-width="none" opacity="1" stroke="none"></path><path id="SvgjsPath16737" d="m152.3 93.4-.2-2.3c-.6-6.2-1.3-12.3-2-18.5l-.5-4.6-.3-2.3c0-.2 0-.4-.1-.6l-.1-.3v-.1c-.1-.2-.3-.5-.4-.6-.1 0-.1-.1-.2-.1-.1-.1-.1-.1-.2-.1h-.1c-.5-.1-.9-.2-1.3-.2-3.1-.4-6.2-.6-9.3-.8-12.4-.9-24.8-1.5-37.2-2.1L81.8 60l-18.6-1h-.3l-.1.3-11.2 20.6-4.6 21.4-1.2 5.3-.3 1.3c-.1.4-.2.8-.3 1.4-.1 1.1.2 2 .4 2.9 1 3.5 2.6 6.7 4.2 9.9l-1.8 9.1-.1.6v.8c.1.5.3.9.5 1.3.4.8.8 1.5 1.3 2.1.8 1.2 1.8 2.2 2.7 3.3-.6 1.3-1.3 2.7-1.9 4-.7 1.5-1.4 3-2 4.7-.1.2-.2.4-.2.8s0 .7.1.9c.1.5.2.9.4 1.3.3.8.5 1.6.8 2.4.5 1.4 1.1 2.8 1.7 4.2l-5.5 7.2-.4.5.3.5 5.4 7.8c.3-.4.7-.8 1.1-1.2-1.6-2.4-3.1-4.7-4.7-7.1l5.5-7 .3-.4-.2-.5c-.6-1.5-1.2-3.1-1.8-4.6l-.8-2.3c-.1-.4-.2-.8-.3-1.1 0-.2-.1-.3 0-.3 0 0 .1-.2.1-.4.5-1.5 1.2-3 1.9-4.5l2.1-4.5.2-.5-.4-.4c-1.1-1.1-2.1-2.3-3-3.6-.5-.6-.9-1.3-1.2-1.9-.2-.3-.3-.6-.3-.9V132.1l.1-.6 1.8-9.3v-.3l-.1-.2c-1.7-3.2-3.3-6.4-4.5-9.8-.2-.8-.5-1.7-.4-2.4 0-.3.2-.8.3-1.3l.3-1.3 1.1-5.4c.7-3.6 1.3-7.2 2-10.8.6-3.6 1.3-7.2 1.9-10.8L63.4 60l36.8 2.3 18.6 1.2 18.6 1.2c3.1.2 6.2.5 9.2.8.2 0 .4.1.5.1v.2l.3 2.3.6 4.6c.7 6.2 1.4 12.3 2.1 18.5l.2 2.3.1 1.1c0 .1-.1.2-.1.3l-.1.5c-.4 1.5-.9 2.9-1.3 4.4l-2.7 8.9-5.5 17.5c-4.5 3.2-8.9 6.3-13.4 9.4-1.2.8-2.3 1.6-3.5 2.3-.6.4-1.1.6-1.7.8l-2 .4c-2.7.5-5.5 1-8.2 1.4s-5.5.9-8.2 1.3l-4.1.6-2.1.3-.5.1-.6.2c-.3.1-.7.3-1 .5-2.4 1.4-4.6 3.2-6.8 5-2.2 1.7-4.3 3.5-6.4 5.3-.4.1-.8.3-1.2.4 0 .3 0 .5-.1.8l1.5-.6h.1l.1-.1 6.3-5.4c2.2-1.7 4.3-3.5 6.7-4.9.3-.1.6-.3.9-.4l.4-.1.5-.1 2.1-.3 4.1-.6 8.2-1.2c2.8-.4 5.5-.8 8.2-1.3l2.1-.4c.2 0 .3-.1.5-.1s.4-.1.6-.2c.4-.2.6-.4 1-.5 1.2-.7 2.4-1.5 3.6-2.2 4.7-3 9.3-6.1 13.9-9.3l.2-.1.1-.2 5.8-17.7 2.8-8.9c.5-1.5.9-3 1.4-4.5l.2-.6c.1-.3.1-.6.1-.8v-1.1z" fill="#ab7b44" stroke-width="none" opacity="1" stroke="none"></path></g></g><g id="svga-group-humanbody-back"><path id="SvgjsPath16262" d="M77.8 105.9s4.8 37.7 10 55.8c0 0-6.4 8.8-14.5 11.9-28.7 11.2-35 11.2-39.6 15.2-2.4 2.1.2 11.1 1.8 17.2 1.3 5 1.7 13.2 1.7 13.2h132.2s1.6-33-.6-39.8-7.1-2.9-21.9-4.5c-14.8-1.6-28.7-10.3-31-13.2l.3-60-38.4 4.2z" fill="#f4ede9" stroke-width="none" opacity="1" stroke="none"></path></g><g id="svga-group-chinshadow-single"><path id="SvgjsPath16779" d="M85.6 152.8c6.6 3.5 10.7 3.5 10.7 3.5s8 0 19.6-9.5l.2-45.2-38.4 4.2c.1.1 3.6 27.7 7.9 47z" fill="#d5b4a1" stroke-width="none" opacity="1" stroke="none"></path></g><g id="svga-group-humanbody-front"><path id="SvgjsPath16263" d="M72.1 183.1s14.6-.2 20.4 2.6c5.8 2.9 12.7 2.4 16.1-1s21.6-7 21.6-7-19.7 1.9-25 4.6c-5.3 2.7-22.3-2.8-33.1.8z" fill="#d5b4a1" stroke-width="none" opacity="1" stroke="none"></path><path id="SvgjsPath16264" d="M74.2 173.2c6.7-1.3 14.7-6.4 14.7-6.4l6.2 5.5c-4.3-7.9-12.7-41.1-12.7-41.1l-.7.7c1.7 10.5 3.9 21.9 6.1 29.7 0 0-6 8.2-13.6 11.6z" fill="#d5b4a1" stroke-width="none" opacity="1" stroke="none"></path><path id="SvgjsPath16265" d="M170.7 188.5c-.1-2.1-.2-4.1-.4-6.2-.1-1-.3-2.1-.6-3.2-.2-.5-.4-1-.6-1.6-.2-.5-.6-1-1-1.5s-.9-.9-1.5-1.1c-.6-.3-1.1-.4-1.7-.6-1.1-.2-2.2-.2-3.2-.2-2.1 0-4.1.1-6.1.1s-4-.1-6-.2-4-.4-6-.7c-1-.2-2-.4-2.9-.6l-1.5-.4c-.5-.1-1-.3-1.4-.4-3.8-1.1-7.6-2.6-11.2-4.4l-1.3-.7-1.3-.7c-.4-.2-.9-.5-1.3-.8s-.9-.5-1.3-.8-.8-.5-1.3-.8l-1.2-.9-.6-.5-.3-.2-.3-.2c-.2-.2-.4-.3-.5-.5l-.2-.3v-44.6l-.1-15v-.6l-.6.1c-6.4.8-12.9 1.5-19.3 2.3l-19.1 2.3v.5l.1.4.1.9.2 1.8c.1 1.2.3 2.3.4 3.5l.9 7c.6 4.7 1.3 9.4 2.1 14 .8 4.7 1.5 9.3 2.5 14 .9 4.5 1.8 9 3 13.5-1.1 1.4-2.3 2.7-3.6 4-1.3 1.3-2.8 2.6-4.3 3.8-1.5 1.1-3.1 2.2-4.8 3l-1.3.6c-.4.2-.9.3-1.3.5l-2.7 1c-7.2 2.7-14.5 5.3-21.8 7.7l-5.5 1.8c-1.8.6-3.7 1.3-5.5 2.2-.4.2-.9.5-1.3.7-.4.3-.9.5-1.3.9l-.6.5c-.2.2-.5.5-.6.8-.3.5-.4 1.1-.5 1.6-.2 1.1-.1 2.1 0 3.1s.3 2 .4 2.9c.4 1.9.8 3.8 1.3 5.7l.8 2.8c.3.9.5 1.8.7 2.8.4 1.9.7 3.8.9 5.7s.4 3.8.5 5.7v.8h133.4v-.8c.2-4.1.4-8.2.5-12.3s.2-8.2.2-12.3c0-1.8-.1-3.8-.1-5.9zm-67.4 30.3H70.2l-16.5-.1-16-.1c-.1-1.8-.2-3.5-.4-5.3-.2-1.9-.4-3.9-.8-5.8-.2-1-.4-1.9-.7-2.9l-.7-2.8c-.5-1.9-.9-3.7-1.2-5.6-.2-.9-.3-1.9-.4-2.8-.1-.9-.1-1.9 0-2.7.1-.4.2-.8.4-1.1.1-.2.2-.3.3-.4l.5-.4c.3-.3.7-.5 1.1-.8.4-.2.8-.5 1.2-.7 1.7-.8 3.5-1.4 5.3-2l5.5-1.8c7.3-2.4 14.6-5 21.8-7.8l2.7-1c.5-.2.9-.3 1.4-.5l1.4-.6c1.8-.9 3.4-2 5-3.2s3-2.5 4.4-3.9 2.7-2.9 3.8-4.5l.2-.3-.1-.3c-1.3-4.5-2.3-9.1-3.3-13.7s-1.9-9.3-2.7-13.9c-.8-4.6-1.6-9.3-2.4-14l-2.2-13.9 19.3-1.8c6.2-.6 12.3-1.2 18.5-1.8l-.2 14.4-.2 15-.3 30v.4l.2.2.6.7.6.6.3.3.3.2.6.5c.4.3.9.6 1.3.9.4.3.9.6 1.3.9.4.3.9.5 1.3.8s.9.5 1.3.8l1.4.8 1.4.7c.5.2.9.5 1.4.7l1.4.7c1 .4 1.9.8 2.9 1.2s1.9.8 2.9 1.1l1.5.5c.5.2 1 .3 1.5.4.5.1 1 .3 1.5.4l1.5.4c1 .3 2 .4 3 .6 2 .4 4.1.6 6.2.8 2.1.2 4.1.2 6.2.2 2.1 0 4.1-.1 6.1-.1s4 .1 5 1.3c.5.6.9 1.4 1.2 2.3.3.9.4 1.9.6 2.8.3 2 .4 4 .5 6s.1 4.1.2 6.1c.1 7.9-.1 15.8-.4 23.7-10.8.1-21.5.1-32.3.2h-33.1z" fill="#c69b82" stroke-width="none" opacity="1" stroke="none"></path><path id="SvgjsPath16266" d="M150.7 219.2 147 198l-.4 21.2z" fill="#d5b4a1" stroke-width="none" opacity="1" stroke="none"></path><path id="SvgjsPath16267" d="M47.3 203.5s2.2 11.5 2.9 15.7h3.5l-6.4-15.7z" fill="#d5b4a1" stroke-width="none" opacity="1" stroke="none"></path></g><g id="svga-group-clothes-single"><path id="SvgjsPath16631" d="M83.26 143.21c-2.27.45-5.11 2.64-5.11 5.13 0 2.5.91 3.18.91 4.99s-2.72 2.27-1.59 5.67c1.13 3.4-.91 4.08-1.81 6.12-.91 2.04.68 3.86.68 3.86s-8.62 4.08-13.38 5.22-19.28 7.26-22.91 7.49-10.21 5.22-10.89 6.81-.68 8.39.45 10.66c1.13 2.27 1.13 9.53 1.59 11.34.45 1.81.8 8.7.8 8.7h139.62s.45-17.09 1.36-20.49c.91-3.4-.23-18.6-1.13-21.78-.91-3.18-8.62-7.03-11.34-6.58-2.72.45-29.57-2.97-36.38-6.37 0 0 .08-5.42-3.09-7.24 0 0 2.04-4.08.45-6.12s-.91-4.54-1.59-5.22c-.68-.68-2.95-2.04-2.95-2.04s-.64 2.75-4.72 4.11-23.42 1.09-26.14-.27-2.83-3.99-2.83-3.99z" fill="#9d69bc" stroke-width="none" opacity="1"></path><path id="SvgjsPath16632" d="M173.89 184.26c-.18-1.95-.37-3.89-.69-5.86-.09-.5-.17-.99-.31-1.52-.04-.24-.2-.58-.31-.87-.13-.3-.3-.52-.46-.78-.68-.94-1.48-1.62-2.3-2.26-1.66-1.24-3.45-2.18-5.37-2.91-.97-.35-1.96-.65-3.12-.74-.27-.04-.62 0-.94.02l-.6.03c-.42 0-.92-.02-1.37-.04-3.81-.26-7.67-.74-11.49-1.27-3.83-.55-7.65-1.14-11.44-1.87-3.6-.72-7.29-1.47-10.55-2.8-.03-.54-.09-1.06-.17-1.59-.13-.72-.29-1.43-.55-2.13-.26-.7-.59-1.39-1.04-2.02-.33-.44-.74-.83-1.18-1.17.44-1.08.76-2.18.84-3.41.03-.72-.03-1.51-.38-2.26-.07-.19-.21-.36-.32-.54l-.26-.37a4.63 4.63 0 0 1-.39-.73c-.22-.52-.34-1.09-.42-1.69l-.11-.96c-.05-.34-.07-.69-.27-1.16-.32-.6-.63-.7-.89-.94a33.141 33.141 0 0 0-2.51-1.61l-.73-.43-.24.84c-.16.54-.56 1.22-1.04 1.72-.49.52-1.07.96-1.72 1.32-1.29.76-2.75 1.02-4.31 1.2-3.1.37-6.26.43-9.4.49-3.15.03-6.3 0-9.44-.23-.78-.06-1.56-.14-2.34-.24-.78-.12-1.54-.23-2.2-.6a4.74 4.74 0 0 1-1.69-1.52c-.21-.32-.4-.66-.53-1.02a3.5 3.5 0 0 1-.17-.55l-.06-.28-.02-.14-.01-.07c-.01-.01.02-.04-.04-.14-.17.01-.38.04-.55.08l-.46.14c-.3.11-.59.23-.88.37-.57.28-1.1.63-1.59 1.05-.96.81-1.8 1.93-1.94 3.28-.05.66-.01 1.29.1 1.93.11.64.32 1.25.49 1.83.16.57.25 1.19.19 1.71-.07.49-.46.93-.86 1.42-.4.48-.81 1.09-.97 1.78-.17.7-.08 1.41.08 2.05.38 1.22.57 2.33.07 3.31-.47.97-1.54 1.85-2.01 3.23-.22.69-.23 1.46-.05 2.14.12.46.29.87.52 1.27-2.92 1.31-5.9 2.55-8.9 3.62-.8.28-1.61.55-2.42.78-.8.24-1.61.41-2.49.65-1.69.48-3.32 1.06-4.95 1.63-3.26 1.15-6.48 2.35-9.73 3.46-1.62.56-3.25 1.09-4.87 1.53-.41.12-.81.2-1.2.29-.43.1-.69.1-1.2.18-1 .11-1.88.42-2.71.77-1.68.71-3.19 1.63-4.64 2.65-.72.52-1.43 1.05-2.11 1.64-.34.3-.67.6-1 .94-.32.34-.66.7-.95 1.3-.37 1.09-.39 1.92-.46 2.83-.05.89-.05 1.78-.03 2.66.03.88.09 1.77.21 2.66.12.89.26 1.78.6 2.72.23.57.34.74.45 1.15.11.36.2.76.27 1.17.15.81.26 1.65.35 2.49.18 1.69.28 3.4.45 5.14.05.44.09.88.18 1.35l.14.64.1.6c.12.82.22 1.67.3 2.52.16 1.7.29 3.42.4 5.12l.04.69.68-.01c11.64-.11 23.27-.31 34.91-.35l17.45-.06 17.45.06 34.91.33 34.91.24.9.01.03-.91c.13-3.87.29-7.75.53-11.61.12-1.93.25-3.86.45-5.76.11-.93.21-1.93.4-2.74.25-1.04.33-2.11.37-3.09.11-3.99-.1-7.88-.42-11.78zm-54.94-38.75c.23.17.51.43.46.43.13.31.15 1.06.22 1.71.08.68.21 1.39.48 2.08.14.34.31.68.51.99.09.14.24.34.29.43.05.1.13.18.17.3.19.43.25.97.21 1.54-.08 1.13-.49 2.35-.99 3.41l-.31.66.63.4c.47.3.88.69 1.23 1.16.34.48.59 1.04.8 1.63.21.59.34 1.21.45 1.85.1.62.16 1.3.15 1.89v.55l.48.23c.09.05.19.08.28.12-3.8 1.26-7.54 2.65-11.26 4.07.15-.55.29-1.1.43-1.65.11-.5.21-.99.29-1.5.09-.53.08-1.07.04-1.59-.09-1.06-.4-2.08-.79-3.04-.17-.41-.38-.81-.59-1.2.03-.02.07-.03.1-.05-.04.01-.07.01-.11.02l-.09-.18c-.26-.47-.56-.89-.54-1.13-.05-.2.26-.57.59-1 .32-.42.61-.91.8-1.42.19-.51.36-1.05.33-1.65-.01-.61-.31-1.21-.68-1.61-.45-.51-.96-.93-1.4-1.36.83-.59 1.6-1.24 2.28-1.98.36-.39.71-.79 1.05-1.2-.01.08-.02.16-.04.25-.01.07-.02.12-.01.23 0 .04.03.13.09.19.03.03.08.06.12.08l.02.01c.07.04.16.11.24.19.66.58 1.1 1.4 1.15 2.22.01.39-.03.92-.06 1.34-.04.45-.13.84-.28 1.27-.15.41-.31.91-.47 1.28-.16.38-.41.73-.68 1.14-.26.39-.58.93-.57 1.57 0 .63.26 1.14.52 1.57.26.41.54.81.8 1.18.28.41.4.62.35 1.03-.04.43-.19.84-.28 1.36-.08.51-.03 1.04.11 1.52.28.95.9 1.71.77 2.68.18-.44.14-.97.02-1.43-.11-.47-.25-.92-.31-1.36-.07-.44-.06-.87.05-1.28.11-.39.31-.87.4-1.38.05-.26.07-.58-.02-.88-.09-.3-.24-.52-.36-.73-.26-.41-.5-.79-.73-1.2-.21-.37-.37-.75-.36-1.08 0-.32.17-.65.43-1.03.25-.38.54-.81.74-1.3.19-.5.33-.9.47-1.38.14-.47.24-1 .26-1.5.01-.51.02-.93-.04-1.48-.15-1.07-.8-1.97-1.63-2.53-.11-.07-.21-.13-.36-.19h-.01c0-.02 0-.05-.01-.08 0-.2 0-.43-.03-.65.59-.75 1.13-1.55 1.55-2.4.35-.38.66-.81.91-1.3.33.21.66.42.98.64.27.15.52.33.76.52zm-36.43 25.61c-.43-.93-.85-1.86-1.17-2.82-.2-.56-.38-1.15-.4-1.69-.01-.27.05-.42.22-.63.18-.21.41-.46.6-.73.38-.55.67-1.1.87-1.78.09-.34.11-.82-.11-1.2-.2-.37-.42-.59-.58-.82a3.98 3.98 0 0 1-.73-1.47c-.16-.54-.2-1.07-.04-1.49.15-.42.57-.78 1.03-1.25.05-.05.1-.12.16-.17.98.96 2.02 1.87 3.18 2.66.18.13.37.24.55.36-.01.02-.03.02-.04.02-.09.09-.35.11-.72.38a.96.96 0 0 0-.37.64c-.04.24 0 .41.03.59.16.63.43 1.11.71 1.59.28.48.59.95.95 1.38.35.43.77.84 1.1 1.19.16.18.28.34.33.5.06.15.06.41.03.53-.02.25-.48.39-1.05.79-.3.21-.49.68-.44 1.03.04.34.14.63.27.88.68 1.3 1.58 2.4 2.57 3.4-.39-.06-.78-.12-1.16-.21-1.93-.44-3.86-1.04-5.79-1.68zm7.38 1.99c-.93-1.19-1.79-2.42-2.37-3.74-.1-.23-.15-.46-.16-.65.01-.19.05-.26.19-.37.15-.11.39-.19.66-.34.26-.14.61-.41.73-.82.1-.4.09-.69 0-1.05-.1-.35-.31-.63-.49-.85-.38-.44-.73-.78-1.05-1.19-.32-.4-.59-.82-.85-1.27-.25-.44-.49-.92-.6-1.32-.01-.09-.03-.18-.02-.21.01-.04-.01-.01.01-.03.05-.06.35-.13.69-.37.1-.07.19-.18.27-.3.88.51 1.79.95 2.71 1.36 1.27.53 2.57.7 3.83.81.22.22.33.6.34 1-.42.29-.71.68-.86 1.16-.18.59-.05 1.18.12 1.65.15.48.46.96.73 1.32.27.35.41.7.49 1.14.13.86.17 1.9.49 2.79.15.46.33.91.59 1.32.01.01.02.03.03.04-.34.02-.68.05-1.03.06-1.5.07-2.99.05-4.45-.14zm5.73.08c-.02-.05-.05-.09-.07-.13-.2-.41-.31-.86-.4-1.31-.08-.45-.13-.91-.16-1.37-.04-.45-.01-.91-.07-1.42-.04-.49-.22-1.05-.5-1.47-.26-.41-.43-.75-.56-1.18-.13-.41-.17-.79-.06-1.11.09-.31.38-.6.65-.73l.27-.13.02-.25c.04-.44.01-.83-.13-1.26 2.99.07 5.93-.18 8.83-.64 1.5-.22 2.98-.53 4.45-.87.73-.19 1.47-.37 2.19-.59.38-.12.76-.24 1.14-.38.22.39.42.78.61 1.18.42.88.72 1.81.89 2.75.18.94.05 1.91-.04 2.92-.05.61-.12 1.22-.19 1.82-.04.02-.09.03-.13.05-1.97.73-3.93 1.53-5.89 2.22-1.9.73-3.88 1.11-5.94 1.4-1.62.27-3.26.41-4.91.5zm18.92-25.82-.15-.24c.28-.16.56-.34.83-.54-.06.07-.11.14-.17.21-.17.2-.34.38-.51.57zm.26 1.42c0 .01 0 .02 0 0 0 .01 0 0 0 0zm-.7-1.5c.06-.03.12-.07.18-.11.05.11.09.21.12.32-.49.54-1 1.06-1.54 1.54-.76.66-1.53 1.3-2.37 1.82-.02-.03-.04-.05-.06-.08-.26-.38-.34-.84-.25-1.32.03-.24.11-.49.13-.75.01-.1-.01-.21-.05-.3.49-.06.99-.14 1.49-.25.84-.15 1.59-.49 2.35-.87zm-14.28 1.49c3.17.06 6.33.03 9.52-.26l.83-.09c.02.09.02.18-.01.27-.05.23-.16.46-.24.71-.17.49-.17 1.1.08 1.61.02.04.05.07.07.11-.76.44-1.55.79-2.39.9-2.02.29-4.16.28-6.26.34l-3.17.04-3.18.08c1.05.18 2.11.28 3.16.41 1.06.09 2.12.17 3.18.24 2.13.11 4.25.16 6.43-.13 1.01-.15 1.95-.58 2.78-1.1.44.54.93 1 1.3 1.5.58.71.48 1.55.08 2.42-.19.42-.41.81-.71 1.19-.14.19-.31.38-.48.62-.16.23-.35.6-.33.99.02.39.16.69.3.94l.3.5c-.36.04-.73.06-1.09.1l-2.24.17-4.47.29c-2.97.16-5.95.32-8.85.2-.54-.02-1.07-.06-1.59-.11 0-.04-.01-.09-.01-.13-.04-.69-.08-1.44-.18-2.15-.09-.69-.18-1.34-.36-2.06l.79-4.2.01-.05v-.03c-.15-1.2-.25-2.43-.17-3.66 2.29.19 4.59.28 6.9.34zm-21.26 1.1c-.12-.58-.18-1.21-.15-1.79.07-1.16.79-2.23 1.68-3.05a8.2 8.2 0 0 1 1.48-1.07c.27-.14.55-.28.83-.39l.43-.15c.12-.03.21-.07.33-.13l.01.07.02.15c.01.1.03.2.05.3a4.993 4.993 0 0 0 .69 1.67 5.18 5.18 0 0 0 1.74 1.68c.33.23.75.34 1.14.47.39.08.78.19 1.18.25.79.14 1.57.24 2.36.33.85.09 1.69.17 2.54.23-.14.57-.22 1.15-.26 1.74a20 20 0 0 0-.05 1.9l-1.12 4.2-.02.08.03.13c.13.62.21 1.35.27 2.04.06.69.11 1.34.14 2.04-.53-.09-1.04-.21-1.52-.39-1.13-.41-2.21-.9-3.27-1.45-.05-.45-.06-.81.06-1.22.06-.24.15-.44.25-.72.12-.29.16-.59.19-.88.09-1.15-.12-2.22-.45-3.28-.11-.8-.18-1.63-.14-2.45.02-.41.07-.83.18-1.22.11-.39.26-.79.55-1.11-.66.56-.92 1.46-1.06 2.29-.14.85-.17 1.71-.09 2.58v.01l.01.04c.23.99.36 2.07.21 3.03-.05.24-.1.47-.19.68-.08.21-.22.51-.3.78-.11.3-.15.64-.16.97-1.09-.61-2.14-1.31-3.18-2.06.12-.3.2-.63.17-.9-.02-.72-.23-1.32-.42-1.92-.2-.6-.43-1.16-.66-1.73-.41-1.13-.91-2.28-.47-3.34.38-1.09 1.42-1.87 2.48-2.46-1.15.39-2.31 1.07-2.92 2.27-.29.6-.36 1.31-.25 1.95.09.64.27 1.24.45 1.83.33 1.17.84 2.35.86 3.41 0 .12-.01.22-.03.31-.91-.67-1.82-1.36-2.75-2.04.05-.7-.08-1.32-.27-1.93-.26-.59-.48-1.16-.6-1.75zm-2.54 15.77c.3-1.04 1.25-1.86 1.88-3.13.66-1.31.29-2.86-.11-3.96-.16-.55-.24-1.12-.13-1.65.1-.53.38-1.01.76-1.49.34-.46.81-.99.93-1.72.74.92 1.51 1.82 2.33 2.68-.05.06-.11.12-.17.18-.39.4-.98.83-1.27 1.58-.27.75-.15 1.49.04 2.12.18.63.5 1.27.93 1.78.21.25.42.48.52.65.1.16.1.33.06.59-.13.5-.37 1.07-.66 1.55-.15.25-.32.46-.52.73-.22.27-.35.75-.29 1.09.08.68.32 1.27.57 1.84.44.91.95 1.77 1.49 2.6-1.76-.59-3.52-1.21-5.29-1.82l.14-.07-.48-.58c-.66-.81-1.05-1.99-.73-2.97zm96.21 30.29c-.03.96-.1 1.84-.29 2.69-.24 1.08-.32 2.03-.43 3.02-.19 1.96-.3 3.91-.41 5.85-.19 3.59-.31 7.18-.41 10.77l-18.2.12c.21-1.85.13-3.74-.16-5.6-.08-.51-.21-1.03-.3-1.52-.1-.48-.13-.98-.16-1.47-.01-1 .05-2.01.18-3.01.51-4.02 1.52-7.99 2.68-11.9.56-1.95 1.14-3.94 1.82-5.83.69-1.88 1.69-3.64 3.02-5.12 1.34-1.48 3.02-2.63 4.84-3.52 1.8-.95 3.73-1.66 5.58-2.54-1.94.67-3.89 1.29-5.79 2.1-1.89.82-3.7 1.94-5.19 3.44-1.5 1.49-2.55 3.38-3.31 5.32-.74 1.95-1.33 3.9-1.93 5.87-1.09 3.96-2.12 7.96-2.49 12.1-.09 1.03-.1 2.08-.05 3.12.05.52.11 1.05.24 1.57l.37 1.48c.42 1.79.61 3.65.58 5.5l-15.74.11-34.91.33-17.45.06-17.45-.06c-4.39-.02-8.77-.06-13.16-.1-.23-1.51-.51-3-.76-4.51l-.93-4.93c-.3-1.65-.66-3.28-.98-4.92l-.52-2.46-.26-1.23-.35-1.25c-1.15-3.28-3.27-6.06-5.69-8.41-2.44-2.33-5.25-4.34-8.42-5.49 1.49.76 2.89 1.67 4.2 2.7 1.32 1.01 2.55 2.13 3.68 3.33 2.24 2.41 4.24 5.12 5.29 8.19l.33 1.16.27 1.22.55 2.45c.39 1.63.74 3.26 1.16 4.88l1.21 4.87c.4 1.47.77 2.94 1.19 4.4-7.01-.08-14.01-.17-21.02-.24-.07-1.5-.14-3-.25-4.51-.07-.87-.14-1.73-.25-2.62l-.1-.68-.12-.63c-.06-.37-.11-.79-.15-1.21-.15-1.69-.24-3.42-.41-5.16-.08-.87-.19-1.74-.35-2.63-.08-.44-.17-.89-.31-1.35-.1-.43-.4-1.02-.48-1.26-.48-1.41-.6-3.17-.66-4.82-.02-.84-.01-1.68.04-2.5.05-.8.15-1.71.35-2.26.09-.17.31-.48.59-.76.26-.28.56-.57.87-.84.61-.55 1.28-1.06 1.95-1.55 1.36-.97 2.8-1.86 4.29-2.5.74-.32 1.51-.59 2.23-.67.34-.06.95-.11 1.35-.21.44-.1.89-.2 1.3-.32 1.7-.48 3.34-1.03 4.97-1.61 3.26-1.15 6.48-2.38 9.71-3.55 1.61-.59 3.23-1.16 4.85-1.66.78-.23 1.64-.44 2.49-.71.84-.26 1.66-.56 2.48-.86 3.26-1.23 6.41-2.64 9.53-4.13l.37-.18c3.48 1.98 7.07 3.75 10.97 5 2.11.69 4.35.79 6.49.82 2.16-.01 4.3-.18 6.43-.47 2.1-.32 4.3-.77 6.32-1.61 1.98-.81 3.92-1.65 5.83-2.55 3.76-1.74 7.47-3.59 11.09-5.63 1.77.8 3.54 1.3 5.33 1.81 1.9.5 3.81.93 5.72 1.33 3.83.79 7.67 1.46 11.53 2.01 3.86.55 7.72 1.04 11.66 1.32.51.02.99.05 1.54.05l.85-.05c.17 0 .3-.04.51 0 .78.06 1.67.32 2.52.63 1.71.65 3.38 1.54 4.83 2.64.71.55 1.38 1.16 1.84 1.8.09.16.23.32.28.47.05.17.14.26.18.5.11.41.18.87.26 1.33.29 1.86.48 3.79.65 5.71.29 3.86.56 7.74.45 11.53z" fill="#78389d" stroke-width="none" opacity="1"></path></g><g id="svga-group-head" transform="matrix(1,0,0,1,0,0)"><g id="svga-group-ears-left-move" transform="matrix(1,0,0,1,0,0)"><g id="svga-group-ears-left" transform="matrix(1,0,0,1,0,0)"><path id="SvgjsPath16454" d="M64.35 96.38s-2.97-7.29-5.67-10.81c0 0-1.55-1.23-3.05-2.34a2.359 2.359 0 0 0-3.25.41c-1.71 2.12-4.66 6.02-7.13 10.49-.41.75-.57 1.6-.43 2.44.3 1.82.93 5.1 1.69 6.43 1.08 1.89 5.54 6.62 8.65 8.24 0 0 3.51.54 6.21-1.89 2.71-2.43 2.98-12.97 2.98-12.97z" fill="#f4ede9" stroke-width="none" opacity="1" stroke="none"></path><path id="SvgjsPath16455" d="M62.48 97.25c-.08-.23-5.87-7.75-8.12-9.17-2.26-1.43-6.99 5.94-7.22 8.42-.23 2.48 2.26 7.14 4.36 8.5 2.11 1.35 6.84 1.88 9.48-1.96 2.63-3.84 1.5-5.79 1.5-5.79z" fill="#e5d0c4" stroke-width="none" opacity="1" stroke="none"></path><path id="SvgjsPath16456" d="M44.91 94.57c-.16.42-.26.86-.28 1.3-.03.45.07.89.13 1.32.14.85.29 1.71.46 2.56.18.85.38 1.7.67 2.53.28.86.84 1.61 1.36 2.29 1.08 1.37 2.28 2.63 3.55 3.83 1.27 1.19 2.61 2.33 4.19 3.17l.06.03.06.01c1.78.19 3.55-.15 5.11-1.01.76-.44 1.48-.98 1.99-1.76.5-.75.76-1.58 1.03-2.4.48-1.65.71-3.33.9-5.01.18-1.68.24-3.36.25-5.06-.35-.98-.73-1.91-1.13-2.86-.39-.94-.82-1.87-1.26-2.79-.45-.92-.89-1.84-1.41-2.73-.51-.89-1.05-1.77-1.67-2.6l-.02-.03-.03-.02-2.04-1.6-1.04-.78a2.659 2.659 0 0 0-2.77-.2c-.43.21-.79.61-1.03.95-.53.69-1.04 1.38-1.54 2.09-1.99 2.83-3.91 5.68-5.54 8.77zm.02 1.31c0-.41.08-.83.23-1.22.73-1.52 1.65-3.01 2.6-4.44.95-1.44 1.97-2.83 3.03-4.18a79 79 0 0 1 1.62-2.01c.49-.68 1.21-1.03 1.98-.97.38.03.74.17 1.04.39l1.01.79 2.03 1.53c1.2 1.59 2.19 3.36 3.15 5.14.48.89.93 1.81 1.39 2.72.45.91.89 1.84 1.32 2.75-.11 1.66-.32 3.35-.56 5-.25 1.66-.57 3.31-1.07 4.89-.28.77-.56 1.56-1.01 2.21-.43.62-1.1 1.11-1.8 1.5-1.38.76-3.05 1.06-4.59.9-1.43-.8-2.75-1.87-4-3a38.627 38.627 0 0 1-3.55-3.69c-.54-.67-1.05-1.31-1.33-2.1-.3-.78-.54-1.61-.75-2.44-.21-.83-.39-1.67-.56-2.52-.09-.43-.19-.84-.18-1.25z" fill="#e5d0c4" stroke-width="none" opacity="1" stroke="none"></path><path id="SvgjsPath16457" d="M48.9 96.37c.25-.83.64-1.56 1.05-2.28.41-.72.88-1.39 1.37-2.05.49-.66 1.01-1.29 1.62-1.87.15-.14.31-.28.52-.38.1-.05.23-.1.39-.04.14.08.17.17.26.25.22.35.43.71.61 1.08.74 1.46 1.45 2.93 2.05 4.46.3.76.56 1.54.77 2.34.11.4.19.8.27 1.22.05.41.14.87.03 1.32-.19.88-.7 1.58-1.21 2.22-.53.64-1.13 1.21-1.77 1.71l-.05-.05c.55-.6 1.07-1.23 1.52-1.88.45-.65.84-1.37.98-2.1.11-.69-.16-1.5-.37-2.26-.23-.77-.47-1.54-.73-2.31-.5-1.54-1.01-3.09-1.7-4.55-.18-.36-.36-.73-.58-1.05-.06-.05-.13-.16-.17-.17-.03-.02-.12 0-.19.04-.16.08-.31.22-.45.35-.57.55-1.02 1.24-1.47 1.91-.84 1.37-1.65 2.81-2.09 4.29-.05.18-.09.37-.1.54a.96.96 0 0 0 0 .24c.01.08.03.19.04.28.07.38.17.76.29 1.13.25.74.58 1.47.97 2.14.1.17.2.34.31.5.05.08.11.15.16.23.05.07.14.16.11.13-.03.01.1.01.25-.06.15-.08.3-.17.45-.28.61-.46 1.17-1.05 1.64-1.67.06-.08.12-.16.17-.23l.07-.11c.01-.03.02-.05.03-.08.03-.13.03-.32 0-.51-.05-.38-.16-.76-.29-1.14-.26-.76-.56-1.52-.89-2.26l.06-.03c.44.69.83 1.41 1.17 2.16.16.38.32.77.41 1.19.05.21.08.44.04.7l-.06.21c-.03.05-.05.1-.08.15-.05.1-.11.18-.17.27-.48.69-1.01 1.33-1.67 1.89-.17.14-.35.27-.57.38-.22.09-.52.24-.92.05-.21-.14-.24-.22-.32-.3-.07-.09-.14-.17-.2-.26-.13-.18-.24-.35-.35-.54-.42-.73-.77-1.49-1.02-2.3-.12-.4-.22-.82-.28-1.24-.01-.11-.03-.21-.04-.33-.01-.13-.01-.25.01-.37.01-.26.06-.47.12-.68z" fill="#c69b82" stroke-width="none" opacity="1" stroke="none"></path></g></g><g id="svga-group-ears-right-move" transform="matrix(1,0,0,1,0,0)"><g id="svga-group-ears-right" transform="matrix(1,0,0,1,0,0)"><path id="SvgjsPath16458" d="M135.65 96.38s2.97-7.29 5.67-10.81c0 0 1.55-1.23 3.05-2.34 1.02-.76 2.45-.58 3.25.41 1.71 2.12 4.66 6.02 7.13 10.49.41.75.57 1.6.43 2.44-.3 1.82-.93 5.1-1.69 6.43-1.08 1.89-5.54 6.62-8.65 8.24 0 0-3.51.54-6.21-1.89-2.71-2.43-2.98-12.97-2.98-12.97z" fill="#f4ede9" stroke-width="none" opacity="1" stroke="none"></path><path id="SvgjsPath16459" d="M137.52 97.25c.08-.23 5.87-7.75 8.12-9.17s6.99 5.94 7.22 8.42c.23 2.48-2.26 7.14-4.36 8.5-2.11 1.35-6.84 1.88-9.48-1.96-2.63-3.84-1.5-5.79-1.5-5.79z" fill="#e5d0c4" stroke-width="none" opacity="1" stroke="none"></path><path id="SvgjsPath16460" d="M149.55 85.79c-.5-.7-1.02-1.4-1.54-2.09-.24-.34-.6-.74-1.03-.95-.43-.22-.92-.32-1.41-.29-.49.03-.96.21-1.36.49l-1.04.78-2.04 1.6-.03.02-.02.03c-.62.83-1.16 1.71-1.67 2.6-.52.89-.96 1.81-1.41 2.73-.44.92-.87 1.85-1.26 2.79-.39.95-.78 1.88-1.13 2.86.01 1.7.07 3.38.25 5.06.18 1.68.41 3.36.9 5.01.27.81.53 1.64 1.03 2.4.52.78 1.23 1.32 1.99 1.76 1.56.86 3.33 1.19 5.11 1.01l.06-.01.06-.03c1.58-.85 2.92-1.99 4.19-3.17 1.27-1.19 2.47-2.45 3.55-3.83.52-.68 1.08-1.43 1.36-2.29.3-.83.49-1.68.67-2.53.18-.85.33-1.7.46-2.56.06-.42.15-.86.13-1.32-.02-.45-.12-.89-.28-1.3-1.63-3.08-3.55-5.93-5.54-8.77zm5.35 11.34c-.17.84-.35 1.69-.56 2.52-.21.83-.45 1.66-.75 2.44-.28.79-.79 1.43-1.33 2.1a35.347 35.347 0 0 1-3.55 3.69c-1.25 1.13-2.57 2.2-4 3-1.54.16-3.21-.14-4.59-.9-.7-.39-1.37-.87-1.8-1.5-.46-.64-.74-1.43-1.01-2.21-.5-1.58-.82-3.23-1.07-4.89-.24-1.66-.45-3.34-.56-5 .43-.91.87-1.84 1.32-2.75.46-.91.9-1.82 1.39-2.72.96-1.77 1.94-3.55 3.15-5.14l2.03-1.53 1.01-.79c.3-.22.66-.36 1.04-.39.77-.06 1.49.29 1.98.97a79 79 0 0 1 1.62 2.01c1.07 1.35 2.09 2.74 3.03 4.18.94 1.43 1.87 2.92 2.6 4.44.15.39.22.81.23 1.22 0 .41-.1.82-.18 1.25z" fill="#e5d0c4" stroke-width="none" opacity="1" stroke="none"></path><path id="SvgjsPath16461" d="M151.1 96.37c-.25-.83-.64-1.56-1.05-2.28-.41-.72-.88-1.39-1.37-2.05-.49-.66-1.01-1.29-1.62-1.87-.15-.14-.31-.28-.52-.38-.1-.05-.23-.1-.39-.04-.14.08-.17.17-.26.25-.22.35-.43.71-.61 1.08-.74 1.46-1.45 2.93-2.05 4.46-.3.76-.56 1.54-.77 2.34-.11.4-.19.8-.27 1.22-.05.41-.14.87-.03 1.32.19.88.7 1.58 1.21 2.22.53.64 1.13 1.21 1.77 1.71l.05-.05c-.55-.6-1.07-1.23-1.52-1.88-.45-.65-.84-1.37-.98-2.1-.11-.69.16-1.5.37-2.26.23-.77.47-1.54.73-2.31.5-1.54 1.01-3.09 1.7-4.55.18-.36.36-.73.58-1.05.06-.05.13-.16.17-.17.03-.02.12 0 .19.04.16.08.31.22.45.35.57.55 1.02 1.24 1.47 1.91.84 1.37 1.65 2.81 2.09 4.29.05.18.09.37.1.54.01.09.01.17 0 .24-.01.08-.03.19-.04.28-.07.38-.17.76-.29 1.13-.25.74-.58 1.47-.97 2.14-.1.17-.2.34-.31.5-.05.08-.11.15-.16.23-.05.07-.14.16-.11.13.03.01-.1.01-.25-.06-.15-.08-.3-.17-.45-.28a8.654 8.654 0 0 1-1.64-1.67c-.06-.08-.12-.16-.17-.23l-.07-.11c-.01-.03-.02-.05-.03-.08-.03-.13-.03-.32 0-.51.05-.38.16-.76.29-1.14.26-.76.56-1.52.89-2.26l-.06-.03c-.44.69-.83 1.41-1.17 2.16-.16.38-.32.77-.41 1.19-.05.21-.08.44-.04.7l.06.21c.03.05.05.1.08.15.05.1.11.18.17.27.48.69 1.01 1.33 1.67 1.89.17.14.35.27.57.38.22.09.52.24.92.05.21-.14.24-.22.32-.3.07-.09.14-.17.2-.26.13-.18.24-.35.35-.54.42-.73.77-1.49 1.02-2.3.12-.4.22-.82.28-1.24.01-.11.03-.21.04-.33.01-.13.01-.25-.01-.37a2.75 2.75 0 0 0-.12-.68z" fill="#c69b82" stroke-width="none" opacity="1" stroke="none"></path></g></g><g id="svga-group-faceshape-wrap" transform="matrix(1,0,0,1,0,0)"><g id="svga-group-faceshape-single"><path id="SvgjsPath16769" d="M135.9 49.8c-6.7-7.4-11.3-13.2-28.8-17.3-1.8-.4-12.3-.4-14.1 0-17.5 4.1-22.1 9.9-28.8 17.3-7.1 7.8-9.5 29-9.5 29 0 9.6 1.3 32.3 13.3 47.2 17.8 22.2 32.1 22.3 32.1 22.3s14.2 0 32.1-22.3c12-14.9 13.3-37.6 13.3-47.2-.1 0-2.5-21.2-9.6-29z" fill="#f4ede9" stroke-width="none" opacity="1" stroke="none"></path><path id="SvgjsPath16770" d="M107.1 32.5c-1.8-.4-12.3-.4-14.1 0-17.5 4.1-22.1 9.9-28.8 17.3-7.1 7.8-9.5 29-9.5 29 0 9.6 1.3 32.3 13.3 47.2 17.8 22.2 32.1 22.3 32.1 22.3s14.2 0 32.1-22.3c12-14.9 13.3-37.6 13.3-47.2 0 0-2.4-21.2-9.5-29-6.9-7.4-11.5-13.2-28.9-17.3zM142 63.8c.7 2.5 1.1 5 1.6 7.5.4 2.5.7 5 1 7.5-.2 7.4-1.3 14.8-3 22-.9 3.6-1.9 7.1-3.3 10.5-.7 1.7-1.4 3.4-2.2 5s-1.7 3.2-2.7 4.7l-1.5 2.2c-.3.4-3.4 4.2-3.4 4.2l-3.7 4.1-6.1 5.7c-2.8 2.3-5.8 4.5-9 6.2l-1.2.6-1.2.6c-.8.4-1.6.7-2.5 1l-1.3.4c-.4.1-.8.2-1.3.3-.4.1-1.71.43-2.9.4 0 0-1.4-.2-1.9-.3-.4-.1-.9-.2-1.3-.3l-1.3-.4c-.8-.3-1.7-.6-2.5-1l-1.2-.5-1.2-.6c-3.2-1.6-6.3-3.7-9.1-6l-4.1-3.6-3.9-3.9-1-1-.9-1-1.8-2.1c-1.2-1.4-2.3-2.8-3.3-4.4-1-1.5-2-3.1-2.8-4.8-.8-1.6-1.6-3.3-2.3-5.1-.7-1.7-1.3-3.5-1.8-5.3s-1-3.6-1.4-5.4-.8-3.6-1-5.5c-.3-1.8-.5-3.7-.7-5.5-.4-3.7-.5-7.4-.5-11.1.3-2.3.8-4.6 1.2-6.9.5-2.3 1.1-4.6 1.7-6.8.7-2.2 1.4-4.5 2.3-6.6.4-1.1.9-2.1 1.4-3.1s2.59-4.47 6.3-8.1c1.6-1.7 3.3-3.3 5-4.7 3.5-2.8 7.7-4.9 12-6.5l1.6-.6c6.69-2.31 10.6-2.2 11.8-2.3 2.3-.1 4.71-.26 7-.1 3.16.22 6.8 1.4 6.8 1.4 2.3.6 4.5 1.3 6.7 2.3.3.1 1.6.7 1.6.7.5.3 2.6 1.3 3.1 1.7.5.3 5.3 3.7 6.9 5.4 1.7 1.7 3.3 3.4 4.9 5.2 1.7 1.9 2.9 4.2 3.9 6.6 1.1 2.4 1.9 4.8 2.5 7.3z" fill="#c69b82" stroke-width="none" opacity="1" stroke="none"></path></g></g><g id="svga-group-mouth-single-move" transform="matrix(1,0,0,1,0,0)"><g id="svga-group-mouth-single" transform="matrix(1,0,0,1,0,0)"><path id="SvgjsPath16443" d="M85.82 119.5s7.36 10.74 14.27 14.57c0 0 8.56-3.83 15.93-14.42 0 0-8.34.75-13-.08 0 0-1.88 1.73-3 2.7 0 0-1.88-1.35-2.78-2.63 0 .01-8.87.16-11.42-.14z" fill="#e0a4a0" stroke-width="none" opacity="1" stroke="none"></path><path id="SvgjsPath16444" d="M85.84 119.51c.5.64 1.03 1.35 1.56 2.01.53.67 1.07 1.33 1.62 1.99 1.09 1.31 2.22 2.6 3.39 3.84 1.18 1.24 2.38 2.44 3.67 3.55 1.28 1.12 2.64 2.15 4.09 3.02l-.16-.01c1.62-.75 3.16-1.71 4.64-2.74 1.46-1.05 2.88-2.17 4.2-3.41 1.31-1.24 2.58-2.53 3.73-3.92.6-.67 1.13-1.4 1.69-2.11.55-.72 1.05-1.46 1.58-2.19l.18.3c-2.17.21-4.34.33-6.52.36-2.18.03-4.36-.01-6.54-.37l.22-.06-3.02 2.7-.15.13-.16-.12c-.53-.39-1.02-.81-1.49-1.25-.47-.45-.93-.92-1.31-1.46l.17.09c-1.91.01-3.81 0-5.72-.03-.95-.02-1.91-.03-2.86-.08-.92-.06-1.91-.1-2.81-.24zm-.04-.02c1 .05 1.91.07 2.87.07l2.85-.01c1.9-.02 3.81-.05 5.71-.11h.1l.07.09c.74.98 1.75 1.8 2.76 2.55l-.31.01 2.99-2.71.09-.08.12.02c1.05.18 2.13.26 3.21.32s2.16.07 3.24.07 2.16-.03 3.25-.08c1.08-.05 2.17-.1 3.24-.18l.43-.03-.25.33c-.55.72-1.07 1.46-1.64 2.17-.58.7-1.13 1.42-1.75 2.08l-.91 1.01-.95.97c-.31.33-.63.65-.96.96-.33.31-.65.63-.99.93-1.34 1.21-2.73 2.38-4.2 3.45-1.46 1.08-2.97 2.08-4.61 2.91l-.08.04-.08-.05c-1.52-.83-2.9-1.89-4.21-3-1.31-1.12-2.5-2.36-3.67-3.62-1.17-1.25-2.26-2.59-3.32-3.93a44.11 44.11 0 0 1-1.54-2.06c-.5-.69-.99-1.35-1.46-2.12z" fill="#d89490" stroke-width="none" opacity="1" stroke="none"></path><path id="SvgjsPath16445" d="M83.63 118.5c1.37.55 2.72 1.14 4.08 1.7l4.06 1.72c1.36.57 2.71 1.15 4.06 1.7 1.36.53 2.73 1.11 4.08 1.5l-.27.01 4.61-1.53 4.61-1.54c1.53-.52 3.07-1.05 4.59-1.6s3.05-1.09 4.49-1.85c-.65.49-1.37.88-2.1 1.26-.73.37-1.46.73-2.2 1.07a93.22 93.22 0 0 1-4.51 1.88c-1.52.59-3.04 1.15-4.57 1.69-1.54.53-3.07 1.07-4.62 1.56l-.15.05-.13-.04c-1.48-.44-2.82-1.01-4.18-1.6-1.35-.59-2.69-1.22-4.02-1.86-1.33-.64-2.64-1.31-3.95-1.99-1.29-.72-2.6-1.4-3.88-2.13z" fill="#d18580" stroke-width="none" opacity="1" stroke="none"></path></g></g><g id="svga-group-eyes-left-move" transform="matrix(1,0,0,1,0,0)"><g id="svga-group-eyes-left" transform="matrix(1,0,0,1,0,0)"><g id="svga-group-eyesback-left"><path id="SvgjsPath16549" d="M80.2 77.2c7.5 0 13.5 5.8 13.5 13s-6 13-13.5 13-13.5-5.8-13.5-13 6-13 13.5-13z" fill="#ffffff" stroke-width="none" opacity="1"></path></g><g id="svga-group-eyesiriswrapper-left" transform="matrix(1,0,0,1,0,0)"><g id="svga-group-eyesiriscontrol-left" transform="matrix(1,0,0,1,0,0)"><g id="svga-group-eyesiris-left" transform="matrix(1,0,0,1,0,0)"><path id="SvgjsPath16507" d="M80.2 84.9c2.9 0 5.3 2.4 5.3 5.3s-2.4 5.3-5.3 5.3-5.3-2.4-5.3-5.3 2.4-5.3 5.3-5.3z" fill="#724f7c" stroke-width="none" opacity="1"></path><path id="SvgjsPath16508" d="M84.7 87.3c.4.6.7 1.2.8 1.9s.2 1.4.1 2.2-.4 1.4-.8 2.1c-.4.6-1 1.1-1.6 1.5s-1.3.6-2.1.7c-.7.1-1.4.1-2.2-.1-1.4-.3-2.7-1.1-3.5-2.3-.4-.6-.7-1.3-.9-2-.2-.7-.2-1.5 0-2.2.1-.7.4-1.4.8-2.1.4-.6 1-1.2 1.6-1.6s1.3-.7 2.1-.8c.7-.1 1.5-.1 2.2.1 1.6.5 2.7 1.4 3.5 2.6zm0 0-.3-.4c-.1-.1-.2-.3-.3-.4-.1-.1-.3-.2-.4-.3-.1-.1-.3-.2-.4-.3-.6-.4-1.2-.6-1.9-.7-1.3-.2-2.7.1-3.8.8-1.1.7-1.9 1.8-2.2 3.1-.3 1.3-.1 2.7.6 3.8.3.6.8 1.1 1.4 1.5s1.2.7 1.9.8c.7.1 1.4.1 2-.1.7-.2 1.3-.4 1.8-.8s1-.8 1.4-1.4.7-1.1.9-1.8c.2-.6.2-1.3.2-2-.3-.5-.6-1.2-.9-1.8z" fill="#52295d" stroke-width="none" opacity="1"></path><path id="SvgjsPath16509" d="M80.2 88.3c1 0 1.9.9 1.9 1.9s-.9 1.9-1.9 1.9-1.9-.9-1.9-1.9.9-1.9 1.9-1.9z" fill="#000000" stroke-width="none" opacity="1"></path><path id="SvgjsPath16510" d="M80.2 92.3c-1.2 0-2.1-.9-2.1-2.1s.9-2.1 2.1-2.1 2.1.9 2.1 2.1-1 2.1-2.1 2.1zm0-3.8c-.9 0-1.7.8-1.7 1.7 0 .9.8 1.7 1.7 1.7.9 0 1.7-.8 1.7-1.7s-.7-1.7-1.7-1.7z" fill="#52295d" stroke-width="none" opacity="1"></path><path id="SvgjsPath16511" d="M77.7 86.2c.4-.2 1.2.3 1.7 1.1.5.9.6 1.8.1 2s-1.2-.3-1.7-1.1c-.4-.8-.5-1.7-.1-2zm3.7 5c.4 0 .6.3.6.6s-.3.6-.6.6-.6-.3-.6-.6.3-.6.6-.6z" fill="#ffffff" stroke-width="none" opacity="1"></path></g></g></g><g id="svga-group-eyesfront-left"><path id="SvgjsPath16557" d="M80.2 76.7c-7.8 0-14.1 6.1-14.1 13.6s6.3 13.6 14.1 13.6 14.1-6.1 14.1-13.6S88 76.7 80.2 76.7zm3.2 20.4c-3.9 1.7-7.2.9-9.8-.2S67 91.4 67 91.4s3.8-3.7 5.9-4.5 10-1.7 12.2 0 4.4 3.8 4.4 3.8c-.5.8-2.2 4.8-6.1 6.4z" fill="#f4ede9" stroke-width="none" opacity="1" stroke="none"></path><path id="SvgjsPath16558" d="M66.8 91.3s4.8-3.6 6-4.3 7.7-1.2 10.7-.4c4.3 1.2 7.1 5.6 7.1 5.6s0-2.4-.7-5.1c-.8-2.7-5.2-6.9-5.2-6.9s-5.5-1.9-8.4-.9-4.7 3.9-6.3 6.2c-1.6 2.2-2.7 3.7-3.2 5.8z" fill="#ecded6" stroke-width="none" opacity="1" stroke="none"></path><path id="SvgjsPath16559" d="M90.6 92.4v-.2c0-1.2-.1-2.3-.3-3.5-.1-.6-.2-1.2-.4-1.7-.2-.6-.4-1.1-.7-1.6-.6-1-1.3-1.9-2.1-2.8s-1.6-1.8-2.4-2.6h-.1c-1-.3-2-.6-3.1-.8s-2.1-.4-3.2-.4c-.5 0-1.1 0-1.6.1-.6.1-1.1.3-1.6.6-1 .5-1.8 1.2-2.5 2s-1.4 1.7-1.9 2.5c-.6.9-1.2 1.8-1.8 2.6-1.1 1.8-2.1 2.6-2.6 4.7l.4.3c1.5 1.8 3.2 3.4 5.1 4.8.5.3 1 .7 1.6.9.5.2 1.1.4 1.7.6 1.1.3 2.3.5 3.5.6 2.4 0 4.8-.7 6.7-2.2.9-.7 1.7-1.6 2.4-2.6.7-.9 1.1-1.7 1.6-2.7.1.1 1.1 1.2 1.1 1.3l.2.1zm-1.1-1.5c-.1-.1-.1-.1-.1 0-.3.4-.5.8-.8 1.3-.3.5-.7.9-1 1.4-.7.9-1.5 1.7-2.5 2.4-.9.7-2 1.1-3.1 1.4-1.1.3-2.2.5-3.4.5-1.1 0-2.3-.2-3.4-.5-.6-.2-1.1-.3-1.6-.6-.5-.2-1-.5-1.5-.8-.9-.7-1.8-1.4-2.7-2.2-.8-.8-1.6-1.6-2.3-2.4l-.4-.3c.1-.5.3-1 .5-1.4.1-.1.1-.2.2-.4.5-.9 1.1-1.8 1.7-2.6 1.2-1.7 2.4-3.5 3.8-5 .7-.7 1.5-1.4 2.4-1.9.4-.2.9-.4 1.4-.5.5-.1 1-.1 1.5-.1 2 .1 4.1.5 6.1 1.1.8.8 1.6 1.6 2.3 2.4.8.9 1.5 1.8 2.1 2.7.3.5.6 1 .7 1.5.2.6.3 1.1.4 1.7.2 1.1.3 2.1.4 3.2.2.1-.7-.9-.7-.9z" fill="#782c76" stroke-width="none" opacity="1" stroke="none"></path><path id="SvgjsPath16560" d="M90.7 92.5s-1.5-4.2-3.9-5.8c-1.8-1.2-7.3-2.6-11.4-2s-8.5 3.7-9.6 4.1-2.9 1-4.6.1c0 0 2.7 2.6 5.1 3.2 0 0 3.9-3.1 7-4.3s6.7-1.6 9.7-.9c2.9.8 4.1 1.5 7.7 5.6z" fill="#782c76" stroke-width="none" opacity="1" stroke="none"></path></g></g></g><g id="svga-group-eyes-right-move" transform="matrix(1,0,0,1,0,0)"><g id="svga-group-eyes-right" transform="matrix(1,0,0,1,0,0)"><g id="svga-group-eyesback-right"><path id="SvgjsPath16550" d="M119.8 77.2c7.5 0 13.5 5.8 13.5 13s-6 13-13.5 13-13.5-5.8-13.5-13 6-13 13.5-13z" fill="#ffffff" stroke-width="none" opacity="1"></path></g><g id="svga-group-eyesiriswrapper-right" transform="matrix(1,0,0,1,0,0)"><g id="svga-group-eyesiriscontrol-right" transform="matrix(1,0,0,1,0,0)"><g id="svga-group-eyesiris-right" transform="matrix(1,0,0,1,0,0)"><path id="SvgjsPath16512" d="M119.8 85.5c2.6 0 4.7 2.1 4.7 4.7s-2.1 4.7-4.7 4.7-4.7-2.1-4.7-4.7 2.1-4.7 4.7-4.7z" fill="#724f7c" stroke-width="none" opacity="1"></path><path id="SvgjsPath16513" d="M123.8 87.7c.3.5.6 1.1.7 1.7s.2 1.2.1 1.9c-.1.6-.3 1.2-.7 1.8s-.8 1-1.4 1.3-1.2.5-1.8.6-1.3.1-1.9-.1c-1.2-.3-2.3-1-3.1-2-.4-.5-.6-1.1-.8-1.7s-.1-1.3 0-1.9.4-1.2.7-1.8.8-1 1.4-1.4c.6-.3 1.2-.6 1.8-.7.6-.1 1.3-.1 1.9.1 1.4.3 2.4 1.1 3.1 2.2zm-.1 0-.3-.4-.3-.3-.3-.3c-.1-.1-.2-.2-.4-.3-.5-.3-1.1-.5-1.7-.6-1.2-.2-2.3.1-3.3.7-.9.6-1.7 1.6-1.9 2.7-.3 1.1-.1 2.3.5 3.4.3.5.7 1 1.2 1.3s1.1.6 1.6.7c.6.1 1.2.1 1.8-.1.6-.1 1.1-.4 1.6-.7s.9-.7 1.2-1.2.6-1 .8-1.6c.2-.6.2-1.2.1-1.8-.1-.4-.3-1-.6-1.5z" fill="#52295d" stroke-width="none" opacity="1"></path><path id="SvgjsPath16514" d="M119.8 88.5c.9 0 1.7.8 1.7 1.7s-.8 1.7-1.7 1.7-1.7-.8-1.7-1.7.8-1.7 1.7-1.7z" fill="#000000" stroke-width="none" opacity="1"></path><path id="SvgjsPath16515" d="M119.8 92.1c-1 0-1.8-.8-1.8-1.8s.8-1.8 1.8-1.8 1.8.8 1.8 1.8-.8 1.8-1.8 1.8zm0-3.4c-.8 0-1.5.7-1.5 1.5s.7 1.5 1.5 1.5 1.5-.7 1.5-1.5-.7-1.5-1.5-1.5z" fill="#52295d" stroke-width="none" opacity="1"></path><path id="SvgjsPath16516" d="M117.6 86.7c.4-.2 1 .2 1.5 1 .4.8.5 1.5.1 1.8-.4.2-1-.2-1.5-1-.4-.8-.4-1.6-.1-1.8zm3.3 4.4c.3 0 .6.3.6.6s-.3.6-.6.6-.6-.3-.6-.6.3-.6.6-.6z" fill="#ffffff" stroke-width="none" opacity="1"></path></g></g></g><g id="svga-group-eyesfront-right"><path id="SvgjsPath16561" d="M119.8 76.7c-7.8 0-14.1 6.1-14.1 13.6s6.3 13.6 14.1 13.6 14.1-6.1 14.1-13.6-6.3-13.6-14.1-13.6zm6.9 21c-2.6 1.2-7 1.3-10.9-.4s-5.4-5.8-6-6.7c0 0 1.8-1.8 4.1-3.5 2.2-1.8 10.3-1.1 12.4-.2 2.1.9 5.9 4.3 5.9 4.3s-2.9 5.3-5.5 6.5z" fill="#f4ede9" stroke-width="none" opacity="1" stroke="none"></path><path id="SvgjsPath16564" d="M132.1 91s-2.1-1.7-6.3-3c-1.3-.4-7.2-1.4-10.2-.8-3 .6-7 4.8-7 4.8s0-2 .7-4.3c.8-2.2 5.2-5.7 5.2-5.7s4.8-.8 7.6 0 5.5 2.5 7 4.3c1.7 1.9 2.5 3 3 4.7z" fill="#ecded6" stroke-width="none" opacity="1" stroke="none"></path><path id="SvgjsPath16565" d="M131.6 89.4c-.5-.8-1-1.6-1.6-2.4-.3-.4-.6-.8-.9-1.1-.3-.4-.7-.7-1.1-1-.7-.6-1.5-1.2-2.4-1.7-.8-.5-1.7-.9-2.6-1.2-.9-.3-1.9-.5-2.8-.6-1.9-.1-3.8 0-5.7.3h-.2c-.8.6-1.5 1.3-2.2 2s-1.4 1.4-2 2.3c-.3.4-.6.8-.8 1.3-.2.5-.3 1-.4 1.5-.2 1-.3 2.1-.3 3.1v.2l.2-.1c.4-.4.8-.8 1.2-1.1.5.9.9 1.9 1.5 2.7.7 1 1.5 2 2.5 2.7 1 .8 2.1 1.3 3.3 1.7 1.2.4 2.4.6 3.6.7s2.4.1 3.6-.2c.6-.1 1.2-.3 1.8-.5.3-.1.6-.2.9-.4.3-.2.5-.3.8-.5 1-.8 1.8-1.8 2.5-2.8.7-1 1.3-2 1.9-3-.2.1-.2-.9-.8-1.9zm-1.6 4.7c-.7 1-1.5 1.9-2.4 2.7-.9.8-2.1 1-3.2 1.3-1.2.2-2.3.2-3.5.2-1.2-.1-2.3-.3-3.5-.6-1.1-.3-2.2-.8-3.2-1.5-1.8-1.3-3.2-3.4-4.3-5.4-.3.3-.7.6-1.1.9v-.2c0-1 .2-1.5.4-2.5.1-.5.3-1 .5-1.4.2-.4.5-.8.8-1.2.6-.8 1.3-1.5 2.1-2.2.7-.7 1.4-1.3 2.2-1.9 1.8-.2 3.7-.3 5.5-.2.9.1 1.8.2 2.7.5.9.3 1.7.7 2.6 1.1s1.6 1 2.3 1.6c.4.3.7.6 1 1 .3.3.6.7.9 1.1.5.6 2.2 4 2.2 4-.6.8-1.3 1.8-2 2.7z" fill="#782c76" stroke-width="none" opacity="1" stroke="none"></path><path id="SvgjsPath16566" d="M108.2 92.6s4.6-4.2 6.9-4.9c2.3-.7 8.4 0 10.4.6 1.9.6 6.8 3.4 7.5 3.8s3.6-1.8 4.2-2.6c0 0-2.2.8-5-.5-1-.4-6.1-3.2-8.9-3.3-2.9-.1-7.8 0-9.2.8-3.5 1.7-5.9 6.1-5.9 6.1z" fill="#782c76" stroke-width="none" opacity="1" stroke="none"></path></g></g></g><g id="svga-group-facehighlight-single"></g><g id="svga-group-eyebrows-left-move" transform="matrix(1,0,0,1,0,0)"><g id="svga-group-eyebrows-left-rotate" transform="matrix(1,0,0,1,0,0)"><g id="svga-group-eyebrows-left" transform="matrix(1,0,0,1,0,0)"><path id="SvgjsPath16609" d="M79.91 77.16c2.89-.09 7.72.79 8.3-.29.58-1.08-1.52-5.77-8.01-6.28-6.49-.51-10.39 6.13-9.16 6.57 1.23.43 6.56.07 8.87 0z" fill="#caa478" stroke-width="none" opacity="1"></path><path id="SvgjsPath16610" d="M74.78 77.6c-.86.07-1.72.12-2.6.09-.22-.01-.44-.02-.67-.05-.12-.02-.22-.02-.35-.06l-.19-.05a.65.65 0 0 1-.28-.14c-.2-.17-.25-.39-.27-.55-.02-.16 0-.3.02-.43.05-.26.13-.48.22-.7.18-.43.42-.82.68-1.19.26-.37.54-.71.85-1.03.62-.64 1.3-1.21 2.05-1.69 1.49-.96 3.27-1.49 5.03-1.46.88.01 1.74.16 2.59.34.85.19 1.67.47 2.46.82.79.37 1.54.81 2.22 1.38.67.57 1.27 1.25 1.69 2.06.2.41.37.84.41 1.35.01.25.01.54-.21.84-.05.07-.11.12-.18.18-.06.04-.13.09-.19.11-.12.06-.25.1-.36.14-.47.13-.92.14-1.36.13-.44 0-.87-.04-1.3-.08-1.72-.17-3.41-.48-5.13-.43-1.71.07-3.41.28-5.13.42zm6.42-.49 1.29.02c.86.02 1.72.02 2.57.01.43-.01.85-.02 1.27-.05.21-.01.42-.03.62-.06.2-.02.4-.06.57-.11.17-.05.33-.14.37-.2.04-.05.08-.21.07-.39-.02-.35-.14-.75-.3-1.11-.32-.74-.81-1.43-1.4-2.02-.3-.3-.62-.57-.95-.82-.34-.24-.71-.46-1.08-.65-1.52-.75-3.26-1.04-4.93-.97-1.68.11-3.28.71-4.64 1.64a9.63 9.63 0 0 0-1.86 1.63c-.54.61-1.05 1.29-1.37 2-.08.18-.15.36-.18.52-.02.08-.02.16-.02.21 0 .05.02.05-.01.02-.08-.04.06.01.13.03.08.03.19.03.28.05.19.03.4.05.61.07.83.07 1.69.1 2.54.14 1.71.07 3.43.08 5.15.02.41.01.84.02 1.27.02z" fill="#bb8f5c" stroke-width="none" opacity="1"></path></g></g></g><g id="svga-group-eyebrows-right-move" transform="matrix(1,0,0,1,0,0)"><g id="svga-group-eyebrows-right-rotate" transform="matrix(1,0,0,1,0,0)"><g id="svga-group-eyebrows-right" transform="matrix(1,0,0,1,0,0)"><path id="SvgjsPath16611" d="M119.79 77.79c-2.89-.09-7.72.79-8.3-.29-.58-1.08 1.52-5.77 8.01-6.28 6.49-.51 10.39 6.13 9.16 6.57s-6.56.07-8.87 0z" fill="#caa478" stroke-width="none" opacity="1"></path><path id="SvgjsPath16612" d="M119.79 77.83c-1.72-.05-3.41.27-5.13.43-.43.04-.86.08-1.3.08-.44 0-.89-.01-1.36-.13a1.34 1.34 0 0 1-.36-.14c-.06-.03-.13-.08-.19-.11-.06-.05-.12-.1-.18-.18-.22-.3-.21-.6-.21-.84.03-.5.21-.94.41-1.35.42-.81 1.02-1.49 1.69-2.06.68-.57 1.43-1.02 2.22-1.38.79-.36 1.62-.64 2.46-.82.85-.18 1.7-.33 2.59-.34 1.76-.04 3.54.5 5.03 1.46.75.48 1.44 1.04 2.05 1.69.31.32.59.67.85 1.04s.5.76.68 1.19c.09.22.17.44.22.7.02.13.04.27.02.43-.02.16-.07.38-.27.55a.65.65 0 0 1-.28.14l-.19.05c-.13.04-.23.04-.35.06-.23.03-.45.04-.67.05-.88.03-1.74-.02-2.6-.09-1.71-.16-3.42-.37-5.13-.43zm0-.08c1.71.06 3.43.05 5.15-.02.85-.04 1.71-.07 2.54-.14.21-.02.41-.04.61-.07.09-.02.2-.03.28-.05.07-.02.21-.07.13-.03-.03.03-.02.03-.01-.02 0-.05 0-.13-.02-.21a2.3 2.3 0 0 0-.18-.52c-.32-.72-.82-1.39-1.37-2-.55-.61-1.18-1.16-1.86-1.63-1.37-.93-2.97-1.53-4.64-1.64-1.67-.07-3.41.22-4.93.97-.38.19-.74.41-1.08.65-.34.25-.66.52-.95.82-.59.59-1.08 1.28-1.4 2.02-.16.37-.28.76-.3 1.11-.01.17.03.34.07.39.04.06.2.15.37.2.17.05.37.09.57.11.2.03.41.05.62.06.42.02.84.04 1.27.05.85.01 1.71 0 2.57-.01l1.29-.02c.41-.03.84-.03 1.27-.02z" fill="#bb8f5c" stroke-width="none" opacity="1"></path></g></g></g><g id="svga-group-nose-single-move" transform="matrix(1,0,0,1,0,0)"><g id="svga-group-nose-single" transform="matrix(1,0,0,1,0,0)"><path id="SvgjsPath16599" d="M109.52 109.12c-.37-.88-.94-1.63-1.59-2.29.5.77.95 1.58 1.22 2.42.13.42.21.86.14 1.25-.04.2-.1.36-.23.53-.12.17-.25.34-.41.47-.61.58-1.49.8-2.35.68-.43-.05-.87-.17-1.28-.35-.39-.14-.76-.35-1.13-.54.33-.49.63-1.01.89-1.55-.86.8-1.66 1.61-2.52 2.32-.43.35-.86.7-1.32.96-.45.27-.94.48-1.33.46-.1.01-.18-.02-.27-.03-.08-.05-.15-.05-.26-.14-.21-.13-.43-.31-.65-.48-.44-.34-.87-.72-1.31-1.08-.87-.74-1.75-1.48-2.69-2.17.44.7.95 1.34 1.47 1.97-.44.2-.89.36-1.34.46-.56.11-1.15.13-1.62-.09-.95-.47-1.51-1.61-1.35-2.58.04-.25.12-.44.26-.65.15-.23.32-.46.49-.69.35-.45.72-.9 1.11-1.33l.58-.65c.23-.25.4-.49.58-.74.36-.5.68-1.03.94-1.61.26-.57.42-1.23.52-1.81.1-.59.2-1.18.26-1.77.13-1.18.24-2.36.27-3.55.08-2.37.02-4.76-.45-7.08.05 2.36-.12 4.7-.35 7.03-.13 1.16-.26 2.33-.44 3.48-.09.58-.18 1.15-.28 1.72-.11.58-.23 1.07-.47 1.57-.22.5-.5.99-.82 1.45-.16.23-.33.47-.5.65-.2.23-.39.45-.58.68-.38.46-.74.94-1.09 1.43-.17.25-.35.5-.5.77-.18.29-.3.67-.32 1-.11 1.38.74 2.67 1.98 3.12.64.2 1.29.1 1.86-.1.47-.16.9-.4 1.31-.67.21.25.41.5.63.74.39.44.8.84 1.24 1.25.22.2.45.39.72.57.11.09.32.19.5.27.19.05.39.1.58.1.77 0 1.36-.33 1.88-.66.51-.36.96-.75 1.36-1.2.39-.42.74-.87 1.06-1.34.66.58 1.44 1.09 2.36 1.27.47.1.98.11 1.46 0 .48-.12.94-.36 1.31-.7.19-.17.34-.37.48-.57.15-.2.26-.48.28-.73.03-.54-.1-1.03-.29-1.47z" fill="#c69b82" stroke-width="none" opacity="1" stroke="none"></path></g></g><g id="svga-group-hair-front" transform="matrix(1,0,0,1,0,0)"><path id="SvgjsPath16734" d="m125.2 36.6-2.9-3.2s-7.5-5.8-12.1-5.3-37.8-.5-42.2 4.4c-4.4 4.8-21.3 26.4-21.1 32.2.2 5.8 1.7 16.2 2.2 18.4s6.1 1.4 6.3 2.9c.2 1.4.7 7 .7 10.2s-4.8 4.8-5.3 6.1 2.7 13.1 3.2 16c.5 2.9 6.8 2.7 6.8 5.6 0 2.9-4.1 2.9-4.1 2.9l3.2 8s0-3.1.5-4.6 6.3-.7 6.1-3.2c-.2-2.4.5-6.3 0-9.2-.5-2.9-5.8-1.9-7.3-2.2s-.7-6.8.2-9.7c1-2.9 6.8-5.3 6.8-5.3s1.7-8.7 1.4-10.2c-.2-1.4-8.2-10.2-7.8-12.1.5-1.9 6.5-15.5 9-15.8 2.4-.2 37.3-2.4 42.4-5.3 5.1-2.9 12.8-14.3 12.8-14.3l1.2-6.3m-.5 0 7.5.8s6.8 5.8 8 8.2c1.2 2.4 8.7 15.5 8.7 19.6 0 4.1-1 17.5-1 17.5s-2.4 12.6-2.7 13.8-5.6 7.3-5.6 9.7 1.9 9.4 1.9 9.4l-4.6-5.3s-.7-5.8-.7-7.8 3.1-6.3 3.9-6.5.5-16 .5-16-8.2-12.6-10.2-16.2-6.3-14.1-6.3-14.1l-.9-6.6 1.5-6.5zM82.9 143.8s-8.7-.7-11.1-.2c-2.4.5-6.4 2.8-6.4 2.8-1.5-2.6-5.4-6.5-6.8-7.4-1.5-.9-2.5-.3-2.5-.3s-5.2 10.3-5.2 11.1 2.3 8.4 2.3 8.4l-5.8 7.4 3.3 6.2c-1.5 1.8-4 5-4.2 5.3-.4.4 1.3 10.7 2.3 12.6.9 1.9 12.8 9.3 12.8 9.3l.8 5.4s2.1-5.2 2.1-6.9-1.1-4.8-1.1-4.8 3.4 4.7 3.6 5.5c.2.9-.9 11.1-.9 11.1l3.2 4.1s-1.1-3.5-.6-5.5 9-19.6 9-19.6-3.2-13.1-7.2-15.9l-3.9-1.4c2-1.1 3.8-2.2 4.5-2.9 1.7-1.6 4.3-7.4 4.3-7.4 3.9-1.6 7.1-6.3 7.1-6.3 1.6-3.3.4-10.6.4-10.6z" fill="#caa478" stroke-width="none" opacity="1" stroke="none"></path><path id="SvgjsPath16735" d="M109.6 47.9c-.9.7-1.8 1.3-2.7 1.9-.5.3-.9.4-1.5.5-.6.1-1.1.2-1.7.3-2.2.3-4.5.5-6.7.8-9 .9-17.9 1.9-26.9 2.9-1.1.1-2.2.3-3.4.4-.3 0-.6.1-.9.2-.3.1-.5.3-.7.6-.4.4-.7.9-1.1 1.3-1.3 1.9-2.4 3.8-3.6 5.8-2.3 3.9-4.5 7.8-6.5 11.9l-.8 1.5c-.1.3-.2.5-.4.9v.4c0 .1 0 .2.1.3.1.2.1.3.2.4.6 1.1 1.3 1.9 2 2.8 1.4 1.8 2.9 3.4 4.4 5.2.7.9 1.4 1.7 2.1 2.6.3.4.7.9.9 1.4.3.4.5.9.6 1.3.3 2 .1 4.2-.3 6.3-1.8.9-3.5 1.8-5.2 2.8-.9.5-1.8 1.1-2.6 1.8-.4.3-.8.7-1.2 1.2-.2.2-.4.5-.4 1l.1.8c.7 4.1 1.3 8.1 2.1 12.2v.2l.2.1c1.7.6 3.4 1.2 5.1 1.9l1.2.6c.1.1.2.1.2.2s.1.2.1.3c.1.2.1.4.2.7.2.9.2 1.8.3 2.7h.1c0-.9-.1-1.8-.2-2.7 0-.2-.1-.4-.1-.7 0-.1-.1-.2-.1-.3l-.3-.3c-.4-.3-.8-.5-1.2-.7-1.6-.8-3.2-1.4-4.9-2-.5-4-1.1-8-1.7-12l-.1-.8.2-.4 1-1c.8-.6 1.7-1.1 2.5-1.7 1.8-1 3.6-2 5.4-2.9l.2-.1v-.2c.4-2.3.7-4.6.4-6.9-.2-.7-.5-1.2-.8-1.7-.3-.5-.7-1-1-1.4-.7-.9-1.4-1.8-2.2-2.6-1.5-1.7-3-3.4-4.4-5.1-.7-.9-1.4-1.7-2-2.6-.1-.2-.2-.5-.2-.5 0-.1.2-.5.3-.7l.7-1.5c2-4 4-8.1 6.2-12 1.1-2 2.2-3.9 3.5-5.8.3-.5.7-.9 1-1.3.2-.2.4-.4.6-.5.3 0 .5-.1.8-.2 1.1-.2 2.2-.3 3.3-.4 9-.9 18-1.3 26.9-2.3 2.2-.3 4.5-.5 6.7-.8.6-.1 1.1-.2 1.7-.3.6-.1 1.2-.3 1.7-.6 1-.6 1.9-1.3 2.8-2 3.5-2.8 6.9-5.8 10.2-8.9l-.1-.1c-3.1 2.2-6.6 5.1-10.1 7.8zm40 15.7c-.5-2.2-1.4-4.1-2.3-6.1-1.8-3.9-3.9-7.6-5.9-11.2-.3-.5-.5-.9-.8-1.4-.3-.5-.7-.9-1-1.3-.7-.8-1.5-1.6-2.3-2.3-1.6-1.5-3.1-2.9-4.8-4.2l-.1-.1h-.1l-7-.4-2.8-3.2c-1.4-1.1-2.9-2.1-4.4-3-1.6-.9-3.2-1.7-4.9-2.2-.9-.2-1.8-.4-2.8-.4-.9.1-1.8.1-2.6.1h-5.3c-7.1 0-14.2 0-21.4.7-1.8.2-3.6.4-5.3.6-1.8.3-3.6.6-5.3 1.2-.9.3-1.8.7-2.6 1.4l-.5.5-.4.5-.9 1c-1.2 1.4-2.3 2.8-3.4 4.2-4.7 5.6-9 11.3-12.7 17.5-.9 1.5-1.8 3.1-2.5 4.8-.4.8-.7 1.7-1 2.6-.1.5-.2.9-.3 1.4v1.4c.3 3.6.7 7.1 1.2 10.6.3 1.8.5 3.5.8 5.3.1.4.2.9.3 1.3 0 .1 0 .2.1.3 0 .1.1.3.2.4.2.2.3.5.6.6.9.6 1.8.7 2.7.9.9.2 1.8.3 2.5.6l.2.1c0 .1.1.1.1.1s.1.3.1.5l.2 1.3c.2 1.8.3 3.5.4 5.3 0 .9.1 1.8.1 2.7 0 .9-.2 1.6-.7 2.3-1 1.4-2.6 2.2-4 3.3-.2.2-.4.3-.5.6-.1.1-.1.3-.1.4v.4c0 .5.1.9.1 1.4.1.9.3 1.8.5 2.6.3 1.8.8 3.5 1.1 5.2.4 1.7.8 3.5 1.1 5.2.1.4.1.8.3 1.3l.1.4.2.3c.1.2.3.4.5.6.8.7 1.6 1 2.4 1.4.8.3 1.7.7 2.3 1.1.4.2.6.5.8.7.2.3.2.6.2.9-.1 1.5-2 2.1-3.6 2.1h-.8l.4 1.1 3 8 1.3 3.3.1-3.6c0-1 .1-2 .2-2.9.1-.5.2-.9.3-1.4v-.1s.1 0 .1-.1l.2-.1.3-.1c.9-.2 1.9-.4 2.9-.6.5-.1 1.1-.3 1.7-.7.1-.1.3-.2.4-.4.1-.1.3-.3.3-.5.1-.2.2-.4.2-.6v-.5c-.1-1.8.2-3.9.2-5.9 0-1 0-2.1-.1-3.2-.1-.6-.4-1.4-1-1.8-.5-.4-1.1-.7-1.7-.8-1.1-.3-2.2-.3-3.2-.3h-1.9c-.1-.3-.2-.7-.2-1.2v-1.4c0-1 .2-1.9.3-2.9s.4-1.9.6-2.8c.2-.8.8-1.4 1.4-2 1.4-1.2 3.2-2.2 4.9-2.9l.5-.2.1-.5c.4-2.2.8-4.3 1.2-6.5.2-1.1.3-2.2.4-3.4v-.6c0-.1-.1-.3-.1-.4l-.1-.3c-.2-.3-.3-.6-.5-.8-.3-.5-.7-.9-1-1.4-1.3-1.8-2.7-3.5-4-5.2-.6-.9-1.2-1.8-1.7-2.6l-.3-.6c-.1-.2-.1-.4-.1-.3 0 0 0 .1 0 0v-.2l.1-.3.3-.7c.8-2 1.7-4 2.7-5.9 1-1.9 2-3.9 3.1-5.6.3-.4.6-.9.9-1.2.3-.4.7-.8.9-.9.1 0 0 0 0 0h.4l.8-.1 1.6-.1 6.6-.6c4.4-.4 8.8-.8 13.1-1.3 4.4-.5 8.7-1 13.1-1.8 2.2-.4 4.3-.8 6.5-1.7 1.1-.5 1.9-1.2 2.8-2 .8-.8 1.6-1.5 2.4-2.4 2.6-2.8 4.8-5.9 7-9 .2 1.7.3 3.5.5 5.2v.2c1.1 2.7 2.1 5.4 3.2 8 1.2 2.6 2.2 5.3 3.7 7.9 1.4 2.5 2.9 5 4.5 7.4 1.5 2.3 3 4.7 4.5 7l.1 7.6v3.9c0 .7 0 1.3-.1 1.9l-.1.9c0 .2-.1.5-.1.6-.2.2-.3.3-.5.4-.3.3-.5.6-.7.8-.4.6-.8 1.1-1.2 1.7s-.7 1.2-1 1.8c-.3.7-.6 1.3-.6 2.2 0 .8.1 1.4.1 2.1l.2 2c.2 1.3.3 2.6.5 3.9v.2l.1.2 4.7 5.2 1.8 2-.8-2.6c-.8-2.8-1.6-5.6-2.1-8.4 0-.3-.1-.7-.1-1 0-.3.1-.6.2-.9.2-.7.6-1.3.9-1.9.7-1.2 1.6-2.4 2.4-3.6l1.2-1.8c.2-.3.4-.6.6-1 .1-.4.1-.7.2-1.1l.9-4.3c.6-2.9 1.2-5.7 1.8-8.6.4-4.2.8-8.4 1.1-12.6l.2-3.2c0-.5.1-1.1.1-1.6.6-.7.5-1.3.4-1.8zM123 43v.1c0 .2.1.5.1.7-2.4 3.2-4.9 6.3-7.6 9.1-.8.8-1.5 1.5-2.4 2.2-.8.7-1.7 1.4-2.6 1.8-1.9.8-4.1 1.1-6.2 1.4-8.6 1.2-17.4 2-26.1 2.6l-6.6.5-1.6.1-.8.1h-.4c-.2 0-.6.1-.7.2-.8.4-1.1.9-1.5 1.4-.4.5-.7.9-1 1.4-1.3 1.9-2.3 3.9-3.3 5.8-1 2-1.9 4-2.8 6.1l-.5.8-.2.4v.3c0 .1 0 .2-.1.4 0 .6.1.9.2 1.3.1.3.3.6.4.9.6 1.1 1.2 2 1.8 2.9 1.3 1.8 2.7 3.5 4 5.3.3.4.6.9.9 1.3.1.2.3.4.4.6V91c0 .9-.2 2.1-.3 3.1-.3 2-.6 4-1 5.9-1.7.8-3.4 1.8-4.9 3.1l-1.2 1.2c-.2.2-.3.5-.5.8-.1.3-.3.6-.3.9-.3 1-.5 2.1-.7 3.1-.2 1-.3 2.1-.3 3.1v1.6c0 .6.1 1.1.3 1.8l.3.6c.2.2.4.4.8.5.5.1.7.1 1 .1h1.5c1 0 1.9 0 2.8.2.4.1.8.3 1 .5.2.2.3.4.4.8.2.9.2 1.9.2 2.8 0 2-.3 3.9-.1 6.1V127.5s0 .1-.1.1c0 0-.1.1-.2.1-.2.2-.7.3-1.1.5-.9.2-1.9.4-3 .7l-.4.1-.5.2c-.2.1-.3.2-.5.4s-.3.5-.3.6c-.2.5-.2 1-.3 1.5l-1.8-4.3c.7-.1 1.3-.3 2-.6.9-.4 1.8-1.4 1.8-2.5.1-.5-.1-1.1-.4-1.6-.3-.4-.7-.8-1.2-1-.8-.5-1.7-.8-2.5-1.1s-1.6-.7-2.2-1.2l-.4-.4-.2-.2-.1-.2c-.1-.3-.2-.9-.3-1.3l-1.2-5.2c-.4-1.7-.8-3.5-1.2-5.2-.2-.9-.4-1.7-.5-2.6-.1-.4-.1-.9-.1-1.3v-.3c0-.1 0-.2.1-.2.1-.1.2-.3.4-.4 1.3-1.1 3-1.9 4.1-3.5.3-.4.5-.8.6-1.3.2-.5.2-1 .2-1.4 0-.9 0-1.8-.1-2.7-.1-1.8-.2-3.6-.4-5.3l-.2-1.3c0-.2 0-.4-.2-.8l-.3-.3-.3-.2c-.9-.4-1.8-.4-2.7-.6-.8-.2-1.8-.3-2.3-.8-.2-.1-.2-.2-.3-.4 0-.1 0-.1-.1-.2 0-.1 0-.2-.1-.3-.1-.4-.2-.9-.2-1.3-.3-1.8-.5-3.5-.7-5.3-.4-3.5-.8-7.1-.9-10.6-.1-.9 0-1.6.2-2.4.2-.8.6-1.6 1-2.4.8-1.6 1.6-3.1 2.6-4.6 3.8-6 8-11.7 12.4-17.2 1.1-1.4 2.2-2.8 3.3-4.1l.8-1 .4-.5c.1-.2.3-.3.4-.4.5-.4 1.2-.8 2-1.1 1.6-.6 3.3-.9 5-1.2 1.7-.3 3.5-.5 5.2-.7 7-.6 14.2-.9 21.2-1.1l5.3-.1c.9 0 1.8-.1 2.7-.2.8-.1 1.7.1 2.5.2 3.3.9 6.4 2.8 9.3 4.8l2.5 2.9L123 43zm25 23.9-.1 3.1c-.1 4.2-.3 8.4-.5 12.6-.5 2.9-1 5.7-1.5 8.6l-.8 4.3c-.1.3-.1.8-.2 1s-.3.6-.5.9l-1.2 1.8c-.9 1.2-1.7 2.4-2.5 3.6-.4.6-.8 1.3-1.1 2-.1.4-.3.7-.3 1.2-.1.4 0 .8 0 1.2.2 2.1.6 4.1 1.1 6l-2.6-3.2c-.1-1.2-.2-2.5-.4-3.7l-.1-1.9c0-.6-.1-1.3-.1-1.9 0-.4.2-1 .5-1.5.3-.6.6-1.1.9-1.6.3-.5.7-1 1.1-1.5.2-.2.4-.5.6-.7l.2-.2c.1-.1-.1.1 0 0s.3-.2.4-.3c.1-.1.1-.2.1-.2v-.1c0-.1.1-.2.1-.3.1-.5.1-.8.2-1.2l.1-1c.1-.7.1-1.3.1-2 .1-1.3.1-2.7.1-4 .1-2.6 0-5.3 0-7.9v-.3l-.2-.3-4.7-7.2c-1.6-2.4-3.1-4.8-4.6-7.3-1.5-2.4-2.7-5-3.9-7.6l-3.6-7.8c-.3-2-.6-4-1-5.9.1-.2.3-.4.4-.6l1.1-6.2 6.8 1c1.5 1.4 3 2.8 4.4 4.3.7.8 1.4 1.5 2.1 2.3l.9 1.2c.2.3.5.9.7 1.4 1.9 3.8 3.9 7.5 5.6 11.3.8 1.9 1.7 3.8 2.1 5.7.1.5.2.9.2 1.4l.1 1.5zM75.5 179.5c-.6-1.4-1.2-2.7-1.9-4.1-.7-1.3-1.6-2.6-2.9-3.6h-.2l-5.3-1.8H65c-4.5.1-9 .2-13.4.4l13.3.4 5.1 2c1 .8 1.8 2.1 2.4 3.3.7 1.3 1.2 2.6 1.7 4 1 2.6 1.8 5.4 2.4 8.1-2 4-3.9 8-5.8 12-1 2.1-1.9 4.1-2.8 6.2-.2.5-.5 1.1-.6 1.8-.1.5-.1.9-.1 1.4l-.5-.6c.3-2.8.6-5.6.8-8.4l.1-1.1V198.2c0-.1-.1-.3-.2-.5l-.2-.3c-.1-.2-.2-.4-.3-.5-.2-.3-.4-.7-.6-1-.8-1.3-1.7-2.5-2.6-3.7l-4-5.5 2.3 6.4c.3.9.6 1.9.8 2.8.1.5.2.9.2 1.4v.6c0 .2-.1.4-.1.7-.2.8-.4 1.6-.7 2.5l-.3-1.9-.1-.4-.3-.2c-2.6-1.6-5.2-3.3-7.8-5-1.3-.9-2.5-1.8-3.7-2.7-.3-.2-.6-.5-.8-.7-.2-.1-.2-.2-.3-.4-.1-.1-.2-.2-.2-.4-.3-.7-.5-1.4-.6-2.2-.7-3-1.4-6-1.7-9.1v-.7l.2-.2.7-.9 1.4-1.9 2.8-3.8-3 3.6L47 176l-.8.9-.2.2c0 .1-.1.1-.1.2v.9c.2 3.1.7 6.2 1.3 9.3.2.8.3 1.5.6 2.3.1.4.5.9.7 1.2l.9.9c1.2 1.1 2.5 2 3.7 2.9 2.4 1.8 4.9 3.4 7.4 5.1l.7 5 .4 3.3 1.2-3.1c.4-1 .8-1.9 1.1-2.9.3-1 .7-2 .9-3 .1-.3.1-.6.2-.8v-.6c.1.1.2.3.2.4.1.1.2.3.2.4l.1.2v.9l-.1 1.1c-.2 2.9-.6 5.9-.9 8.8v.4l.2.3 3.2 4.1 3.3 4.3L70 213c-.3-1-.6-2.1-.7-3.1-.1-.5-.1-1 0-1.5.1-.4.2-.9.4-1.4.8-2 1.8-4.1 2.7-6.2l5.7-12.3.1-.3-.1-.3c-.6-2.8-1.5-5.6-2.6-8.4zm-13.9-36.2c.2.3.3.8.4 1.2l.4 1.3c.5 1.8 1 3.6 1.6 5.3-.2-1.9-.5-3.7-.9-5.5l-.3-1.4-.1-.7c0-.2-.1-.5-.2-.8-.5-.9-1.1-1.6-1.7-2.4-2.5-2.8-5.2-5.4-8.1-7.6 1.2 1.4 2.4 2.8 3.7 4.2 1.2 1.4 2.5 2.7 3.7 4.1.5.9 1.1 1.6 1.5 2.3zm.3 17.4-.1-.1c-.8-.7-1.5-1.4-2.3-1.9-.4-.3-.8-.6-1.3-.9-.4-.3-.9-.5-1.4-.7.8.7 1.4 1.4 2.1 2.1.7.7 1.4 1.3 2.1 2 .5 1.8 1.1 3.5 2 5.1-.2-1.9-.6-3.7-1.1-5.6zm15.9-13c-.7 1-1.3 1.9-2 2.8-.3.5-.7.9-1.1 1.3-.2.2-.4.4-.5.6l-.3.2c-.1 0-.2.1-.2.1-1.8.6-3.7 1.2-5.5 1.8l-2.8 1c-.9.4-1.8.7-2.7 1.1.9-.2 1.9-.4 2.8-.6l2.8-.7c1.8-.5 3.7-1 5.5-1.6.2-.1.3-.1.4-.2l.3-.3.6-.6c.4-.4.7-.9 1.1-1.4.7-1 1.3-2 1.9-3 1.2-2.1 2.4-4.2 3.5-6.4l-1.9 3c-.6.9-1.2 1.9-1.9 2.9zm-13.2 22.8 6-3.4 3.3-7.7s6.6-4.8 7.1-5.4c.6-.7 1.1-3.1 1.1-4.1s.2-7.7.2-7.7.4 1.8.7 3.3.7 3.8-.1 7.6-7.6 7.4-7.6 7.4-2 5.3-4.3 7.4l-4.5 2.9-1.9-.3z" fill="#ab7b44" stroke-width="none" opacity="1" stroke="none"></path></g><g id="svga-group-glasses-single-move" transform="matrix(1,0,0,1,0,0)"><g id="svga-group-glasses-single" transform="matrix(1,0,0,1,0,0)"><path id="SvgjsPath16641" d="M63.2 81.1c-2.8 1.4-5 4.1-2.3 11.2 2.5 6.7 7.1 10.4 11.2 13 4.1 2.5 10.6 2.4 14.9 1 4.4-1.3 8.8-9.9 9-14.1.2-4.4-2.1-7-7.4-9.7-5.4-2.7-18.8-4.8-25.4-1.4z" fill="url(#SvgjsLinearGradient16642)" opacity="1"></path><path id="SvgjsPath16650" d="M137.7 80.8c2.8 1.4 4.8 4.1 1.7 11.3-2.9 6.8-7.8 10.5-12.1 13.1-4.2 2.5-10.8 2.4-15.1 1.1-4.3-1.3-8.3-9.9-8.2-14.1 0-4.4 2.4-7 8-9.7 5.6-2.8 19.2-5 25.7-1.7z" fill="url(#SvgjsLinearGradient16651)" opacity="1"></path><path id="SvgjsPath16659" d="M143.8 81.4c-.5-2.9-8.2-2.9-12-3.1-3.8-.2-17.4-.1-23.4 5.5-5 4.6-6.7 5-7.8 5h-1c-1 0-2.7-.4-7.5-4.9-5.7-5.5-19.2-5.6-22.9-5.3-3.7.2-11.3.3-12 3.2-.6 2.7 1.7 10.2 5.8 16.7 3.8 6.1 10 9.3 18.6 9.5 8.5.2 12.6-7.4 13.8-10.3 1.4-3.3 2.1-6.3 4.2-6.3h1c2.1 0 2.6 3 3.8 6.3 1.1 2.9 4.7 10.5 13.3 10.3 8.6-.2 15.1-3.5 19.3-9.6 4.5-6.5 7.3-14.1 6.8-17zM93 99.2c-2.7 4.5-6.2 8.7-14.6 7.4-7.2-1.1-13.6-7.5-15.9-12.5-2.5-5.1-4.4-14 9.7-13.8 14.1.3 19 4.5 21.7 7.1 2.2 2.2 1.5 7.8-.9 11.8zm44.8-5.1c-2.7 5-9.5 11.5-16.8 12.6-8.6 1.3-11.8-3-14.3-7.5-2.2-4-2.6-9.6-.2-11.8 2.8-2.6 8-6.9 22.2-7.2 14.3-.4 11.9 8.6 9.1 13.9z" fill="#da6972" stroke-width="none" opacity="1"></path><path id="SvgjsPath16660" d="M143.7 81.4c-.3-1.2-1.5-1.7-2.6-2.1-1.2-.3-2.4-.5-3.7-.7-1.3-.1-2.5-.2-3.8-.2-1.3-.1-2.6-.1-3.9-.1-5.2 0-10.4.6-15.4 2.3-.6.2-1.2.5-1.8.7-.6.3-1.2.6-1.7.9-1.1.7-2.1 1.4-3 2.3-.9.8-1.9 1.7-2.9 2.4s-2 1.5-3.3 1.9c-.3.1-.7.1-1 .1h-.9c-.7 0-1.3-.2-1.9-.4-1.1-.5-2.1-1.3-3-2.1-.9-.8-1.8-1.6-2.7-2.5-.9-.8-1.9-1.6-3-2.1-2.2-1.2-4.7-1.9-7.2-2.4s-5.1-.8-7.6-.9c-2.6-.2-5.1 0-7.6.1-2.5.2-5.1.3-7.3 1.2-.5.2-1 .5-1.4.9-.4.4-.5 1-.5 1.6-.1 1.2.2 2.4.4 3.6.5 2.3 1.4 4.6 2.4 6.8 1 2.1 2.1 4.2 3.3 6.1 1.3 1.9 2.8 3.6 4.7 4.9 1.8 1.3 3.9 2.3 6.1 2.9 2.2.6 4.4.9 6.6 1 2.2.1 4.4-.2 6.3-1.1s3.6-2.3 4.9-3.9c1.3-1.6 2.4-3.5 3.2-5.4l1.2-3.1c.2-.5.5-1.1.8-1.6.3-.5.7-1 1.3-1.3.3-.2.7-.2 1-.2h.9c.7-.1 1.4.3 1.8.8.8.9 1.1 2 1.5 3.1.3 1 .7 2.1 1.1 3 .4 1 .8 1.9 1.4 2.8 1 1.8 2.3 3.3 4 4.6 1.6 1.2 3.6 2 5.8 2.3 1.1.1 2.2.1 3.3.1l1.7-.1c.6-.1 1.1-.1 1.7-.2 2.2-.4 4.5-1.1 6.6-2.1 2.1-1.1 4-2.5 5.6-4.2 1.7-1.7 2.9-3.7 4.2-5.8 1.2-2.1 2.3-4.3 3.2-6.6.4-1.2.9-2.3 1.2-3.5-.1-1.3.2-2.6 0-3.8zm.1 0c.2 1.2-.1 2.4-.4 3.7-.3 1.2-.7 2.4-1.1 3.6-.9 2.3-2 4.5-3.2 6.6-1.2 2.1-2.5 4.1-4.1 5.8-1.6 1.8-3.6 3.2-5.7 4.3-2.1 1.1-4.4 1.8-6.7 2.2-.6.1-1.1.2-1.7.3l-1.7.2c-1.1.1-2.3.1-3.4 0-2.2-.2-4.3-1.1-6-2.4-1.7-1.3-3-2.9-4.1-4.7-.5-.9-1-1.9-1.4-2.9-.4-1-.7-2-1.1-3.1-.4-1-.7-2.1-1.4-2.9-.4-.4-.8-.6-1.4-.6h-.9c-.3 0-.5.1-.8.2-.9.5-1.4 1.7-1.8 2.6l-1.2 3.1c-.8 2-1.9 3.9-3.3 5.5-1.3 1.6-3.1 3-5 4-2 .9-4.3 1.2-6.5 1.1-2.2-.1-4.5-.4-6.7-1.1-2.2-.7-4.3-1.7-6.2-3-1.9-1.4-3.5-3.1-4.7-5-1.3-1.9-2.4-4-3.3-6.1-1-2.2-1.8-4.5-2.3-6.8-.3-1.2-.5-2.4-.4-3.6 0-.6.1-1.3.6-1.7.4-.4.9-.8 1.5-1 2.3-.9 4.8-1.1 7.4-1.3 2.5-.2 5.1-.3 7.7-.2 2.6.1 5.2.3 7.7.8s5.1 1.2 7.3 2.4c1.2.6 2.2 1.3 3.1 2.2.9.8 1.8 1.7 2.7 2.4.9.8 1.9 1.5 2.9 2 .5.2 1.1.4 1.7.4.6 0 1.2.1 1.8-.1 1.1-.3 2.2-1.1 3.2-1.8s2-1.6 2.9-2.4c.9-.9 2-1.7 3.1-2.3l1.8-.9c.6-.2 1.2-.5 1.8-.7 2.5-.9 5.1-1.4 7.7-1.7 2.6-.3 5.2-.5 7.8-.5 1.3 0 2.6.1 3.9.2 1.3.1 2.6.1 3.8.3 1.3.1 2.5.3 3.7.7.9.5 2.1 1 2.4 2.2zM93 99.2c-.9 1.6-2 3.1-3.3 4.4-1.3 1.3-2.9 2.3-4.7 2.9-1.8.6-3.8.6-5.8.4-2-.2-3.9-.8-5.7-1.6-3.6-1.8-6.7-4.5-9.1-7.7-1.2-1.6-2.2-3.4-2.9-5.3-.7-1.9-1.1-4-.9-6 .3-2 1.6-3.8 3.5-4.8s4.1-1.3 6.3-1.4c4.4-.1 8.8.2 13.2 1.4 2.1.6 4.2 1.3 6.1 2.4.9.6 1.8 1.2 2.7 1.9.4.3.8.7 1.2 1.1.4.4.8.7 1 1.2.5.9.7 1.9.8 2.9 0 1-.1 2-.3 2.9-.4 1.9-1.1 3.7-2.1 5.3zm0 0c.9-1.6 1.6-3.4 1.9-5.3.2-.9.2-1.9.2-2.9-.1-1-.3-2-.8-2.8-.2-.4-.6-.8-1-1.1-.4-.3-.8-.7-1.2-1-.8-.7-1.7-1.2-2.6-1.8-1.9-1-3.9-1.8-6-2.3-4.2-1.1-8.7-1.5-13-1.4-2.1.1-4.3.4-6.1 1.3-1.8.9-3 2.5-3.4 4.5-.3 1.9.1 3.9.8 5.8.3.9.7 1.9 1.2 2.8.5.9 1 1.7 1.7 2.5 2.4 3.1 5.5 5.8 9.1 7.5 1.8.8 3.6 1.3 5.6 1.6 1.9.2 3.8.2 5.7-.3 1.8-.5 3.4-1.4 4.7-2.7 1.2-1.3 2.2-2.8 3.2-4.4zm44.8-5.1c-2 3.6-4.9 6.8-8.4 9.2-1.7 1.2-3.5 2.2-5.5 2.8-1.9.7-4 .9-5.9 1-2 0-3.9-.4-5.6-1.2-1.7-.8-3-2.1-4-3.6-.6-.7-1-1.5-1.5-2.3-.5-.8-.9-1.6-1.2-2.4-.7-1.7-1.1-3.6-1.1-5.6 0-1 .1-2 .5-3 .2-.5.4-1 .8-1.4.4-.4.8-.8 1.2-1.1 1.7-1.5 3.6-2.7 5.7-3.6 4.2-1.9 8.8-2.6 13.2-2.9 1.1 0 2.2-.1 3.4-.1h1.7c.6 0 1.1.1 1.6.2 2.1.3 4.2 1 5.7 2.5.7.7 1.2 1.6 1.4 2.6.2 1 .3 2 .1 3-.3 2-1.1 4-2.1 5.9zm0 0c.9-1.9 1.8-3.8 2-5.8.1-1 0-2-.2-2.9-.3-.9-.7-1.8-1.4-2.4-1.4-1.3-3.4-2-5.5-2.2-2.1-.3-4.3-.2-6.6-.1-4.4.3-8.9 1-13 2.8-2 .9-3.9 2-5.6 3.4-.8.7-1.6 1.4-1.9 2.3-.4.8-.6 1.8-.6 2.8 0 1.9.3 3.8 1 5.5.7 1.7 1.6 3.2 2.7 4.7 1.1 1.4 2.4 2.6 4 3.4 1.6.8 3.5 1.1 5.4 1.1 1.9 0 3.9-.3 5.8-1 1.9-.6 3.7-1.6 5.4-2.7 3.4-2.3 6.5-5.3 8.5-8.9z" fill="#bb3540" stroke-width="none" opacity="1"></path></g></g></g></g></g><rect id="svga-credit-rect" width="200" height="15" x="0" y="185" fill="#ecf0f1" opacity="0.5" style="display: none;"></rect><text id="svga-credit-text" font-family="Avenir Next, Roboto, Helvetica, Arial, sans-serif" font-size="10px" text-anchor="start" font-weight="400" size="10px" anchor="start" weight="400" fill="#333333" x="33.40447998046875" y="182.60824704170227" style="display: none;"><tspan id="SvgjsTspan16005" dy="13" x="33.40447998046875">Created on AvatarMaker.com</tspan></text></g></svg>