<svg xmlns="http://www.w3.org/2000/svg" version="1.1" width="600px" height="600px" viewBox="0 0 200 200" style="overflow:hidden!important;"><defs id="SvgjsDefs85382"></defs><g id="svga-group-wrapper"><g id="svga-group-backs-single"><path id="SvgjsPath86172" d="M0 0h200v200H0V0z" fill="#cdb380" stroke-width="none" opacity="1"></path><path id="SvgjsPath86173" d="M165.5 23.7c11.7 0 21.1 9.5 21.1 21.1S177.2 66 165.5 66s-21.1-9.5-21.1-21.1 9.4-21.2 21.1-21.2zm-77.3 86.5c11.7 0 21.1 9.5 21.1 21.1s-9.5 21.1-21.1 21.1-21.1-9.5-21.1-21.1 9.4-21.1 21.1-21.1zm-37.8 48.9c9.1 0 16.6 7.4 16.6 16.6s-7.4 16.6-16.6 16.6-16.6-7.4-16.6-16.6 7.5-16.6 16.6-16.6zm-.3-132.8c9.1 0 16.6 7.4 16.6 16.6s-7.4 16.6-16.6 16.6S33.5 52 33.5 42.8s7.4-16.5 16.6-16.5zm60.3-7.2c2.7 0 4.8 2.2 4.8 4.8s-2.2 4.8-4.8 4.8-4.8-2.2-4.8-4.8 2.1-4.8 4.8-4.8zm-91.5 97.1c2.7 0 4.8 2.2 4.8 4.8s-2.2 4.8-4.8 4.8-4.8-2.2-4.8-4.8 2.1-4.8 4.8-4.8zm120-5.7c4.8 0 8.8 3.9 8.8 8.8s-3.9 8.8-8.8 8.8-8.8-3.9-8.8-8.8 4-8.8 8.8-8.8z" fill="#be9f63" stroke-width="none" opacity="1"></path><path id="SvgjsPath86174" d="M101.8 45.4c14.2 0 25.8 11.5 25.8 25.8S116 97 101.8 97 76 85.4 76 71.2s11.5-25.8 25.8-25.8zm21.6 117.7c7.5 0 13.6 6.1 13.6 13.6s-6.1 13.6-13.6 13.6-13.6-6.1-13.6-13.6 6-13.6 13.6-13.6zm-88.6-35.9c7.2 0 13 5.8 13 12.9S42 153 34.8 153s-13-5.8-13-12.9 5.8-12.9 13-12.9zM55 88.8c2.1 0 3.8 1.7 3.8 3.8s-1.7 3.8-3.8 3.8-3.8-1.7-3.8-3.8 1.7-3.8 3.8-3.8zm44.9 78.4c2.1 0 3.8 1.7 3.8 3.8s-1.7 3.8-3.8 3.8-3.8-1.7-3.8-3.8 1.7-3.8 3.8-3.8zm79.9-82.1c2.1 0 3.8 1.7 3.8 3.8s-1.7 3.8-3.8 3.8-3.8-1.7-3.8-3.8 1.7-3.8 3.8-3.8zM66.7 16.5c2.1 0 3.8 1.7 3.8 3.8s-1.7 3.8-3.8 3.8-3.8-1.7-3.8-3.8 1.7-3.8 3.8-3.8zm-46.8-4.3c2.7 0 4.8 2.2 4.8 4.8s-2.2 4.8-4.8 4.8-4.8-2.2-4.8-4.8 2.1-4.8 4.8-4.8zM15.5 180c2.7 0 4.8 2.2 4.8 4.8s-2.2 4.8-4.8 4.8-4.8-2.2-4.8-4.8 2.2-4.8 4.8-4.8zM149.1 77.2c4.7 0 8.4 3.8 8.4 8.4s-3.8 8.4-8.4 8.4-8.4-3.8-8.4-8.4 3.7-8.4 8.4-8.4zM145.8 5c4.7 0 8.4 3.8 8.4 8.4s-3.8 8.4-8.4 8.4-8.4-3.8-8.4-8.4 3.7-8.4 8.4-8.4zM35.3 70.3c4.8 0 8.8 3.9 8.8 8.8s-3.9 8.8-8.8 8.8-8.8-3.9-8.8-8.8 4-8.8 8.8-8.8zm127.8 58.9c14 0 25.3 11.3 25.3 25.3s-11.3 25.3-25.3 25.3-25.3-11.3-25.3-25.3 11.4-25.3 25.3-25.3z" fill="#ae8d4a" stroke-width="none" opacity="1"></path></g><g id="svga-group-humanwrap-move" transform="matrix(1,0,0,1,0,0)"><g id="svga-group-humanwrap" transform="matrix(1.1000003000000003,0,0,1.1000003000000003,-9.970028269675282,-12.725490599452996)"><g id="svga-group-hair-back-move" transform="matrix(1,0,0,1,0,0)"><g id="svga-group-hair-back" transform="matrix(1,0,0,1,0,0)"><path id="SvgjsPath86127" d="M69.7 44.2s-10.5 4.2-13.8 17.2-4.2 15.7-3.5 28.1-.2 27.9 3.1 36.4 11.9 11.3 16.8 10.9 53.6 1 60.9-1.3c7.3-2.3 10.3-6.5 11.1-13 .8-6.5 1.5-30.4 1.9-36.9s-2.3-24.7-5.2-30.2-16.8-10.9-22.4-11.7c-5.4-.8-32.6-4.4-48.9.5z" fill="#fef6e1" stroke-width="none" opacity="1" stroke="none"></path><path id="SvgjsPath86128" d="M143.9 109.6c.3 9.7.5 19.5-9.4 24.5-.4.2-.1.8.3.7 10.6-2.9 10.7-16.5 9.6-25.2 0-.4-.5-.4-.5 0zm-2.1 3.4c-2 12.4-9.7 20-21.9 22.3-.5.1-.4.8.1.8 12.1-.1 22.5-11.1 22.3-23.1-.1-.2-.5-.3-.5 0zm-88.1-5.1c-.2 10.2 3.1 27.4 16.7 26.7.5 0 .5-.7 0-.8-13.6-1.6-14.8-15-16.2-26-.1-.2-.5-.2-.5.1zM57 110c-2.3 10 6.5 19.6 16.5 18.9.3 0 .3-.5 0-.5-10.2-.9-16.3-8.2-16.1-18.3 0-.3-.4-.3-.4-.1z" fill="#efe1bc" stroke-width="none" opacity="1" stroke="none"></path></g></g><g id="svga-group-humanbody-back"><path id="SvgjsPath85783" d="M166.5 181.1c-10.9-6.6-27.6-8.4-35-12.1-4.9-2.5-9.1-4.7-8.9-17.8s1.9-42.4 1.9-42.4H75.4s1.6 29.4 1.9 42.4-4.2 15.6-8.9 17.8c-7.4 3.5-24.1 5.4-35 12.1-10.8 6.6-10 18.9-10 18.9v19.7h153.3V200c-.1 0 .7-12.3-10.2-18.9z" fill="#f6e4e2" stroke-width="none" opacity="1" stroke="none"></path></g><g id="svga-group-chinshadow-single"><path id="SvgjsPath86027" d="M77.2 155.9c7 5.3 16 11.1 22.8 11.1 6.8 0 15.8-5.8 22.8-11-.1-1.4-.2-3-.2-4.8.2-13.1 1.9-42.4 1.9-42.4H75.4s1.6 29.4 1.9 42.4c0 1.8 0 3.3-.1 4.7z" fill="#d7a19b" stroke-width="none" opacity="0.65" stroke="none"></path></g><g id="svga-group-humanbody-front"><path id="SvgjsPath85784" d="M78.7 156.8c.5 4.8 1.7 9.4 3.1 13.9.8 2.3 1.6 4.6 2.6 6.9.8 2 1.7 4.2 3.1 5.9.3.4 1 0 .9-.5-.5-2.2-1.6-4.3-2.4-6.4-.9-2.2-1.7-4.4-2.5-6.6-1.5-4.4-2.8-8.9-4.1-13.3-.2-.4-.8-.3-.7.1zm41.3-1c-1.3 8.2-3.9 16.1-5.4 24.2-.1.4.4.5.6.2 3.1-7.7 4.1-16.1 5.1-24.3-.1-.2-.3-.2-.3-.1zm-25.8 11.9c-.9 3.6 1.9 8.6 6.2 7.6.5-.1.4-.8 0-1-1.4-.5-2.9-.9-3.9-2.1-1.1-1.2-1.5-2.9-1.4-4.5 0-.4-.8-.5-.9 0z" fill="#d7a19b" stroke-width="none" opacity="1" stroke="none"></path><path id="SvgjsPath85785" d="M177.3 219.7c-.1-6.6-.3-13.1-.3-19.7l-.3-.3c.1 0 .1 0 .2.1s.1.2.1.1v-1.4c0-.5-.1-.9-.1-1.4-.1-.9-.3-1.9-.5-2.8-.5-1.8-1.1-3.6-2-5.3-1.7-3.4-4.4-6.2-7.7-8.1-3.6-2.2-7.6-3.8-11.6-5.1-4-1.3-8.1-2.4-12.1-3.5-4-1.2-8.1-2.2-11.8-4.2-1.9-1-3.6-2.1-4.8-3.6-1.2-1.6-1.9-3.5-2.3-5.5-.8-4-.4-8.2-.3-12.4l.7-12.6 1.5-25.2.1-1.4h-1.4c-8.2 0-16.4 0-24.6.1l-24.6.3h-.9l.1.9c.8 11.9 1.6 23.8 2.1 35.7.1 3 .3 6 .2 8.9-.1 2.9-.4 5.9-1.6 8.6-.6 1.3-1.4 2.5-2.4 3.5s-2.3 1.8-3.6 2.4c-2.6 1.3-5.4 2.2-8.3 3-5.8 1.5-11.6 2.8-17.3 4.7-2.8.9-5.7 2-8.4 3.4-1.3.7-2.7 1.4-4 2.4-1.3.9-2.4 1.9-3.5 3.1-2.1 2.3-3.6 5.2-4.5 8.1-.5 1.5-.8 3-1 4.6-.1.8-.1 1.6-.1 2.4v2.3l-.2 17.9v1.3h1.4l38.3.2c12.8.1 25.5.1 38.3 0 12.8-.1 25.6-.1 38.3-.3 12.8-.2 25.6-.5 38.3-.7h.6v-.5zm-77.2-1.6H61.8l-37 .2-.1-16.6v-2.2c0-.7 0-1.4.1-2.1.1-1.4.4-2.8.8-4.2.8-2.7 2.1-5.3 3.9-7.5.9-1.1 2-2.1 3.1-2.9 1.1-.9 2.4-1.6 3.7-2.3 2.6-1.4 5.3-2.5 8.1-3.5 5.6-2 11.4-3.4 17.1-5.1 2.9-.8 5.8-1.7 8.5-3.1 1.3-.7 2.7-1.5 3.8-2.6 1.1-1.1 2-2.4 2.6-3.9 1.2-2.9 1.5-5.9 1.6-8.9 0-3-.1-6-.2-9l-1.3-34.8 23.5.4c7.7.1 15.4.1 23.1.1-.4 7.9-.8 15.9-1.1 23.8-.2 4.2-.2 8.4-.3 12.6 0 4.2-.2 8.5.8 12.8.5 2.1 1.3 4.2 2.8 6 1.4 1.7 3.4 2.9 5.3 3.8 3.9 1.9 8 2.8 12.1 3.8s8.2 2 12.2 3.3c4 1.3 7.9 2.8 11.5 5 3.2 1.9 5.8 4.7 7.5 8 .9 1.6 1.5 3.4 1.9 5.2.2.9.4 1.8.4 2.7.1.5.1.9.1 1.4V200l-.3 19c-12.6-.2-25.1-.5-37.7-.7-12.7-.1-25.5-.1-38.2-.2z" fill="#c8837c" stroke-width="none" opacity="1" stroke="none"></path></g><g id="svga-group-clothes-single"><path id="SvgjsPath85925" d="M149.9 220.3c-.4-19.5 5.9-44.6 5.9-44.6l-12.6-3.6s-8.7 28.3-45.2 27.1-41.2-27.1-41.2-27.1l-12.6 3.6s6.3 25.2 5.9 44.6h99.8z" fill="#335529" stroke-width="none" opacity="1"></path><path id="SvgjsPath85926" d="m156 174.9-12.6-3.6c-.4-.1-.9.1-1.1.5-.7 2-1.7 4.1-2.9 6-1.1 1.9-2.4 3.8-3.9 5.5-1.4 1.7-3 3.3-4.7 4.8-1.7 1.4-3.5 2.8-5.4 3.9-3.8 2.4-8 4.1-12.4 5.2-4.4 1.1-8.9 1.6-13.4 1.6s-9.1-.4-13.5-1.4c-1.1-.2-2.2-.5-3.3-.8-1.1-.4-2.2-.7-3.2-1.1-2.1-.8-4.2-1.7-6.2-2.9-3.9-2.2-7.5-5.2-10.2-8.7-1.4-1.8-2.6-3.7-3.6-5.7s-1.8-4.1-2.2-6.3c-.1-.3-.4-.5-.8-.4L44 174.9c-.4.1-.6.5-.5.9.8 3.6 1.6 7.3 2.3 11 .7 3.7 1.3 7.4 1.8 11.1.5 3.7.9 7.4 1.2 11.2.3 3.7.4 7.5.3 11.2 0 .6.5 1.1 1.1 1.1l25.2-.1c8.4 0 16.8-.1 25.1-.2l12.5-.1 12.4-.2 24.7-.4c.1-3.8.3-7.6.7-11.3.4-3.7.9-7.4 1.4-11.2.6-3.7 1.3-7.4 2-11.1.8-3.7 1.5-7.4 2.4-11 0-.4-.2-.8-.6-.9zm-3.3 11.6c-.7 3.7-1.2 7.4-1.7 11.2s-.9 7.5-1.1 11.3c-.2 3.8-.3 7.5-.1 11.2l-25.2-.4-12.5-.2-12.4-.1c-8.3-.1-16.6-.2-24.8-.2l-23.7-.1c0-3.4-.2-6.9-.4-10.3-.3-3.8-.8-7.5-1.3-11.3-1.1-7.2-2.5-14.4-4.2-21.5l11.2-3.3c2.5 8.9 8.9 16.1 16.8 20.4 8.1 4.5 17.4 6.2 26.5 6.3 4.6.1 9.2-.3 13.7-1.3s8.9-2.6 12.9-5c4-2.3 7.6-5.4 10.6-8.9 2.8-3.4 5.2-7.1 6.8-11.3l11.1 3.1c-.8 3.5-1.6 7-2.2 10.4z" fill="#18360f" stroke-width="none" opacity="1"></path></g><g id="svga-group-head" transform="matrix(1,0,0,1,0,0)"><g id="svga-group-ears-left-move" transform="matrix(1,0,0,1,0,0)"><g id="svga-group-ears-left" transform="matrix(1,0,0,1,0,0)"><path id="SvgjsPath85935" d="M62.9 100.1s-1.8-5-3.3-7.9-3.6-6.4-6.7-7.2c-3.1-.8-4.1 3.9-2.9 8.3 1.2 4.4 4.3 13.9 5 17.7.7 3.7 1.8 8.2 3.6 7.5 1.7-.7 7.2-7.7 4.3-18.4z" fill="#f6e4e2" stroke-width="none" opacity="1" stroke="none"></path><path id="SvgjsPath85936" d="M63.8 105.1c.2 1.7.1 3.4-.1 5.1-.5 3.3-1.9 6.4-4 8.4l-.4.3c-.2.1-.3.2-.5.3-.4.2-.9 0-1.3-.3-.8-.6-1.2-1.5-1.5-2.3-.6-1.7-.9-3.3-1.3-5-.3-1.6-.7-3.2-1.1-4.8l-1.3-4.9c-.4-1.6-.9-3.2-1.3-4.8l-.7-2.4c-.2-.8-.5-1.6-.6-2.5-.2-.8-.3-1.7-.3-2.6s.1-1.7.3-2.6c.2-.8.6-1.6 1.2-2.1s1.4-.6 2.1-.5c1.4.3 2.7 1.2 3.7 2.4 1.1 1.2 1.9 2.6 2.6 4.1.8 1.4 1.4 3 2 4.5.6 1.6 1.2 3.1 1.7 4.7.3 1.6.7 3.3.8 5zm-5.1-13.7c-.9-1.4-1.7-2.6-2.7-3.7-1-1-2.1-1.8-3.2-2.2-.6-.2-1.1-.1-1.6.2-.5.3-.8.9-1.1 1.6-.5 1.4-.5 3.1-.2 4.7.1.8.3 1.6.6 2.4.2.8.5 1.6.7 2.4l1.5 4.8c.5 1.6 1.1 3.2 1.5 4.8.5 1.6 1 3.2 1.3 4.9.4 1.6.7 3.3 1.3 4.7.3.7.6 1.4 1 1.6.2.1.3.2.5.1.1 0 .2-.1.3-.2l.3-.3c.9-.8 1.7-2 2.4-3.2.7-1.3 1.2-2.7 1.6-4.2.8-3 .7-6.5-.2-9.7-1-3.1-2.3-6.1-4-8.7z" fill="#e7c1bd" stroke-width="none" opacity="1" stroke="none"></path><path id="SvgjsPath85937" d="M50.9 88.1c1.9-.8 3.6 1.4 4.8 3.3 1.6 2.5 2.7 5.5 3 8.7v.2c0 .3 0 .5.1.8 0 .2-.2.2-.2 0-.1-.4-.2-.9-.3-1.4-.1-.1-.1-.2-.2-.4-1.2-.6-1.8-.3-1.8.8 0 .7.2 1.5.3 2.2.3 1.2.9 2.3 1.3 3.5.1.2-.2.4-.3.2-.9-1.6-2.6-5.3-1.5-7.2.5-.9 1.4-.8 1.9-.2-.5-2-1.2-4.3-2.2-6.2-2.1 4.5-1 9.2.1 14.2 0 .2-.2.3-.3.1-1.4-4.6-2.7-10.8 0-14.5-1-2.2-2.6-3.9-4.6-3.7-.1 0-.2-.3-.1-.4z" fill="#d7a19b" stroke-width="none" opacity="1" stroke="none"></path><path id="SvgjsPath85938" d="M58.6 108.1c.2 1.1 0 2.4-.6 3.2-.1.1-.2 0-.1-.1.3-1 .6-1.9.6-3.1 0-.1.1-.1.1 0z" fill="#d7a19b" stroke-width="none" opacity="1" stroke="none"></path></g></g><g id="svga-group-ears-right-move" transform="matrix(1,0,0,1,0,0)"><g id="svga-group-ears-right" transform="matrix(1,0,0,1,0,0)"><path id="SvgjsPath85939" d="M137.1 100.1s1.8-5 3.3-7.9 3.6-6.4 6.7-7.2c3.1-.8 4.1 3.9 2.9 8.3-1.2 4.4-4.3 13.9-5 17.7s-1.8 8.2-3.6 7.5c-1.7-.7-7.2-7.7-4.3-18.4z" fill="#f6e4e2" stroke-width="none" opacity="1" stroke="none"></path><path id="SvgjsPath85940" d="M137.1 100.1c.6-1.6 1.1-3.1 1.7-4.7.6-1.5 1.2-3.1 2-4.5.7-1.5 1.6-2.9 2.6-4.1s2.3-2.1 3.7-2.4c.7-.2 1.5 0 2.1.5s1 1.3 1.2 2.1c.2.8.3 1.7.3 2.6s-.1 1.7-.3 2.6c-.1.9-.4 1.7-.6 2.5l-.7 2.4c-.5 1.6-.9 3.2-1.3 4.8l-1.3 4.9c-.4 1.6-.8 3.2-1.1 4.8-.3 1.7-.7 3.3-1.3 5-.3.8-.7 1.7-1.5 2.3-.4.3-.9.4-1.3.3-.2-.1-.4-.2-.5-.3l-.4-.3c-2.1-2-3.5-5.1-4-8.4-.3-1.7-.3-3.4-.1-5.1 0-1.7.4-3.4.8-5zm.1 0c-.9 3.2-1 6.7-.2 9.7.4 1.5.9 2.9 1.6 4.2.7 1.3 1.5 2.4 2.4 3.2l.3.3c.1.1.2.1.3.2.2.1.3 0 .5-.1.4-.3.7-.9 1-1.6.6-1.4.9-3.1 1.3-4.7.3-1.7.8-3.3 1.3-4.9l1.5-4.8 1.5-4.8c.2-.8.5-1.6.7-2.4l.6-2.4c.3-1.6.2-3.3-.2-4.7-.2-.7-.6-1.3-1.1-1.6-.5-.3-1-.3-1.6-.2-1.2.3-2.3 1.1-3.2 2.2-1 1.1-1.8 2.3-2.7 3.6-1.6 2.7-2.9 5.7-4 8.8z" fill="#e7c1bd" stroke-width="none" opacity="1" stroke="none"></path><path id="SvgjsPath85941" d="M149.1 88.1c-1.9-.8-3.6 1.4-4.8 3.3-1.6 2.5-2.7 5.5-3 8.7v.2c0 .3 0 .5-.1.8 0 .2.2.2.2 0 .1-.4.2-.9.3-1.4.1-.1.1-.2.2-.4 1.2-.6 1.8-.3 1.8.8 0 .7-.2 1.5-.3 2.2-.3 1.2-.9 2.3-1.3 3.5-.1.2.2.4.3.2.9-1.6 2.6-5.3 1.5-7.2-.5-.9-1.4-.8-1.9-.2.5-2 1.2-4.3 2.2-6.2 2.1 4.5 1 9.2-.1 14.2 0 .2.2.3.3.1 1.4-4.6 2.7-10.8 0-14.5 1.2-2.2 2.8-3.9 4.7-3.8 0 .1.1-.2 0-.3z" fill="#d7a19b" stroke-width="none" opacity="1" stroke="none"></path><path id="SvgjsPath85942" d="M141.4 108.1c-.2 1.1 0 2.4.6 3.2.1.1.2 0 .1-.1-.3-1-.6-1.9-.6-3.1 0-.1-.1-.1-.1 0z" fill="#d7a19b" stroke-width="none" opacity="1" stroke="none"></path></g></g><g id="svga-group-faceshape-wrap" transform="matrix(1,0,0,1,0,0)"><g id="svga-group-faceshape-single"><path id="SvgjsPath86017" d="M100 35.3c-22.5 0-41.9 16.4-43.2 46.4v.3c0 2.6-.1 24.7 2.4 38.5 1.6 8.4 4.2 11.1 11.1 16.8 6.8 5.6 20.3 16.6 29.7 16.6s22.8-11 29.7-16.6c6.8-5.6 9.5-8.4 11.1-16.8 2.6-13.8 2.4-35.9 2.4-38.5v-.3c-1.3-29.9-20.7-46.4-43.2-46.4z" fill="#f6e4e2" stroke-width="none" opacity="1" stroke="none"></path><path id="SvgjsPath86018" d="M143.2 82v-.3c-1.3-29.9-20.7-46.4-43.2-46.4S58.1 51.7 56.8 81.7v.3c0 2.6-.1 24.7 2.4 38.5 1.6 8.4 4.2 11.1 11.1 16.8 6.8 5.6 20.3 16.6 29.7 16.6s22.8-11 29.7-16.6c6.8-5.6 9.5-8.4 11.1-16.8 2.6-13.8 2.4-35.9 2.4-38.5zm-3.3 10.9c-.2 6.7-.6 14.5-1.3 21.1-.2 1.7-.4 3.3-.7 4.9-.2 1.6-.6 3.2-1 4.6-.4 1.5-1 2.8-1.7 4s-1.7 2.4-2.8 3.5c-2.2 2.2-4.9 4.4-7.5 6.6-2.6 2.2-5.2 4.2-7.9 6.2s-5.4 3.8-8.3 5.4c-2.9 1.5-5.9 2.8-8.9 3-3 0-6.2-.9-9.2-2.3-3-1.4-5.9-3.1-8.8-4.9-2.8-1.9-5.5-3.9-8.2-6-2.6-2.1-5.3-4.3-7.7-6.6-1.2-1.2-2.2-2.5-3-3.8-.8-1.4-1.4-2.9-1.8-4.4-.4-1.6-.7-3.2-.9-4.9-.2-1.7-.4-3.3-.5-5-.5-6.7-.5-14.5-.5-21.3V82.8c.1-3.2.4-6.5 1-9.7 1.1-6.4 3.1-12.7 6.4-18.4 3.3-5.6 8-10.6 13.8-14 5.8-3.3 12.6-5.1 19.4-5.1 6.8.1 13.5 1.8 19.3 5.2 5.8 3.4 10.4 8.4 13.7 14 3.3 5.7 5.2 12 6.2 18.4.5 3.2.8 6.4.8 9.6.3 3.4.2 6.7.1 10.1z" fill="#c8837c" stroke-width="none" opacity="1" stroke="none"></path></g></g><g id="svga-group-mouth-single-move" transform="matrix(1,0,0,1,0,0)"><g id="svga-group-mouth-single" transform="matrix(1,0,0,1,0,0)"><path id="SvgjsPath86096" d="M84.13 121.38s.02 2.5 1.11 4.36c0 0 4.32 4.53 9.9 8.4.19.14 8.24 1.16 10.36.41 0 0 8.36-5.19 10.19-9.12 0 0 .66-1.94.41-3.27 0 0-6.34 1.76-9.33 2.2-2.99.45-10.62 0-14.41-.57-3.8-.57-7.27-1.92-8.23-2.41z" fill="#000000" stroke-width="none" opacity="1" transform="translate(0 2)"></path><path id="SvgjsPath86097" d="M106.75 124.35c-2.99.45-10.62 0-14.41-.57-3.79-.57-7.26-1.92-8.22-2.41 0 0 .02 2.5 1.11 4.36l.19.19c1.51 1.07 3.66 2.31 6.2 2.99 5.05 1.36 15.17 1.9 22.14-1.92.58-.32 1.09-.63 1.57-.95.14-.21.25-.43.34-.64 0 0 .66-1.94.41-3.27.01.02-6.34 1.79-9.33 2.22z" fill="#ffffff" stroke-width="none" opacity="1" transform="translate(0 2)"></path><path id="SvgjsPath86098" d="M116.59 121.88c.16-.2 0-.49-.28-.48-1.71.52-2.76.73-4.08 1.09-1.18.32-9.11 1.01-11.89.99-9.17-.2-13.39-1.67-16.1-2.4-.22-.06-.44.18-.34.34-.21 1.26 1.06 4.43 1.06 4.45 2.41 3.32 6.15 6.2 9.6 8.45 2.45 1.59 9.23 1.33 10.89.76 2.36-.89 4.78-3.17 6.36-4.68 1.46-1.4 3.54-4 4.23-5.1.29-.44.46-.97.57-1.48.13-.52.3-1.38-.02-1.94zm-5.54 8.28c-2.42 2.24-5.67 3.61-5.82 3.62-1.9.17-3.8.26-5.72.19-1.36-.05-4.19-.4-4.31-.48-1.83-.93-3.63-2.15-5.26-3.53-1.59-1.34-3.52-2.92-4.56-4.42-.65-1.11-1.02-2.25-.86-3.72 4.7 2.47 10.68 3.54 15.92 3.58 2.85.02 5.63-.36 8.4-.92 2.13-.43 5.04-.89 7-2.08-.03.32-.02.66-.07.97-.09.56.23 2.27-4.72 6.79z" fill="#904539" stroke-width="none" opacity="1" transform="translate(0 2)" stroke="none"></path></g></g><g id="svga-group-eyes-left-move" transform="matrix(1,0,0,1,0,0)"><g id="svga-group-eyes-left" transform="matrix(1,0,0,1,0,0)"><g id="svga-group-eyesback-left"><path id="SvgjsPath85971" d="M89.4 95.2s-.9-2.5-2.2-3.9c-1.4-1.4-5.5-3.6-10.2-1.8-4.7 1.8-6.8 4.7-6.8 4.7s.7 1.8 3.4 3.2c2.7 1.5 6.4 2.7 10.4 1.4s5.4-3.6 5.4-3.6z" fill="#ffffff" stroke-width="none" opacity="1"></path></g><g id="svga-group-eyesiriswrapper-left" transform="matrix(1,0,0,1,0,0)"><g id="svga-group-eyesiriscontrol-left" transform="matrix(1,0,0,1,0,0)"><g id="svga-group-eyesiris-left" transform="matrix(1,0,0,1,0,0)"><path id="SvgjsPath86031" d="M80.1 88.1c3 0 5.5 2.4 5.5 5.5S83.1 99 80.1 99s-5.5-2.4-5.5-5.5 2.4-5.4 5.5-5.4z" fill="#724f7c" stroke-width="none" opacity="1"></path><path id="SvgjsPath86032" d="M80.1 87.8c-3.2 0-5.7 2.6-5.7 5.7 0 3.2 2.6 5.7 5.7 5.7 3.2 0 5.7-2.6 5.7-5.7s-2.6-5.7-5.7-5.7zm4.7 7.7c-.6-.3-1.2-.6-1.9-.8.1-.2.2-.5.2-.8.7.1 1.3.1 2 .1.1.5-.1 1-.3 1.5zm-.3.6c-.5-.4-1.1-.8-1.7-1.1 0-.1.1-.1.1-.2l1.8.9c0 .2-.1.3-.2.4zm.1-5.1c-.6.1-1.3.4-1.8.8 0-.1-.1-.1-.1-.2.2-.2.5-.3.7-.5.3-.2.6-.5.9-.7 0 .2.2.4.3.6zm.3.8c-.7.2-1.3.3-1.9.6 0-.1-.1-.2-.1-.3.3-.1.6-.3.9-.4.3-.1.7-.2 1-.4 0 .2.1.4.1.5zm-1.7 1.7c0-.3-.1-.6-.1-.8.7-.1 1.3-.3 1.9-.5.1.4.2.9.2 1.4-.6-.1-1.3-.1-2-.1zm.8-3.3c-.3.2-.6.5-.9.7-.2.2-.5.3-.7.5l-.3-.3c.4-.5.8-1.1 1.1-1.7.3.3.6.5.8.8zm-3.6 6.5c.2 0 .5-.1.7-.2.1.3.3.7.4 1 .1.3.2.6.4.8-.4.2-.9.3-1.4.3 0-.6 0-1.3-.1-1.9zm1.4-8c.4.2.9.4 1.3.7-.4.5-.8 1.1-1.2 1.6-.1-.1-.2-.1-.3-.2.1-.7.2-1.5.2-2.1zm-1.5-.3c.4 0 .8.1 1.1.2-.1.5-.1 1-.2 1.5 0 .2-.1.3-.1.5-.2-.1-.4-.1-.6-.2 0-.7-.1-1.4-.2-2zm1.6 9c-.2-.3-.3-.7-.5-1 .1 0 .1-.1.2-.1.1.3.3.6.5.9.2.3.3.6.5.9-.1.1-.2.1-.3.2-.1-.4-.3-.6-.4-.9zm.4-.4c-.2-.3-.3-.6-.5-.9.1-.1.2-.1.3-.2.3.6.7 1.1 1.2 1.6-.1.1-.3.2-.4.3-.2-.2-.5-.5-.6-.8zm-2.1-8.6c-.1.6-.1 1.3-.1 2h-.4c0-.2-.1-.4-.1-.6-.1-.4-.1-.9-.2-1.4.2 0 .4-.1.6-.1.1 0 .1 0 .2.1zm-2.8.7c.3.6.7 1.2 1.1 1.7-.1.1-.2.1-.2.2-.1-.1-.2-.3-.4-.4-.3-.4-.6-.8-1-1.1.2-.2.3-.3.5-.4zm2 1.3c-.1 0-.2 0-.2.1-.2-.7-.4-1.3-.6-1.9.2-.1.4-.1.7-.2-.1.7-.1 1.4.1 2zm-.5.2s-.1 0-.1.1c-.3-.6-.7-1.2-1.1-1.7.2-.1.5-.2.7-.3.1.6.2 1.3.5 1.9zm-.5 5.6c.1 0 .1.1.2.1-.1.2-.2.3-.2.5-.2.4-.5.9-.6 1.3l-.6-.3c.3-.3.5-.7.8-1 .1-.2.3-.4.4-.6zm.4.7c.1-.1.1-.3.2-.4h.1c-.3.6-.5 1.3-.6 1.9-.2-.1-.3-.1-.5-.2.3-.4.5-.9.8-1.3zm.6-.3c.1 0 .2 0 .3.1-.2.6-.2 1.3-.3 2-.2 0-.5-.1-.7-.1.3-.7.5-1.4.7-2zm-2.7-7c.2.4.5.7.8 1 .2.2.3.4.4.6-.1.1-.3.2-.4.4-.5-.4-1.1-.8-1.7-1.1.4-.4.6-.7.9-.9zm-1.1 6.5 1.5-.9c.1 0 .1-.1.2-.1.1.1.2.3.3.4-.5.4-1 1-1.4 1.4-.3-.2-.4-.5-.6-.8zm-.5-1.1c.4-.1.8-.3 1.1-.4.2-.1.5-.2.7-.3 0 .2.1.3.2.5-.1.1-.2.1-.3.2-.5.3-.9.6-1.4 1-.1-.4-.2-.7-.3-1zm-.2-1.5c0-.2 0-.3.1-.5.6.2 1.3.3 2 .3v.5c-.3.1-.6.2-.9.4-.3.1-.7.2-1 .4-.2-.3-.2-.7-.2-1.1zm.3-1.6c.4.2.9.4 1.3.6.2.1.3.2.5.2 0 .1-.1.2-.1.3-.2 0-.3-.1-.5-.1-.5-.1-1-.2-1.5-.1l.3-.9zm.6-1.3c.5.4 1 .9 1.6 1.2-.1.2-.2.3-.3.5-.1 0-.2-.1-.3-.1-.5-.2-1.1-.4-1.6-.6.2-.4.4-.7.6-1zm.5 6.5c.5-.4 1.1-.9 1.5-1.4l.3.3c-.2.2-.3.4-.4.6-.3.3-.5.7-.8 1-.2-.1-.4-.3-.6-.5zm3.5 1.6c.1-.7.2-1.3.2-2h.2c-.1.7-.1 1.4 0 2h-.4zm3.7-1.3c-.4-.5-.9-1-1.3-1.5.2-.2.4-.4.5-.6.5.4 1.1.8 1.7 1.2-.3.2-.6.6-.9.9z" fill="#52295d" stroke-width="none" opacity="1"></path><path id="SvgjsPath86033" d="M80.1 90.6c1.6 0 2.9 1.3 2.9 2.9s-1.3 2.9-2.9 2.9-2.9-1.3-2.9-2.9 1.2-2.9 2.9-2.9z" fill="#000000" stroke-width="none" opacity="1"></path><path id="SvgjsPath86034" d="M78.4 91c.6 0 1.1.5 1.1 1.1s-.5 1.1-1.1 1.1-1.1-.5-1.1-1.1.5-1.1 1.1-1.1zm3.6 4.1c.4 0 .6.3.6.6s-.3.6-.6.6-.6-.3-.6-.6.3-.6.6-.6z" fill="#ffffff" stroke-width="none" opacity="1"></path></g></g></g><g id="svga-group-eyesfront-left"><path id="SvgjsPath85979" d="M69.4 94.6c0 6.4 4.7 11.5 10.6 11.5s10.6-5.2 10.6-11.5S85.9 83.1 80 83.1s-10.6 5.1-10.6 11.5zm.8-.4s2.1-2.8 6.8-4.7c4.7-1.8 8.9.4 10.2 1.8 1.4 1.4 2.2 3.9 2.2 3.9S88 97.5 84 98.8c-4 1.3-7.7.1-10.4-1.4-2.7-1.4-3.4-3.2-3.4-3.2z" fill="#f6e4e2" stroke-width="none" opacity="1" stroke="none"></path><path id="SvgjsPath85980" d="M80.6 85.4c5.1.1 9.5 4.5 9 9.7 0 .1-.1.1-.1.1l.1.1c-.6 2.6-3.3 5.2-5.9 5.8-.2 0-.3-.2-.1-.3 1.2-.6 2.4-1.2 3.4-2.2 1-1 1.7-2.2 2.4-3.4l.1-.1V95c-.7-5.5-5-10.1-11-8.8-2.5.7-4.5 2.1-6.2 3.8-1.4 1.6-2.2 3.5-3.6 5.1-.1.2-.4 0-.3-.2 1.2-5 7.1-9.7 12.2-9.5z" fill="#e7c1bd" stroke-width="none" opacity="1" stroke="none"></path><path id="SvgjsPath85981" d="M67.5 96.9c.9-.7 1.8-1.4 2.6-2.1 4.5 6.5 14.1 6.7 19.3 1 .1 0 .2-.1.2-.2l.2-.2c.2-.2 0-.6-.2-.6-.5-4.2-5-6.7-9-6.6-5.2.1-10.8 3.8-13.8 7.9-.4.5.2 1.1.7.8zm3.1-2.5c2.1-1.8 4.3-3.6 7.2-4.4 4.8-1.4 9.5.5 11.2 5.2-5.5 5.5-13.4 4.8-18.4-.8z" fill="#092e0c" stroke-width="none" opacity="1" stroke="none"></path></g></g></g><g id="svga-group-eyes-right-move" transform="matrix(1,0,0,1,0,0)"><g id="svga-group-eyes-right" transform="matrix(1,0,0,1,0,0)"><g id="svga-group-eyesback-right"><path id="SvgjsPath85972" d="M110.6 95.2s.9-2.5 2.2-3.9c1.4-1.4 5.5-3.6 10.2-1.8 4.7 1.8 6.8 4.7 6.8 4.7s-.7 1.8-3.4 3.2c-2.7 1.5-6.4 2.7-10.4 1.4s-5.4-3.6-5.4-3.6z" fill="#ffffff" stroke-width="none" opacity="1"></path></g><g id="svga-group-eyesiriswrapper-right" transform="matrix(1,0,0,1,0,0)"><g id="svga-group-eyesiriscontrol-right" transform="matrix(1,0,0,1,0,0)"><g id="svga-group-eyesiris-right" transform="matrix(1,0,0,1,0,0)"><path id="SvgjsPath86035" d="M119.9 88.1c3 0 5.5 2.4 5.5 5.5S123 99 119.9 99s-5.5-2.4-5.5-5.5 2.5-5.4 5.5-5.4z" fill="#724f7c" stroke-width="none" opacity="1"></path><path id="SvgjsPath86036" d="M119.9 87.8c-3.2 0-5.7 2.6-5.7 5.7 0 3.2 2.6 5.7 5.7 5.7s5.7-2.6 5.7-5.7c.1-3.1-2.5-5.7-5.7-5.7zm4.8 7.7c-.6-.3-1.2-.6-1.9-.8.1-.2.2-.5.2-.8.7.1 1.3.1 2 .1 0 .5-.1 1-.3 1.5zm-.3.6c-.5-.4-1.1-.8-1.7-1.1 0-.1.1-.1.1-.2l1.8.9c0 .2-.1.3-.2.4zm.1-5.1c-.6.1-1.3.4-1.8.8 0-.1-.1-.1-.1-.2.2-.2.5-.3.7-.5.3-.2.6-.5.9-.7 0 .2.1.4.3.6zm.3.8c-.7.2-1.3.3-1.9.6 0-.1-.1-.2-.1-.3.3-.1.6-.3.9-.4.3-.1.7-.2 1-.4 0 .2.1.4.1.5zm-1.7 1.7c0-.3-.1-.6-.1-.8.7-.1 1.3-.3 1.9-.5.1.4.2.9.2 1.4-.6-.1-1.3-.1-2-.1zm.8-3.3c-.3.2-.6.5-.9.7-.2.2-.5.3-.7.5l-.3-.3c.4-.5.8-1.1 1.1-1.7.3.3.6.5.8.8zm-3.6 6.5c.2 0 .5-.1.7-.2.1.3.3.7.4 1 .1.3.2.6.4.8-.4.2-.9.3-1.4.3 0-.6 0-1.3-.1-1.9zm1.4-8c.4.2.9.4 1.3.7-.4.5-.8 1.1-1.2 1.6-.1-.1-.2-.1-.3-.2.1-.7.2-1.5.2-2.1zm-1.5-.3c.4 0 .8.1 1.1.2-.1.5-.1 1-.2 1.5 0 .2-.1.3-.1.5-.2-.1-.4-.1-.6-.2 0-.7-.1-1.4-.2-2zm1.6 9c-.2-.3-.3-.7-.5-1 .1 0 .1-.1.2-.1.1.3.3.6.5.9.2.3.3.6.5.9-.1.1-.2.1-.3.2-.2-.4-.3-.6-.4-.9zm.4-.4c-.2-.3-.3-.6-.5-.9.1-.1.2-.1.3-.2.3.6.7 1.1 1.2 1.6-.1.1-.3.2-.4.3-.2-.2-.5-.5-.6-.8zm-2.1-8.6c-.1.6-.1 1.3-.1 2h-.4c0-.2-.1-.4-.1-.6-.1-.4-.1-.9-.2-1.4.2 0 .4-.1.6-.1.1 0 .1 0 .2.1zm-2.8.7c.3.6.7 1.2 1.1 1.7-.1.1-.2.1-.2.2-.1-.1-.2-.3-.4-.4-.3-.4-.6-.8-1-1.1.2-.2.3-.3.5-.4zm2 1.3c-.1 0-.2 0-.2.1-.2-.7-.4-1.3-.6-1.9.2-.1.4-.1.7-.2-.2.7-.1 1.4.1 2zm-.5.2s-.1 0-.1.1c-.3-.6-.7-1.2-1.1-1.7.2-.1.5-.2.7-.3.1.6.2 1.3.5 1.9zm-.5 5.6c.1 0 .1.1.2.1-.1.2-.2.3-.2.5-.2.4-.5.9-.6 1.3l-.6-.3c.3-.3.5-.7.8-1 .1-.2.3-.4.4-.6zm.3.7c.1-.1.1-.3.2-.4h.1c-.3.6-.5 1.3-.6 1.9-.2-.1-.3-.1-.5-.2.4-.4.6-.9.8-1.3zm.7-.3c.1 0 .2 0 .3.1-.2.6-.2 1.3-.3 2-.2 0-.5-.1-.7-.1.2-.7.5-1.4.7-2zm-2.7-7c.2.4.5.7.8 1 .2.2.3.4.4.6-.1.1-.3.2-.4.4-.5-.4-1.1-.8-1.7-1.1.4-.4.6-.7.9-.9zm-1.1 6.5 1.5-.9c.1 0 .1-.1.2-.1.1.1.2.3.3.4-.5.4-1 1-1.4 1.4-.3-.2-.5-.5-.6-.8zM115 95c.4-.1.8-.3 1.1-.4.2-.1.5-.2.7-.3 0 .2.1.3.2.5-.1.1-.2.1-.3.2-.5.3-.9.6-1.4 1-.1-.4-.2-.7-.3-1zm-.2-1.5c0-.2 0-.3.1-.5.6.2 1.3.3 2 .3v.5c-.3.1-.6.2-.9.4-.3.1-.7.2-1 .4-.2-.3-.2-.7-.2-1.1zm.3-1.6c.4.2.9.4 1.3.6.2.1.3.2.5.2 0 .1-.1.2-.1.3-.2 0-.3-.1-.5-.1-.5-.1-1-.2-1.5-.1.1-.3.1-.6.3-.9zm.6-1.3c.5.4 1 .9 1.6 1.2-.1.2-.2.3-.3.5-.1 0-.2-.1-.3-.1-.5-.2-1.1-.4-1.6-.6.2-.4.4-.7.6-1zm.5 6.5c.5-.4 1.1-.9 1.5-1.4l.3.3c-.2.2-.3.4-.4.6-.3.3-.5.7-.8 1-.2-.1-.4-.3-.6-.5zm3.5 1.6c.1-.7.2-1.3.2-2h.2c-.1.7-.1 1.4 0 2h-.4zm3.7-1.3c-.4-.5-.9-1-1.3-1.5.2-.2.4-.4.5-.6.5.4 1.1.8 1.7 1.2-.3.2-.6.6-.9.9z" fill="#52295d" stroke-width="none" opacity="1"></path><path id="SvgjsPath86037" d="M119.9 90.6c1.6 0 2.9 1.3 2.9 2.9s-1.3 2.9-2.9 2.9-2.9-1.3-2.9-2.9 1.3-2.9 2.9-2.9z" fill="#000000" stroke-width="none" opacity="1"></path><path id="SvgjsPath86038" d="M118.3 91c.6 0 1.1.5 1.1 1.1s-.5 1.1-1.1 1.1-1.1-.5-1.1-1.1.5-1.1 1.1-1.1zm3.6 4.1c.4 0 .6.3.6.6s-.3.6-.6.6-.6-.3-.6-.6.3-.6.6-.6z" fill="#ffffff" stroke-width="none" opacity="1"></path></g></g></g><g id="svga-group-eyesfront-right"><path id="SvgjsPath85982" d="M120 83.1c-5.9 0-10.6 5.2-10.6 11.5s4.7 11.5 10.6 11.5 10.6-5.2 10.6-11.5-4.8-11.5-10.6-11.5zm6.4 14.3c-2.7 1.5-6.4 2.7-10.4 1.4-4-1.3-5.4-3.6-5.4-3.6s.9-2.5 2.2-3.9c1.4-1.4 5.5-3.6 10.2-1.8 4.7 1.8 6.8 4.7 6.8 4.7s-.7 1.8-3.4 3.2z" fill="#f6e4e2" stroke-width="none" opacity="1" stroke="none"></path><path id="SvgjsPath85985" d="M119.4 85.4c-5.1.1-9.5 4.5-9 9.7 0 .1.1.1.1.1l-.1.1c.6 2.6 3.3 5.2 5.9 5.8.2 0 .3-.2.1-.3-1.2-.6-2.4-1.2-3.4-2.2-1-1-1.7-2.2-2.4-3.4l-.1-.1V95c.7-5.5 5-10.1 11-8.8 2.4.5 4.5 1.9 6.1 3.7 1.4 1.6 2.2 3.5 3.6 5.1.1.2.4 0 .3-.2-1.1-4.9-7-9.6-12.1-9.4z" fill="#e7c1bd" stroke-width="none" opacity="1" stroke="none"></path><path id="SvgjsPath85986" d="M133.3 96.1c-3-4.1-8.6-7.8-13.8-7.9-4-.1-8.5 2.4-9 6.6-.2 0-.4.3-.2.6l.2.2c0 .1.1.2.2.2 5.2 5.7 14.8 5.5 19.3-1 .8.7 1.7 1.4 2.6 2.1.4.3 1-.3.7-.8zm-22.3-.9c1.8-4.7 6.4-6.6 11.2-5.2 2.9.8 5 2.6 7.2 4.4-5 5.6-12.9 6.3-18.4.8z" fill="#092e0c" stroke-width="none" opacity="1" stroke="none"></path></g></g></g><g id="svga-group-facehighlight-single"></g><g id="svga-group-eyebrows-left-move" transform="matrix(1,0,0,1,0,0)"><g id="svga-group-eyebrows-left-rotate" transform="matrix(1,0,0,1,0,0)"><g id="svga-group-eyebrows-left" transform="matrix(1,0,0,1,0,0)"><path id="SvgjsPath85901" d="M68.1 77.9c1.1 0 2.4-.3 3.5-.4 1.2-.1 2-.5 3.2-.1.5-.1 1.1-.1 1.6-.2.8-.2 1.3-.3 2.1-.1 1.1-.3 2.3-.5 3.5-.5 1.5-.1 3.2-.4 4.7 0h.1c.1 0 .1-.1.2-.1.2-.1.4 0 .5.1 0 0 .1 0 .1-.1.1-.1.3-.1.4 0h.2c.1-.1.1-.2.2-.3.3-.3.8.1.6.4-.1.1-.1.2-.2.3v.2c-.1.3-.2.6-.2.9.5-.4.9-.8 1.4-1.2.2-.1.4.1.3.2 0 .1-.1.2-.2.4.1-.1.3-.1.4-.1.1 0 .2 0 .3-.1.3-.1.6 0 .8-.1h.2c.1-.1.2-.2.3-.2.3-.2.6.2.5.5-.2.3-.3.6-.5.9v.1c.7 1.3.2 3.1-.3 4.5.1.3 0 .6-.3.8-.1.3-.4.4-.6.4-.3.3-.8.4-1.3.5-.6.3-1.1.4-1.7.4-.7.2-1.4.3-2.1.3h-1.2c-.1 0-.2 0-.4-.1-.8.7-2.2.7-3.1 0-.8 0-1.5-.1-2.2-.2-.8-.1-1.8-.2-2.7-.4-1.1.4-2.6.2-3.7-.5-.6.3-1.4.1-2 0-.1 0-.2-.1-.3-.1h-.1c-.7-.1-1.5-.2-2.2-.3-.5-.1-.7-.6-.7-1-.1-1.3-.2-2.6-.2-3.9.1-.4.6-.9 1.1-.9z" fill="#fef6e1" stroke-width="none" opacity="1"></path><path id="SvgjsPath85902" d="M88.7 84.8c.7-.9 1.6-1.5 2.2-2.5.6-1 .9-2 1.2-3.1.1-.2.4-.2.4.1 0 2.1-1.3 5.2-3.5 5.9-.3.1-.4-.2-.3-.4zm-1.8-.2c2-2.2 3.5-4.2 4.4-7.1.1-.3.5-.2.4.1-.5 2.8-2.1 5.8-4.5 7.4-.2.2-.5-.2-.3-.4zm-2 .3c.8-1.3 1.5-2.7 2-4.2.4-1.4.4-2.7.6-4.1 0-.2.4-.2.5 0 .9 2.7-1.1 6.5-2.8 8.5-.1.1-.4 0-.3-.2zm-1.6.1c1.6-2.5 2.6-5.3 3.8-8 .1-.1.3 0 .2.1-.3 1.7-.9 3.3-1.6 4.9-.5 1.2-.9 2.5-2 3.3-.3.2-.6 0-.4-.3zm-1.7-.1c1.1-2.7 1.7-5.5 1.6-8.4 0-.5.7-.5.7 0 .1 3-.5 5.9-2 8.5-.1.2-.4.1-.3-.1zm-3-7.5c1.8 1.6 2.3 5.3 1.5 7.5-.1.2-.3.1-.3 0 0-1.3.1-2.6-.2-3.9-.3-1.2-.9-2.2-1.3-3.3-.1-.3.1-.4.3-.3zm-3 .6c1.3 1.9 1.2 4.6.7 6.7 0 .2-.3.1-.3 0 0-2.3 0-4.3-.8-6.5-.1-.2.3-.4.4-.2zm-6.9.9c1.1.7 2.1 1.7 2.9 2.8.5.7 1.7 1.9 1.6 2.8 0 .1-.1.2-.2.2h-.1c-.1 0-.1-.1-.1-.2v-.1c0-.1.1-.1.1-.2-.1 0-.2-.1-.2-.1-.1-.2-.2-.3-.2-.4l-.3-.6c-.4-.6-.8-1.1-1.2-1.6-.5-.6-1.1-1.1-1.6-1.6.9 1.2 2.1 2.7 2 4.2 0 .2-.2.2-.3 0-.4-1.6-1.4-2.9-2.2-4.4-.1-.1 0-.2.1-.2-.1-.2-.3-.3-.4-.5-.1 0 0-.2.1-.1z" fill="#fffefb" stroke-width="none" opacity="1"></path><path id="SvgjsPath85903" d="M88.1 85.4c1.3-.1 2.5-.4 3.6-1.1v.5c0 .2.3.3.4.1.4-1.1.5-2.3.6-3.5.1-1.4.1-2.8 0-4.3.2-.1.1-.5-.1-.5-.5 0-1 .1-1.6.2-.2 0-.4 0-.6.1l.3-.6c.1-.3-.3-.5-.4-.2-.2.4-.5.8-.7 1.2-.3.4-.6.7-.8 1-.1.1-.1.2 0 .3l.1.1c.1.1.3 0 .4-.1.3-.3.6-.6.8-1 .3.1.6 0 1-.1.5-.1.9-.1 1.4-.3v.2c-.1-.1-.3-.1-.3 0-.7 1.3-1.1 2.8-1.8 4.1-.7 1.2-1.7 2.2-2.6 3.3-.5 0-1.1 0-1.6.1h-2.8c1.8-2.4 3-5.4 3.7-8.3.6-.1 1.2-.1 1.8-.2l-.3.3c-.3.4-.7.8-.7 1.3 0 .2.3.3.5.2.3-.3.4-.8.7-1.1.2-.4.6-.7.9-1.1.2-.2-.1-.5-.3-.4-.1.1-.3.2-.4.3h-.1c-3.6-.4-7.5.1-11.1.4-3.5.3-7.1.7-10.6 1.2-.3 0-.3.3-.3.5-.1 0-.2.1-.2.2-.4 1.7-.3 3.7.3 5.3-.1.2-.1.4.2.5 4.2 1 8.6 1.4 12.9 1.5v.1c-.1.2.3.3.4.2.1-.1.1-.2.2-.3h.4c2.2.2 4.4.1 6.7-.1zm3.6-1.7c-.9.7-1.9 1-3 1.2 1.7-1.3 3.1-3.7 3.6-5.8-.1.7-.1 1.3-.2 1.9-.1.8-.3 1.8-.4 2.7zm-13.1-6.6s-.1.1 0 .2c.1 2.2-.2 4.3-.3 6.5 0 .2.3.3.4.1.9-2 .9-4.6.5-6.7 0 0 0-.1-.1-.1 1.3-.1 2.6-.2 3.9-.2-.3 1.5-.6 2.9-1 4.3-.4 1.3-1 2.4-1.4 3.7h-.3c-4.3-.2-8.4-.9-12.6-1.5-.1-.8-.2-1.6-.2-2.4 0-.9.1-1.8.1-2.7h.1c3.6-.5 7.2-.9 10.9-1.2zm4.1 7.9h-1.4c1.3-2.3 1.9-5.4 2.1-8.1 1.1-.1 2.1-.1 3.2-.2-.9 2.9-2.2 5.4-3.8 8-.1.1-.1.2-.1.3z" fill="#efe1bc" stroke-width="none" opacity="1"></path></g></g></g><g id="svga-group-eyebrows-right-move" transform="matrix(1,0,0,1,0,0)"><g id="svga-group-eyebrows-right-rotate" transform="matrix(1,0,0,1,0,0)"><g id="svga-group-eyebrows-right" transform="matrix(1,0,0,1,0,0)"><path id="SvgjsPath85904" d="M131.9 77.9c-1.1 0-2.4-.3-3.5-.4-1.2-.1-2-.5-3.2-.1-.5-.1-1.1-.1-1.6-.2-.8-.2-1.3-.3-2.1-.1-1.1-.3-2.3-.5-3.5-.5-1.5-.1-3.2-.4-4.7 0h-.1c-.1 0-.1-.1-.2-.1-.2-.1-.4 0-.5.1 0 0-.1 0-.1-.1-.1-.1-.3-.1-.4 0h-.2c-.1-.1-.1-.2-.2-.3-.3-.3-.8.1-.6.4.1.1.1.2.2.3v.2c.1.3.2.6.2.9-.5-.4-.9-.8-1.4-1.2-.2-.1-.4.1-.3.2 0 .1.1.2.2.4-.1-.1-.3-.1-.4-.1-.1 0-.2 0-.3-.1-.3-.1-.6 0-.8-.1h-.2c-.1-.1-.2-.2-.3-.2-.3-.2-.6.2-.5.5.2.3.3.6.5.9v.1c-.7 1.3-.2 3.1.3 4.5-.1.3 0 .6.3.8.1.3.4.4.6.4.3.3.8.4 1.3.5.6.2 1.1.3 1.7.2.7.2 1.4.3 2.1.3h1.2c.1 0 .2 0 .4-.1.8.7 2.2.7 3.1 0 .8 0 1.5-.1 2.2-.2.8-.1 1.8-.2 2.7-.4 1.1.4 2.6.2 3.7-.5.6.3 1.4.1 2 0 .1 0 .2-.1.3-.1h.1c.7-.1 1.5-.2 2.2-.3.5-.1.7-.6.7-1 .1-1.3.2-2.6.2-3.9-.1-.2-.6-.7-1.1-.7z" fill="#fef6e1" stroke-width="none" opacity="1"></path><path id="SvgjsPath85905" d="M111.3 84.8c-.7-.9-1.6-1.5-2.2-2.5-.6-1-.9-2-1.2-3.1-.1-.2-.4-.2-.4.1 0 2.1 1.3 5.2 3.5 5.9.3.1.4-.2.3-.4zm1.8-.2c-2-2.2-3.5-4.2-4.4-7.1-.1-.3-.5-.2-.4.1.5 2.8 2.1 5.8 4.5 7.4.2.2.5-.2.3-.4zm2 .3c-.8-1.3-1.5-2.7-2-4.2-.4-1.4-.4-2.7-.6-4.1 0-.2-.4-.2-.5 0-.9 2.7 1.1 6.5 2.8 8.5.1.1.4 0 .3-.2zm1.6.1c-1.6-2.5-2.6-5.3-3.8-8-.1-.1-.3 0-.2.1.3 1.7.9 3.3 1.6 4.9.5 1.2.9 2.5 2 3.3.3.2.6 0 .4-.3zm1.7-.1c-1.1-2.7-1.7-5.5-1.6-8.4 0-.5-.7-.5-.7 0-.1 3 .5 5.9 2 8.5.1.2.4.1.3-.1zm3-7.5c-1.8 1.6-2.3 5.3-1.5 7.5.1.2.3.1.3 0 0-1.3-.1-2.6.2-3.9.3-1.2.9-2.2 1.3-3.3.1-.3-.1-.4-.3-.3zm3 .6c-1.3 1.9-1.2 4.6-.7 6.7 0 .2.3.1.3 0 0-2.3 0-4.3.8-6.5.1-.2-.3-.4-.4-.2zm6.9.9c-1.1.7-2.1 1.7-2.9 2.8-.5.7-1.7 1.9-1.6 2.8 0 .1.1.2.2.2h.1c.1 0 .1-.1.1-.2v-.1c0-.1-.1-.1-.1-.2.1 0 .2-.1.2-.1.1-.2.2-.3.2-.4l.3-.6c.4-.6.8-1.1 1.2-1.6.5-.6 1.1-1.1 1.6-1.6-.9 1.2-2.1 2.7-2 4.2 0 .2.2.2.3 0 .4-1.6 1.4-2.9 2.1-4.4.1-.1 0-.2-.1-.2.1-.2.3-.3.4-.5.2 0 .1-.2 0-.1z" fill="#fffefb" stroke-width="none" opacity="1"></path><path id="SvgjsPath85906" d="M118.7 85.6h.4c.1.1.1.2.2.3.1.2.5.1.4-.2v-.1c4.3-.1 8.8-.5 12.9-1.5.3-.1.3-.3.2-.5.6-1.6.7-3.7.3-5.3 0-.1-.1-.2-.2-.2.1-.2 0-.4-.3-.5-3.5-.5-7.1-.9-10.6-1.2-3.6-.3-7.5-.8-11.1-.4h-.1c-.1-.1-.2-.2-.4-.3-.2-.2-.5.2-.3.4.3.3.6.7.9 1.1.2.3.4.8.7 1.1.2.2.5.1.5-.2 0-.5-.4-1-.7-1.3l-.3-.3c.6.1 1.2.2 1.8.2.7 2.9 1.9 5.9 3.7 8.3h-2.8c-.5 0-1.1 0-1.6-.1-.8-1.1-1.8-2.1-2.6-3.3-.8-1.3-1.2-2.7-1.8-4.1-.1-.1-.2-.1-.3 0v-.2c.5.1.9.2 1.4.3.3.1.7.1 1 .1.2.4.5.7.8 1 .1.1.2.1.4.1l.1-.1c.1-.1.1-.2 0-.3-.2-.4-.6-.7-.8-1-.3-.4-.5-.8-.7-1.2-.2-.3-.5 0-.4.2l.3.6c-.2 0-.4 0-.6-.1-.5-.1-1-.2-1.6-.2-.3 0-.3.3-.1.5-.1 1.4-.1 2.8 0 4.3.1 1.2.1 2.4.6 3.5.1.2.4.1.4-.1v-.5c1 .7 2.2 1 3.6 1.1 2.2.1 4.4.2 6.7.1zm-10.8-4.7c-.1-.7-.1-1.3-.2-1.9.5 2.1 1.9 4.5 3.6 5.8-1.1-.1-2.1-.4-3-1.2-.1-.8-.3-1.8-.4-2.7zm24.5-2.6h.1c0 .9.2 1.8.1 2.7 0 .8-.1 1.6-.2 2.4-4.2.6-8.3 1.3-12.6 1.5h-.3c-.5-1.2-1-2.4-1.4-3.7-.4-1.4-.7-2.9-1-4.3 1.3.1 2.6.1 3.9.2 0 0 0 .1-.1.1-.4 2.1-.4 4.7.5 6.7.1.2.4.1.4-.1-.1-2.2-.4-4.3-.3-6.5v-.2c3.6.3 7.2.7 10.9 1.2zm-15.1 6.4c-1.6-2.6-2.9-5.2-3.8-8 1.1.1 2.1.1 3.2.2.1 2.6.7 5.7 2.1 8.1h-1.4c-.1-.1-.1-.2-.1-.3z" fill="#efe1bc" stroke-width="none" opacity="1"></path></g></g></g><g id="svga-group-beardwrap" transform="matrix(1,0,0,1,0,0)"><g id="svga-group-beard-single-move" transform="matrix(1,0,0,1,0,0)"><g id="svga-group-beard-single" transform="matrix(1,0,0,1,0,0)"><path id="SvgjsPath86207" d="M121.53 116.89c-1.14-2.08-5.49-1.89-9.92-.73-4.43 1.15-7.67 1.83-12.1 1.94-4.77.12-11.37-1.27-15.35-1.73s-7.07-.3-7.41 2.59.37 7.11.37 7.11l.23-1.15s.43 4.89.54 6.96c.11 2.08 1.86 5.4 3.09 7.42 1.1 1.81 4.07 4.82 6.73 6.27 2.9 1.58 7.71 3.39 12.48 3.28 4.77-.12 9.05-1.47 10.69-2.51 7.59-4.82 10.15-11.27 10.15-11.27l.11.69s.57-1.27.8-4.16c.24-2.88.73-12.63-.41-14.71zm-3.36 18.95c-.85 1.43-3.88 5.52-6.29 7.07-3.29 2.12-8.63 3.28-8.86 2.59s-.11-3.91-.34-4.49c-.23-.58-4.04-.55-4.73-.09s.15 4.57-.77 4.57-5.2-.79-7.96-2.29-6.91-6-8.17-8.89-1.84-13.04-1.96-14.66 3.8-1.27 9.44-.23 12.54.96 12.54.96 3.01.16 10.15-1.69 7.18-1.26 8.33-.11.94 13.38-1.38 17.26z" fill="#fef6e1" stroke-width="none" opacity="1"></path></g></g></g><g id="svga-group-mustache-single-move" transform="matrix(1,0,0,1,0,0)"><g id="svga-group-mustache-single" transform="matrix(1,0,0,1,0,0)"></g></g><g id="svga-group-nose-single-move" transform="matrix(1,0,0,1,0,0)"><g id="svga-group-nose-single" transform="matrix(1,0,0,1,0,0)"><path id="SvgjsPath86079" d="M108.82 114.55c-.68.35-1.95-.3-2.8-.12-.85.18-3.92 2.8-4.86 3.1-.94.3-2.83-.49-4.22-1.49-1.4-1-3.04-1.73-3.98-1.61-.94.12-2.86.27-3.16-1.19-.3-1.46 1.03-3.77 1.73-4.68.7-.91 1.32-1.79 1.9-2.22.59-.42 5.18-1.67 8.7-.94 3.53.73 4.68 1.98 5.87 3.44 1.19 1.45 2.28 4.95.82 5.71z" fill="#f6e4e2" stroke-width="none" opacity="1" transform="translate(0 1)" stroke="none"></path><path id="SvgjsPath86080" d="M93.36 106.28c-1.54 1.31-5.19 5.71-3.47 7.9.26.33.59.51.99.6 1.42.33 2.5-.24 3.96.48 1.73.86 3.1 2.49 5.1 2.76 1.63.23 2.75-.66 3.93-1.64.64-.53 1.36-1.25 2.21-1.42.64-.13 1.35.24 1.97.27.48.02.83.03 1.22-.28.9-.72.69-2.13.45-3.09-.47-1.93-1.5-3.67-3.03-4.92a.212.212 0 0 0-.3.3c1.04 1.29 1.99 2.66 2.47 4.27.36 1.23.81 2.6-1.15 2.71-.35.02-.81-.23-1.2-.22-.9.03-1.68.5-2.38 1.01-1.9 1.39-3.2 2.86-5.69 1.52-1.99-1.07-3.45-2.76-5.87-2.51-.4.07-.79.13-1.19.18-1.11-.53-1.49-1.27-1.14-2.24.17-.75.53-1.49.86-2.18.62-1.27 1.5-2.32 2.34-3.44.03-.04-.04-.09-.08-.06z" fill="#c8837c" stroke-width="none" opacity="1" transform="translate(0 1)" stroke="none"></path><path id="SvgjsPath86081" d="M93.93 108.29c-.24 3.02 2.33 5.74 5.42 5.4a.15.15 0 0 0 0-.3c-2.87-.33-4.95-2.2-5.31-5.1-.01-.07-.1-.08-.11 0z" fill="#c8837c" stroke-width="none" opacity="1" transform="translate(0 1)" stroke="none"></path><path id="SvgjsPath86082" d="M102.14 105.4c-1.12-.46-2.36-.67-3.57-.54-.92.1-2.35.65-2.03 1.85.4 1.55 2.5 1.37 3.72 1.73 1.33.39 1.81 1.66 2.97 2.26.42.22.96.19 1.3-.17 1.84-1.91-.61-4.39-2.39-5.13z" fill="#fef7f6" stroke-width="none" opacity="1" transform="translate(0 1)" stroke="none"></path></g></g><g id="svga-group-hair-front" transform="matrix(1,0,0,1,0,0)"><path id="SvgjsPath86124" d="M122.8 58.9s-3 5.8-16.6 7.4-22 .1-33.2 5.4C61.8 77 62.5 91.6 62.8 96.9c.2 5.3.5 9.6-2.2 10.3-2.6.7-4.6-7.3-5-27.4-.5-23.6 3-27.2 11.8-35.4s24.3-13.2 42.5-10.6 16.5 9.1 16.5 9.1 3.1-2.9 6.7.2 9.8 12 11 22.5 0 34.7-.5 37.5c-.5 2.9-5 2.2-5.3 0-.2-2.2.5-20.3-1.2-23.9s-6.2-7.4-9.8-11.5c-3.7-4-4.5-8.8-4.5-8.8z" fill="#fef6e1" stroke-width="none" opacity="1" stroke="none"></path><path id="SvgjsPath86125" d="M124.4 49.3c0 22.1-33.3 15.1-47.2 18.8-13.7 3.7-17.3 19.7-14.7 32 0 .2.4.2.4-.1-.6-9.8-.4-19.8 7.7-26.7 7.2-6.2 18.5-4.8 27.3-5.7 11.8-1.2 27.5-3 26.8-18.4.1-.2-.3-.2-.3.1zm.8-6.2c-1.8 19.3-31.3 17.1-44.8 20.8-11 3-23.1 11.1-22.2 24 0 .3.4.3.4 0 1.6-20.5 23.5-23.7 39.8-26 10.9-1.6 27.5-4.7 27.6-18.8-.1-.5-.8-.5-.8 0zm.5-.3c-5.8 5.6-15.8 6.5-23.4 8-8.4 1.7-16.9 3.4-25 6.5-10.9 4.1-24.5 13-21.7 26.7.1.3.6.2.5-.1C55 65 75.3 58 90.3 54.4c6.9-1.7 14-2.9 20.9-4.6 5.2-1.3 11.1-2.3 14.6-6.8.2-.1 0-.3-.1-.2zm-.7-1.1c-14.4-8.4-35.6-1.5-49.2 5.8-12.8 7-24.1 20.9-20.4 36.3.1.2.4.1.4-.1-2.5-16.5 8.5-29.6 22.7-36.5 14.4-7 31-10.7 46.4-5.1.2.1.3-.3.1-.4zm1.5.1c-4.1-5.5-10.4-7-17-7.6-8.8-.8-17.8-.3-26.3 2.2-13.6 4.1-26 14.6-27.9 29.4 0 0 .1.1.1 0 3.1-14.2 14.3-24.4 28.1-28.5 7-2.1 14.5-2.6 21.8-2.3 7.5.3 15.4 1.2 20.7 7.1.2.4.7 0 .5-.3zm-2.9 15.4c-.6 6.8 4.8 11.5 8.8 16.3 7 8.4 6 17.3 5.9 27.5 0 .4.6.5.7.1 1.2-6.8 1.5-14.8-1.2-21.3-3.5-8.5-13-12.8-13.8-22.6 0-.2-.4-.2-.4 0zm1.4-7.3c2.2 3.4 5.5 5.8 8.3 8.8 3.6 3.8 6.2 8.3 7.9 13.3 3.2 9.7 2.1 19.4 2 29.4 0 .2.3.3.4.1 1.8-9.6 1.5-20.4-1.6-29.7-3.2-9.5-10-15.1-16.7-22-.2-.2-.4 0-.3.1zm1-6.9c9.2.9 12.3 10.2 14.8 17.7 2.1 6.2 3 12.5 4.4 18.8.1.2.4.2.4-.1-.3-8.5-3.1-17.3-6.3-25.1-2.4-5.8-6.2-12.1-13.3-11.8-.3.1-.3.5 0 .5z" fill="#efe1bc" stroke-width="none" opacity="1" stroke="none"></path><path id="SvgjsPath86126" d="M122.3 47.8c-11.7 10.4-26.5 9.4-40.8 12.8-10 2.4-19.9 7.9-22.5 18.5-.1.3.3.4.4.1 8.9-27.4 47.4-11.8 63.1-31.2.1-.1-.1-.3-.2-.2zm-.5 7.1c-8.9 9.1-20.9 6.9-32 10.2-.2.1-.1.3.1.3 10.5-1.6 25.5-.2 32.1-10.4.1 0-.1-.2-.2-.1zm-.6-12.2c-16.6 6.8-37.3 5-51.8 16.5-.2.1.1.4.2.3 15.9-10.1 35.5-7.7 51.8-16.2.4-.2.2-.8-.2-.6zm-6.3-.7c-8.4.2-17.4 2.3-25.3 5-.3.1-.2.5.1.4 8.4-2.1 16.8-3.5 25.3-5.1.1 0 .1-.3-.1-.3zm-10-2.3c-3.9.2-7.8.9-11.5 2.3-.2.1-.1.4.1.3 3.8-1.1 7.5-2.1 11.4-2.5.1 0 .1-.1 0-.1zm2-3.7c-7.4-.7-14.9.6-21.6 4-.2.1-.1.4.2.3 6.9-2.8 13.9-4.2 21.4-4.1.1-.1.1-.2 0-.2zm19.5 10.2c3 7.9 11.6 11.6 14.8 19.6.1.2.4.1.3-.1-2-8.3-11.2-12.2-14.8-19.6-.1-.2-.3-.1-.3.1zm-.6 10.7c2 11.1 14 16.9 15.3 28.4 0 .1.2.1.2 0-.6-11.5-12.4-17.7-15.3-28.4-.1-.1-.2-.1-.2 0zm16.3 47.1c.7-2.9.8-5.8.6-8.8 0-.3-.4-.3-.4 0-.1 2.9-.4 5.8-.6 8.7-.1.3.3.3.4.1zm-81.8.8c-.7-2.5-1.3-5.1-1.8-7.7 0-.2-.3-.1-.3 0 .1 2.7.6 5.3 1.6 7.8.2.3.6.2.5-.1z" fill="#fffefb" stroke-width="none" opacity="1" stroke="none"></path></g><g id="svga-group-glasses-single-move" transform="matrix(1,0,0,1,0,0)"><g id="svga-group-glasses-single" transform="matrix(1,0,0,1,0,0)"></g></g></g></g></g><rect id="svga-credit-rect" width="200" height="15" x="0" y="185" fill="#ecf0f1" opacity="0.5" style="display: none;"></rect><text id="svga-credit-text" font-family="Avenir Next, Roboto, Helvetica, Arial, sans-serif" font-size="10px" text-anchor="start" font-weight="400" size="10px" anchor="start" weight="400" fill="#333333" x="33.40447998046875" y="182.60824704170227" style="display: none;"><tspan id="SvgjsTspan85435" dy="13" x="33.40447998046875">Created on AvatarMaker.com</tspan></text></g></svg>