<svg xmlns="http://www.w3.org/2000/svg" version="1.1" width="600px" height="600px" viewBox="0 0 200 200" style="overflow:hidden!important;"><defs id="SvgjsDefs3323"></defs><g id="svga-group-wrapper"><g id="svga-group-backs-single"><path id="SvgjsPath7292" d="M0 0h200v200H0V0z" fill="#45ada8" stroke-width="none" opacity="1"></path><path id="SvgjsPath7293" d="M96.9 141.1c-19.9 0-36.1-16.2-36.1-36.1S77 69 96.9 69 133 85.2 133 105s-16.2 36.1-36.1 36.1zm35 15.3c-6.7 0-12.2-5.5-12.2-12.2 0-6.7 5.5-12.2 12.2-12.2 6.7 0 12.2 5.5 12.2 12.2 0 6.7-5.4 12.2-12.2 12.2zM27.7 117.8c-12.3 0-22.2-10-22.2-22.2s10-22.2 22.2-22.2 22.2 10 22.2 22.2-10 22.2-22.2 22.2zm-14 28.5c-.1.2-.3.4-.4.6-8.8 13.6-4.8 31.9 8.8 40.7a29.53 29.53 0 0 0 41.1-9.4l-49.5-31.9zm184.9-26.5h-.3a13.97 13.97 0 0 0 1.3 27.9h.3l-1.3-27.9z" fill="#d8f94b" stroke-width="none" opacity="1"></path><path id="SvgjsPath7294" d="M96.9 66.3c-21.4 0-38.7 17.3-38.7 38.7 0 21.4 17.3 38.7 38.7 38.7 21.4 0 38.7-17.3 38.7-38.7 0-21.3-17.3-38.7-38.7-38.7zM66.2 91.9c.5-.6 1.1-1.1 1.8-1.4a4.67 4.67 0 0 1 2.6-.2L94.3 104H71.5c-2.1 0-4.1-1-5.4-2.6s-1.7-3.8-1.2-5.9l.1-.3c.4-1.2.8-2.3 1.2-3.3zm-1 14.9c.9-1.2 2.3-1.9 3.8-1.9h25.9l-24.7 14.2c-.7.4-1.6.5-2.4.2-.8-.3-1.4-1-1.6-1.8l-1.8-6.6c-.4-1.4-.1-2.9.8-4.1zm5.7-17.6c-.7-.4-1.2-1.2-1.3-2s.2-1.7.8-2.3l4.9-4.9c.9-.9 2.1-1.4 3.3-1.4h.6c1 .1 1.9.6 2.6 1.2l13.2 23-22.6-13c-.5-.3-1-.5-1.5-.6zm11.3-10.7c-.4-.7-.5-1.6-.2-2.4.3-.8 1-1.4 1.8-1.6l6.6-1.8c.4-.1.8-.2 1.2-.2 1 0 2 .3 2.9 1 .8.6 1.4 1.4 1.6 2.4-.1.4-.2.9-.2 1.4v24.8L83.6 80.5c-.3-.4-.6-.9-.9-1.2l-.5-.8zm45.2 22.7a6.59 6.59 0 0 1-5.4 2.6H99.2l23.7-13.7c.8-.2 1.8-.1 2.6.2 1.2.5 2.2 1.6 2.5 2.9l.6 2.1c.5 2.1.1 4.3-1.2 5.9zm-3.5-14c-.1.8-.6 1.6-1.3 2-.5.1-1 .3-1.4.6l-22.6 13.1L111.7 80c.7-.7 1.6-1.1 2.6-1.2h.6c1.2 0 2.4.5 3.3 1.4l4.9 4.9c.7.4.9 1.2.8 2.1zm-12.6-8.7-.5.8c-.4.4-.7.8-.9 1.2l-12.4 21.6V77.3c0-.5-.1-.9-.2-1.4.3-.9.8-1.8 1.6-2.4a4.27 4.27 0 0 1 4.1-.8l6.6 1.8c.8.2 1.5.8 1.8 1.6.4.7.4 1.6-.1 2.4zM70 122.7c.2-1.3.9-2.5 2.1-3.2L95 106.3l-11.6 20.1c-1.1 1.8-2.9 3-5 3.3-2.1.3-4.2-.4-5.7-1.9l-1.5-1.5c-.9-.9-1.3-2.2-1.2-3.6zm12.8 7.2L96 107.1v23.2c0 2.1-1 4.1-2.6 5.4s-3.8 1.7-5.9 1.2l-2.1-.6c-1.3-.4-2.4-1.3-2.9-2.5-.4-1.3-.3-2.7.3-3.9zm17.3 5.8a6.59 6.59 0 0 1-2.6-5.4v-23.2l13.2 22.8c.7 1.2.8 2.6.2 3.8s-1.6 2.2-2.9 2.5l-2.1.6c-2 .6-4.1.2-5.8-1.1zm15-5.9c-2.1-.3-3.9-1.5-5-3.3l-11.6-20.1 22.8 13.2c1.2.7 1.9 1.8 2.1 3.2.2 1.3-.3 2.7-1.2 3.6l-1.5 1.5a7.14 7.14 0 0 1-5.6 1.9zm10.6-10.5c-.8.3-1.7.3-2.4-.2l-24.7-14.2h25.9c1.5 0 2.9.7 3.8 1.9s1.2 2.7.8 4.1l-1.8 6.6c-.2.9-.8 1.5-1.6 1.8zm6.2 11.8c-7.2 0-13.1 5.9-13.1 13.1s5.8 13.1 13.1 13.1 13.1-5.9 13.1-13.1-5.8-13.1-13.1-13.1zm-10.3 8.7c.2-.2.4-.4.6-.5.2-.1.4-.1.6-.1h.3l8 4.6h-7.7c-.7 0-1.4-.3-1.8-.9-.4-.6-.6-1.3-.4-2v-.1c.1-.3.2-.7.4-1zm-.4 5c.3-.4.8-.6 1.3-.6h8.7l-8.3 4.8c-.2.1-.5.2-.8.1-.3-.1-.5-.3-.5-.6l-.6-2.2c-.2-.6-.1-1.1.2-1.5zm2-5.9c-.2-.1-.4-.4-.4-.7 0-.3.1-.6.3-.8l1.6-1.6c.3-.3.7-.5 1.1-.5h.2c.3 0 .6.2.9.4l4.5 7.7-7.6-4.4c-.3-.1-.5-.1-.6-.1zm3.8-3.7c-.1-.2-.2-.5-.1-.8.1-.3.3-.5.6-.5l2.2-.6c.1 0 .3-.1.4-.1.4 0 .7.1 1 .3.3.2.5.5.6.8 0 .1-.1.3-.1.5v8.4l-4.2-7.3c-.1-.1-.2-.3-.3-.4l-.1-.3zm15.2 7.7c-.4.6-1.1.9-1.8.9h-7.7l8-4.6c.3-.1.6-.1.9.1.4.2.7.5.9 1l.2.7c.1.6 0 1.4-.5 1.9zm-1.1-4.7c0 .3-.2.5-.4.7-.2 0-.3.1-.5.2l-7.6 4.4 4.5-7.7c.2-.2.6-.4.9-.4h.2c.4 0 .8.2 1.1.5l1.6 1.6c.1.1.2.4.2.7zm-4.3-3-.2.3c-.1.1-.2.3-.3.4l-4.2 7.3v-8.4c0-.2 0-.3-.1-.5.1-.3.3-.6.6-.8.3-.2.6-.3 1-.3.1 0 .3 0 .4.1l2.2.6c.3.1.5.3.6.5.2.3.2.6 0 .8zm-13.9 15c.1-.4.3-.9.7-1.1l7.7-4.4-3.9 6.8c-.4.6-1 1-1.7 1.1s-1.4-.1-1.9-.6l-.5-.5c-.3-.4-.5-.9-.4-1.3zm4.3 2.4 4.4-7.7v7.8c0 .7-.3 1.4-.9 1.8-.6.4-1.3.6-2 .4l-.7-.2c-.4-.1-.8-.4-1-.9-.1-.3 0-.8.2-1.2zm5.8 2c-.6-.4-.9-1.1-.9-1.8V145l4.4 7.7c.2.4.3.9.1 1.3s-.5.7-1 .9l-.7.2c-.6 0-1.3-.1-1.9-.5zm5.1-2c-.7-.1-1.3-.5-1.7-1.1l-3.9-6.8 7.7 4.4c.4.2.7.6.7 1.1.1.4-.1.9-.4 1.2l-.5.5c-.5.5-1.2.7-1.9.7zm3.6-3.6c-.3.1-.6.1-.8-.1l-8.3-4.8h8.7c.5 0 1 .2 1.3.6.3.4.4.9.3 1.4l-.6 2.2c-.2.4-.4.6-.6.7zm-114-77.3a23.9 23.9 0 1 0 0 47.8 23.9 23.9 0 0 0 0-47.8zm-19 15.7c.3-.4.7-.7 1.2-.9.3-.1.7-.2 1-.2.2 0 .4 0 .5.1L26 94.8H12c-1.3 0-2.5-.6-3.3-1.6-.8-1-1.1-2.3-.7-3.6v-.2c.2-.7.5-1.3.7-2zm-.6 9.2c.6-.7 1.4-1.1 2.3-1.1h16l-15.2 8.8c-.4.3-1 .3-1.5.1-.5-.2-.8-.6-1-1.1l-1.1-4.1c-.2-.9 0-1.9.5-2.6zm3.5-10.8c-.4-.3-.8-.7-.8-1.2-.1-.5.1-1 .5-1.4l3-3c.6-.6 1.3-.9 2.1-.9h.4c.6.1 1.2.3 1.6.8l8.1 14.1-13.9-8.1c-.4-.1-.7-.3-1-.3zm7-6.7c-.3-.4-.3-1-.1-1.5.2-.5.6-.8 1.1-1l4.1-1.1c.2-.1.5-.1.8-.1.6 0 1.2.2 1.8.6.5.4.8.9 1 1.5-.1.3-.1.6-.1.9v15.3l-7.7-13.3c-.2-.3-.4-.5-.6-.8l-.3-.5zm27.9 14.1c-.8 1-2 1.6-3.3 1.6h-14l14.6-8.4c.5-.1 1.1-.1 1.6.1.8.3 1.3 1 1.6 1.8l.3 1.3c.2 1.2 0 2.6-.8 3.6zm-2.2-8.7c-.1.5-.4 1-.8 1.2l-.9.3-14 8.1L36.7 80c.4-.4 1-.7 1.6-.8h.4c.8 0 1.5.3 2.1.9l3 3c.4.4.6.9.5 1.4zm-7.7-5.4-.3.5c-.2.2-.4.5-.6.8L28 93.7V78.4c0-.3 0-.6-.1-.9.2-.6.5-1.1 1-1.5.5-.4 1.1-.6 1.8-.6.2 0 .5 0 .8.1l4.1 1.1c.5.1.9.5 1.1 1 .2.6.1 1.1-.1 1.5zm-25.5 27.3c.1-.8.6-1.6 1.3-2l14.1-8.1-7.2 12.4c-.6 1.1-1.8 1.9-3.1 2.1-1.3.2-2.6-.3-3.5-1.2l-.9-.9c-.5-.6-.8-1.5-.7-2.3zm7.9 4.5 8.1-14.1v14.3c0 1.3-.6 2.5-1.6 3.3s-2.4 1.1-3.6.7l-1.3-.3a2.62 2.62 0 0 1-1.6-3.9zm10.6 3.5c-1-.8-1.6-2-1.6-3.3V96.8l8.1 14.1c.4.7.5 1.6.2 2.4-.3.8-1 1.3-1.8 1.6l-1.3.3c-1.2.3-2.5 0-3.6-.8zm9.3-3.6c-1.3-.2-2.4-.9-3.1-2.1l-7.2-12.4 14.1 8.1c.7.4 1.2 1.1 1.3 2 .1.8-.2 1.7-.8 2.2l-.9.9a4 4 0 0 1-3.4 1.3zm6.5-6.5c-.5.2-1 .2-1.5-.1l-15.2-8.8h15.9a2.84 2.84 0 0 1 2.8 3.6l-1.1 4.1c0 .6-.4 1.1-.9 1.2zm-33.5 40.8c-.1.2-.3.4-.4.6a31.59 31.59 0 0 0 9.4 43.6c14.7 9.4 34.2 5.2 43.7-9.4.1-.2.2-.4.4-.6l-53.1-34.2zm-.2 14.7c-.4-.6-.5-1.3-.3-1.9l1.7-5.3c.4-1.2 1.2-2.1 2.4-2.5s2.4-.3 3.4.4l1.7 1.1 16 10.3-23.2-1.1c-.7-.1-1.3-.5-1.7-1zm-.3 8-.4-1.7c-.2-1.1 0-2.2.8-3s1.8-1.3 2.9-1.2l21.5 1.1-16.9 8.7c-1.5.8-3.3.8-4.9.1-1.6-.9-2.7-2.3-3-4zm14.8 12a5.5 5.5 0 0 1-8.7.7l-1.2-1.3c-.7-.8-1.1-1.9-.9-3s.9-2 1.9-2.5l19.1-9.8-10.2 15.9zm8.7 8.9c-.9.6-2 .8-3.1.5l-1.7-.5c-1.6-.5-2.9-1.8-3.5-3.4-.6-1.6-.4-3.4.5-4.8l10.3-15.9-1 21.5c0 1-.6 2-1.5 2.6zm11-.1-1.7.4c-1.7.4-3.4-.1-4.7-1.2s-2-2.8-1.9-4.5l.9-18.9 9.8 19.1c.5 1 .5 2.1 0 3.1-.4 1-1.3 1.8-2.4 2zm7.4-3.8c-.5.5-1.2.7-1.9.5-.7-.1-1.2-.6-1.6-1.2l-10.6-20.7 16 10.3 1.7 1.1c1 .7 1.7 1.7 1.8 2.9s-.4 2.4-1.3 3.2l-4.1 3.9zm145.3-66h-.3c-8.3.4-14.7 7.4-14.3 15.7s7.4 14.7 15.7 14.3h.3l-1.4-30zm-5.7 3.9c.1-.3.4-.5.7-.6l2.5-.8c.6-.2 1.1-.1 1.6.2s.8.8.8 1.4v.9l.4 9.1-5.9-9.3c-.2-.2-.2-.6-.1-.9zm-3.2 2.1.6-.6c.4-.4.9-.6 1.4-.5.5.1 1 .3 1.3.8l5.5 8.6-8-4.1c-.7-.4-1.2-1.1-1.4-1.9-.2-.9 0-1.7.6-2.3zm-.6 9.1c-.8 0-1.6-.3-2.1-.9-.5-.6-.7-1.4-.6-2.2l.2-.8c.1-.5.4-.9.9-1.2s1-.2 1.5 0l9.1 4.7-9 .4zm-1.1 5.8c-.5-.2-.9-.6-1-1.1l-.2-.8c-.2-.8-.1-1.6.4-2.3s1.2-1.1 2-1.1l9-.4-8.6 5.5c-.5.3-1.1.4-1.6.2zm3.1 4.2-.6-.6c-.6-.6-.9-1.3-.8-2.2s.5-1.5 1.2-2l7.6-4.9-4.7 9.1c-.2.5-.7.8-1.2.9-.6.2-1.1.1-1.5-.3zm3.5 1.9c-.3-.1-.6-.3-.7-.6s-.1-.6 0-.9l5.1-9.8.4 9.1v.9c0 .6-.2 1.1-.6 1.5-.4.4-1 .5-1.6.4l-2.6-.6z" fill="#ffffff" stroke-width="none" opacity="1"></path><path id="SvgjsPath7295" d="M96.9 64.7c-22.3 0-40.4 18.1-40.4 40.4s18.1 40.4 40.4 40.4 40.4-18.1 40.4-40.4-18.1-40.4-40.4-40.4zm0 77.4c-20.5 0-37.1-16.6-37.1-37.1s16.7-37 37.1-37S134 84.6 134 105s-16.6 37.1-37.1 37.1zm35-11.5c-7.5 0-13.6 6.1-13.6 13.6s6.1 13.6 13.6 13.6 13.6-6.1 13.6-13.6-6-13.6-13.6-13.6zm0 26.1a12.5 12.5 0 1 1 0-25 12.5 12.5 0 0 1 0 25zm-104.2-86C14 70.7 2.8 81.8 2.8 95.5s11.2 24.9 24.9 24.9 24.9-11.2 24.9-24.9-11.2-24.8-24.9-24.8zm0 47.7c-12.6 0-22.9-10.3-22.9-22.9s10.3-22.9 22.9-22.9 22.9 10.3 22.9 22.9-10.3 22.9-22.9 22.9zm36.9 60.7c-.1.2-.2.4-.4.6a31.16 31.16 0 0 1-43 9.3 31.26 31.26 0 0 1-9.3-43.1c.1-.2.3-.4.4-.6l-.7-.5c-.1.2-.3.4-.4.6a31.9 31.9 0 0 0 9.6 44.2 31.9 31.9 0 0 0 44.6-10.2l-.8-.3zm135.3-30.6h-.3c-8.1.4-15.1-6-15.5-14.1s6-15.1 14.1-15.5h.3v-.4h-.3a15.2 15.2 0 1 0 1.4 30.4h.3v-.4z" fill="#8ab21b" stroke-width="none" opacity="1"></path><path id="SvgjsPath7296" d="M145.5 195.1a17.61 17.61 0 0 1-9.1-23.1c3.9-8.9 14.2-12.9 23.1-9.1s12.9 14.2 9.1 23.1a17.7 17.7 0 0 1-23.1 9.1zM48.9 87c-8.9-3.8-13-14.2-9.1-23.1S54 51 62.9 54.8 75.8 69 72 77.9 57.8 90.8 48.9 87z" fill="#ffed43" stroke-width="none" opacity="1"></path><path id="SvgjsPath7297" d="M160 161.7c-9.5-4.1-20.6.2-24.8 9.8s.2 20.6 9.8 24.8 20.6-.2 24.8-9.8-.3-20.6-9.8-24.8zm-18.7 5.5c.3-.2.7-.3 1.1-.3.3 0 .6.1.8.2.1.1.2.1.4.2l7.9 10.7-10.2-4.4c-.9-.4-1.6-1.2-1.9-2.2-.2-1 0-2 .6-2.8l.1-.1c.5-.6.8-.9 1.2-1.3zm-3.3 6.4c.6-.4 1.4-.4 2-.1l1.1.5 10.4 4.5-13.8 1.6c-.4.1-.8-.1-1.1-.4-.3-.3-.4-.7-.4-1.1l.5-3.3c.3-.7.7-1.3 1.3-1.7zm5.9-6.7c-.2-.3-.3-.8-.2-1.1s.4-.7.8-.9l3.1-1.2c.6-.2 1.2-.2 1.8 0 .1 0 .2.1.3.1.4.2.7.6.9 1.1l1.5 12.8-7.6-10.2c-.2-.3-.4-.5-.6-.6zm7.1-2.6c-.1-.4.1-.8.4-1.1.3-.3.7-.4 1.1-.4l3.3.5c.2 0 .4.1.6.2.5.2.8.5 1.1 1 .2.4.3.9.3 1.4l-.3.6-4.8 11-1.4-12c0-.2-.1-.5-.2-.7l-.1-.5zm15.8 18.9a3 3 0 0 1-2.9.1l-10.2-4.4 13.2-1.5c.4.1.8.3 1.1.6.5.5.7 1.1.6 1.8l-.1 1c-.2 1-.8 1.9-1.7 2.4zm1.2-7c-.2.4-.6.6-1 .6-.2 0-.5-.1-.8 0l-12.6 1.4 10.3-7.6c.4-.2.9-.2 1.4-.1.1 0 .2.1.3.1.6.2 1 .7 1.2 1.3l1.2 3.1c.2.5.2.9 0 1.2zm-3.9-6.3-.4.3c-.2.1-.4.2-.6.4l-9.7 7.2 4.8-11c.1-.2.2-.4.2-.6.3-.4.7-.6 1.2-.7.5-.1 1-.1 1.5.1.2.1.4.2.5.3l2.6 2.1c.3.3.5.6.5 1.1-.1.2-.3.6-.6.8zm-27 11.8c.3-.6.9-.9 1.6-1l12.7-1.5-9.1 6.7c-.8.6-1.9.8-2.9.5s-1.8-1-2.1-1.9l-.4-1c-.2-.6-.2-1.3.2-1.8zm4.3 5.7 10.3-7.6-4.5 10.4c-.4.9-1.2 1.6-2.2 1.9-1 .2-2 0-2.8-.6l-.8-.6c-.5-.4-.8-1-.8-1.7-.1-.8.3-1.4.8-1.8zm6.6 5.9a3 3 0 0 1-.1-2.9l4.5-10.4 1.5 12.7c.1.7-.1 1.3-.6 1.8s-1.1.7-1.8.6l-1-.1c-1.2-.2-2-.8-2.5-1.7zm7.8.2c-.9-.5-1.4-1.4-1.6-2.4l-1.3-11.2 7.6 10.3c.4.5.5 1.2.3 1.8s-.6 1.1-1.2 1.4l-1 .4c-.9.3-1.9.2-2.8-.3zm6.8-2.6c-.4 0-.8-.2-1-.5l-8.2-11.1 10.4 4.5 1.1.5c.7.3 1.1.9 1.3 1.6.2.7 0 1.4-.4 2l-2.1 2.6c-.3.3-.7.4-1.1.4zM63.4 53.7c-9.5-4.1-20.6.2-24.8 9.8s.2 20.6 9.8 24.7S69 88 73.2 78.4c4.1-9.5-.3-20.6-9.8-24.7zm-18.6 5.4c.3-.2.7-.3 1.1-.3.3 0 .6.1.8.2.1.1.2.1.4.2L55 69.9l-10.2-4.4c-.9-.4-1.6-1.2-1.9-2.2-.2-1 0-2 .6-2.8l.1-.1c.4-.5.8-.9 1.2-1.3zm-3.3 6.5c.6-.3 1.4-.4 2-.1l1.1.5L55 70.5 41.3 72c-.4.1-.8-.1-1.1-.4-.3-.3-.4-.7-.4-1.1l.5-3.3c.1-.7.5-1.3 1.2-1.6zm5.9-6.8c-.2-.3-.3-.8-.2-1.2s.4-.7.8-.9l3.1-1.2c.6-.2 1.2-.2 1.8 0 .1 0 .2.1.3.1.4.2.7.6.9 1.1l1.5 12.7L48 59.2c-.2-.1-.4-.2-.6-.4zm7.1-2.6c0-.4.1-.8.4-1.1.3-.3.7-.4 1.1-.4l3.3.5c.2 0 .4.1.6.2.5.2.8.5 1.1 1 .2.4.3.9.3 1.4l-.3.6-4.8 11-1.4-12c0-.2-.1-.5-.2-.7l-.1-.5zm15.7 18.9a3 3 0 0 1-2.9.1l-10.2-4.4 13.2-1.5c.4.1.8.3 1.1.6.5.5.7 1.1.6 1.8l-.2 1c-.1 1-.7 1.9-1.6 2.4zm1.2-6.9c-.2.3-.6.6-1 .6-.2 0-.5-.1-.8 0L57 70.2l10.3-7.6c.4-.2.9-.2 1.4 0 .1 0 .2.1.3.1.6.2 1 .7 1.2 1.3l1.2 3.1c.3.3.2.7 0 1.1zm-3.9-6.4-.4.3c-.2.1-.4.2-.7.4l-9.7 7.2 4.8-11c.1-.2.2-.4.2-.7.3-.4.7-.6 1.2-.7.5-.1 1-.1 1.5.1.2.1.4.2.5.3l2.6 2.1c.3.3.5.6.5 1s-.2.8-.5 1zm-27 11.8c.3-.6.9-.9 1.6-1l12.7-1.5-9.1 6.7c-.8.6-1.9.8-2.9.5-1-.3-1.8-1-2.2-1.9l-.4-1c-.1-.6 0-1.3.3-1.8zm4.3 5.7 10.3-7.6L50.6 82c-.4.9-1.2 1.6-2.2 1.9-1 .2-2 0-2.8-.6l-.8-.7a2.09 2.09 0 0 1 0-3.3zm6.6 5.9c-.5-.9-.5-2-.1-2.9l4.5-10.4 1.5 12.7c.1.7-.2 1.3-.6 1.8s-1.1.7-1.8.6l-1-.2c-1.1-.1-2-.7-2.5-1.6zm7.8.2c-.9-.5-1.5-1.4-1.6-2.4l-1.3-11.2L64 82.1c.4.5.5 1.2.3 1.8-.2.6-.6 1.1-1.2 1.4l-1 .4c-.9.4-2 .3-2.9-.3zm6.8-2.6c-.4 0-.8-.2-1-.5l-8.2-11.1 10.4 4.5 1.1.5c.7.3 1.1.8 1.3 1.6.2.7 0 1.4-.4 2L67 82.3c-.2.4-.6.6-1 .5z" fill="#ffffff" stroke-width="none" opacity="1"></path><path id="SvgjsPath7298" d="M160.3 161c-9.9-4.3-21.5.3-25.8 10.2-4.3 9.9.3 21.5 10.2 25.8 9.9 4.3 21.5-.3 25.8-10.2 4.3-9.9-.3-21.5-10.2-25.8zm-15 34.5c-9.1-4-13.3-14.6-9.4-23.7 4-9.1 14.6-13.3 23.7-9.4 9.1 4 13.3 14.6 9.4 23.7a17.93 17.93 0 0 1-23.7 9.4zM63.7 52.9c-9.9-4.3-21.5.3-25.8 10.2s.3 21.5 10.2 25.8 21.5-.3 25.8-10.2-.3-21.5-10.2-25.8zm-15 34.5c-9.1-4-13.3-14.6-9.4-23.7S54 50.4 63.1 54.4 76.4 69 72.4 78.1a17.94 17.94 0 0 1-23.7 9.3z" fill="#d3b400" stroke-width="none" opacity="1"></path><path id="SvgjsPath7299" d="M160.6 73.3c-18.8 0-34.1-15.3-34.1-34.1s15.3-34.1 34.1-34.1 34.1 15.3 34.1 34.1-15.3 34.1-34.1 34.1zM83.5 182.1c-12.5 0-22.7-10.2-22.7-22.7s10.2-22.7 22.7-22.7 22.7 10.2 22.7 22.7-10.1 22.7-22.7 22.7zm89.2-52.6-.6.3c-13.3 7-18.4 23.4-11.4 36.7 7 13.3 23.4 18.4 36.7 11.4l.6-.3-25.3-48.1z" fill="#ffcb39" stroke-width="none" opacity="1"></path><path id="SvgjsPath7300" d="M160.6 2.7c-20.2 0-36.6 16.4-36.6 36.6s16.4 36.6 36.6 36.6 36.6-16.4 36.6-36.6c-.1-20.2-16.4-36.6-36.6-36.6zm-29 24.2a3.9 3.9 0 0 1 4.1-1.6l22.4 12.9h-21.5a6.4 6.4 0 0 1-6.2-8l.1-.3c.3-1.1.6-2.1 1.1-3zm-1 14c.9-1.1 2.1-1.8 3.6-1.8h24.4l-23.3 13.5c-.7.4-1.5.5-2.3.2-.7-.3-1.3-.9-1.5-1.7l-1.7-6.3c-.3-1.3 0-2.8.8-3.9zm5.4-16.6c-.7-.4-1.1-1.1-1.3-1.9-.1-.8.2-1.6.7-2.1l4.6-4.6c.9-.9 2-1.3 3.2-1.3h.6c.9.1 1.8.5 2.5 1.2l12.5 21.6-21.4-12.3c-.4-.3-.9-.4-1.4-.6zm10.6-10.1c-.4-.7-.4-1.5-.1-2.3.3-.7.9-1.3 1.7-1.5l6.3-1.7c.4-.1.8-.2 1.2-.2 1 0 1.9.3 2.7.9.8.6 1.3 1.4 1.6 2.2-.1.4-.2.9-.2 1.3v23.4L148 16.1c-.2-.4-.6-.8-.9-1.1l-.5-.8zm42.8 21.5a6.35 6.35 0 0 1-5.1 2.5h-21.5l22.3-12.9a4.04 4.04 0 0 1 4.8 2.9l.5 2c.6 1.9.2 3.9-1 5.5zm-3.3-13.3c-.1.8-.6 1.5-1.3 1.9-.5.1-.9.3-1.4.5L162 37.1l12.5-21.6c.7-.6 1.5-1.1 2.5-1.2h.6c1.2 0 2.3.5 3.2 1.3l4.6 4.6c.5.6.8 1.4.7 2.2zm-11.9-8.2-.4.8c-.3.3-.6.7-.9 1.2l-11.8 20.4V13.1c0-.4-.1-.9-.2-1.3.3-.9.8-1.7 1.6-2.2.8-.6 1.8-.9 2.7-.9.4 0 .8.1 1.2.2l6.3 1.7c.8.2 1.4.8 1.7 1.5.2.6.2 1.4-.2 2.1zm-39 41.8c.2-1.3.9-2.4 2-3l21.6-12.5-11 19a6.2 6.2 0 0 1-4.7 3.1c-2 .3-3.9-.4-5.3-1.8l-1.4-1.4c-1-.9-1.4-2.2-1.2-3.4zm12.1 6.8 12.5-21.6v22c0 2-.9 3.8-2.5 5.1s-3.6 1.6-5.5 1.1l-1.9-.5c-1.2-.3-2.2-1.2-2.7-2.4-.7-1.3-.6-2.6.1-3.7zm16.3 5.4a6.35 6.35 0 0 1-2.5-5.1V41.2l12.5 21.6c.6 1.1.7 2.4.2 3.6s-1.5 2.1-2.7 2.4l-1.9.5c-2 .5-4 .1-5.6-1.1zm14.1-5.6c-2-.3-3.7-1.4-4.7-3.1l-11-19L183.6 53a4.02 4.02 0 0 1 .8 6.4l-1.4 1.4a6.13 6.13 0 0 1-5.3 1.8zm10.1-9.8c-.7.3-1.6.2-2.3-.2l-23.3-13.5h24.4a4.57 4.57 0 0 1 4.4 5.7l-1.7 6.3c-.2.8-.8 1.4-1.5 1.7zM83.5 135c-13.5 0-24.4 10.9-24.4 24.4 0 13.5 10.9 24.4 24.4 24.4 13.5 0 24.4-10.9 24.4-24.4 0-13.5-10.9-24.4-24.4-24.4zm-19.3 16.1c.3-.4.7-.7 1.1-.9.3-.1.7-.2 1.1-.2.2 0 .4 0 .6.1l14.9 8.6H67.5c-1.3 0-2.6-.6-3.4-1.7-.8-1.1-1.1-2.4-.7-3.7v-.2c.3-.7.5-1.4.8-2zm-.6 9.4c.6-.7 1.4-1.2 2.4-1.2h16.3l-15.5 9c-.5.3-1 .3-1.5.1-.5-.2-.9-.6-1-1.1l-1.1-4.2c-.4-.9-.2-1.9.4-2.6zm3.6-11.1c-.5-.3-.8-.7-.8-1.2s.1-1.1.5-1.4l3.1-3.1c.6-.6 1.3-.9 2.1-.9h.4c.6.1 1.2.4 1.7.8l8.3 14.4-14.2-8.2c-.5-.2-.8-.3-1.1-.4zm7-6.8c-.3-.5-.3-1-.1-1.5.2-.5.6-.9 1.1-1l4.2-1.1c.3-.1.5-.1.8-.1.7 0 1.3.2 1.8.6.5.4.9.9 1 1.5-.1.3-.1.6-.1.9v15.6l-7.8-13.6c-.2-.3-.4-.5-.6-.8l-.3-.5zm28.5 14.4c-.8 1.1-2 1.7-3.4 1.7H85l14.9-8.6a2.62 2.62 0 0 1 3.2 1.9l.3 1.3c.4 1.3.1 2.6-.7 3.7zm-2.1-8.9c-.1.5-.4 1-.8 1.2-.3.1-.6.2-.9.4L84.5 158l8.3-14.4c.4-.4 1-.7 1.7-.8h.4c.8 0 1.5.3 2.1.9l3.1 3.1c.3.3.5.8.5 1.3zm-8-5.5-.3.5c-.2.2-.4.5-.6.8l-7.8 13.6v-15.6c0-.3 0-.6-.1-.9.2-.6.5-1.1 1-1.5a3 3 0 0 1 1.8-.6c.3 0 .5 0 .8.1l4.2 1.1c.5.1.9.5 1.1 1 .2.5.2 1.1-.1 1.5zm-26 27.9c.1-.9.6-1.6 1.3-2l14.4-8.3-7.3 12.6c-.7 1.1-1.8 1.9-3.1 2.1-1.3.2-2.6-.3-3.6-1.2l-.9-.9c-.6-.6-.9-1.5-.8-2.3zm8.1 4.6 8.3-14.4v14.6c0 1.3-.6 2.6-1.7 3.4-1.1.8-2.4 1.1-3.7.7l-1.3-.4c-.8-.2-1.5-.8-1.8-1.6-.3-.7-.3-1.6.2-2.3zm10.9 3.6c-1.1-.8-1.7-2-1.7-3.4v-14.6l8.3 14.4c.4.7.5 1.6.2 2.4-.3.8-1 1.4-1.8 1.6l-1.3.4c-1.4.3-2.7 0-3.7-.8zm9.4-3.8c-1.3-.2-2.5-.9-3.1-2.1l-7.3-12.7 14.4 8.3a2.74 2.74 0 0 1 .5 4.3l-.9.9c-1 1.1-2.3 1.5-3.6 1.3zm6.7-6.5c-.5.2-1 .2-1.5-.1l-15.5-9H101c.9 0 1.8.4 2.4 1.2s.8 1.7.5 2.6l-1.1 4.2c-.3.5-.6.9-1.1 1.1zm70.1-40.7-.6.3a29.15 29.15 0 0 0-12.3 39.4 29.15 29.15 0 0 0 39.4 12.3l.6-.3-27.1-51.7zm-6.8 11.7c-.1-.6.2-1.2.6-1.7l3.8-3.5c.8-.8 1.9-1.1 3-.9s2 .9 2.6 1.9l.9 1.6 8.2 15.6-18.2-11.4c-.5-.4-.8-.9-.9-1.6zm-3.9 6.3.5-1.5a3.3 3.3 0 0 1 4.9-1.8l16.8 10.6-17.5-.7c-1.6-.1-3-.9-3.9-2.1-1-1.3-1.3-3-.8-4.5zm6.5 16.4a5.09 5.09 0 0 1-7.3-3.4l-.4-1.6c-.2-1 0-2 .7-2.8.6-.8 1.6-1.2 2.6-1.2l19.8.9-15.4 8.1zm2.9 11.1c-1 .1-2-.3-2.7-1l-1.1-1.2a5.2 5.2 0 0 1-1.3-4.3 4.9 4.9 0 0 1 2.6-3.6l15.5-8.1-10.6 16.8c-.5.8-1.4 1.3-2.4 1.4zm8.9 5-1.5-.5c-1.5-.5-2.7-1.6-3.3-3.1-.6-1.5-.4-3.1.5-4.5l9.4-14.8-.8 19.9c0 1-.5 1.9-1.4 2.5-.9.6-1.9.8-2.9.5zm7.6.3c-.6.1-1.3 0-1.8-.4s-.8-1-.7-1.6l.9-21.4 8.2 15.6.9 1.6c.5 1 .6 2.1.1 3.2s-1.4 1.7-2.5 2l-5.1 1z" fill="#ffffff" stroke-width="none" opacity="1"></path><path id="SvgjsPath7301" d="M160.6 76.3c-20.4 0-37.1-16.6-37.1-37.1s16.6-37.1 37.1-37.1 37.1 16.6 37.1 37.1c-.1 20.5-16.7 37.1-37.1 37.1zm0-73.1c-19.9 0-36.1 16.2-36.1 36.1s16.2 36.1 36.1 36.1 36.1-16.2 36.1-36.1c-.1-19.9-16.2-36.1-36.1-36.1zM83.5 184.1c-13.6 0-24.7-11.1-24.7-24.7s11.1-24.7 24.7-24.7 24.7 11.1 24.7 24.7c.1 13.6-11 24.7-24.7 24.7zm0-48.8c-13.3 0-24 10.8-24 24.1s10.8 24 24 24 24-10.8 24-24c.1-13.3-10.7-24.1-24-24.1zM198.7 179l-.6.3c-14 7.4-31.5 1.9-38.8-12.1s-1.9-31.5 12.1-38.8l.6-.3-.4-.7-.6.3c-14.4 7.6-20 25.5-12.4 39.9s25.5 20 39.9 12.4l.6-.3-.4-.7z" fill="#edb018" stroke-width="none" opacity="1"></path><path id="SvgjsPath7302" d="M141.6 107.9c.1.2.2.4.4.6 8.4 12.7 25.5 16.1 38.2 7.7s16.1-25.5 7.7-38.2c-.1-.2-.3-.4-.4-.6l-45.9 30.5zM16.3 131.7c.1.1.1.3.2.4 4.5 9.2 15.7 13.1 24.9 8.6S54.5 125 50 115.8c-.1-.1-.1-.3-.2-.4l-33.5 16.3zm67.5 40.8c-.1.1-.1.3-.2.4a18.64 18.64 0 0 0 35.5 11.3c.1-.1.1-.3.1-.4l-35.4-11.3zM185.3 38.8c.1-.1.3-.1.4-.2 8.9-5.2 11.9-16.6 6.8-25.5A18.75 18.75 0 0 0 167 6.3c-.1.1-.3.2-.4.2l18.7 32.3zM80.6 5c-.1.2-.3.4-.4.6-8.1 14.6-2.9 33 11.6 41.2s33 2.9 41.2-11.6c.1-.2.2-.4.3-.7L80.6 5z" fill="#ff9624" stroke-width="none" opacity="1"></path><path id="SvgjsPath7303" d="M140 109c.1.2.2.4.4.6 9 13.6 27.4 17.3 41 8.3 13.6-9 17.3-27.4 8.3-41-.1-.2-.3-.4-.4-.6L140 109zm12.4 5.7c-.6.1-1.3-.1-1.8-.5l-3.9-3.5c-.9-.8-1.3-1.8-1.2-3 .1-1.1.7-2.1 1.6-2.8l1.6-1 14.9-9.9-9.7 19.5c-.3.6-.8 1-1.5 1.2zm6.8 3.3-1.6-.3c-1-.2-1.9-.9-2.3-1.8s-.4-2 0-2.9l9-18 1.1 17.7c.1 1.6-.5 3.2-1.8 4.2a5.3 5.3 0 0 1-4.4 1.1zm15.9-8.3a5.12 5.12 0 0 1-2.6 7.7l-1.6.5c-1 .3-2 .2-2.9-.4s-1.4-1.5-1.5-2.5l-1.2-20.1 9.8 14.8zm10.9-4.1c.2 1-.1 2.1-.8 2.8l-1.1 1.2a5.18 5.18 0 0 1-4.2 1.7c-1.6-.1-3.1-.9-3.9-2.3l-9.8-14.8 18.1 9c.9.6 1.5 1.4 1.7 2.4zm4.1-9.5-.3 1.6c-.3 1.6-1.3 2.9-2.8 3.6s-3.1.7-4.6 0l-15.9-7.9 20.1-1.2c1-.1 2 .3 2.7 1.1.7.8 1 1.8.8 2.8zm-.5-7.7c.2.6.1 1.3-.2 1.8-.4.5-.9.9-1.6.9L166 92.4l14.9-9.9 1.6-1c.9-.6 2.1-.8 3.2-.4s1.9 1.2 2.3 2.3l1.6 5zM15.1 132.3c.1.1.1.3.2.4a20.03 20.03 0 1 0 36-17.6c-.1-.1-.1-.3-.2-.4l-36 17.6zm7.8 4.9c-.4 0-.9-.1-1.1-.5l-2.3-2.7c-.5-.6-.7-1.3-.5-2.1s.6-1.4 1.3-1.7l1.1-.6 10.9-5.3-8.3 12.3c-.2.3-.6.6-1.1.6zm4.3 2.8-1-.4c-.7-.2-1.2-.7-1.4-1.4-.2-.7-.1-1.4.3-2l7.6-11.3-.8 12c-.1 1.1-.6 2.1-1.5 2.7-1.1.6-2.2.8-3.2.4zm11.3-4.1c.5 1 .5 2.1 0 3.1s-1.4 1.7-2.5 1.9l-1.1.2c-.7.1-1.4-.1-1.9-.5-.5-.5-.8-1.1-.8-1.8l1-13.6 5.3 10.7zm7.7-1.8c0 .7-.2 1.4-.8 1.8l-.8.7c-.8.7-1.9 1-3 .8s-2-.9-2.4-1.9L34 124.8l11.3 7.6c.5.4.9 1 .9 1.7zm3.6-6-.4 1c-.4 1-1.2 1.8-2.2 2.2-1 .4-2.2.2-3.1-.4l-10-6.7 13.6.9c.7.1 1.3.4 1.7 1 .6.6.6 1.3.4 2zm.4-5.3c.1.4 0 .9-.3 1.2-.3.3-.7.5-1.2.5l-14.7-1 10.9-5.3 1.1-.6c.7-.3 1.5-.3 2.2 0 .7.3 1.2 1 1.3 1.7l.7 3.5zm32.3 49.3c-.1.1-.1.3-.2.4a19.87 19.87 0 0 0 13 25.1c10.5 3.4 21.8-2.4 25.2-13 .1-.1.1-.3.1-.4l-38.1-12.1zm2.3 9c-.3-.3-.5-.7-.5-1.1l.2-3.6c0-.8.4-1.5 1.1-1.9.6-.4 1.4-.6 2.2-.3l1.2.4 11.5 3.7-14.5 3.1c-.4.1-.8 0-1.2-.3zm1.1 5-.5-1c-.3-.6-.3-1.4 0-2 .3-.6.9-1.1 1.6-1.2l13.3-2.9-8.9 8.1c-.8.7-1.9 1.1-3 .9-1.1-.3-2-1-2.5-1.9zM97 191c-.3 1-1.1 1.9-2.1 2.2s-2.2.2-3.1-.4l-.9-.6c-.6-.4-1-1-1-1.7s.2-1.4.7-1.8l10.1-9.2L97 191zm6.8 4c-.4.5-1.1.8-1.8.8l-1.1-.1a3.55 3.55 0 0 1-3.2-4.6l3.7-11.4 2.9 13.3c.1.8-.1 1.5-.5 2zm6.7-1.9-1 .5c-1 .5-2.1.5-3.1.1-1-.5-1.7-1.4-1.9-2.4l-2.6-11.7 9.2 10.1c.5.5.7 1.2.6 1.9a2 2 0 0 1-1.2 1.5zm3.9-3.5c-.2.4-.6.6-1.1.6-.4 0-.9-.1-1.2-.4l-9.9-10.9 11.5 3.7 1.2.4c.7.2 1.3.8 1.6 1.5.3.7.2 1.5-.2 2.2l-1.9 2.9zM186 40c.1-.1.3-.1.4-.2 9.6-5.6 12.8-17.8 7.2-27.4S175.8-.4 166.2 5.2c-.1.1-.3.2-.4.2L186 40zm4.3-8.2c.1.4-.1.9-.4 1.2l-2.5 2.5c-.5.5-1.3.8-2.1.7-.8-.1-1.4-.5-1.8-1.2l-.6-1.1-6.1-10.5 12.8 7.3c.4.3.7.7.7 1.1zm2.5-4.4-.3 1.1c-.2.7-.6 1.2-1.3 1.5-.6.3-1.4.2-2-.1L177.4 23h12c1.1 0 2.1.5 2.8 1.4.7.8.9 1.9.6 3zm-4.9-11.1c.9-.6 2.1-.6 3.1-.2 1 .4 1.8 1.3 2 2.3l.3 1.1c.2.7.1 1.4-.4 1.9-.4.6-1.1.9-1.8.9h-13.6l10.4-6zm-2.3-7.5c.7-.1 1.4.1 1.9.6l.8.8c.8.8 1.1 1.8 1 2.9-.1 1.1-.8 2-1.7 2.6l-10.4 6L184 9.9c.3-.6.9-1 1.6-1.1zm-6.3-3.1 1.1.3c1.1.3 1.9 1 2.3 2 .4 1 .4 2.1-.2 3.1l-6 10.4V7.9c0-.7.3-1.3.9-1.8.5-.5 1.2-.6 1.9-.4zm-5.2 0c.4-.1.9 0 1.2.2s.6.7.6 1.1v14.7l-6.1-10.4-.6-1.1c-.4-.7-.4-1.4-.1-2.2.3-.7.9-1.2 1.6-1.4l3.4-.9zM78.7 3.9c-.1.2-.3.4-.4.6-8.8 15.7-3.2 35.5 12.5 44.2s35.4 3.2 44.2-12.5c.1-.2.2-.4.3-.7L78.7 3.9zm.7 15c-.4-.6-.6-1.3-.4-2l1.4-5.6a3.9 3.9 0 0 1 2.3-2.7c1.2-.5 2.4-.4 3.5.2l1.8 1 17.1 9.6-23.9.3c-.7.1-1.3-.2-1.8-.8zm.2 8.3-.5-1.7c-.3-1.1-.1-2.2.6-3.2s1.7-1.5 2.9-1.5l22.1-.3-16.7 10c-1.5.9-3.3 1-5 .4-1.7-.6-2.9-2-3.4-3.7zm16 11.3c-.9 1.5-2.4 2.6-4.1 2.8-1.8.3-3.5-.3-4.8-1.5l-1.3-1.2c-.8-.8-1.2-1.9-1.1-3 .1-1.1.8-2.1 1.8-2.7l19-11.3-9.5 16.9zm9.5 8.7c-.9.7-2 1-3.1.7l-1.7-.4a5.56 5.56 0 0 1-3.5-8.2l9.5-17 .3 22.1c-.1 1-.6 2.1-1.5 2.8zm11.3-.9-1.7.5c-1.7.5-3.5.2-4.9-.9s-2.2-2.7-2.3-4.5l-.3-19.4 11.3 19c.6 1 .7 2.2.2 3.2-.3 1-1.2 1.8-2.3 2.1zm7.3-4.3c-.5.5-1.2.8-1.9.7-.7-.1-1.3-.5-1.7-1.1L107.9 21l17.1 9.6 1.8 1c1.1.6 1.8 1.7 2 2.9.2 1.2-.2 2.5-1.1 3.3l-4 4.2z" fill="#ffffff" stroke-width="none" opacity="1"></path><path id="SvgjsPath7304" d="M188.9 76.6c.1.2.3.4.4.6a29.15 29.15 0 1 1-48.6 32.2c-.1-.2-.2-.4-.4-.6l-.7.4c.1.2.2.4.4.6 9.1 13.8 27.8 17.6 41.6 8.4s17.6-27.8 8.4-41.6c-.1-.2-.3-.4-.4-.6l-.7.6zM50.8 114.9c.1.1.1.3.2.4a19.74 19.74 0 1 1-35.5 17.3c-.1-.1-.1-.3-.2-.4l-.5.2c.1.1.1.3.2.4 4.9 10.1 17.1 14.2 27.1 9.3S56.3 125 51.4 115c-.1-.1-.1-.3-.2-.4l-.4.3zm69.5 69.3c0 .1-.1.3-.1.4-3.3 10.4-14.4 16.1-24.8 12.8S79.3 183 82.6 172.6c.1-.1.1-.3.2-.4l-.5-.2c-.1.1-.1.3-.2.4-3.4 10.7 2.5 22.1 13.2 25.5s22.1-2.5 25.5-13.1c.1-.1.1-.3.1-.4l-.6-.2zM166.1 5.7c.1-.1.3-.2.4-.2 9.4-5.5 21.5-2.3 27 7.1a19.76 19.76 0 0 1-7.5 27.2l.3.5c.1-.1.3-.1.4-.2 9.7-5.6 13-18.1 7.3-27.7-5.6-9.7-18.1-13-27.7-7.3-.1.1-.3.2-.4.2l.2.4zm-31.2 29.7c-.1.2-.2.4-.3.7C126 51.4 106.4 57 91 48.3S70 20.2 78.7 4.8c.1-.2.2-.4.4-.6l-.8-.4c-.1.2-.3.4-.4.6-8.9 15.8-3.2 35.9 12.7 44.7s35.9 3.2 44.8-12.7c.1-.2.2-.4.3-.7l-.8-.3z" fill="#ff8603" stroke-width="none" opacity="1"></path><path id="SvgjsPath7305" d="M78.3 31c-.1.1-.3.1-.4.2-9.6 5-13.3 16.9-8.3 26.5S86.5 71 96.1 65.9c.1-.1.3-.2.4-.2L78.3 31zm44.5 165.6c.1-.1.2-.2.4-.3 8.2-7.1 9.1-19.5 2.1-27.7-7.1-8.2-19.5-9.1-27.7-2.1-.1.1-.2.2-.4.3l25.6 29.8z" fill="#ffcb39" stroke-width="none" opacity="1"></path><path id="SvgjsPath7306" d="M77.7 29.7c-.1.1-.3.1-.4.2-10.4 5.4-14.4 18.1-9 28.4s18.1 14.3 28.5 8.9c.1-.1.3-.2.4-.2L77.7 29.7zm-4.9 8.4c0-.5.1-.9.5-1.2l2.8-2.5c.6-.5 1.4-.8 2.2-.7.8.1 1.5.6 1.8 1.3l.6 1.2 5.9 11.3-13.1-8.3c-.5-.2-.7-.6-.7-1.1zm-2.9 4.6.3-1.1c.2-.7.7-1.3 1.4-1.5.7-.2 1.4-.2 2.1.2L85.9 48l-12.6-.5c-1.2 0-2.2-.6-2.8-1.5-.7-1-.9-2.2-.6-3.3zm4.7 11.8c-1 .5-2.2.6-3.2.1s-1.8-1.4-2-2.5l-.4-1.2c-.2-.7 0-1.5.5-2s1.2-.9 1.9-.8l14.3.6-11.1 5.8zm2.1 8.1c-.7.1-1.4-.2-1.9-.8L74 61c-.8-.8-1.1-2-.9-3.1.2-1.1.9-2.1 1.9-2.6l11.2-5.9-7.7 12.1c-.4.6-1.1 1-1.8 1.1zm6.4 3.5-1.1-.3c-1.1-.3-2-1.2-2.3-2.2-.4-1.1-.3-2.3.3-3.2l6.8-10.7-.6 14.3c0 .7-.4 1.4-1 1.8-.6.4-1.4.6-2.1.3zm5.6.3c-.4.1-.9 0-1.3-.3-.3-.3-.6-.7-.5-1.2l.6-15.5 5.9 11.3.6 1.2c.4.7.4 1.5.1 2.3-.3.7-1 1.3-1.8 1.4l-3.6.8zm35.1 131.3c.1-.1.2-.2.4-.3a21.06 21.06 0 0 0-27.5-31.9c-.1.1-.2.2-.4.3l27.5 31.9zm2.9-9.3c.1.4.1.9-.2 1.3l-2.1 3.1c-.5.7-1.2 1.1-2 1.1-.8.1-1.6-.3-2.1-.9l-.9-1-8.3-9.6 14.6 5.1c.5.1.8.4 1 .9zm1.7-5.1-.1 1.2c-.1.7-.4 1.4-1.1 1.8-.6.4-1.4.5-2.1.2l-13.6-4.7 12.4-2.4c1.1-.2 2.3.1 3.1.9 1 .7 1.5 1.8 1.4 3zm-7.2-10.5c.9-.8 2-1.1 3.2-.8 1.1.2 2.1 1 2.6 2l.5 1.1c.3.7.3 1.4 0 2.1-.3.7-.9 1.1-1.7 1.3l-14.1 2.7 9.5-8.4zm-3.9-7.3c.7-.2 1.5-.1 2.1.3l1 .6c.9.6 1.5 1.7 1.6 2.8.1 1.1-.4 2.2-1.3 3l-9.6 8.2 4.7-13.6c.2-.6.8-1.1 1.5-1.3zm-7.1-2.1 1.2.1c1.2.1 2.2.7 2.8 1.6.6 1 .8 2.1.4 3.2l-4.2 11.9-2.7-14.1c-.1-.7.1-1.5.6-2 .5-.4 1.2-.7 1.9-.7zm-5.4 1.1c.4-.2.9-.2 1.3 0s.7.6.8 1l2.9 15.2-8.3-9.6-.9-1c-.5-.6-.7-1.4-.6-2.2s.7-1.4 1.4-1.8l3.4-1.6z" fill="#ffffff" stroke-width="none" opacity="1"></path><path id="SvgjsPath7307" d="M97.1 66.7c-.1.1-.3.2-.4.2-10.2 5.3-22.7 1.4-28.1-8.8S67.2 35.4 77.4 30c.1-.1.3-.1.4-.2l-.3-.5c-.1.1-.3.1-.4.2-10.4 5.5-14.5 18.4-9 28.8s18.4 14.5 28.8 9c.1-.1.3-.2.4-.2l-.2-.4zm-.6 99.3c.1-.1.2-.2.4-.3 8.7-7.5 21.8-6.5 29.3 2.2s6.5 21.8-2.2 29.3c-.1.1-.2.2-.4.3l.4.4c.1-.1.2-.2.4-.3 8.9-7.7 9.9-21.2 2.2-30.1s-21.2-9.9-30.1-2.2c-.1.1-.2.2-.4.3l.4.4z" fill="#edb018" stroke-width="none" opacity="1"></path><path id="SvgjsPath7308" d="M31 56.8c-14.3 0-26-11.7-26-26s11.7-26 26-26 26 11.7 26 26-11.7 26-26 26z" fill="#ffe964" stroke-width="none" opacity="1"></path><path id="SvgjsPath7309" d="M31 2.9a27.91 27.91 0 0 0 0 55.8 27.91 27.91 0 0 0 0-55.8zM8.9 21.3c.3-.5.8-.8 1.3-1 .4-.2.8-.2 1.2-.2.2 0 .4 0 .6.1l17.1 9.9H12.6c-1.5 0-2.9-.7-3.9-1.9-.9-1.2-1.2-2.8-.8-4.2l.1-.4c.3-.8.6-1.6.9-2.3zM8.2 32c.6-.9 1.6-1.3 2.7-1.3h18.7L11.7 41c-.5.3-1.2.3-1.7.1-.6-.2-1-.7-1.1-1.3L7.6 35c-.3-1-.1-2.1.6-3zm4-12.7c-.5-.3-.9-.8-1-1.4s.1-1.2.6-1.6l3.5-3.5c.6-.6 1.5-1 2.4-1h.5c.7.1 1.4.4 1.9.9l9.5 16.5-16.3-9.4c-.3-.2-.7-.3-1.1-.5zm8.2-7.7c-.3-.5-.4-1.2-.1-1.7.2-.6.7-1 1.3-1.1l4.8-1.3c.3-.1.6-.1.9-.1.7 0 1.5.2 2.1.7.6.4 1 1 1.2 1.7-.1.3-.1.7-.1 1v17.9l-9-15.5c-.2-.3-.4-.6-.7-.9l-.4-.7zM53 28c-.9 1.2-2.3 1.9-3.9 1.9H32.7l17-9.8c.6-.1 1.3-.1 1.9.1.9.4 1.6 1.1 1.8 2.1l.4 1.5c.4 1.5.1 3-.8 4.2zm-2.5-10.1c-.1.6-.4 1.1-1 1.4a3 3 0 0 0-1 .4l-16.3 9.4 9.5-16.5c.5-.5 1.2-.8 1.9-.9h.5c.9 0 1.8.4 2.4 1l3.5 3.5c.3.5.5 1.1.5 1.7zm-9.1-6.3-.4.6c-.3.3-.5.6-.7.9l-9 15.5V10.8c0-.3 0-.7-.1-1 .2-.7.6-1.3 1.2-1.7.6-.5 1.3-.7 2.1-.7.3 0 .6 0 .9.1l4.8 1.3c.6.2 1.1.6 1.3 1.1a2 2 0 0 1-.1 1.7zM11.6 43.5c.1-1 .7-1.8 1.5-2.3l16.5-9.5-8.4 14.5c-.8 1.3-2.1 2.2-3.6 2.4s-3-.3-4.1-1.4l-1.1-1.1c-.6-.7-.9-1.6-.8-2.6zm9.3 5.2 9.5-16.5V49c0 1.5-.7 2.9-1.9 3.9s-2.8 1.2-4.2.8l-1.5-.4c-1-.2-1.7-.9-2.1-1.8-.4-.9-.3-1.9.2-2.8zm12.4 4.1c-1.2-.9-1.9-2.3-1.9-3.9V32.2l9.5 16.5c.5.8.6 1.8.2 2.8-.4.9-1.1 1.6-2.1 1.8l-1.5.4c-1.5.4-3 .1-4.2-.9zm10.8-4.2c-1.5-.2-2.8-1.1-3.6-2.4l-8.4-14.5 16.5 9.5a3.11 3.11 0 0 1 .6 4.9l-1.1 1.1c-1 1.1-2.5 1.6-4 1.4zm7.7-7.5a2 2 0 0 1-1.7-.1L32.2 30.7h18.7c1.1 0 2.1.5 2.7 1.3.7.8.9 1.9.6 3l-1.3 4.8c-.2.6-.6 1-1.1 1.3z" fill="#ffffff" stroke-width="none" opacity="1"></path><path id="SvgjsPath7310" d="M31 59C15.4 59 2.7 46.4 2.7 30.8S15.4 2.5 31 2.5s28.3 12.7 28.3 28.3S46.6 59 31 59zm0-55.7C15.8 3.3 3.5 15.6 3.5 30.8S15.8 58.3 31 58.3 58.5 46 58.5 30.8 46.2 3.3 31 3.3z" fill="#eac71b" stroke-width="none" opacity="1"></path><path id="SvgjsPath7311" d="M51.9 28c-6.7 0-12.2-5.5-12.2-12.2S45.2 3.7 51.9 3.7s12.2 5.5 12.2 12.2S58.6 28 51.9 28zM55 163.3c-6.7 0-12.2-5.5-12.2-12.2 0-6.7 5.5-12.2 12.2-12.2s12.2 5.5 12.2 12.2c-.1 6.7-5.5 12.2-12.2 12.2zm85-70.6a17.2 17.2 0 1 1 17.2-17.2c0 9.5-7.8 17.2-17.2 17.2zM95.7 200.1v-.2c-.1-5.4-4.6-9.8-10-9.8-5.4.1-9.8 4.6-9.8 10v.2l19.8-.2z" fill="#d8f94b" stroke-width="none" opacity="1"></path><path id="SvgjsPath7312" d="M51.9 2.8c-7.2 0-13.1 5.8-13.1 13.1S44.6 29 51.9 29 65 23.1 65 15.9 59.1 2.8 51.9 2.8zm-10.4 8.6c.2-.2.4-.4.6-.5.2-.1.4-.1.6-.1h.3l8 4.6h-7.7c-.7 0-1.4-.3-1.8-.9-.4-.6-.6-1.3-.4-2v-.1c.1-.3.2-.6.4-1zm-.3 5c.3-.4.8-.6 1.3-.6h8.7l-8.3 4.8c-.2.1-.5.2-.8 0-.3-.1-.5-.3-.5-.6l-.6-2.2c-.2-.5-.1-1 .2-1.4zm1.9-5.9c-.2-.1-.4-.4-.5-.7s.1-.6.3-.8l1.6-1.6c.3-.3.7-.5 1.1-.5h.2c.3 0 .6.2.9.4l4.5 7.7-7.6-4.4c-.2 0-.3-.1-.5-.1zm3.8-3.6c-.1-.2-.2-.5 0-.8.1-.3.3-.5.6-.5l2.2-.6c.1 0 .3-.1.4-.1.3 0 .7.1 1 .3.3.2.5.5.5.8 0 .2-.1.3-.1.5v8.4l-4.2-7.3c-.1-.2-.2-.3-.3-.4l-.1-.3zm15.3 7.7c-.4.6-1.1.9-1.8.9h-7.7l8-4.6c.3-.1.6-.1.9.1.4.2.7.5.8 1l.2.7c.1.6 0 1.3-.4 1.9zM61 9.8c0 .3-.2.5-.5.7-.2 0-.3.1-.5.2l-7.6 4.4 4.5-7.7c.2-.2.5-.4.9-.4h.2c.4 0 .8.2 1.1.5L60.7 9c.2.2.3.5.3.8zm-4.3-2.9-.2.3c-.1.1-.2.3-.3.4L52 14.9V6.5c0-.2 0-.3-.1-.5.1-.3.3-.6.5-.8.3-.2.6-.3 1-.3.1 0 .3 0 .4.1l2.2.6c.3.1.5.3.6.5.3.2.3.5.1.8zM42.8 21.8c.1-.5.3-.9.7-1.1l7.7-4.4-3.9 6.8c-.4.6-1 1-1.7 1.1s-1.4-.1-1.9-.6l-.5-.6c-.3-.3-.5-.7-.4-1.2zm4.3 2.4 4.5-7.7v7.8c0 .7-.3 1.4-.9 1.8-.6.4-1.3.6-2 .4l-.7-.1c-.4-.1-.8-.4-1-.9-.1-.4-.1-.9.1-1.3zm5.9 2c-.6-.4-.9-1.1-.9-1.8v-7.8l4.5 7.7c.2.4.3.9.1 1.3-.2.4-.5.7-1 .9l-.7.2c-.8.1-1.5-.1-2-.5zm5-2c-.7-.1-1.3-.5-1.7-1.1l-3.9-6.8 7.7 4.5c.4.2.7.6.7 1.1.1.5-.1.9-.4 1.2l-.5.5c-.5.4-1.2.7-1.9.6zm3.6-3.5c-.3.1-.6.1-.8 0l-8.3-4.8h8.7c.5 0 1 .2 1.3.6s.4.9.3 1.4l-.6 2.2c-.2.2-.3.5-.6.6zM55 138c-7.2 0-13.1 5.9-13.1 13.1 0 7.2 5.8 13.1 13.1 13.1s13-5.9 13-13.1c0-7.2-5.8-13.1-13-13.1zm-10.4 8.7c.2-.2.4-.4.6-.5.2-.1.4-.1.6-.1h.3l8 4.6h-7.7c-.7 0-1.4-.3-1.8-.9-.4-.6-.6-1.3-.4-2v-.1c.1-.3.2-.7.4-1zm-.3 5c.3-.4.8-.6 1.3-.6h8.7l-8.3 4.8c-.2.1-.5.2-.8.1-.3-.1-.5-.3-.5-.6l-.6-2.2c-.2-.6-.1-1.1.2-1.5zm1.9-5.9c-.2-.1-.4-.4-.5-.7s.1-.6.3-.8l1.6-1.6c.3-.3.7-.5 1.1-.5h.2c.3 0 .6.2.9.4l4.5 7.7-7.6-4.4c-.2 0-.4-.1-.5-.1zm3.8-3.7c-.1-.2-.2-.5 0-.8.1-.3.3-.5.6-.5l2.2-.6c.1 0 .3-.1.4-.1.3 0 .7.1 1 .3.3.2.5.5.5.8 0 .1-.1.3-.1.5v8.4l-4.2-7.3c-.1-.1-.2-.3-.3-.4l-.1-.3zm15.2 7.7c-.4.6-1.1.9-1.8.9h-7.7l8-4.6c.3-.1.6-.1.9.1.4.2.7.5.8 1l.2.7c.2.6.1 1.4-.4 1.9zm-1.1-4.7c0 .3-.2.5-.5.7-.2 0-.3.1-.5.2l-7.6 4.4 4.5-7.7c.2-.2.5-.4.9-.4h.2c.4 0 .8.2 1.1.5l1.6 1.6c.2.1.3.4.3.7zm-4.3-3-.2.3c-.1.1-.2.3-.3.4l-4.2 7.3v-8.4c0-.2 0-.3-.1-.5.1-.3.3-.6.5-.8.3-.2.6-.3 1-.3.1 0 .3 0 .4.1l2.2.6c.3.1.5.3.6.5.3.3.3.6.1.8zm-13.9 15c.1-.4.3-.9.7-1.1l7.7-4.4-3.9 6.8c-.4.6-1 1-1.7 1.1s-1.4-.1-1.9-.6l-.5-.5c-.3-.4-.5-.9-.4-1.3zm4.3 2.4 4.5-7.7v7.8c0 .7-.3 1.4-.9 1.8-.6.4-1.3.6-2 .4l-.7-.2c-.4-.1-.8-.4-1-.9-.1-.3-.1-.8.1-1.2zm5.8 2c-.6-.4-.9-1.1-.9-1.8v-7.8l4.5 7.7c.2.4.3.9.1 1.3-.2.4-.5.7-1 .9l-.7.2c-.7 0-1.4-.1-2-.5zm5.1-2c-.7-.1-1.3-.5-1.7-1.1l-3.9-6.8 7.7 4.4c.4.2.7.6.7 1.1.1.4-.1.9-.4 1.2l-.5.5c-.5.5-1.2.8-1.9.7zm3.6-3.6c-.3.1-.6.1-.8-.1l-8.3-4.8h8.7c.5 0 1 .2 1.3.6.3.4.4.9.3 1.4l-.6 2.2c-.2.4-.4.6-.6.7zM140 57.1c-10.2 0-18.4 8.2-18.4 18.4s8.2 18.4 18.4 18.4 18.4-8.2 18.4-18.4-8.3-18.4-18.4-18.4zm-14.7 12.1c.2-.3.5-.5.9-.7.3-.1.5-.2.8-.2.1 0 .3 0 .4.1l11.3 6.5h-10.8c-1 0-1.9-.5-2.6-1.3s-.8-1.8-.6-2.8v-.2c.2-.4.4-.9.6-1.4zm-.4 7.1c.4-.6 1.1-.9 1.8-.9H139l-11.8 6.8c-.3.2-.8.2-1.1.1s-.7-.5-.8-.9l-.8-3.2c-.2-.6-.1-1.3.4-1.9zm2.7-8.4c-.3-.2-.6-.6-.6-.9-.1-.4.1-.8.4-1.1l2.3-2.3c.4-.4 1-.7 1.6-.7h.3c.5.1.9.3 1.2.6l6.3 10.9-10.8-6.2c-.2-.1-.5-.2-.7-.3zm5.3-5.1c-.2-.3-.2-.8-.1-1.1.1-.4.5-.7.9-.8l3.2-.8c.2 0 .4-.1.6-.1.5 0 1 .2 1.4.5.4.3.6.7.8 1.1-.1.2-.1.4-.1.7v11.8l-5.9-10.3c-.1-.2-.3-.4-.4-.6l-.4-.4zm21.6 10.9c-.6.8-1.5 1.3-2.6 1.3H141l11.2-6.5c.4-.1.8-.1 1.2.1.6.2 1 .8 1.2 1.4l.3 1c.4.9.2 1.9-.4 2.7zm-1.7-6.7c-.1.4-.3.8-.6.9-.2.1-.5.1-.7.3l-10.8 6.2 6.3-10.9c.3-.3.8-.5 1.2-.6h.3c.6 0 1.2.2 1.6.7l2.3 2.3c.3.3.5.7.4 1.1zm-6-4.2-.2.4c-.2.2-.3.4-.4.6l-5.9 10.3V62.3c0-.2 0-.5-.1-.7.1-.4.4-.8.8-1.1.4-.3.9-.5 1.4-.5.2 0 .4 0 .6.1l3.2.8c.4.1.7.4.9.8 0 .4-.1.8-.3 1.1zm-19.6 21.1c.1-.6.4-1.2 1-1.5l10.9-6.3-5.5 9.6c-.5.9-1.4 1.4-2.4 1.6-1 .1-2-.2-2.7-.9l-.7-.7c-.5-.5-.7-1.2-.6-1.8zm6 3.4 6.3-10.9v11.1c0 1-.5 1.9-1.3 2.6-.8.6-1.8.8-2.8.6l-1-.3c-.6-.2-1.1-.6-1.4-1.2-.1-.6-.1-1.3.2-1.9zm8.3 2.8c-.8-.6-1.3-1.5-1.3-2.6v-11l6.3 10.9c.3.6.4 1.2.1 1.8s-.8 1-1.4 1.2l-1 .3c-.9.2-1.9 0-2.7-.6zm7.1-2.9c-1-.1-1.9-.7-2.4-1.6l-5.5-9.6 10.9 6.3c.6.3.9.9 1 1.5s-.1 1.3-.6 1.7l-.7.7c-.7.9-1.7 1.2-2.7 1zm5.1-4.9c-.4.2-.8.1-1.1-.1l-11.8-6.8h12.3c.7 0 1.4.3 1.8.9s.6 1.3.4 2l-.9 3.2c-.1.3-.4.6-.7.8zM96.4 200.1v-.2a10.6 10.6 0 0 0-21.2.2v.2l21.2-.2zm-2.7-4.2c.2.1.4.3.4.5l.5 1.8c.1.4 0 .8-.2 1.1-.2.3-.6.5-1 .5h-.7l-6.4.1 6.7-4c.3 0 .5-.1.7 0zm-1.4-2.3.4.4c.3.3.4.6.3 1 0 .4-.2.7-.6.9l-6.2 3.7 3.1-5.6a1.95 1.95 0 0 1 3-.4zm-6.4-.6c0-.6.2-1.1.7-1.5s1-.5 1.6-.3l.6.1c.4.1.7.3.8.7s.1.7-.1 1.1l-3.5 6.3-.1-6.4zm-4.1-.9c.1-.4.4-.6.8-.7l.6-.2c.6-.2 1.2-.1 1.6.3s.7.9.7 1.5l.1 6.4-3.7-6.2c-.2-.4-.2-.8-.1-1.1zm-3 2.1.4-.4c.4-.4 1-.6 1.5-.5.6.1 1.1.4 1.4.9l3.2 5.5L79 196c-.3-.2-.5-.5-.6-.9 0-.3.1-.7.4-.9zm-1.4 2.4c.1-.2.2-.4.4-.5.2-.1.4-.1.7 0l6.8 3.8-6.4.1h-.7c-.4 0-.8-.2-1-.5s-.3-.7-.2-1.1l.4-1.8z" fill="#ffffff" stroke-width="none" opacity="1"></path><path id="SvgjsPath7313" d="M51.9 2.2c-7.5 0-13.6 6.1-13.6 13.6s6.1 13.6 13.6 13.6 13.6-6.1 13.6-13.6S59.4 2.2 51.9 2.2zm0 26.2c-6.9 0-12.5-5.6-12.5-12.5S45 3.3 51.9 3.3s12.5 5.6 12.5 12.5-5.6 12.6-12.5 12.6zM55 137.5c-7.5 0-13.6 6.1-13.6 13.6s6.1 13.6 13.6 13.6 13.6-6.1 13.6-13.6-6.1-13.6-13.6-13.6zm0 26.1a12.5 12.5 0 1 1 0-25 12.5 12.5 0 0 1 0 25zm85-107.3a19.2 19.2 0 1 0 .01 38.41A19.2 19.2 0 0 0 140 56.3zm0 36.8c-9.7 0-17.7-7.9-17.7-17.7s7.9-17.7 17.7-17.7 17.6 7.9 17.6 17.7-7.9 17.7-17.6 17.7zM75.3 200.3v-.2c-.1-5.8 4.6-10.5 10.3-10.6 5.8-.1 10.5 4.6 10.6 10.4v.2h.3v-.2c-.1-5.9-4.9-10.7-10.9-10.6-5.9.1-10.7 4.9-10.6 10.9v.2l.3-.1z" fill="#8ab21b" stroke-width="none" opacity="1"></path></g><g id="svga-group-humanwrap-move" transform="matrix(1,0,0,1,0,0)"><g id="svga-group-humanwrap" transform="matrix(0.9499997000000001,0,0,0.9499997000000001,4.976891528803051,6.361679481493368)"><g id="svga-group-hair-back-move" transform="matrix(1,0,0,1,0,0)"><g id="svga-group-hair-back" transform="matrix(1,0,0,1,0,0)"><path id="SvgjsPath3987" d="M71.8 42.3c.7-.3 1.3-.6 2-.7.3-.3.6-.6 1-.8 2.4-1.1 5.1-.8 6.6 1.6 1.4 2.1.4 4.9-1.6 6.2-1.1.7-2.5.8-3.7.5-.1 0-.3-.1-.4-.1h-.3c-.1 0-.3.1-.4.1-.1 0-.2.1-.3.1-.4.2-.9.3-1.4.3-.8 0-1.7 0-2.4-.5-2.7-1.7-1.6-5.4.9-6.7zm89 94.4v-.1.1zm11.4 2.6c-.3.3-.8 0-.7-.4.4-1.2-.5-2.5-1.6-3.9-.8 2-2.8 3.7-2.8 6 0 .6-.8.7-1 .3-.8-1.2-.6-2-.1-3.3 1.4-3.3 2.8-4-.9-6.1-1.1-.6-1.9-1.3-2.4-2.1.1.5.2 1 .5 1.9.2.6.9 1 1 1.6.3 1.9-.4 3.5-.2 5.4.2 1.8.8 2.3-.6 3.8-.4.4-1.4.1-1.3-.6.2-1.9-1.4-3.4-1.3-5.3.1 0 .4-2.1.6-2.1-.2-.3-1.6-1.4-1.5-1.2-1.1-1.8-.9-2.4-1.1-4.5-.4-3.5-2.5-4.1-3.5-6.9-.1.3-.3.6-.4.9-1.5 3.8 2.5 5.3 3 9 .3 2.9-1.8 4.5-1.5 7.2.2 2 1.1 2.4-.2 4.2-.3.4-1.1.2-.9-.4.7-2.6-1.8-4.1-1.4-6.5.4-3 2.6-1.6.3-5.2-.2.9-.9 1.6-1.3 2.6-1.5 3.2-.8 4.6-.9 7.6-.1 1.5-.4 2.6-1.3 3.8-.8 1-2.4.2-1.7-1 .9-1.7.3-3.6-.2-5.5l-.3.6c-.5 1.8-.3 2.7-.4 4.6 0 1.4.3 1.4-.5 2.6-.3.4-1.1.3-1.1-.3.1-1.2-.3-2.1-.6-3.1-.2.7-.6 1.5-1.4 2.3-.5.5-1.2-.2-1-.8 1.1-2.4-.2-3.9-1.3-5.5.1 2 .1 4-1 6-.3.7-1 .6-1.5.2-.2.3-.6.6-1 .9-.8.5-1.5-.6-.9-1.2 1.3-1.4-1.9-4.7-2.2-6.2-.1-.8 0-1.6.2-2.3-.8 1.8-1.4 2.9-1.2 5.1 0 .7.4 1.3.4 2-.1 1.2-.5 1.8-1.5 2.6-.7.5-1.2-.5-.8-1.1.7-.8.4-1.8 0-2.7-.1 1.1-.6 2.1-1.7 3.3-.6.6-1.6-.2-1.2-.9 1.3-2 .6-3.6-.1-5.3-.7 2-1.6 3.8-1.4 6.2 0 .7-1 .8-1.2.2-.2-.7-.7-1.5-1.1-2.4 0 1.6-.5 2.9-2.3 3.6-.3 1.1-1.8.7-1.9-.3-.1-1-.3-2.2-.3-3.4-.3 1.1-.3 2.2-.5 3.5 0 .4-.6.8-.9.4-.4-.4-.6-.8-.9-1.1-.3-.1-.5-.3-.7-.7-3.1-8.1-4.4-16.3-4.2-24.5-.3-3.7-.5-7.4-.6-10.8-.3-7.3-.1-14.6.9-21.9 1-7.4 3.1-14.5 5.5-21.6 2-6.1 3.7-12.5 6.6-18.2 0-.9.5-1.8 1.2-2.3 1-.8 2.2-.8 3.4-.2 2.9 1.4 4.7 4.5 4.6 7.7 0 .3-.1.6-.1.9 1.1 1.4 2.1 2.8 3 4.3.1 0 .3.1.4.2 1.7 1.3 3.1 1.8 5.2 2.2 1.5.3 2.6.8 3.5 2 1.3 1.8 1.7 4.9 1.2 7.4l.9.6c.4-.7 1.6-.8 1.9.2 1 2.8 1.8 6.1.1 8.8-.1.2-.2.3-.4.3-.2 1-.6 1.9-.9 2.9.2.2.3.5.4.8.3 1 .8 2.5 1.1 4 .2 0 .5.1.7.3 1.8 1.1 2.7 2.8 2.8 4.8.1.2.3.5.4.7.2.1.4.1.6.3 3.3 2.9 7.9 7.4 6.3 12.2-.1.2-.1.4-.2.6.2.4.4.9.5 1.4.3 1.2-.2 3.5-.3 5.3.4.5 1 .6 2.2 1.7.7.6 1.2 1.2 1.5 2 .4.2.8.4 1 .7 1 1.2.8 2.3.7 3.7-.3 3.3.2 2 2.1 4.1 1.8 2.1.3 4 1 6.3.4 2.5 3.4 4.2.7 7zm-26.4-4.6c-.1-.4-.2-.7-.3-1-.2.2-.3.4-.5.6-1.2 2.1-.8 2.4.2 4.7.1.3.2.6.4.9.1-1.8.5-3.4.2-5.2zm3.4-5c-.3.7-.5 1.4-.6 2.1-.1.8 0 1.5.1 2.2.2-.5.3-.9.5-1.5.7-1.7.5-2.2 0-2.8zm8-23.1c-.1-1.3 0-3-.4-4.6-.2.9-.4 1.9-.6 2.9-.3 1.9-.2 3.3.6 4.7.1-.5.2-1 .4-1.4v-1.6zm5.6 13.5c-.2-.2-.4-.3-.6-.5-.7-.5-1.6-.7-2.2-1.4-.2 1-.2 1.9.2 2.9.6 1.4 1.4 2.2 2 3.3l.3-1.2c.1-1.3.4-2.2.3-3.1zm3.5 7.3c-.3-.2-.6-.3-1-.5v.2c.3 1.3 1.5 2 2.6 2.7.1-.4-.1-1-1.6-2.4zm-78.2-9.9c.2 6.6 1.2 16.2-2.9 21.8-.5 2.4-1.9 4.4-2.2 6.9-.1.7-1.2 1-1.7.4-.9-1-1.1-1.8-1.2-2.8-.3.6-.6 1.2-.8 1.9-.2.7-1.2.7-1.4 0-.1-.2-.1-.4-.1-.6-.5.4-1.3.4-1.5-.4v-.1c-.3.3-.5.5-.4.5.5.8-.6 1.4-1.2.9-.8-.7-1.2-1.5-1-2.5.2-.9.7-1.5.9-2.2-.2-.1-.4-.4-.5-.7-1.1 1.3-2.4 2.4-1.4 4.2.4.7-.6 1.5-1.1.9-.7-.7-1.2-1.4-1.4-2.3-.2.8-.8 1.3-1.6 1.8-.5.2-1.1-.4-.6-.8 1.3-1.1-2-6.5-1.6-8.6.2-1 1-1.8 1.2-2.7 1.4-7.2.4-5-.5-4.3.2.8.3 1.6.1 2.6-.3 1.2-1.2 2.1-1.5 3.3-1.2 4.1.8 4.2 1.7 7 .6 1.9.6 3.6-1 4.9-.7.6-1.8-.2-1.3-1 1-1.9-.3-3.9-1.5-5.9 0 .5.1 1 .2 1.4.3 1.9.9 2.5-.4 4.2-.3.4-1 .1-1-.4.3-2.9-2.5-5-2.7-8-.1-.9-.1-1.8-.3-2.7-.7 1.1-1.1 1.5 0 4 .4 1 1.4 1.8 1.7 2.8.7 1.9.6 3.1-.6 4.8-.5.8-1.9.3-1.6-.7.9-3.2-3.1-5.1-4-7.6-.6-1.6-.1-2.6.1-4.2v-.2c-.4 1.2-.7 2.5-.5 3.7.5 2.8 2.1 4.3 1.9 7.4-.1.8-1.2 1.1-1.5.2 0-.2-.1-.3-.2-.4-.1.2-.2.5-.4.7-.6 1-2.3.3-1.9-.8 1.2-3-2.9-6.2-3.2-9.6-.6 1-1 2.1-.6 3.5.7 2.8 3 5.4-.3 7.3-1.1.7-2.2-.6-1.7-1.7.6-1.1-1-3.3-2.1-5.2-.6 1.7-1.3 3.5-.3 5.1.6.8-.7 1.8-1.4 1-2.1-2.4-.7-4-.4-6.8.3-2.4-.9-4.3-1.3-6.4 0 .1-.1.3-.1.4-.7 2.2-1.2 4-.8 6.6.1.6.5 1.1.5 1.7.2 1.6 0 2.1-.8 3.5-.5.8-1.7.3-1.5-.6.5-1.8-.3-3.3-.9-4.8-.8 1.4-2 2.8-1.6 4.2.2.8-1 1.3-1.4.6-.7-1.3-.8-2.1-.4-3.5.5-2.1 1.5-2 .1-4.6-.4-.7-1.3-1.1-1.8-1.9-.8-1.4-.6-2.4-.3-3.8.6-2.8 3.8-.5.5-6.3v-.1c-.7.6-1.3 1.2-1.5 2.2-.4 1.9 1.2 3.5.8 5.5-.5 2.3-4.4 4.5-3.4 7 .2.7-.7 1-1.1.6-1-.9-1.2-1.2-1.1-2.6.1-1.2.5-1.3 1-2.3 1.4-3.3 2.1 2 1.3-6.2-.1-1.4-.8-2.2-.3-3.7.2-.6.6-1 .9-1.4.9-1.8 1.5-2.7 1-4.7-.4-1.7-1.5-2.8-1-4.7.4-1.8 2.2-2.7 2.6-4.4.4-1.5-.6-2.8 0-4.4.5-1.3 1.1-1.2 1.9-2.2.9-1.2 1.4-2.3 2.1-3.6.4-.6 1-.8 1.7-.7 0-.2-.1-.3-.1-.5-.4-1.2.4-2.2 1.5-2.7.6-.8 1.1-1.5 1.7-2.3.2-.4.5-.7.8-.9.3-.9.7-1.8 1.2-2.7-.2-.2-.4-.4-.5-.6-1.3-2.2-.5-4.9.7-7.1.6-1.1 1.5-2 2.6-2.6l.3-.9c.1-.3.3-.6.5-.9-.4-.2-.8-.4-1.1-.7-1.4-1.1-1.6-3.4-1-4.9.6-1.3 1.7-2.3 3.1-2.7 1.2-.3 2.5-.2 3.6.5v-.2c.2-1.4.7-2.5 1.2-3.6-.1-.1-.2-.2-.3-.4-.6-.9-.6-1.9-.4-3 .3-1.9 1.9-3.6 3.7-4.2.6-.2 1.2-.2 1.7 0 1.4-2.9 3.1-4.9 6.5-5.8 1.4-.4 3 0 4 1l.5.5c.6.6 1 1.5.9 2.4 10 9.2 13.9 25.9 16.5 38.5 1.8 7.9 2.7 16.2 3 24.4zm-52.6-6.8c0-.2-.1-.5-.1-.7-.1.2-.2.3-.3.5-1.3 1.8-1.8 2.5-1.5 3.9.8-1.1 1.7-2.2 1.9-3.7zm.7 8.3c.3-.7 1.1-1.6 1.3-2.4v-.3c-.5.4-.9.8-1.1 1.3-.8 1.6-.8 1.4-.3 1.9 0-.1.1-.3.1-.5zm1.7 7.9c-.6 1.7-1.7 3.4-1.1 5.3.1.3.2.6.4.8.3-.9.9-1.6 1.1-2.6.2-1.3 0-2.4-.4-3.5zm3.7-2.7c-.3-1.5-1-2.7-.6-4.3.2-.8.4-1.5.7-2.2h-.2c-.7 1.7-1.7 3.2-1.4 5.3.2 1.3 1 2.4 1.5 3.6.1-.9.1-1.6 0-2.4zm3.9 3c-.3 1.1-.8 2.1-.9 3.3 0 .8.1 1.5.2 2.1 0-.1.1-.2.1-.2.7-1.9 1.6-3.3.6-5.2zm25.4 9.2c-.4-.6-.7-1.2-.9-1.8-.1.2-.1.3-.2.5-.9 2.5.1 4 .5 6.3v.2c.3-.8.9-1.1 1.2-1.8.7-1.6.3-2-.6-3.4zm8.2 3.4c0-.9-.7-1.9-1.4-2.9v.8c.2.9.4 1.8.4 2.8.1.6.2 1.2.1 1.9v.6c.4-1.1 1-2 .9-3.2z" fill="#bb8f5c" stroke-width="none" opacity="1" stroke="none"></path></g></g><g id="svga-group-humanbody-back"><path id="SvgjsPath3627" d="m168.5 219.5-1.7-21.5s.7-9-8.8-15.3-23.4-10.1-29.5-14.2c-6.1-4.1-9.2-4.5-9-16.9s.9-40.3.9-40.3H79.6s.7 27.9.9 40.3c.2 12.4-2.9 12.8-9 16.9-6.1 4.1-20 7.9-29.5 14.2S33.2 198 33.2 198l-1.6 21.5h136.9z" fill="#f6e4e2" stroke-width="none" opacity="1" stroke="none"></path></g><g id="svga-group-chinshadow-single"><path id="SvgjsPath3858" d="M84 156.4c1.5 2.5 9 9 16 9s14.5-6.6 16-9c.5-.79 1.84-2.77 3.51-5.19.21-12.58.89-39.91.89-39.91H79.6s.69 27.33.89 39.91c1.67 2.42 3.01 4.4 3.51 5.19z" fill="#d7a19b" stroke-width="none" opacity="0.65" stroke="none"></path></g><g id="svga-group-humanbody-front"><path id="SvgjsPath3628" d="M73.8 175.9c5.1 2.9 11.8 5.2 17.6 5.7.4 0 .4-.6.1-.7-2.8-1.1-5.9-1.7-8.8-2.6-2.9-.9-5.8-2-8.8-2.7-.1-.1-.3.2-.1.3zm35.2 6.2c5.3-.6 11.3-3 15.9-5.8.3-.2.1-.6-.2-.5-2.6.9-5.2 2-7.8 2.9-2.6.9-5.4 1.5-8 2.5-.5.1-.5.9.1.9z" fill="#d7a19b" stroke-width="none" opacity="1" stroke="none"></path><path id="SvgjsPath3629" d="m168.4 219.4-2.1-21.4c0-2.2-.5-4.5-1.5-6.6-.9-2.1-2.3-3.9-3.9-5.5s-3.5-2.8-5.5-4c-2-1.2-4.1-2.2-6.2-3.1-4.2-1.9-8.6-3.6-12.9-5.4-2.2-.9-4.3-1.9-6.4-3-1.1-.6-2.1-1.2-3-1.9-1-.6-2-1.2-3-1.9s-2-1.5-2.8-2.6c-.8-1-1.3-2.2-1.7-3.4-.7-2.4-.8-4.8-.8-7.2 0-4.7.2-9.4.3-14.1.2-9.4.6-18.7.9-28l.6.6-20.4-.2-20.4-.1.3-.3.7 28c.1 4.7.3 9.3.4 14 0 2.4-.1 4.7-.8 7.1-.3 1.2-.9 2.3-1.6 3.3-.8 1-1.7 1.8-2.7 2.5s-2 1.3-2.9 2c-.9.6-1.9 1.3-3 1.9-2.1 1.2-4.2 2.1-6.4 3.1-4.3 1.9-8.6 3.6-12.8 5.6-2.1 1-4.2 2.1-6.1 3.2-2 1.2-3.8 2.4-5.4 4-1.6 1.6-2.9 3.4-3.8 5.4-.4 1-.8 2.1-1 3.1-.2 1.1-.4 2.2-.3 3.2v.2l-1.5 21.5-1-1.1 34 .1c11.3 0 22.7.1 34.1.2l34.2.3 34.4.5zm.2.2-34 .4-34.2.3c-11.4.1-22.9.2-34.4.2l-34.4.1h-1.1l.1-1.1 1.7-21.5v.1c-.1-5.1 2.2-9.8 5.7-13.3 1.7-1.7 3.8-3.1 5.8-4.3 2-1.2 4.2-2.2 6.3-3.2 4.3-2 8.7-3.7 13-5.4 2.1-.9 4.3-1.8 6.3-2.9 1-.5 1.9-1.1 3-1.8 1-.6 2-1.2 2.9-1.9.9-.6 1.8-1.4 2.4-2.2.7-.9 1.2-1.9 1.5-2.9.6-2.1.8-4.5.8-6.8 0-4.6-.1-9.3-.2-14l-.6-28v-.3h.3l20.4-.1 20.4-.2h.6v.6c-.1 9.3-.2 18.7-.4 28-.1 4.7-.2 9.4-.2 14 .1 2.3.2 4.6.8 6.7.3 1.1.8 2 1.4 2.9.6.8 1.4 1.6 2.4 2.2.9.6 1.9 1.3 2.9 1.9 1 .7 1.9 1.3 2.9 1.8 2 1.1 4.1 2.1 6.3 3 4.3 1.8 8.6 3.6 12.9 5.6 2.1 1 4.2 2.1 6.2 3.3 2 1.2 4 2.6 5.7 4.3 3.4 3.4 5.6 8.1 5.4 13v-.1l1.4 21.6zm-112.8-.4 1.9-13.8.1 13.8h-2zm88.6 0-1.9-13.8-.1 13.8h2z" fill="#c8837c" stroke-width="none" opacity="1" stroke="none"></path></g><g id="svga-group-clothes-single"><path id="SvgjsPath3963" d="M163.5 187.5s-9.4 9.9-64.1 11.4c-52.2 1.4-63.4-12-63.4-12s-5.7 7.5-7.8 10.1-3.4 4.1-3.4 4.1 1.2 3.1 3.2 3.4 2-1.1 3.8-.3 3.8 3.1 3.4 4.1c-.5 1.1.2 2.8 1.8 3.5 1.7.8 5.7 2.9 6.3 1.8s3.1-1.2 2.8.1c-.3 1.4 2.3 2.9 3.4 3.2 1.1.3 3.3-2.1 4.4-2.7.7-.4 2.2-.2 3.4.2v5.4h86.1l-.1-3.1c4-.4 9.4-.8 10.7-1.6 1.8-1.1 2.8-4.6 4.5-3.4s4.9 1.2 6.7.3.3-2.6.6-4c0 0-.4-1.8 2.3-2.1s5.9-4.2 5.9-4.2l-10.5-14.2z" fill="#1e78a2" stroke-width="none" opacity="1"></path><path id="SvgjsPath3964" d="M174.6 201.5 164.2 187l-.1-.1c-.3-.4-.9-.4-1.3-.1l-.1.1c-.1.1-.4.4-.7.5-.2.2-.5.4-.8.5-.6.3-1.1.6-1.7.9-1.2.6-2.4 1.1-3.7 1.5-1.2.5-2.6.8-3.9 1.2-1.3.4-2.6.7-3.9 1-5.3 1.3-10.7 2.1-16.1 2.9-10.8 1.4-21.7 2-32.7 2.4-10.9.4-21.9.2-32.7-1.1-5.4-.6-10.8-1.6-16-3.1-2.6-.7-5.2-1.6-7.7-2.7-1.2-.6-2.5-1.1-3.6-1.9-.6-.4-1.2-.7-1.7-1.1-.3-.2-.5-.4-.8-.6-.1-.1-.3-.2-.4-.3l-.2-.2-.1-.1s0-.1-.2-.1c-.2.1-.2.2-.2.3l-.2.2-.3.4-.7.9-1.4 1.8-2.8 3.5c-1.9 2.4-3.9 4.6-5.8 7-.1.1-.1.3-.1.5.4.9.8 1.6 1.4 2.4.3.4.7.7 1.1 1 .4.3 1 .4 1.5.4s1.1-.1 1.5-.2c.5-.2.7-.3 1-.3.6 0 1.4.5 2 1 .6.5 1.2 1.1 1.5 1.8.2.3.3.7.2.8v.1l-.1.2c0 .1-.1.3-.1.4v.9c.2 1.1.9 2 1.7 2.6.2.1.5.3.7.4l.6.3 1.2.6c.8.4 1.6.7 2.5 1 .5.1.9.3 1.5.3.3 0 .7 0 1.1-.3.2-.1.4-.5.4-.4 0 0 0-.1.1-.1.2-.1.5-.3.8-.3h.4c-.1.4 0 .8.1 1.1.2.6.6 1 1 1.4.7.7 1.5 1.2 2.4 1.6.1.1.2.1.4.1H49.8c.4 0 .7-.1.9-.2.5-.2.9-.5 1.2-.8.7-.6 1.4-1.1 2-1.6.2-.1.3-.2.3-.2.1 0 .3-.1.4-.1.3 0 .7 0 1.1.1.3.1.7.1 1.1.3-.1 1.5-.1 3-.2 4.6 0 .3.2.5.5.5l10.8.2 10.8.1c7.2.1 14.3.1 21.5-.1 7.2-.1 14.3-.4 21.5-.4 7.2 0 14.4.1 21.5.2.3 0 .5-.2.5-.5v-2.7c2.3-.2 4.6-.4 6.9-.7.9-.1 1.7-.2 2.6-.5.4-.1 1-.4 1.3-.7.4-.3.7-.7 1-1 .6-.7 1.1-1.5 1.6-1.9.3-.2.5-.3.6-.2.1 0 .1.1.2.1l.3.2c.2.1.4.2.6.4 1.8.8 3.7.8 5.6.3.5-.2.9-.3 1.4-.7.5-.4.8-1.1.8-1.7 0-.6-.1-1-.2-1.4-.1-.4-.1-.8-.1-1V208c0-.1.1-.2.2-.3.2-.2.5-.4.8-.4.2-.1.4-.1.6-.1.2 0 .5-.1.8-.1.5-.2 1-.4 1.4-.6.9-.5 1.6-1.1 2.3-1.7.7-.6 1.4-1.3 2-2 .4-.6.5-1 .2-1.3zm-116.9 18c0-1.3-.1-2.5-.2-3.8.1.1.3.1.4.2l.3.3.4.5c.1.2.3.4.6.6.3.2.5.4.8.4.4.1.6.2.8.2l.7.1c.5.1.9.1 1.3.2.9.1 1.8.2 2.7.2h1.4c.5-.1.9-.1 1.6-.3.2-.1.4-.2.6-.5l.2-.3c.1-.2.2-.4.3-.5.2-.3.5-.6.6-.6.1-.2 1.1.1 1.7.4.4.2.7.4 1 .6.2.1.3.2.4.3l.2.2.1.1.1.1.1.1c.3.2.6.3.8.4.2.1.5.2.7.2.4.1.9.2 1.3.3.4.1.8.1 1.2.2l-10 .1-10.1.3zm25.5-1.8c.1 0 .1 0 0 0zm.5 1.4c.3-.1.6-.2.9-.8l.1-.3c0-.1.1-.1.1-.2.3-.4.9-.7 1.7-.8h.6c.1 0 .2 0 .4.1.3.1.6.4.9.6.3.3.7.6 1.2.9.2.1.5.2.8.3.2.1.5.1.7.1.2 0 .4.1.7.1h-8.1zm59.1.4c-7 .1-14 .2-20.9.2-6.5 0-13-.2-19.5-.4.2-.1.6-.3.7-.4.3-.3.7-.5 1-.7 1.4-.9 3.1-1.5 4.6-1.2.7.2 1.5.7 2.3 1.1.8.4 1.6.8 2.5 1 .5.1.9.1 1.4 0 .4-.1.9-.2 1.4-.5.9-.6 1.2-1.5 1.7-2.1.3-.3.4-.4.7-.3.3.1.6.4 1 .7.7.5 1.5 1 2.3 1.3.8.4 1.7.6 2.6.7.9.1 1.8 0 2.7-.1.9-.1 1.8-.3 2.6-.5.9-.3 1.7-.5 2.5-1.1.7-.7 1.2-1.3 1.8-1.8.3-.2.7-.5 1-.5.3-.1.6.1.8.4.2.3.4.7.6 1.1.2.4.4.9.8 1.2 1 .7 2 .3 2.8.2.8-.1 1.6-.2 2.4-.2l.2 1.9zm28.7-16.2c-.6.6-1.3 1.1-2 1.5-.4.2-.7.4-1.1.5-.2.1-.3.1-.6.1h-.2c-.8-1.5-1.6-2.9-2.6-4.3-1.2-1.7-2.4-3.4-3.9-4.9.9 2 2 3.7 3.1 5.5.9 1.3 1.9 2.6 3 3.9h-.2c-.5.2-1.1.4-1.5.9-.4.5-.6 1.1-.5 1.7-.1 1.2.4 2 .3 2.6 0 .3-.1.4-.2.6-.2.2-.6.3-.9.5-1.5.5-3.3.5-4.7-.1-.2-.1-.4-.2-.5-.2l-.3-.2c-.1-.1-.2-.1-.4-.2-.9-2.5-1.9-4.9-3-7.2-1.3-2.7-2.6-5.3-4.3-7.8.9 2.9 2.1 5.6 3.4 8.2 1.1 2.3 2.3 4.5 3.6 6.7h-.7c-.3.1-.6.3-.8.4-.8.7-1.2 1.4-1.7 2.1-.3.3-.5.6-.8.9-.3.3-.6.4-1 .5-.8.2-1.6.4-2.5.5-3.4.5-6.9.8-10.4 1.2-.4.1-.9.1-1.3.2-.4 0-.8 0-1-.2-.4-.3-.6-1.1-1-1.7-.4-2.3-.9-4.5-1.5-6.8-.8-2.7-1.6-5.4-2.8-8.1.4 2.8 1.1 5.6 1.8 8.3.5 1.9 1.1 3.8 1.8 5.7-.1-.1-.1-.1-.2-.1-.3-.1-.6-.1-.8-.1-.5.1-.9.4-1.3.7-.7.6-1.3 1.3-1.9 1.9-.6.5-1.4.8-2.2 1-.8.2-1.7.4-2.5.5-.8.1-1.7.2-2.5.1s-1.7-.3-2.4-.7c-.8-.3-1.5-.8-2.2-1.3l-.5-.4c-.2-.1-.4-.3-.6-.4h-.1c0-2.3-.3-4.5-.6-6.7-.4-2.4-.9-4.8-1.6-7.1 0 2.4.3 4.9.7 7.2.4 2.2.8 4.4 1.5 6.5-.2 0-.4 0-.7.1-.3.1-.5.3-.6.5-.6.8-.9 1.5-1.5 1.9-.3.2-.7.3-1.1.4-.4.1-.8.1-1.2 0-.8-.1-1.6-.5-2.3-.9l-1.1-.6c-.4-.2-.8-.5-1.3-.6-.9-.3-1.9-.1-2.8.1-.9.2-1.7.6-2.5 1.1l-.9.6c.2-1.5.1-2.9.1-4.4-.1-1.8-.3-3.6-.8-5.4-.3 1.8-.3 3.6-.2 5.4.1 1.5.2 3.1.6 4.6-.1.1-.2.1-.3.2-.2.1-.3.1-.6.1-.8.1-1.7.1-2.5.1-1.7-.1-3.4-.2-5.2-.4-.9-.1-1.7-.2-2.6-.4-.2 0-.4-.1-.6-.1-.2-.1-.3-.1-.4-.2-.3-.2-.6-.4-.9-.7s-.7-.6-1.2-.9c-.3-.1-.6-.2-.9-.2h-.7c-.5 0-1 .1-1.5.3-.3.1-.7.3-1 .6.1-.7.2-1.3.2-2l.3-3.9c.1-2.6.2-5.3 0-7.9-.6 2.6-.8 5.2-.9 7.9-.1 1.3-.1 2.6-.1 4 0 .8 0 1.7.1 2.5-.1.1-.1.2-.2.3 0 .1-.1.1-.1.2h-.1c-.3.1-.7.1-1.1.1-.8 0-1.7 0-2.5-.1s-1.7-.2-2.5-.4l-1.2-.3c-.4-.1-.8-.3-.9-.4l-.1-.1-.3-.3c-.2-.2-.4-.3-.6-.5-.4-.3-.8-.5-1.2-.7-.4-.2-.9-.4-1.4-.5-.3-.1-.5-.1-.9-.1s-.7.1-1 .2c-.4.2-.6.4-.9.7.3-1.2.6-2.4.8-3.6.3-2 .6-4.1.5-6.1-.7 1.9-1.2 4-1.5 6-.2 1-.3 2-.4 3.1 0 .6-.1 1.1-.1 1.6l-.1.1-.1.2c-.2.1-.6.1-.9.1h-1.2c-.8 0-1.7-.1-2.5-.2-.4 0-.8-.1-1.3-.1l-.6-.1c-.2 0-.4-.1-.5-.1-.3-.1-.4-.2-.7-.5l-.4-.5c-.1-.1-.4-.5-.7-.6-1-.6-1.8-.8-2.8-1-.5-.1-1-.1-1.5-.1-.3 0-.5.1-.8.2.8-1.9 1.5-3.9 2.1-5.9.8-2.8 1.6-5.5 2.1-8.4-1.2 2.6-2.2 5.4-3 8.1-.7 2.1-1.3 4.3-1.7 6.5-.1 0-.1.1-.2.1-.8.6-1.4 1.1-2 1.6-.3.2-.7.5-1 .6-.1.1-.3.1-.3.1-.1 0-.2-.1-.2-.1-.7-.3-1.4-.7-2-1.2-.3-.2-.5-.5-.5-.7v-.2c.1-.3.1-.8-.2-1.3-.3-.4-.7-.6-1-.6-.3-.1-.6-.1-.9 0-.6.1-1.1.3-1.6.7l-.4.4h-.1c-.3 0-.7-.1-1.1-.2-.8-.2-1.6-.6-2.3-.9l-1.2-.5-.6-.3c-.2-.1-.3-.1-.5-.2-.6-.4-1-1-1.2-1.6v-.7l.1-.3v-.6c1.3-1.9 2.5-3.8 3.6-5.8 1.4-2.5 2.7-5.1 3.8-7.8-1.8 2.3-3.2 4.8-4.7 7.3-1 1.9-2 3.7-2.9 5.7-.1-.2-.2-.4-.2-.5-.5-.9-1.2-1.5-1.9-2.1-.8-.6-1.5-1.1-2.7-1.2-.6 0-1.1.3-1.5.4-.4.1-.7.2-1 .2-1.3 0-2.4-1.4-3.1-2.8l5.4-6.9 2.7-3.7 1.3-1.8.7-.9.3-.5.2-.2c0-.1.1-.1.1-.1l.1.1.2.2.4.4c.3.2.5.4.8.7.5.4 1.1.8 1.7 1.2 1.2.8 2.4 1.4 3.6 2 2.5 1.2 5.1 2.2 7.7 3 5.3 1.7 10.7 2.7 16.1 3.6 5.4.8 10.9 1.2 16.4 1.5 5.5.2 11 .3 16.5.2 11-.3 22-.9 32.9-2.3 5.5-.7 10.9-1.6 16.3-3 1.3-.4 2.7-.7 4-1.1 1.3-.4 2.7-.8 4-1.3 1.3-.5 2.6-1 3.9-1.6.6-.3 1.3-.6 1.9-1l.9-.6s.1 0 .1-.1l9.6 13.1c-1 .2-1.5.7-2 1.1z" fill="#005a83" stroke-width="none" opacity="1"></path><path id="SvgjsPath3965" d="M170.6 200.7c-.9-1.8-2.4-3.3-3.6-4.9-1.2-1.6-2.4-3.3-3.5-4.9-.1-.2-.4 0-.3.2 1.9 3.4 3.9 7.5 6.9 10.1.3.2.7-.1.5-.5zm-19.5-1.4c-.1-.2-.5 0-.4.2 1.5 3.4 2.7 7.2 4.6 10.4-1.5.1-2.4 2-3.8 2.7-3 1.7-7 1.5-10.2 2.7-.3.1-.2.5.1.5 2.9 0 5.9-.6 8.7-1.2.9-.2 1.8-.4 2.6-.9 1.4-.9 1.7-2.4 3.4-2.9.3 0 .5-.3.4-.6-1-3.8-3.4-7.5-5.4-10.9zm13.7 6.8c-1.1-.1-1.9 1.1-1.8 2.1 0 .7.6 1.2.7 1.9.2 1.2-1.3 1.2-1.9 1-.5-.1-1.1-.4-1.5-.7-.2-.1-.4.2-.2.3 1.1.9 2.9 1.9 4.1.5.4-.5.5-1.1.3-1.7-.1-.5-.5-1-.5-1.5 0-.6.6-1.1 1.1-1.5 0 0-.1-.3-.3-.4zm-30.1 6.4c-1-4.3-2.5-8.5-3.6-12.7-.1-.2-.4-.2-.4.1.5 4.4 1.4 9 3.2 13 .2.5.9.1.8-.4zm.3.9c-1.5-.2-2.6.5-3.8 1.4-2.8 2.1-5.6 3-8.9 1.2-.1-.1-.3.1-.2.2 1.6 1.3 3.3 1.9 5.4 1.6 2.9-.4 4.6-2.9 7.4-3.6.5-.2.5-.8.1-.8zM115.3 203c-.1-.3-.6-.3-.6.1.2 2 .5 4 .8 6 .3 2 .4 4.1 1.2 5.9.1.3.6.1.6-.2.2-1.9-.4-3.8-.8-5.6-.3-2-.6-4.2-1.2-6.2zm0 12.6c-2.4.9-4.2-1.2-6.4-1.5-1.9-.2-3.4.4-4.8 1.6-.2.2.1.5.3.4 1.3-.9 3.1-1.4 4.8-1.1 1.3.3 2.3 1.3 3.6 1.7 1.2.4 2.2.4 3-.6.1-.3-.2-.6-.5-.5zm-14.5.9c-1.3-.4-2.2-.2-3.5-.1-3.1.4-4.2-.4-6.7-1.6-1.8-.9-3.5-1.2-5.1.1-.2.1.1.4.2.3 3.2-1.4 5.2 1.3 7.9 2.1 2.3.7 4.5-.7 6.8 0 .7.3 1-.6.4-.8zm-18.5-.6c-4.3 1.2-7.2-4.1-11.3-2.9-.3.1-.3.5 0 .6 2.5.7 4.6 2 7 2.9 1.6.6 3.1.7 4.6 0 .4-.2.1-.7-.3-.6zm-17.4-1.4c-.4-.1-.8.1-1.2 0-1.7-.2-1.6-.8-2.6-1.6-1.6-1.3-3.5-1.3-5.5-.9 1.9-3.7 3.9-8.6 3.8-12.9 0-.3-.4-.4-.5-.1-.9 1.9-1.3 4-1.8 6.1-.7 2.3-1.4 4.6-2 6.9v.2c-.1.1 0 .3.1.3 1.3.1 2.8 0 4 .5 1.1.5 1.5 1.4 2.4 2.1 1.3 1 2.8.1 4.1.9.3.2.8-.2.6-.6-.3-.6-.7-.8-1.4-.9zm-19.4-19.1c.2-.4-.5-.6-.7-.3-3.1 4.3-5.8 9.1-8.8 13.5-.2.3.3.7.5.4 3.6-3.9 7.1-8.7 9-13.6zm5.6 18.3c-1.2.1-2-2.5-2.8-3.2-.6-.5-1.3-.8-2.1-.9-.5 0-.8 0-1.2.1 2.3-3.1 4.5-6.6 5.6-10.2.1-.3-.3-.4-.5-.2-2.4 3.4-4.3 7.3-6.4 10.9-.2.1-.4.2-.6.2-.5.6-1 .7-1.7.3-.7 0-1.4-.2-1.9-.6-.8-.4-1.7-.9-2.5-1.4-.3-.2-.8.3-.4.6 2 1.9 4.3 3.6 6.9 2.5 3.3-1.4 3.1-1.3 5.2 1.3.4.5.3.8.9 1.2.7.5 1.1.4 1.8 0 .2 0 .1-.6-.3-.6zm-14.8-9.6c-.4-1.2-1.6-2-2.8-2.4-.7-.2-1.4-.3-2.1-.2-.7.1-5.1 1.4-4.1-.9.1-.3-.3-.6-.5-.3-.8 1.2 0 2.4 1.3 2.7 1.2.3 2.3-.4 3.5-.5 1.7-.1 2.7 1 3.8 2 .5.4 1.1.1.9-.4zm68.3 9.9c.2-3.3-.3-6.7-1.2-9.9-.1-.3-.6-.3-.6.1.3 3.3.6 6.7 1.3 9.9.1.2.5.1.5-.1z" fill="#3389b1" stroke-width="none" opacity="1"></path></g><g id="svga-group-head" transform="matrix(1,0,0,1,0,0)"><g id="svga-group-ears-left-move" transform="matrix(1,0,0,1,0,0)"><g id="svga-group-ears-left" transform="matrix(1,0,0,1,0,0)"><path id="SvgjsPath3814" d="M64.2 96.3c-.2-.3-3.1-4-5.5-6.3-2.5-2.3-3.2-2.2-4.4-.8s-2.7 8.5-2.3 11.7 3.3 8.2 4.9 11c1.6 2.8 3.1 6.3 4.8 6 1.8-.3 4.2-4.3 5.3-7.3 1.2-3 .6-10.3-2.8-14.3z" fill="#f6e4e2" stroke-width="none" opacity="1" stroke="none"></path><path id="SvgjsPath3815" d="M67.9 104.8c.1.8.2 1.6.2 2.4s0 1.6-.2 2.4l-.3 1.2c-.1.4-.3.7-.4 1-.3.7-.6 1.3-.9 2-.7 1.2-1.4 2.4-2.4 3.4-.5.5-1 1-1.7 1.2-.3.1-.8.1-1.2 0-.4-.2-.7-.4-1-.7-1.2-1.2-1.8-2.6-2.5-4s-1.4-2.7-2.1-4.1c-.7-1.4-1.4-2.8-2-4.2-.3-.7-.6-1.4-.9-2.2-.3-.7-.5-1.5-.6-2.3-.2-1.6 0-3.2.1-4.7.2-1.5.4-3 .8-4.5.2-.7.4-1.5.7-2.2.1-.2.2-.3.3-.5s.2-.4.3-.5c.2-.3.5-.5.8-.7s.7-.3 1.1-.3c.4.1.7.2 1.1.4.6.4 1.1.9 1.7 1.4 2 2.1 3.7 4.5 5.6 6.8 1.8 2.5 2.9 5.6 3.5 8.7zm-9.6-14.6c-1-.8-2.2-1.7-2.9-1.2-.2.1-.4.3-.6.6-.1.1-.2.2-.2.3-.1.1-.1.3-.2.4-.3.6-.5 1.2-.7 1.9-.4 1.3-.8 2.8-1.1 4.2-.3 1.4-.5 3-.4 4.4.1.7.3 1.5.5 2.2l.9 2.1c.6 1.4 1.4 2.7 2.2 4s1.6 2.6 2.3 3.9c.4.7.7 1.3 1.1 1.9.4.6.8 1.2 1.2 1.6s.8.6 1.2.4.9-.5 1.3-1c.8-.9 1.5-2 2.2-3.2l.9-1.8c.1-.3.3-.6.4-.9l.2-.4c0-.2.1-.3.1-.5.3-1.3.3-2.8.3-4.3-.1-1.5-.3-3-.8-4.5s-1.2-2.9-2.1-4c-1.7-2.2-3.7-4.4-5.8-6.1z" fill="#e7c1bd" stroke-width="none" opacity="1" stroke="none"></path><path id="SvgjsPath3816" d="M54.1 102.4c-.2-2.1-.4-7.4.8-9 2-2.7 5.6 6.1 6.5 8.8 0 .1.1.2.1.2.1.3-.1.7-.4.6-.4-.2-.8-.6-1.2-.8-1.1-.5-1.5.4-1.2 1.7.4 1.7 1.3 2.7 2.1 4 .1.2 0 .4-.2.3-1.5-.9-3.3-4.2-2.9-6.2.3-1.8 1.8-1.7 2.9-.8-.7-1.6-1.4-3.1-2.3-4.5-.6-.9-1.1-1.9-2-2-1.1-.2-.9.3-1.1 1.7-.8 4.6-.3 9.7 2.4 13.7.1.1 0 .2-.1.1-2-2.2-3.1-4.7-3.4-7.8z" fill="#d7a19b" stroke-width="none" opacity="1" stroke="none"></path></g></g><g id="svga-group-ears-right-move" transform="matrix(1,0,0,1,0,0)"><g id="svga-group-ears-right" transform="matrix(1,0,0,1,0,0)"><path id="SvgjsPath3817" d="M135.8 96.3c.2-.3 3.1-4 5.5-6.3 2.5-2.3 3.2-2.2 4.4-.8s2.7 8.5 2.3 11.7-3.3 8.2-4.9 11c-1.6 2.8-3.1 6.3-4.8 6-1.8-.3-4.2-4.3-5.3-7.3-1.2-3-.6-10.3 2.8-14.3z" fill="#f6e4e2" stroke-width="none" opacity="1" stroke="none"></path><path id="SvgjsPath3818" d="M135.7 96.3c1.8-2.3 3.5-4.7 5.6-6.8.5-.5 1-1 1.7-1.4.3-.2.7-.4 1.1-.4.4-.1.8.1 1.1.3.3.2.6.5.8.7.1.1.2.3.3.5s.2.3.3.5c.3.7.5 1.4.7 2.2.4 1.5.6 3 .8 4.5.1 1.5.3 3.1.1 4.7-.1.8-.3 1.6-.6 2.3-.3.8-.6 1.5-.9 2.2-.6 1.4-1.3 2.8-2 4.2-.7 1.4-1.4 2.7-2.1 4.1-.7 1.4-1.4 2.8-2.5 4-.3.3-.6.6-1 .7s-.9.2-1.2 0c-.7-.2-1.2-.7-1.7-1.2-1-1-1.7-2.2-2.4-3.4-.3-.6-.6-1.3-.9-2-.1-.3-.3-.7-.4-1l-.3-1.2c-.1-.8-.2-1.6-.2-2.4s.1-1.6.2-2.4c.5-3.3 1.6-6.4 3.5-8.7zm.1.1c-.9 1.1-1.6 2.5-2.1 4s-.7 3-.8 4.5 0 3 .3 4.3c0 .2.1.3.1.5l.2.4c.1.3.3.6.4.9l.9 1.8c.6 1.2 1.4 2.3 2.2 3.2.4.4.9.8 1.3 1 .4.2.8 0 1.2-.4s.8-1 1.2-1.6.8-1.3 1.1-1.9c.7-1.3 1.6-2.6 2.3-3.9.8-1.3 1.5-2.6 2.2-4l.9-2.1c.3-.7.5-1.5.5-2.2.1-1.5-.1-3-.4-4.4-.3-1.4-.6-2.9-1.1-4.2-.2-.7-.5-1.3-.7-1.9-.1-.1-.1-.3-.2-.4-.1-.1-.1-.2-.2-.3l-.6-.6c-.7-.6-1.8.4-2.9 1.2-2 1.6-4 3.8-5.8 6.1z" fill="#e7c1bd" stroke-width="none" opacity="1" stroke="none"></path><path id="SvgjsPath3819" d="M145.9 102.4c.2-2.1.4-7.4-.8-9-2-2.7-5.6 6.1-6.5 8.8 0 .1-.1.2-.1.2-.1.3.1.7.4.6.4-.2.8-.6 1.2-.8 1.1-.5 1.5.4 1.2 1.7-.4 1.7-1.3 2.7-2.1 4-.1.2 0 .4.2.3 1.5-.9 3.3-4.2 2.9-6.2-.3-1.8-1.8-1.7-2.9-.8.7-1.6 1.4-3.1 2.3-4.5.6-.9 1.1-1.9 2-2 1.1-.2.9.3 1.1 1.7.8 4.6.3 9.7-2.4 13.7-.1.1 0 .2.1.1 2-2.2 3.1-4.7 3.4-7.8z" fill="#d7a19b" stroke-width="none" opacity="1" stroke="none"></path></g></g><g id="svga-group-faceshape-wrap" transform="matrix(1,0,0,1,0,0)"><g id="svga-group-faceshape-single"><path id="SvgjsPath3846" d="M140.77 85.57c-1.2-28.5-19.35-43.85-40.65-43.85-21.4 0-39.5 15.1-40.7 43.6 0 0-.02 15.52 1.88 22.22s5.63 13.13 8.93 17.83 11.85 16.6 13.64 18.91c1.95 2.51 9.21 10.03 16.21 10.03s14.03-7.46 15.53-9.86c1.5-2.5 10.5-14.11 13.9-18.81 3.3-4.7 7.52-11.19 9.42-17.89 1.89-6.7 1.84-22.18 1.84-22.18z" fill="#f6e4e2" stroke-width="none" opacity="1" stroke="none"></path><path id="SvgjsPath3847" d="M139.3 107.7c1.9-6.7 1.7-22.3 1.7-22.3-1.2-28.5-19.7-44.1-41-44.1S60.2 57 59 85.4c0 0-.2 15.6 1.7 22.3s6 13.1 9.3 17.8c3.3 4.7 12.24 17.3 14.09 19.56 2.38 2.9 8.91 9.54 15.91 9.54s14.56-7.77 16.06-10.17c2.13-2.82 10.54-14.23 13.94-18.93 3.3-4.7 7.4-11.1 9.3-17.8zm-14.1 21.95c-1 1.32-1.9 2.53-2.9 3.85s-8.19 13.53-14.9 17.41c-1.2.71-2.5 1.32-3.8 1.82-1.3.4-2.6.71-3.8.71-1.2 0-2.5-.3-3.8-.71-1.3-.51-2.6-1.11-3.8-1.82-1.2-.71-2.5-1.62-3.6-2.53-3.56-2.72-8.71-11.55-8.71-11.55-1.9-2.63-3.29-4.85-5.19-7.49-.9-1.32-1.9-2.63-2.9-3.95-.9-1.32-1.9-2.53-2.8-3.85s-1.7-2.63-2.5-3.95-1.6-2.73-2.2-4.15c-.7-1.42-1.3-2.83-1.8-4.25l-.7-2.23c-.1-.4-.5-2.33-.5-2.33-.6-3.14-.9-6.28-1.1-9.52l-.3-4.86c0-.81-.1-1.62-.1-2.43V85.4c.2-6.38 1.4-12.75 3.8-18.63 2.5-5.87 6.2-11.14 11-14.98l3.7-2.73c.3-.2.7-.4 1-.61l1-.61s1.7-.81 2-1.01c.7-.3 1.4-.61 2.1-.91.4-.1 2.2-.81 2.2-.81.4-.1.7-.2 1.1-.3l2.2-.61c.4-.1 7.1-1.11 10.1-1.01 3 0 6 .4 9 1.01.4.1 1.8.51 2.2.61.7.2 4.4 1.52 4.4 1.52l2 .91c2.7 1.32 5.3 2.94 7.7 4.86 2.4 1.92 4.5 4.25 6.4 6.68 1 1.21 1.8 2.53 2.6 3.95.4.71.8 1.42 1.1 2.13s.7 1.42 1 2.13c2.6 5.87 3.9 12.25 4.1 18.63 0 1.62 0 3.24-.1 4.86s-.1 3.24-.2 4.86c-.2 3.24-.6 6.38-1.2 9.52-.3 1.62-.7 3.04-1.3 4.56s-1.2 2.94-2 4.35c-1.5 2.83-3.2 5.47-5 8-.9 1.3-4.5 6.56-5.5 7.88z" fill="#c8837c" stroke-width="none" opacity="1" stroke="none"></path></g></g><g id="svga-group-mouth-single-move" transform="matrix(1,0,0,1,0,0)"><g id="svga-group-mouth-single" transform="matrix(1,0,0,1,0,0)"><path id="SvgjsPath3802" d="M86.9 128.6s2-.5 3.7-2.3c1.8-1.8 2.3-2.2 3.2-2.6 1-.4 3.2-1 4.9.4 1.6 1.3 2 .5 2.7 0s2-1.4 4.2-.6 4.3 3.4 5.6 4.1 2.2.9 2.2.9-1.7 2.4-3.1 3.8c-1.9 2-4.3 2.7-8.6 3-4.3.3-7.2-.5-9-1.7-1.9-1.2-3.5-3.2-3.9-3.6-.5-.5-1.9-1.4-1.9-1.4z" fill="#904539" stroke-width="none" opacity="1" transform="translate(0 3)" stroke="none"></path><path id="SvgjsPath3803" d="M86.2 128.6c1.8.9 3.6.8 5.5.4 1.4-.3 2.9-.6 4.3-.5s2.7.8 4.2.9c1.1 0 2-.4 3-.7 1.9-.6 3.5-.3 5.4.1 1.9.4 4 1 5.7-.2.3-.2.1-.6-.2-.6-2.7.5-4.7-.2-7.4-.6-2.4-.4-4.4 1.1-6.8.8-2-.2-3.5-1-5.5-.7-2.7.3-5.2 1.4-7.9.4-.4 0-.6.6-.3.7z" fill="#813326" stroke-width="none" opacity="1" transform="translate(0 3)" stroke="none"></path><path id="SvgjsPath3804" d="M109.8 130.3c-4.4.3-8.6 1.8-13 1.6-.2 0-.3.3-.1.4 4.3 1.1 9.6 1.4 13.2-1.8.1-.1 0-.2-.1-.2z" fill="#9f5a4f" stroke-width="none" opacity="1" transform="translate(0 3)" stroke="none"></path></g></g><g id="svga-group-eyes-left-move" transform="matrix(1,0,0,1,0,0)"><g id="svga-group-eyes-left" transform="matrix(1,0,0,1,0,0)"><g id="svga-group-eyesback-left"><path id="SvgjsPath3890" d="M92.2 101.8s-.6-1.9-2-3.8-3.3-3.9-6.6-4.5c-3.3-.6-12.1 2.2-12.1 2.2s1.4 1.9 3.1 3.1 6.3 2.9 8.2 2.8c1.9-.1 4.2-.5 5.2-.5 1.2 0 3.2 0 4.2.7z" fill="#ffffff" stroke-width="none" opacity="1"></path></g><g id="svga-group-eyesiriswrapper-left" transform="matrix(1,0,0,1,0,0)"><g id="svga-group-eyesiriscontrol-left" transform="matrix(1,0,0,1,0,0)"><g id="svga-group-eyesiris-left" transform="matrix(1,0,0,1,0,0)"><path id="SvgjsPath3862" d="M82 91.3c2.8 0 5.2 2.3 5.2 5.2s-2.3 5.2-5.2 5.2-5.2-2.3-5.2-5.2 2.3-5.2 5.2-5.2z" fill="#9fae70" stroke-width="none" opacity="1"></path><path id="SvgjsPath3863" d="M82 92.9c2 0 3.6 1.6 3.6 3.6S83.9 100 82 100s-3.6-1.6-3.6-3.6 1.6-3.5 3.6-3.5z" fill="#000000" stroke-width="none" opacity="1"></path><path id="SvgjsPath3864" d="m78.2 94 4 2.9-1.6-4.7c-.3-.4-2.3.7-2.4 1.8z" fill="#ffffff" stroke-width="none" opacity="1"></path></g></g></g><g id="svga-group-eyesfront-left"><path id="SvgjsPath3898" d="M70.7 98c0 6.9 4.9 12.5 11 12.5s11-5.6 11-12.5-4.9-12.5-11-12.5-11 5.6-11 12.5zm.9-2.3s8.8-2.9 12.1-2.2c3.3.6 5.3 2.6 6.6 4.5 1.4 1.9 2 3.8 2 3.8-1-.7-3.1-.7-4.1-.7-1.1 0-3.3.5-5.2.5-1.9.1-6.4-1.7-8.2-2.8-1.9-1.2-3.2-3.1-3.2-3.1z" fill="#f6e4e2" stroke-width="none" opacity="1" stroke="none"></path><path id="SvgjsPath3899" d="M71.4 96c.2.3.4.6.7.9-.8-.2-1.8 0-2.4.5-.1.1 0 .2.1.2.5-.2 1.1-.3 1.7-.3.5 0 .9.2 1.3.4.1.1.2.2.4.3-.6.1-1.1.4-1.4.8-.1.1 0 .3.1.2.5-.3 1.1-.5 1.6-.7 1.7 1.4 3.7 2.4 5.6 3 1.7.5 3.4.8 5.2.6 2.7-.3 5.1-1.4 7.8 0 .1.1.2-.1.1-.2.1 0 .1-.1.1-.2-1.2-4.4-4.7-8.2-9.4-9.1-1.9-.3-3.7 0-5.5.5-1.2-.3-2.1-.9-3.1-1.8-.1-.1-.3 0-.2.2.5.9 1.5 1.6 2.5 1.9-.3.1-.6.2-.8.3-1.8.1-3.2-.6-4.6-1.7-.1-.1-.3.1-.2.2.9 1.1 2.3 1.7 3.7 1.9-.5.2-.9.3-1.4.4-1.9 0-3.5-.6-5.2-1.7-.1-.1-.2.1-.1.2 1 1.1 2.5 1.8 4 1.9-2.3.5-4.4.3-6.8-1.2-.1-.1-.3.1-.2.2 2.2 1.9 4.3 2.4 6.4 2.3zm.5 0c1.3-.1 2.7-.5 4.2-1 3.2-1 7-1.9 10.1-.2 2.8 1.5 4.4 4.1 5.8 6.8-2.9-1.5-5.7-.3-8.8-.5-4.5-.2-8-2.4-11.3-5.1z" fill="#000000" stroke-width="none" opacity="1" stroke="none"></path></g></g></g><g id="svga-group-eyes-right-move" transform="matrix(1,0,0,1,0,0)"><g id="svga-group-eyes-right" transform="matrix(1,0,0,1,0,0)"><g id="svga-group-eyesback-right"><path id="SvgjsPath3891" d="M107.8 101.8s.6-1.9 2-3.8 3.3-3.9 6.6-4.5c3.3-.6 12.1 2.2 12.1 2.2s-1.4 1.9-3.1 3.1-6.3 2.9-8.2 2.8c-1.9-.1-4.2-.5-5.2-.5-1.2 0-3.2 0-4.2.7z" fill="#ffffff" stroke-width="none" opacity="1"></path></g><g id="svga-group-eyesiriswrapper-right" transform="matrix(1,0,0,1,0,0)"><g id="svga-group-eyesiriscontrol-right" transform="matrix(1,0,0,1,0,0)"><g id="svga-group-eyesiris-right" transform="matrix(1,0,0,1,0,0)"><path id="SvgjsPath3865" d="M118 91.3c2.8 0 5.2 2.3 5.2 5.2s-2.3 5.2-5.2 5.2-5.2-2.3-5.2-5.2 2.4-5.2 5.2-5.2z" fill="#9fae70" stroke-width="none" opacity="1"></path><path id="SvgjsPath3866" d="M118 92.9c2 0 3.6 1.6 3.6 3.6S120 100 118 100s-3.6-1.6-3.6-3.6 1.7-3.5 3.6-3.5z" fill="#000000" stroke-width="none" opacity="1"></path><path id="SvgjsPath3867" d="m114.2 94 4 2.9-1.6-4.7c-.2-.4-2.2.7-2.4 1.8z" fill="#ffffff" stroke-width="none" opacity="1"></path></g></g></g><g id="svga-group-eyesfront-right"><path id="SvgjsPath3900" d="M118.3 85.5c-6.1 0-11 5.6-11 12.5s4.9 12.5 11 12.5 11-5.6 11-12.5-5-12.5-11-12.5zm7 13.3c-1.7 1.2-6.3 2.9-8.2 2.8-1.9-.1-4.2-.5-5.2-.5-1.1 0-3.1 0-4.1.7 0 0 .6-1.9 2-3.8s3.3-3.9 6.6-4.5c3.3-.6 12.1 2.2 12.1 2.2s-1.4 1.9-3.2 3.1z" fill="#f6e4e2" stroke-width="none" opacity="1" stroke="none"></path><path id="SvgjsPath3903" d="M134.8 93.7c.1-.1 0-.3-.2-.2-2.4 1.5-4.5 1.7-6.8 1.2 1.5-.1 2.9-.8 4-1.9.1-.1 0-.3-.1-.2-1.6 1.2-3.3 1.8-5.2 1.7-.4-.1-.9-.3-1.4-.4 1.4-.1 2.9-.7 3.7-1.9.1-.1-.1-.3-.2-.2-1.5 1.1-2.8 1.8-4.6 1.7-.3-.1-.6-.2-.8-.3 1-.3 2-1 2.5-1.9.1-.1-.1-.3-.2-.2-1 .9-1.9 1.5-3.1 1.8-1.8-.5-3.6-.8-5.5-.5-4.6.9-8.1 4.6-9.4 9.1 0 .1 0 .2.1.2-.1.1 0 .2.1.2 2.7-1.4 5.1-.3 7.8 0 1.8.2 3.5-.1 5.2-.6 1.9-.6 3.9-1.7 5.6-3 .6.2 1.1.4 1.6.7.1.1.2-.1.1-.2-.4-.4-.9-.7-1.4-.8.1-.1.2-.2.4-.3.4-.2.8-.4 1.3-.4.6 0 1.1.1 1.7.3.1 0 .2-.1.1-.2-.6-.5-1.5-.7-2.4-.5.2-.3.5-.6.7-.9 2.3.1 4.4-.4 6.4-2.3zm-18 7.5c-3.1.2-5.9-1-8.8.5 1.3-2.7 3-5.3 5.8-6.8 3.2-1.7 6.9-.8 10.1.2 1.5.5 2.9.8 4.2 1-3.3 2.6-6.8 4.8-11.3 5.1z" fill="#000000" stroke-width="none" opacity="1" stroke="none"></path></g></g></g><g id="svga-group-facehighlight-single"></g><g id="svga-group-eyebrows-left-move" transform="matrix(1,0,0,1,0,0)"><g id="svga-group-eyebrows-left-rotate" transform="matrix(1,0,0,1,0,0)"><g id="svga-group-eyebrows-left" transform="matrix(1,0,0,1,0,0)"><path id="SvgjsPath3939" d="M68.8 86s.1 0 0 0c.1-.1.1-.1.1-.2.3-.6.9-1 1.4-1.3.6-.4 1.3-.9 1.9-1.3h.1c1.5-1.1 4-1.3 6-.8 1.9.2 3.8.8 5 1.3.1 0 .2.1.4.1 1.6.3 3.3.6 4.8 1.2 1.5.3 3 .5 4.4 1h.1c.1-.1.4 0 .4.2.1.2.1.4 0 .7.2 0 .3.1.3.3-.1.5-.3.9-.6 1.3v.1c-.3.8-.9 1.1-1.8 1-.1 0-.2 0-.4-.1-.1.1-.2.1-.3.1-1.6-.1-3.2-.8-4.6-1.4-.9-.4-1.9-.8-2.8-1.3-1.4-.2-2.8-.6-4.2-.9-1.3-.3-2.8-.3-4-.8-.4.1-.9.1-1.3.2-.3.1-.6.2-1 .2-1 .3-2.2.8-3.2.9h-.1c-.1 0-.1.1-.2.1-.2.2-.4.4-.7.5-.1 0-.3-.1-.3-.2 0-.5.3-.7.6-.9z" fill="#caa478" stroke-width="none" opacity="1"></path><path id="SvgjsPath3940" d="M89.9 85.4c1.3.8 1.5 2.8 1.3 4.2 0 .3-.5.3-.6 0-.2-.7-.2-1.4-.3-2.1-.2-.6-.4-1.1-.7-1.7-.1-.3.1-.6.3-.4zm-3.2-.9c2.1.4 3.4 2.9 3.6 4.8 0 .2-.3.2-.3.1-.2-1-.6-1.9-1.2-2.7-.6-.8-1.4-1.3-2.2-2-.1-.1 0-.3.1-.2zM81 83.1c.9.2 1.9 1 2.6 1.7.7.7 1.3 1.5 1.5 2.4 0 .2-.2.3-.3.2-.5-.8-.9-1.6-1.7-2.2-.7-.6-1.6-1-2.2-1.8-.1-.2-.1-.3.1-.3zM76.3 82c2.3 0 4.7 2.1 5.4 4.2.1.2-.2.3-.3.1-.6-.9-1.2-1.8-2.1-2.5-.9-.7-1.9-1-3-1.4-.3-.1-.3-.4 0-.4zm-5.6 2.4c2.1-2.7 6.2-1.8 7.9.8.1.2-.2.4-.3.2-1-.9-2.1-1.9-3.5-2-1.5-.2-2.7.8-3.9 1.3-.3.1-.3-.2-.2-.3z" fill="#d9ba97" stroke-width="none" opacity="1"></path><path id="SvgjsPath3941" d="M92.1 90.3c1.6-.4 2-2.2 2-3.7 0-.3-.4-.3-.5-.1-.2.6-.4 1.3-.7 1.8-.3.5-.7.8-1.1 1 .4-1.2.2-2.6-.6-3.7.6.1 1.1.3 1.7.4.2 0 .3-.2.1-.3-2.7-1-5.6-1.6-8.3-2.4-2.4-.7-4.9-1.4-7.3-1.7-4.6-.6-7.6 2.4-10.3 5.7-.1.1-.2.2-.3.2-.4.3 0 .9.4.6 2.5-1.5 5-2.4 7.9-2.4 3.1.1 6.2 1.1 9.2 2.1 1.6.6 3.1 1.2 4.6 1.8 1 .6 2.1 1 3.2.7zm-20-6.8c1-.7 2.1-1 3.1-1.1.8.4 1.6.8 2.3 1.4.5.5.9 1.1 1.3 1.6-.1 0-.2-.1-.4-.1-3.4-.7-6.6-.4-9.5 1 1-1 2-2 3.2-2.8zm19.3 6c-.5 0-1.1-.1-1.7-.3-1.2-.4-2.4-1-3.6-1.5-.2-.1-.4-.1-.6-.2 0-.9-.3-1.8-.9-2.4-.1-.1-.3 0-.2.2.3.7.7 1.4.9 2.1-.8-.3-1.5-.6-2.3-.8-.7-1.5-2.1-3.1-3.6-3.8-.2-.1-.3.2-.2.3.6.6 1.3 1 1.9 1.7.5.5.9 1.1 1.3 1.7-1-.3-1.9-.6-2.9-.8-.2-.8-.9-1.6-1.5-2.1-.4-.4-1-.8-1.5-1.1.9 0 1.9.1 2.8.3 3.8.8 7.6 1.9 11.4 2.8.8 1.2 1 2.5.7 3.9z" fill="#bb8f5c" stroke-width="none" opacity="1"></path></g></g></g><g id="svga-group-eyebrows-right-move" transform="matrix(1,0,0,1,0,0)"><g id="svga-group-eyebrows-right-rotate" transform="matrix(1,0,0,1,0,0)"><g id="svga-group-eyebrows-right" transform="matrix(1,0,0,1,0,0)"><path id="SvgjsPath3942" d="M131.2 86s-.1 0 0 0c-.1-.1-.1-.1-.1-.2-.3-.6-.9-1-1.4-1.3-.6-.4-1.3-.9-1.9-1.3h-.1c-1.5-1.1-4-1.3-6-.8-1.9.2-3.8.8-5 1.3-.1 0-.2.1-.4.1-1.6.3-3.3.6-4.8 1.2-1.5.3-3 .5-4.4 1h-.1c-.1-.1-.4 0-.4.2-.1.2-.1.4 0 .7-.2 0-.3.1-.3.3.1.5.3.9.6 1.3v.1c.3.8.9 1.1 1.8 1 .1 0 .2 0 .4-.1.1.1.2.1.3.1 1.6-.1 3.2-.8 4.6-1.4.9-.4 1.9-.8 2.8-1.3 1.4-.2 2.8-.6 4.2-.9 1.3-.3 2.8-.3 4-.8.4.1.9.1 1.3.2.3.1.6.2 1 .2 1 .3 2.2.8 3.2.9h.1c.1 0 .1.1.2.1.2.2.4.4.7.5.1 0 .3-.1.3-.2 0-.5-.3-.7-.6-.9z" fill="#caa478" stroke-width="none" opacity="1"></path><path id="SvgjsPath3943" d="M110.1 85.4c-1.3.8-1.5 2.8-1.3 4.2 0 .3.5.3.6 0 .2-.7.2-1.4.3-2.1.2-.6.4-1.1.7-1.7.1-.3-.1-.6-.3-.4zm3.2-.9c-2.1.4-3.4 2.9-3.6 4.8 0 .2.3.2.3.1.2-1 .6-1.9 1.2-2.7.6-.8 1.4-1.3 2.2-2 .1-.1 0-.3-.1-.2zm5.7-1.4c-.9.2-1.9 1-2.6 1.7-.7.7-1.3 1.5-1.5 2.4 0 .2.2.3.3.2.5-.8.9-1.6 1.7-2.2.7-.6 1.6-1 2.2-1.8.1-.2.1-.3-.1-.3zm4.7-1.1c-2.3 0-4.7 2.1-5.4 4.2-.1.2.2.3.3.1.6-.9 1.2-1.8 2.1-2.5.9-.7 1.9-1 3-1.4.3-.1.3-.4 0-.4zm5.6 2.4c-2.1-2.7-6.2-1.8-7.9.8-.1.2.2.4.3.2 1-.9 2.1-1.9 3.5-2 1.5-.2 2.7.8 4 1.3.2.1.2-.2.1-.3z" fill="#d9ba97" stroke-width="none" opacity="1"></path><path id="SvgjsPath3944" d="M111.1 89.8c1.5-.6 3.1-1.2 4.6-1.8 2.9-1 6.1-2.1 9.2-2.1 2.9-.1 5.5.9 7.9 2.4.4.2.8-.4.4-.6-.1-.1-.2-.2-.4-.2-2.7-3.3-5.7-6.2-10.3-5.7-2.5.3-4.9 1.1-7.3 1.7-2.8.8-5.6 1.4-8.3 2.4-.2.1-.1.3.1.3.6-.1 1.1-.2 1.7-.4-.8 1-1 2.5-.6 3.7-.4-.1-.8-.4-1.1-1-.3-.6-.4-1.2-.7-1.8-.1-.2-.5-.2-.5.1.1 1.4.5 3.2 2 3.7 1.2.1 2.3-.3 3.3-.7zm19.9-3.5c-3-1.4-6.2-1.7-9.5-1-.1 0-.2.1-.4.1.4-.5.8-1.1 1.3-1.6.7-.6 1.5-.9 2.3-1.4 1.1.1 2.1.5 3.1 1.1 1.3.8 2.3 1.8 3.2 2.8zm-21.6-.7c3.8-.9 7.6-2 11.4-2.8 1-.2 1.9-.3 2.8-.3-.6.3-1.1.7-1.5 1.1-.6.5-1.3 1.3-1.5 2.1-1 .2-2 .5-2.9.8.4-.6.8-1.2 1.3-1.7.6-.6 1.3-1.1 1.9-1.7.1-.1 0-.3-.2-.3-1.5.6-2.9 2.2-3.6 3.8-.8.2-1.6.5-2.3.8.2-.7.5-1.4.9-2.1.1-.2-.1-.3-.2-.2-.6.6-.9 1.6-.9 2.4-.2.1-.4.1-.6.2-1.2.5-2.4 1.1-3.6 1.5-.6.2-1.2.4-1.7.3-.4-1.4-.2-2.7.7-3.9z" fill="#bb8f5c" stroke-width="none" opacity="1"></path></g></g></g><g id="svga-group-nose-single-move" transform="matrix(1,0,0,1,0,0)"><g id="svga-group-nose-single" transform="matrix(1,0,0,1,0,0)"><path id="SvgjsPath3930" d="M104.93 107.57c-.14-.18-.45.05-.32.25.84 1.29 1.76 2.56 2.54 3.89.53.9 1.07 2.03.7 3.12-.61 1.79-2.18 1.68-3.45 1 .48-.61.75-1.33.69-2.12-.02-.19-.29-.37-.44-.18-1.26 1.59-2.06 3.25-4.41 3.34-2.48.1-4.08-1.91-4.73-4.07-.06-.19-.32-.14-.33.04-.07.99.25 1.95.79 2.76-.36.07-.73.14-1.09.16-1.15.07-1.34-.02-2.11-.98-.8-1.01-.81-1.27-.36-2.39.21-.53.52-.98.82-1.45.97-1.52 1.84-3.06 2.48-4.75 1.29-3.37 1.85-7.09 1.22-10.66-.03-.15-.26-.11-.27.04-.01 2.89-.19 5.74-1.04 8.52-.88 2.88-2.54 5.04-3.92 7.64-.72 1.35-1.02 3.12.21 4.28 1.22 1.15 3.1.78 4.52.24.85.92 2.02 1.56 3.26 1.67 1.4.12 3.23-.55 4.36-1.7 1.31 1.45 3.82.78 4.47-1.08 1.01-2.82-2.06-5.64-3.59-7.57z" fill="#c8837c" stroke-width="none" opacity="1" transform="translate(0 2)" stroke="none"></path><path id="SvgjsPath3931" d="M102 110.13c-.8-.75-2.07-.97-2.97-.27-.33.25-.52.57-.61.9-.16.05-.3.14-.44.27-.68.67-.39 1.71.19 2.34.5.53 1.31.78 2.02.75.88-.05 1.67-.46 2.16-1.2.57-.86.4-2.09-.35-2.79z" fill="#fef7f6" stroke-width="none" opacity="1" transform="translate(0 2)" stroke="none"></path></g></g><g id="svga-group-hair-front" transform="matrix(1,0,0,1,0,0)"><path id="SvgjsPath3985" d="M172.8 133.8c-.3-1.3-1.3-1.6-2-2.6-1.8-2.6-.7-2.9.3-5.1.8-1.7.8-3-.3-4.5s-2.3-1.2-2.3-3.7c0-1.4 1.1-2.8 1.3-4.2.2-1.7 0-3.1-1.1-4.4-1.7-1.9-3-.5-2.6-4.2.1-1.3.9-2.5.9-3.9 0-1.7-.4-3.6-1.8-4.6-1-.8-2.9-.7-3.4-2.2-.2-.7.8-3.5.7-4.8-.2-1.3-.9-2.2-2.2-2.3-.6-.1-1.3-.1-1.9-.2.4-1.4 1.5-2.9 1.3-4.3-.3-1.5-1.2-2.5-2.5-3.1-2.2-1-2.5-.4-2.1-3.1.1-.8.7-1.6.9-2.5.3-1.6.2-3.2-.8-4.5-1.3-1.7-2.7-1.3-4.4-1.9-.7-.3-1.1-.4-1.3-.7-.1-.4-.2-.8-.4-1.1 0-.4 0-.9-.1-1.6-.1-1.4.2-1.9-.4-3.2-1.2-2.8-4.2-3.9-6.8-3.1-.2-1.5.4-4.2-.8-5.4-.8-.8-1.8-1.2-2.8-1.4-.1-.2-.3-.3-.5-.5-.3-.2-.6-.5-.9-.6-.2-3.7-.8-8.2-4.9-7.8-1.1.1-1.9 1.1-2.9.5-.7-.5-1.1-2.8-1.7-3.5-1.1-1.3-2.3-2-4-2-2.7 0-3.8 1.5-5.7 1.7l-.3-.3c-1.3-1.1-2.8-1.5-4.4-1.4-.9-.6-1.8-1.1-3.3-.9-.7.1-1.2.5-1.8.8 0 0-.1 0-.1-.1h-.1c-.9-.7-1.1-1.5-2.5-1.8-1.7-.3-3 .3-3.8 1.4-.1 0-.3 0-.4-.1h-1.1c-.9-1-1.9-1.9-3.3-2.1-.6-.1-1.1 0-1.6.2-2.1-1.2-4.8-1.5-7.1-.9-1.5.5-2.4 1.3-3.3 2.2-.3.2-.7.4-1 .6-.4.3-.8.7-1.1 1.1-1.4.8-2.8.8-4.2.5-.9-.3-1.9-.7-2.6-.8-.6-.1-1.2-.1-1.8-.1-.5-.1-1.1-.1-1.7 0-1.9.2-3.7.9-5 2.4-.2.3-.4.6-.6.8-.5.7-1 1.4-1.3 2.2 0 .1-.1.3-.1.6-.4.4-.9.8-1.9 1.1-2.4.7-4.2 1.2-5.8 3.3-1.6 2.2-1.2 4.4-3.5 6-1.8 1.2-3.5 1.4-4.7 3.6-1 1.8-.6 3.8-.8 5.5-.3.6-.6 1.2-.8 1.8-1.2 1.5-3.5 1.9-4.7 3.7-1.5 2.1-1.1 3.7-1 5.7-.3.2-.6.3-.9.5-1.8 1.4-3.5 3.4-3.5 5.9 0 .3 0 .6.1.9 0 0 0 .1-.1.1-1.1 2.1-.8 4-.5 6.2.3 2.9-1.6 2.7-2.9 5-1.7 2.8.7 6-1.4 8.9-1.3 1.9-3.3 2.3-3.3 5.1 0 2.7 3.3 4.9 1.5 7.5-1.3 1.9-3 2-3.4 4.7-.4 3.2 1.5 6.4.9 9.7-.2.8.7 1.3 1.3.8.6-.5 1-.9 1.2-1.5v.8c.3 2 1.4 2.7.8 4.8-.5 2-2.1 2.6-3 4.3-1.5 2.9 0 6 1.4 8.6 1 1.8 3.6.2 2.7-1.6-1.3-2.8-.7-4.8 1-7.2.5-.7 1.3-1.2 1.7-2 1-2 .2-3.3-.2-5.3-1-4.2.8-5.1 2.8-8.2 1-1.6 1.7-3.2 1.4-5.1-.3-2.3-2.3-3.7-2.9-5.7-.5-1.9.6-2.8 1.8-3.6.5 1.4 1.4 2.6 2.3 4 1.6 2.5 1.3 4.1.3 6.8-.4.9-.6 1.8-.6 2.8 0 3.1 3.6 5.5 2.8 8.6-.6 2.1-2.6 3.3-2.6 5.7 0 1.2.6 2 1 3.1 1 2.4 1.5 4 .5 6.6-.3.7.6 1.2 1.1.9 2-1 3.1-2.7 3-5-.1-3.6-2.7-4.7-.4-8.3 1.4-2.1 2.3-4 1.5-6.6-.4-1.3-1.8-2.2-2.1-3.4-.7-2.4.8-3.2 1.7-4.8l.3-.6c.3.1.7.2 1 .3.3 2.6 1.9 3.4 3.5 5.1-1 .9-2.1 1.6-2.5 3.4-.3 1.4-.1 2.9 1 3.9.1.1.2.2.3.2-.2.2-.4.5-.6.8-.9 1.4-1.3 2.8-1 4.4.8 4 5.3 5.3 1.3 10-.9 1 .5 2.4 1.5 1.5 1.3-1.2 2.6-2.6 3-4.3 1.4 1.4 2.6 3 1.4 3.7-.9.5-.1 1.9.8 1.5 2.4-1.1 2-3.6.6-5.5-1.3-1.8-3.1-1.5-2.1-4.9.2-.6.8-1.2 1.1-1.7.7-1.5 1.1-3.4.4-4.9-.4-.7-1.2-1.3-1.9-1.8.9-1.1 1.7-2.2 1.9-3.6.4.4.9.7 1.2 1.4 2 3.5 1.3 3.6.6 6.3-.5 1.8-1 3.5-.3 5.4.8 2.1 5.7 4.7 3.9 7.3-.4.6.4 1.4 1 1 2.1-1.4 1.6-3.8.2-5.7-1.4-1.9-2.9-3.3-2.7-6 .1-1.1 1.1-2.5 1.3-3.6.4-1.6.6-3.1-.1-4.7-.3-.9-1.3-1.6-1.6-2.4-1.4-3.8-.2-3.2.6-5.6.7-2.2 1.5-4.3.7-6.6-.9-2.6-3-3.4-1.8-6.5.8-2 2.4-3.4 2.7-5.7.3-1.8-.3-3.3-1.2-4.9-1.7-3.2-1.6-4 1-6.4 2.4-2.3 4.3-4.9 2.5-8.1l5.4-1.1c0-5.1 2.1-13.2 2.1-13.2-1.1 6-.4 13.3-.4 13.3l8.5-.3 2.4-11.6c-.8 6-.8 11.9-.8 11.9l5.8.1c0-3.2 2.5-22.5 2.5-22.5-.8 6.6-.8 22.2-.8 22.2 4.3.6 10.4 0 10.4 0 .4-3.2 1-21.3 1-21.3 1.2 8 2.2 21.1 2.2 21.1.7-2 2-8.3 2-8.3.3 2.1-.4 8.6-.4 8.6l4.4.1.5-4.8 1.8 4.6c.7-8.6-.5-21.8-.5-21.8 1.5 7.4 2.1 21.2 2.2 21.3h8.5c.8-3.2-.3-15-.3-15 2.2 5.3 2.1 15.3 2.1 15.3 3.1.3 5.8.8 5.8.8l.5-10.5c.3 2.4.9 10.8.9 10.8s3.1 1 5.2 1.5c-.1.4-.1.7 0 1.1.3 1.4 1.5 2.1 2.4 2.9-.5 1.2-.9 2.3-.9 3.4.1.7.2 1.2.4 1.7-1.4 1.3-3.2 2.1-3.7 4.3-.5 2.2.7 3.3 1.9 5 1.4 1.8 2.3 3.1.4 5.2-.6.7-1.9 1.1-2.6 1.8-1.1 1-2 2.2-2 3.8 0 1.8 1.1 3 2.4 4 2.3 1.9 7 3 2.6 6.3-3.1 2.3-7.8 4-3.8 8.6 1.5 1.8 3.4 3.7 2.6 6.6-.3 1.1-1.8 1.8-2.1 3-.4 1.8 2.1 4.1 1.6 5.3-.5 1.1 1.1 2.1 1.7 1 .8-1.7.4-1.5 0-3.3-.6-2.6-.2-3 .9-4.9.4-.7 1-1.2 1.2-2 .5-1.7-.1-3.3-1.1-4.7-.6-.8-2.1-1.6-2.5-2.4-1-2.5.9-3.8 2.9-4.8 1.2-.6 2.3-1.5 3-2.5.9 2 2.2 2.2 1 4.9-.7 1.6-1.9 2.3-1.5 4.3.5 2.8 3.5 2.4 1.3 5.6-.6.9-1.9 1.3-2.1 2.5-.8 3.4 4 3 1.1 8.2-.3.5.4 1 .8.6 1.3-1.2 1.9-2.6 1.6-4.5-.1-.7-.8-1.5-.9-2.1-.5-4.3.8-2.1 1.9-3.9 1.1-1.8 1.3-1.8 1.1-4-.1-1.5-1.4-2-.6-3.9.4-1 1.8-1.8 2.2-2.9.9-2.2-.1-3.1-.8-5.1-.6-1.9-.8-3.2-.2-5 .3-.9.9-1.7 1.2-2.6.6.8 1.4 1.4 2.3 2 .2.1.5.3.7.4.5 2.5 1.9 4.7 1 7.6-.9 2.9-2.4 5.1-1 8.3.8 1.9 1 1.2.5 2.5-.4 1-1.3 1.5-1.6 2.7-.6 2.8 2 5.2 1.6 7.8-.2 1.6 1.6 2.4 2.5 1.1 1.2-1.7 1-3 .8-5-.2-1.8-.5-2.2.6-4 .5-.8 1.1-1.1 1.4-2.1.4-1.4-.2-2.6-.8-3.8 1.5 1.6 3.5 2.9 3.1 5.5-.4 3-2.7 5.5 1.3 7.2 1.5.6 2.3-1.8 1.1-2.5-.5-.3-.2-1.6.3-3 .8.7 2.2.3 2.3-1 .2-2.8 2.6-5.5 2.1-8.4-.2-1-.8-1.5-1.1-2.3-.9-2-1.1.1-.6-2.8.3-1.5 1-1.9 1.6-2.9 0 .1.1.2.1.3.5 1.1 1.3 1.2 1.9 2.2 1.5.4 1.9 1.6 1.2 3.5-.5.6-.9 1.3-1.1 2.1-.4 1.5 0 2.1.6 3.5.3.4.7.7 1.1 1 1.5 1.6 1.6 2.9.2 3.8 0 .5-.3 1-.3 1.6-.1 1.4 2 1.4 2.1 0-.1-2.5 2.1-2.6 1.6-4.9zM33.5 121.9c-.8 1.1-1.6 2.2-2.1 3.4v-1c-.1-1.3-1-3.1-.8-4.5.6-3.8 2.1-2.2 3.2-4.1.2-.3.4-.7.5-1 1.5 3 1.1 4.6-.8 7.2zm.2-16.3c-.4.3-.7.7-.9 1.1 0-1.9 1.7-2.1 3-3.8.4-.5.7-1 .8-1.5.1.3.2.7.1 1.1-.2 2-1.7 1.8-3 3.1zM133 54.8c-.2 0-.4-.1-.5-.1-.4-.6-.8-1.1-1.2-1.7.4-.1.8-.1 1.2-.2.5.7 1.1 1.4 1.6 2.1-.4 0-.7 0-1.1-.1zm-2-7.7c1.9.1.6-2.7 1.9 1.2.1.3.2.7.2 1-1 .2-1.7.4-2.4-1.3l-.3-.9h.6zm-55.7-4.7c.4 0 .7.1 1.1.2-.3.5-.6 1-.7 1-.4.2.2-.2-1.2-.6-.7-.2-1.3-.3-1.9-.3.7-.3 1.6-.4 2.7-.3zm-8.4 11.5c-.1.9-.5 1.7-1.6 2.1.1-.4 0-.8-.3-1.2.7-.3 1.3-.6 1.9-.9zm-11.6 3.4c-.1.6-.5 1.2-1.4 1.9l-1.2.6c.6-1.3 1.5-2.1 2.6-2.5zm-2.8 11.5c.2-3 1.1-3.7 2.6-4.4.1 1.7.8 2.8-.5 4.2-.7.7-1.3.9-2.1 1.2v-1zm1.4 13.5c-.1-.1-.2-.2-.2-.3-.8-1.1-.7-2.4-.2-3.9v.1c.4 1.9.8 3 .4 4.1zM47 70.6c-.2.6-.6 1.2-1.1 1.7l-.1.1c.2-.8.7-1.3 1.2-1.8zm-5.7 29.9c-.1.2-.3.3-.4.4-1.1-2.7-3.4-5.2-1.4-7.4.2-.2.4-.5.7-.6v.1c.1 3.2 3.2 5 1.1 7.5zm1.5-19.4c1.3-.9 2.7-1.7 3-3.5v-.2s.1 0 .1-.1c.2-.1.4-.1.6-.2-.2 1.5.2 2.8.5 4.5.3 2 .4 2.4-1.4 3.7-.2.2-.5.4-.8.5-.3-.9-.8-1.5-1.2-2.4-.7-1.8-1.3-1-.8-2.3zm2.6 27.5c-.9-1-1.8-2.2-1.4-3.2.2-.5 1.4-1.1 2.3-1.6.1.3.3.6.5.9.4.5.8.9 1.3 1.3-.8.8-1.8 1.6-2.7 2.6zM47.5 91c.3-.3.6-.5 1-.8.4-.3.9-.6 1.3-.8 0 .1.1.2.1.3-.8.4-1.7.8-2.4 1.3zm2.6 2.7c-.2.6-.6 1.2-1 1.8.1-.7.4-1.3 1-1.8zm.7 17.5c-.4.9-.9 1.6-1.3 2.2-.9-.3-1.2-1.1-.5-2.9.4-.9 1.2-1.6 2.1-2.3.2.8.2 1.7-.3 3zm2.2 25.1c-.1.3-.1.5-.2.8-.3-.4-.5-.8-.7-1.2-.8-2 0-3.5 1.2-5 .8.3.9 1.2.1 2.7.3 1.1.2 2-.4 2.7zm.7-11.1s.1 0 0 0c.2.6.1 1.1-.2 1.6 0-.4 0-1 .2-1.6zm.3-5.8c-.3-.6-.5-1.1-.6-1.6.5.3.8.7.6 1.6zm4-3c-.7-1.3-2.1-2.2-3.8-2.5H54c.2-.5.5-.9.7-1.4.5-.9.9-1.7 1.2-2.5.3.6.9 1 1.2 1.7 1.3 2.3 1.4 3.5.9 4.7zm.6-16.8c-.2 1.9-2.2 3.8-2.9 5.6l-.3 1.2c-.4-.6-.9-1-1.4-1.4 1.3-3.2-.5-4.4-2.4-5.9 1.1-1.6 3-3.2 3.6-4.9.6-1.8.2-2.8-.4-3.9.9-1.1 1.6-2.3 1.6-3.8 0 0 0-.1.1-.1.1.1.1.3.2.4.1.5.1 1 .1 1.5-.7 1.1-1 2.3-.9 3.6.2 3 3.1 4.9 2.7 7.7zM61.1 84c-.1.2-.2.5-.4.7v-1.5c0-.8-.3-1.5-.6-2.1.8.9 1.4 1.9 1 2.9zm88.3-9.8c.3-.8.5-1.7.5-2.5.5.1.9.2 1.1.4.9.9-.1 2.6-.7 4-.5-.3-.9-.6-1.2-1.1.1-.3.2-.5.3-.8zm-9.2-12.7c.6.4 1.4.2 1.9-.2 1.8.3 2.9.9 3.2 1.6-.1 0-.2-.1-.3-.1-1.4-.4-4.1-.1-5.2-1l-.1-.1c0-.2-.1-.5-.1-.7.2.2.4.4.6.5zm-.7 31.2c.3.2.5.4.8.7.3.2.7.4 1 .6.2.5.4 1 .7 1.4.1 1.5-.5 2.7-1.7 3.5-.1.1-.2.3-.3.4-.6-.5-1.4-1-1.8-1.6-1.1-2-.3-3.6 1.3-5zm1.9 22c-.2.4-.4.9-.5 1.3-1-1.5-2.8-1.9-4.1-3.1-3.3-2.9-.6-4 1.9-5.9.3-.2.7-.5 1-.8.5.5 1.1.9 1.5 1.5 2.9 3.8 1.4 4.2.2 7zm4.4-9.9c-.1.2-.1.4-.2.7-1-.9-2.5-2-2.3-3.4.1-.9 2.7-3 3.2-4.2.2.1.5.1.7.2.1 1.2.1 2.5.2 3.7-.3 1-1.3 1.9-1.6 3zm2.8-10.3c-.5-.1-1.1-.2-1.5-.4-.1-.1-.2-.2-.4-.2-.2-.5-.4-.9-.7-1.3-.3-.5-.8-.8-1.2-1.1-.2-1.1.4-2.1.8-3.4.4-1.1.8-2.1 1.2-3.2.3.2.5.4.8.7 4 3.2 1.5 5.3 1 8.9zM151 110c-.1-.4-.2-1-.4-1.8-.9-4-.4-3 .8-5.8.2-.4.3-.8.5-1.2.4.4.8.9 1.2 1.5 1.4 2.5-.8 4.9-2.1 7.3zm3.6-13.8c0 .2-.1.5-.1.7-.6-1.2-.6-2.3-.3-3.3.3.5.6 1.2.4 2.6zm7.2 4c-1-.4-1.9-.5-2.5-1 .8.3 1.8.4 2.5 1zm-.7 31.2c-.2-.2-.4-.5-.6-.7-1.8-2.2-4.1-2.2-2.6-6.2.2-.5.5-1 .8-1.5-.4 2.5 1.3 3.1 2.3 5.1.6 1.1.4 2.2.1 3.3zm-.8-11.9c-.1.1-.2.3-.2.4v-.1c.1-3.2-2.3-5.1-4.8-6.5.2-1.3.8-2.5 1.7-3.9 1.1-1.9 2.2-3.8 1.9-6.1.9.4.8-.3 1.2 1.4.3 1.7-.2 1.2-.6 2.4-.4 1-1 1.8-1.1 2.9-.3 2.4.6 3.2 2 4.8.2.2.8.2 1 .3 1.2 1.7-.3 2.9-1.1 4.4zm3.8-8c-1.1-1-.9.5-1.2-1.2.9.8 1.9 1.2 2.4 2.1-.4-.3-.8-.5-1.2-.9z" fill="#caa478" stroke-width="none" opacity="1" stroke="none"></path><path id="SvgjsPath3986" d="M85.6 49c-4.5 8.4-6.6 17.1-7.1 26.5 0 .1-.2.1-.2 0-.2-9.5 2.5-18.5 7.1-26.7 0-.1.2 0 .2.2zm-.2-6.9c-7 8.3-10.5 20.2-9.2 31 0 .2.4.2.4 0 0-11.5 2.9-21 9.2-30.6.2-.3-.2-.7-.4-.4zm-8.6 8.1c.1-.2-.2-.2-.3-.1-3 7.8-4.5 15.9-3.8 24.2 0 .2.3.2.3 0-.2-8.3.9-16.2 3.8-24.1zm18.6-5.4c0-.1-.2-.1-.2 0 .5 10 .5 20 .7 30 0 .2.4.2.4 0 .7-10 .1-20.1-.9-30zm1.1 1c.7 10.9.8 21.4-.2 32.3 0 .3.4.3.5.1 1.8-10.5 2-21.9.1-32.4-.1-.2-.4-.1-.4 0zm4.8-2.3c2.5 10.4 4.8 20.5 4.4 31.3 0 .3.4.3.4 0 1.1-10.7-1.5-21.2-4.4-31.4-.1-.2-.5-.1-.4.1zm3.8 4.5c1.6 5.9 2.8 11.9 3.8 17.9 0 .2.5.2.5-.1-.5-6.1-1.9-12.2-3.9-18-.1-.1-.5 0-.4.2zm2.4-3.6c4.1 10.3 8 19.7 7.6 31 0 .3.5.3.5 0 1.4-10.7-2.7-21.8-7.8-31.1-.1-.2-.4-.1-.3.1zm10.9 3c6.5 7.5 8.2 16.6 8.9 26.3 0 .2.3.2.3 0-.4-9.5-2.2-19.4-9.1-26.4 0-.1-.1 0-.1.1zm9.2 12.8c-.5-2.9-1.7-5.7-3.2-8.2-.1-.1-.3 0-.2.1 1.4 2.6 2.4 5.3 3.2 8.1 0 .2.3.2.2 0zm6.3 17.9c.1-8.3-1.7-16.6-5.4-24-.1-.2-.3 0-.3.1 2.9 7.9 4.6 15.5 5.2 23.9 0 .4.4.4.5 0zM72.2 54c-1.8 3.2-3.1 6.6-4 10.1 0 .1.2.2.2 0 1.1-3.4 2.4-6.8 4.1-10 .1-.1-.2-.3-.3-.1zm-5.7-6.4c-1.9.3-3.4 1.2-4.2 3-.7 1.5-.8 3.7-1.2 5.3-1 3.4-1.5 2.7-3.7 4.5-1.2 1-2.1 1.9-2.1 3.6 0 .9.5 1.6.7 2.5.5 2.3.3 4.4-1.1 6.1-.6.7-1.6 1-2.3 1.7-1.2 1.2-2.1 2.5-1.6 4.2.6 2.2 2.7 3.6 1.5 6.5-.4.8-1.7 1.5-2.2 2.3-1.5 1.9-1 2.7-.5 4.8.8 4-1.6 6.4-1.1 10.2 0 .2.3.2.3 0-.1-4.2 3-4.5 3-7.7 0-1.1-.7-1.5-1-2.5-.7-2.7-.2-3.8 1.6-5.7.9-1 2.1-2 2.2-3.4.4-3.7-5-3.2-.2-8.6 1.3-1.5 3.4-1.9 3.8-4.2.5-3.4-3.8-5.1.1-9 1.2-1.2 3.1-1.5 4.2-3 2.2-3.1-2-8 4.2-9.8.3-.2.1-.9-.4-.8zM44.9 85.3c.2-.2 0-.6-.2-.4-6.3 3.9 1.5 6.9-2.6 12.5-2.6 3.6-3 3.9-1 8 1.1 2.3 1.1 3.7-.4 5.8-.5.7-1.3 1.2-1.7 2-.8 1.5-.6 2.1-.2 3.6.4 1.5.9 1.6 1.4 3.5.6 2.9-.5 2.7-.5 5.1-.1 2.7 3 4.1 2.4 7 0 .2.3.3.4.1.5-1.7 0-2-.4-3.8-1.1-1.6-1.2-3.4-.3-5.5l.6-1.2c0-.5.3-1.1.2-1.6-.2-1.5-1.5-2-2.1-3.2-2.1-4.6 1.9-4.7 2.8-7.8.3-1.1.1-1.9-.3-3-1.1-2.5-1.8-1.5-1.3-4.9.4-2.9.8-2.5 2.2-4.5.8-1.1 1.3-1.9 1.2-3.3-.2-3-4.5-5.3-.2-8.4zm105.5 25.6c-.6-2.9-.1-5.4 1.2-7.9.3-.5.6-1 .8-1.6.3-1.1.5-1.9.2-3s-.9-1.3-1.5-2.1c-1.4-2.2-2.8-4.5-2.2-7.3.3-1.8 1.4-3.4 1-5.3-.2-1.3-.9-2.2-1.9-3.1-.7-.6-1.7-.9-2.4-1.6-2.4-2.2-2.4-4.8-2.4-7.6.1-4-.6-6.8-4.1-9.1-2.8-1.9-3.4-1.2-4.9-6.2-.3-1.1 0-2.2-.4-3.4-.4-1.2-1.1-2-2.1-2.7-1.7-1.3-3.5-1.3-5.4-1.9-7.7-2.3-3.3-1.8-5.6-5.2-2.2-3.3-8.2-2.9-11.4-1.8-.4.1-.2.7.2.6 4.9-1.1 8.1-.4 11 4 .8 1.2.1 1.4 1.3 2.4.8.7 1.9.7 2.9 1 1.2.3 2.6.2 3.8.6 3.2 1.2 3.8 3.4 4.5 6.5.6 2.9.8 4.3 3.4 6.1 4.2 2.8 6 5 5.3 10.4-.2 1.3-.4 2.5 0 3.8.3 1.1.9 1.8 1.8 2.6 2.1 1.8 2.8 1.4 4.1 4.5 1.6 3.7 0 4.1-.2 7.8 0 1 0 1.8.4 2.7.6 1.3 1.9 1.9 2.7 3 2.4 3.4.2 5.1-1.1 8.2-.4 1-.8 1.8-.8 2.9.1 2.5 3.8 6.3.8 8.5-.2.2 0 .5.2.4 3-1.5 1.3-3.9.8-6.2zm12 15.1c.2-1.8 1-2.4.5-4.2-.8-2.9-3.4-4.4-3.1-7.8.2-2.2 1.6-4.2 1.7-6.5 0-1.4-.3-2.5-1.1-3.7-.4-.5-1-.8-1.3-1.3-2.4-3.2-2.3-4.5-2-7.9.4-4-.3-7.1-3.2-10-.3-.3-.7.1-.5.5 2.9 3.6 2.9 6.7 2.4 11-.2 1.7-.4 3.2.4 4.8.6 1.2 1.8 1.7 2.5 2.8 2.2 3.7.7 5.9-.1 9.4-.7 3.5 1.1 4.5 2.5 7.4 1.3 2.8.3 4-.1 6.7-.4 2.5 1.5 3.9 1.6 6.5 0 .4.5.3.5 0 .4-2.5-1-5-.7-7.7zm-19-18.8c-1.9-3.5-1.5-5.6 0-8.4 2.7-5.2-1.6-5.1-2.1-10.5-.2-1.7.7-2.4-.4-4-.4-.6-1-.9-1.5-1.3-2.8-2.7-3.8-5.5-3.2-9.5 0-.2-.2-.3-.3-.1-1.3 4.4.5 6.7 2.9 10.1 2.2 3 .3 4.8 1.2 7.4.2.5.6.8.8 1.2 1.1.7 1.6 1.8 1.5 3.2.9 1.3.9 2.5-.2 3.5-1.3 3.3-3 4-.7 7.5 2 3 3.9 4.2 2.9 8.4-.3 1.3-1.1 2.4-1.2 3.7-.2 3.1 2.9 5.9.7 9.1-.2.2.2.4.4.2.9-1.1 1.1-2 1-3.5-.4-3.7-1.8-2.5-.6-8 .3-1.2.7-1.5.9-2.7.2-1.5-.1-3.1-.7-4.5-.6-.9-.9-1-1.4-1.8zM88.9 38c-1 .2-1.5.7-2.4 1.2-1.6.9-2.9 2.1-5 2.4-1 .1-2-.2-3 0-1.8.3-2.4.9-3.3 2.4-.6.9-.5 1.5-1.3 2.7-1.2 1.7-1.3 1.2-2.4 2.3-.7.7-1.2.9-1.7 1.8-.1.3.2.5.4.2 1.2-1.8 3.4-2 4.6-3.6 1.6-2.1.9-4.2 4.9-5 1.4-.3 2.9.4 4.3 0 3-1 5.7-4.8 9.2-2.1.3.3.8-.3.5-.6-1.3-1.3-2.9-2-4.8-1.7zm-34.7 93.6c-.6-3.1-3.4-3.3-1.6-7.8.5-1.2 1.6-2.2 1.6-3.6.2-4-5.1-3.8-1.3-9.7.1-.2-.2-.5-.3-.3-1.2 1.6-1.9 3.2-1.4 5.3.3 1 1.2 1.6 1.5 2.5.5 1.6.1 3.4-.5 4.8-.4 1.1-1.3 1.9-1.5 3.1-.1.9.1 1.5.4 2.3.9 2.1 1.8 3.2 1.5 5.8-.2 2.4-.9 3.7 1 5.8.2.2.6-.1.4-.3-2.2-3.8.8-4.8.2-7.9zm99.6-11.9c-.4-1.4-.7-2.8-.9-4.2.2-1.3.5-2.7.8-4 0-1.8.2-1.1-.4-2.8-.1-.4-.8-.2-.6.2.6 2.6-.6 4.2-.6 6.6 0 2.9 1.7 4.6.4 7.9-.8 2.1-1.4 2.3-1.2 4.6.2 2 1.4 3.6.4 5.8-.3.7-1 1.2-1.2 2-1 2.8 1.2 3.3 1.9 6 0 .1.3.1.3 0-.1-3 .1.9-.6-2.1-1.2-1.2-1.3-2.7-.3-4.5.5-.6.9-1.2 1.3-1.9 1-2.1.1-2.6-.4-4.6-.8-3.3 1.4-5.6 1.1-9zm-19.8 4.8c.2-.2-.1-.5-.3-.3-2.4 2.1-.4 4.2 1 6.2 3.1 4.5.4 4.8-.3 8.2-.4 1.9 1.1 3 .9 4.9 0 .4.5.4.6.1.4-1.6 0-.3-.1-2-.1-2.1-.2-3.3.6-5.1.2-.5.5-.9.7-1.4.8-3.5-5.4-8.2-3.1-10.6z" fill="#d9ba97" stroke-width="none" opacity="1" stroke="none"></path></g><g id="svga-group-glasses-single-move" transform="matrix(1,0,0,1,0,0)"><g id="svga-group-glasses-single" transform="matrix(1,0,0,1,0,0)"></g></g></g></g></g><rect id="svga-credit-rect" width="200" height="15" x="0" y="185" fill="#ecf0f1" opacity="0.5" style="display: none;"></rect><text id="svga-credit-text" font-family="Avenir Next, Roboto, Helvetica, Arial, sans-serif" font-size="10px" text-anchor="start" font-weight="400" size="10px" anchor="start" weight="400" fill="#333333" x="33.40447998046875" y="182.60824704170227" style="display: none;"><tspan id="SvgjsTspan3371" dy="13" x="33.40447998046875">Created on AvatarMaker.com</tspan></text></g></svg>