<svg xmlns="http://www.w3.org/2000/svg" version="1.1" width="600px" height="600px" viewBox="0 0 200 200" style="overflow:hidden!important;"><g id="svga-group-wrapper"><g id="svga-group-backs-single"><path id="SvgjsPath21035" d="M0 0h200v200H0V0z" fill="#036564" stroke-width="none" opacity="1"></path><path id="SvgjsPath21036" d="M88.8 158.9s-21.3-3-23.6-17.1c-1.5-9.3 10.5-9.3 14.8-5.5 0 0 3.3-8.7 9.9-7.2 8.4 1.9 9.2 12.7-1.1 29.8zM38.7 51s14.9-16.3 6.8-30.1c-5.3-9.2-14.9-1.5-15.7 4.6 0 0-8.8-5.6-13 0-5.4 7 1.6 17 21.9 25.5zM168 165s-2.6-14.4 1.6-22.7 14.8-4 13.3 4.9c0 0 8.2-2 10.6 4.5 2.3 6.4-10 12.7-25.5 13.3zm6.6-139.5s5.2-1.9 5.9-4.8c.8-3-3-3.5-4.5-1.6 0 0-1.1-2.8-3.1-2.2-1.9.5-2.2 2.6 1.7 8.6z" fill="#004646" stroke-width="none" opacity="1"></path><path id="SvgjsPath21037" d="M125 33.1s-13-1.2-19.2-6.8.1-13.7 7.4-10.3c0 0 .2-7.6 6.3-8 6.2-.5 8.7 11.5 5.5 25.1zm15.9 84.9s3.6-4.2 2.8-7.1c-.8-3-4.4-1.6-4.7.8 0 0-2.4-1.9-3.8-.4s-.6 3.4 5.7 6.7zm12.2 66.9s7.1-.7 9-4.2-2.7-5.4-5.2-3.4c0 0-.5-3.9-3.2-3.8s-3.6 2.7-.6 11.4zm-122.9 5.7s23.3-3.5 29-15.3-9.8-17.2-17.5-10.6c0 0-2.3-12.8-11-11.9s-11.7 9.5-.5 37.8zm3.5-106.7s3.3-12.8-1.5-18.3-11 1.3-9.3 6.7c0 0-7.1-1.6-8.5 3-1.4 4.8 2.3 8.2 19.3 8.6z" fill="#005655" stroke-width="none" opacity="1"></path><path id="SvgjsPath21038" d="M149.4 76.1s-24.7-19.3-16.5-40.8c5.4-14.2 20.6-5.7 23.2 2.7 0 0 11-10 18.2-3.2 9.1 8.6 1.6 24.4-24.9 41.3zm7 29.6s-4.5-12.3-2-20.2 12.4-5.8 12.4 2.3c0 0 6.9-3 10 2.3 3 5.4-6.9 12.7-20.4 15.6zM53.9 143.9s-13-1.2-19.2-6.8.1-13.7 7.4-10.3c0 0 .2-7.6 6.3-8s8.7 11.6 5.5 25.1zm89.6 23.3s-4.6-9.3-3.3-15.7c1.2-6.5 9.3-5.6 10 .8 0 0 5.2-3 8 1s-4.3 10.5-14.7 13.9zM65.3 46s5.8-6.7 4.5-11.4-7-2.5-7.5 1.2c0 0-3.8-3.1-6-.7-2.2 2.4-1 5.6 9 10.9zm-40.7 81.2s4.7-5.4 3.7-9.3-5.7-2-6.1 1c0 0-3.1-2.5-4.9-.6s-.8 4.6 7.3 8.9zm53 60.3s5.2-1.9 5.9-4.8-3-3.5-4.5-1.6c0 0-1.1-2.8-3.1-2.2-1.8.6-2.1 2.7 1.7 8.6zm47.7-12.7s4.7-5.4 3.7-9.3c-1-3.9-5.7-2-6.1 1 0 0-3.1-2.5-4.9-.6-1.9 2-.9 4.6 7.3 8.9zm-22.6-132s4.7-5.4 3.7-9.3-5.7-2-6.1 1c0 0-3.1-2.5-4.9-.6-1.9 2-.9 4.6 7.3 8.9zM77.3 94.4s8.8-4.2 9.6-9.5-5.9-5.6-8.2-2.1c0 0-2.5-4.8-5.8-3.3-3.2 1.4-3.4 5.1 4.4 14.9z" fill="#005d5c" stroke-width="none" opacity="1"></path></g><g id="svga-group-humanwrap-move" transform="matrix(1,0,0,1,0,0)"><g id="svga-group-humanwrap"><g id="svga-group-hair-back-move" transform="matrix(1,0,0,1,0,0)"><g id="svga-group-hair-back"></g></g><g id="svga-group-humanbody-back"><path id="SvgjsPath20962" d="m170 180.3-27.3-6.9-18-9.9-1.5-28.2H76.8l-1.5 28.2-18 9.9-27.3 6.9-9.1 19.7-3 20h164.2l-3-20z" fill="#fbd5c0" stroke-width="none" opacity="1"></path><path id="SvgjsPath20963" d="m76.8 135.3-1.5 28.2-18 9.9-27.3 6.9-9.1 19.7-3 20h14.6v-20l2.7-17.7 23.8-6.4 24.7-8.3 3.5-32.3z" fill="#dc9f7d" stroke-width="none" opacity="1"></path></g><g id="svga-group-chinshadow-single"><path id="SvgjsPath21199" d="m108.1 161.8 7.7-14.6s3.7-3.4 7.7-7.1l-.3-4.8H76.8l-.5 9.8c1.4 1.3 2.4 2.2 2.4 2.2l7.7 14.6h5.5l5.4-.9 5.4.9 5.4-.1z" fill="#cd865f" stroke-width="none" opacity="1"></path></g><g id="svga-group-humanbody-front"><path id="SvgjsPath20964" d="m92.8 168.3 2 7.9 6.9 4.6s-8.5-3-8.7-3.6c-.2-.6-.2-8.9-.2-8.9z" fill="#dc9f7d" stroke-width="none" opacity="1"></path></g><g id="svga-group-clothes-single"><path id="SvgjsPath20850" d="m180.5 200.3-8.7-21.1-27.5-6.8-6.2-2.3-19.4 20.1L100 204l-18.7-13.8-19.4-20.1-6.2 2.3-27.5 6.8-8.7 21.1-2.6 19.7h166.2z" fill="#39557e" stroke-width="none" opacity="1"></path><path id="SvgjsPath20851" d="m59.5 176.1 5.9-2.3-3.5-3.7-6.2 2.3-27.5 6.9-8.7 21.1-2.6 19.6h9.8l.7-19.1 5.3-16.7 5.5 5.3 4.4 9.5-3-9.2-5.6-7.5 25.5-6.2 13.8 15.3 26.7 20.5-26.5-21.5-14-14.3zM42.8 220h2.9l-2.1-11.3-.8 11.3zm57.3-8.1 26.7-20.5 16.4-18-16.6 17-26.5 21.5zm56.3-3.2-2.1 11.3h2.9l-.8-11.3z" fill="#27446f" stroke-width="none" opacity="1"></path></g><g id="svga-group-head" transform="matrix(1,0,0,1,0,0)"><g id="svga-group-ears-left-move" transform="matrix(1,0,0,1,0,0)"><g id="svga-group-ears-left"><path id="SvgjsPath20860" d="m58.4 92.2-5-3.9-4.1 14.6 2.7 10.2 5.7 5.1 3.6-.9 2.8-7.6-1.4-12.6z" fill="#fbd5c0" stroke-width="none" opacity="1"></path><path id="SvgjsPath20861" d="m51.4 102 3.2-6.3 2.8 5.5.5 8s-3.1-.7-3.2-1c0-.3 1.2-6.5 1.1-6.8-.1-.3-1-3.6-1.2-3.5-.1.1-3.2 4.1-3.2 4.1z" fill="#dc9f7d" stroke-width="none" opacity="1"></path><path id="SvgjsPath20862" d="m60 113.6-1.4-16.5-5.2-8.8 5.9 2.8 3.4 6 1.4 12.6-2.8 7.6-3.6.9-5.7-5.1s5.4 2.1 5.5 2.1c.3.1 2.5-1.6 2.5-1.6z" fill="#ecb99d" stroke-width="none" opacity="1"></path></g></g><g id="svga-group-ears-right-move" transform="matrix(1,0,0,1,0,0)"><g id="svga-group-ears-right"><path id="SvgjsPath20863" d="m141.6 92.2 5-3.9 4.1 14.6-2.7 10.2-5.7 5.1-3.6-.9-2.8-7.6 1.4-12.6z" fill="#fbd5c0" stroke-width="none" opacity="1"></path><path id="SvgjsPath20864" d="m148.6 102-3.2-6.3-2.8 5.5-.5 8s3.1-.7 3.2-1-1.2-6.5-1.1-6.8c.1-.3 1-3.6 1.2-3.5.1.1 3.2 4.1 3.2 4.1z" fill="#dc9f7d" stroke-width="none" opacity="1"></path><path id="SvgjsPath20865" d="m140 113.6 1.4-16.5 5.2-8.8-5.9 2.8-3.4 6-1.4 12.6 2.8 7.6 3.6.9 5.7-5.1s-5.4 2.1-5.5 2.1c-.3.1-2.5-1.6-2.5-1.6z" fill="#ecb99d" stroke-width="none" opacity="1"></path></g></g><g id="svga-group-faceshape-wrap"><g id="svga-group-faceshape-single"><path id="SvgjsPath21188" d="M143.4 84.8c-.2-10.2-5.3-24.8-5.3-24.8-6.9-11.6-19.7-19.5-19.7-19.5-7.2-1.5-18.4-2.3-18.4-2.3s-11.1.8-18.4 2.3c0 0-12.8 7.9-19.7 19.5 0 0-5.1 14.5-5.3 24.8-.3.8 2.2 25.6 2.2 25.6l6.1 15.2c2.1 2.9 16.6 16.1 16.6 16.1l7.7 14.6h5.5l5.4-.9 5.4.9h5.5l7.7-14.6s14.4-13.2 16.6-16.1l6.1-15.2c-.2-.1 2.3-24.8 2-25.6z" fill="#fbd5c0" stroke-width="none" opacity="1"></path><path id="SvgjsPath21189" d="m109.5 154.4-9.3-2.9-10 2.9-6.3-15.2-14.8-14.7-6.1-15.9s-2.3-22.9-2.5-23.8 5.2-22.4 5.2-22.4l17.5-19L99.9 40l18.5.5c-7.2-1.5-18.4-2.3-18.4-2.3s-11.1.8-18.4 2.3c0 0-12.8 7.9-19.7 19.5 0 0-5.1 14.5-5.3 24.8-.3.8 2.2 25.6 2.2 25.6l6.1 15.2c2.1 2.9 16.6 16.1 16.6 16.1l7.7 14.6h5.5l5.4-.9 5.4.9h5.5l7.7-14.6s14.4-13.2 16.6-16.1l-16.9 14.9-8.9 13.9z" fill="#dc9f7d" stroke-width="none" opacity="1"></path></g></g><g id="svga-group-mouth-single-move" transform="matrix(1,0,0,1,0,0)"><g id="svga-group-mouth-single"><path id="SvgjsPath21213" d="m82.7 123.9 1.5 4.2 10.2 9.1 13.4.1 8.6-8.4 1.1-5.2-17.4 4.4z" fill="#000000" stroke-width="none" opacity="1" transform="translate(0 2)"></path><path id="SvgjsPath21214" d="m100.1 128.1-17.4-4.2 1.9 4.1 15.4 3.5 16.1-2.8 1.4-5z" fill="#ffffff" stroke-width="none" opacity="1" transform="translate(0 2)"></path><path id="SvgjsPath21215" d="m81.8 123.6 18.3 4.8 18.8-5-19 3.3z" fill="#f18f77" stroke-width="none" opacity="1" transform="translate(0 2)"></path><path id="SvgjsPath21216" d="m117.4 121.1 1 2.4.2 2.7.7-2.4-.9-2.3-1-.4zm-34.9.5-.9 2.3.7 2.4.2-2.7 1-2.4-1 .4z" fill="#ecb99d" stroke-width="none" opacity="1" transform="translate(0 2)"></path><path id="SvgjsPath21217" d="M96.6 140.1s1.4.8 1.6.8c.2 0 6.4-.1 6.4-.1l.7-.9-8.7.2z" fill="#dc9f7d" stroke-width="none" opacity="1" transform="translate(0 2)"></path></g></g><g id="svga-group-eyes-left-move" transform="matrix(1,0,0,1,0,0)"><g id="svga-group-eyes-left"><g id="svga-group-eyesback-left"><path id="SvgjsPath21936" d="m91.9 98.1-5.1-4.3-9.6-2.5-9.6.3 8.8 6.6 4.1 1.1z" fill="#ffffff" stroke-width="none" opacity="1"></path></g><g id="svga-group-eyesiriswrapper-left" transform="matrix(1,0,0,1,0,0)"><g id="svga-group-eyesiriscontrol-left" transform="matrix(1,0,0,1,0,0)"><g id="svga-group-eyesiris-left"><path id="SvgjsPath20979" d="m79.4 99.5-2.6-1.9-1-3 1-3.1 2.6-1.9h3.2l2.6 1.9 1 3.1-1 3-2.6 1.9z" fill="#7b5c33" stroke-width="none" opacity="1"></path><path id="SvgjsPath20980" d="m82.5 89.8 2.5 1.8.9 2.9-.9 3-2.5 1.8h-3.1L77 97.5l-.9-2.9.9-2.9 2.5-1.8h3m.2-.6h-3.4l-2.8 2-1.1 3.2 1.1 3.2 2.8 2h3.4l2.8-2 1.1-3.2-1.1-3.2-2.8-2z" fill="#5c3d14" stroke-width="none" opacity="1"></path><path id="SvgjsPath20981" d="M81.8 91.9h-1.6l-1.4 1-.6 1.7.6 1.6 1.4 1h1.6l1.4-1 .6-1.6-.6-1.7z" fill="#000000" stroke-width="none" opacity="1"></path><path id="SvgjsPath20982" d="m82.4 99.2.2-.8.9.2.1-.9.8.2s-.2-.8-.1-.8.8.1.8.1l-.5-.8.8-.2-.4-.9.9-.3-.7-.5.5-.7-.7-.3.3-.9-.6-.2.2-.8h-.6l-.2-.6h-.4l-.1-.6 1.3.7.8 1.9.5 1.5-.1.5-.8 2.5-2 1.5-.9.6-2.4-.2.5-.6.5.4.6-.4.8.4z" fill="#5c3d14" stroke-width="none" opacity="1"></path><path id="SvgjsPath20983" d="m76.9 95.9 1.2-.4v.2l-1.2.3v-.1zm.9-1.8c-.5-.1-1-.1-1.1-.1l-.1-.2s.1 0 1.1.1l.1.2zm.5-2.9.1-.1.6.8-.1.1-.6-.8zm2.2-.7h.2v.9h-.2v-.9zm2.8 1.7.7-.6.1.1-.7.6-.1-.1zm.9 1.7.7-.1v.2l-.7.1v-.2zm-.2 1.7.1-.2.7.3-.1.2-.7-.3zm-1.5 1.6.2-.1.4.8-.2.1-.4-.8zm-3.2 1.5.4-1.2.2.1-.4 1.2-.2-.1zm-1.2-1.3.3-.4.1.1-.3.4-.1-.1z" fill="#452904" stroke-width="none" opacity="1"></path><path id="SvgjsPath20984" d="m80.6 92.1-1-.3-.7.7.2.9 1 .3.7-.7z" fill="#ffffff" stroke-width="none" opacity="1"></path><path id="SvgjsPath20985" d="m82.7 96.3-.5-.4-.6.4v.6l.6.4.5-.4z" fill="#ffffff" stroke-width="none" opacity="1"></path></g></g></g><g id="svga-group-eyesfront-left"><path id="SvgjsPath21944" d="M67.1 89.3v11.9l7.9 8.4h11.2l7.9-8.4V89.3l-7.9-8.4H75l-7.9 8.4zm.5 2.3 9.6-.3 9.6 2.5 5.1 4.3-11.4 1.1-4.1-1.1-8.8-6.5z" fill="#fbd5c0" stroke-width="none" opacity="1"></path><path id="SvgjsPath21945" d="m92.7 99.1-6.1-5-9.4-2.5-9.8.2 2.1-1.9 9.8-2.3 8.9 2.5 4.4 7.8z" fill="#dc9f7d" stroke-width="none" opacity="1"></path></g></g></g><g id="svga-group-eyes-right-move" transform="matrix(1,0,0,1,0,0)"><g id="svga-group-eyes-right"><g id="svga-group-eyesback-right"><path id="SvgjsPath21937" d="m108.1 98.1 5.1-4.3 9.6-2.5 9.6.3-8.8 6.6-4.1 1.1z" fill="#ffffff" stroke-width="none" opacity="1"></path></g><g id="svga-group-eyesiriswrapper-right" transform="matrix(1,0,0,1,0,0)"><g id="svga-group-eyesiriscontrol-right" transform="matrix(1,0,0,1,0,0)"><g id="svga-group-eyesiris-right"><path id="SvgjsPath20986" d="m117.4 99.5-2.6-1.9-1-3 1-3.1 2.6-1.9h3.2l2.6 1.9 1 3.1-1 3-2.6 1.9z" fill="#7b5c33" stroke-width="none" opacity="1"></path><path id="SvgjsPath20987" d="m120.5 89.8 2.5 1.8.9 2.9-.9 2.9-2.5 1.8h-3.1l-2.5-1.8-.9-2.9.9-2.9 2.5-1.8h3.1m.2-.5h-3.4l-2.8 2-1.1 3.2 1.1 3.2 2.8 2h3.4l2.8-2 1.1-3.2-1.1-3.2-2.8-2z" fill="#5c3d14" stroke-width="none" opacity="1"></path><path id="SvgjsPath20988" d="M119.8 91.9h-1.6l-1.4 1-.6 1.7.6 1.6 1.4 1h1.6l1.4-1 .6-1.6-.6-1.7z" fill="#000000" stroke-width="none" opacity="1"></path><path id="SvgjsPath20989" d="m120.4 99.2.2-.8.9.2.1-.9.8.2s-.2-.8-.1-.8.8.1.8.1l-.5-.8.8-.2-.4-.9.9-.3-.7-.5.5-.7-.7-.3.3-.9-.6-.2.2-.8h-.6l-.1-.5h-.4l-.1-.6 1.3.7.8 1.9.5 1.5-.1.5-.8 2.5-2 1.5-.9.6-2.4-.2.5-.6.5.4.6-.4.7.3z" fill="#5c3d14" stroke-width="none" opacity="1"></path><path id="SvgjsPath20990" d="m114.9 95.9 1.2-.4v.2l-1.2.4v-.2zm.9-1.8c-.5-.1-1-.1-1.1-.1l-.1-.2s.1 0 1.1.1l.1.2zm.5-2.9.1-.1.6.8-.1.1-.6-.8zm2.2-.7h.2v.9h-.2v-.9zm2.7 1.7.7-.6.1.1-.7.6-.1-.1zm1 1.7.7-.1v.2l-.7.1v-.2zm-.2 1.7.1-.2.7.3-.1.2-.7-.3zm-1.5 1.6.2-.1.4.8-.2.1-.4-.8zm-3.2 1.5.4-1.2.2.1-.4 1.2-.2-.1zm-1.2-1.3.3-.4.1.1-.3.4-.1-.1z" fill="#452904" stroke-width="none" opacity="1"></path><path id="SvgjsPath20991" d="m118.6 92.1-1-.3-.7.7.2.9 1 .3.7-.7z" fill="#ffffff" stroke-width="none" opacity="1"></path><path id="SvgjsPath20992" d="m120.7 96.3-.5-.4-.6.4v.6l.6.4.5-.4z" fill="#ffffff" stroke-width="none" opacity="1"></path></g></g></g><g id="svga-group-eyesfront-right"><path id="SvgjsPath21946" d="M125 80.8h-11.2l-7.9 8.4v11.9l7.9 8.4H125l7.9-8.4V89.3l-7.9-8.5zm-1.4 17.4-4.1 1.1-11.4-1.1 5.1-4.3 9.6-2.5 9.6.3-8.8 6.5z" fill="#fbd5c0" stroke-width="none" opacity="1"></path><path id="SvgjsPath21949" d="m107.3 99.1 6.1-5 9.4-2.5 9.8.2-2.1-1.9-9.8-2.3-8.9 2.5-4.4 7.8z" fill="#dc9f7d" stroke-width="none" opacity="1"></path></g></g></g><g id="svga-group-facehighlight-single"></g><g id="svga-group-eyebrows-left-move" transform="matrix(1,0,0,1,0,0)"><g id="svga-group-eyebrows-left-rotate" transform="matrix(1,1.7453292519943295e-9,-1.7453292519943295e-9,1,1.4355332211835048e-7,-1.3744467253218318e-7)"><g id="svga-group-eyebrows-left"><path id="SvgjsPath20828" d="M77.2 77.2 64.4 87.4l13-8.6 12.5 8 3.1-.6.1-2.5z" fill="#4e4341" stroke-width="none" opacity="1"></path><path id="SvgjsPath20829" d="M86.7 81c1.1 1.9 2.4 4.1 3.3 5.7h.2c-.7-1.5-1.7-3.6-2.4-5.2l-1.1-.5zm-.9 3.1c-.9-1.4-2.1-3.2-3.1-4.7l-1.4-.6c1.2 1.5 2.7 3.4 3.9 4.9l.6.4zm-9.4-6.3c.4.4.9.9 1.1 1l1.9 1.2-2.1-2.9-.9.7zm-2 3-2.7.7-1.6 1.3c1.1-.4 2.1-.8 3.1-1.2l1.2-.8z" fill="#5d5857" stroke-width="none" opacity="1"></path></g></g></g><g id="svga-group-eyebrows-right-move" transform="matrix(1,0,0,1,0,0)"><g id="svga-group-eyebrows-right-rotate" transform="matrix(1,1.7453292519943295e-9,-1.7453292519943295e-9,1,1.4364059097715653e-7,-2.116211845759608e-7)"><g id="svga-group-eyebrows-right"><path id="SvgjsPath20830" d="m106.9 83.7.1 2.5 3.1.6 12.5-8 13 8.6-12.8-10.2z" fill="#4e4341" stroke-width="none" opacity="1"></path><path id="SvgjsPath20831" d="M112.3 81.5c-.8 1.7-1.7 3.7-2.4 5.2h.2c.9-1.6 2.2-3.8 3.3-5.7l-1.1.5zm2.6 2.2c1.2-1.5 2.7-3.4 3.9-4.9l-1.4.6c-1 1.6-2.2 3.3-3.1 4.7l.6-.4zm7.9-6.5-2.1 2.9 1.9-1.2c.1-.1.6-.6 1.1-1l-.9-.7zm3.9 4.4c.9.4 2 .8 3.1 1.2l-1.6-1.3-2.7-.7 1.2.8z" fill="#5d5857" stroke-width="none" opacity="1"></path></g></g></g><g id="svga-group-beardwrap"><g id="svga-group-beard-single-move" transform="matrix(1,0,0,1,0,0)"><g id="svga-group-beard-single"></g></g></g><g id="svga-group-mustache-single-move" transform="matrix(1,0,0,1,0,0)"><g id="svga-group-mustache-single"></g></g><g id="svga-group-nose-single-move" transform="matrix(1,0,0,1,0,0)"><g id="svga-group-nose-single"><path id="SvgjsPath21055" d="m96.12 99.91-.45 6.4-5.78 8.87 2.98 2.25 1.63-2.02 4.32 3.82h2.41l4.27-3.82 1.57 1.96 3.15-2.19-5.79-8.92-.56-6.46-3.82-1.63z" fill="#fbd5c0" stroke-width="none" opacity="1" transform="translate(0 1)"></path><path id="SvgjsPath21056" d="m104.86 106.44-1.95-15.67 1.1 14.55-.86-.22 6.58 10.06-2.34 1.73-1.28-1.51.28-1.34-5.15 4.47h-2.4l-5.15-4.47.29 1.34-1.29 1.51-2.34-1.73 6.59-10.06-.86.22 1.33-22.81-2.19 23.93-5.82 8.83 3.81 2.79 1.44-2.01 4.19 3.91h2.4l4.2-3.91 1.43 2.01 3.81-2.79z" fill="#dc9f7d" stroke-width="none" opacity="1" transform="translate(0 1)"></path><path id="SvgjsPath21057" d="m96.15 113.17 2.37 1.46 3.1.06 2.55-1.16-.3-1.76-3.59-.6-3.94.66z" fill="#ffe1d0" stroke-width="none" opacity="1" transform="translate(0 1)"></path></g></g><g id="svga-group-hair-front"><path id="SvgjsPath21401" d="m52.3 65.2-7.5 17 6.3-4.9s-1 5.2-2.9 9.9c-1.7 4.2-3.8 8.8-5.6 11.2 0 0 3.9-1.4 6.5-4.6l.5 10.6L57.4 88l6.1 11 1-15.5 2-7.6 2.2-8.7 2.6 12.1.9-12.5 3.7-5.2 9 1.2 10.2-1.4 8.4 2.6 11.6 8.4-4.7-12.4 9.7 2.2 7 6.4 4.7 11.7.6-10.9 4.7 15.8 5.1 13-.3-9.2 4.4 6.1 7.2 8.4-5.3-15.3 6.1 6.6-2.9-10.6-.8-9.7 6.1 4.8-6.1-13.4-8.9-7.6 14.2 4.5-18.7-15 13.5 3.2-13-9.8-13-3.2 1.1-5.8 10-5.3-15.1 3.2-10.9 3.9 4.2-11.6-11.5 10.4 1.2-7.4-8.3 9.7 1.8-6.8L86.7 38l.6-5.6-3.5 4.1 1.3-7.9-5.9 7.9-.2-5.4-7.6 10.1-1.8-4.3-1.3 5.8-6.1-11.2.8 16.8-5.7-8.7.7 12.8-10.5 9.8 10.9-4.8-6.1 7.8z" fill="#4e4341" stroke-width="none" opacity="1"></path><path id="SvgjsPath21402" d="m77.3 58.8 10.3.7 13.7-3.4 9.4-10.6L116 42l-7.7 1.7-7 9.4s-13 4.3-13.7 4.3c-.7 0-10.3 1.4-10.3 1.4zm-2.2-4 7-5 2.7-6.5-4.1 6-5.6 5.5zm-6.5-3.2 7.7-4.6 4.6-5.3-3.6 6.7-8.7 3.2zm-5-14.9L65.5 49l-.7 7.5-2-8.1.8-11.7zM47.3 62.2l10.9-4.8 4.9-.5-5-1.7-10.8 7zm25.9-1.7L70.5 66v5.3l-1.7-6 4.4-4.8zm-7.7 6.8-4.3 14 1.4 13.9L59 81l6.5-13.7zm-15.2 32.9 6-12.8 1.5-10.6-3.6 10.8-3.9 12.6zm46.5-40.4 9.9 3.1 6.3 6.7-4.6-8.7-11.6-1.1zm13.2-4.1s11.1 3.8 11.8 3.8 15.4 1.2 15.4 1.2L142 62l-5.3-3.4-14.9-.7-11.8-2.2zm7.5-11.3 5.3-3.1 3.1-9-4.5 8-3.9 4.1zm18.3 22.4c0 .7.5 11.8.5 11.8l4.6 12.8-2.2-13-2.9-11.6zm6 3.1s6 8.2 6.5 9.9c.5 1.7 3.9 10.3 3.9 10.3l-5.5-7.9-4.9-12.3zm-22.9-21.2c.7-.7 18-4.3 18-4.3l13.8 6.7-13.5-3.2-18.3.8z" fill="#5d5857" stroke-width="none" opacity="1"></path></g><g id="svga-group-glasses-single-move" transform="matrix(1,0,0,1,0,0)"><g id="svga-group-glasses-single"></g></g></g></g></g><rect id="svga-credit-rect" width="200" height="15" x="0" y="185" fill="#ecf0f1" opacity="0.5" style="display: none;"></rect><text id="svga-credit-text" font-family="Avenir Next, Roboto, Helvetica, Arial, sans-serif" font-size="10px" text-anchor="start" font-weight="400" size="10px" anchor="start" weight="400" fill="#333333" x="33.40447998046875" y="182.60824704170227" style="display: none;"><tspan id="SvgjsTspan20822" dy="13" x="33.40447998046875">Created on AvatarMaker.com</tspan></text></g><defs id="SvgjsDefs20769"></defs></svg>