<svg xmlns="http://www.w3.org/2000/svg" version="1.1" width="600px" height="600px" viewBox="0 0 200 200" style="overflow:hidden!important;"><defs id="SvgjsDefs7291"></defs><g id="svga-group-wrapper"><g id="svga-group-backs-single"><path id="SvgjsPath8778" d="M0 0h200v200H0V0z" fill="#cdb380" stroke-width="none" opacity="1"></path><path id="SvgjsPath8779" d="M165.5 23.7c11.7 0 21.1 9.5 21.1 21.1S177.2 66 165.5 66s-21.1-9.5-21.1-21.1 9.4-21.2 21.1-21.2zm-77.3 86.5c11.7 0 21.1 9.5 21.1 21.1s-9.5 21.1-21.1 21.1-21.1-9.5-21.1-21.1 9.4-21.1 21.1-21.1zm-37.8 48.9c9.1 0 16.6 7.4 16.6 16.6s-7.4 16.6-16.6 16.6-16.6-7.4-16.6-16.6 7.5-16.6 16.6-16.6zm-.3-132.8c9.1 0 16.6 7.4 16.6 16.6s-7.4 16.6-16.6 16.6S33.5 52 33.5 42.8s7.4-16.5 16.6-16.5zm60.3-7.2c2.7 0 4.8 2.2 4.8 4.8s-2.2 4.8-4.8 4.8-4.8-2.2-4.8-4.8 2.1-4.8 4.8-4.8zm-91.5 97.1c2.7 0 4.8 2.2 4.8 4.8s-2.2 4.8-4.8 4.8-4.8-2.2-4.8-4.8 2.1-4.8 4.8-4.8zm120-5.7c4.8 0 8.8 3.9 8.8 8.8s-3.9 8.8-8.8 8.8-8.8-3.9-8.8-8.8 4-8.8 8.8-8.8z" fill="#be9f63" stroke-width="none" opacity="1"></path><path id="SvgjsPath8780" d="M101.8 45.4c14.2 0 25.8 11.5 25.8 25.8S116 97 101.8 97 76 85.4 76 71.2s11.5-25.8 25.8-25.8zm21.6 117.7c7.5 0 13.6 6.1 13.6 13.6s-6.1 13.6-13.6 13.6-13.6-6.1-13.6-13.6 6-13.6 13.6-13.6zm-88.6-35.9c7.2 0 13 5.8 13 12.9S42 153 34.8 153s-13-5.8-13-12.9 5.8-12.9 13-12.9zM55 88.8c2.1 0 3.8 1.7 3.8 3.8s-1.7 3.8-3.8 3.8-3.8-1.7-3.8-3.8 1.7-3.8 3.8-3.8zm44.9 78.4c2.1 0 3.8 1.7 3.8 3.8s-1.7 3.8-3.8 3.8-3.8-1.7-3.8-3.8 1.7-3.8 3.8-3.8zm79.9-82.1c2.1 0 3.8 1.7 3.8 3.8s-1.7 3.8-3.8 3.8-3.8-1.7-3.8-3.8 1.7-3.8 3.8-3.8zM66.7 16.5c2.1 0 3.8 1.7 3.8 3.8s-1.7 3.8-3.8 3.8-3.8-1.7-3.8-3.8 1.7-3.8 3.8-3.8zm-46.8-4.3c2.7 0 4.8 2.2 4.8 4.8s-2.2 4.8-4.8 4.8-4.8-2.2-4.8-4.8 2.1-4.8 4.8-4.8zM15.5 180c2.7 0 4.8 2.2 4.8 4.8s-2.2 4.8-4.8 4.8-4.8-2.2-4.8-4.8 2.2-4.8 4.8-4.8zM149.1 77.2c4.7 0 8.4 3.8 8.4 8.4s-3.8 8.4-8.4 8.4-8.4-3.8-8.4-8.4 3.7-8.4 8.4-8.4zM145.8 5c4.7 0 8.4 3.8 8.4 8.4s-3.8 8.4-8.4 8.4-8.4-3.8-8.4-8.4 3.7-8.4 8.4-8.4zM35.3 70.3c4.8 0 8.8 3.9 8.8 8.8s-3.9 8.8-8.8 8.8-8.8-3.9-8.8-8.8 4-8.8 8.8-8.8zm127.8 58.9c14 0 25.3 11.3 25.3 25.3s-11.3 25.3-25.3 25.3-25.3-11.3-25.3-25.3 11.4-25.3 25.3-25.3z" fill="#ae8d4a" stroke-width="none" opacity="1"></path></g><g id="svga-group-humanwrap-move" transform="matrix(1,0,0,1,0,0)"><g id="svga-group-humanwrap" transform="matrix(1.1000003000000003,0,0,1.1000003000000003,-9.95502921649954,-12.858316467900124)"><g id="svga-group-hair-back-move" transform="matrix(1,0,0,1,0,0)"><g id="svga-group-hair-back" transform="matrix(1,0,0,1,0,0)"></g></g><g id="svga-group-humanbody-back"><path id="SvgjsPath7595" d="m168.5 219.5-1.7-21.5s.7-9-8.8-15.3-23.4-10.1-29.5-14.2c-6.1-4.1-9.2-4.5-9-16.9s.9-40.3.9-40.3H79.6s.7 27.9.9 40.3c.2 12.4-2.9 12.8-9 16.9-6.1 4.1-20 7.9-29.5 14.2S33.2 198 33.2 198l-1.6 21.5h136.9z" fill="#f6e4e2" stroke-width="none" opacity="1" stroke="none"></path></g><g id="svga-group-chinshadow-single"><path id="SvgjsPath8704" d="M80.4 155.4c5.9 5.8 12.6 9.3 19.6 9.3s13.7-3.5 19.6-9.3c-.1-1.1-.1-2.4-.1-3.8.2-12.4.9-40.3.9-40.3H79.6s.7 27.9.9 40.3c0 1.4 0 2.7-.1 3.8z" fill="#d7a19b" stroke-width="none" opacity="0.65" stroke="none"></path></g><g id="svga-group-humanbody-front"><path id="SvgjsPath7596" d="M73.8 175.9c5.1 2.9 11.8 5.2 17.6 5.7.4 0 .4-.6.1-.7-2.8-1.1-5.9-1.7-8.8-2.6-2.9-.9-5.8-2-8.8-2.7-.1-.1-.3.2-.1.3zm35.2 6.2c5.3-.6 11.3-3 15.9-5.8.3-.2.1-.6-.2-.5-2.6.9-5.2 2-7.8 2.9-2.6.9-5.4 1.5-8 2.5-.5.1-.5.9.1.9z" fill="#d7a19b" stroke-width="none" opacity="1" stroke="none"></path><path id="SvgjsPath7597" d="m168.4 219.4-2.1-21.4c0-2.2-.5-4.5-1.5-6.6-.9-2.1-2.3-3.9-3.9-5.5s-3.5-2.8-5.5-4c-2-1.2-4.1-2.2-6.2-3.1-4.2-1.9-8.6-3.6-12.9-5.4-2.2-.9-4.3-1.9-6.4-3-1.1-.6-2.1-1.2-3-1.9-1-.6-2-1.2-3-1.9s-2-1.5-2.8-2.6c-.8-1-1.3-2.2-1.7-3.4-.7-2.4-.8-4.8-.8-7.2 0-4.7.2-9.4.3-14.1.2-9.4.6-18.7.9-28l.6.6-20.4-.2-20.4-.1.3-.3.7 28c.1 4.7.3 9.3.4 14 0 2.4-.1 4.7-.8 7.1-.3 1.2-.9 2.3-1.6 3.3-.8 1-1.7 1.8-2.7 2.5s-2 1.3-2.9 2c-.9.6-1.9 1.3-3 1.9-2.1 1.2-4.2 2.1-6.4 3.1-4.3 1.9-8.6 3.6-12.8 5.6-2.1 1-4.2 2.1-6.1 3.2-2 1.2-3.8 2.4-5.4 4-1.6 1.6-2.9 3.4-3.8 5.4-.4 1-.8 2.1-1 3.1-.2 1.1-.4 2.2-.3 3.2v.2l-1.5 21.5-1-1.1 34 .1c11.3 0 22.7.1 34.1.2l34.2.3 34.4.5zm.2.2-34 .4-34.2.3c-11.4.1-22.9.2-34.4.2l-34.4.1h-1.1l.1-1.1 1.7-21.5v.1c-.1-5.1 2.2-9.8 5.7-13.3 1.7-1.7 3.8-3.1 5.8-4.3 2-1.2 4.2-2.2 6.3-3.2 4.3-2 8.7-3.7 13-5.4 2.1-.9 4.3-1.8 6.3-2.9 1-.5 1.9-1.1 3-1.8 1-.6 2-1.2 2.9-1.9.9-.6 1.8-1.4 2.4-2.2.7-.9 1.2-1.9 1.5-2.9.6-2.1.8-4.5.8-6.8 0-4.6-.1-9.3-.2-14l-.6-28v-.3h.3l20.4-.1 20.4-.2h.6v.6c-.1 9.3-.2 18.7-.4 28-.1 4.7-.2 9.4-.2 14 .1 2.3.2 4.6.8 6.7.3 1.1.8 2 1.4 2.9.6.8 1.4 1.6 2.4 2.2.9.6 1.9 1.3 2.9 1.9 1 .7 1.9 1.3 2.9 1.8 2 1.1 4.1 2.1 6.3 3 4.3 1.8 8.6 3.6 12.9 5.6 2.1 1 4.2 2.1 6.2 3.3 2 1.2 4 2.6 5.7 4.3 3.4 3.4 5.6 8.1 5.4 13v-.1l1.4 21.6zm-112.8-.4 1.9-13.8.1 13.8h-2zm88.6 0-1.9-13.8-.1 13.8h2z" fill="#c8837c" stroke-width="none" opacity="1" stroke="none"></path></g><g id="svga-group-clothes-single"><path id="SvgjsPath7949" d="m50.8 220 8.2-26.1 40.6 18.4 41.4-18.4 8.2 26.1z" fill="#3f82a4" stroke-width="none" opacity="1"></path><path id="SvgjsPath7950" d="m150.1 219.7-4.3-13-4.3-13 7.7-16.3-1.8-.8-6.5 16.9c-3.4 1.6-6.9 3.2-10.3 4.7-3.4 1.5-6.9 3.1-10.3 4.6-6.8 3-13.7 5.9-20.6 8.8l-9.8-4.7c-3.4-1.6-6.7-3.1-10.1-4.7-6.8-3.1-13.6-6.1-20.4-9.1h-.2l-5.9-17.3-1.9.7 7.1 16.8c-.1.1-.1.2-.1.3l-4 13.4-3.7 13 24.2.5 24.6.4 12.4.1h12.4l24.8-.1h.3c.6-.2.8-.7.7-1.2zm-37.4-.7-12.2.1-24.6.4-25 .5 4.5-13.1 4.1-11.9 19.5 9c3.4 1.5 6.8 3.1 10.2 4.5l10.2 4.4c.2.1.3.1.5 0 6.8-3.2 13.7-6.4 20.6-9.5 3.4-1.6 6.9-3 10.4-4.6 3.3-1.4 6.6-2.9 9.9-4.3l3.7 12.6 3.6 11.9-23.2-.1-12.2.1z" fill="#196185" stroke-width="none" opacity="1"></path></g><g id="svga-group-head" transform="matrix(1,0,0,1,0,0)"><g id="svga-group-ears-left-move" transform="matrix(1,0,0,1,0,0)"><g id="svga-group-ears-left" transform="matrix(1,0,0,1,0,0)"><path id="SvgjsPath7782" d="M63.5 96.9s-3-5.1-4.6-7.4c-1.7-2.3-3.8-4.7-4.6-.7s-.8 11.6.3 16.9c1.1 5.2 5.8 10.5 7.8 10.5s3.4-7.9 3.3-10.6c-.1-2.7-1.1-6.7-2.2-8.7z" fill="#f6e4e2" stroke-width="none" opacity="1" stroke="none"></path><path id="SvgjsPath7783" d="M65.1 96.3c.3.7-.2 4.1 0 4.9.4 1.5.7 3.1.8 4.7 0 1.6-.1 3.1-.4 4.5-.2 1.4-.6 2.8-1 4.1-.2.6-.5 1.2-.9 1.7-.2.2-.4.5-.7.6-.1.1-.3.1-.5.1s-.3 0-.5-.1c-.6-.2-1.1-.5-1.6-.9-.3-.2-.5-.4-.7-.6l-.7-.7c-.9-1-1.8-2.2-2.5-3.5s-1.4-2.7-1.8-4.3l-.3-1.2c-.1-.4-.1-.8-.2-1.2-.1-.8-.2-1.6-.3-2.3-.2-1.5-.2-3.1-.3-4.6-.1-3-.1-6.1.3-9 .1-.7.3-1.5.8-2l.2-.2c.1 0 .1-.1.2-.1.1-.1.3-.1.4-.2.1 0 5.3.5 6 1.8.8 1.4 3.5 7.8 3.7 8.5zM58.8 90c-.8-1-1.7-2.1-2.5-2.5-.4-.2-.8-.2-1 .2-.3.3-.5.9-.6 1.5-.3 1.3-.5 2.7-.6 4.1s-.2 2.9-.2 4.4.1 3 .3 4.5c.1.8.2 1.5.4 2.3.1.4.2.7.2 1.1.1.4.2.7.3 1.1.5 1.4 1.1 2.7 1.9 3.9.7 1.2 1.6 2.2 2.4 3.1.8.9 1.8 1.6 2.6 1.8.7.2 1.3-.9 1.7-1.9.4-1.1.8-2.4 1-3.7.3-1.3.5-2.7.6-4.1 0-1.4-.2-3-.5-4.5s-.8-3-1.5-4.3c-1.3-2.5-2.9-4.9-4.5-7z" fill="#e7c1bd" stroke-width="none" opacity="1" stroke="none"></path><path id="SvgjsPath7784" d="M56.8 93.1c1.5 1.2 2.9 3.3 3.5 5.7 0 .2-.1.2-.2.1 0 0 0-.1-.1-.1-.4-.5-1-1.1-1.4-1-.8.1-.6 1.4-.3 2.5.4 1.5 1 2.8 1.7 4.1.1.1 0 .3-.1.2-1-1.4-2.5-4.4-2.3-6.4.2-1.7 1.4-1 2.2-.1-.6-1.3-1.2-2.4-2-3.4-1-1.2-3.2-3.1-3.5-.6 0 .1-.2.1-.2-.1-.1-2.3 1.7-1.7 2.7-.9z" fill="#d7a19b" stroke-width="none" opacity="1" stroke="none"></path><path id="SvgjsPath7785" d="M60.7 107.4c.9 2.4-.6 3.1-1.6 2.1-1.6-1.6-2.9-5.2-3.2-8.2 0-.2.1-.2.2 0 .3 1.7.6 3.2 1.3 4.7.4.9.9 1.9 1.4 2.5.3.5.7.8 1.1 1 .8-.1 1.1-.8.7-2.1-.1 0 0-.1.1 0z" fill="#d7a19b" stroke-width="none" opacity="1" stroke="none"></path></g></g><g id="svga-group-ears-right-move" transform="matrix(1,0,0,1,0,0)"><g id="svga-group-ears-right" transform="matrix(1,0,0,1,0,0)"><path id="SvgjsPath7786" d="M136.5 96.9s3-5.1 4.6-7.4c1.7-2.3 3.8-4.7 4.6-.7s.8 11.6-.3 16.9c-1.1 5.2-5.8 10.5-7.8 10.5s-3.4-7.9-3.3-10.6 1.1-6.7 2.2-8.7z" fill="#f6e4e2" stroke-width="none" opacity="1" stroke="none"></path><path id="SvgjsPath7787" d="M138.5 87.9c.7-1.3 5.9-1.8 6-1.8s.3.1.4.2c.1 0 .1.1.2.1l.2.2c.4.5.6 1.3.8 2 .5 2.9.4 6 .3 9-.1 1.5-.1 3.1-.3 4.6-.1.8-.2 1.5-.3 2.3-.1.4-.1.8-.2 1.2l-.3 1.2c-.4 1.6-1.1 3-1.8 4.3s-1.6 2.5-2.5 3.5c-.2.3-.5.5-.7.7s-.5.4-.7.6c-.5.4-1 .7-1.6.9-.2 0-.3.1-.5.1s-.3-.1-.5-.1c-.3-.1-.5-.4-.7-.6-.4-.5-.7-1.1-.9-1.7-.5-1.3-.8-2.6-1-4.1-.2-1.4-.4-2.9-.4-4.5.1-1.6.4-3.2.8-4.7.2-.8-.3-4.2 0-4.9.3-.8 3-7.2 3.7-8.5zm-1.9 9.1c-.7 1.3-1.1 2.8-1.5 4.3-.3 1.5-.5 3-.5 4.5.1 1.4.3 2.8.6 4.1.3 1.3.6 2.6 1 3.7s1 2.2 1.7 1.9c.8-.2 1.8-1 2.6-1.8.9-.9 1.7-1.9 2.4-3.1s1.4-2.4 1.9-3.9c.1-.4.2-.7.3-1.1s.2-.7.2-1.1c.1-.8.3-1.5.4-2.3.2-1.5.3-3 .3-4.5s0-3-.2-4.4c-.1-1.4-.3-2.8-.6-4.1-.1-.6-.3-1.2-.6-1.5s-.6-.4-1-.2c-.8.5-1.7 1.5-2.5 2.5-1.5 2.1-3.1 4.5-4.5 7z" fill="#e7c1bd" stroke-width="none" opacity="1" stroke="none"></path><path id="SvgjsPath7788" d="M143.2 93.1c-1.5 1.2-2.9 3.3-3.5 5.7 0 .2.1.2.2.1 0 0 0-.1.1-.1.4-.5 1-1.1 1.4-1 .8.1.6 1.4.3 2.5-.4 1.5-1 2.8-1.7 4.1-.1.1 0 .3.1.2 1-1.4 2.5-4.4 2.3-6.4-.2-1.7-1.4-1-2.2-.1.6-1.3 1.2-2.4 2-3.4 1-1.2 3.2-3.1 3.5-.6 0 .1.2.1.2-.1.1-2.3-1.7-1.7-2.7-.9z" fill="#d7a19b" stroke-width="none" opacity="1" stroke="none"></path><path id="SvgjsPath7789" d="M139.3 107.4c-.9 2.4.6 3.1 1.6 2.1 1.6-1.6 2.9-5.2 3.2-8.2 0-.2-.1-.2-.2 0-.3 1.7-.6 3.2-1.3 4.7-.4.9-.9 1.9-1.4 2.5-.3.5-.7.8-1.1 1-.8-.1-1.1-.8-.7-2.1.1 0 0-.1-.1 0z" fill="#d7a19b" stroke-width="none" opacity="1" stroke="none"></path></g></g><g id="svga-group-faceshape-wrap" transform="matrix(1,0,0,1,0,0)"><g id="svga-group-faceshape-single"><path id="SvgjsPath8694" d="M141 88.4c0 30.3-18.9 65.2-41 65.2s-41-34.9-41-65.2 18.9-47 41-47 41 16.6 41 47z" fill="#f6e4e2" stroke-width="none" opacity="1" stroke="none"></path><path id="SvgjsPath8695" d="M100 41.3c-22.1 0-41.1 16.7-41.1 47s19 65.5 41.1 65.5 41.1-35.2 41.1-65.5-19-47-41.1-47zm28.2 13.6.8.8c.3.3.5.6.8.9.3.3.5.6.8.9l.7.9c.2.3.5.6.7.9l.7 1 .3.5.3.5c.4.7.9 1.3 1.2 2l.6 1c.2.3.4.7.5 1l.5 1.1.5 1.1c.2.4.3.7.5 1.1l.4 1.1c2.3 5.9 3.2 12.4 3.3 18.7 0 6.4-.9 12.8-2.6 18.9-.8 3.1-1.9 6.1-3.1 9-1.2 2.9-2.5 5.8-4 8.6s-3.1 5.5-4.8 8.1c-.9 1.3-1.8 2.6-2.7 3.8-.9 1.2-1.9 2.4-3 3.6-2 2.3-4.3 4.4-6.7 6.3-2.4 1.8-5 3.3-7.8 4.3-1.4.5-2.8.9-4.3 1-1.5.2-2.9.2-4.4.1-3-.2-5.9-1.2-8.6-2.6-2.7-1.4-5.3-3.3-7.6-5.4-2.3-2.1-4.4-4.5-6.3-7.1s-3.6-5.3-5-8.1c-1.5-2.8-2.8-5.7-3.9-8.7-.6-1.5-1.1-3-1.6-4.5s-.9-3-1.3-4.6c-.8-3.1-1.4-6.2-1.8-9.3-.4-3.1-.7-6.3-.8-9.4 0-1.6 0-3.1.1-4.7 0-.8.1-1.6.1-2.3l.2-2.3c.3-3.1.9-6.2 1.7-9.1.8-3 1.8-5.9 3.2-8.6.2-.4.3-.7.5-1l.5-1c.4-.7.8-1.3 1.2-2 .4-.6.8-1.3 1.3-1.9l.7-.9.3-.5.4-.4c1.9-2.4 4.1-4.5 6.5-6.3s5-3.3 7.8-4.5 5.7-2 8.6-2.5c.7-.2 1.5-.2 2.2-.3.4-.1.8-.1 1.1-.1l1.1-.1c.8 0 1.5-.1 2.3-.1H102.6l1.1.1c.4 0 .8.1 1.1.1.4 0 .8.1 1.1.1l1.1.2.6.1.6.1 1.1.2c.4.1.7.2 1.1.3s.7.2 1.1.3c1.4.4 2.9.9 4.3 1.5s2.8 1.2 4.1 2c2.7 1.5 5.2 3.3 7.4 5.4l.4.4.5.3z" fill="#c8837c" stroke-width="none" opacity="1" stroke="none"></path></g></g><g id="svga-group-mouth-single-move" transform="matrix(1,0,0,1,0,0)"><g id="svga-group-mouth-single" transform="matrix(1,0,0,1,0,0)"><path id="SvgjsPath7770" d="M90.5 128s.3-1 2.2-2.9c1.9-1.9 5.1-2.7 5.1-2.7s.4 1.5 2.2 1.5c1.8 0 2.5-.9 2.5-1.5 0 0 2.1.1 4.8 1.3s3.7 4.6 3.7 4.6-.1 2.5-.9 3.7-2.1 1.7-3.7 1.4-9.8.3-10.9.4c-1.1.1-3.1-.4-4-2.5-.7-2-1-3.3-1-3.3z" fill="#E2929B" stroke-width="none" opacity="1" transform="translate(0 3)" stroke="none"></path><path id="SvgjsPath7771" d="M87.8 128.2c2.3.9 3.8.6 6.1-.3 2.6-1 5-1.7 7.8-1.6 2.9.1 5.2 1 7.9 2.1 1.7.7 2.8.4 4.5-.4.6-.3.1-1.4-.6-1-1.5.8-2.4 1-4 .3-.8-.4-1.6-.8-2.5-1-1.9-.6-3.9-.9-5.9-.9-1.9 0-3.8.3-5.6 1-1 .4-2 .8-3 1.1-1.7.5-2.8.4-4.4-.2-.6-.2-.8.7-.3.9z" fill="#d3737e" stroke-width="none" opacity="1" transform="translate(0 3)" stroke="none"></path><path id="SvgjsPath7772" d="M96.1 133.8c1.7.1 3.5-.1 5.2-.2 1.7 0 3.5.1 5.2-.1.2 0 .4-.4.1-.5-3.2-.7-7.3-.5-10.5.3-.4 0-.3.4 0 .5z" fill="#d3737e" stroke-width="none" opacity="1" transform="translate(0 3)" stroke="none"></path></g></g><g id="svga-group-eyes-left-move" transform="matrix(1,0,0,1,0,0)"><g id="svga-group-eyes-left" transform="matrix(1,0,0,1,0,0)"><g id="svga-group-eyesback-left"><path id="SvgjsPath7866" d="M90.3 98.8s-2.6 1.5-5.2 2.1c-2.5.6-6.5 1.4-9.5.1s-2-3.1-2-3.1 3-3.3 6.7-4.3 6.8-.7 7.9 1c1.1 1.5 2.1 3.2 2.1 4.2z" fill="#ffffff" stroke-width="none" opacity="1"></path></g><g id="svga-group-eyesiriswrapper-left" transform="matrix(1,0,0,1,0,0)"><g id="svga-group-eyesiriscontrol-left" transform="matrix(1,0,0,1,0,0)"><g id="svga-group-eyesiris-left" transform="matrix(1,0,0,1,0,0)"><path id="SvgjsPath7836" d="M82 91.5c2.7 0 4.9 2.2 4.9 4.9s-2.2 4.9-4.9 4.9-4.9-2.2-4.9-4.9 2.2-4.9 4.9-4.9z" fill="#7085b3" stroke-width="none" opacity="1"></path><path id="SvgjsPath7837" d="M82 93.8c1.4 0 2.6 1.2 2.6 2.6S83.4 99 82 99s-2.6-1.2-2.6-2.6 1.2-2.6 2.6-2.6z" fill="#000000" stroke-width="none" opacity="1"></path><path id="SvgjsPath7838" d="m81.3 94.3-.5-.5c-.2-.2-.4-.3-.7-.3s-.5.1-.7.3c-.2.2-.3.4-.3.7s.1.5.3.7l.5.5c.2.2.4.3.7.3.2 0 .5-.1.7-.3.4-.5.4-1 0-1.4zm2.5 4.4c.8 0 .8-1.3 0-1.3s-.9 1.3 0 1.3z" fill="#ffffff" stroke-width="none" opacity="1"></path></g></g></g><g id="svga-group-eyesfront-left"><path id="SvgjsPath7874" d="M70.73 98.03c0 6.9 4.93 12.5 11.02 12.5s11.02-5.6 11.02-12.5-4.93-12.5-11.02-12.5-11.02 5.59-11.02 12.5zm2.94-.21s3.04-3.27 6.7-4.31c3.66-1.04 6.84-.67 7.9.96 1.06 1.63 2 3.34 2.02 4.32 0 0-2.62 1.46-5.17 2.07-2.55.61-6.49 1.39-9.47.06-2.98-1.34-1.98-3.1-1.98-3.1z" fill="#f6e4e2" stroke-width="none" opacity="1" stroke="none"></path><path id="SvgjsPath7875" d="M71.63 101.03c-.03.08.07.14.14.1.37-.2.67-.51 1.01-.75.19-.13.39-.25.59-.38.16.22.37.43.61.62-.08.07-.16.15-.23.22-.22.22-.5.51-.59.81-.04.14.13.2.22.13.23-.18.41-.47.62-.69.08-.09.18-.17.28-.25.31.2.65.38 1.01.53-.36.36-.63.82-.61 1.34 0 .13.16.17.23.06.26-.41.47-.85.74-1.26 1.05.39 2.18.59 2.93.61 3.98.08 8.21-1.2 11.62-3.21.01 0 .01-.01.02-.02.03.09.07.17.1.26.02.07.12.06.13-.02.13-1.7-.32-3.3-1.21-4.55.35-.08.68-.27.91-.56.07-.1-.05-.25-.16-.21-.36.14-.7.28-1.05.39-.23-.28-.49-.54-.77-.77.11-.08.23-.15.33-.25.29-.29.63-.71.66-1.14.01-.14-.19-.22-.27-.11-.26.3-.39.68-.67.97-.1.11-.22.21-.33.31-.32-.24-.67-.44-1.05-.6.41-.42.69-.98.61-1.54-.02-.15-.25-.17-.32-.04-.2.4-.29.82-.58 1.17-.06.08-.15.14-.22.21-.51-.17-1.06-.28-1.64-.31.07-.16.12-.33.09-.49-.02-.12-.2-.13-.26-.03-.09.14-.11.32-.19.47-.01.02-.03.03-.03.04-.19 0-.38 0-.58.02-.79.08-1.6.28-2.4.54.06-.54-.03-1.08-.35-1.55-.06-.08-.22-.06-.21.06.04.56.08 1.12 0 1.68-.48.18-.95.38-1.42.59-.05-.17-.11-.33-.17-.5-.1-.26-.2-.53-.33-.77-.06-.12-.21-.05-.22.06-.06.44.05.99.3 1.4-.41.2-.81.4-1.2.61-.19-.21-.32-.47-.53-.66-.1-.09-.25-.02-.26.11-.02.31.19.56.44.74l-1 .56c-.2.11-.39.23-.59.35-.64-.1-1.24-.39-1.81-.73-.11-.07-.2.08-.13.17.39.5.92.76 1.49.86-.27.18-.52.38-.77.59-.88.19-1.7.2-2.66.04-.18-.03-.29.19-.12.29.58.37 1.29.51 1.99.45-.5.58-.89 1.23-1.08 1.99-.06.25.2.39.39.3l.06.21c-.25.14-.48.33-.68.5-.35.31-.67.63-.83 1.03zm2.28-2.83c1.95-2.41 4.92-4.05 7.99-4.62 4.22-.79 6.88 1.56 8.27 5.22-.01 0-.02-.01-.03 0-4.19 1.67-13.42 4.76-16.23-.6z" fill="#191c29" stroke-width="none" opacity="1" stroke="none"></path></g></g></g><g id="svga-group-eyes-right-move" transform="matrix(1,0,0,1,0,0)"><g id="svga-group-eyes-right" transform="matrix(1,0,0,1,0,0)"><g id="svga-group-eyesback-right"><path id="SvgjsPath7867" d="M109.7 98.8s2.6 1.5 5.2 2.1c2.5.6 6.5 1.4 9.5.1s2-3.1 2-3.1-3-3.3-6.7-4.3-6.8-.7-7.9 1c-1.1 1.5-2.1 3.2-2.1 4.2z" fill="#ffffff" stroke-width="none" opacity="1"></path></g><g id="svga-group-eyesiriswrapper-right" transform="matrix(1,0,0,1,0,0)"><g id="svga-group-eyesiriscontrol-right" transform="matrix(1,0,0,1,0,0)"><g id="svga-group-eyesiris-right" transform="matrix(1,0,0,1,0,0)"><path id="SvgjsPath7839" d="M118 91.5c2.7 0 4.9 2.2 4.9 4.9s-2.2 4.9-4.9 4.9-4.9-2.2-4.9-4.9 2.2-4.9 4.9-4.9z" fill="#7085b3" stroke-width="none" opacity="1"></path><path id="SvgjsPath7840" d="M118 93.8c1.4 0 2.6 1.2 2.6 2.6S119.4 99 118 99s-2.6-1.2-2.6-2.6 1.2-2.6 2.6-2.6z" fill="#000000" stroke-width="none" opacity="1"></path><path id="SvgjsPath7841" d="m117.4 94.3-.5-.5c-.2-.2-.4-.3-.7-.3s-.5.1-.7.3c-.2.2-.3.4-.3.7s.1.5.3.7l.5.5c.2.2.4.3.7.3.2 0 .5-.1.7-.3.3-.5.4-1 0-1.4zm2.4 4.4c.8 0 .8-1.3 0-1.3s-.8 1.3 0 1.3z" fill="#ffffff" stroke-width="none" opacity="1"></path></g></g></g><g id="svga-group-eyesfront-right"><path id="SvgjsPath7876" d="M118.26 85.53c-6.08 0-11.02 5.6-11.02 12.5s4.93 12.5 11.02 12.5 11.02-5.6 11.02-12.5-4.94-12.5-11.02-12.5zm6.09 15.38c-2.98 1.33-6.92.55-9.47-.06-2.55-.61-5.17-2.07-5.17-2.07.02-.98.96-2.69 2.02-4.32 1.06-1.63 4.23-2 7.9-.96 3.66 1.04 6.7 4.31 6.7 4.31s1 1.77-1.98 3.1z" fill="#f6e4e2" stroke-width="none" opacity="1" stroke="none"></path><path id="SvgjsPath7879" d="M127.57 100.03c-.2-.17-.43-.36-.68-.5a.83.83 0 0 0 .06-.21c.19.1.45-.05.39-.3-.18-.76-.58-1.42-1.08-1.99.7.06 1.42-.08 1.99-.45.16-.1.05-.32-.12-.29-.96.16-1.78.15-2.66-.04-.25-.21-.51-.4-.77-.59.57-.1 1.1-.36 1.49-.86.07-.09-.02-.24-.13-.17-.57.34-1.16.63-1.81.73-.2-.12-.39-.24-.59-.35-.32-.19-.66-.37-1-.56.25-.18.46-.43.44-.74-.01-.13-.16-.2-.26-.11-.21.19-.34.45-.53.66-.39-.21-.79-.42-1.2-.61.25-.41.36-.96.3-1.4-.01-.11-.16-.18-.22-.06-.13.24-.23.51-.33.77-.06.16-.12.33-.17.5-.47-.21-.94-.42-1.42-.59-.08-.56-.04-1.12 0-1.68.01-.12-.15-.14-.21-.06-.33.47-.41 1.01-.35 1.55-.8-.26-1.61-.47-2.4-.54-.2-.02-.39-.02-.58-.02-.01-.02-.03-.03-.03-.04-.08-.15-.1-.33-.19-.47-.06-.1-.23-.09-.26.03-.03.16.02.33.09.49-.58.03-1.13.13-1.64.31-.07-.07-.15-.13-.22-.21-.29-.35-.39-.77-.58-1.17-.06-.12-.3-.11-.32.04-.08.56.2 1.12.61 1.54-.37.17-.72.37-1.05.6-.11-.1-.23-.2-.33-.31-.28-.29-.41-.67-.67-.97-.09-.1-.28-.02-.27.11.03.43.37.85.66 1.14.1.1.22.17.33.25-.28.23-.54.49-.77.77-.35-.1-.69-.25-1.05-.39-.11-.04-.23.11-.16.21.23.3.55.48.91.56-.89 1.25-1.34 2.85-1.21 4.55.01.07.1.09.13.02.03-.09.07-.18.1-.26 0 .01.01.02.02.02 3.41 2.02 7.63 3.29 11.62 3.21.75-.02 1.88-.22 2.93-.61.27.41.48.85.74 1.26.07.1.23.06.23-.06.02-.52-.25-.98-.61-1.34.36-.15.7-.33 1.01-.53.1.08.2.17.28.25.2.22.39.5.62.69.1.08.26.01.22-.13-.09-.3-.36-.59-.59-.81-.07-.07-.15-.15-.23-.22.24-.19.45-.4.61-.62.2.13.4.25.59.38.34.24.65.55 1.01.75.06.04.17-.02.14-.1-.19-.43-.51-.75-.83-1.03zm-17.72-1.24h-.03c1.4-3.66 4.05-6.01 8.27-5.22 3.07.57 6.04 2.21 7.99 4.62-2.8 5.37-12.03 2.28-16.23.6z" fill="#191c29" stroke-width="none" opacity="1" stroke="none"></path></g></g></g><g id="svga-group-facehighlight-single"></g><g id="svga-group-eyebrows-left-move" transform="matrix(1,0,0,1,0,0)"><g id="svga-group-eyebrows-left-rotate" transform="matrix(1,0,0,1,0,0)"><g id="svga-group-eyebrows-left" transform="matrix(1,0,0,1,0,0)"><path id="SvgjsPath7925" d="M69.6 87.3c0-.4.2-.7.5-.9.1-.2.3-.4.4-.6.1-.2.2-.3.4-.4.6-.8 1.8-1.5 2.6-2 1.2-.8 2.6-1.1 4.1-1.3 1.3-.4 2.8-.5 4-.2.1 0 .1.1.2.1 1 0 2 .2 3 .5.5.1 1 .2 1.5.5.1.1.2.2.2.3.6.2 1.1.4 1.6.7.8.4 1.6 1 2 1.6.1-.1.2-.1.4-.1.9.3 1 1 .6 1.6.3.3-.2.8-.7.6-.2 0-.3 0-.4-.1-1.4.7-3.5.3-5.1 0-.1 0-.1.1-.2.1-1.1 0-2.1-.1-3.2-.1-1.9.3-3.7.3-5.6.2-.6-.1-1.3-.1-1.9-.2-.3.1-.6.1-.9.1h-2.4c-.1.1-.3.1-.5 0-.4.1-.6-.1-.6-.4z" fill="#2a232b" stroke-width="none" opacity="1"></path><path id="SvgjsPath7926" d="M90.2 86.9c.1-.4.1-.8-.2-1.1-.1-.1.1-.3.3-.2.8.5.8 1.8-.1 2.2-.1 0-.2 0-.2-.1-.1-.2.1-.5.2-.8zm-5.3-4.2c1.2.1 2.1 1.3 2.8 2 .7.8 1.7 1.8 1.6 2.9 0 .1-.2.2-.3.1-.6-.9-1-1.8-1.8-2.6-.7-.8-1.7-1.4-2.4-2.2 0-.1 0-.2.1-.2zm-4.1-.9c1.5 0 2.8 1.1 3.7 2 1.1 1.1 2.1 2.4 2.4 3.9 0 .2-.2.3-.3.1-1.4-2.4-2.5-4.7-5.8-5.7-.2-.1-.2-.3 0-.3zM75 83c4.4-.5 8.6 1.5 10.5 4.7.2.3-.3.5-.5.2-2-3.2-5.6-4.8-9.9-4.7-.2 0-.3-.2-.1-.2zm-3.2 1.1c3.3-.2 7.3 1.4 9.2 3.6.1.1-.1.2-.2.1-1.3-.9-2.6-1.8-4.2-2.4-1.6-.6-3.2-.8-4.9-1-.1-.1-.1-.3.1-.3zm-1.1 1.7c2.4-.3 6.5.2 8.2 1.8.1.1 0 .3-.2.2-2.4-1.4-5.2-1.5-7.9-1.7-.2-.1-.3-.3-.1-.3zm-1 1.8c1.1-.3 2.4-.1 3.5-.1.2 0 .2.3 0 .3-1.2 0-2.4.1-3.5-.1-.1 0 0-.1 0-.1z" fill="#3a353a" stroke-width="none" opacity="1"></path><path id="SvgjsPath7927" d="M69.8 85.9c-.6.7-1.4 1.8 0 2.2.7.2 1.7 0 2.4 0h16.4c1 0 3.5.2 3.1-1.2 0-.1-.2-.1-.3 0 0 .2-.1.3-.3.4.5-.9-.5-2.2-1.3-2.7-.1-.1-.2 0-.2.1-2.3-2-5.8-3.1-9-3.3-4-.2-8.4 1.6-10.8 4.5zM89 87.8c-.7-1.7-2.1-3.4-3.7-4.8 1.4.5 2.7 1.2 3.9 2.1.3.4.5.9.5 1.4.1.4 0 .8-.1 1.3H89zm1.8-.2c-.2.1-.4.1-.6.1.3-.6.3-1.2.1-1.8.3.2.5.5.8.7-.1.3-.2.6-.3 1 0-.1 0-.1 0 0zm-20.6-1.3c.5-.6 1.1-1.2 1.7-1.7.1-.1.2-.1.2-.2 2.5.9 4.9 1.8 7.2 3 .1.1.3-.1.2-.2-2-1.4-4.4-2.6-7-3.1 3.7-2.5 8.2-2.7 12.1-1.5.8.8 1.6 1.7 2.4 2.6.6.8 1.1 1.6 1.7 2.4-.8 0-1.7 0-2.5-.1-1.2-2.6-3.9-4.8-7.2-5.6-.2 0-.3.2-.1.2 3 1.3 5.3 2.9 7 5.3-.5 0-.9-.1-1.2-.1h-1.5v-.1c-1.8-2-4.4-3.7-7.4-4.3-.2 0-.3.2-.1.2 2.8 1.1 5.1 2.3 7.2 4.2h-11c-.3 0-1.4.2-1.7 0-.6 0-.3-.6 0-1zm1.3.3c.8 0 1.6.4 2.2.8.2.1 0 .3-.2.2-.3-.2-.7-.3-1-.4-.4-.1-.7-.2-1.1-.3-.1-.1-.1-.3.1-.3z" fill="#1b141c" stroke-width="none" opacity="1"></path></g></g></g><g id="svga-group-eyebrows-right-move" transform="matrix(1,0,0,1,0,0)"><g id="svga-group-eyebrows-right-rotate" transform="matrix(1,0,0,1,0,0)"><g id="svga-group-eyebrows-right" transform="matrix(1,0,0,1,0,0)"><path id="SvgjsPath7928" d="M130.4 87.3c0-.4-.2-.7-.5-.9-.1-.2-.3-.4-.4-.6-.1-.2-.2-.3-.4-.4-.6-.8-1.8-1.5-2.6-2-1.2-.8-2.6-1.1-4.1-1.3-1.3-.4-2.8-.5-4-.2-.1 0-.1.1-.2.1-1 0-2 .2-3 .5-.5.1-1 .2-1.5.5-.1.1-.2.2-.2.3-.6.2-1.1.4-1.6.7-.8.4-1.6 1-2 1.6-.1-.1-.2-.1-.4-.1-.9.3-1 1-.6 1.6-.3.3.2.8.7.6.2 0 .3 0 .4-.1 1.4.7 3.5.3 5.1 0 .1 0 .1.1.2.1 1.1 0 2.1-.1 3.2-.1 1.9.3 3.7.3 5.6.2.6-.1 1.3-.1 1.9-.2.3.1.6.1.9.1h2.4c.1.1.3.1.5 0 .4.1.6-.1.6-.4z" fill="#2a232b" stroke-width="none" opacity="1"></path><path id="SvgjsPath7929" d="M109.8 86.9c-.1-.4-.1-.8.2-1.1.1-.1-.1-.3-.3-.2-.8.5-.8 1.8.1 2.2.1 0 .2 0 .2-.1.1-.2-.1-.5-.2-.8zm5.3-4.2c-1.2.1-2.1 1.3-2.8 2-.7.8-1.7 1.8-1.6 2.9 0 .1.2.2.3.1.6-.9 1-1.8 1.8-2.6.7-.8 1.7-1.4 2.4-2.2 0-.1 0-.2-.1-.2zm4.1-.9c-1.5 0-2.8 1.1-3.7 2-1.1 1.1-2.1 2.4-2.4 3.9 0 .2.2.3.3.1 1.4-2.4 2.5-4.7 5.8-5.7.2-.1.2-.3 0-.3zM125 83c-4.4-.5-8.6 1.5-10.5 4.7-.2.3.3.5.5.2 2-3.2 5.6-4.8 9.9-4.7.2 0 .3-.2.1-.2zm3.2 1.1c-3.3-.2-7.3 1.4-9.2 3.6-.1.1.1.2.2.1 1.3-.9 2.6-1.8 4.2-2.4 1.6-.6 3.2-.8 4.9-1 .1-.1.1-.3-.1-.3zm1.1 1.7c-2.4-.3-6.5.2-8.2 1.8-.1.1 0 .3.2.2 2.4-1.4 5.2-1.5 7.9-1.7.2-.1.3-.3.1-.3zm1 1.8c-1.1-.3-2.4-.1-3.5-.1-.2 0-.2.3 0 .3 1.2 0 2.4.1 3.5-.1.1 0 .1-.1 0-.1z" fill="#3a353a" stroke-width="none" opacity="1"></path><path id="SvgjsPath7930" d="M119.2 81.4c-3.2.2-6.7 1.3-9 3.3 0-.1-.1-.2-.2-.1-.8.5-1.8 1.8-1.3 2.7-.1-.1-.2-.2-.3-.4 0-.1-.2-.1-.3 0-.4 1.4 2.1 1.2 3.1 1.2h16.4c.7 0 1.8.2 2.5 0 1.4-.4.6-1.5 0-2.2-2.3-2.9-6.7-4.7-10.9-4.5zm-8.9 6.3c0-.4-.1-.8-.1-1.3.1-.5.3-.9.5-1.4 1.2-.9 2.5-1.6 3.9-2.1-1.6 1.3-3 3.1-3.7 4.8-.2.1-.4.1-.6 0zm-1.1-.2c-.2-.3-.3-.6-.3-.9.3-.3.5-.5.8-.7-.2.6-.3 1.3.1 1.8-.2 0-.4-.1-.6-.2zm20.5.2c-.3.2-1.3 0-1.6 0h-11c2.1-1.9 4.4-3.1 7.2-4.2.2-.1.1-.3-.1-.2-3 .6-5.6 2.3-7.4 4.3v.1h-1.5c-.2 0-.7 0-1.2.1 1.7-2.4 4-4 7-5.3.2-.1.1-.3-.1-.2-3.3.8-6 3-7.2 5.6-.8 0-1.6.1-2.5.1.6-.8 1.1-1.7 1.7-2.4.7-.9 1.6-1.7 2.4-2.6 4-1.3 8.5-1 12.1 1.5-2.6.5-5 1.8-7 3.1-.1.1 0 .2.2.2 2.3-1.2 4.7-2.1 7.2-3 .1.1.2.1.2.2.7.5 1.2 1.1 1.7 1.7.3 0 .6.6-.1 1zm-1.2-1.1c-.8 0-1.6.4-2.2.8-.2.1 0 .3.2.2.3-.2.7-.3 1-.4.4-.1.7-.2 1.1-.3.1-.1.1-.3-.1-.3z" fill="#1b141c" stroke-width="none" opacity="1"></path></g></g></g><g id="svga-group-nose-single-move" transform="matrix(1,0,0,1,0,0)"><g id="svga-group-nose-single" transform="matrix(1,0,0,1,0,0)"><path id="SvgjsPath7904" d="M94.94 88.27c1.09.9 1.93 1.85 2.34 3.25.46 1.58.01 2.89-.24 4.43-.13.83-.12 1.6.01 2.43.3 1.82.37 3.1-.45 4.84-.89 1.9-1.83 3.6-1.99 5.74-.16 2.17.41 4.19 1.48 6.07.08.15.3.02.23-.13-1.42-3.01-1.47-6.54-.07-9.57.83-1.8 1.93-3.43 1.69-5.5-.18-1.62-.5-2.94-.16-4.61.18-.87.35-1.73.26-2.63-.18-1.86-1.29-3.63-2.92-4.55-.15-.08-.32.12-.18.23z" fill="#c8837c" stroke-width="none" opacity="1" transform="translate(0 2)" stroke="none"></path><path id="SvgjsPath7905" d="M93.24 112.44c-1.27 1.59-2.06 6.22.65 7.01 1.79.52 2.16-2.61 4-1.23.99.74 1.24 2.28 2.78 2.12 1.1-.12 1.64-1.17 2.46-1.75 1.49-1.06 2.77 1.2 4.24.13 2.19-1.59.45-5.37-1.21-6.58-.31-.23-.67.27-.41.53 1.04 1.01 2.38 2.98 1.66 4.56-.88 1.93-2.26.03-3.42.11-1.92.13-2.62 3.5-4.74 1.47-.84-.8-1.73-2.54-3.19-1.71-.17.1-.3.26-.43.4-.16.23-.31.48-.43.73-1.44.21-2.24-.2-2.38-1.24-.48-1.46.09-3.07.65-4.41.07-.13-.14-.25-.23-.14z" fill="#c8837c" stroke-width="none" opacity="1" transform="translate(0 2)" stroke="none"></path><path id="SvgjsPath7906" d="M105.73 88.66c-3.59 2.68-1.04 6.83-1.81 10.38-.03.14.16.23.23.1.63-1.1.51-2.29.3-3.5-.48-2.75-.43-4.56 1.48-6.72.11-.13-.04-.37-.2-.26z" fill="#c8837c" stroke-width="none" opacity="1" transform="translate(0 2)" stroke="none"></path><path id="SvgjsPath7907" d="M103.91 102.3c.7 2.53.9 4.93 1.01 7.53 0 .11.18.15.2.03.41-2.5-.08-5.28-1.03-7.61-.04-.11-.21-.07-.18.05z" fill="#c8837c" stroke-width="none" opacity="1" transform="translate(0 2)" stroke="none"></path><path id="SvgjsPath7908" d="M104.48 108.47c-.12-1.87-.5-4.29-1.95-5.6-.25-.23-.69-.08-.68.28.03 1.79.74 3.49.74 5.31 0 1.52-.87 3.56-.29 4.98.12.3.45.5.76.31 1.55-.93 1.52-3.67 1.42-5.28z" fill="#fef7f6" stroke-width="none" opacity="1" transform="translate(0 2)" stroke="none"></path></g></g><g id="svga-group-hair-front" transform="matrix(1,0,0,1,0,0)"><path id="SvgjsPath7966" d="M96.3 39.2s-1.9-1.7-6.2-2.7c-4.3-1-14.5-.3-25.3 9.8s-16.2 22.4-19.3 32c-3.1 9.6-4.3 32-4.1 33.7s6 9.1 9.6 11.3c0 0-.5-10.8.2-14.8 0 0 1.2 12.6 1.9 16 0 0 8.4 4.4 14.9 5.4 0 0-3.1-17.9-3.8-33.9s1.4-31.4 5.1-38.8c0 0-2.5 14.6-3.2 22.5 0 0 25.2 4.3 49.4 2.4 0 0 1.4-9.1 1.4-13.1 0 0 .7 7.9.7 12.6 0 0 9.1 1 17.3-.7 0 0 3.8 30.3-5.5 48.8 0 0 9.6-1.5 13.7-3.7 0 0 1.4-4.7 1.9-7.1 0 0 .2 3.4-.5 6.2 0 0 4.8-2.7 8.1-5.4 0 0-.1-10.9-.5-15.9 0 0 2.4 7.5 2.2 14.4 0 0 1.9-2.5 3.6-4.4 0 0-1.8-20.4-8.5-40.9s-21.7-31.3-30.6-34.5-18.9-2.7-22.5.8z" fill="#2a232b" stroke-width="none" opacity="1" stroke="none"></path><path id="SvgjsPath7967" d="M91.2 39.9c-18.8.6-23.4 23.5-23.6 38.3 0 .4.6.5.7.1 2.1-15.3 4.3-34.8 23-37.8.4 0 .3-.6-.1-.6zM89 41.1c-12.8 6-16.7 20.6-16.1 33.7 0 .3.4.3.4 0 .2-13.2 3.3-26.7 15.8-33.4.3-.1.1-.4-.1-.3zm5.4.1c-5.6 8.9-7.9 20.7-4.9 30.9.1.3.7.3.6-.1-1.2-10.9-.1-20.6 4.8-30.5.2-.4-.3-.7-.5-.3zm-1-1.8C78 35.9 65.6 50.2 61.6 63.5c-2.8 9-3 18.6-2.9 28 .1 10.2.2 20.6 2.4 30.6.1.3.6.2.5-.1-2.4-16.8-4-35.5-.8-52.3 3-15.9 14.4-31.9 32.4-29.7.4 0 .5-.5.2-.6zm6 2.6c-.1-.2-.3 0-.3.2 2.8 5.6 5 11.5 6.2 17.6 1.2 6.3.8 12.3.7 18.6 0 .3.5.4.5.1 2.8-12.1-.9-26.1-7.1-36.5zm3.4-3.2c-.3 0-.4.4-.1.4 18.5 4 21 24.6 22.9 39.9 0 .3.5.3.5 0 .2-14.8-5.7-37.9-23.3-40.3zM140 74.5c-3.2-16-15.4-29.2-30-35.8-.2-.1-.3.2-.2.3 13.9 8.5 26.1 19.9 29 36.7 2.7 15.5 2 32.7-4 47.3-.1.4.4.6.6.3 4.1-6.8 5.5-14.7 5.9-22.6.6-8.6.4-17.8-1.3-26.2zM80.5 38.7c-12.8 4.3-21.3 16.6-26 28.7-5.8 15-9.7 33.6-7.5 49.6 0 .3.5.2.5-.1-.9-27.7 5.2-64.9 33.1-78 .1-.1.1-.3-.1-.2z" fill="#1b141c" stroke-width="none" opacity="1" stroke="none"></path><path id="SvgjsPath7968" d="M109.9 51.7c-2.1-5.3-5.1-10.4-10.8-12.1-.2 0-.3.2-.1.3 13.1 5.6 14.4 25.9 14.2 38 0 .3.4.3.4 0 .9-8.9-.4-18-3.7-26.2zm22.6 16.6c-.1-.2-.4-.1-.4.2 1 3.9 1.9 7.6 2.6 11.5.1.3.6.2.6-.1-.1-3.9-1-8.1-2.8-11.6zM99 44.8c-.1-.2-.3-.1-.3.1 2.2 9.6 2.8 18.8 3 28.6 0 .3.4.3.5 0 1-9.5-.5-19.6-3.2-28.7zm-.2 6.2c0-.2-.3-.1-.3 0 .8 7.2 1.1 14.3 1.3 21.6 0 .3.5.3.5 0 .5-7.2-.2-14.5-1.5-21.6zm-2.7-2.9c0-.2-.3-.2-.3 0 .8 10.2.7 20.5 1 30.7 0 .3.4.3.5 0 .5-10.3-.3-20.5-1.2-30.7zm-1.9 6.8c-.4 6.3-.6 12.6-.4 18.9 0 .3.4.3.5 0 .3-6.3.3-12.6.3-18.9 0-.3-.4-.3-.4 0zm-4.8-9.4c-5.3 8.7-6.4 19.2-6.6 29.1 0 .4.7.4.7 0 .9-10.1 1.3-19.8 6.4-28.9.1-.2-.3-.5-.5-.2zM84 50.3c-3.1 6.2-4.8 13-4.1 20 0 .3.4.3.4 0 .2-6.9 1.2-13.3 4.1-19.7.3-.4-.2-.7-.4-.3zm-2.1-.5c-3.2 5.7-5.5 11.8-6.2 18.3 0 .3.5.4.5.1 1.2-6.4 2.9-12.4 6-18.2.2-.2-.2-.5-.3-.2zm26.4-6.6c-.1-.1-.3 0-.2.1 4.7 7.3 7.1 15.4 7.7 24 0 .2.3.2.3 0-.1-8.9-2.9-16.9-7.8-24.1zm15 10.5c-.1-.1-.3 0-.2.2 4.4 5.7 5.2 12.6 6.4 19.5 0 .2.4.2.4-.1-.7-7-2-14.1-6.6-19.6zm-1-4c-.1-.1-.3.1-.2.2 5.1 5.5 8.3 11.6 10.7 18.6.1.3.5.2.4-.1-1.7-7.2-5.8-13.5-10.9-18.7zm-.9-8.1c-.2-.1-.4.2-.2.4 19.9 13.3 24.9 35.8 27.1 58.2 0 .3.4.3.4 0-.4-22-7.5-46.7-27.3-58.6zm25.7 29.8c-.1-.2-.3-.1-.3.1 2 8.2 3.1 16.4 3.7 24.8 0 .3.4.3.4 0 0-8.5-1.4-16.9-3.8-24.9zm1.2 31.9c0-.2-.3-.2-.3 0-.3 6.2-.7 12.4-1.3 18.6 0 .2.2.2.3 0 1-6.1 1.5-12.4 1.3-18.6zM57.5 70.8c0-.2-.3-.3-.3-.1-3 13.1-3.8 26.9-2.2 40.2 0 .2.4.2.4 0-.7-13.5-.1-26.7 2.1-40.1z" fill="#3a353a" stroke-width="none" opacity="1" stroke="none"></path></g><g id="svga-group-glasses-single-move" transform="matrix(1,0,0,1,0,0)"><g id="svga-group-glasses-single" transform="matrix(1,0,0,1,0,0)"></g></g></g></g></g><rect id="svga-credit-rect" width="200" height="15" x="0" y="185" fill="#ecf0f1" opacity="0.5" style="display: none;"></rect><text id="svga-credit-text" font-family="Avenir Next, Roboto, Helvetica, Arial, sans-serif" font-size="10px" text-anchor="start" font-weight="400" size="10px" anchor="start" weight="400" fill="#333333" x="33.40447998046875" y="182.60824704170227" style="display: none;"><tspan id="SvgjsTspan7339" dy="13" x="33.40447998046875">Created on AvatarMaker.com</tspan></text></g></svg>