<svg xmlns="http://www.w3.org/2000/svg" version="1.1" width="600px" height="600px" viewBox="0 0 200 200" style="overflow:hidden!important;"><g id="svga-group-wrapper"><g id="svga-group-backs-single"><path id="SvgjsPath27616" d="M0 0h200v200H0V0z" fill="#fff100" stroke-width="none" opacity="1"></path><path id="SvgjsPath27617" d="M100 124.2c-13.3 0-24.2-10.8-24.2-24.2S86.7 75.8 100 75.8s24.2 10.8 24.2 24.2-10.9 24.2-24.2 24.2zm0-42.4c-10 0-18.2 8.2-18.2 18.2s8.2 18.2 18.2 18.2 18.2-8.2 18.2-18.2S110 81.8 100 81.8zm0 57.4c-21.6 0-39.2-17.6-39.2-39.2S78.4 60.8 100 60.8s39.2 17.6 39.2 39.2-17.6 39.2-39.2 39.2zm0-72.4c-18.3 0-33.2 14.9-33.2 33.2s14.9 33.2 33.2 33.2 33.2-14.9 33.2-33.2-14.9-33.2-33.2-33.2zm0 87.5c-29.9 0-54.3-24.4-54.3-54.3S70.1 45.7 100 45.7 154.3 70 154.3 100s-24.4 54.3-54.3 54.3zm0-102.6c-26.6 0-48.3 21.7-48.3 48.3 0 26.6 21.7 48.3 48.3 48.3 26.6 0 48.3-21.7 48.3-48.3 0-26.6-21.7-48.3-48.3-48.3zm0 116.4c-37.6 0-68.1-30.6-68.1-68.1S62.4 31.9 100 31.9s68.1 30.6 68.1 68.1-30.5 68.1-68.1 68.1zm0-130.2c-34.2 0-62.1 27.9-62.1 62.1s27.9 62.1 62.1 62.1 62.1-27.9 62.1-62.1-27.9-62.1-62.1-62.1zm0 146.2c-46.4 0-84.1-37.7-84.1-84.1S53.6 15.9 100 15.9s84.1 37.7 84.1 84.1-37.7 84.1-84.1 84.1zm0-162.2c-43.1 0-78.1 35-78.1 78.1s35 78.1 78.1 78.1 78.1-35.1 78.1-78.1-35-78.1-78.1-78.1zm0 90c-6.6 0-11.9-5.4-11.9-11.9 0-6.6 5.4-11.9 11.9-11.9 6.6 0 11.9 5.4 11.9 11.9 0 6.6-5.3 11.9-11.9 11.9zm0-17.8c-3.3 0-5.9 2.7-5.9 5.9 0 3.3 2.7 5.9 5.9 5.9 3.3 0 5.9-2.7 5.9-5.9 0-3.3-2.6-5.9-5.9-5.9zM0 146.7v12.8c9.9 16.6 23.9 30.6 40.5 40.5h12.8C29.9 189 11 170.1 0 146.7zm200 0c-11 23.4-29.9 42.3-53.3 53.3h12.8c16.6-9.9 30.6-23.9 40.5-40.5v-12.8zm0-93.4V40.5C190.1 23.9 176.1 9.9 159.5 0h-12.8C170.1 11 189 29.9 200 53.3zm-200 0C11 29.9 29.9 11 53.3 0H40.5C23.9 9.9 9.9 23.9 0 40.5v12.8zm200 36.3C195.1 42.5 157.6 4.9 110.4 0H89.6C42.5 4.9 4.9 42.5 0 89.6v20.8c4.9 47.1 42.5 84.7 89.6 89.6h20.8c47.1-4.9 84.7-42.4 89.6-89.6V89.6zM100 194.5c-52.1 0-94.5-42.4-94.5-94.5S47.9 5.5 100 5.5s94.5 42.4 94.5 94.5-42.4 94.5-94.5 94.5zM0 176.2v9.5c4.4 5.1 9.1 9.9 14.3 14.3h9.5c-9-6.8-17-14.8-23.8-23.8zm200 0c-6.8 8.9-14.8 16.9-23.8 23.8h9.5c5.1-4.4 9.9-9.1 14.3-14.3v-9.5zM0 23.8c6.8-9 14.8-17 23.8-23.8h-9.5C9.1 4.4 4.4 9.1 0 14.3v9.5zm200 0v-9.5c-4.4-5.1-9.1-9.9-14.3-14.3h-9.5c9 6.8 17 14.8 23.8 23.8z" fill="#f0e300" stroke-width="none" opacity="1"></path></g><g id="svga-group-humanwrap-move" transform="matrix(1,0,0,1,0,4)"><g id="svga-group-humanwrap" transform="matrix(1.0000001,0,0,1.0000001,-0.00000989807168139123,-0.000011096713620872833)"><g id="svga-group-hair-back-move" transform="matrix(1,0,0,1,0,0)"><g id="svga-group-hair-back" transform="matrix(0.9799999,0,0,0.9998999000000001,0,0)"></g></g><g id="svga-group-humanbody-back"><path id="SvgjsPath27444" d="M77.6 118.3c0 19.3 3.4 44.1-10 51.9-13.4 7.9-31.9 11.3-37.8 22s-4.4 25.3-4.4 25.3h149.3s.7-18.9-5.1-26.4c-8.1-10.4-27.8-15.5-37.7-20.9s-13.4-25.1-13.4-52.4l-40.9.5z" fill="#ffffff" stroke-width="none" opacity="1"></path></g><g id="svga-group-chinshadow-single"></g><g id="svga-group-humanbody-front"><path id="SvgjsPath27445" d="M175.8 218.7H24.4l-.1-1c-.1-.6-1.5-15.1 4.5-26 4.1-7.4 13.5-11.3 23.5-15.5 5-2.1 10.2-4.3 14.8-6.9 10.6-6.2 10.1-23.9 9.6-41-.1-3.5-.2-6.8-.2-10v-1.1l43.2-.4v1.1c0 29.9 4.2 46.7 12.8 51.4 2.9 1.6 6.7 3.2 10.8 4.9 10 4.1 21.3 8.8 27.2 16.3 6.1 7.7 5.4 26.4 5.4 27.1l-.1 1.1zm-149.3-2.2h147.1c0-4.1-.2-18.5-4.9-24.6-5.5-7-16.6-11.6-26.3-15.6-4.1-1.7-8-3.3-11-5-5.1-2.8-8.7-8.9-10.9-18.7-2-8.4-2.9-19.4-3-33.5l-38.6.4c0 2.8.1 5.7.2 8.8.5 17.8 1 36.1-10.7 43-4.7 2.7-9.9 4.9-15 7.1-9.6 4-18.7 7.8-22.4 14.5-5 8.6-4.7 20.1-4.5 23.6z" fill="#000000" stroke-width="none" opacity="1"></path><path id="SvgjsPath27446" d="M93.9 153.8c-.5 1.8-.4 3.4.5 5.2.8 1.6 2.1 2.7 3.9 2.9.4 0 .7-.5.5-.8-1.6-2.2-3.5-4.2-3.7-7.1 0-.7-1-.9-1.2-.2z" fill="#000000" stroke-width="none" opacity="1"></path><path id="SvgjsPath27447" d="M112.5 187.5c8.8.5 18.1-.7 26.6-2.9.7-.2.6-1.4-.2-1.3-8.8 1.1-17.7 2-26.5 3.3-.5.1-.3.9.1.9z" fill="#000000" stroke-width="none" opacity="1"></path><path id="SvgjsPath27448" d="M63.1 182.5c3.8.9 7.6 1.9 11.5 2.8 3.6.8 7.4 2 11.1 2.1.7 0 .8-.9.2-1.2-3.5-1.4-7.5-1.7-11.2-2.5-3.8-.7-7.5-1.3-11.3-2-.5 0-.7.7-.3.8z" fill="#000000" stroke-width="none" opacity="1"></path></g><g id="svga-group-clothes-single"><path id="SvgjsPath28090" d="M171.5 182.77c-1.41-1.21-5.23-1.81-5.23-1.81s-6.03-3.22-9.65-4.02c-3.62-.8-16.28-6.03-16.28-6.03l2.81-2.21s-12.06-7.44-14.87-9.45c-2.81-2.01-4.62-5.83-5.83-6.03 0 0-.6 2.41-.2 6.83.4 4.42 3.62 14.67 3.62 14.67s-1.64 12.35-2.66 16.33c-8.37 6.39-23.24 16.8-23.24 16.8-10.3-6.02-20.65-14.2-25.57-18.26-1.01-4.92-2.33-14.87-2.33-14.87s3.22-10.25 3.62-14.67c.4-4.42-.2-6.83-.2-6.83-1.21.2-3.01 4.02-5.83 6.03s-14.87 9.45-14.87 9.45l2.81 2.21s-12.66 5.23-16.28 6.03c-3.62.8-9.65 4.02-9.65 4.02s-3.82.6-5.23 1.81c-1.41 1.21-4.82 22.91-4.42 34.97H175.91c.42-12.06-3-33.77-4.41-34.97z" fill="#ffffff" stroke-width="none" opacity="1"></path><path id="SvgjsPath28091" d="M172.15 182.01c-1.45-1.24-4.7-1.86-5.55-2.01-.97-.51-6.32-3.27-9.75-4.04-2.74-.61-11.02-3.91-14.53-5.33l1.46-1.15c.26-.2.4-.52.38-.84s-.2-.62-.47-.79c-.12-.07-12.06-7.44-14.82-9.41-1.35-.96-2.51-2.46-3.44-3.66-1.07-1.39-1.85-2.39-2.81-2.55a.987.987 0 0 0-1.13.74c-.03.1-.64 2.63-.23 7.17.38 4.17 3.12 13.13 3.59 14.67-.22 1.62-1.6 11.82-2.52 15.66-7.43 5.65-19.72 14.31-22.4 16.19-9.83-5.82-19.7-13.59-24.62-17.63-.89-4.49-2.02-12.78-2.21-14.23 0-.01.01-.04.02-.05.16.1.42-.06.28-.24-.05-.06-.1-.13-.15-.19.73-2.39 3.09-10.33 3.45-14.19.41-4.54-.2-7.06-.23-7.17-.13-.51-.62-.84-1.13-.74-.96.16-1.74 1.16-2.81 2.55-.6.77-1.29 1.65-2.07 2.44-.09 0-.18.09-.18.19-.38.37-.77.73-1.19 1.03-2.75 1.97-14.7 9.33-14.82 9.41-.28.17-.46.47-.47.79s.12.64.38.84l1.46 1.15c-3.5 1.42-11.79 4.72-14.53 5.33-3.43.76-8.78 3.52-9.75 4.04-.85.15-4.11.77-5.55 2.01-2.06 1.76-5.13 24.83-4.77 35.76.02.54.46.97 1 .97h55.87c.09 0 .18-.03.27-.06v.06h41.52c0-.03 0-.05-.01-.08.12.05.24.08.36.08h55.87c.54 0 .98-.43 1-.97.37-10.92-2.71-33.99-4.77-35.75zm-1.97 34.73c1.64-1.41 3.19-2.95 4.7-4.48.04 1.01.06 2 .07 2.95-.53.54-1.1 1.05-1.69 1.53h-3.08zm-4 0c2.9-2.35 5.71-4.82 8.57-7.22.04.72.08 1.43.11 2.13-1.9 1.71-3.86 3.37-5.74 5.1h-2.94zm4.6-33.28c.92 1.29 3.21 14.33 3.94 25.7-.08-.04-.18-.06-.26.01-2.75 2.28-5.55 4.52-8.27 6.84-.07-.06-.17-.07-.24.01-.22.23-.43.48-.64.72h-2.42c2.91-2.62 5.8-5.26 8.7-7.89.25-.22-.12-.59-.36-.36-3.07 2.75-6.16 5.49-9.23 8.25h-2.27c3.41-3.4 6.88-6.72 10.52-9.88.24-.21-.11-.57-.35-.35-3.77 3.3-7.46 6.69-11 10.24h-2.35c3.66-3.69 7.33-7.32 11.29-10.69.22-.19-.1-.5-.31-.31-4.07 3.41-8.07 6.99-11.66 10.9.04-.61.09-1.42.16-2.35.09-.07.18-.14.3-.23.08-.06.04-.19-.04-.24 3.25-3.46 6.6-6.8 10.19-9.92.22-.19-.1-.51-.32-.32-3.52 3.01-6.9 6.2-10.04 9.6.07-.85.16-1.77.26-2.74.25-.16.51-.31.76-.47.17-.11.02-.36-.16-.28-.05.02-.1.05-.16.07 2.94-2.94 5.86-5.88 9.01-8.61.2-.17-.09-.46-.29-.29-3.12 2.67-6.21 5.44-9.03 8.43.1-.89.22-1.82.34-2.75.05-.05.05-.13.03-.19.01-.09.02-.19.04-.28 2.45-2.6 5.02-5.06 7.76-7.35.18-.15-.08-.41-.26-.26a91.8 91.8 0 0 0-7.39 6.83c.13-.87.27-1.74.43-2.59.83-.96 1.56-2 2.45-2.92.98-1.03 2.03-1.97 3.16-2.85.15-.12-.05-.39-.21-.27-1.84 1.4-3.8 3.07-5.19 5.01.23-1.13.49-2.21.77-3.2.31-.47.62-.95.98-1.39.62-.75 1.3-1.44 2.04-2.07.14-.12-.06-.31-.2-.2-.8.69-1.69 1.52-2.43 2.43.3-.86.63-1.61.98-2.22 2.8-4.75 5.76-10.94 6.73-13.01 1.39.26 3.52.83 4.24 1.44zm-33.3-8.6c.28-.27.56-.54.84-.8.73-.67 1.45-1.34 2.17-2.01.25.1.59.24.99.4-1.07 1.09-2.14 2.18-3.19 3.28l-.81-.87zm3.92-6.07c-.04.02-.08.03-.12.06l-5.43 4.21c-2.31-2.63-3.95-4.73-3.98-4.77a.992.992 0 0 0-1.4-.18c-.44.34-.52.96-.18 1.4.23.29 5.61 7.25 10.96 11.85 3.69 3.18 6.92 5.6 8.56 6.8-3.33 2.4-12.87 9.37-15.76 12.51-2.93 3.18-6.98 12.16-8.34 15.27-1.22-1.72-2.66-3.3-4.04-4.9l.21-2.13c1.29 1.79 2.58 3.64 4.08 5.23.14.14.37-.04.27-.21-1.22-2.02-2.8-3.88-4.28-5.75.09-.86.17-1.73.26-2.6 1.42 1.83 2.82 3.69 4.35 5.42.11.12.33-.04.23-.18-1.41-2-2.99-3.89-4.53-5.79.17-1.67.35-3.32.53-4.86 1.2 1.57 2.42 3.14 3.73 4.62.11.13.33-.04.24-.18-1.22-1.72-2.56-3.36-3.91-4.99.14-1.19.28-2.31.41-3.31 1.16 1.62 2.3 3.28 3.6 4.78.09.11.27-.03.2-.15-1.11-1.82-2.44-3.53-3.72-5.25.13-.93.25-1.73.36-2.38 1.15 1.59 2.3 3.18 3.58 4.65.06.07.18-.02.13-.1-1.09-1.77-2.36-3.44-3.61-5.1.07-.36.14-.65.2-.84.11-.36.23-.84.36-1.4.62.86 1.23 1.71 1.89 2.54.05.06.15-.02.11-.09-.61-.96-1.26-1.89-1.92-2.83.43-2 .91-4.91 1.33-7.66.58-1.19 1.12-2.4 1.66-3.61.1-.23-.23-.43-.34-.2-.37.81-.75 1.62-1.11 2.43.25-1.71.48-3.28.63-4.42.74-1.33 1.53-2.63 2.41-3.89.14-.2-.18-.38-.32-.19-.67.94-1.32 1.91-1.93 2.9l.09-.64c0-.02-.01-.04-.01-.06.76-1.43 1.47-2.9 2.22-4.32.07-.14-.13-.26-.21-.12-.69 1.23-1.44 2.46-2.16 3.7-.07-.22-.16-.53-.28-.91.97-1.58 1.82-3.27 2.74-4.85.13-.23-.22-.43-.35-.21-.84 1.42-1.77 2.84-2.61 4.29-.08-.28-.17-.57-.26-.89 1.32-2.03 2.39-4.31 3.55-6.39.12-.22-.21-.42-.34-.2-1.1 1.91-2.4 3.83-3.43 5.81-.1-.35-.2-.71-.31-1.09 1.6-2.2 2.98-4.61 4.42-6.91.13-.21-.19-.39-.32-.19-1.42 2.15-2.96 4.29-4.26 6.53-.1-.37-.21-.75-.31-1.14 1.16-2.3 2.41-4.4 4.24-6.27.18-.18-.1-.46-.28-.28-1.67 1.66-3.2 3.62-4.16 5.79-.11-.41-.21-.82-.32-1.23.07.02.15.01.2-.07 1.24-1.76 2.25-3.74 3.29-5.64 2.57 1.79 10.42 6.67 13.49 8.58zm-18.14-8.82c-.02-.23-.03-.43-.04-.64.16-.34.32-.68.5-.99.27-.48.57-.94.88-1.39.23.29.48.58.73.87-.36.5-.71 1-1.04 1.53-.3.48-.63 1.01-.91 1.56-.06-.35-.1-.66-.12-.94zm-.13-3.04c.22-.34.44-.68.65-1.02.02.03.05.06.07.09l.43.55a22.446 22.446 0 0 0-1.13 1.75c-.02-.48-.02-.94-.02-1.37zm1.46 2.81c.31-.55.65-1.09 1-1.62.25.28.52.54.79.8-1.01 1.32-1.97 2.78-2.57 4.33-.1-.49-.2-.96-.28-1.4.39-.67.68-1.43 1.06-2.11zm2.13-.49c.29.26.59.51.9.74-1.13 1.83-2.35 3.68-3.27 5.61-.12-.51-.24-1.01-.36-1.5.89-1.65 1.7-3.29 2.73-4.85zm-3.24-3.72c-.11.14-.21.28-.33.43.01-.28.03-.55.05-.78.1.11.18.23.28.35zM67.67 169.5c.06-.07.08-.16.12-.24 1.19 1.33 2.39 2.76 3.68 4.04-.14.45-.24.78-.29.96-.49-.44-.99-.89-1.45-1.36a37.5 37.5 0 0 1-2.48-2.87l.42-.53zm.81-8.24c1.6 1.71 3.19 3.5 4.95 5.04-.04.17-.09.35-.13.52-1.63-1.85-3.62-3.5-5.43-5.16l.61-.4zm.94-.62c1.38 1.53 2.78 3.1 4.31 4.46l-.15.62c-1.48-1.65-3.15-3.16-4.76-4.68.21-.14.41-.28.6-.4zm.83-.57c.01-.01.02-.02.03-.02 1.19 1.29 2.38 2.68 3.76 3.71-.05.23-.1.47-.16.7-1.26-1.43-2.68-2.76-4.07-4.08.16-.12.31-.22.44-.31zm1.25-1.06c.89 1.12 1.82 2.26 2.86 3.19-.07.35-.14.71-.22 1.08-1.01-1.27-2.31-2.4-3.54-3.5.31-.25.62-.5.9-.77zm.91-.93c.71.84 1.43 1.69 2.23 2.43-.04.33-.1.68-.16 1.05-.77-1.03-1.69-1.99-2.6-2.92.17-.2.36-.37.53-.56zm.88-1.04c.47.64.96 1.29 1.48 1.89-.02.27-.03.54-.06.82-.62-.71-1.31-1.39-1.98-2.05.19-.22.38-.44.56-.66zm.84-1.07c.17.23.37.44.52.65l.18.24c0 .37 0 .77-.01 1.2-.39-.48-.8-.95-1.21-1.41.17-.21.34-.43.5-.64 0-.01.01-.03.02-.04zm.66-.2-.24-.33.21-.27.03.6zm-7.25 6.1c1.8 1.87 3.58 3.93 5.59 5.58l-.27 1.02c-1.31-1.73-2.97-3.28-4.44-4.86-.19-.21-.5.1-.31.31 1.5 1.66 2.94 3.53 4.62 5.02-.07.26-.14.52-.22.78-.28-.27-.56-.53-.84-.8-.82-.81-1.66-1.61-2.49-2.41-.16-.16-.41.08-.25.25.8.83 1.59 1.67 2.39 2.5.33.34.66.71 1.01 1.06-.09.32-.18.62-.26.92-.44-.44-.89-.85-1.32-1.28-.95-.94-1.92-1.85-2.88-2.77-.14-.14-.35.07-.22.22.91.98 1.81 1.96 2.74 2.92.5.51.98 1.06 1.5 1.57-.07.23-.13.45-.19.65-1.23-1.29-2.58-2.49-3.83-3.69a.938.938 0 0 0-.38-.74.99.99 0 0 0-1.4.18c-.03.04-1.66 2.14-3.98 4.77l-5.43-4.21c-.04-.03-.08-.04-.12-.06 2.36-1.48 7.55-4.7 10.98-6.93zm-36.11 20.15c.17.36.4.85.68 1.43-1.06-.29-2.14-.54-3.21-.78.84-.29 1.79-.51 2.53-.65zm-3.31.94c1.42.39 2.85.82 4.3 1.14.13.27.26.54.41.84-1.89-.53-3.85-.91-5.78-1.29.02-.04.04-.09.06-.11.23-.22.59-.41 1.01-.58zm-5.11 33.78c-.01-.54-.01-1.1 0-1.67 1.91.46 3.88.86 5.81 1.08.24.03.27-.34.05-.41-1.89-.53-3.9-.91-5.86-1.2.01-.37.01-.74.02-1.12 3.02.66 6.06 1.42 9.13 1.79.2.02.23-.29.05-.35-2.99-.83-6.11-1.29-9.16-1.84.01-.41.03-.82.05-1.23 2.32.51 4.64 1.04 7 1.33.21.03.25-.32.05-.37-2.3-.6-4.67-.98-7.03-1.37.03-.75.08-1.52.13-2.29 1.69.43 3.54.67 5.24.56.25-.02.25-.36 0-.39-1.75-.21-3.47-.4-5.21-.68.05-.74.11-1.48.17-2.23 2.08.49 4.19 1 6.31 1.23.21.02.24-.3.05-.35-2.06-.6-4.21-.93-6.33-1.27.04-.5.09-.99.13-1.49 2.25.53 4.5 1.09 6.78 1.39.23.03.26-.33.05-.39-2.21-.66-4.51-1.06-6.79-1.5.04-.43.09-.87.13-1.3 2.25.4 4.5.86 6.77 1.04.22.02.26-.33.05-.38-2.22-.5-4.52-.73-6.79-1.01.09-.84.18-1.67.28-2.49 2.39.6 4.8 1.29 7.24 1.55.2.02.22-.28.05-.34-2.32-.79-4.81-1.17-7.23-1.63l.18-1.39c2.43.62 4.87 1.24 7.34 1.57.22.03.25-.32.05-.38-2.38-.74-4.87-1.19-7.33-1.64.09-.68.18-1.35.27-2 2.42.4 4.88.82 7.33.96.19.01.24-.3.05-.34-2.39-.54-4.87-.8-7.31-1.08.12-.83.24-1.63.36-2.4 2.6.56 5.21 1.18 7.85 1.48.2.02.24-.3.05-.35-2.57-.67-5.22-1.04-7.85-1.45.1-.61.2-1.2.29-1.77 2.16.52 4.36 1.07 6.56 1.3.23.02.26-.33.05-.39-2.11-.65-4.34-1-6.53-1.36.13-.73.26-1.42.38-2.06 2.15.65 4.32 1.31 6.52 1.72.24.04.33-.28.1-.36-2.12-.76-4.34-1.29-6.53-1.82.11-.56.22-1.07.33-1.53 2.35.62 4.74 1.4 7.14 1.71.22.03.23-.3.05-.36-2.26-.85-4.72-1.26-7.08-1.81.15-.64.3-1.16.42-1.53 2.07.51 4.15 1.04 6.25 1.36 1.36 2.78 3.25 6.47 5.07 9.56 2.73 4.63 3.7 17.63 3.94 21.71H23.01zm16.87-22.72c-2.72-4.61-5.6-10.62-6.6-12.76 1.89-.95 5.73-2.78 8.26-3.34 3.3-.73 13.61-4.92 15.97-5.89l3.25 2.52c-1.65 1.8-3.52 3.71-5.36 5.29-5.23 4.5-9.5 7.46-9.55 7.49-.27.19-.43.49-.43.82s.15.63.42.82c.02.02.51.36 1.31.94-.36.49-.54 1.35-.26 1.72.06.08.2.11.25 0 .16-.32.09-.7.2-1.04.05-.14.12-.27.19-.4.33.24.7.5 1.09.8-.21.43-.4.87-.51 1.32-.03.14.15.22.23.1.24-.35.43-.76.6-1.18.29.21.59.43.91.66-.16.41-.26.84-.24 1.27.01.12.18.15.21.03.1-.38.18-.74.3-1.1.42.31.85.63 1.3.96-.18.39-.34.78-.43 1.17-.03.14.15.22.24.1.21-.31.37-.67.52-1.03.4.3.81.61 1.23.92-.11.34-.2.67-.23 1.01-.02.16.23.22.31.08.13-.25.23-.52.32-.8.4.3.8.61 1.21.92-.15.4-.29.8-.37 1.2-.03.18.2.3.3.13.19-.32.34-.66.48-1.01.28.22.56.43.84.65-.1.29-.21.58-.33.88-.05.13.15.24.24.14.19-.22.34-.46.47-.72.36.28.71.55 1.05.83-.21.5-.4 1.01-.49 1.51-.03.17.18.27.28.12.25-.39.44-.85.61-1.31.2.16.4.32.6.49-.37.73-.62 1.5-.55 2.18.01.14.2.22.28.08.33-.56.41-1.25.66-1.85.01-.02.02-.04.03-.07.37.3.73.6 1.07.89-.1.17-.2.34-.3.52-.32.56-.74 1.14-.89 1.77-.04.16.16.28.27.16.45-.47.71-1.13 1.01-1.7.08-.15.16-.31.24-.46.31.27.61.53.89.78-.19.36-.39.73-.58 1.1-.33.62-.78 1.25-.92 1.94-.03.15.15.28.27.16.49-.51.74-1.24 1.06-1.86.17-.34.35-.68.52-1.02.43.39.79.75 1.08 1.07.02.02.04.05.06.07-.53.98-1.09 2-1.38 3.03-.06.2.2.28.31.13.58-.81 1-1.79 1.41-2.75.26.32.53.69.8 1.09-.25.44-.51.89-.76 1.33-.36.62-.8 1.25-1 1.94-.04.14.15.27.26.15.48-.53.78-1.24 1.12-1.87l.63-1.17c.17.27.35.54.52.83-.92 1.62-1.82 3.24-2.71 4.87-.15.27.26.51.41.24.86-1.57 1.7-3.16 2.53-4.75.23.38.45.79.68 1.2-1.05 1.95-2.2 3.86-3.19 5.84-.1.19.17.43.32.24 1.3-1.66 2.3-3.69 3.08-5.7.28.51.56 1.04.83 1.57-1.16 2.17-2.41 4.31-3.44 6.54-.11.25.16.45.37.28.11-.09.23-.18.34-.27.11-.09.06-.2-.04-.26 1.08-1.9 2.01-3.9 2.99-5.85.24.48.48.97.72 1.46-1.27 2.07-2.55 4.25-3.37 6.52H44.11c-.23-4.05-1.21-17.59-4.23-22.71zm29.87 22.72h-1.52l1.17-1.92c.23.53.44 1.01.61 1.42-.09.16-.18.33-.26.5zm-2.1 0H66.4c.7-1.32 1.39-2.64 2.08-3.96.25.55.49 1.08.7 1.57-.5.79-1.02 1.59-1.53 2.39zm-1.84 0h-1.37c1.09-1.97 2.03-4.01 3.1-6 .26.54.51 1.08.75 1.6-.83 1.47-1.66 2.93-2.48 4.4zm6.59 0c-.78-1.89-5.25-12.55-8.49-16.08-.9-.98-2.44-2.32-4.24-3.79.06-.08.1-.17.16-.26.15-.21-.19-.4-.34-.2-.05.06-.09.13-.14.2-1.15-.93-2.39-1.9-3.63-2.85.01-.02.01-.04.02-.06.07-.2-.18-.29-.31-.17-2.9-2.21-5.74-4.28-7.27-5.38 1.64-1.19 4.87-3.62 8.56-6.8 4.3-3.7 8.61-8.91 10.26-10.97 1.17 1.67 2.55 3.42 4.15 4.72.02.17.06.42.1.73-1.45-1.53-2.98-3-4.29-4.67-.11-.14-.36.05-.25.19 1.42 1.86 2.9 3.83 4.67 5.42.05.35.1.74.16 1.16-.17-.16-.34-.31-.5-.47-.97-.94-1.97-1.86-2.93-2.81-.15-.14-.37.08-.23.23.96.95 1.88 1.95 2.83 2.91.31.32.63.66.94 1 .04.3.09.61.13.92a.435.435 0 0 1-.06-.07c-.83-.92-1.67-1.82-2.52-2.73-.15-.16-.36.07-.23.23.75.9 1.5 1.8 2.27 2.69.23.26.45.54.68.81.05.36.11.72.16 1.09l-1.59-1.8c-.13-.15-.34.07-.22.22.61.75 1.21 1.5 1.82 2.24l.1.13c.07.44.14.88.21 1.33l-.03-.03c-.57-.56-1.15-1.1-1.72-1.65-.15-.14-.37.08-.23.23.54.58 1.09 1.16 1.64 1.73.15.16.31.32.46.49.07.44.14.87.21 1.3l-.75-1.02c-.14-.2-.48-.01-.33.19.41.58.83 1.16 1.24 1.74.38 2.18.75 4.08 1.06 5.07.76 2.42 2.25 17.82 2.88 24.83H72.4zm46.74 0H78.82c-.36-4.02-1.81-19.82-2.76-24.51 5.48 4.41 14.49 11.28 23.41 16.49.34.2.76.18 1.08-.04.67-.47 12.78-8.95 21.12-15.19-.19 1.15-.38 2.61-.59 4.24-.02.04-.02.07-.01.12-.81 6.59-1.67 15.93-1.93 18.89zm2.17-1.87c.54.68 1.16 1.33 1.85 1.87h-.96c-.1-.28-.27-.52-.42-.77-.07-.11-.25-.01-.18.1.14.23.26.46.43.67h-.88c.04-.57.1-1.2.16-1.87zm2.83 1.87c-.98-.81-1.92-1.61-2.76-2.59.07-.77.15-1.59.23-2.44 1.27 1.57 2.52 3.18 3.93 4.6-.07.17-.14.32-.18.43h-1.22zm3.4 0c1.32-3.02 5.29-11.8 7.98-14.72 3.3-3.58 16.45-12.95 16.58-13.05.27-.19.42-.5.42-.82s-.16-.63-.43-.82c-.03-.02-1.61-1.11-4.01-2.97.03-.06.06-.12.12-.18.17-.18-.09-.44-.27-.27-.06.06-.11.13-.16.2-.29-.22-.58-.46-.89-.7.17-.35.34-.7.52-1.05.1-.21-.2-.39-.31-.18-.17.33-.34.66-.52.99-.36-.28-.72-.58-1.1-.89.03-.05.06-.11.09-.16.28-.51.56-1.03.85-1.54.11-.2-.19-.38-.31-.18-.3.5-.6 1.01-.9 1.51-.02.03-.04.07-.06.1-.33-.27-.67-.55-1.01-.84.3-.36.63-.67 1-.95.19-.14.01-.46-.19-.32-.4.29-.78.61-1.11.98l-.03.03c-.28-.24-.57-.48-.86-.73.1-.16.21-.32.33-.46.4-.48.87-.89 1.37-1.26.2-.15.01-.48-.2-.34-.54.37-1.04.8-1.48 1.29-.12.13-.26.29-.39.45-.01-.01-.02-.01-.03-.02-.2-.17-.41-.36-.61-.55.22-.31.43-.62.68-.91.53-.62 1.12-1.19 1.75-1.71.21-.18-.09-.47-.3-.3-.87.71-1.82 1.59-2.53 2.57-.23-.21-.46-.42-.69-.64.24-.27.47-.56.7-.83.46-.53.91-1.07 1.37-1.6.18-.21-.12-.52-.31-.31l-1.38 1.59c-.24.27-.49.54-.73.82-.24-.23-.48-.46-.72-.7 1.04-1.27 2.06-2.52 3.3-3.64.17-.16-.08-.41-.26-.26-1.22 1.06-2.43 2.21-3.42 3.51-.26-.26-.52-.52-.77-.79 1.11-1.14 2.21-2.29 3.31-3.44v-.01c3.72 1.51 11.65 4.65 14.47 5.28 2.53.56 6.37 2.39 8.26 3.34-1 2.13-3.88 8.15-6.6 12.76-3.02 5.12-4 18.66-4.23 22.72h-26.29zm46.66 0c.26-.24.52-.48.76-.74 0 .25 0 .5-.01.74h-.75z" fill="#000000" stroke-width="none" opacity="1"></path></g><g id="svga-group-head" transform="matrix(1,0,0,1,0,0)"><g id="svga-group-ears-left-move" transform="matrix(1,0,0,1,1.5,0)"><g id="svga-group-ears-left" transform="matrix(1.0500002000000002,0,0,1.0500002000000002,-2.7967401793781406,-4.325273267210406)"><path id="SvgjsPath27838" d="M58.9 77.8s-2.5-2.4-5.4-3.5c-2.9-1.1-6.1.7-7.1 3.7-1 2.9 1.3 15.1 5 19.5s6.2 4.8 8.7 2.5c2.6-2.4 7-10.8-1.2-22.2z" fill="#ffffff" stroke-width="none" opacity="1"></path><path id="SvgjsPath27839" d="M56.8 102.3c-1.9-.1-3.8-1.5-6.1-4.2-3.9-4.7-6.3-17.1-5.2-20.5.6-1.8 1.9-3.3 3.6-4.1 1.5-.7 3.2-.8 4.8-.2 3.1 1.2 5.6 3.6 5.7 3.7l.1.1c8.7 12.2 3.5 21.2 1.1 23.5-1.2 1.1-2.4 1.6-3.7 1.6-.1.1-.2.1-.3.1zm-3.6-27.1c-1.3-.5-2.5-.2-3.2.1-1.2.6-2.1 1.6-2.6 2.9-.8 2.5 1.3 14.3 4.9 18.5 1.9 2.3 3.4 3.4 4.7 3.5.8.1 1.6-.3 2.5-1.1 2.1-1.9 6.5-9.8-1.3-20.7-.4-.3-2.6-2.2-5-3.2z" fill="#000000" stroke-width="none" opacity="1"></path><path id="SvgjsPath27840" d="M50.2 77.4c3.3.6 5.4 6.1 6 9.8.1.1.1.2.2.3.4.6-.4 1.2-.8.6-.5-.8-1-1.6-1.8-1.9-1.4-.5-2.1 1.1-1.8 2.6.4 1.9 1.6 3 2.6 4.4.1.1 0 .3-.1.2-1.7-1-4.3-4.8-3.1-7.2.9-1.7 2.3-1.4 3.4-.4-.8-2.1-1.4-4.3-3-5.9-.5-.5-1.5-1.4-2.2-1.3-1.3.2-1.3 2.1-1.3 3.4-.1 1.7.1 3.4.4 5 0 .2-.2.2-.3.1-.6-2.4-2-10.4 1.8-9.7z" fill="#000000" stroke-width="none" opacity="1"></path></g></g><g id="svga-group-ears-right-move" transform="matrix(1,0,0,1,-1.5,0)"><g id="svga-group-ears-right" transform="matrix(1.0500002000000002,0,0,1.0500002000000002,-7.203703512574805,-4.324636210218827)"><path id="SvgjsPath27841" d="M141.1 77.8s2.5-2.4 5.4-3.5c2.9-1.1 6.1.7 7.1 3.7 1 2.9-1.3 15.1-5 19.5s-6.2 4.8-8.7 2.5c-2.6-2.4-7-10.8 1.2-22.2z" fill="#ffffff" stroke-width="none" opacity="1"></path><path id="SvgjsPath27842" d="M142.9 102.3c-1.3 0-2.5-.5-3.7-1.6-2.5-2.2-7.6-11.3 1.1-23.5l.1-.1c.1-.1 2.7-2.5 5.7-3.7 1.5-.6 3.2-.5 4.8.2 1.7.8 3 2.3 3.6 4.1 1.1 3.3-1.3 15.8-5.2 20.5-2.3 2.7-4.2 4.1-6.1 4.2-.1-.1-.2-.1-.3-.1zm-1.1-23.9c-7.8 10.9-3.4 18.8-1.3 20.7.9.8 1.7 1.2 2.5 1.1 1.3-.1 2.8-1.2 4.7-3.5 3.5-4.2 5.7-16.1 4.9-18.5-.4-1.3-1.4-2.4-2.6-2.9-.7-.3-1.9-.6-3.2-.1-2.4 1-4.6 2.9-5 3.2z" fill="#000000" stroke-width="none" opacity="1"></path><path id="SvgjsPath27843" d="M149.8 77.4c-3.3.6-5.4 6.1-6 9.8-.1.1-.1.2-.2.3-.4.6.4 1.2.8.6.5-.8 1-1.6 1.8-1.9 1.4-.5 2.1 1.1 1.8 2.6-.4 1.9-1.6 3-2.6 4.4-.1.1 0 .3.1.2 1.7-1 4.3-4.8 3.1-7.2-.9-1.7-2.3-1.4-3.4-.4.8-2.1 1.4-4.3 3-5.9.5-.5 1.5-1.4 2.2-1.3 1.3.2 1.3 2.1 1.3 3.4.1 1.7-.1 3.4-.4 5 0 .2.2.2.3.1.6-2.4 2-10.4-1.8-9.7z" fill="#000000" stroke-width="none" opacity="1"></path></g></g><g id="svga-group-faceshape-wrap" transform="matrix(0.9799999,0,0,0.9998999000000001,1.9980098679290705,0.008628619694519557)"><g id="svga-group-faceshape-single"><path id="SvgjsPath28033" d="M142.4 53.6c-2.3-11.4-15.1-28.8-42.4-28.8-27.3 0-36.4 13.4-40.5 23.3-2.5 6.2-3.2 15.2-3.4 19.7 0 0 1.5 43.2 3.1 47.1 1.6 3.9 9.4 7.3 15.3 13.5 6.6 6.9 11.3 19.1 13.6 18.7 8.8-1.5 10.7-1.6 20 0 6.4 1.1 9.8-9.7 13.5-14.8 5.3-7.2 15.5-12.2 18.4-16.4 2.9-4.2 3.7-48.2 3.7-48.2.1-3.1-.2-8.8-1.3-14.1z" fill="#ffffff" stroke-width="none" opacity="1"></path><path id="SvgjsPath28034" d="M109.1 148.5c-.4 0-.7 0-1.1-.1-9-1.6-10.8-1.6-19.6 0-1.9.3-3.5-2.4-6.4-7.2-2.2-3.8-5-8.5-8.2-11.8-2.6-2.8-5.7-5-8.4-7-3.5-2.5-6.2-4.5-7.2-6.9-1.7-4-3-43.1-3.2-47.5.2-4.8.9-13.8 3.4-20.1 6.6-16.2 20.1-24 41.5-24 12.3 0 23.2 3.6 31.3 10.4 6.3 5.2 10.9 12.5 12.2 19.3 1.1 5.5 1.3 11.4 1.4 14.4-.1 4.5-.9 44.5-3.9 48.8-1.4 2-4.1 4-7.3 6.4-3.9 2.9-8.3 6.1-11.1 10-.9 1.3-1.9 3-2.9 4.8-2.6 4.9-5.7 10.5-10.5 10.5zM98 145c2.8 0 5.7.4 10.3 1.2 3.9.7 6.8-4.6 9.4-9.3 1-1.9 2-3.6 3-5 3.1-4.2 7.6-7.6 11.6-10.5 3-2.2 5.6-4.2 6.8-5.9 2-2.9 3.2-30.7 3.5-47.6 0-3-.3-8.7-1.4-14-1.3-6.4-5.6-13.1-11.5-18-7.7-6.5-18-9.9-29.9-9.9-20.3 0-33.2 7.4-39.4 22.6-2.4 5.9-3.1 14.6-3.3 19.3.6 17.3 1.9 44 3 46.7.8 1.8 3.4 3.7 6.4 6 2.8 2 5.9 4.3 8.7 7.2 3.4 3.5 6.2 8.4 8.5 12.2 1.5 2.6 3.4 5.7 4.2 6.1 4.6-.7 7.4-1.1 10.1-1.1z" fill="#000000" stroke-width="none" opacity="1"></path></g></g><g id="svga-group-mouth-single-move" transform="matrix(1,0,0,1,0,3)"><g id="svga-group-mouth-single" transform="matrix(1.3500014000000011,0,0,1.3500014000000011,-35.014232501743436,-42.34405441582351)"><path id="SvgjsPath28211" d="M117.11 115.24c-.34-.18-.6-.42-.78-.76-.35-.63-1.32-.07-.97.57.05.09.12.16.18.24-.01 0-.02 0-.03.01a38.04 38.04 0 0 1-7.15 2.53.56.56 0 0 0-.26-.01c-2.35.46-4.66.17-7.03.14-.74-.01-1.58.02-1.84.66-.71-.88-1.89-.76-3.04-.77-2.01-.01-4.03.01-6.04-.01h-.03c-1.84-.45-3.64-1.04-5.41-1.76l-.03-.03c.03-.17 0-.35-.14-.49-.2-.2-.6-.23-.79 0-.3.35-.59.7-.89 1.05-.2.23-.23.57 0 .79.2.2.6.23.79 0 .12-.14.24-.28.35-.42.02.01.03.03.05.04h.01c2.85 2.85 5.63 5.83 8.62 8.54 2.43 2.21 5.3 2.28 8.46 2.17 3.4-.13 5.96-1.38 8.39-3.76 2.48-2.43 4.79-5.09 6.93-7.83.03.01.04.04.07.05.27.14.61.07.77-.2.16-.23.08-.61-.19-.75zm-30.48 2.75c9.03 3.05 18.91 2.7 27.73-.97-1.34 1.61-2.75 3.16-4.18 4.68-6.42 2.51-13.26 2.45-19.73.02-.02-.01-.03.01-.05 0-1.26-1.24-2.51-2.48-3.77-3.73zm22.46 4.84-.06-.12c.09-.03.19-.06.28-.1l-.22.22zm-.5.49c-.07-.13-.15-.27-.22-.4.04-.01.08-.02.12-.04v.02c.06.11.11.23.17.34-.02.03-.04.06-.07.08zm-.89.77c-.19-.27-.38-.55-.57-.82.07-.02.15-.03.22-.05l.39.84c-.02.01-.03.02-.04.03zm-.65.48-1.03-1.03.52-.12c.24.34.47.68.71 1.02-.07.04-.13.08-.2.13zm-.83.54c-.31-.48-.62-.96-.92-1.44l.18-.03c-.01.07.01.15.08.22l1.04 1.04c-.13.07-.26.14-.38.21zm-.72.4c-.3-.57-.61-1.14-.91-1.72.04-.01.08-.01.12-.02v.01l1.02 1.59c-.08.06-.15.11-.23.14zm-.54.24c-.44-.58-.81-1.2-1.13-1.84.06-.01.11-.02.17-.02l.99 1.86c-.02-.01-.03-.01-.03 0zm-.91.34c-.48-.65-.89-1.34-1.25-2.07.14-.01.28-.02.42-.04.34.7.74 1.36 1.21 1.99-.12.04-.25.08-.38.12zm-.68.19c-.57-.73-1.14-1.46-1.7-2.18.18-.01.36-.01.53-.03.35.77.8 1.49 1.29 2.18-.04 0-.08.02-.12.03zm-.83.16c-.44-.58-.82-1.18-1.16-1.82l1.39 1.78c-.08.02-.15.03-.23.04zm-.85.13c-.6-.78-1.14-1.59-1.62-2.45h.44c0 .02-.01.04 0 .07.39.83.88 1.6 1.42 2.35l-.24.03zm-.97.05c-.54-.8-1.01-1.63-1.41-2.51.05 0 .09.01.14.01.01.03-.01.05.01.08.47.84 1 1.64 1.57 2.41-.1 0-.2.01-.31.01zm-.77.02c-.53-.86-1.06-1.72-1.59-2.59.11.01.22.01.33.02v.03c.39.89.86 1.73 1.39 2.54h-.13zm-2.19-.05c-.62-.89-1.18-1.82-1.67-2.8.03.01.07.01.1.02 0 .04.01.09.05.13.66.92 1.4 1.78 2.09 2.68l-.57-.03zm-.97-.12c-.53-.92-1.03-1.86-1.5-2.82.04.01.08.02.11.02v.02c.47.98 1.03 1.9 1.63 2.8-.08 0-.16 0-.24-.02zm-1.71-.55c-.59-.9-1.18-1.81-1.78-2.71.1.03.2.05.3.08.53.9 1.06 1.79 1.59 2.69a1.09 1.09 0 0 0-.11-.06zm-1.74-1.26c-.38-.53-.7-1.1-.97-1.7.05.01.1.03.14.04.01.02 0 .03.01.05l1.38 2.1c-.19-.16-.38-.32-.56-.49zm2.68 1.61c-.55-.93-1.1-1.87-1.65-2.8.07.02.15.03.22.05.45.94.94 1.85 1.45 2.76-.01 0-.02-.01-.02-.01zm2.97.37c.01-.01.01-.02.02-.03-.17-.18-.31-.42-.46-.61-.54-.7-1.1-1.38-1.63-2.08.25.03.51.05.76.08.01.01 0 .02 0 .03.54.87 1.08 1.75 1.61 2.62-.1-.01-.2-.01-.3-.01zm2.11-2.52c.01 0 .01 0 0 0 .01 0 .01 0 0 0 .01 0 0 0 0 0zm-9.81-1.51c.15.05.31.1.46.15-.01.05-.03.09-.01.15.04.1.09.19.13.29l-.09-.09c-.16-.17-.33-.33-.49-.5z" fill="#000000" stroke-width="none" opacity="1"></path></g></g><g id="svga-group-eyes-left-move" transform="matrix(1,0,0,1,1,0)"><g id="svga-group-eyes-left" transform="matrix(0.8999996000000001,0,0,0.8999996000000001,7.900031599999991,8.690034912588487)"><g id="svga-group-eyesback-left"></g><g id="svga-group-eyesiriswrapper-left"><g id="svga-group-eyesiriscontrol-left" transform="matrix(1,0,0,1,0,0)"><g id="svga-group-eyesiris-left"><path id="SvgjsPath27463" d="M83.5 85.1c-1.1-2.1-3.5-2.9-5.7-2.2-2.4.8-4.2 3.3-3.3 5.9.5 1.4 1.6 2.6 3.1 2.9.5.1 1 .1 1.6.1.6.1 1.2 0 1.8-.2 2.6-.9 3.8-4 2.5-6.5z" fill="#ffffff" stroke-width="none" opacity="1"></path><path id="SvgjsPath27464" d="M82.3 85.8c0-.1-.1-.1-.1-.2-.7-1.4-2.3-2-3.8-1.7.5 1.1.9 2.3 1 3.5 0 .2-.3.4-.5.3-.9-.7-1.8-1.6-2.3-2.6-.3.4-.5.8-.7 1.2-.1.3-.1.6-.1.9-.2.9 0 2 .8 2.7.3.3.8.5 1.2.6 1.2.6 2.7.5 3.7-.6.1-.1.1-.2.2-.2.5-.5.8-1.1 1-1.7.2-.9 0-1.6-.4-2.2zm-2.8 6.3h-.4c-.5 0-1.1 0-1.6-.1-1.4-.3-2.7-1.5-3.2-3-.9-2.7 1-5.2 3.4-6.1 2.3-.8 4.8.1 5.9 2.2.6 1.2.7 2.7.2 4-.5 1.3-1.6 2.3-2.9 2.8-.4.1-.9.2-1.4.2zm-.4-.4c.6.1 1.2 0 1.8-.2 1.2-.4 2.2-1.4 2.7-2.6.5-1.2.4-2.6-.2-3.7-1-1.9-3.4-2.8-5.5-2.1-2.3.8-4.1 3.2-3.2 5.7.5 1.4 1.7 2.6 3 2.8.4.1.9.2 1.4.1z" fill="#000000" stroke-width="none" opacity="1"></path></g></g></g><g id="svga-group-eyesfront-left"><path id="SvgjsPath27394" d="M79 72.1c-8.2 0-14.8 6.6-14.8 14.8s6.6 14.8 14.8 14.8 14.8-6.6 14.8-14.8c0-8.1-6.6-14.8-14.8-14.8zM86.6 91c-1 .7-4.1 2.3-8.1 2.2s-11-2.6-11.7-3.5c-.7-1 2-3.2 3.2-4 1.1-.8 4.2-3.3 7.8-3.4 3.6-.1 6.2.8 8.4 2.2 2.2 1.3 3.7 3.7 3.7 3.7s-2.4 2.2-3.3 2.8z" fill="#ffffff" stroke-width="none" opacity="1"></path><path id="SvgjsPath27395" d="M79.4 93.7h.3c5.7-.1 9.7-4.3 9.8-4.5.2-.2.2-.5 0-.7s-.5-.2-.7 0c0 0-3.9 4.1-9.2 4.2-5.3.1-11.5-2.6-12.5-3.4.2-1 4.8-5.5 8.2-6.2 3.4-.7 10.8-.5 14.4 5.8.1.2.4.3.7.2.2-.1.3-.4.2-.7-3.9-6.7-11.8-7-15.4-6.2-3.4.7-8.4 5.1-8.9 6.8-.1.5 0 .8.2.9 1 1 7.4 3.8 12.9 3.8z" fill="#000000" stroke-width="none" opacity="1"></path></g></g></g><g id="svga-group-eyes-right-move" transform="matrix(1,0,0,1,-1,0)"><g id="svga-group-eyes-right" transform="matrix(0.8999996000000001,0,0,0.8999996000000001,12.100048399999991,8.690034912588487)"><g id="svga-group-eyesback-right"></g><g id="svga-group-eyesiriswrapper-right"><g id="svga-group-eyesiriscontrol-right" transform="matrix(1,0,0,1,0,0)"><g id="svga-group-eyesiris-right"><path id="SvgjsPath27465" d="M125.6 85.1c-1.1-2.1-3.5-2.9-5.7-2.2-2.4.8-4.2 3.3-3.3 5.9.5 1.4 1.6 2.6 3.1 2.9.5.1 1 .1 1.6.1.6.1 1.2 0 1.8-.2 2.5-.9 3.7-4 2.5-6.5z" fill="#ffffff" stroke-width="none" opacity="1"></path><path id="SvgjsPath27466" d="M124.4 85.8c0-.1-.1-.1-.1-.2-.7-1.4-2.3-2-3.8-1.7.5 1.1.9 2.3 1 3.5 0 .2-.3.4-.5.3-.9-.7-1.8-1.6-2.3-2.6-.3.4-.5.8-.7 1.2-.1.3-.1.6-.1.9-.2.9 0 2 .8 2.7.3.3.8.5 1.2.6 1.2.6 2.7.5 3.7-.6.1-.1.1-.2.2-.2.5-.5.8-1.1 1-1.7.1-.9 0-1.6-.4-2.2zm-2.8 6.3h-.4c-.5 0-1.1 0-1.6-.1-1.4-.3-2.7-1.5-3.2-3-.9-2.7 1-5.2 3.4-6.1 2.3-.8 4.8.1 5.9 2.2.6 1.2.7 2.7.2 4-.5 1.3-1.6 2.3-2.9 2.8-.4.1-.9.2-1.4.2zm-.4-.4c.6.1 1.2 0 1.8-.2 1.2-.4 2.2-1.4 2.7-2.6.5-1.2.4-2.6-.2-3.7-1-1.9-3.4-2.8-5.5-2.1-2.3.8-4.1 3.2-3.2 5.7.5 1.4 1.7 2.6 3 2.8.3.1.8.2 1.4.1z" fill="#000000" stroke-width="none" opacity="1"></path></g></g></g><g id="svga-group-eyesfront-right"><path id="SvgjsPath27396" d="M121 72.1c-8.2 0-14.8 6.6-14.8 14.8s6.6 14.8 14.8 14.8 14.8-6.6 14.8-14.8c0-8.1-6.6-14.8-14.8-14.8zm-.1 21.1c-3.9.1-7.1-1.5-8.1-2.2s-3.4-2.8-3.4-2.8 1.5-2.4 3.7-3.7c2.2-1.3 4.9-2.2 8.4-2.2 3.6.1 6.6 2.6 7.8 3.4 1.1.8 3.9 3.1 3.2 4-.7 1-7.7 3.4-11.6 3.5z" fill="#ffffff" stroke-width="none" opacity="1"></path><path id="SvgjsPath27399" d="M120 93.7h-.3c-5.7-.1-9.7-4.3-9.8-4.5-.2-.2-.2-.5 0-.7s.5-.2.7 0c0 0 3.9 4.1 9.2 4.2 5.3.1 11.5-2.6 12.5-3.4-.2-1-4.8-5.5-8.2-6.2-3.4-.7-10.8-.5-14.4 5.8-.1.2-.4.3-.7.2-.2-.1-.3-.4-.2-.7 3.9-6.7 11.8-7 15.4-6.2 3.4.7 8.4 5.1 8.9 6.8.1.5 0 .8-.2.9-1 1-7.4 3.8-12.9 3.8z" fill="#000000" stroke-width="none" opacity="1"></path></g></g></g><g id="svga-group-facehighlight-single"></g><g id="svga-group-eyebrows-left-move" transform="matrix(1,0,0,1,0,0)"><g id="svga-group-eyebrows-left-rotate" transform="matrix(1,1.7453292519943295e-9,-1.7453292519943295e-9,1,1.271386906864791e-7,-1.352019296518847e-7)"><g id="svga-group-eyebrows-left"><path id="SvgjsPath27309" d="M71.56 71.57c4.09-.17 10.75 3.28 13.7 4.98 2.94 1.7 6.34 1.7 5.89-1.02s-11.66-6.91-15.17-7.47c-3.51-.57-6.79 1.13-12.23 6.79 0 0 5.09-3.17 7.81-3.28z" fill="#ffffff" stroke-width="none" opacity="1"></path><path id="SvgjsPath27310" d="M63.35 75.18c.16.2.45.25.67.11.05-.03 5.01-3.1 7.56-3.21 3.37-.13 9.14 2.45 13.42 4.92 1.41.81 2.85 1.24 4.03 1.24.72 0 1.34-.16 1.8-.48.69-.48.98-1.3.82-2.31-.53-3.17-12.15-7.34-15.59-7.89-3.79-.61-7.23 1.27-12.68 6.94-.18.19-.19.48-.03.68zm7.74-4.08c-.56.02-1.8.07-2.68.11.59-.47 1.16-.88 1.7-1.22l2.22 1.08c-.27-.02-.54-.02-.8-.01-.13.01-.28.02-.44.04zm3.44.3a.24.24 0 0 0-.08-.06l-3.62-1.76c.47-.26.93-.46 1.38-.63l3.17 2.66c-.28-.08-.57-.14-.85-.21zm2.55.75-4.11-3.45c.58-.15 1.15-.22 1.72-.23l4.06 4.3c-.55-.21-1.11-.42-1.67-.62zm.16-3.29c0 .01 0 .01.01.02 1.26 1.57 2.93 3.66 4 5-.3-.14-.61-.28-.92-.42l-4.61-4.89c.06.01.12.01.18.01.38.05.84.15 1.34.28zm5.43 5.71c-.69-.88-3.1-3.88-4.32-5.41.62.18 1.28.4 1.96.64l3.66 5.45c-.39-.21-.83-.44-1.3-.68zm2.61 1.41L81.4 70.2c.57.21 1.15.44 1.73.68.01.01 0 .03.01.04l3.36 5.68c-.33-.14-.66-.3-.99-.49-.07-.04-.15-.09-.23-.13zm2.23.98-3.34-5.64c.63.28 1.25.56 1.83.85v.01l2.49 4.99c-.3-.05-.63-.11-.98-.21zm1.77.23-2.25-4.5c.62.33 1.19.66 1.69.98l1.05 3.45c-.16.04-.32.06-.49.07zm1.1-.38-.75-2.47c.58.47.94.91 1.01 1.28.11.69-.09 1.03-.26 1.19zm-23.63-4.18c.27-.25.53-.47.79-.69.22-.01.52-.02.84-.04-.56.22-1.11.47-1.63.73z" fill="#000000" stroke-width="none" opacity="1"></path></g></g></g><g id="svga-group-eyebrows-right-move" transform="matrix(1,0,0,1,0,0)"><g id="svga-group-eyebrows-right-rotate" transform="matrix(1,1.7453292519943295e-9,-1.7453292519943295e-9,1,1.271386906864791e-7,-2.138603178991616e-7)"><g id="svga-group-eyebrows-right"><path id="SvgjsPath27311" d="M128.44 71.57c-4.09-.17-10.75 3.28-13.7 4.98-2.94 1.7-6.34 1.7-5.89-1.02s11.66-6.91 15.17-7.47c3.51-.57 6.79 1.13 12.23 6.79 0 0-5.09-3.17-7.81-3.28z" fill="#ffffff" stroke-width="none" opacity="1"></path><path id="SvgjsPath27312" d="M136.62 74.5c-5.45-5.67-8.88-7.55-12.68-6.94-3.44.55-15.06 4.72-15.59 7.89-.17 1.01.12 1.83.82 2.31.46.32 1.08.48 1.8.48 1.18 0 2.62-.43 4.03-1.24 4.28-2.47 10.05-5.05 13.42-4.91 2.55.11 7.51 3.17 7.56 3.21.22.14.51.09.67-.11a.53.53 0 0 0-.03-.69zm-8.16-3.44c-.26-.01-.52 0-.8.01l2.22-1.08c.54.34 1.11.76 1.7 1.22-.88-.04-2.12-.09-2.68-.11-.15-.02-.3-.03-.44-.04zm-3.84.55 3.17-2.66c.45.16.91.37 1.38.63l-3.62 1.76c-.03.02-.06.04-.08.06-.28.07-.57.13-.85.21zm-3.37 1.17 4.06-4.3c.57 0 1.14.08 1.72.23l-4.11 3.45c-.56.19-1.12.4-1.67.62zm2.86-4.21c.06-.01.12-.01.18-.01l-4.61 4.89c-.31.14-.62.28-.92.42 1.07-1.34 2.74-3.43 4-5 0-.01 0-.01.01-.02.49-.12.95-.22 1.34-.28zm-8.08 6.68 3.66-5.45c.69-.24 1.35-.45 1.96-.64-1.22 1.52-3.63 4.53-4.32 5.41-.47.24-.91.47-1.3.68zm-1.54.86c-.33.19-.66.34-.99.49l3.36-5.68c.01-.01 0-.02.01-.04.58-.24 1.16-.47 1.73-.68l-3.88 5.78c-.08.04-.16.09-.23.13zm-2.99 1.05 2.49-4.99v-.01c.59-.29 1.2-.57 1.83-.85l-3.34 5.64c-.34.11-.67.17-.98.21zm-1.26-.04 1.05-3.45c.49-.32 1.07-.65 1.69-.98l-2.25 4.5c-.18-.01-.34-.03-.49-.07zm-.88-1.5c.06-.38.43-.81 1.01-1.28l-.75 2.47c-.17-.16-.37-.5-.26-1.19zm22.26-3.72c.33.01.62.03.84.04.26.22.52.44.79.69-.52-.26-1.07-.51-1.63-.73z" fill="#000000" stroke-width="none" opacity="1"></path></g></g></g><g id="svga-group-beardwrap" transform="matrix(0.9799999,0,0,0.9998999000000001,0,0)"><g id="svga-group-beard-single-move" transform="matrix(1,0,0,1,0,0)"><g id="svga-group-beard-single" transform="matrix(0.8499994000000002,0,0,0.8499994000000002,0,0)"></g></g></g><g id="svga-group-mustache-single-move" transform="matrix(1,0,0,1,0,1)"><g id="svga-group-mustache-single" transform="matrix(0.9499998000000001,0,0,0.9499998000000001,4.986669841313926,5.653204070245351)"><path id="SvgjsPath27589" d="M98.1 114.1c-.2.3-.4.5-.7.8-.1.1 0 .4.2.3.3-.2.6-.5.8-.9-.1-.2-.2-.3-.3-.2zm-1.7.6c-.3.2-.6.5-.9.7-.2.1.1.4.2.3.3-.2.7-.4.9-.8.1-.1-.1-.3-.2-.2zm-1.2.1c-.3.2-.6.5-.9.7-.2.1-.1.3.1.3.4-.2.8-.3 1-.7.1-.3-.1-.4-.2-.3zm-1.6-.2c-.4.1-.7.4-1 .5-.2.1-.1.3.1.2.4-.1.8-.2 1.1-.6 0 0-.1-.2-.2-.1zm-1.6-.3c-.3.1-.6.3-.9.6-.1.1 0 .3.1.2.3-.2.7-.3.9-.5.1-.1 0-.3-.1-.3zm-1.8 0c-.2.1-.5.3-.7.4-.1.1 0 .3.1.2.3-.1.6-.2.8-.4.1-.1-.1-.2-.2-.2zm-1-.2c-.3.1-.7.4-.9.6-.1.1 0 .3.2.2.3-.2.7-.3.9-.6 0 0-.1-.3-.2-.2zm-1.6 0-.6.3c-.1.1-.1.3 0 .3.3 0 .6-.1.8-.4 0-.1-.1-.2-.2-.2zm-1.2-.2c-.3.1-.7.2-1 .4-.2.1-.2.3.1.3.4 0 .8-.1 1.1-.5.1 0 0-.2-.2-.2zm-1.6-.3c-.2.1-.5.2-.8.3-.2 0-.2.4.1.3.4 0 .7-.2.9-.5.1 0-.1-.2-.2-.1zm-1.4.1c-.3.1-.6.3-1 .3-.2 0-.1.3 0 .3.4 0 .8-.1 1.1-.5.1-.1 0-.2-.1-.1zm-1-.3c-.3.1-.7.3-1 .3-.2 0-.2.4.1.4.4 0 .8-.1 1.1-.4 0-.1-.1-.3-.2-.3zm-1.8.3c-.2 0-.5.1-.7.2-.2 0-.1.3 0 .3.3 0 .6-.1.8-.2.1-.1 0-.3-.1-.3zm-.4-.3c-.5.1-1 .2-1.5.4-.2.1-.1.3.1.3.5-.1 1-.2 1.5-.4 0-.1 0-.3-.1-.3zm5.3.4c.3 0 .5-.1.8-.2.2-.1.1-.3-.1-.3-.2.1-.5.2-.7.2-.3 0-.2.4 0 .3zm2.5-.6c-.2.1-.4.2-.7.4-.2.1 0 .4.2.3.2-.1.4-.2.6-.4.1-.2 0-.4-.1-.3zm.3.8c.2-.1.4-.2.7-.3.1 0 0-.2 0-.2-.3 0-.5.1-.7.2-.2.2-.1.4 0 .3zm2.1-.5c-.2.1-.3.1-.5.2s0 .4.2.3c.2-.1.3-.2.5-.3 0-.1-.1-.3-.2-.2zm1.3.4c0-.1 0-.2-.1-.2-.3.1-.5.2-.8.4-.2.1-.1.4.1.3.4-.1.7-.2.8-.5zm1.2.6c.3-.1.6-.3.8-.5.1-.1 0-.2-.1-.2-.3.1-.6.2-.9.4-.2.1 0 .4.2.3zm2-.2c.1-.1 0-.3-.2-.3-.3.1-.5.2-.7.3-.2.1 0 .4.2.3.3 0 .5-.1.7-.3zm1.6-.5-.9.6c-.2.1.1.4.2.3.3-.2.6-.4.8-.7.1-.1 0-.3-.1-.2zm.7.6c.2-.1.4-.3.6-.5.2-.2-.1-.4-.3-.3-.2.2-.4.3-.5.6 0 .1.1.2.2.2zm-.2.9c-.1.1-.1.2-.1.3s.2.3.3.2c.1-.1.1-.2.2-.3 0-.2-.3-.4-.4-.2zm2.9-.7c-.1.4 0 .7.2.9.1.1.2 0 .2-.1 0-.3-.1-.5-.1-.8 0-.2-.3-.2-.3 0zm1-.3c.1.3.2.7.4 1 .1.1.3.1.3-.1 0-.3-.2-.7-.3-1 0-.3-.5-.2-.4.1zm.1.8c-.1-.1-.3 0-.2.1.1.3.3.5.6.6.1 0 .2-.2.1-.2-.3-.2-.5-.3-.5-.5zm1.3-.9c-.1-.2-.4 0-.3.2.2.4.6.8 1.1.8.2 0 .2-.2.1-.3-.4-.2-.7-.3-.9-.7zm1.5-.9c-.2-.2-.5.1-.3.3.3.3.7.6 1.1.7.2 0 .2-.2.1-.3-.3-.3-.6-.4-.9-.7zm-.5 1.1c-.2-.1-.4.2-.2.3.4.3.8.6 1.3.5.1 0 .1-.2 0-.3-.3-.2-.8-.3-1.1-.5zm3.2.1c-.4-.1-.8-.2-1.2-.4-.2-.1-.4.2-.2.3.4.3.8.5 1.3.4.3 0 .3-.3.1-.3zm.5-.9c-.2-.1-.3.2-.2.3.4.3.8.5 1.3.5.1 0 .2-.2.1-.3-.4-.1-.9-.3-1.2-.5zm1.8-.4c-.2-.2-.4.1-.3.3.3.4.7.7 1.2.6.1 0 .2-.2 0-.3-.3-.2-.6-.3-.9-.6zm2.2.2c-.2-.3-.5-.4-.9-.4-.2-.1-.3.3-.1.4l.9.3c.1-.1.2-.2.1-.3zm.7-1c-.2-.1-.4.1-.2.2.2.2.5.4.8.4.2 0 .2-.2.1-.3-.3 0-.5-.1-.7-.3zm1.9.3c.1 0 .1-.2 0-.3-.2-.1-.5-.2-.7-.3-.2-.2-.4.1-.2.2.2.3.5.4.9.4zm1.8-.8c-.4 0-.7-.1-1-.3-.2-.1-.4.2-.2.3.4.3.8.4 1.2.3.2-.1.1-.3 0-.3zm-8.2 2.5c-.1-.2-.4 0-.3.2.2.3.5.6.9.6.2 0 .2-.2.1-.3-.3-.2-.6-.3-.7-.5zm1.5-.3c-.1-.1-.3.1-.2.2.2.2.5.4.8.5.1 0 .2-.1.1-.2-.3-.1-.5-.3-.7-.5zm2.6-.1c-.3-.1-.6-.1-.9-.2-.3 0-.2.4 0 .4.3 0 .6.1.9.1.1 0 .1-.2 0-.3zm1-.5c-.3 0-.5 0-.8-.2-.2-.1-.4.2-.2.3.3.2.7.2 1 .1.2 0 .1-.2 0-.2zm1.8-1.1c-.2 0-.2.3 0 .3s.4 0 .7-.1c.1 0 .1-.2 0-.2h-.7zm2.1-1.1c-.2-.2-.4.1-.3.3.3.3.6.5 1.1.3.1 0 .1-.2 0-.2-.3-.1-.6-.1-.8-.4zm1.9-.5c-.3-.1-.4.3-.1.4.3.1.5.1.8.2.2 0 .3-.3.1-.3-.3-.2-.5-.2-.8-.3zm1.6-.4c-.3-.1-.4.3-.1.4.2 0 .4.1.6 0 .1 0 .1-.2 0-.2-.2-.1-.3-.1-.5-.2zm-2.8.8c-.2-.1-.3.3-.1.3h.3c.1 0 .2-.1.1-.2-.1 0-.1 0-.3-.1zm4.6-.9c-.2 0-.4 0-.7.1-.2 0-.1.3.1.2.2 0 .4-.1.6-.1.1-.1.1-.2 0-.2zm-42.2 2.5c-.4.1-.8.2-1.2.1-.2-.1-.3.3-.1.4.5.2 1 .1 1.4-.2.2-.1 0-.3-.1-.3zm25.7 2c-.2 0-.2.4 0 .4h.6c.2 0 .2-.2.1-.3-.2-.1-.4-.1-.7-.1zm-9.2-.8c.2-.1.3-.2.5-.3.1-.1.1-.3-.1-.2-.2.1-.3.2-.5.2-.3.1-.1.4.1.3zm18-1c-.3-.1-.5-.1-.8-.2-.2-.1-.3.2-.1.3.3.2.6.3.9.2.2.1.2-.2 0-.3zm4.6-1.4c-.2 0-.4 0-.6-.2-.2-.1-.3.2-.2.3.2.2.5.2.7.1.3 0 .2-.2.1-.2zm-3 .8c-.2 0-.3.3-.1.3.3.1.5.2.8.2.1 0 .2-.2.1-.3-.2-.1-.5-.1-.8-.2z" fill="#000000" stroke-width="none" opacity="1"></path></g></g><g id="svga-group-nose-single-move" transform="matrix(1,0,0,1,0,0)"><g id="svga-group-nose-single"><path id="SvgjsPath28165" d="M107.56 107.36c.81-.3 1.49-2.07 1.08-3.48-.41-1.41-3.64-4.3-7.2-4.88-3.56-.58-10.1 0-11.84 3.15-1.74 3.15-.33 5.38 1.08 5.38s4.47-1.16 4.47-1.16 2.15 1.74 3.56 1.74 4.72-1.66 4.72-1.66 2.31 1.57 4.13.91z" fill="#ffffff" stroke-width="none" opacity="1"></path><path id="SvgjsPath28166" d="M107.91 105.78c-.8-.68-2.14-.72-3.09-.49-2.6.6-4.35 2.98-7.21 1.73-1.73-.76-3.19-2.15-5.16-2.3-.92-.07-2.33.14-2.9.97-.52.75-.06 1.53.68 1.91 1.31.67 3.15-.13 4.41-.74 1.35.73 2.59 1.71 4.16 1.92 1.54.21 2.86-.48 4.17-1.19.24-.13.47-.25.7-.37 1.15.55 3.04 1.28 4.18.46.71-.51.7-1.35.06-1.9zm-17.14.61c.31-.46 1.31-.38 2-.23-.11.03-.22.07-.33.1-.19.05-1.64.09-1.67.13z" fill="#000000" stroke-width="none" opacity="1"></path><path id="SvgjsPath28167" d="M95.63 96.37c-.15-7.79.12-15.57.8-23.33.08-.87-1.28-.86-1.36 0-.68 7.76-.95 15.54-.8 23.33.02.87 1.38.88 1.36 0z" fill="#000000" stroke-width="none" opacity="1"></path></g></g><g id="svga-group-hair-front" transform="matrix(0.9799999,0,0,0.9998999000000001,1.9869417736484536,0.0046146099188533185)"><path id="SvgjsPath28293" d="M58.6 88.3S56.3 75.5 54 71.7c-2.3-3.9-1.5-13.2-.4-19.1s4.1-14.5 7.7-18 26.7-16.8 30-21.1 5.6-8.7 5.6-8.7l1 8.5 3.7-8.9 2.9 11.4 2.1-9.5s4.4 9.5 7.5 12.2 16.4 9.5 20.3 13.3c3.9 3.9 8.9 12.6 9.9 17.4s2.5 19.3 2.1 22c0 0-3.9 12.4-4.6 16.1 0 0-1.2-17-2.1-23.2-1-6.2-4.3-15.7-8.9-19.1-4.6-3.5-14.1-3.5-19-1.2-4.8 2.3-15.7 1.9-21.9.2-6.2-1.7-13-3.9-18-2.1-5 1.7-9.3 9.1-10.4 15.1S58 79.6 58.6 88.3z" fill="#ffffff" stroke-width="none" opacity="1"></path><path id="SvgjsPath28294" d="M145.2 49c-1-4.9-6-13.8-10.1-17.9-2.3-2.3-7.7-5.5-12.5-8.4-3.4-2-6.6-3.9-7.9-5-2.9-2.5-7.3-11.8-7.3-11.9-.2-.4-.6-.6-1-.6s-.8.4-.9.8l-1.2 5.4-1.9-7.4c-.1-.4-.5-.7-.9-.8-.4 0-.8.2-1 .6l-2.2 5.3-.5-4.7c0-.4-.4-.8-.8-.9-.4-.1-.9.1-1.1.5 0 0-2.3 4.4-5.5 8.6-1.8 2.3-10.7 8.1-17.8 12.7-5.6 3.6-10.5 6.8-12.1 8.3-3.7 3.5-6.8 12.1-8 18.5-1.3 6.6-1.9 15.8.5 19.8 2.2 3.7 4.5 16.2 4.5 16.3.1.5.5.8 1 .8h.1c.5-.1.9-.5.9-1.1-.6-8.4 1.6-24.6 2.9-31.1 1.1-5.6 5.1-12.7 9.8-14.3 4.4-1.5 10.4.2 16.2 1.8l1.2.3c6.6 1.8 17.6 2.1 22.6-.3 4.6-2.2 13.6-2.2 17.9 1.1 4.1 3.1 7.5 11.8 8.5 18.5.9 6.1 2.1 23 2.1 23.1 0 .5.4.9.9.9s.9-.3 1-.8c.8-3.6 4.6-15.8 4.6-16v-.2c.6-2.4-1-17-2-21.9zm-49.9-5c-7.7-5.4-8.4-14.8-3.1-22.3 1.8-2.6 3.9-4.9 5.6-7.5.4 0 .7-.2.9-.6l1.8-4.3c-.3 6.2-1.9 12.2-2 18.4-.1 5.7.9 11.3 2.6 16.7-1.9 0-3.9-.1-5.8-.4zM57.7 79.5c-.8-3.3-1.9-6.6-2.9-8.4-1.9-3.2-1.6-11.3-.4-17.8.2 1.5.6 2.9 1.1 4.3.7 1.9 1.9 4.8 3.9 6-.7 4.8-1.4 10.6-1.7 15.9zm13.9-38.6c-.3.1-.5.2-.8.3-1.2-2-.2-5.5.7-7.4 1-2.2 2.7-4 4.7-5.4.7-.4 0-1.5-.6-1.1-2.6 1.7-4.6 4.1-5.7 7.1-.8 2.1-1.4 5.2-.2 7.3-3.8 2.4-7 7.5-8.6 12.4-2.5-4.4-1.3-11.4 1.1-15.4.4-.7-.7-1.3-1.1-.6-2.9 4.8-4.1 12.9-.4 17.6-.1.3-.2.6-.2 1-.3 1.4-.6 3.4-.9 5.6-2-1.6-3.3-6-3.7-7.7-.5-2.1-.6-4.2-.4-6.2 1.5-5.3 3.9-10.8 6.4-13.2 1.5-1.4 6.5-4.6 11.8-8.1C81.7 22 90 16.6 92 14c1.7-2.2 3.2-4.5 4.2-6.2l.5 4.2c-7 8.1-19.8 18.9-12.8 29.3-4.4-1.1-8.7-1.6-12.3-.4zM89 42.7c-1-.3-2.1-.6-3.2-.9C77.7 32.3 89.1 22 96.4 14c-3.4 5-8.2 9.3-9 15.6-.7 5.5 1.5 10.5 5.4 14-1-.2-1.9-.4-2.7-.6l-1.1-.3zM137.4 53c.6-8.2-2.5-15.7-7.3-22.3-.5-.6-1.6 0-1.1.6 4.2 5.7 7 12.1 7.1 19.1-1.4-2.6-3-4.9-4.9-6.3-2.7-2.1-7-3-11.1-3-2.4 0-4.8.3-6.8.9 1.1-2.3 1.4-4.6.3-7.3-.8-2.2-2.3-4.1-3.5-6.1-2.1-3.7-3.1-7.5-3.3-11.7 0-.8-1.3-.8-1.3 0 .1 3.5.7 6.9 2.2 10.2 2.5 5.4 7.3 9.5 3.6 15.6-.1 0-.2.1-.3.1-2 1-5.3 1.4-8.9 1.5-2-6-2.9-12.1-2.6-18.4.3-5.5 1.6-10.9 1.9-16.4L103 16c.1.4.5.8 1 .8s.9-.3 1-.8l1.5-6.7c.8 1.5 1.8 3.4 2.9 5.2 0 .1 0 .3.1.5 2.2 3.2 4.4 6.3 6.6 9.5s8 9.1 4.6 12.9c-.5.6.3 1.5.9.9 2.2-2.5 1.6-5.2 0-8-1.8-3.2-4-6.3-6.3-9.4 1.6 1 3.6 2.2 5.9 3.6 4.7 2.8 10 5.9 12.1 8 3.8 3.8 8.7 12.4 9.6 16.9 0 .1 0 .2.1.3v.3c1.1 7.1.5 14.1-1.9 20.9-.3-2.7-.5-5.2-.8-6.9-.2-3.1-1.3-7.2-2.9-11zm8 18c-.2.8-1.8 5.8-3.1 10.3-.2-2.3-.4-5-.6-7.7 1.7-4 2.7-8.1 3.2-12.3.4 4.4.6 8.4.5 9.7z" fill="#000000" stroke-width="none" opacity="1"></path></g><g id="svga-group-glasses-single-move" transform="matrix(1,0,0,1,0,0)"><g id="svga-group-glasses-single"><path id="SvgjsPath27533" d="M64.69 80.01c-1.48 2.34-1.4 7.29.61 13.66 2 6.37 6.92 8.01 9.47 8.2s9.53.06 13.6-2.67 6.07-6.98 6.92-12.57-4.61-7.71-6.07-8.14c-1.46-.42-8.2-1.58-12.81-1.64-4.62-.05-9.96.37-11.72 3.16z" fill="url(#SvgjsLinearGradient27534)" opacity="1"></path><path id="SvgjsPath27538" d="M134.82 80.01c1.48 2.34 1.4 7.29-.61 13.66-2 6.37-6.92 8.01-9.47 8.2s-9.53.06-13.6-2.67-6.07-6.98-6.92-12.57 4.61-7.71 6.07-8.14c1.46-.42 8.2-1.58 12.81-1.64 4.61-.05 9.95.37 11.72 3.16z" fill="url(#SvgjsLinearGradient27539)" opacity="1"></path><path id="SvgjsPath27543" d="M139.79 77.28c-.46-.31-1.92 0-4.62-.69-2.69-.69-10.93-1.46-15.39-.85s-11.39 2.15-13.93 2.69c-2.54.54-5.62.73-5.62.73h-.97s-3.08-.19-5.62-.73-9.46-2.08-13.93-2.69-12.7.15-15.39.85c-2.69.69-4.16.38-4.62.69-.46.31-.85 5.62.15 6.16s1.62 1.31 2.23 4.39 2.08 8 3.39 9.62c1.31 1.62 2.92 4.31 9.85 5.31s13-1.43 16.69-5.28c3.69-3.85 4.27-7.76 5.12-11.52.62-2.76 2.12-2.97 2.12-2.97h.97s1.49.21 2.12 2.97c.85 3.76 1.43 7.67 5.12 11.52 3.69 3.85 9.77 6.28 16.69 5.28 6.93-1 8.54-3.69 9.85-5.31 1.31-1.62 2.77-6.54 3.39-9.62s1.23-3.85 2.23-4.39c1.02-.54.63-5.85.17-6.16zM93.3 91.23c-2.31 5.83-6.16 7.92-9.13 8.91-2.97.99-8.58.77-10.78.33-2.2-.44-5.17-1.32-7.15-6.16s-2.31-12.1.44-14.51c2.75-2.42 10.01-1.76 14.29-1.54 0 0 4.87.37 8.72 1.58 3.87 1.2 5.92 5.56 3.61 11.39zm39.95 3.07c-1.98 4.84-4.95 5.72-7.15 6.16-2.2.44-7.81.66-10.78-.33-2.97-.99-6.82-3.08-9.13-8.91-2.31-5.83-.26-10.19 3.59-11.4 3.85-1.21 8.72-1.58 8.72-1.58 4.29-.22 11.55-.88 14.29 1.54 2.77 2.43 2.44 9.69.46 14.52z" fill="#ffffff" stroke-width="none" opacity="1"></path><path id="SvgjsPath27544" d="M140.07 76.87c-.31-.2-.73-.23-1.38-.27-.75-.04-1.88-.11-3.4-.5-2.61-.67-10.98-1.49-15.58-.86-3.91.54-9.69 1.78-12.8 2.45l-1.17.25c-2.47.52-5.52.72-5.51.72h-.94c-.03 0-3.07-.2-5.54-.72l-1.17-.25c-3.1-.67-8.88-1.91-12.79-2.45-4.6-.64-12.98.19-15.58.86-1.52.39-2.65.45-3.4.5-.64.04-1.07.06-1.38.27-.8.53-.68 4.38-.68 4.42.09 1.95.54 2.41.88 2.59.77.41 1.36.94 1.98 4.04.61 3.05 2.09 8.12 3.49 9.83l.3.37c1.3 1.66 3.27 4.16 9.87 5.12 1.06.15 2.12.23 3.16.23 5.4 0 10.47-2.01 13.96-5.66 3.46-3.6 4.25-7.23 5.02-10.74l.22-1.01c.53-2.33 1.66-2.58 1.63-2.58l.89-.01c.05.01 1.18.25 1.71 2.58l.22 1.01c.77 3.51 1.56 7.14 5.02 10.74 4.17 4.35 10.57 6.37 17.12 5.43 6.61-.95 8.57-3.46 9.87-5.12l.3-.37c1.39-1.72 2.88-6.79 3.49-9.83.62-3.1 1.21-3.63 1.98-4.04.33-.18.78-.64.88-2.59.01-.03.13-3.88-.67-4.41zm-1.01 6.34c-1.42-1.34-3.04-2.5-4.54-3.77-1.21-1.02-2.4-2.05-3.65-3.02.43.05.85.1 1.25.15 2.37 2.05 4.95 4.01 7.53 5.76-.06.33-.14.58-.25.67-.12.06-.23.13-.34.21zm-.84.79c-1.57-1.38-3.15-2.85-4.77-4.26-.1-.11-.2-.23-.32-.33a4.81 4.81 0 0 0-.56-.42c-1.16-.98-2.34-1.91-3.56-2.75.43.04.85.07 1.26.11 1.45 1.33 3.02 2.53 4.53 3.78 1.32 1.09 2.57 2.28 3.94 3.3-.17.16-.35.35-.52.57zm-1.61 5.12c-.14-.15-.3-.28-.45-.42-.3-.28-.61-.55-.93-.81.02-.25.04-.51.05-.76.38.61.84 1.22 1.39 1.69-.01.1-.04.2-.06.3zm-.76 2.81c-.34-.34-.71-.67-1.05-1.01l.12-.57c.35.37.69.77 1.08 1.11-.06.16-.11.32-.15.47zm-.24.75c-.31-.32-.66-.61-1.03-.87.04-.14.08-.29.11-.43.3.38.63.75 1 1.03-.02.09-.05.18-.08.27zm-.41 1.21c-.26-.36-.6-.67-.93-.97.07-.24.15-.48.21-.73.3.32.64.63 1 .87-.09.29-.19.56-.28.83zm-.33.86c-.14-.11-.28-.22-.41-.34-.18-.16-.35-.33-.52-.5.07-.18.13-.35.19-.54.28.3.57.61.9.84.01.01.03 0 .04.01-.07.18-.13.36-.2.53zm-1.42 2.6c-.28-.22-.6-.4-.94-.55.1-.15.2-.3.29-.46.28.24.57.49.88.72-.02.02-.04.05-.05.07l-.18.22zm-.61.77c-.26-.21-.57-.38-.88-.53.1-.13.2-.26.3-.4.31.18.64.34.98.44-.13.16-.26.33-.4.49zm-.8.87c-.3-.17-.65-.3-.99-.39.21-.2.42-.42.63-.66.29.19.58.38.89.51-.16.17-.34.35-.53.54zm-2.57 1.77c-.23-.22-.5-.4-.78-.55.09-.04.18-.09.28-.13.31.2.65.37 1 .44-.16.08-.33.16-.5.24zm-1.64.65a6.12 6.12 0 0 0-1.03-.59c.13-.03.27-.06.41-.1.35.23.73.44 1.11.52-.16.06-.32.12-.49.17zm-1.4.4c-.28-.14-.6-.25-.87-.39-.16-.09-.32-.19-.47-.3.39-.05.75-.1 1.04-.16.37.25.77.48 1.19.61-.28.09-.58.17-.89.24zm-1.16.25c-.3-.14-.62-.25-.94-.36l-1.17-.42c.43-.02.84-.05 1.23-.09.3.23.64.43.95.61.1.06.21.12.32.18-.13.03-.25.06-.39.08zm-3.78.29c-.67-.42-1.4-.75-2.14-1.07.31.02.62.03.94.04.75.39 1.55.8 2.37 1.09-.37.03-.73.05-1.1.06a.13.13 0 0 0-.07-.12zm-6-2.69c-4.19-1.4-7.08-4.22-8.82-8.62-1.15-2.89-1.24-5.62-.26-7.68.71-1.5 1.94-2.56 3.54-3.06 3.75-1.18 8.56-1.55 8.6-1.55l1.2-.07c1.47-.08 3.2-.18 4.93-.18 3.15 0 6.29.33 7.81 1.66 2.53 2.23 2.25 9.2.31 13.95-.39.95-.82 1.74-1.27 2.4-.02.02-.03.03-.04.05-1.88 2.69-4.13 3.14-5.47 3.41-2.05.41-7.6.67-10.53-.31zm-10.07-5.76c.58.51 1.22.97 1.82 1.43.51.4 1.03.8 1.57 1.16.18.2.35.4.53.58-.95-.51-1.9-1.01-2.82-1.5-.42-.56-.78-1.11-1.1-1.67zm-.77-1.58c.75.54 1.5 1.08 2.29 1.55.26.46.54.89.83 1.3-.09-.06-.17-.13-.26-.19-.82-.62-1.62-1.34-2.5-1.88-.13-.26-.25-.52-.36-.78zm-5.43-9.83c-1.23-1.19-2.66-2.26-4.05-3.27.51.08 1.01.15 1.47.2 1.07 1.08 2.21 2.09 3.38 3.07h-.8zm-.84-2.89c2.06 1.78 4.22 3.67 6.54 5.11-.06.3-.1.61-.13.92-2.64-1.94-5.1-4.05-7.6-6.15.45.06.86.09 1.19.12zm3.57-.08c.56.55 1.15 1.06 1.76 1.55.62.49 1.3 1.09 2.05 1.39-.09.16-.18.31-.26.48-.03.06-.05.12-.07.19-1.48-1.23-3.07-2.39-4.66-3.49.29-.03.7-.07 1.18-.12zm1.51-.17c.48.41.95.81 1.43 1.21.45.37.89.8 1.39 1.12-.12.16-.24.33-.34.5-.62-.62-1.47-1.08-2.15-1.62-.44-.35-.87-.72-1.3-1.09.3-.04.63-.08.97-.12zm1.38-.21c.39.36.79.7 1.19 1.04.29.25.59.53.91.77-.15.14-.29.29-.43.45-.43-.44-.97-.81-1.45-1.19-.39-.31-.78-.61-1.17-.91.32-.06.64-.11.95-.16zm1.12-.21.29-.06c.2.24.42.47.66.68.27.24.57.5.89.69-.17.12-.34.25-.5.38-.34-.33-.78-.61-1.13-.89-.29-.23-.6-.45-.89-.67.23-.04.45-.08.68-.13zm-2.89 7.94-.2-.88c.22.17.43.33.64.5.4.33.82.75 1.28 1.04.03.37.08.75.16 1.14-.56-.61-1.21-1.15-1.85-1.68l-.03-.12zm1.69-.71c-.01.23-.02.47-.02.71-.3-.24-.62-.47-.91-.7-.37-.3-.75-.66-1.16-.94-.1-.34-.22-.63-.35-.89.81.62 1.62 1.23 2.44 1.82zm.27 2.97c.03.13.07.27.11.41-.56-.43-1.16-.81-1.74-1.2l-.15-.64c.57.52 1.14 1.03 1.78 1.43zm.28 1.07c.12.4.26.8.42 1.21-.62-.56-1.3-1.08-1.95-1.58-.09-.32-.17-.64-.25-.95.57.46 1.16.94 1.78 1.32zm.84 2.14c.12.27.24.55.37.81-.7-.5-1.42-.98-2.13-1.46-.15-.39-.28-.78-.41-1.17.69.65 1.41 1.29 2.17 1.82zm3.03-14.1c.3.34.62.69.98.96l-.52.15c-.05.02-.1.04-.16.06-.21-.17-.45-.31-.66-.45-.24-.17-.49-.32-.74-.48.35-.08.72-.16 1.1-.24zm1.18-.25c.23.26.51.48.78.68.09.07.18.13.27.19-.29.07-.57.14-.85.22-.23-.35-.55-.66-.89-.95.23-.04.46-.09.69-.14zm1.44-.3c.36.29.74.6 1.15.83-.32.06-.63.13-.95.2-.17-.1-.35-.2-.51-.31-.23-.16-.45-.34-.67-.52.32-.06.65-.13.98-.2zm1.26-.25c.39.32.82.61 1.27.84-.25.04-.51.09-.77.13-.34-.33-.77-.6-1.21-.83.24-.05.47-.1.71-.14zm1.66-.33c.22.12.45.24.67.36.32.18.65.36.99.5-.4.05-.84.11-1.31.18-.35-.21-.74-.38-1.09-.58-.14-.08-.27-.16-.41-.24.38-.07.77-.14 1.15-.22zm1.46-.27c.46.37.96.73 1.49.98-.25.02-.54.06-.88.1-.01-.02-.01-.04-.03-.06-.37-.32-.84-.53-1.27-.76-.06-.03-.12-.06-.18-.1.3-.05.58-.11.87-.16zm1.54-.27c.56.4 1.13.81 1.73 1.13l-.88.05c-.42-.24-.88-.41-1.29-.64-.2-.11-.39-.23-.59-.35.34-.07.69-.13 1.03-.19zm1.71-.27c.42.32.84.62 1.29.9.2.13.42.26.64.4-.45.02-.88.05-1.31.07-.51-.46-1.11-.84-1.73-1.19.39-.07.75-.13 1.11-.18zm1.79-.19c.59.51 1.22 1.01 1.89 1.42-.36.01-.73.02-1.08.04-.31-.17-.64-.34-.94-.52-.42-.25-.82-.52-1.22-.81.42-.06.87-.1 1.35-.13zm1.68-.08c.69.56 1.43 1.08 2.23 1.47H124c-.41-.25-.83-.49-1.23-.74-.33-.21-.64-.46-.96-.69.36-.02.72-.03 1.09-.04zm3.95.07c.53.55 1.24 1 1.84 1.43.12.09.25.18.37.26-.36-.06-.72-.11-1.1-.15a27.8 27.8 0 0 0-2.54-1.6l1.43.06zm9.39 10.62c-.34-.33-.65-.68-.95-1.04-.01-.25-.02-.51-.04-.76.24.32.49.63.74.94.34.4.69.79 1.08 1.13-.03.13-.06.27-.09.41-.24-.23-.5-.45-.74-.68zm-7.5 14.35c-.28-.22-.62-.32-.94-.47-.02-.01-.03-.02-.05-.03.15-.05.3-.1.46-.16.31.2.63.37.97.48-.14.06-.28.13-.43.19-.01 0-.01 0-.01-.01zm1.6-.79c-.25-.19-.56-.26-.84-.39-.03-.02-.06-.04-.1-.05.14-.08.29-.17.44-.27.3.17.61.33.93.44-.14.1-.28.19-.43.27 0 .01 0 .01 0 0zm.71-.46a3.94 3.94 0 0 0-.83-.51c.16-.12.31-.25.47-.38.31.16.65.3.99.39-.18.16-.39.33-.63.5.01 0 .01 0 0 0zm2.83-3.04c-.31-.24-.63-.46-.94-.68.15-.27.3-.55.44-.85.28.28.57.59.89.85-.14.25-.27.49-.39.68zm.59-1.11c-.3-.27-.64-.52-.95-.75.06-.14.13-.27.19-.42.02-.04.03-.09.05-.13.27.32.58.62.93.81-.07.16-.14.33-.22.49zm.52-5.8c.04-.24.08-.49.11-.73.37.41.77.81 1.21 1.13-.06.23-.13.47-.19.7-.36-.38-.76-.73-1.13-1.1zm1.43.01c-.37-.44-.82-.84-1.26-1.19.01-.11.03-.21.04-.32.39.43.83.89 1.31 1.19-.03.1-.06.21-.09.32zm-1.03-3.13c-.03-.04-.06-.05-.1-.06 0-.15.01-.29.01-.44.45.59.99 1.14 1.6 1.53l-.12.57c-.47-.53-.97-1.03-1.39-1.6zm1.79-.2c-.26-.31-.54-.61-.81-.92-.39-.45-.77-.91-1.18-1.34-.04-.31-.08-.6-.14-.9.25.31.49.62.75.92.48.56.93 1.24 1.53 1.67h.01c-.05.19-.11.37-.16.57zm-6.95-8.51c-.4-.27-.8-.52-1.19-.79-.49-.34-.96-.74-1.45-1.1l.93.06c.6.64 1.23 1.27 1.88 1.87-.06-.01-.12-.03-.17-.04zm2.7-1.36c.67.1 1.24.2 1.7.3 1.59 1.36 3.3 2.8 5.13 3.74 0 .41-.02.81-.06 1.16-2.14-1.82-4.43-3.6-6.77-5.2zm6.84 3.73c-1.38-1.17-2.91-2.19-4.4-3.26.67.16 1.27.27 1.79.33.38.31.76.61 1.15.9.44.32.91.71 1.42.98.02.34.03.69.04 1.05zm-1.04-2.2c-.31-.21-.6-.44-.9-.66.29.02.55.04.78.05.33.31.67.62 1.04.89.01.1.03.2.04.31-.33-.2-.66-.39-.96-.59zm.81-.26c-.13-.11-.26-.21-.39-.31.13.01.24.03.3.04.04.07.07.16.09.27zm-14.93-1.92c.77.55 1.58 1.07 2.42 1.54-.38-.03-.76-.04-1.15-.05-.8-.5-1.61-.97-2.39-1.5.37 0 .75 0 1.12.01zm-17.48 2.65c.17-.04.34-.07.53-.11.26.21.53.43.8.63.16.12.34.27.52.4-.28.12-.54.26-.79.41-.32-.29-.69-.54-1.02-.83-.15-.13-.28-.28-.42-.42l.38-.08zm-6.97.99c1.64 1.34 3.35 2.67 5.12 3.84-.09.25-.18.51-.24.77-1.95-1.66-4.11-3.12-6.18-4.64.23.02.38.03.41.03h.89zm-5.7-.57c1.34 1.22 2.75 2.51 4.24 3.56-.12.06-.24.14-.38.24-1.6-1.37-3.29-2.66-4.92-4.01l.14.03c.3.07.61.13.92.18zm1.68 9.07c-.45-.35-.94-.65-1.4-.95.02-.34.02-.67.01-1 .49.46.99.94 1.53 1.34-.05.21-.09.41-.14.61zm-.29 1.18c-.18-.09-.37-.17-.55-.27-.26-.15-.5-.33-.73-.51.06-.34.11-.67.14-1 .43.35.87.71 1.34 1-.07.26-.13.51-.2.78zm-.38 1.3c-.37-.33-.78-.62-1.15-.96.06-.23.12-.45.17-.67a5.95 5.95 0 0 0 1.24.77c-.08.28-.16.57-.26.86zm-.27.79c-.31-.35-.74-.62-1.14-.88.05-.15.1-.31.15-.46.34.35.72.65 1.17.81-.05.18-.11.36-.18.53zm-.35.88c-.34-.31-.74-.58-1.1-.87.01-.01.01-.03.02-.04.06-.15.11-.3.16-.45.35.31.74.64 1.15.81-.07.18-.15.37-.23.55zm-.57 1.2c-.32-.34-.68-.65-1.04-.94.12-.25.23-.5.34-.76.32.35.7.69 1.11.87-.12.27-.26.55-.41.83zm-.49.86c-.29-.34-.64-.63-1-.91.09-.16.18-.32.27-.49.34.3.69.58 1.07.82-.1.19-.22.38-.34.58zm-1.84 2.42c-.28-.27-.58-.5-.86-.75.1-.12.19-.26.29-.38.3.24.62.51.96.71-.12.14-.25.28-.39.42.01.01.01 0 0 0zm-1.25 1.24c-.22-.27-.51-.51-.79-.72.1-.09.19-.19.29-.28.26.26.52.5.83.69.01.01.02 0 .03 0-.13.11-.24.21-.36.31zm-1.41 1.12c-.3-.21-.6-.4-.9-.61.2-.15.41-.29.6-.45.2.25.44.52.7.75-.13.11-.27.22-.4.31zm-.78.51c-.22-.25-.48-.48-.76-.69.1-.06.2-.14.3-.2.26.24.54.46.83.65-.12.08-.24.17-.37.24zm-.76.45c-.27-.23-.59-.43-.9-.62.18-.09.36-.18.53-.28.23.24.47.49.74.69-.12.08-.25.14-.37.21zm-.95.5c-.3-.23-.63-.42-.96-.6.2-.09.4-.2.59-.29.28.23.58.45.89.64-.17.08-.35.16-.52.25zm-1 .44c-.32-.23-.65-.43-.98-.64.17-.06.34-.13.51-.2.35.21.7.43 1.07.59-.19.08-.39.16-.6.25zm-1.04.38c-.28-.27-.62-.48-.97-.68.19-.05.37-.1.54-.16.01 0 .02-.01.02-.01.32.25.66.48 1.03.63-.2.09-.41.15-.62.22zm-1.16.36c-.28-.22-.59-.4-.89-.58-.09-.06-.19-.11-.29-.17.28-.04.54-.09.8-.15.34.25.7.51 1.07.7-.22.07-.46.13-.69.2zm-1.45.33c-.31-.23-.62-.44-.94-.65-.12-.08-.23-.16-.35-.24.39-.03.76-.07 1.13-.12.19.12.37.25.56.37.22.14.44.29.67.42-.35.08-.71.15-1.07.22zm-1.37.21c-.41-.24-.86-.43-1.27-.66-.2-.11-.39-.23-.59-.35.43-.01.85-.02 1.28-.05.21.14.42.28.62.42.25.17.51.36.76.53-.27.04-.53.07-.8.11zm-1.63.12c-.67-.41-1.38-.78-2.08-1.15.39.01.78.02 1.18.02.53.39 1.11.78 1.72 1.08-.27.03-.55.04-.82.05zm-3.75-.2c-.13-.02-.24-.04-.36-.06-1.27-.57-2.51-1.16-3.72-1.78.77.29 1.46.43 1.98.53.2.04.44.08.7.12.71.49 1.46.94 2.25 1.29-.28-.03-.56-.06-.85-.1zM62.53 77.45c.87 1.26 1.64 2.6 2.54 3.82-.1.22-.18.46-.26.7-.98-1.51-2.01-3-3.1-4.44.25-.01.52-.04.82-.08zm1.06-.18c.61 1.03 1.26 2.12 2.03 3.03-.13.19-.25.39-.35.6-.58-1.25-1.44-2.43-2.29-3.51.19-.04.39-.08.61-.12zm-.67 11.97c.3.32.6.64.89.97.33.38.65.77.99 1.14.06.27.13.54.21.8-.2-.18-.41-.36-.6-.54-.37-.34-.75-.66-1.12-.99-.14-.47-.26-.93-.37-1.38zm1.28-3.17c-.65-.77-1.33-1.52-1.95-2.31-.87-1.1-1.65-2.28-2.51-3.38 0-.38.02-.76.04-1.11.69 1.06 1.41 2.1 2.13 3.14.74 1.07 1.42 2.27 2.31 3.22-.01.14-.02.28-.02.44zm.01.74c0 .18.01.36.02.54-1.49-1.69-2.89-3.46-4.39-5.13-.04-.29-.07-.63-.09-1 1.19 1.98 2.82 4.03 4.46 5.59zm-.04 1.09c.03.03.07.04.11.04.03.33.06.66.1.99-.21-.23-.43-.46-.63-.68-.46-.52-.92-1.03-1.38-1.55-.1-.4-.2-.76-.3-1.08.68.8 1.39 1.57 2.1 2.28zm-.8.54c.35.43.71.93 1.12 1.33.04.22.07.45.11.67-.55-.69-1.22-1.33-1.84-1.86-.06-.29-.13-.57-.18-.85-.03-.17-.07-.3-.1-.46.3.39.58.79.89 1.17zm.74 3.46c.37.35.73.75 1.14 1.08.05.15.09.31.15.46-.07-.05-.14-.1-.2-.15-.47-.37-.95-.72-1.44-1.04-.1-.32-.2-.65-.29-.98.2.2.42.42.64.63zm.97 1.82c.21.18.42.38.64.58.02.06.05.13.07.19.07.17.14.31.21.47-.11-.07-.21-.14-.32-.21-.46-.32-.93-.64-1.4-.94-.11-.31-.22-.63-.33-.95.38.28.76.56 1.13.86zm-.59.66c.26.2.52.41.79.61.37.28.75.6 1.15.86.14.27.29.53.44.77-.71-.49-1.41-1.01-2.1-1.53-.09-.23-.19-.47-.28-.71zm2.22-.27c-1.94-4.75-2.22-11.72.31-13.95 1.52-1.34 4.66-1.66 7.81-1.66 1.73 0 3.46.1 4.93.18l1.18.06c.05 0 4.86.38 8.61 1.55 1.6.5 2.82 1.56 3.54 3.06.98 2.06.89 4.78-.26 7.68-1.74 4.4-4.63 7.22-8.82 8.62-2.93.98-8.49.72-10.52.31-1.66-.32-4.77-.94-6.78-5.85zm-.95-17.3c.23.45.48.88.78 1.29.18.24.37.54.59.77-.2.12-.4.25-.58.39-.25-.44-.56-.86-.82-1.3-.2-.34-.38-.7-.57-1.04.2-.04.39-.07.6-.11zm1.18-.18c.3.62.64 1.27 1.08 1.81-.16.06-.32.13-.47.2-.22-.32-.54-.62-.76-.91-.23-.32-.44-.65-.65-.98.26-.04.52-.08.8-.12zm1.13-.15c.31.55.61 1.13 1.02 1.6-.22.06-.43.13-.64.2-.16-.26-.34-.51-.5-.77-.2-.31-.37-.63-.55-.94.21-.03.44-.06.67-.09zm1.11-.12c.3.51.6 1.03.98 1.48-.25.04-.49.1-.72.15-.21-.55-.55-1.07-.89-1.57.21-.01.42-.04.63-.06zm1.11-.1c.26.47.51.99.82 1.44-.2.03-.4.05-.6.08-.21-.52-.53-1-.84-1.47.2-.01.41-.03.62-.05zm1.02-.08c.26.48.54.97.87 1.41-.19.01-.38.03-.57.05-.22-.49-.55-.96-.86-1.42.19-.01.37-.02.56-.04zm4.34-.16c.41.56.89 1.12 1.46 1.53l-1.08-.03c-.2-.25-.43-.47-.61-.73-.17-.24-.3-.49-.41-.76.21-.01.43-.01.64-.01zm1.41.02c.48.61 1.05 1.19 1.72 1.58-.34-.02-.69-.04-1.05-.05-.33-.36-.73-.66-1.09-1-.19-.18-.36-.37-.54-.56.33.02.65.02.96.03zm1.37.08c.48.6 1.06 1.22 1.73 1.59l-.33-.02-.47-.03v-.01c-.37-.39-.81-.7-1.21-1.06-.18-.16-.34-.35-.51-.52.26.01.53.03.79.05zm1.65.18c.35.32.7.64 1.06.95.2.18.39.37.59.56-.41-.04-.67-.06-.72-.06l-.23-.01a.15.15 0 0 0-.04-.11c-.38-.37-.85-.64-1.25-.99-.17-.15-.31-.32-.46-.47.21.02.43.04.63.07.13.02.28.04.42.06zm1.64.26c.46.52.98 1.02 1.54 1.43-.39-.05-.74-.09-1.05-.13-.29-.27-.6-.53-.9-.78-.28-.24-.55-.48-.83-.72.4.06.82.13 1.24.2zm1.9.34c.28.29.56.6.86.88l.5.47c-.26-.04-.52-.08-.76-.12-.44-.35-.93-.67-1.37-1.03-.16-.13-.31-.28-.47-.42.41.06.82.14 1.24.22zm1.75.33c.32.33.64.66.97.98.12.11.24.23.36.35-.3-.06-.59-.12-.88-.17-.38-.34-.79-.65-1.15-.98-.14-.13-.27-.26-.41-.39.37.06.74.13 1.11.21zm3.09.62c.61.57 1.24 1.13 1.88 1.68-.16-.06-.32-.13-.48-.18-.21-.06-.42-.13-.63-.19-.29-.24-.63-.44-.92-.66-.37-.29-.72-.59-1.07-.9.42.08.83.17 1.22.25zm5.97 6.26c.68.69 1.44 1.33 2.2 1.87l-.06.27c-.21-.18-.43-.36-.64-.53-.43-.35-.87-.68-1.33-.97-.05-.22-.11-.43-.17-.64zm1.09.28c-.5-.45-.98-.93-1.49-1.38a.689.689 0 0 0-.03-.08c-.1-.2-.2-.39-.32-.58 1.07.88 2.15 1.76 3.23 2.63-.05.15-.1.3-.15.47-.41-.35-.83-.7-1.24-1.06zM87 77.6c.37.45.76.89 1.21 1.27l.04.04c-.22-.06-.45-.11-.67-.16-.29-.3-.62-.57-.93-.84-.21-.19-.44-.37-.66-.55.33.07.66.13.99.2 0 0 0 .02.02.04zm-11.55-.1h-.51c-.18-.32-.42-.61-.62-.93-.11-.17-.19-.35-.29-.53.19-.01.39-.01.58-.02.18.52.46 1.08.84 1.48zm-.96 0c-.25 0-.5.01-.74.01-.18-.32-.44-.61-.65-.91-.12-.17-.22-.34-.34-.51.29-.01.58-.03.86-.04.22.53.49 1.05.87 1.45zm-1.1.02c-.28.01-.56.02-.83.04-.23-.49-.54-.96-.86-1.41.25-.02.5-.03.75-.05.23.53.54 1.04.94 1.42zM90.04 98.6c-.27-.23-.57-.45-.83-.68l.4-.34c.24.26.49.54.77.74l-.34.28zm2.59-2.57c-.31-.25-.69-.46-1.04-.65.17-.23.35-.46.51-.7.2.18.39.36.6.54.11.1.22.2.34.29-.14.18-.28.35-.41.52zm.65-.87c-.12-.1-.24-.2-.36-.31-.21-.17-.41-.34-.62-.52.1-.16.19-.33.28-.49.32.31.65.62 1.01.86-.1.15-.2.31-.31.46zm3.15-8.3c-.01.06-.03.13-.04.19-.52-.45-1.12-.85-1.65-1.25-.01-.18-.05-.35-.07-.53.34.28.68.55 1.01.83.25.21.5.45.77.67l-.02.09zm.65-2.32c-2.58-2.22-5.17-4.46-7.86-6.53.5.1.98.21 1.43.3 2.17 1.96 4.46 3.81 6.71 5.68-.09.16-.19.35-.28.55zm-32.63-7.46c.09-.02.21-.05.32-.07.17.41.39.79.61 1.17.26.46.54.94.89 1.34-.14.14-.28.28-.41.43-.49-.96-1.17-1.9-1.81-2.78.14-.04.26-.06.4-.09zm-3.58.52c.18-.01.38-.02.59-.04 1 1.66 2.09 3.27 3.22 4.84-.06.21-.12.42-.17.64-1.24-1.85-2.53-3.7-3.94-5.43.1 0 .2 0 .3-.01zm-.63.05c1.25 2.08 2.7 4.1 4.15 6.05-.06.39-.11.79-.15 1.2-.6-1.04-1.4-2.02-2.07-2.99-.77-1.11-1.53-2.22-2.34-3.3.05-.41.12-.74.2-.93.06-.01.13-.02.21-.03zm4.85 18.15c.5.39 1.01.78 1.53 1.15.32.23.65.47.98.71.57.71 1.16 1.26 1.75 1.69A43.88 43.88 0 0 1 66 97.28l-.13-.16c-.25-.3-.51-.76-.78-1.32zm1.64 2.4a29.09 29.09 0 0 0 5.66 3.44c-3.19-.9-4.66-2.25-5.66-3.44zm10.65 4.24c-.77-.44-1.55-.85-2.34-1.26.39.04.81.07 1.25.09.7.47 1.43.89 2.22 1.19-.38.01-.75 0-1.13-.02zm13.84-4.88c0-.01 0-.02-.01-.03-.21-.3-.47-.55-.74-.8.11-.12.23-.24.34-.37.27.29.57.54.93.68-.03.03-.05.05-.07.08-.15.16-.3.3-.45.44zm6.39-13.94c-2.06-1.73-4.1-3.49-6.22-5.15.35.07.68.15.98.21l.31.07c1.65 1.57 3.4 3.16 5.29 4.45-.12.12-.24.26-.36.42zm12.8 15.68c1.98 1 4.08 1.93 6.2 2.67-2.25-.51-4.36-1.41-6.2-2.67zm8.7 3.08c-3.19-1.47-6.6-2.84-9.91-3.99a14.818 14.818 0 0 1-1.88-1.82c1.57 1.04 3.28 2.06 4.98 2.76.88.5 1.83.94 2.86 1.28.84.28 1.86.46 2.95.58.88.52 1.8 1.01 2.77 1.29-.59-.01-1.18-.05-1.77-.1zm4.99-.12c-.19.03-.38.04-.57.07-.74-.39-1.55-.69-2.35-.99h.05c.36 0 .72-.01 1.07-.02.01.01.02.03.04.04.59.24 1.18.47 1.78.7.12.05.24.1.37.15-.14.01-.26.03-.39.05zm13.35-16.64c-.33-.55-.83-1.04-1.25-1.52-.43-.5-.87-.98-1.32-1.46-.09-.34-.19-.67-.31-.99 1.14.92 2.28 1.83 3.39 2.74-.18.33-.35.74-.51 1.23z" fill="#000000" stroke-width="none" opacity="1"></path></g></g></g></g></g><rect id="svga-credit-rect" width="200" height="15" x="0" y="185" fill="#ecf0f1" opacity="0.5" style="display: none;"></rect><text id="svga-credit-text" font-family="Avenir Next, Roboto, Helvetica, Arial, sans-serif" font-size="10px" text-anchor="start" font-weight="400" size="10px" anchor="start" weight="400" fill="#333333" x="33.40447998046875" y="182.60824704170227" style="display: none;"><tspan id="SvgjsTspan27303" dy="13" x="33.40447998046875">Created on AvatarMaker.com</tspan></text></g><defs id="SvgjsDefs27250"><linearGradient id="SvgjsLinearGradient27534" x1="79.5238" y1="76.8526" x2="79.5238" y2="101.9256" gradientUnits="userSpaceOnUse" class="svga-on-canvas-glasses-gradient-single-0-null"><stop id="SvgjsStop27535" stop-opacity="1" stop-color="#000000" offset="0" ></stop><stop id="SvgjsStop27536" stop-opacity="0.0896" stop-color="#000000" offset="0.9104" ></stop><stop id="SvgjsStop27537" stop-opacity="0" stop-color="#000000" offset="1" ></stop></linearGradient><linearGradient id="SvgjsLinearGradient27539" x1="38.5238" y1="76.8526" x2="38.5238" y2="101.9256" gradientTransform="matrix(-1 0 0 1 158.5026 0)" gradientUnits="userSpaceOnUse" class="svga-on-canvas-glasses-gradient-single-1-null"><stop id="SvgjsStop27540" stop-opacity="1" stop-color="#000000" offset="0" ></stop><stop id="SvgjsStop27541" stop-opacity="0.0896" stop-color="#000000" offset="0.9104" ></stop><stop id="SvgjsStop27542" stop-opacity="0" stop-color="#000000" offset="1" ></stop></linearGradient></defs></svg>