<svg xmlns="http://www.w3.org/2000/svg" version="1.1" width="600px" height="600px" viewBox="0 0 200 200" style="overflow:hidden!important;"><g id="svga-group-wrapper"><g id="svga-group-backs-single"><path id="SvgjsPath13536" d="M0 0h200v200H0V0z" fill="#547980" stroke-width="none" opacity="1"></path><path id="SvgjsPath13537" d="M96.9 141.1c-19.9 0-36.1-16.2-36.1-36.1S77 69 96.9 69 133 85.2 133 105s-16.2 36.1-36.1 36.1zm35 15.3c-6.7 0-12.2-5.5-12.2-12.2 0-6.7 5.5-12.2 12.2-12.2 6.7 0 12.2 5.5 12.2 12.2 0 6.7-5.4 12.2-12.2 12.2zM27.7 117.8c-12.3 0-22.2-10-22.2-22.2s10-22.2 22.2-22.2 22.2 10 22.2 22.2-10 22.2-22.2 22.2zm-14 28.5c-.1.2-.3.4-.4.6-8.8 13.6-4.8 31.9 8.8 40.7a29.53 29.53 0 0 0 41.1-9.4l-49.5-31.9zm184.9-26.5h-.3a13.97 13.97 0 0 0 1.3 27.9h.3l-1.3-27.9z" fill="#d8f94b" stroke-width="none" opacity="1"></path><path id="SvgjsPath13538" d="M96.9 66.3c-21.4 0-38.7 17.3-38.7 38.7 0 21.4 17.3 38.7 38.7 38.7 21.4 0 38.7-17.3 38.7-38.7 0-21.3-17.3-38.7-38.7-38.7zM66.2 91.9c.5-.6 1.1-1.1 1.8-1.4a4.67 4.67 0 0 1 2.6-.2L94.3 104H71.5c-2.1 0-4.1-1-5.4-2.6s-1.7-3.8-1.2-5.9l.1-.3c.4-1.2.8-2.3 1.2-3.3zm-1 14.9c.9-1.2 2.3-1.9 3.8-1.9h25.9l-24.7 14.2c-.7.4-1.6.5-2.4.2-.8-.3-1.4-1-1.6-1.8l-1.8-6.6c-.4-1.4-.1-2.9.8-4.1zm5.7-17.6c-.7-.4-1.2-1.2-1.3-2s.2-1.7.8-2.3l4.9-4.9c.9-.9 2.1-1.4 3.3-1.4h.6c1 .1 1.9.6 2.6 1.2l13.2 23-22.6-13c-.5-.3-1-.5-1.5-.6zm11.3-10.7c-.4-.7-.5-1.6-.2-2.4.3-.8 1-1.4 1.8-1.6l6.6-1.8c.4-.1.8-.2 1.2-.2 1 0 2 .3 2.9 1 .8.6 1.4 1.4 1.6 2.4-.1.4-.2.9-.2 1.4v24.8L83.6 80.5c-.3-.4-.6-.9-.9-1.2l-.5-.8zm45.2 22.7a6.59 6.59 0 0 1-5.4 2.6H99.2l23.7-13.7c.8-.2 1.8-.1 2.6.2 1.2.5 2.2 1.6 2.5 2.9l.6 2.1c.5 2.1.1 4.3-1.2 5.9zm-3.5-14c-.1.8-.6 1.6-1.3 2-.5.1-1 .3-1.4.6l-22.6 13.1L111.7 80c.7-.7 1.6-1.1 2.6-1.2h.6c1.2 0 2.4.5 3.3 1.4l4.9 4.9c.7.4.9 1.2.8 2.1zm-12.6-8.7-.5.8c-.4.4-.7.8-.9 1.2l-12.4 21.6V77.3c0-.5-.1-.9-.2-1.4.3-.9.8-1.8 1.6-2.4a4.27 4.27 0 0 1 4.1-.8l6.6 1.8c.8.2 1.5.8 1.8 1.6.4.7.4 1.6-.1 2.4zM70 122.7c.2-1.3.9-2.5 2.1-3.2L95 106.3l-11.6 20.1c-1.1 1.8-2.9 3-5 3.3-2.1.3-4.2-.4-5.7-1.9l-1.5-1.5c-.9-.9-1.3-2.2-1.2-3.6zm12.8 7.2L96 107.1v23.2c0 2.1-1 4.1-2.6 5.4s-3.8 1.7-5.9 1.2l-2.1-.6c-1.3-.4-2.4-1.3-2.9-2.5-.4-1.3-.3-2.7.3-3.9zm17.3 5.8a6.59 6.59 0 0 1-2.6-5.4v-23.2l13.2 22.8c.7 1.2.8 2.6.2 3.8s-1.6 2.2-2.9 2.5l-2.1.6c-2 .6-4.1.2-5.8-1.1zm15-5.9c-2.1-.3-3.9-1.5-5-3.3l-11.6-20.1 22.8 13.2c1.2.7 1.9 1.8 2.1 3.2.2 1.3-.3 2.7-1.2 3.6l-1.5 1.5a7.14 7.14 0 0 1-5.6 1.9zm10.6-10.5c-.8.3-1.7.3-2.4-.2l-24.7-14.2h25.9c1.5 0 2.9.7 3.8 1.9s1.2 2.7.8 4.1l-1.8 6.6c-.2.9-.8 1.5-1.6 1.8zm6.2 11.8c-7.2 0-13.1 5.9-13.1 13.1s5.8 13.1 13.1 13.1 13.1-5.9 13.1-13.1-5.8-13.1-13.1-13.1zm-10.3 8.7c.2-.2.4-.4.6-.5.2-.1.4-.1.6-.1h.3l8 4.6h-7.7c-.7 0-1.4-.3-1.8-.9-.4-.6-.6-1.3-.4-2v-.1c.1-.3.2-.7.4-1zm-.4 5c.3-.4.8-.6 1.3-.6h8.7l-8.3 4.8c-.2.1-.5.2-.8.1-.3-.1-.5-.3-.5-.6l-.6-2.2c-.2-.6-.1-1.1.2-1.5zm2-5.9c-.2-.1-.4-.4-.4-.7 0-.3.1-.6.3-.8l1.6-1.6c.3-.3.7-.5 1.1-.5h.2c.3 0 .6.2.9.4l4.5 7.7-7.6-4.4c-.3-.1-.5-.1-.6-.1zm3.8-3.7c-.1-.2-.2-.5-.1-.8.1-.3.3-.5.6-.5l2.2-.6c.1 0 .3-.1.4-.1.4 0 .7.1 1 .3.3.2.5.5.6.8 0 .1-.1.3-.1.5v8.4l-4.2-7.3c-.1-.1-.2-.3-.3-.4l-.1-.3zm15.2 7.7c-.4.6-1.1.9-1.8.9h-7.7l8-4.6c.3-.1.6-.1.9.1.4.2.7.5.9 1l.2.7c.1.6 0 1.4-.5 1.9zm-1.1-4.7c0 .3-.2.5-.4.7-.2 0-.3.1-.5.2l-7.6 4.4 4.5-7.7c.2-.2.6-.4.9-.4h.2c.4 0 .8.2 1.1.5l1.6 1.6c.1.1.2.4.2.7zm-4.3-3-.2.3c-.1.1-.2.3-.3.4l-4.2 7.3v-8.4c0-.2 0-.3-.1-.5.1-.3.3-.6.6-.8.3-.2.6-.3 1-.3.1 0 .3 0 .4.1l2.2.6c.3.1.5.3.6.5.2.3.2.6 0 .8zm-13.9 15c.1-.4.3-.9.7-1.1l7.7-4.4-3.9 6.8c-.4.6-1 1-1.7 1.1s-1.4-.1-1.9-.6l-.5-.5c-.3-.4-.5-.9-.4-1.3zm4.3 2.4 4.4-7.7v7.8c0 .7-.3 1.4-.9 1.8-.6.4-1.3.6-2 .4l-.7-.2c-.4-.1-.8-.4-1-.9-.1-.3 0-.8.2-1.2zm5.8 2c-.6-.4-.9-1.1-.9-1.8V145l4.4 7.7c.2.4.3.9.1 1.3s-.5.7-1 .9l-.7.2c-.6 0-1.3-.1-1.9-.5zm5.1-2c-.7-.1-1.3-.5-1.7-1.1l-3.9-6.8 7.7 4.4c.4.2.7.6.7 1.1.1.4-.1.9-.4 1.2l-.5.5c-.5.5-1.2.7-1.9.7zm3.6-3.6c-.3.1-.6.1-.8-.1l-8.3-4.8h8.7c.5 0 1 .2 1.3.6.3.4.4.9.3 1.4l-.6 2.2c-.2.4-.4.6-.6.7zm-114-77.3a23.9 23.9 0 1 0 0 47.8 23.9 23.9 0 0 0 0-47.8zm-19 15.7c.3-.4.7-.7 1.2-.9.3-.1.7-.2 1-.2.2 0 .4 0 .5.1L26 94.8H12c-1.3 0-2.5-.6-3.3-1.6-.8-1-1.1-2.3-.7-3.6v-.2c.2-.7.5-1.3.7-2zm-.6 9.2c.6-.7 1.4-1.1 2.3-1.1h16l-15.2 8.8c-.4.3-1 .3-1.5.1-.5-.2-.8-.6-1-1.1l-1.1-4.1c-.2-.9 0-1.9.5-2.6zm3.5-10.8c-.4-.3-.8-.7-.8-1.2-.1-.5.1-1 .5-1.4l3-3c.6-.6 1.3-.9 2.1-.9h.4c.6.1 1.2.3 1.6.8l8.1 14.1-13.9-8.1c-.4-.1-.7-.3-1-.3zm7-6.7c-.3-.4-.3-1-.1-1.5.2-.5.6-.8 1.1-1l4.1-1.1c.2-.1.5-.1.8-.1.6 0 1.2.2 1.8.6.5.4.8.9 1 1.5-.1.3-.1.6-.1.9v15.3l-7.7-13.3c-.2-.3-.4-.5-.6-.8l-.3-.5zm27.9 14.1c-.8 1-2 1.6-3.3 1.6h-14l14.6-8.4c.5-.1 1.1-.1 1.6.1.8.3 1.3 1 1.6 1.8l.3 1.3c.2 1.2 0 2.6-.8 3.6zm-2.2-8.7c-.1.5-.4 1-.8 1.2l-.9.3-14 8.1L36.7 80c.4-.4 1-.7 1.6-.8h.4c.8 0 1.5.3 2.1.9l3 3c.4.4.6.9.5 1.4zm-7.7-5.4-.3.5c-.2.2-.4.5-.6.8L28 93.7V78.4c0-.3 0-.6-.1-.9.2-.6.5-1.1 1-1.5.5-.4 1.1-.6 1.8-.6.2 0 .5 0 .8.1l4.1 1.1c.5.1.9.5 1.1 1 .2.6.1 1.1-.1 1.5zm-25.5 27.3c.1-.8.6-1.6 1.3-2l14.1-8.1-7.2 12.4c-.6 1.1-1.8 1.9-3.1 2.1-1.3.2-2.6-.3-3.5-1.2l-.9-.9c-.5-.6-.8-1.5-.7-2.3zm7.9 4.5 8.1-14.1v14.3c0 1.3-.6 2.5-1.6 3.3s-2.4 1.1-3.6.7l-1.3-.3a2.62 2.62 0 0 1-1.6-3.9zm10.6 3.5c-1-.8-1.6-2-1.6-3.3V96.8l8.1 14.1c.4.7.5 1.6.2 2.4-.3.8-1 1.3-1.8 1.6l-1.3.3c-1.2.3-2.5 0-3.6-.8zm9.3-3.6c-1.3-.2-2.4-.9-3.1-2.1l-7.2-12.4 14.1 8.1c.7.4 1.2 1.1 1.3 2 .1.8-.2 1.7-.8 2.2l-.9.9a4 4 0 0 1-3.4 1.3zm6.5-6.5c-.5.2-1 .2-1.5-.1l-15.2-8.8h15.9a2.84 2.84 0 0 1 2.8 3.6l-1.1 4.1c0 .6-.4 1.1-.9 1.2zm-33.5 40.8c-.1.2-.3.4-.4.6a31.59 31.59 0 0 0 9.4 43.6c14.7 9.4 34.2 5.2 43.7-9.4.1-.2.2-.4.4-.6l-53.1-34.2zm-.2 14.7c-.4-.6-.5-1.3-.3-1.9l1.7-5.3c.4-1.2 1.2-2.1 2.4-2.5s2.4-.3 3.4.4l1.7 1.1 16 10.3-23.2-1.1c-.7-.1-1.3-.5-1.7-1zm-.3 8-.4-1.7c-.2-1.1 0-2.2.8-3s1.8-1.3 2.9-1.2l21.5 1.1-16.9 8.7c-1.5.8-3.3.8-4.9.1-1.6-.9-2.7-2.3-3-4zm14.8 12a5.5 5.5 0 0 1-8.7.7l-1.2-1.3c-.7-.8-1.1-1.9-.9-3s.9-2 1.9-2.5l19.1-9.8-10.2 15.9zm8.7 8.9c-.9.6-2 .8-3.1.5l-1.7-.5c-1.6-.5-2.9-1.8-3.5-3.4-.6-1.6-.4-3.4.5-4.8l10.3-15.9-1 21.5c0 1-.6 2-1.5 2.6zm11-.1-1.7.4c-1.7.4-3.4-.1-4.7-1.2s-2-2.8-1.9-4.5l.9-18.9 9.8 19.1c.5 1 .5 2.1 0 3.1-.4 1-1.3 1.8-2.4 2zm7.4-3.8c-.5.5-1.2.7-1.9.5-.7-.1-1.2-.6-1.6-1.2l-10.6-20.7 16 10.3 1.7 1.1c1 .7 1.7 1.7 1.8 2.9s-.4 2.4-1.3 3.2l-4.1 3.9zm145.3-66h-.3c-8.3.4-14.7 7.4-14.3 15.7s7.4 14.7 15.7 14.3h.3l-1.4-30zm-5.7 3.9c.1-.3.4-.5.7-.6l2.5-.8c.6-.2 1.1-.1 1.6.2s.8.8.8 1.4v.9l.4 9.1-5.9-9.3c-.2-.2-.2-.6-.1-.9zm-3.2 2.1.6-.6c.4-.4.9-.6 1.4-.5.5.1 1 .3 1.3.8l5.5 8.6-8-4.1c-.7-.4-1.2-1.1-1.4-1.9-.2-.9 0-1.7.6-2.3zm-.6 9.1c-.8 0-1.6-.3-2.1-.9-.5-.6-.7-1.4-.6-2.2l.2-.8c.1-.5.4-.9.9-1.2s1-.2 1.5 0l9.1 4.7-9 .4zm-1.1 5.8c-.5-.2-.9-.6-1-1.1l-.2-.8c-.2-.8-.1-1.6.4-2.3s1.2-1.1 2-1.1l9-.4-8.6 5.5c-.5.3-1.1.4-1.6.2zm3.1 4.2-.6-.6c-.6-.6-.9-1.3-.8-2.2s.5-1.5 1.2-2l7.6-4.9-4.7 9.1c-.2.5-.7.8-1.2.9-.6.2-1.1.1-1.5-.3zm3.5 1.9c-.3-.1-.6-.3-.7-.6s-.1-.6 0-.9l5.1-9.8.4 9.1v.9c0 .6-.2 1.1-.6 1.5-.4.4-1 .5-1.6.4l-2.6-.6z" fill="#ffffff" stroke-width="none" opacity="1"></path><path id="SvgjsPath13539" d="M96.9 64.7c-22.3 0-40.4 18.1-40.4 40.4s18.1 40.4 40.4 40.4 40.4-18.1 40.4-40.4-18.1-40.4-40.4-40.4zm0 77.4c-20.5 0-37.1-16.6-37.1-37.1s16.7-37 37.1-37S134 84.6 134 105s-16.6 37.1-37.1 37.1zm35-11.5c-7.5 0-13.6 6.1-13.6 13.6s6.1 13.6 13.6 13.6 13.6-6.1 13.6-13.6-6-13.6-13.6-13.6zm0 26.1a12.5 12.5 0 1 1 0-25 12.5 12.5 0 0 1 0 25zm-104.2-86C14 70.7 2.8 81.8 2.8 95.5s11.2 24.9 24.9 24.9 24.9-11.2 24.9-24.9-11.2-24.8-24.9-24.8zm0 47.7c-12.6 0-22.9-10.3-22.9-22.9s10.3-22.9 22.9-22.9 22.9 10.3 22.9 22.9-10.3 22.9-22.9 22.9zm36.9 60.7c-.1.2-.2.4-.4.6a31.16 31.16 0 0 1-43 9.3 31.26 31.26 0 0 1-9.3-43.1c.1-.2.3-.4.4-.6l-.7-.5c-.1.2-.3.4-.4.6a31.9 31.9 0 0 0 9.6 44.2 31.9 31.9 0 0 0 44.6-10.2l-.8-.3zm135.3-30.6h-.3c-8.1.4-15.1-6-15.5-14.1s6-15.1 14.1-15.5h.3v-.4h-.3a15.2 15.2 0 1 0 1.4 30.4h.3v-.4z" fill="#8ab21b" stroke-width="none" opacity="1"></path><path id="SvgjsPath13540" d="M145.5 195.1a17.61 17.61 0 0 1-9.1-23.1c3.9-8.9 14.2-12.9 23.1-9.1s12.9 14.2 9.1 23.1a17.7 17.7 0 0 1-23.1 9.1zM48.9 87c-8.9-3.8-13-14.2-9.1-23.1S54 51 62.9 54.8 75.8 69 72 77.9 57.8 90.8 48.9 87z" fill="#ffed43" stroke-width="none" opacity="1"></path><path id="SvgjsPath13541" d="M160 161.7c-9.5-4.1-20.6.2-24.8 9.8s.2 20.6 9.8 24.8 20.6-.2 24.8-9.8-.3-20.6-9.8-24.8zm-18.7 5.5c.3-.2.7-.3 1.1-.3.3 0 .6.1.8.2.1.1.2.1.4.2l7.9 10.7-10.2-4.4c-.9-.4-1.6-1.2-1.9-2.2-.2-1 0-2 .6-2.8l.1-.1c.5-.6.8-.9 1.2-1.3zm-3.3 6.4c.6-.4 1.4-.4 2-.1l1.1.5 10.4 4.5-13.8 1.6c-.4.1-.8-.1-1.1-.4-.3-.3-.4-.7-.4-1.1l.5-3.3c.3-.7.7-1.3 1.3-1.7zm5.9-6.7c-.2-.3-.3-.8-.2-1.1s.4-.7.8-.9l3.1-1.2c.6-.2 1.2-.2 1.8 0 .1 0 .2.1.3.1.4.2.7.6.9 1.1l1.5 12.8-7.6-10.2c-.2-.3-.4-.5-.6-.6zm7.1-2.6c-.1-.4.1-.8.4-1.1.3-.3.7-.4 1.1-.4l3.3.5c.2 0 .4.1.6.2.5.2.8.5 1.1 1 .2.4.3.9.3 1.4l-.3.6-4.8 11-1.4-12c0-.2-.1-.5-.2-.7l-.1-.5zm15.8 18.9a3 3 0 0 1-2.9.1l-10.2-4.4 13.2-1.5c.4.1.8.3 1.1.6.5.5.7 1.1.6 1.8l-.1 1c-.2 1-.8 1.9-1.7 2.4zm1.2-7c-.2.4-.6.6-1 .6-.2 0-.5-.1-.8 0l-12.6 1.4 10.3-7.6c.4-.2.9-.2 1.4-.1.1 0 .2.1.3.1.6.2 1 .7 1.2 1.3l1.2 3.1c.2.5.2.9 0 1.2zm-3.9-6.3-.4.3c-.2.1-.4.2-.6.4l-9.7 7.2 4.8-11c.1-.2.2-.4.2-.6.3-.4.7-.6 1.2-.7.5-.1 1-.1 1.5.1.2.1.4.2.5.3l2.6 2.1c.3.3.5.6.5 1.1-.1.2-.3.6-.6.8zm-27 11.8c.3-.6.9-.9 1.6-1l12.7-1.5-9.1 6.7c-.8.6-1.9.8-2.9.5s-1.8-1-2.1-1.9l-.4-1c-.2-.6-.2-1.3.2-1.8zm4.3 5.7 10.3-7.6-4.5 10.4c-.4.9-1.2 1.6-2.2 1.9-1 .2-2 0-2.8-.6l-.8-.6c-.5-.4-.8-1-.8-1.7-.1-.8.3-1.4.8-1.8zm6.6 5.9a3 3 0 0 1-.1-2.9l4.5-10.4 1.5 12.7c.1.7-.1 1.3-.6 1.8s-1.1.7-1.8.6l-1-.1c-1.2-.2-2-.8-2.5-1.7zm7.8.2c-.9-.5-1.4-1.4-1.6-2.4l-1.3-11.2 7.6 10.3c.4.5.5 1.2.3 1.8s-.6 1.1-1.2 1.4l-1 .4c-.9.3-1.9.2-2.8-.3zm6.8-2.6c-.4 0-.8-.2-1-.5l-8.2-11.1 10.4 4.5 1.1.5c.7.3 1.1.9 1.3 1.6.2.7 0 1.4-.4 2l-2.1 2.6c-.3.3-.7.4-1.1.4zM63.4 53.7c-9.5-4.1-20.6.2-24.8 9.8s.2 20.6 9.8 24.7S69 88 73.2 78.4c4.1-9.5-.3-20.6-9.8-24.7zm-18.6 5.4c.3-.2.7-.3 1.1-.3.3 0 .6.1.8.2.1.1.2.1.4.2L55 69.9l-10.2-4.4c-.9-.4-1.6-1.2-1.9-2.2-.2-1 0-2 .6-2.8l.1-.1c.4-.5.8-.9 1.2-1.3zm-3.3 6.5c.6-.3 1.4-.4 2-.1l1.1.5L55 70.5 41.3 72c-.4.1-.8-.1-1.1-.4-.3-.3-.4-.7-.4-1.1l.5-3.3c.1-.7.5-1.3 1.2-1.6zm5.9-6.8c-.2-.3-.3-.8-.2-1.2s.4-.7.8-.9l3.1-1.2c.6-.2 1.2-.2 1.8 0 .1 0 .2.1.3.1.4.2.7.6.9 1.1l1.5 12.7L48 59.2c-.2-.1-.4-.2-.6-.4zm7.1-2.6c0-.4.1-.8.4-1.1.3-.3.7-.4 1.1-.4l3.3.5c.2 0 .4.1.6.2.5.2.8.5 1.1 1 .2.4.3.9.3 1.4l-.3.6-4.8 11-1.4-12c0-.2-.1-.5-.2-.7l-.1-.5zm15.7 18.9a3 3 0 0 1-2.9.1l-10.2-4.4 13.2-1.5c.4.1.8.3 1.1.6.5.5.7 1.1.6 1.8l-.2 1c-.1 1-.7 1.9-1.6 2.4zm1.2-6.9c-.2.3-.6.6-1 .6-.2 0-.5-.1-.8 0L57 70.2l10.3-7.6c.4-.2.9-.2 1.4 0 .1 0 .2.1.3.1.6.2 1 .7 1.2 1.3l1.2 3.1c.3.3.2.7 0 1.1zm-3.9-6.4-.4.3c-.2.1-.4.2-.7.4l-9.7 7.2 4.8-11c.1-.2.2-.4.2-.7.3-.4.7-.6 1.2-.7.5-.1 1-.1 1.5.1.2.1.4.2.5.3l2.6 2.1c.3.3.5.6.5 1s-.2.8-.5 1zm-27 11.8c.3-.6.9-.9 1.6-1l12.7-1.5-9.1 6.7c-.8.6-1.9.8-2.9.5-1-.3-1.8-1-2.2-1.9l-.4-1c-.1-.6 0-1.3.3-1.8zm4.3 5.7 10.3-7.6L50.6 82c-.4.9-1.2 1.6-2.2 1.9-1 .2-2 0-2.8-.6l-.8-.7a2.09 2.09 0 0 1 0-3.3zm6.6 5.9c-.5-.9-.5-2-.1-2.9l4.5-10.4 1.5 12.7c.1.7-.2 1.3-.6 1.8s-1.1.7-1.8.6l-1-.2c-1.1-.1-2-.7-2.5-1.6zm7.8.2c-.9-.5-1.5-1.4-1.6-2.4l-1.3-11.2L64 82.1c.4.5.5 1.2.3 1.8-.2.6-.6 1.1-1.2 1.4l-1 .4c-.9.4-2 .3-2.9-.3zm6.8-2.6c-.4 0-.8-.2-1-.5l-8.2-11.1 10.4 4.5 1.1.5c.7.3 1.1.8 1.3 1.6.2.7 0 1.4-.4 2L67 82.3c-.2.4-.6.6-1 .5z" fill="#ffffff" stroke-width="none" opacity="1"></path><path id="SvgjsPath13542" d="M160.3 161c-9.9-4.3-21.5.3-25.8 10.2-4.3 9.9.3 21.5 10.2 25.8 9.9 4.3 21.5-.3 25.8-10.2 4.3-9.9-.3-21.5-10.2-25.8zm-15 34.5c-9.1-4-13.3-14.6-9.4-23.7 4-9.1 14.6-13.3 23.7-9.4 9.1 4 13.3 14.6 9.4 23.7a17.93 17.93 0 0 1-23.7 9.4zM63.7 52.9c-9.9-4.3-21.5.3-25.8 10.2s.3 21.5 10.2 25.8 21.5-.3 25.8-10.2-.3-21.5-10.2-25.8zm-15 34.5c-9.1-4-13.3-14.6-9.4-23.7S54 50.4 63.1 54.4 76.4 69 72.4 78.1a17.94 17.94 0 0 1-23.7 9.3z" fill="#d3b400" stroke-width="none" opacity="1"></path><path id="SvgjsPath13543" d="M160.6 73.3c-18.8 0-34.1-15.3-34.1-34.1s15.3-34.1 34.1-34.1 34.1 15.3 34.1 34.1-15.3 34.1-34.1 34.1zM83.5 182.1c-12.5 0-22.7-10.2-22.7-22.7s10.2-22.7 22.7-22.7 22.7 10.2 22.7 22.7-10.1 22.7-22.7 22.7zm89.2-52.6-.6.3c-13.3 7-18.4 23.4-11.4 36.7 7 13.3 23.4 18.4 36.7 11.4l.6-.3-25.3-48.1z" fill="#ffcb39" stroke-width="none" opacity="1"></path><path id="SvgjsPath13544" d="M160.6 2.7c-20.2 0-36.6 16.4-36.6 36.6s16.4 36.6 36.6 36.6 36.6-16.4 36.6-36.6c-.1-20.2-16.4-36.6-36.6-36.6zm-29 24.2a3.9 3.9 0 0 1 4.1-1.6l22.4 12.9h-21.5a6.4 6.4 0 0 1-6.2-8l.1-.3c.3-1.1.6-2.1 1.1-3zm-1 14c.9-1.1 2.1-1.8 3.6-1.8h24.4l-23.3 13.5c-.7.4-1.5.5-2.3.2-.7-.3-1.3-.9-1.5-1.7l-1.7-6.3c-.3-1.3 0-2.8.8-3.9zm5.4-16.6c-.7-.4-1.1-1.1-1.3-1.9-.1-.8.2-1.6.7-2.1l4.6-4.6c.9-.9 2-1.3 3.2-1.3h.6c.9.1 1.8.5 2.5 1.2l12.5 21.6-21.4-12.3c-.4-.3-.9-.4-1.4-.6zm10.6-10.1c-.4-.7-.4-1.5-.1-2.3.3-.7.9-1.3 1.7-1.5l6.3-1.7c.4-.1.8-.2 1.2-.2 1 0 1.9.3 2.7.9.8.6 1.3 1.4 1.6 2.2-.1.4-.2.9-.2 1.3v23.4L148 16.1c-.2-.4-.6-.8-.9-1.1l-.5-.8zm42.8 21.5a6.35 6.35 0 0 1-5.1 2.5h-21.5l22.3-12.9a4.04 4.04 0 0 1 4.8 2.9l.5 2c.6 1.9.2 3.9-1 5.5zm-3.3-13.3c-.1.8-.6 1.5-1.3 1.9-.5.1-.9.3-1.4.5L162 37.1l12.5-21.6c.7-.6 1.5-1.1 2.5-1.2h.6c1.2 0 2.3.5 3.2 1.3l4.6 4.6c.5.6.8 1.4.7 2.2zm-11.9-8.2-.4.8c-.3.3-.6.7-.9 1.2l-11.8 20.4V13.1c0-.4-.1-.9-.2-1.3.3-.9.8-1.7 1.6-2.2.8-.6 1.8-.9 2.7-.9.4 0 .8.1 1.2.2l6.3 1.7c.8.2 1.4.8 1.7 1.5.2.6.2 1.4-.2 2.1zm-39 41.8c.2-1.3.9-2.4 2-3l21.6-12.5-11 19a6.2 6.2 0 0 1-4.7 3.1c-2 .3-3.9-.4-5.3-1.8l-1.4-1.4c-1-.9-1.4-2.2-1.2-3.4zm12.1 6.8 12.5-21.6v22c0 2-.9 3.8-2.5 5.1s-3.6 1.6-5.5 1.1l-1.9-.5c-1.2-.3-2.2-1.2-2.7-2.4-.7-1.3-.6-2.6.1-3.7zm16.3 5.4a6.35 6.35 0 0 1-2.5-5.1V41.2l12.5 21.6c.6 1.1.7 2.4.2 3.6s-1.5 2.1-2.7 2.4l-1.9.5c-2 .5-4 .1-5.6-1.1zm14.1-5.6c-2-.3-3.7-1.4-4.7-3.1l-11-19L183.6 53a4.02 4.02 0 0 1 .8 6.4l-1.4 1.4a6.13 6.13 0 0 1-5.3 1.8zm10.1-9.8c-.7.3-1.6.2-2.3-.2l-23.3-13.5h24.4a4.57 4.57 0 0 1 4.4 5.7l-1.7 6.3c-.2.8-.8 1.4-1.5 1.7zM83.5 135c-13.5 0-24.4 10.9-24.4 24.4 0 13.5 10.9 24.4 24.4 24.4 13.5 0 24.4-10.9 24.4-24.4 0-13.5-10.9-24.4-24.4-24.4zm-19.3 16.1c.3-.4.7-.7 1.1-.9.3-.1.7-.2 1.1-.2.2 0 .4 0 .6.1l14.9 8.6H67.5c-1.3 0-2.6-.6-3.4-1.7-.8-1.1-1.1-2.4-.7-3.7v-.2c.3-.7.5-1.4.8-2zm-.6 9.4c.6-.7 1.4-1.2 2.4-1.2h16.3l-15.5 9c-.5.3-1 .3-1.5.1-.5-.2-.9-.6-1-1.1l-1.1-4.2c-.4-.9-.2-1.9.4-2.6zm3.6-11.1c-.5-.3-.8-.7-.8-1.2s.1-1.1.5-1.4l3.1-3.1c.6-.6 1.3-.9 2.1-.9h.4c.6.1 1.2.4 1.7.8l8.3 14.4-14.2-8.2c-.5-.2-.8-.3-1.1-.4zm7-6.8c-.3-.5-.3-1-.1-1.5.2-.5.6-.9 1.1-1l4.2-1.1c.3-.1.5-.1.8-.1.7 0 1.3.2 1.8.6.5.4.9.9 1 1.5-.1.3-.1.6-.1.9v15.6l-7.8-13.6c-.2-.3-.4-.5-.6-.8l-.3-.5zm28.5 14.4c-.8 1.1-2 1.7-3.4 1.7H85l14.9-8.6a2.62 2.62 0 0 1 3.2 1.9l.3 1.3c.4 1.3.1 2.6-.7 3.7zm-2.1-8.9c-.1.5-.4 1-.8 1.2-.3.1-.6.2-.9.4L84.5 158l8.3-14.4c.4-.4 1-.7 1.7-.8h.4c.8 0 1.5.3 2.1.9l3.1 3.1c.3.3.5.8.5 1.3zm-8-5.5-.3.5c-.2.2-.4.5-.6.8l-7.8 13.6v-15.6c0-.3 0-.6-.1-.9.2-.6.5-1.1 1-1.5a3 3 0 0 1 1.8-.6c.3 0 .5 0 .8.1l4.2 1.1c.5.1.9.5 1.1 1 .2.5.2 1.1-.1 1.5zm-26 27.9c.1-.9.6-1.6 1.3-2l14.4-8.3-7.3 12.6c-.7 1.1-1.8 1.9-3.1 2.1-1.3.2-2.6-.3-3.6-1.2l-.9-.9c-.6-.6-.9-1.5-.8-2.3zm8.1 4.6 8.3-14.4v14.6c0 1.3-.6 2.6-1.7 3.4-1.1.8-2.4 1.1-3.7.7l-1.3-.4c-.8-.2-1.5-.8-1.8-1.6-.3-.7-.3-1.6.2-2.3zm10.9 3.6c-1.1-.8-1.7-2-1.7-3.4v-14.6l8.3 14.4c.4.7.5 1.6.2 2.4-.3.8-1 1.4-1.8 1.6l-1.3.4c-1.4.3-2.7 0-3.7-.8zm9.4-3.8c-1.3-.2-2.5-.9-3.1-2.1l-7.3-12.7 14.4 8.3a2.74 2.74 0 0 1 .5 4.3l-.9.9c-1 1.1-2.3 1.5-3.6 1.3zm6.7-6.5c-.5.2-1 .2-1.5-.1l-15.5-9H101c.9 0 1.8.4 2.4 1.2s.8 1.7.5 2.6l-1.1 4.2c-.3.5-.6.9-1.1 1.1zm70.1-40.7-.6.3a29.15 29.15 0 0 0-12.3 39.4 29.15 29.15 0 0 0 39.4 12.3l.6-.3-27.1-51.7zm-6.8 11.7c-.1-.6.2-1.2.6-1.7l3.8-3.5c.8-.8 1.9-1.1 3-.9s2 .9 2.6 1.9l.9 1.6 8.2 15.6-18.2-11.4c-.5-.4-.8-.9-.9-1.6zm-3.9 6.3.5-1.5a3.3 3.3 0 0 1 4.9-1.8l16.8 10.6-17.5-.7c-1.6-.1-3-.9-3.9-2.1-1-1.3-1.3-3-.8-4.5zm6.5 16.4a5.09 5.09 0 0 1-7.3-3.4l-.4-1.6c-.2-1 0-2 .7-2.8.6-.8 1.6-1.2 2.6-1.2l19.8.9-15.4 8.1zm2.9 11.1c-1 .1-2-.3-2.7-1l-1.1-1.2a5.2 5.2 0 0 1-1.3-4.3 4.9 4.9 0 0 1 2.6-3.6l15.5-8.1-10.6 16.8c-.5.8-1.4 1.3-2.4 1.4zm8.9 5-1.5-.5c-1.5-.5-2.7-1.6-3.3-3.1-.6-1.5-.4-3.1.5-4.5l9.4-14.8-.8 19.9c0 1-.5 1.9-1.4 2.5-.9.6-1.9.8-2.9.5zm7.6.3c-.6.1-1.3 0-1.8-.4s-.8-1-.7-1.6l.9-21.4 8.2 15.6.9 1.6c.5 1 .6 2.1.1 3.2s-1.4 1.7-2.5 2l-5.1 1z" fill="#ffffff" stroke-width="none" opacity="1"></path><path id="SvgjsPath13545" d="M160.6 76.3c-20.4 0-37.1-16.6-37.1-37.1s16.6-37.1 37.1-37.1 37.1 16.6 37.1 37.1c-.1 20.5-16.7 37.1-37.1 37.1zm0-73.1c-19.9 0-36.1 16.2-36.1 36.1s16.2 36.1 36.1 36.1 36.1-16.2 36.1-36.1c-.1-19.9-16.2-36.1-36.1-36.1zM83.5 184.1c-13.6 0-24.7-11.1-24.7-24.7s11.1-24.7 24.7-24.7 24.7 11.1 24.7 24.7c.1 13.6-11 24.7-24.7 24.7zm0-48.8c-13.3 0-24 10.8-24 24.1s10.8 24 24 24 24-10.8 24-24c.1-13.3-10.7-24.1-24-24.1zM198.7 179l-.6.3c-14 7.4-31.5 1.9-38.8-12.1s-1.9-31.5 12.1-38.8l.6-.3-.4-.7-.6.3c-14.4 7.6-20 25.5-12.4 39.9s25.5 20 39.9 12.4l.6-.3-.4-.7z" fill="#edb018" stroke-width="none" opacity="1"></path><path id="SvgjsPath13546" d="M141.6 107.9c.1.2.2.4.4.6 8.4 12.7 25.5 16.1 38.2 7.7s16.1-25.5 7.7-38.2c-.1-.2-.3-.4-.4-.6l-45.9 30.5zM16.3 131.7c.1.1.1.3.2.4 4.5 9.2 15.7 13.1 24.9 8.6S54.5 125 50 115.8c-.1-.1-.1-.3-.2-.4l-33.5 16.3zm67.5 40.8c-.1.1-.1.3-.2.4a18.64 18.64 0 0 0 35.5 11.3c.1-.1.1-.3.1-.4l-35.4-11.3zM185.3 38.8c.1-.1.3-.1.4-.2 8.9-5.2 11.9-16.6 6.8-25.5A18.75 18.75 0 0 0 167 6.3c-.1.1-.3.2-.4.2l18.7 32.3zM80.6 5c-.1.2-.3.4-.4.6-8.1 14.6-2.9 33 11.6 41.2s33 2.9 41.2-11.6c.1-.2.2-.4.3-.7L80.6 5z" fill="#ff9624" stroke-width="none" opacity="1"></path><path id="SvgjsPath13547" d="M140 109c.1.2.2.4.4.6 9 13.6 27.4 17.3 41 8.3 13.6-9 17.3-27.4 8.3-41-.1-.2-.3-.4-.4-.6L140 109zm12.4 5.7c-.6.1-1.3-.1-1.8-.5l-3.9-3.5c-.9-.8-1.3-1.8-1.2-3 .1-1.1.7-2.1 1.6-2.8l1.6-1 14.9-9.9-9.7 19.5c-.3.6-.8 1-1.5 1.2zm6.8 3.3-1.6-.3c-1-.2-1.9-.9-2.3-1.8s-.4-2 0-2.9l9-18 1.1 17.7c.1 1.6-.5 3.2-1.8 4.2a5.3 5.3 0 0 1-4.4 1.1zm15.9-8.3a5.12 5.12 0 0 1-2.6 7.7l-1.6.5c-1 .3-2 .2-2.9-.4s-1.4-1.5-1.5-2.5l-1.2-20.1 9.8 14.8zm10.9-4.1c.2 1-.1 2.1-.8 2.8l-1.1 1.2a5.18 5.18 0 0 1-4.2 1.7c-1.6-.1-3.1-.9-3.9-2.3l-9.8-14.8 18.1 9c.9.6 1.5 1.4 1.7 2.4zm4.1-9.5-.3 1.6c-.3 1.6-1.3 2.9-2.8 3.6s-3.1.7-4.6 0l-15.9-7.9 20.1-1.2c1-.1 2 .3 2.7 1.1.7.8 1 1.8.8 2.8zm-.5-7.7c.2.6.1 1.3-.2 1.8-.4.5-.9.9-1.6.9L166 92.4l14.9-9.9 1.6-1c.9-.6 2.1-.8 3.2-.4s1.9 1.2 2.3 2.3l1.6 5zM15.1 132.3c.1.1.1.3.2.4a20.03 20.03 0 1 0 36-17.6c-.1-.1-.1-.3-.2-.4l-36 17.6zm7.8 4.9c-.4 0-.9-.1-1.1-.5l-2.3-2.7c-.5-.6-.7-1.3-.5-2.1s.6-1.4 1.3-1.7l1.1-.6 10.9-5.3-8.3 12.3c-.2.3-.6.6-1.1.6zm4.3 2.8-1-.4c-.7-.2-1.2-.7-1.4-1.4-.2-.7-.1-1.4.3-2l7.6-11.3-.8 12c-.1 1.1-.6 2.1-1.5 2.7-1.1.6-2.2.8-3.2.4zm11.3-4.1c.5 1 .5 2.1 0 3.1s-1.4 1.7-2.5 1.9l-1.1.2c-.7.1-1.4-.1-1.9-.5-.5-.5-.8-1.1-.8-1.8l1-13.6 5.3 10.7zm7.7-1.8c0 .7-.2 1.4-.8 1.8l-.8.7c-.8.7-1.9 1-3 .8s-2-.9-2.4-1.9L34 124.8l11.3 7.6c.5.4.9 1 .9 1.7zm3.6-6-.4 1c-.4 1-1.2 1.8-2.2 2.2-1 .4-2.2.2-3.1-.4l-10-6.7 13.6.9c.7.1 1.3.4 1.7 1 .6.6.6 1.3.4 2zm.4-5.3c.1.4 0 .9-.3 1.2-.3.3-.7.5-1.2.5l-14.7-1 10.9-5.3 1.1-.6c.7-.3 1.5-.3 2.2 0 .7.3 1.2 1 1.3 1.7l.7 3.5zm32.3 49.3c-.1.1-.1.3-.2.4a19.87 19.87 0 0 0 13 25.1c10.5 3.4 21.8-2.4 25.2-13 .1-.1.1-.3.1-.4l-38.1-12.1zm2.3 9c-.3-.3-.5-.7-.5-1.1l.2-3.6c0-.8.4-1.5 1.1-1.9.6-.4 1.4-.6 2.2-.3l1.2.4 11.5 3.7-14.5 3.1c-.4.1-.8 0-1.2-.3zm1.1 5-.5-1c-.3-.6-.3-1.4 0-2 .3-.6.9-1.1 1.6-1.2l13.3-2.9-8.9 8.1c-.8.7-1.9 1.1-3 .9-1.1-.3-2-1-2.5-1.9zM97 191c-.3 1-1.1 1.9-2.1 2.2s-2.2.2-3.1-.4l-.9-.6c-.6-.4-1-1-1-1.7s.2-1.4.7-1.8l10.1-9.2L97 191zm6.8 4c-.4.5-1.1.8-1.8.8l-1.1-.1a3.55 3.55 0 0 1-3.2-4.6l3.7-11.4 2.9 13.3c.1.8-.1 1.5-.5 2zm6.7-1.9-1 .5c-1 .5-2.1.5-3.1.1-1-.5-1.7-1.4-1.9-2.4l-2.6-11.7 9.2 10.1c.5.5.7 1.2.6 1.9a2 2 0 0 1-1.2 1.5zm3.9-3.5c-.2.4-.6.6-1.1.6-.4 0-.9-.1-1.2-.4l-9.9-10.9 11.5 3.7 1.2.4c.7.2 1.3.8 1.6 1.5.3.7.2 1.5-.2 2.2l-1.9 2.9zM186 40c.1-.1.3-.1.4-.2 9.6-5.6 12.8-17.8 7.2-27.4S175.8-.4 166.2 5.2c-.1.1-.3.2-.4.2L186 40zm4.3-8.2c.1.4-.1.9-.4 1.2l-2.5 2.5c-.5.5-1.3.8-2.1.7-.8-.1-1.4-.5-1.8-1.2l-.6-1.1-6.1-10.5 12.8 7.3c.4.3.7.7.7 1.1zm2.5-4.4-.3 1.1c-.2.7-.6 1.2-1.3 1.5-.6.3-1.4.2-2-.1L177.4 23h12c1.1 0 2.1.5 2.8 1.4.7.8.9 1.9.6 3zm-4.9-11.1c.9-.6 2.1-.6 3.1-.2 1 .4 1.8 1.3 2 2.3l.3 1.1c.2.7.1 1.4-.4 1.9-.4.6-1.1.9-1.8.9h-13.6l10.4-6zm-2.3-7.5c.7-.1 1.4.1 1.9.6l.8.8c.8.8 1.1 1.8 1 2.9-.1 1.1-.8 2-1.7 2.6l-10.4 6L184 9.9c.3-.6.9-1 1.6-1.1zm-6.3-3.1 1.1.3c1.1.3 1.9 1 2.3 2 .4 1 .4 2.1-.2 3.1l-6 10.4V7.9c0-.7.3-1.3.9-1.8.5-.5 1.2-.6 1.9-.4zm-5.2 0c.4-.1.9 0 1.2.2s.6.7.6 1.1v14.7l-6.1-10.4-.6-1.1c-.4-.7-.4-1.4-.1-2.2.3-.7.9-1.2 1.6-1.4l3.4-.9zM78.7 3.9c-.1.2-.3.4-.4.6-8.8 15.7-3.2 35.5 12.5 44.2s35.4 3.2 44.2-12.5c.1-.2.2-.4.3-.7L78.7 3.9zm.7 15c-.4-.6-.6-1.3-.4-2l1.4-5.6a3.9 3.9 0 0 1 2.3-2.7c1.2-.5 2.4-.4 3.5.2l1.8 1 17.1 9.6-23.9.3c-.7.1-1.3-.2-1.8-.8zm.2 8.3-.5-1.7c-.3-1.1-.1-2.2.6-3.2s1.7-1.5 2.9-1.5l22.1-.3-16.7 10c-1.5.9-3.3 1-5 .4-1.7-.6-2.9-2-3.4-3.7zm16 11.3c-.9 1.5-2.4 2.6-4.1 2.8-1.8.3-3.5-.3-4.8-1.5l-1.3-1.2c-.8-.8-1.2-1.9-1.1-3 .1-1.1.8-2.1 1.8-2.7l19-11.3-9.5 16.9zm9.5 8.7c-.9.7-2 1-3.1.7l-1.7-.4a5.56 5.56 0 0 1-3.5-8.2l9.5-17 .3 22.1c-.1 1-.6 2.1-1.5 2.8zm11.3-.9-1.7.5c-1.7.5-3.5.2-4.9-.9s-2.2-2.7-2.3-4.5l-.3-19.4 11.3 19c.6 1 .7 2.2.2 3.2-.3 1-1.2 1.8-2.3 2.1zm7.3-4.3c-.5.5-1.2.8-1.9.7-.7-.1-1.3-.5-1.7-1.1L107.9 21l17.1 9.6 1.8 1c1.1.6 1.8 1.7 2 2.9.2 1.2-.2 2.5-1.1 3.3l-4 4.2z" fill="#ffffff" stroke-width="none" opacity="1"></path><path id="SvgjsPath13548" d="M188.9 76.6c.1.2.3.4.4.6a29.15 29.15 0 1 1-48.6 32.2c-.1-.2-.2-.4-.4-.6l-.7.4c.1.2.2.4.4.6 9.1 13.8 27.8 17.6 41.6 8.4s17.6-27.8 8.4-41.6c-.1-.2-.3-.4-.4-.6l-.7.6zM50.8 114.9c.1.1.1.3.2.4a19.74 19.74 0 1 1-35.5 17.3c-.1-.1-.1-.3-.2-.4l-.5.2c.1.1.1.3.2.4 4.9 10.1 17.1 14.2 27.1 9.3S56.3 125 51.4 115c-.1-.1-.1-.3-.2-.4l-.4.3zm69.5 69.3c0 .1-.1.3-.1.4-3.3 10.4-14.4 16.1-24.8 12.8S79.3 183 82.6 172.6c.1-.1.1-.3.2-.4l-.5-.2c-.1.1-.1.3-.2.4-3.4 10.7 2.5 22.1 13.2 25.5s22.1-2.5 25.5-13.1c.1-.1.1-.3.1-.4l-.6-.2zM166.1 5.7c.1-.1.3-.2.4-.2 9.4-5.5 21.5-2.3 27 7.1a19.76 19.76 0 0 1-7.5 27.2l.3.5c.1-.1.3-.1.4-.2 9.7-5.6 13-18.1 7.3-27.7-5.6-9.7-18.1-13-27.7-7.3-.1.1-.3.2-.4.2l.2.4zm-31.2 29.7c-.1.2-.2.4-.3.7C126 51.4 106.4 57 91 48.3S70 20.2 78.7 4.8c.1-.2.2-.4.4-.6l-.8-.4c-.1.2-.3.4-.4.6-8.9 15.8-3.2 35.9 12.7 44.7s35.9 3.2 44.8-12.7c.1-.2.2-.4.3-.7l-.8-.3z" fill="#ff8603" stroke-width="none" opacity="1"></path><path id="SvgjsPath13549" d="M78.3 31c-.1.1-.3.1-.4.2-9.6 5-13.3 16.9-8.3 26.5S86.5 71 96.1 65.9c.1-.1.3-.2.4-.2L78.3 31zm44.5 165.6c.1-.1.2-.2.4-.3 8.2-7.1 9.1-19.5 2.1-27.7-7.1-8.2-19.5-9.1-27.7-2.1-.1.1-.2.2-.4.3l25.6 29.8z" fill="#ffcb39" stroke-width="none" opacity="1"></path><path id="SvgjsPath13550" d="M77.7 29.7c-.1.1-.3.1-.4.2-10.4 5.4-14.4 18.1-9 28.4s18.1 14.3 28.5 8.9c.1-.1.3-.2.4-.2L77.7 29.7zm-4.9 8.4c0-.5.1-.9.5-1.2l2.8-2.5c.6-.5 1.4-.8 2.2-.7.8.1 1.5.6 1.8 1.3l.6 1.2 5.9 11.3-13.1-8.3c-.5-.2-.7-.6-.7-1.1zm-2.9 4.6.3-1.1c.2-.7.7-1.3 1.4-1.5.7-.2 1.4-.2 2.1.2L85.9 48l-12.6-.5c-1.2 0-2.2-.6-2.8-1.5-.7-1-.9-2.2-.6-3.3zm4.7 11.8c-1 .5-2.2.6-3.2.1s-1.8-1.4-2-2.5l-.4-1.2c-.2-.7 0-1.5.5-2s1.2-.9 1.9-.8l14.3.6-11.1 5.8zm2.1 8.1c-.7.1-1.4-.2-1.9-.8L74 61c-.8-.8-1.1-2-.9-3.1.2-1.1.9-2.1 1.9-2.6l11.2-5.9-7.7 12.1c-.4.6-1.1 1-1.8 1.1zm6.4 3.5-1.1-.3c-1.1-.3-2-1.2-2.3-2.2-.4-1.1-.3-2.3.3-3.2l6.8-10.7-.6 14.3c0 .7-.4 1.4-1 1.8-.6.4-1.4.6-2.1.3zm5.6.3c-.4.1-.9 0-1.3-.3-.3-.3-.6-.7-.5-1.2l.6-15.5 5.9 11.3.6 1.2c.4.7.4 1.5.1 2.3-.3.7-1 1.3-1.8 1.4l-3.6.8zm35.1 131.3c.1-.1.2-.2.4-.3a21.06 21.06 0 0 0-27.5-31.9c-.1.1-.2.2-.4.3l27.5 31.9zm2.9-9.3c.1.4.1.9-.2 1.3l-2.1 3.1c-.5.7-1.2 1.1-2 1.1-.8.1-1.6-.3-2.1-.9l-.9-1-8.3-9.6 14.6 5.1c.5.1.8.4 1 .9zm1.7-5.1-.1 1.2c-.1.7-.4 1.4-1.1 1.8-.6.4-1.4.5-2.1.2l-13.6-4.7 12.4-2.4c1.1-.2 2.3.1 3.1.9 1 .7 1.5 1.8 1.4 3zm-7.2-10.5c.9-.8 2-1.1 3.2-.8 1.1.2 2.1 1 2.6 2l.5 1.1c.3.7.3 1.4 0 2.1-.3.7-.9 1.1-1.7 1.3l-14.1 2.7 9.5-8.4zm-3.9-7.3c.7-.2 1.5-.1 2.1.3l1 .6c.9.6 1.5 1.7 1.6 2.8.1 1.1-.4 2.2-1.3 3l-9.6 8.2 4.7-13.6c.2-.6.8-1.1 1.5-1.3zm-7.1-2.1 1.2.1c1.2.1 2.2.7 2.8 1.6.6 1 .8 2.1.4 3.2l-4.2 11.9-2.7-14.1c-.1-.7.1-1.5.6-2 .5-.4 1.2-.7 1.9-.7zm-5.4 1.1c.4-.2.9-.2 1.3 0s.7.6.8 1l2.9 15.2-8.3-9.6-.9-1c-.5-.6-.7-1.4-.6-2.2s.7-1.4 1.4-1.8l3.4-1.6z" fill="#ffffff" stroke-width="none" opacity="1"></path><path id="SvgjsPath13551" d="M97.1 66.7c-.1.1-.3.2-.4.2-10.2 5.3-22.7 1.4-28.1-8.8S67.2 35.4 77.4 30c.1-.1.3-.1.4-.2l-.3-.5c-.1.1-.3.1-.4.2-10.4 5.5-14.5 18.4-9 28.8s18.4 14.5 28.8 9c.1-.1.3-.2.4-.2l-.2-.4zm-.6 99.3c.1-.1.2-.2.4-.3 8.7-7.5 21.8-6.5 29.3 2.2s6.5 21.8-2.2 29.3c-.1.1-.2.2-.4.3l.4.4c.1-.1.2-.2.4-.3 8.9-7.7 9.9-21.2 2.2-30.1s-21.2-9.9-30.1-2.2c-.1.1-.2.2-.4.3l.4.4z" fill="#edb018" stroke-width="none" opacity="1"></path><path id="SvgjsPath13552" d="M31 56.8c-14.3 0-26-11.7-26-26s11.7-26 26-26 26 11.7 26 26-11.7 26-26 26z" fill="#ffe964" stroke-width="none" opacity="1"></path><path id="SvgjsPath13553" d="M31 2.9a27.91 27.91 0 0 0 0 55.8 27.91 27.91 0 0 0 0-55.8zM8.9 21.3c.3-.5.8-.8 1.3-1 .4-.2.8-.2 1.2-.2.2 0 .4 0 .6.1l17.1 9.9H12.6c-1.5 0-2.9-.7-3.9-1.9-.9-1.2-1.2-2.8-.8-4.2l.1-.4c.3-.8.6-1.6.9-2.3zM8.2 32c.6-.9 1.6-1.3 2.7-1.3h18.7L11.7 41c-.5.3-1.2.3-1.7.1-.6-.2-1-.7-1.1-1.3L7.6 35c-.3-1-.1-2.1.6-3zm4-12.7c-.5-.3-.9-.8-1-1.4s.1-1.2.6-1.6l3.5-3.5c.6-.6 1.5-1 2.4-1h.5c.7.1 1.4.4 1.9.9l9.5 16.5-16.3-9.4c-.3-.2-.7-.3-1.1-.5zm8.2-7.7c-.3-.5-.4-1.2-.1-1.7.2-.6.7-1 1.3-1.1l4.8-1.3c.3-.1.6-.1.9-.1.7 0 1.5.2 2.1.7.6.4 1 1 1.2 1.7-.1.3-.1.7-.1 1v17.9l-9-15.5c-.2-.3-.4-.6-.7-.9l-.4-.7zM53 28c-.9 1.2-2.3 1.9-3.9 1.9H32.7l17-9.8c.6-.1 1.3-.1 1.9.1.9.4 1.6 1.1 1.8 2.1l.4 1.5c.4 1.5.1 3-.8 4.2zm-2.5-10.1c-.1.6-.4 1.1-1 1.4a3 3 0 0 0-1 .4l-16.3 9.4 9.5-16.5c.5-.5 1.2-.8 1.9-.9h.5c.9 0 1.8.4 2.4 1l3.5 3.5c.3.5.5 1.1.5 1.7zm-9.1-6.3-.4.6c-.3.3-.5.6-.7.9l-9 15.5V10.8c0-.3 0-.7-.1-1 .2-.7.6-1.3 1.2-1.7.6-.5 1.3-.7 2.1-.7.3 0 .6 0 .9.1l4.8 1.3c.6.2 1.1.6 1.3 1.1a2 2 0 0 1-.1 1.7zM11.6 43.5c.1-1 .7-1.8 1.5-2.3l16.5-9.5-8.4 14.5c-.8 1.3-2.1 2.2-3.6 2.4s-3-.3-4.1-1.4l-1.1-1.1c-.6-.7-.9-1.6-.8-2.6zm9.3 5.2 9.5-16.5V49c0 1.5-.7 2.9-1.9 3.9s-2.8 1.2-4.2.8l-1.5-.4c-1-.2-1.7-.9-2.1-1.8-.4-.9-.3-1.9.2-2.8zm12.4 4.1c-1.2-.9-1.9-2.3-1.9-3.9V32.2l9.5 16.5c.5.8.6 1.8.2 2.8-.4.9-1.1 1.6-2.1 1.8l-1.5.4c-1.5.4-3 .1-4.2-.9zm10.8-4.2c-1.5-.2-2.8-1.1-3.6-2.4l-8.4-14.5 16.5 9.5a3.11 3.11 0 0 1 .6 4.9l-1.1 1.1c-1 1.1-2.5 1.6-4 1.4zm7.7-7.5a2 2 0 0 1-1.7-.1L32.2 30.7h18.7c1.1 0 2.1.5 2.7 1.3.7.8.9 1.9.6 3l-1.3 4.8c-.2.6-.6 1-1.1 1.3z" fill="#ffffff" stroke-width="none" opacity="1"></path><path id="SvgjsPath13554" d="M31 59C15.4 59 2.7 46.4 2.7 30.8S15.4 2.5 31 2.5s28.3 12.7 28.3 28.3S46.6 59 31 59zm0-55.7C15.8 3.3 3.5 15.6 3.5 30.8S15.8 58.3 31 58.3 58.5 46 58.5 30.8 46.2 3.3 31 3.3z" fill="#eac71b" stroke-width="none" opacity="1"></path><path id="SvgjsPath13555" d="M51.9 28c-6.7 0-12.2-5.5-12.2-12.2S45.2 3.7 51.9 3.7s12.2 5.5 12.2 12.2S58.6 28 51.9 28zM55 163.3c-6.7 0-12.2-5.5-12.2-12.2 0-6.7 5.5-12.2 12.2-12.2s12.2 5.5 12.2 12.2c-.1 6.7-5.5 12.2-12.2 12.2zm85-70.6a17.2 17.2 0 1 1 17.2-17.2c0 9.5-7.8 17.2-17.2 17.2zM95.7 200.1v-.2c-.1-5.4-4.6-9.8-10-9.8-5.4.1-9.8 4.6-9.8 10v.2l19.8-.2z" fill="#d8f94b" stroke-width="none" opacity="1"></path><path id="SvgjsPath13556" d="M51.9 2.8c-7.2 0-13.1 5.8-13.1 13.1S44.6 29 51.9 29 65 23.1 65 15.9 59.1 2.8 51.9 2.8zm-10.4 8.6c.2-.2.4-.4.6-.5.2-.1.4-.1.6-.1h.3l8 4.6h-7.7c-.7 0-1.4-.3-1.8-.9-.4-.6-.6-1.3-.4-2v-.1c.1-.3.2-.6.4-1zm-.3 5c.3-.4.8-.6 1.3-.6h8.7l-8.3 4.8c-.2.1-.5.2-.8 0-.3-.1-.5-.3-.5-.6l-.6-2.2c-.2-.5-.1-1 .2-1.4zm1.9-5.9c-.2-.1-.4-.4-.5-.7s.1-.6.3-.8l1.6-1.6c.3-.3.7-.5 1.1-.5h.2c.3 0 .6.2.9.4l4.5 7.7-7.6-4.4c-.2 0-.3-.1-.5-.1zm3.8-3.6c-.1-.2-.2-.5 0-.8.1-.3.3-.5.6-.5l2.2-.6c.1 0 .3-.1.4-.1.3 0 .7.1 1 .3.3.2.5.5.5.8 0 .2-.1.3-.1.5v8.4l-4.2-7.3c-.1-.2-.2-.3-.3-.4l-.1-.3zm15.3 7.7c-.4.6-1.1.9-1.8.9h-7.7l8-4.6c.3-.1.6-.1.9.1.4.2.7.5.8 1l.2.7c.1.6 0 1.3-.4 1.9zM61 9.8c0 .3-.2.5-.5.7-.2 0-.3.1-.5.2l-7.6 4.4 4.5-7.7c.2-.2.5-.4.9-.4h.2c.4 0 .8.2 1.1.5L60.7 9c.2.2.3.5.3.8zm-4.3-2.9-.2.3c-.1.1-.2.3-.3.4L52 14.9V6.5c0-.2 0-.3-.1-.5.1-.3.3-.6.5-.8.3-.2.6-.3 1-.3.1 0 .3 0 .4.1l2.2.6c.3.1.5.3.6.5.3.2.3.5.1.8zM42.8 21.8c.1-.5.3-.9.7-1.1l7.7-4.4-3.9 6.8c-.4.6-1 1-1.7 1.1s-1.4-.1-1.9-.6l-.5-.6c-.3-.3-.5-.7-.4-1.2zm4.3 2.4 4.5-7.7v7.8c0 .7-.3 1.4-.9 1.8-.6.4-1.3.6-2 .4l-.7-.1c-.4-.1-.8-.4-1-.9-.1-.4-.1-.9.1-1.3zm5.9 2c-.6-.4-.9-1.1-.9-1.8v-7.8l4.5 7.7c.2.4.3.9.1 1.3-.2.4-.5.7-1 .9l-.7.2c-.8.1-1.5-.1-2-.5zm5-2c-.7-.1-1.3-.5-1.7-1.1l-3.9-6.8 7.7 4.5c.4.2.7.6.7 1.1.1.5-.1.9-.4 1.2l-.5.5c-.5.4-1.2.7-1.9.6zm3.6-3.5c-.3.1-.6.1-.8 0l-8.3-4.8h8.7c.5 0 1 .2 1.3.6s.4.9.3 1.4l-.6 2.2c-.2.2-.3.5-.6.6zM55 138c-7.2 0-13.1 5.9-13.1 13.1 0 7.2 5.8 13.1 13.1 13.1s13-5.9 13-13.1c0-7.2-5.8-13.1-13-13.1zm-10.4 8.7c.2-.2.4-.4.6-.5.2-.1.4-.1.6-.1h.3l8 4.6h-7.7c-.7 0-1.4-.3-1.8-.9-.4-.6-.6-1.3-.4-2v-.1c.1-.3.2-.7.4-1zm-.3 5c.3-.4.8-.6 1.3-.6h8.7l-8.3 4.8c-.2.1-.5.2-.8.1-.3-.1-.5-.3-.5-.6l-.6-2.2c-.2-.6-.1-1.1.2-1.5zm1.9-5.9c-.2-.1-.4-.4-.5-.7s.1-.6.3-.8l1.6-1.6c.3-.3.7-.5 1.1-.5h.2c.3 0 .6.2.9.4l4.5 7.7-7.6-4.4c-.2 0-.4-.1-.5-.1zm3.8-3.7c-.1-.2-.2-.5 0-.8.1-.3.3-.5.6-.5l2.2-.6c.1 0 .3-.1.4-.1.3 0 .7.1 1 .3.3.2.5.5.5.8 0 .1-.1.3-.1.5v8.4l-4.2-7.3c-.1-.1-.2-.3-.3-.4l-.1-.3zm15.2 7.7c-.4.6-1.1.9-1.8.9h-7.7l8-4.6c.3-.1.6-.1.9.1.4.2.7.5.8 1l.2.7c.2.6.1 1.4-.4 1.9zm-1.1-4.7c0 .3-.2.5-.5.7-.2 0-.3.1-.5.2l-7.6 4.4 4.5-7.7c.2-.2.5-.4.9-.4h.2c.4 0 .8.2 1.1.5l1.6 1.6c.2.1.3.4.3.7zm-4.3-3-.2.3c-.1.1-.2.3-.3.4l-4.2 7.3v-8.4c0-.2 0-.3-.1-.5.1-.3.3-.6.5-.8.3-.2.6-.3 1-.3.1 0 .3 0 .4.1l2.2.6c.3.1.5.3.6.5.3.3.3.6.1.8zm-13.9 15c.1-.4.3-.9.7-1.1l7.7-4.4-3.9 6.8c-.4.6-1 1-1.7 1.1s-1.4-.1-1.9-.6l-.5-.5c-.3-.4-.5-.9-.4-1.3zm4.3 2.4 4.5-7.7v7.8c0 .7-.3 1.4-.9 1.8-.6.4-1.3.6-2 .4l-.7-.2c-.4-.1-.8-.4-1-.9-.1-.3-.1-.8.1-1.2zm5.8 2c-.6-.4-.9-1.1-.9-1.8v-7.8l4.5 7.7c.2.4.3.9.1 1.3-.2.4-.5.7-1 .9l-.7.2c-.7 0-1.4-.1-2-.5zm5.1-2c-.7-.1-1.3-.5-1.7-1.1l-3.9-6.8 7.7 4.4c.4.2.7.6.7 1.1.1.4-.1.9-.4 1.2l-.5.5c-.5.5-1.2.8-1.9.7zm3.6-3.6c-.3.1-.6.1-.8-.1l-8.3-4.8h8.7c.5 0 1 .2 1.3.6.3.4.4.9.3 1.4l-.6 2.2c-.2.4-.4.6-.6.7zM140 57.1c-10.2 0-18.4 8.2-18.4 18.4s8.2 18.4 18.4 18.4 18.4-8.2 18.4-18.4-8.3-18.4-18.4-18.4zm-14.7 12.1c.2-.3.5-.5.9-.7.3-.1.5-.2.8-.2.1 0 .3 0 .4.1l11.3 6.5h-10.8c-1 0-1.9-.5-2.6-1.3s-.8-1.8-.6-2.8v-.2c.2-.4.4-.9.6-1.4zm-.4 7.1c.4-.6 1.1-.9 1.8-.9H139l-11.8 6.8c-.3.2-.8.2-1.1.1s-.7-.5-.8-.9l-.8-3.2c-.2-.6-.1-1.3.4-1.9zm2.7-8.4c-.3-.2-.6-.6-.6-.9-.1-.4.1-.8.4-1.1l2.3-2.3c.4-.4 1-.7 1.6-.7h.3c.5.1.9.3 1.2.6l6.3 10.9-10.8-6.2c-.2-.1-.5-.2-.7-.3zm5.3-5.1c-.2-.3-.2-.8-.1-1.1.1-.4.5-.7.9-.8l3.2-.8c.2 0 .4-.1.6-.1.5 0 1 .2 1.4.5.4.3.6.7.8 1.1-.1.2-.1.4-.1.7v11.8l-5.9-10.3c-.1-.2-.3-.4-.4-.6l-.4-.4zm21.6 10.9c-.6.8-1.5 1.3-2.6 1.3H141l11.2-6.5c.4-.1.8-.1 1.2.1.6.2 1 .8 1.2 1.4l.3 1c.4.9.2 1.9-.4 2.7zm-1.7-6.7c-.1.4-.3.8-.6.9-.2.1-.5.1-.7.3l-10.8 6.2 6.3-10.9c.3-.3.8-.5 1.2-.6h.3c.6 0 1.2.2 1.6.7l2.3 2.3c.3.3.5.7.4 1.1zm-6-4.2-.2.4c-.2.2-.3.4-.4.6l-5.9 10.3V62.3c0-.2 0-.5-.1-.7.1-.4.4-.8.8-1.1.4-.3.9-.5 1.4-.5.2 0 .4 0 .6.1l3.2.8c.4.1.7.4.9.8 0 .4-.1.8-.3 1.1zm-19.6 21.1c.1-.6.4-1.2 1-1.5l10.9-6.3-5.5 9.6c-.5.9-1.4 1.4-2.4 1.6-1 .1-2-.2-2.7-.9l-.7-.7c-.5-.5-.7-1.2-.6-1.8zm6 3.4 6.3-10.9v11.1c0 1-.5 1.9-1.3 2.6-.8.6-1.8.8-2.8.6l-1-.3c-.6-.2-1.1-.6-1.4-1.2-.1-.6-.1-1.3.2-1.9zm8.3 2.8c-.8-.6-1.3-1.5-1.3-2.6v-11l6.3 10.9c.3.6.4 1.2.1 1.8s-.8 1-1.4 1.2l-1 .3c-.9.2-1.9 0-2.7-.6zm7.1-2.9c-1-.1-1.9-.7-2.4-1.6l-5.5-9.6 10.9 6.3c.6.3.9.9 1 1.5s-.1 1.3-.6 1.7l-.7.7c-.7.9-1.7 1.2-2.7 1zm5.1-4.9c-.4.2-.8.1-1.1-.1l-11.8-6.8h12.3c.7 0 1.4.3 1.8.9s.6 1.3.4 2l-.9 3.2c-.1.3-.4.6-.7.8zM96.4 200.1v-.2a10.6 10.6 0 0 0-21.2.2v.2l21.2-.2zm-2.7-4.2c.2.1.4.3.4.5l.5 1.8c.1.4 0 .8-.2 1.1-.2.3-.6.5-1 .5h-.7l-6.4.1 6.7-4c.3 0 .5-.1.7 0zm-1.4-2.3.4.4c.3.3.4.6.3 1 0 .4-.2.7-.6.9l-6.2 3.7 3.1-5.6a1.95 1.95 0 0 1 3-.4zm-6.4-.6c0-.6.2-1.1.7-1.5s1-.5 1.6-.3l.6.1c.4.1.7.3.8.7s.1.7-.1 1.1l-3.5 6.3-.1-6.4zm-4.1-.9c.1-.4.4-.6.8-.7l.6-.2c.6-.2 1.2-.1 1.6.3s.7.9.7 1.5l.1 6.4-3.7-6.2c-.2-.4-.2-.8-.1-1.1zm-3 2.1.4-.4c.4-.4 1-.6 1.5-.5.6.1 1.1.4 1.4.9l3.2 5.5L79 196c-.3-.2-.5-.5-.6-.9 0-.3.1-.7.4-.9zm-1.4 2.4c.1-.2.2-.4.4-.5.2-.1.4-.1.7 0l6.8 3.8-6.4.1h-.7c-.4 0-.8-.2-1-.5s-.3-.7-.2-1.1l.4-1.8z" fill="#ffffff" stroke-width="none" opacity="1"></path><path id="SvgjsPath13557" d="M51.9 2.2c-7.5 0-13.6 6.1-13.6 13.6s6.1 13.6 13.6 13.6 13.6-6.1 13.6-13.6S59.4 2.2 51.9 2.2zm0 26.2c-6.9 0-12.5-5.6-12.5-12.5S45 3.3 51.9 3.3s12.5 5.6 12.5 12.5-5.6 12.6-12.5 12.6zM55 137.5c-7.5 0-13.6 6.1-13.6 13.6s6.1 13.6 13.6 13.6 13.6-6.1 13.6-13.6-6.1-13.6-13.6-13.6zm0 26.1a12.5 12.5 0 1 1 0-25 12.5 12.5 0 0 1 0 25zm85-107.3a19.2 19.2 0 1 0 .01 38.41A19.2 19.2 0 0 0 140 56.3zm0 36.8c-9.7 0-17.7-7.9-17.7-17.7s7.9-17.7 17.7-17.7 17.6 7.9 17.6 17.7-7.9 17.7-17.6 17.7zM75.3 200.3v-.2c-.1-5.8 4.6-10.5 10.3-10.6 5.8-.1 10.5 4.6 10.6 10.4v.2h.3v-.2c-.1-5.9-4.9-10.7-10.9-10.6-5.9.1-10.7 4.9-10.6 10.9v.2l.3-.1z" fill="#8ab21b" stroke-width="none" opacity="1"></path></g><g id="svga-group-humanwrap-move" transform="matrix(1,0,0,1,0,0)"><g id="svga-group-humanwrap"><g id="svga-group-hair-back-move" transform="matrix(1,0,0,1,0,0)"><g id="svga-group-hair-back"><path id="SvgjsPath13403" d="M123.7 122c1.7 12.1 2.4 24.2 2.3 36.3 0 2.4 3.7 2.4 3.8 0 .1-12.5-.7-24.9-2.4-37.3-.4-2.4-4-1.4-3.7 1zm3.8-4.1c2.3 11.6 3.3 23.3 3.1 35.2-.1 2.4 3.7 2.4 3.8 0 .3-12.2-.8-24.2-3.2-36.2-.6-2.4-4.2-1.4-3.7 1zm7.2-6.8c-.7-2.3-4.4-1.3-3.6 1 3.9 12.1 4 25.7 3.5 38.3-.1 2.4 3.7 2.4 3.8 0 .5-12.9.3-26.9-3.7-39.3zm-59.8 10.5c-1.1 12.1-1.2 24.3-.5 36.4.1 2.4-3.6 2.6-3.8.2-.7-12.5-.5-24.9.6-37.4.2-2.4 3.9-1.6 3.7.8zm-4-3.9c-1.8 11.7-2.2 23.5-1.3 35.3.2 2.4-3.6 2.6-3.8.2-.9-12.1-.4-24.2 1.4-36.3.4-2.4 4-1.6 3.7.8zm-7.6-6.4c.6-2.3 4.3-1.5 3.7.8-3.2 12.3-2.7 25.9-1.6 38.5.2 2.4-3.5 2.6-3.8.2-1.1-12.9-1.6-26.9 1.7-39.5zM88.8 129c-1.1 12.1-1.2 24.3-.5 36.4.1 2.4-3.6 2.6-3.8.2-.7-12.5-.5-24.9.6-37.4.2-2.4 3.9-1.6 3.7.8zm-4.1-3.9c-1.8 11.7-2.2 23.5-1.3 35.3.2 2.4-3.6 2.6-3.8.2-.9-12.1-.4-24.2 1.4-36.3.4-2.4 4.1-1.6 3.7.8zm-7.5-6.4c.6-2.3 4.3-1.5 3.7.8-3.2 12.3-2.7 25.9-1.6 38.5.2 2.4-3.5 2.6-3.8.2-1.2-13-1.6-26.9 1.7-39.5zm38.6 12c1.1 12.5 1.3 24.9.6 37.4-.1 2.4-3.9 2.2-3.8-.2.7-12.1.6-24.3-.5-36.4-.2-2.4 3.5-3.2 3.7-.8zm4-3.9c1.8 12 2.3 24.1 1.4 36.3-.2 2.4-3.9 2.2-3.8-.2.9-11.8.4-23.6-1.3-35.3-.3-2.4 3.4-3.2 3.7-.8zm5.6 33.8c-.2 2.4-4 2.2-3.8-.2 1.1-12.6 1.6-26.1-1.6-38.5-.6-2.3 3.1-3.1 3.7-.8 3.3 12.7 2.9 26.7 1.7 39.5z" fill="#4e4341" stroke-width="none" opacity="1"></path><path id="SvgjsPath13404" d="M135.2 110.9c-.5-1.5-1.9-1.9-3.1-1.5-1.1.3-2 1.4-1.5 2.8 2.2 7 3.2 14.6 3.6 22-.5-5.9-1.4-11.7-2.6-17.5-.2-.8-.6-1.4-1.4-1.6-.8-.3-1.8-.1-2.5.6-.7.6-.9 1.4-.8 2.3.1.6.2 1.3.3 1.9-.5-.6-1.2-.8-1.9-.7-1.3.2-2.5 1.3-2.3 2.9 1.6 11.8 2.4 24 2.3 36.2 0 .9.4 1.6 1.1 2 .4.2.8.3 1.3.3.4 0 .9-.1 1.3-.3.7-.4 1.1-1.1 1.1-2v-4.4c.3.9 1.2 1.4 2.1 1.4h.1c1.2 0 2.4-.8 2.4-2.3v-.9c.4.4 1 .6 1.5.6h.1c1.2 0 2.4-.8 2.4-2.3.6-12.3.6-26.6-3.5-39.5zm-6.6 48.5c-.5.3-1.1.3-1.6 0-.3-.2-.6-.5-.6-1.1.1-12.3-.7-24.6-2.3-36.4-.2-1.1.7-1.7 1.4-1.8h.2c.4 0 .9.1 1 .9 1.7 12.4 2.5 25 2.4 37.2.1.7-.2 1.1-.5 1.2zm-.1-32.8c1 7.2 1.6 14.6 1.6 22-.2-7.3-.7-14.6-1.6-22zm5.3 26.4c0 .9-.7 1.3-1.4 1.3-.6 0-1.3-.4-1.3-1.3.3-11.9-.8-23.8-3.1-35.3-.1-.7.2-1.1.4-1.3.3-.3.7-.4 1.1-.4.1 0 .3 0 .4.1.4.1.6.4.7.9 2.4 11.9 3.5 24 3.2 36zm4.1-2.6c0 .9-.8 1.3-1.5 1.3-.6 0-1.3-.4-1.2-1.3.5-12.1.4-26.1-3.6-38.5-.3-.9.3-1.4.9-1.6.2-.1.3-.1.5-.1.5 0 1.1.3 1.3 1 4 12.7 4 27 3.6 39.2zm-76.8.4c.1 1.5 1.4 2.2 2.6 2.2h.1c.5-.1 1.1-.3 1.5-.6 0 .3 0 .6.1.9.1 1.5 1.3 2.2 2.5 2.2h.1c.9-.1 1.8-.6 2.1-1.6.1 1.5.1 2.9.2 4.4.1.9.5 1.6 1.2 1.9.4.2.8.3 1.3.3.4 0 .9-.2 1.3-.4.7-.4 1-1.2 1-2-.7-12.2-.5-24.5.5-36.3.1-1.6-1.1-2.7-2.4-2.8-.7-.1-1.4.2-1.9.8.1-.6.2-1.3.3-1.9.1-.9-.2-1.7-.9-2.2-.7-.6-1.7-.7-2.5-.4-.7.3-1.2.9-1.3 1.7-.9 5.8-1.4 11.7-1.7 17.6 0-7.4.6-15 2.5-22.2.4-1.5-.6-2.5-1.6-2.8-1.2-.3-2.6.2-3 1.7-3.7 12.9-3.1 27.2-2 39.5zm10.1 7.4c-.7-12.2-.5-24.8.6-37.3.1-.8.6-1 1-1h.2c.7.1 1.6.6 1.5 1.7-1 11.9-1.2 24.2-.5 36.5 0 .6-.3 1-.5 1.1-.4.3-1.1.3-1.5.1-.4-.2-.8-.5-.8-1.1zm-1.4-9.6c-.3-7.4-.2-14.8.5-22.1-.5 7.4-.6 14.8-.5 22.1zM67.7 117c.1-.5.3-.8.7-.9.1-.1.3-.1.4-.1.4 0 .8.1 1.1.4.3.2.6.6.5 1.3-1.7 11.6-2.2 23.5-1.3 35.4.1.9-.6 1.3-1.2 1.4-.7 0-1.4-.3-1.5-1.2-1-12.2-.5-24.3 1.3-36.3zm-3.9-5.6c.2-.7.7-1 1.2-1 .2 0 .3 0 .5.1.6.2 1.2.6.9 1.5-3.3 12.6-2.7 26.6-1.7 38.6.1.9-.6 1.3-1.2 1.4-.7 0-1.5-.3-1.6-1.2-.8-12.3-1.5-26.5 1.9-39.4zM75 158.2c.1 1.5 1.4 2.2 2.6 2.2h.1c.5-.1 1.1-.3 1.5-.6 0 .3 0 .6.1.9.1 1.5 1.3 2.2 2.5 2.2h.1c.9-.1 1.8-.6 2.1-1.6.1 1.5.1 2.9.2 4.4.1.9.5 1.6 1.2 1.9.4.2.8.3 1.3.3.4 0 .9-.2 1.3-.4.7-.4 1-1.2 1-2-.7-12.2-.5-24.5.5-36.3.1-1.6-1.1-2.7-2.4-2.8-.7-.1-1.4.2-1.9.8.1-.6.2-1.3.3-1.9.1-.9-.2-1.7-.9-2.2-.7-.6-1.7-.7-2.5-.4-.7.3-1.2.9-1.3 1.7-.9 5.8-1.4 11.7-1.7 17.6 0-7.4.6-15.1 2.5-22.2.4-1.5-.6-2.5-1.6-2.8-1.2-.3-2.6.2-3 1.7-3.7 12.9-3.1 27.2-2 39.5zm10 7.4c-.7-12.2-.5-24.8.6-37.3.1-.8.6-1 1-1h.2c.7.1 1.6.6 1.5 1.7-1 11.9-1.2 24.2-.5 36.5 0 .6-.3 1-.5 1.1-.4.3-1.1.3-1.5.1-.4-.2-.7-.5-.8-1.1zm-1.4-9.6c-.3-7.4-.2-14.8.5-22.1-.4 7.4-.6 14.7-.5 22.1zm-2-31.6c.1-.5.3-.8.7-.9.1-.1.3-.1.4-.1.4 0 .8.1 1.1.4.3.2.6.6.5 1.3-1.7 11.6-2.2 23.5-1.3 35.4.1.9-.6 1.3-1.2 1.4-.7 0-1.4-.3-1.5-1.2-1-12.2-.5-24.3 1.3-36.3zm-3.9-5.6c.2-.7.7-1 1.2-1 .2 0 .3 0 .5.1.6.2 1.2.6.9 1.5-3.2 12.6-2.6 26.6-1.6 38.6.1.9-.6 1.3-1.2 1.4-.7 0-1.5-.3-1.6-1.2-1-12.3-1.6-26.5 1.8-39.4zm46.5 2.3c-.4-1.5-1.8-2-3-1.7-1.1.3-2 1.3-1.6 2.8 1.9 7.1 2.5 14.7 2.5 22.2-.2-5.9-.8-11.8-1.7-17.6-.1-.8-.6-1.4-1.3-1.7-.8-.3-1.8-.2-2.5.4-.7.5-1 1.4-.9 2.2.1.6.2 1.3.3 1.9-.4-.6-1.2-.9-1.9-.8-1.3.1-2.6 1.2-2.4 2.8 1 11.9 1.2 24.1.5 36.3-.1.9.3 1.6 1 2 .4.2.8.4 1.3.4.4 0 .9-.1 1.3-.3.7-.4 1.2-1.1 1.2-1.9.1-1.5.2-2.9.2-4.4.3.9 1.2 1.5 2.1 1.6h.1c1.2.1 2.4-.7 2.5-2.2 0-.3 0-.6.1-.9.4.4.9.6 1.5.6h.1c1.2.1 2.4-.7 2.6-2.2.8-12.2 1.4-26.5-2-39.5zm-9 48c-.5.2-1.1.2-1.5-.1-.3-.2-.6-.5-.5-1.1.7-12.3.5-24.6-.5-36.5-.1-1.1.8-1.6 1.5-1.7h.2c.4 0 .9.2 1 1 1.1 12.5 1.3 25.1.6 37.3-.1.7-.5 1-.8 1.1zm1.6-32.7c.7 7.3.8 14.7.5 22.1.1-7.3-.1-14.7-.5-22.1zm4 26.6c-.1.9-.8 1.3-1.5 1.2-.6 0-1.3-.4-1.2-1.4.9-11.9.4-23.8-1.3-35.4-.1-.7.2-1.1.5-1.3.3-.2.7-.4 1.1-.4.1 0 .3 0 .4.1.4.2.6.5.7.9 1.7 12.2 2.1 24.3 1.3 36.3zm4.1-2.4c-.1.9-.9 1.3-1.6 1.2-.6-.1-1.3-.4-1.2-1.4 1.1-12 1.7-26-1.7-38.6-.2-.9.4-1.4.9-1.5.2 0 .3-.1.5-.1.5 0 1.1.3 1.2 1 3.6 13 3 27.2 1.9 39.4z" fill="#3f312e" stroke-width="none" opacity="1"></path><path id="SvgjsPath13405" d="M64.8 148.8c-.1 0-.1-.1-.2-.1.1-.1.1-.3 0-.4-.6-.6-1.3-1-1.8-1.7s-.6-1.4-1-2.1c-.1-.2-.5-.2-.5.1-.2 1.3.8 3.1 2.1 3.9-.5 0-.9 0-1.3.1-.1 0-.2.1-.2.2v.2c.1.1.2.2.3.2.4 0 .8-.1 1.2-.1s.8.2 1.1.2c.4 0 .6-.3.3-.5zm-.7-4.7-1.2-1.2c-.4-.4-1.1-1-.9-1.6.1-.2-.3-.5-.5-.3-1.2 1.3 1.3 3.1 2.3 3.4.3.1.5-.2.3-.3zm-1.1-4.4c-.3-.6-.6-1-.6-1.7 0-.4-.5-.4-.5 0 0 .7.2 1.5.8 2 .1.2.5 0 .3-.3zm.9-4.6c-.4-.5-1-.9-1.3-1.6-.4-.6-.6-1.4-.6-2.1 0-.3-.4-.4-.5-.1-.3 1.6.4 3.8 2.1 4.3.4 0 .5-.3.3-.5zm-.1-4c-.2-.4-.6-.7-.8-1.1-.3-.4-.4-.9-.5-1.4 0-.3-.5-.3-.5 0 0 1 .4 2.5 1.5 2.8.2.1.4-.1.3-.3zm-1.3-6.4c0-.4-.7-.4-.7 0 0 .9.2 2 .8 2.6.2.2.4 0 .4-.2-.2-.8-.5-1.5-.5-2.4zm6.3 27.5c-1.1-.6-2.2-1.4-2.4-2.7 0-.2-.4-.2-.4.1 0 1.4 1.1 3.2 2.7 3 .2 0 .3-.3.1-.4zm-.5-3.2c-.2-.4-.7-.7-.9-1-.3-.4-.5-.9-.6-1.4-.1-.3-.5-.2-.5.1 0 1 .6 2.7 1.8 2.8.1 0 .3-.3.2-.5zm-.7-3c-.5-.8-1-1.5-1.1-2.5 0-.3-.5-.3-.5 0 0 1 .3 2.1 1.1 2.8.3.2.7 0 .5-.3zm.5-5.7c-.7-.6-1.4-1.3-1.5-2.3 0-.3-.4-.3-.4 0 0 1.1.6 2.4 1.8 2.6 0 .1.2-.1.1-.3zm-.2-2.9c-.2-.4-.6-.8-.8-1.2-.2-.4-.4-1-.5-1.5-.1-.3-.5-.2-.5.1 0 1.1.4 2.6 1.5 3 .2.1.4-.2.3-.4zm3.6 17.6c-.4.1-.3.7.1.7s.8 0 1.2.2c.3.1.6.4.9.4.2 0 .3-.2.3-.4-.3-1-1.8-1.1-2.5-.9zm2-2c-.3-.3-.7-.5-1.1-.8-.4-.3-.7-.6-.9-1.1-.2-.3-.5 0-.4.2.4.9 1.2 2 2.2 2.1.2 0 .4-.3.2-.4zm-.4-2.1c-.2-.4-.4-.7-.7-1.1-.3-.4-.7-.8-.9-1.3-.2-.3-.7 0-.5.3.4.8 1 1.9 1.9 2.3.1.2.3 0 .2-.2zm.1-2.3c-.3-.4-.8-.7-1.1-1.1-.3-.5-.6-1-.6-1.6 0-.4-.6-.4-.6 0 0 .7.1 1.4.5 2 .3.5.9 1.1 1.5 1 .3.1.4-.1.3-.3zm-.7-4c-.1-.4-.4-.7-.6-1-.2-.4-.4-.8-.5-1.2-.1-.3-.7-.3-.6.1.1.8.5 2.2 1.4 2.5.1 0 .4-.2.3-.4zm.3-5.7c-.2-.4-.5-.6-.7-.9-.2-.3-.5-.7-.6-1.1-.1-.3-.5-.2-.5.1.2.8.6 2 1.5 2.3.2.1.3-.2.3-.4zm5.9 17.3c-.1 0-.1-.1-.2-.1.1-.1.1-.3 0-.4-.6-.6-1.3-1-1.8-1.7s-.6-1.4-1-2.1c-.1-.2-.4-.2-.5.1-.2 1.3.8 3.1 2.1 3.9-.4 0-.9 0-1.3.1-.1 0-.2.1-.2.2v.2c.1.1.2.2.3.2.4 0 .8-.1 1.2-.1s.8.2 1.2.2c.2 0 .4-.3.2-.5zm-.7-4.8-1.2-1.2c-.4-.4-1.1-1-.9-1.6.1-.2-.3-.5-.4-.3-1.2 1.3 1.3 3.1 2.3 3.4.2.2.3-.1.2-.3zm-1.1-4.3c-.3-.6-.6-1-.6-1.7 0-.4-.6-.4-.6 0 0 .7.2 1.5.8 2 .2.2.5 0 .4-.3zm.9-4.6c-.4-.5-1-.9-1.3-1.6-.4-.6-.6-1.4-.6-2.1 0-.3-.4-.4-.5-.1-.3 1.6.4 3.8 2.1 4.3.3 0 .5-.3.3-.5zm-.2-4c-.2-.4-.6-.7-.8-1.1-.3-.4-.4-.9-.5-1.4 0-.3-.5-.3-.4 0 0 1 .4 2.5 1.5 2.8.2.1.3-.1.2-.3zm-1.3-6.4c0-.4-.7-.4-.7 0 0 .9.2 2 .8 2.6.2.2.4 0 .4-.2-.1-.8-.5-1.5-.5-2.4zm6.3 27.5c-1.1-.6-2.2-1.4-2.4-2.7 0-.2-.4-.2-.4.1 0 1.4 1.1 3.2 2.7 3 .2-.1.3-.3.1-.4zm-.5-3.2c-.2-.4-.7-.7-.9-1-.3-.4-.5-.9-.6-1.4-.1-.3-.5-.2-.5.1 0 1 .6 2.7 1.8 2.8.2 0 .3-.3.2-.5zm-.6-3c-.5-.8-1-1.5-1.1-2.5 0-.3-.5-.3-.5 0 0 1 .3 2.1 1.1 2.8.3.2.6 0 .5-.3zm.4-5.7c-.7-.6-1.4-1.3-1.5-2.3 0-.3-.4-.3-.4 0 0 1.1.6 2.4 1.8 2.6.1.1.3-.1.1-.3zm-.2-2.9c-.2-.4-.6-.8-.8-1.2-.2-.4-.4-1-.5-1.5-.1-.3-.5-.2-.5.1 0 1.1.4 2.6 1.5 3 .3.1.4-.3.3-.4zm3.6 17.6c-.4.1-.3.7.1.7s.8 0 1.2.2c.3.1.6.4.9.4.2 0 .3-.2.3-.4-.2-1-1.7-1.1-2.5-.9zm2-2c-.3-.3-.7-.5-1.1-.8-.4-.3-.7-.6-.9-1.1-.2-.3-.5 0-.4.2.4.9 1.2 2 2.2 2.1.3 0 .4-.3.2-.4zm-.3-2.1c-.2-.4-.4-.7-.7-1.1-.3-.4-.7-.8-.9-1.3-.2-.3-.7 0-.5.3.4.8 1 1.9 1.9 2.3 0 .2.2 0 .2-.2zm.1-2.3c-.3-.4-.8-.7-1.1-1.1-.3-.5-.6-1-.6-1.6 0-.4-.6-.4-.6 0 0 .7.1 1.4.5 2 .3.5.9 1.1 1.5 1 .2.1.4-.1.3-.3zm-.8-4c-.1-.4-.4-.7-.6-1-.2-.4-.4-.8-.5-1.2-.1-.3-.7-.3-.6.1.1.8.5 2.2 1.4 2.5.2 0 .4-.2.3-.4zm.3-5.7c-.2-.4-.5-.6-.7-.9-.2-.3-.5-.7-.6-1.1-.1-.3-.5-.2-.5.1.2.8.6 2 1.5 2.3.2.1.4-.2.3-.4zm35.8 12.9c.4 0 .8-.1 1.2-.2s.8 0 1.2.1c.1 0 .2-.1.3-.2v-.2c0-.1-.1-.2-.2-.2-.4-.1-.8-.2-1.3-.1 1.3-.8 2.3-2.6 2.1-3.9 0-.2-.4-.3-.5-.1-.3.7-.5 1.5-1 2.1-.5.7-1.2 1.1-1.8 1.7-.1.1-.1.3 0 .4-.1 0-.1.1-.2.1-.2.2 0 .5.2.5zm.8-4.9c1.1-.3 3.5-2.2 2.3-3.4-.2-.2-.5 0-.4.3.2.6-.5 1.2-.9 1.6L123 154c-.2.1-.1.4.2.3zm1.2-4.4c.6-.5.8-1.3.8-2 0-.4-.5-.4-.6 0-.1.7-.3 1.1-.6 1.7-.1.3.2.5.4.3zm-1-4.4c1.7-.4 2.4-2.7 2.1-4.3-.1-.3-.5-.2-.5.1 0 .7-.2 1.5-.6 2.1-.3.6-.9 1-1.3 1.6-.2.2 0 .6.3.5zm.1-4.1c1.1-.4 1.5-1.9 1.5-2.8 0-.3-.4-.3-.4 0-.1.5-.2 1-.5 1.4-.2.4-.6.7-.8 1.1-.1.1 0 .3.2.3zm.5-4.4c-.1.2.2.4.4.2.7-.7.8-1.7.8-2.6 0-.4-.6-.4-.7 0 .1.9-.3 1.6-.5 2.4zm-5.6 25.5c1.6.2 2.7-1.6 2.7-3 0-.2-.4-.3-.4-.1-.2 1.3-1.3 2.1-2.4 2.7-.2.1-.1.3.1.4zm.7-3.1c1.2-.1 1.8-1.8 1.8-2.8 0-.3-.5-.4-.5-.1-.1.5-.3 1-.6 1.4-.3.4-.7.6-.9 1-.2.2-.1.5.2.5zm.8-3.2c.8-.7 1.1-1.8 1.1-2.8 0-.3-.4-.3-.5 0-.1.9-.6 1.7-1.1 2.5-.1.3.2.5.5.3zm-.7-5.7c1.2-.2 1.8-1.5 1.8-2.6 0-.3-.4-.3-.4 0-.1 1-.8 1.7-1.5 2.3-.3.2-.1.4.1.3zm.3-2.8c1.1-.5 1.6-1.9 1.5-3 0-.3-.5-.4-.5-.1-.1.5-.2 1-.5 1.5-.2.4-.6.8-.8 1.2-.1.2 0 .5.3.4zm-6.4 18.1c0 .2.1.4.3.4.4 0 .6-.2.9-.4.4-.2.8-.2 1.2-.2.4 0 .5-.6.1-.7-.8-.2-2.3-.1-2.5.9zm.7-2.5c1 0 1.8-1.2 2.2-2.1.1-.3-.2-.5-.4-.2-.2.4-.6.8-.9 1.1-.3.3-.8.5-1.1.8-.2.1-.1.5.2.4zm.5-2.2c.9-.4 1.5-1.5 1.9-2.3.2-.3-.3-.6-.5-.3-.3.4-.6.9-.9 1.3-.3.3-.6.6-.7 1.1-.2.1 0 .3.2.2zm-.2-2.2c.6.1 1.2-.6 1.5-1 .4-.6.6-1.3.5-2 0-.4-.6-.4-.6 0 0 .6-.2 1.1-.6 1.6-.3.4-.8.6-1.1 1.1 0 .1.1.3.3.3zm.8-4c.9-.2 1.3-1.7 1.4-2.5 0-.4-.5-.4-.6-.1-.1.4-.3.9-.5 1.2-.2.3-.5.6-.6 1-.1.2.1.4.3.4zm-.3-5.7c.9-.3 1.3-1.5 1.5-2.3.1-.3-.3-.4-.5-.1-.1.4-.4.8-.6 1.1-.2.3-.6.6-.7.9-.1.2.1.5.3.4zm14.9 7.4c-.6-.4-1.3-.6-1.8-1.1-.6-.5-1.1-1.1-1.3-1.8-.1-.3-.5-.2-.5.1.3 1.6 1.8 3.5 3.6 3.2.2.1.2-.2 0-.4zm-1.1-3.7c-.3-.4-.7-.6-1-1-.3-.4-.5-.9-.6-1.4-.1-.3-.6-.2-.5.1.1 1.1.8 2.6 2 2.7.1 0 .2-.3.1-.4zm-.3-3.2c-.2-.4-.6-.7-.9-1.1-.3-.4-.5-.9-.7-1.4-.1-.3-.6-.2-.5.1.2 1 .8 2.2 1.8 2.6.3.2.4 0 .3-.2zm1.1-6.4c-.7-.4-1.4-.7-2-1.3-.6-.6-1.1-1.3-1.4-2.1-.1-.2-.5-.2-.4.1.3 1.6 1.8 3.6 3.6 3.7.4.1.4-.3.2-.4zm-.9-3.7c-.4-.4-1-.6-1.4-1-.4-.5-.7-1.1-.9-1.7-.1-.2-.4-.2-.4.1.1 1.2 1 3.1 2.5 3.1.2 0 .3-.3.2-.5zm-1.4-3.2c-.5-.5-1-1-1.4-1.7-.1-.2-.4 0-.3.2.4.7.9 1.3 1.5 1.7.1.1.3-.1.2-.2zm-.1-5.2c-.1-.3-.3-.5-.5-.7-.1-.2-.3.1-.2.2.2.2.3.4.6.6.1.1.2 0 .1-.1zm6.7 19.9c-.4-.4-.9-.6-1.2-1.1-.3-.5-.5-1.1-.4-1.7 0-.2-.3-.2-.4-.1-.3 1.3.4 3.1 1.9 3.3.1 0 .2-.3.1-.4zm-.1-4.3c-.2-.3-.5-.6-.7-.9-.2-.3-.4-.6-.6-1-.1-.2-.5-.1-.4.2.3.7.7 1.6 1.4 2 .1.2.4-.1.3-.3zm-.1-6.2c-.4-.4-.8-.7-1.1-1.1-.4-.4-.6-1-.8-1.5-.1-.2-.4-.2-.4.1.1 1.2.8 2.6 2.1 3 .2 0 .4-.3.2-.5zm-.7-3.6c-.2-.3-.6-.6-.8-.9-.3-.4-.5-.8-.6-1.2-.1-.3-.5-.2-.5.1.1.9.6 2.1 1.6 2.4.2 0 .4-.2.3-.4zm-1.8-4.7c-.1-.2-.4 0-.3.2.2.4.4.9.7 1.3.1.1.3.1.3-.1-.2-.5-.4-.9-.7-1.4zm6.3 14.8c-.6-.6-1.1-1.2-1.1-2.2 0-.2-.4-.2-.4 0-.1.9.4 2.1 1.3 2.5.2.2.4-.1.2-.3zm.3-3.7c-.2-.4-.5-.7-.8-1.1-.2-.4-.4-.9-.6-1.3-.1-.2-.4-.2-.4.1.1 1 .4 2.2 1.3 2.8.4.1.7-.2.5-.5zm-.1-4.2c-.5-.9-1.1-1.6-1.4-2.6-.1-.3-.5-.1-.4.1.2 1 .7 2.1 1.5 2.7.1.3.4.1.3-.2zm.2-4.9c-.7-.4-1.4-.6-1.9-1.4-.1-.2-.5 0-.4.2.4.8 1.2 1.7 2.2 1.6.2 0 .2-.3.1-.4zm-.3-7.3c-.1-.3-.5-.2-.4.1.4 1.3.1 3.1-1.3 3.7-.2.1-.2.3 0 .4.8.2 1.4-.5 1.7-1.2.4-.9.4-2 0-3zm-.9.1c-.6 0-1.3.2-1.6-.6-.1-.3-.6-.2-.5.2.2.8 1.6 1.7 2.3.8.1-.2 0-.4-.2-.4zm-.9-5.7c-.1-.2-.3-.2-.4 0-.2.5-.5.9-1 .6-.2-.1-.4.3-.2.4.7.3 1.8-.2 1.6-1z" fill="#5d5857" stroke-width="none" opacity="1"></path></g></g><g id="svga-group-humanbody-back"><path id="SvgjsPath13183" d="M166.5 181.1c-10.9-6.6-27.6-8.4-35-12.1-4.9-2.5-9.1-4.7-8.9-17.8s1.9-42.4 1.9-42.4H75.4s1.6 29.4 1.9 42.4-4.2 15.6-8.9 17.8c-7.4 3.5-24.1 5.4-35 12.1-10.8 6.6-10 18.9-10 18.9v19.7h153.3V200c-.1 0 .7-12.3-10.2-18.9z" fill="#ffd0bc" stroke-width="none" opacity="1"></path></g><g id="svga-group-chinshadow-single"><path id="SvgjsPath13502" d="M77.2 155.9c7 5.3 16 11.1 22.8 11.1 6.8 0 15.8-5.8 22.8-11-.1-1.4-.2-3-.2-4.8.2-13.1 1.9-42.4 1.9-42.4H75.4s1.6 29.4 1.9 42.4c0 1.8 0 3.3-.1 4.7z" fill="#e09879" stroke-width="none" opacity="0.65"></path></g><g id="svga-group-humanbody-front"><path id="SvgjsPath13184" d="M78.7 156.8c.5 4.8 1.7 9.4 3.1 13.9.8 2.3 1.6 4.6 2.6 6.9.8 2 1.7 4.2 3.1 5.9.3.4 1 0 .9-.5-.5-2.2-1.6-4.3-2.4-6.4-.9-2.2-1.7-4.4-2.5-6.6-1.5-4.4-2.8-8.9-4.1-13.3-.2-.4-.8-.3-.7.1zm41.3-1c-1.3 8.2-3.9 16.1-5.4 24.2-.1.4.4.5.6.2 3.1-7.7 4.1-16.1 5.1-24.3-.1-.2-.3-.2-.3-.1zm-25.8 11.9c-.9 3.6 1.9 8.6 6.2 7.6.5-.1.4-.8 0-1-1.4-.5-2.9-.9-3.9-2.1-1.1-1.2-1.5-2.9-1.4-4.5 0-.4-.8-.5-.9 0z" fill="#e09879" stroke-width="none" opacity="1"></path><path id="SvgjsPath13185" d="M177.3 219.7c-.1-6.6-.3-13.1-.3-19.7l-.3-.3c.1 0 .1 0 .2.1s.1.2.1.1v-1.4c0-.5-.1-.9-.1-1.4-.1-.9-.3-1.9-.5-2.8-.5-1.8-1.1-3.6-2-5.3-1.7-3.4-4.4-6.2-7.7-8.1-3.6-2.2-7.6-3.8-11.6-5.1-4-1.3-8.1-2.4-12.1-3.5-4-1.2-8.1-2.2-11.8-4.2-1.9-1-3.6-2.1-4.8-3.6-1.2-1.6-1.9-3.5-2.3-5.5-.8-4-.4-8.2-.3-12.4l.7-12.6 1.5-25.2.1-1.4h-1.4c-8.2 0-16.4 0-24.6.1l-24.6.3h-.9l.1.9c.8 11.9 1.6 23.8 2.1 35.7.1 3 .3 6 .2 8.9-.1 2.9-.4 5.9-1.6 8.6-.6 1.3-1.4 2.5-2.4 3.5s-2.3 1.8-3.6 2.4c-2.6 1.3-5.4 2.2-8.3 3-5.8 1.5-11.6 2.8-17.3 4.7-2.8.9-5.7 2-8.4 3.4-1.3.7-2.7 1.4-4 2.4-1.3.9-2.4 1.9-3.5 3.1-2.1 2.3-3.6 5.2-4.5 8.1-.5 1.5-.8 3-1 4.6-.1.8-.1 1.6-.1 2.4v2.3l-.2 17.9v1.3h1.4l38.3.2c12.8.1 25.5.1 38.3 0 12.8-.1 25.6-.1 38.3-.3 12.8-.2 25.6-.5 38.3-.7h.6v-.5zm-77.2-1.6H61.8l-37 .2-.1-16.6v-2.2c0-.7 0-1.4.1-2.1.1-1.4.4-2.8.8-4.2.8-2.7 2.1-5.3 3.9-7.5.9-1.1 2-2.1 3.1-2.9 1.1-.9 2.4-1.6 3.7-2.3 2.6-1.4 5.3-2.5 8.1-3.5 5.6-2 11.4-3.4 17.1-5.1 2.9-.8 5.8-1.7 8.5-3.1 1.3-.7 2.7-1.5 3.8-2.6 1.1-1.1 2-2.4 2.6-3.9 1.2-2.9 1.5-5.9 1.6-8.9 0-3-.1-6-.2-9l-1.3-34.8 23.5.4c7.7.1 15.4.1 23.1.1-.4 7.9-.8 15.9-1.1 23.8-.2 4.2-.2 8.4-.3 12.6 0 4.2-.2 8.5.8 12.8.5 2.1 1.3 4.2 2.8 6 1.4 1.7 3.4 2.9 5.3 3.8 3.9 1.9 8 2.8 12.1 3.8s8.2 2 12.2 3.3c4 1.3 7.9 2.8 11.5 5 3.2 1.9 5.8 4.7 7.5 8 .9 1.6 1.5 3.4 1.9 5.2.2.9.4 1.8.4 2.7.1.5.1.9.1 1.4V200l-.3 19c-12.6-.2-25.1-.5-37.7-.7-12.7-.1-25.5-.1-38.2-.2z" fill="#d17f5b" stroke-width="none" opacity="1"></path></g><g id="svga-group-clothes-single"><path id="SvgjsPath13506" d="M129.8 165.2c-1.6-4-5.9-16.6-5.9-16.6-1.3 3.6-4.1 12-9 16-4.3 3.6-13 11.4-14.8 13-1.8-1.6-10.5-9.4-14.8-13-4.9-4-7.6-12.2-8.9-15.8 0 0-4.4 12.4-6 16.5 0 0 6.3 26.5 8.6 31.5 0 0 .1-.1.2-.4.3 2.6.7 5.1 1.3 7.3 2.9 10.7 8.6 17.9 8.6 17.9h21.7s10.3-13.7 11.6-23.8c.2-1.9.4-3.9.4-5.8 2.8-9.3 7-26.8 7-26.8z" fill="#ffffff" stroke-width="none" opacity="1"></path><path id="SvgjsPath13507" d="M96 196.2s-5.3-10.6-5.9-13.8c0 0 11.2-12.1 20.3 1.1l-5.2 12.7s3.3 17.4 3.3 23.9H92.1s1.3-16.5 3.9-23.9z" fill="#222222" stroke-width="none" opacity="1"></path><path id="SvgjsPath13508" d="M110.8 183.2c-2.7-3.9-5.9-6.1-9.5-6.4-6.3-.5-11.4 5-11.6 5.2-.1.1-.2.3-.1.4.5 3 5.1 12.2 5.8 13.7-2.6 7.5-3.8 23.2-3.9 23.8 0 .1 0 1.3.1 1.4s.2.2.4.2h16.4c.3 0 .5-1.2.5-1.5 0-6.3-2.9-22-3.3-23.9l5.2-12.5c.1 0 .1-.2 0-.4zm-6.1 12.8c0 .1-.1.2 0 .3 0 .2 3.1 16.5 3.3 23.3H92.6c.2-2.9 1.6-16.7 3.9-23.2.1-.1 0-.3 0-.4-.1-.1-5.1-10-5.8-13.4.9-.9 5.5-5.1 10.6-4.7 3.2.2 6.1 2.1 8.6 5.7l-5.2 12.4z" fill="#87c5cf" stroke-width="none" opacity="1"></path><path id="SvgjsPath13509" d="M97.1 188.9c-.9 2.4 1.6 7 1.6 7 .5-4.1-.7-9.4-1.6-7zm6.4-1.6c-1.7.7-1.8 7.9-1.8 7.9 1.8-2.8 3.5-8.6 1.8-7.9zm-.8 14.9c0 1.1.2 5.5 1.4 4.1 1.2-1.4-1.2-7.8-1.2-7.8s-.2 2.6-.2 3.7zm-3.7 2.9c-.5 3.9 1.4 5.2 1.7 2.4.3-2.8-.3-9.2-.3-9.2s-.9 2.9-1.4 6.8zm-2.2-1.4c.7 1.4 1.4-3.3 1.2-5 0-.1-1.9 3.6-1.2 5z" fill="#000000" stroke-width="none" opacity="1"></path><path id="SvgjsPath13510" d="M71.3 157.1s-10.6 8-16.5 10.6l2.3 2.6s-22.3 5.2-26.9 6.7-6.7 3.6-6.7 3.6-1.7-1.3-4.2.2-3.6 39.4-3.6 39.4h72.6s-10.9-23.9-17.6-58.4c.1-.1.6-2.6.6-4.7zm112.9 63s-1.1-37.9-3.6-39.4-4.2-.2-4.2-.2-2.1-2.1-6.7-3.6-26.9-6.7-26.9-6.7l2.3-2.6c-5.9-2.5-16.5-10.6-16.5-10.6 0 2.1.6 4.6.6 4.6-6.7 34.5-17.6 58.4-17.6 58.4l72.6.1z" fill="#cbe9ee" stroke-width="none" opacity="1"></path><path id="SvgjsPath13511" d="M184.1 198c-.3-3.7-.6-7.4-1.1-11-.3-1.9-.5-3.7-1.1-5.6-.1-.2-.2-.5-.4-.8-.1-.1-.2-.3-.4-.4l-.4-.2c-.4-.2-.9-.4-1.5-.5-.9-.2-1.8-.1-2.7.3-2.4-1.9-5.1-2.9-7.8-3.6-2.9-.8-5.8-1.4-8.6-2.1l-16.7-4 2-2.1.1-.1c.1-.2 0-.4-.2-.5-1.5-.6-2.9-1.5-4.2-2.3-1.4-.9-2.7-1.8-4.1-2.7-2.7-1.9-5.3-3.8-7.9-5.8-.1-.1-.3-.2-.4-.2l-1.2.3s-3-7.8-3.7-8.7c-.6 1.3-1.4 4.2-4 9.4-1.1 1.9-3 4.5-5.5 6.5-2.7 2.1-5.2 4.3-7.7 6.5-2.2 1.9-4.3 3.9-6.4 5.8-2.1-1.9-4.2-3.9-6.4-5.8-2.5-2.2-5.1-4.4-7.7-6.4-7.4-6.9-7.1-10-9.2-15-.3-.5-.5-.5-.5-.5l-3.8 7.9c-.2-.1-1.4 0-1.6.1-2.6 2-5.2 3.9-7.8 5.8-1.3.9-2.7 1.8-4.1 2.7-1.4.9-2.8 1.7-4.2 2.3 0 0-.1 0-.1.1-.2.1-.2.4 0 .5l2 2.1-16.7 4c-2.9.7-5.7 1.4-8.6 2.1-2.8.7-5.5 1.8-7.8 3.6-.9-.4-1.8-.5-2.7-.3-.5.1-1 .3-1.5.5-.1.1-.2.1-.4.2l-.4.4c-.2.3-.3.5-.4.8-.6 1.9-.9 3.7-1.1 5.6-.5 3.7-.8 7.4-1.1 11-.5 7.4-.9 14.7-1.2 22.1 0 .6.5 1.1 1.1 1.1 12.2 0 24.9.5 37.1.3l36.2.1c-.1-.4-.8-2.1-.9-2.4l-.3-.9-.7-1.8c-.4-1.2-.9-2.4-1.3-3.6-.8-2.4-1.7-4.8-2.5-7.2-1.2-3.5-2.2-7-3.3-10.5.9-1.6 1.9-3.2 3-4.7.8-1 1.6-1.9 2.4-2.8.4-.4.9-.8 1.4-1.2l1.5-1.2c1-.8 1.9-1.7 2.8-2.7.4-.5.9-1 1.2-1.5.2-.2.4-.5.6-.6.1-.1.3-.3.6-.4.9-.5 2.1-.9 3.3-1.2.6-.1 5.7-.1 6.3 0 1.2.3 2.3.6 3.3 1.2.2.1.4.3.6.4l.6.6 1.2 1.5c.9 1 1.8 1.8 2.8 2.7l1.5 1.2c.5.4.9.8 1.4 1.2.9.8 1.7 1.8 2.4 2.8 1.1 1.5 2.1 3.1 3 4.7-1.1 3.5-2.1 7-3.3 10.5-.8 2.4-1.6 4.8-2.5 7.2-.4 1.2-.9 2.4-1.3 3.6l-.7 1.8-.3.9c-.1.3-1 1.9-1.1 2.4l36.7-.7c12.2.2 24.5.4 36.7.3.6 0 1-.5 1-1.1-.4-7.3-.8-14.6-1.3-22zM16.9 219c.2-7 .4-14 .8-20.9.2-3.7.5-7.3.9-10.9.2-1.8.4-3.7.9-5.3.1-.2.1-.4.2-.5 0-.1.1-.1 0-.1 0 0 .1-.1.2-.1.4-.2.7-.4 1.1-.4.7-.2 1.6-.1 2.1.2.2.1.5.1.6 0 1.8 2.7 3.1 5.6 4 8.6.5 1.6.8 3.2 1 4.9.2 1.7.5 3.3.6 5l1.1 10.1c.4 3.1.8 6.3 1.3 9.4H16.9zm34.8.4-19.6-.3c.2-3.2.2-6.4.1-9.6-.1-3.4-.3-6.8-.7-10.3-.2-1.7-.4-3.4-.8-5.1-.3-1.7-.8-3.4-1.4-5.1-1.2-3.1-3-5.9-5.4-8.1 1-.9 2.2-1.7 3.5-2.3 1.3-.6 2.6-1.1 4.1-1.6 2.8-.8 5.7-1.6 8.5-2.3 5.7-1.4 11.5-2.9 17.2-4.1.6.6 1.2 1.1 2 1.6-.2.2-.5.3-.7.5-1.2.8-2.5 1.6-3.7 2.3-.3.2-.5.6-.4 1 1.5 3.8 3.1 7.6 4.7 11.4 1.6 3.8 3.3 7.5 5 11.2 1.8 3.7 3.6 7.4 5.5 11 1 1.8 1.9 3.6 3 5.4 1 1.7 2 3.3 3.1 4.9l-24-.5zm33.5-6.2c.5 1.2 1 2.4 1.5 3.5.3.6.5 1.2.8 1.7l.4.9c.2.3.2.6.4.8l-12.4-.2c-1.8-3.6-3.4-7.2-5-10.8L66 197.7l-5-11.2-4.8-10.6c2.3-1.5 4.5-3.2 6.6-4.9 1.1-.9 2.3-1.9 3.4-2.9s2.2-1.9 3.3-3c-2.4 1.7-4.8 3.4-7.3 5-.9.6-1.7 1.2-2.6 1.8-.5-.8-1.1-1.5-1.7-2.2-.7-.6-1.3-1.2-2.2-1.7l-.3-.3c1.4-.6 2.7-1.3 4-2 1.4-.8 2.8-1.7 4.2-2.5 2.3-1.5 4.6-3 6.8-4.6-.1 1-.3 1.9-.5 2.9v.3c.9 5 2 10 3.3 15 1.2 5 2.6 9.9 4.1 14.7s3.2 9.7 5 14.5c.9 2.5 1.9 4.8 2.9 7.2zm11.2-36.1c-1.3.4-2.5.8-3.8 1.5-.3.2-.6.4-.9.7-.2.3-.4.5-.6.8-.4.5-.8 1-1.1 1.5-.8.9-1.6 1.8-2.5 2.6-.4.4-.9.9-1.4 1.3-.5.4-1 .9-1.4 1.4-.9 1-1.6 2-2.4 3.1-.9 1.4-1.8 2.9-2.5 4.3-.3-1-.6-2.1-.9-3.1-1.4-4.9-2.7-9.8-3.9-14.7-1.2-4.7-2.2-9.4-3.2-14.1.1-.3.1-.6.2-1 .2-1.4 1.8-4.9 2.8-7.6l1.5-4.7c0 .1.6 2.1 1.5 5.2 1.4 3.6 4.6 8.6 7.2 10.9 2.5 2.2 4.7 4.6 7.2 6.9l5.5 4.9c-.5-.1-.9 0-1.3.1zm21.3 12.8c-.7-1.1-1.5-2.1-2.4-3.1-.4-.5-.9-.9-1.4-1.4-.5-.4-.9-.8-1.4-1.3-.9-.9-1.8-1.7-2.5-2.6-.4-.5-.7-.9-1.1-1.5-.2-.3-.4-.5-.6-.8-.3-.3-.6-.5-.9-.7-1.2-.7-2.5-1.1-3.8-1.5-.4-.1-.8-.2-1.3-.3l5.5-4.9c2.5-2.2 4.6-4.4 7.1-6.6 5-4.9 6.6-9.1 7.5-11.9 1.1-3.5 1.3-4.1 1.3-4.2 0 0 1.1 3.2 2.1 6.1.7 2 2.3 6.7 2.3 7-1 4.7-2 9.4-3.2 14.1-1.2 4.9-2.5 9.8-3.9 14.7-.3 1.1-.6 2.1-.9 3.1-.7-1.3-1.5-2.8-2.4-4.2zm-6 30.2c.2-.1.3-.5.4-.8l.4-.9c.3-.6.5-1.2.8-1.7.5-1.2 1-2.3 1.5-3.5 1-2.4 2-4.7 2.8-7.1 1.8-4.8 3.5-9.6 5-14.5s2.9-9.8 4.1-14.7c1.3-4.9 2.3-9.9 3.3-15v-.3c-.2-.9-.4-1.9-.5-2.9 2.2 1.6 4.5 3.1 6.8 4.6 1.4.9 2.8 1.7 4.2 2.5 1.3.7 2.6 1.4 3.9 2l-.3.3c-.8.5-1.5 1.1-2.1 1.7-.6.6-1.2 1.4-1.7 2.2-.9-.6-1.8-1.1-2.6-1.8-2.4-1.6-4.8-3.4-7.3-5l3.3 3c1.1 1 2.2 1.9 3.4 2.9 2.1 1.7 4.2 3.4 6.6 4.9l-4.8 10.6-5 11.2L129 209c-1.6 3.6-3.2 7.3-5 10.8l-12.3.3zm36.6-.7-24.2.5c1.1-1.6 2.2-3.2 3.1-4.9 1.1-1.8 2-3.6 3-5.4 1.9-3.6 3.7-7.3 5.5-11 1.7-3.7 3.4-7.4 5.1-11.2 1.6-3.8 3.2-7.5 4.7-11.4.1-.4 0-.8-.4-1-1.2-.7-2.5-1.5-3.7-2.3-.2-.2-.5-.3-.7-.5.8-.4 1.4-1 2-1.6 5.8 1.3 11.5 2.7 17.2 4.1 2.9.7 5.7 1.5 8.5 2.3 1.4.4 2.8.9 4.1 1.6 1.3.6 2.5 1.4 3.5 2.3-2.4 2.2-4.1 5.1-5.4 8.1-.7 1.6-1.1 3.4-1.4 5.1-.3 1.7-.6 3.4-.8 5.1-.4 3.4-.6 6.8-.7 10.3-.1 3.2-.1 6.4.1 9.6-6.4 0-12.9.1-19.5.3zm19.7-.3c.5-3.1.9-6.3 1.3-9.4l1.1-10.1c.2-1.7.4-3.4.6-5 .2-1.7.6-3.3 1.1-4.9.9-3 2.2-5.9 4-8.6.2.1.4.1.6 0 .5-.3 1.4-.4 2.1-.2.4.1.8.2 1.1.4.1 0 .2.1.2.1v.1c.1.1.1.3.2.5.5 1.6.7 3.5.9 5.3.4 3.6.6 7.3.9 10.9.4 7 .7 13.9.8 20.9-4.8-.1-9.8-.1-14.9 0z" fill="#87c5cf" stroke-width="none" opacity="1"></path></g><g id="svga-group-head" transform="matrix(1,0,0,1,0,0)"><g id="svga-group-ears-left-move" transform="matrix(1,0,0,1,0,0)"><g id="svga-group-ears-left"><path id="SvgjsPath13073" d="M58.8 91.7s-2.6-4.9-5.3-5.7-4.4.7-3.9 6.6 5.2 23.2 10.6 22.2c5.4-1.1.9-19.6-1.4-23.1z" fill="#ffd0bc" stroke-width="none" opacity="1"></path><path id="SvgjsPath13074" d="M59.8 93.6c.3.7.6 1.5.8 2.2.5 1.5 1 3.1 1.4 4.8.4 1.6.7 3.4.9 5.2.1.9.2 1.8.2 2.7 0 .9 0 1.8-.1 2.8-.1.9-.3 1.8-.7 2.5-.3.7-.8 1.2-1.2 1.5-.9.5-1.9.4-2.8-.1-.9-.5-1.8-1.5-2.6-2.7s-1.4-2.5-2-4c-.6-1.4-1.1-3-1.6-4.5s-1-3.1-1.4-4.7-.8-3.3-1.1-5-.5-3.6-.3-5.4c.1-.9.3-1.8.7-2.4s.8-1 1.3-1.2.9-.2 1.4-.1.9.3 1.4.6c.9.6 1.7 1.5 2.5 2.5s1.5 2.2 2.2 3.4c.4.5.7 1.2 1 1.9zm-3.2-5c-.8-.9-1.6-1.6-2.5-1.9-.8-.3-1.7-.4-2.5-.1-.4.2-.7.4-1 .9s-.5 1.1-.6 1.8c-.2 1.4-.2 3.2.1 4.8.2 1.7.5 3.3.9 5 .8 3.2 1.8 6.3 3.1 8.9.6 1.3 1.3 2.5 2 3.5s1.5 1.8 2.3 2.2c.4.2.8.3 1.2.3s.8-.1 1.2-.4c.3-.2.7-.6.9-1.1s.4-1.2.5-1.9c.2-1.4.1-3.1 0-4.8-.1-1.7-.4-3.3-.7-5s-.7-3.3-1.1-4.9c-.4-1.6-1-3.1-1.7-4.3-.6-1-1.3-2.1-2.1-3z" fill="#f0b399" stroke-width="none" opacity="1"></path><path id="SvgjsPath13075" d="M52.4 89.6c2.3 1.5 4.4 5.7 5.4 9.9v.1c0 .3-.2.4-.2.1-.4-1.2-.9-1.2-1.5 0-.1.8-.1 1.5.1 2.3.2.7.4 1.4.7 2 .5 1.2 1.2 2.1 1.8 3.1.2.3 0 .7-.2.6-1.4-1.1-3.4-4.7-3-7.8.2-1.5 1-2.3 1.6-1.7-.8-2.1-1.7-4-2.8-5.5-.6-.8-2-2.7-2.7-2.4-1.3.6-.6 4.8-.5 6.6 0 .3-.2.4-.3.1-.7-3.3-.8-9 1.6-7.4z" fill="#e09879" stroke-width="none" opacity="1"></path><path id="SvgjsPath13076" d="M58 108.6c-2.4-.9-4.2-4.8-5.2-9-.6-2.6-1.8-8.6.5-8.5.2 0 .3.5.1.6-2.2 1.1.2 9.2.9 11.1 1 2.6 2.2 4.4 3.8 5.4.1.1 0 .5-.1.4z" fill="#e09879" stroke-width="none" opacity="1"></path></g></g><g id="svga-group-ears-right-move" transform="matrix(1,0,0,1,0,0)"><g id="svga-group-ears-right"><path id="SvgjsPath13077" d="M141.2 91.7s2.6-4.9 5.3-5.7 4.4.7 3.9 6.6-5.2 23.2-10.6 22.2c-5.4-1.1-.9-19.6 1.4-23.1z" fill="#ffd0bc" stroke-width="none" opacity="1"></path><path id="SvgjsPath13078" d="M141.1 91.7c.7-1.2 1.4-2.4 2.2-3.4s1.6-1.9 2.5-2.5c.5-.3.9-.5 1.4-.6s.9-.1 1.4.1.9.5 1.3 1.2c.4.6.6 1.5.7 2.4.2 1.8 0 3.7-.3 5.4-.3 1.7-.7 3.4-1.1 5-.4 1.6-.9 3.2-1.4 4.7s-1 3.1-1.6 4.5-1.3 2.8-2 4c-.8 1.2-1.6 2.2-2.6 2.7-.9.5-1.9.7-2.8.1-.5-.3-.9-.8-1.2-1.5s-.5-1.6-.7-2.5c-.1-.9-.1-1.8-.1-2.8 0-.9.1-1.8.2-2.7.2-1.8.5-3.5.9-5.2s.9-3.2 1.4-4.8c.3-.8.5-1.5.8-2.2.4-.7.7-1.4 1-1.9zm.1.1c-.7 1.2-1.2 2.7-1.7 4.3-.4 1.6-.8 3.2-1.1 4.9-.3 1.7-.5 3.3-.7 5-.1 1.6-.2 3.3 0 4.8.1.7.3 1.4.5 1.9s.6.9.9 1.1c.3.3.8.3 1.2.4.4 0 .8-.1 1.2-.3.8-.4 1.6-1.2 2.3-2.2s1.4-2.2 2-3.5c1.3-2.6 2.3-5.7 3.1-8.9.4-1.6.7-3.3.9-5 .2-1.6.3-3.4.1-4.8-.1-.7-.3-1.3-.6-1.8-.3-.4-.6-.7-1-.9-.8-.3-1.7-.2-2.5.1-.8.4-1.7 1-2.5 1.9-.7.7-1.4 1.8-2.1 3z" fill="#f0b399" stroke-width="none" opacity="1"></path><path id="SvgjsPath13079" d="M147.6 89.6c-2.3 1.5-4.4 5.7-5.4 9.9v.1c0 .3.2.4.2.1.4-1.2.9-1.2 1.5 0 .1.8.1 1.5-.1 2.3-.2.7-.4 1.4-.7 2-.5 1.2-1.2 2.1-1.8 3.1-.2.3 0 .7.2.6 1.4-1.1 3.4-4.7 3-7.8-.2-1.5-1-2.3-1.6-1.7.8-2.1 1.7-4 2.8-5.5.6-.8 2-2.7 2.7-2.4 1.3.6.6 4.8.5 6.6 0 .3.2.4.3.1.7-3.3.8-9-1.6-7.4z" fill="#e09879" stroke-width="none" opacity="1"></path><path id="SvgjsPath13080" d="M142 108.6c2.4-.9 4.2-4.8 5.2-9 .6-2.5 1.8-8.5-.5-8.5-.2 0-.3.5-.1.6 2.2 1.1-.2 9.2-.9 11.1-1 2.6-2.2 4.4-3.8 5.4-.1.1 0 .5.1.4z" fill="#e09879" stroke-width="none" opacity="1"></path></g></g><g id="svga-group-faceshape-wrap"><g id="svga-group-faceshape-single"><path id="SvgjsPath13492" d="M100 35.3c-22.5 0-41.9 16.4-43.2 46.4v.3c0 2.6-.1 24.7 2.4 38.5 1.6 8.4 4.2 11.1 11.1 16.8 6.8 5.6 20.3 16.6 29.7 16.6s22.8-11 29.7-16.6c6.8-5.6 9.5-8.4 11.1-16.8 2.6-13.8 2.4-35.9 2.4-38.5v-.3c-1.3-29.9-20.7-46.4-43.2-46.4z" fill="#ffd0bc" stroke-width="none" opacity="1"></path><path id="SvgjsPath13493" d="M143.2 82v-.3c-1.3-29.9-20.7-46.4-43.2-46.4S58.1 51.7 56.8 81.7v.3c0 2.6-.1 24.7 2.4 38.5 1.6 8.4 4.2 11.1 11.1 16.8 6.8 5.6 20.3 16.6 29.7 16.6s22.8-11 29.7-16.6c6.8-5.6 9.5-8.4 11.1-16.8 2.6-13.8 2.4-35.9 2.4-38.5zm-3.3 10.9c-.2 6.7-.6 14.5-1.3 21.1-.2 1.7-.4 3.3-.7 4.9-.2 1.6-.6 3.2-1 4.6-.4 1.5-1 2.8-1.7 4s-1.7 2.4-2.8 3.5c-2.2 2.2-4.9 4.4-7.5 6.6-2.6 2.2-5.2 4.2-7.9 6.2s-5.4 3.8-8.3 5.4c-2.9 1.5-5.9 2.8-8.9 3-3 0-6.2-.9-9.2-2.3-3-1.4-5.9-3.1-8.8-4.9-2.8-1.9-5.5-3.9-8.2-6-2.6-2.1-5.3-4.3-7.7-6.6-1.2-1.2-2.2-2.5-3-3.8-.8-1.4-1.4-2.9-1.8-4.4-.4-1.6-.7-3.2-.9-4.9-.2-1.7-.4-3.3-.5-5-.5-6.7-.5-14.5-.5-21.3V82.8c.1-3.2.4-6.5 1-9.7 1.1-6.4 3.1-12.7 6.4-18.4 3.3-5.6 8-10.6 13.8-14 5.8-3.3 12.6-5.1 19.4-5.1 6.8.1 13.5 1.8 19.3 5.2 5.8 3.4 10.4 8.4 13.7 14 3.3 5.7 5.2 12 6.2 18.4.5 3.2.8 6.4.8 9.6.3 3.4.2 6.7.1 10.1z" fill="#d17f5b" stroke-width="none" opacity="1"></path></g></g><g id="svga-group-mouth-single-move" transform="matrix(1,0,0,1,0,0)"><g id="svga-group-mouth-single"><path id="SvgjsPath13318" d="M89.47 129.26c7.15 4.25 15.5 3.75 21.52.68.34-.17.08-.61-.24-.56-3.56.54-6.71 1.36-10.36 1.39-3.63.03-7.5-.8-10.8-1.91-.31-.1-.22.35-.12.4z" fill="#e09879" stroke-width="none" opacity="1" transform="translate(0 2)"></path><path id="SvgjsPath13319" d="M108.72 128.48c-2.29.41-4.47 1.09-6.8 1.27-2.34.18-4.58-.1-6.9-.33-.24-.02-.29.35-.08.41 4.27 1.17 9.93 1.12 13.97-.81.32-.15.12-.59-.19-.54z" fill="#ffd9c9" stroke-width="none" opacity="1" transform="translate(0 2)"></path><path id="SvgjsPath13320" d="M99.53 122.55c-3.63-.05-7.67.28-9.65.6-3.06.5-4.82-.23-4.95.4-.09.41 5.65 1.29 7.28 1.43 1.63.13 4.66 1.62 7.09 1.88 2.43.27 4.02-.95 5.95-1.39 1.93-.43 6.6-.78 8.04-1 1.9-.26 3.41-1.29.32-1.14-.46.02-.93.01-1.39-.03-2.66-.26-8.31-.69-12.69-.75z" fill="#ff5027" stroke-width="none" opacity="1" transform="translate(0 2)"></path></g></g><g id="svga-group-eyes-left-move" transform="matrix(1,0,0,1,0,0)"><g id="svga-group-eyes-left"><g id="svga-group-eyesback-left"><path id="SvgjsPath13119" d="M89.4 95.2s-.9-2.5-2.2-3.9c-1.4-1.4-5.5-3.6-10.2-1.8-4.7 1.8-6.8 4.7-6.8 4.7s.7 1.8 3.4 3.2c2.7 1.5 6.4 2.7 10.4 1.4s5.4-3.6 5.4-3.6z" fill="#ffffff" stroke-width="none" opacity="1"></path></g><g id="svga-group-eyesiriswrapper-left" transform="matrix(1,0,0,1,0,0)"><g id="svga-group-eyesiriscontrol-left" transform="matrix(1,0,0,1,0,0)"><g id="svga-group-eyesiris-left"><path id="SvgjsPath13200" d="M80.1 88.4c2.8 0 5.2 2.3 5.2 5.2s-2.3 5.2-5.2 5.2-5.2-2.3-5.2-5.2 2.3-5.2 5.2-5.2z" fill="#7b5c33" stroke-width="none" opacity="1"></path><path id="SvgjsPath13201" d="M80.1 90.8c1.5 0 2.8 1.2 2.8 2.8s-1.2 2.8-2.8 2.8-2.8-1.2-2.8-2.8 1.2-2.8 2.8-2.8z" fill="#000000" stroke-width="none" opacity="1"></path><path id="SvgjsPath13202" d="m79.4 91.3-.6-.6c-.2-.2-.4-.3-.7-.3-.2 0-.5.1-.7.3-.2.2-.3.4-.3.7s.1.5.3.7l.6.6c.2.2.4.3.7.3.2 0 .5-.1.7-.3.3-.5.4-1.1 0-1.4zm2.5 4.7c.9 0 .9-1.4 0-1.4s-.8 1.4 0 1.4z" fill="#ffffff" stroke-width="none" opacity="1"></path></g></g></g><g id="svga-group-eyesfront-left"><path id="SvgjsPath13127" d="M69.4 94.6c0 6.4 4.7 11.5 10.6 11.5s10.6-5.2 10.6-11.5S85.9 83.1 80 83.1s-10.6 5.1-10.6 11.5zm.8-.4s2.1-2.8 6.8-4.7c4.7-1.8 8.9.4 10.2 1.8 1.4 1.4 2.2 3.9 2.2 3.9S88 97.5 84 98.8c-4 1.3-7.7.1-10.4-1.4-2.7-1.4-3.4-3.2-3.4-3.2z" fill="#ffd0bc" stroke-width="none" opacity="1"></path><path id="SvgjsPath13128" d="M80.6 85.4c5.1.1 9.5 4.5 9 9.7 0 .1-.1.1-.1.1l.1.1c-.6 2.6-3.3 5.2-5.9 5.8-.2 0-.3-.2-.1-.3 1.2-.6 2.4-1.2 3.4-2.2 1-1 1.7-2.2 2.4-3.4l.1-.1V95c-.7-5.5-5-10.1-11-8.8-2.5.7-4.5 2.1-6.2 3.8-1.4 1.6-2.2 3.5-3.6 5.1-.1.2-.4 0-.3-.2 1.2-5 7.1-9.7 12.2-9.5z" fill="#f0b399" stroke-width="none" opacity="1"></path><path id="SvgjsPath13129" d="M67.5 96.9c.9-.7 1.8-1.4 2.6-2.1 4.5 6.5 14.1 6.7 19.3 1 .1 0 .2-.1.2-.2l.2-.2c.2-.2 0-.6-.2-.6-.5-4.2-5-6.7-9-6.6-5.2.1-10.8 3.8-13.8 7.9-.4.5.2 1.1.7.8zm3.1-2.5c2.1-1.8 4.3-3.6 7.2-4.4 4.8-1.4 9.5.5 11.2 5.2-5.5 5.5-13.4 4.8-18.4-.8z" fill="#587d90" stroke-width="none" opacity="1"></path></g></g></g><g id="svga-group-eyes-right-move" transform="matrix(1,0,0,1,0,0)"><g id="svga-group-eyes-right"><g id="svga-group-eyesback-right"><path id="SvgjsPath13120" d="M110.6 95.2s.9-2.5 2.2-3.9c1.4-1.4 5.5-3.6 10.2-1.8 4.7 1.8 6.8 4.7 6.8 4.7s-.7 1.8-3.4 3.2c-2.7 1.5-6.4 2.7-10.4 1.4s-5.4-3.6-5.4-3.6z" fill="#ffffff" stroke-width="none" opacity="1"></path></g><g id="svga-group-eyesiriswrapper-right" transform="matrix(1,0,0,1,0,0)"><g id="svga-group-eyesiriscontrol-right" transform="matrix(1,0,0,1,0,0)"><g id="svga-group-eyesiris-right"><path id="SvgjsPath13203" d="M119.9 88.4c2.8 0 5.2 2.3 5.2 5.2s-2.3 5.2-5.2 5.2-5.2-2.3-5.2-5.2 2.4-5.2 5.2-5.2z" fill="#7b5c33" stroke-width="none" opacity="1"></path><path id="SvgjsPath13204" d="M119.9 90.8c1.5 0 2.8 1.2 2.8 2.8s-1.2 2.8-2.8 2.8-2.8-1.2-2.8-2.8 1.3-2.8 2.8-2.8z" fill="#000000" stroke-width="none" opacity="1"></path><path id="SvgjsPath13205" d="m119.3 91.3-.6-.6c-.2-.2-.4-.3-.7-.3-.2 0-.5.1-.7.3-.2.2-.3.4-.3.7s.1.5.3.7l.6.6c.2.2.4.3.7.3.2 0 .5-.1.7-.3.3-.5.4-1.1 0-1.4zm2.5 4.7c.9 0 .9-1.4 0-1.4s-.9 1.4 0 1.4z" fill="#ffffff" stroke-width="none" opacity="1"></path></g></g></g><g id="svga-group-eyesfront-right"><path id="SvgjsPath13130" d="M120 83.1c-5.9 0-10.6 5.2-10.6 11.5s4.7 11.5 10.6 11.5 10.6-5.2 10.6-11.5-4.8-11.5-10.6-11.5zm6.4 14.3c-2.7 1.5-6.4 2.7-10.4 1.4-4-1.3-5.4-3.6-5.4-3.6s.9-2.5 2.2-3.9c1.4-1.4 5.5-3.6 10.2-1.8 4.7 1.8 6.8 4.7 6.8 4.7s-.7 1.8-3.4 3.2z" fill="#ffd0bc" stroke-width="none" opacity="1"></path><path id="SvgjsPath13133" d="M119.4 85.4c-5.1.1-9.5 4.5-9 9.7 0 .1.1.1.1.1l-.1.1c.6 2.6 3.3 5.2 5.9 5.8.2 0 .3-.2.1-.3-1.2-.6-2.4-1.2-3.4-2.2-1-1-1.7-2.2-2.4-3.4l-.1-.1V95c.7-5.5 5-10.1 11-8.8 2.4.5 4.5 1.9 6.1 3.7 1.4 1.6 2.2 3.5 3.6 5.1.1.2.4 0 .3-.2-1.1-4.9-7-9.6-12.1-9.4z" fill="#f0b399" stroke-width="none" opacity="1"></path><path id="SvgjsPath13134" d="M133.3 96.1c-3-4.1-8.6-7.8-13.8-7.9-4-.1-8.5 2.4-9 6.6-.2 0-.4.3-.2.6l.2.2c0 .1.1.2.2.2 5.2 5.7 14.8 5.5 19.3-1 .8.7 1.7 1.4 2.6 2.1.4.3 1-.3.7-.8zm-22.3-.9c1.8-4.7 6.4-6.6 11.2-5.2 2.9.8 5 2.6 7.2 4.4-5 5.6-12.9 6.3-18.4.8z" fill="#587d90" stroke-width="none" opacity="1"></path></g></g></g><g id="svga-group-facehighlight-single"></g><g id="svga-group-eyebrows-left-move" transform="matrix(1,0,0,1,0,0)"><g id="svga-group-eyebrows-left-rotate" transform="matrix(1,1.7453292519943295e-9,-1.7453292519943295e-9,1,1.4130762338027125e-7,-1.375987466190054e-7)"><g id="svga-group-eyebrows-left"><path id="SvgjsPath13039" d="M66.1 85c.5-1.2 1.7-2.2 2.6-3.1.8-.9 1.7-1.9 2.6-2.7.4-.9 1.2-1.5 1.9-2.2l.1-.1c.1-.2.2-.3.3-.5.3-.5.7-1 1.2-1.4h.2l.1-.1c.1 0 .1-.1.1-.1.1-.1.2-.2.3-.2.1-.1.2-.1.3 0h.1c.3 0 .4.2.5.4h.2c.5.2.9.3 1.4.4.3.1.4.3.4.5l1.5.6c.4.2.8.3 1.3.6.6.3 1.2.5 1.8.8.2.1.3.2.3.4.1 0 .1.1.2.1s.1.1.1.2c.1.1.2.1.4.2 1.3.4 2.5.9 3.7 1.6.2.1.2.2.3.3.1.1.2.1.3.2.3.1.5.2.8.3 1 .3 1.9.7 2.8 1.3.1.1.1.2.1.3.2.1.3.2.5.4.3.2.1.8-.3.7-.1 0-.2-.1-.3-.1-.2.6-.5 1.2-.9 1.7v.1c0 .2 0 .4-.1.6 0 .4-.4.8-.8.6l-3.6-2.4c-1.3-.8-2.6-1.6-3.8-2.6-1.4-.8-2.8-1.6-4.1-2.5-.8-.4-1.5-.9-2.2-1.4-.2.2-.5.3-.7.4-.6.5-1.1.9-1.7 1.4-.8.6-1.6 1.3-2.6 1.6-.3.4-.7.8-1.1 1.2-.5.5-1.1 1.1-1.8 1.5-.2.2-.4.3-.6.4-.5.5-.9.9-1.5 1.2-.2-.1-.5-.4-.3-.6z" fill="#4e4341" stroke-width="none" opacity="1"></path><path id="SvgjsPath13040" d="M89.5 86.3c0-.1.1-.2.2-.3-.1-.1-.2-.2-.2-.3.2-.7.4-1.3.4-2 .1-.9-.2-1.6-.4-2.4-.1-.2.2-.4.4-.3 1.4.9.9 2.9.4 4.3.2-.2.3-.3.4-.5.4-.6.7-1.2 1-1.9.1-.3.6-.2.5.2-.1.7-.4 1.4-.8 2.1-.3.5-.9 1.4-1.5 1.6-.3 0-.5-.2-.4-.5zM76.2 74.7c2.3 1.6 4.2 3.9 6.3 5.7 1.1.9 2.3 1.8 3.5 2.6-.6-.9-1.2-1.7-1.9-2.4-1.2-1.3-2.6-2.3-3.8-3.5-.2-.2 0-.7.3-.5 3 1.4 5.1 4.4 6.6 7.3l1.2.9c-.3-.8-.7-1.7-1.1-2.5-.5-.9-1.2-1.7-1.7-2.6-.1-.2.1-.4.3-.3 1.9 1.1 3 3.8 3.2 6l.1.1c.1.1 0 .3-.1.3-.1.2-.3.2-.4 0 0-.1-.1-.2-.1-.2-2.4-1.2-4.6-2.9-6.7-4.5-2.1-1.7-4.8-3.6-6.2-5.9-.1-.4.2-.7.5-.5zm-4.1 3.2c.4-.5 1.2-.6 1.8-.6.7-.1 1.5-.1 2.1.2.2.1.2.4-.1.4-.7.1-1.3 0-2 0-.6.1-1.2.4-1.8.3 0 .1-.1-.1 0-.3zm-2.3 2.6c.7-.6 1.7-.9 2.5-1.2 1-.4 2.1-.8 3.2-1.2.2-.1.3.2.2.3-.9.5-1.9 1-2.9 1.4-.9.4-1.8.9-2.8 1.1-.3.1-.4-.3-.2-.4z" fill="#5d5857" stroke-width="none" opacity="1"></path><path id="SvgjsPath13041" d="M76 78.3c2.1 1.6 4.5 2.9 6.7 4.3 2.4 1.5 4.7 3 7.2 4.4v.1c-.1.2.2.4.4.3.1.1.2.1.3.1.8-.3 1.5-1.3 2-2 .6-.8 1.1-1.6 1.4-2.5.1-.3-.3-.4-.5-.2-.3.4-.6.8-.8 1.2.2-.8.4-1.6.3-2.3 0-.1-.1-.2-.2-.2-.1-.2-.3-.3-.4-.1-.2.2-.3.4-.5.6-5.1-2.9-10.7-5.2-16-7.8h-.4c-2.2 1.9-4.1 4-6 6.1-1.9 2.1-4 4.2-5.4 6.6v.1c-.1.1-.2.3-.4.4-.1.2 0 .4.2.3 2.2-1 4.1-2.8 6-4.3C72 81.6 74 80 76 78.3zm-.2-.4c-2.2 1.4-4.3 3.1-6.4 4.7-.7.6-1.6 1.1-2.3 1.7.9-1.1 1.8-2.3 2.8-3.4 1.9-2.1 3.8-4.1 5.6-6.2 5.3 2.5 10.5 5.4 15.9 7.6-.2.3-.5.5-.6.9-.1.2.1.3.3.3.3-.1.5-.2.7-.4-.2.5-.3.9-.5 1.3-.3.8-.8 1.4-1.3 2.1-2.3-1.6-4.6-3.1-7-4.6-2.2-1.4-4.4-3.1-6.8-4.3-.1-.1-.3 0-.4.3z" fill="#3f312e" stroke-width="none" opacity="1"></path></g></g></g><g id="svga-group-eyebrows-right-move" transform="matrix(1,0,0,1,0,0)"><g id="svga-group-eyebrows-right-rotate" transform="matrix(1,1.7453292519943295e-9,-1.7453292519943295e-9,1,1.4088745103890687e-7,-2.115051813689206e-7)"><g id="svga-group-eyebrows-right"><path id="SvgjsPath13042" d="M134 85c-.5-1.2-1.7-2.1-2.6-3.1-.9-.9-1.7-1.9-2.6-2.7-.4-.8-1.2-1.5-1.9-2.2l-.1-.1c-.1-.2-.2-.3-.3-.5-.3-.5-.7-1-1.2-1.4-.1-.1-.1-.1-.2-.1l-.1-.1c-.1 0-.1-.1-.1-.1-.1-.1-.2-.2-.3-.2-.1-.1-.2-.1-.3 0h-.1c-.3 0-.4.2-.5.4h-.2c-.5.2-.9.3-1.4.4-.3.1-.4.3-.4.5l-1.5.6c-.4.2-.8.3-1.3.6-.6.3-1.2.5-1.8.8-.2.1-.3.2-.3.4-.1 0-.1.1-.2.1-.1.1-.1.1-.1.2-.1.1-.2.1-.4.2-1.3.4-2.5.9-3.7 1.6-.2.1-.2.2-.3.3-.1.1-.2.1-.3.2-.3.1-.5.2-.8.3-1 .3-1.9.7-2.8 1.3-.1.1-.1.2-.1.3-.2.1-.3.2-.5.4-.3.2-.1.8.3.7.1 0 .2-.1.3-.1.2.6.5 1.2.9 1.7v.1c0 .2 0 .4.1.6 0 .4.4.8.8.6l3.6-2.4c1.3-.8 2.6-1.6 3.7-2.6 1.4-.8 2.8-1.6 4.1-2.5.8-.4 1.5-.9 2.2-1.4.2.2.5.3.7.4.6.5 1.1.9 1.7 1.4.8.6 1.6 1.3 2.5 1.6.3.4.6.8 1.1 1.2.5.5 1.1 1.1 1.8 1.5.2.2.4.3.6.4.5.5.9.9 1.5 1.2.3 0 .6-.3.5-.5z" fill="#4e4341" stroke-width="none" opacity="1"></path><path id="SvgjsPath13043" d="M110.5 86.3c0-.1-.1-.2-.2-.3.1-.1.2-.2.2-.3-.2-.7-.4-1.3-.4-2-.1-.9.2-1.6.4-2.4.1-.2-.2-.4-.4-.3-1.3.9-.9 2.9-.4 4.3-.2-.2-.3-.3-.4-.5-.4-.6-.7-1.2-1-1.9-.1-.3-.6-.1-.5.2.1.7.4 1.4.8 2.1.3.5.9 1.4 1.5 1.6.3 0 .5-.2.4-.5zm13.3-11.6c-2.3 1.6-4.2 3.9-6.3 5.7-1.1.9-2.3 1.8-3.5 2.7.6-.9 1.2-1.7 1.9-2.4 1.2-1.3 2.6-2.3 3.8-3.5.2-.2 0-.7-.3-.5-3 1.4-5.1 4.4-6.6 7.3l-1.2.9c.3-.8.6-1.7 1.1-2.5.5-.9 1.2-1.7 1.7-2.6.1-.2-.1-.4-.3-.3-1.9 1.1-3 3.8-3.2 6l-.1.1c-.1.1 0 .3.1.3.1.2.3.2.4 0 0-.1.1-.2.1-.2 2.4-1.2 4.6-2.9 6.7-4.6 2.1-1.7 4.8-3.6 6.2-5.9.1-.4-.2-.7-.5-.5zm4.1 3.2c-.4-.5-1.2-.6-1.8-.6-.7-.1-1.5-.1-2.1.2-.2.1-.2.4.1.4.7.1 1.3 0 2 0 .6.1 1.2.4 1.8.3 0 0 .1-.1 0-.3zm2.3 2.6c-.7-.6-1.7-.9-2.5-1.2-1-.4-2.1-.8-3.2-1.2-.2-.1-.3.2-.2.3.9.5 1.9 1 2.9 1.4.9.4 1.8.9 2.8 1.1.3.1.4-.3.2-.4z" fill="#5d5857" stroke-width="none" opacity="1"></path><path id="SvgjsPath13044" d="M130.1 83.2c1.9 1.5 3.8 3.3 6 4.3.2.1.4-.2.2-.3-.1-.1-.2-.3-.4-.4v-.1c-1.4-2.4-3.5-4.5-5.4-6.6-1.9-2.1-3.8-4.2-6-6.1-.1-.1-.2-.1-.2 0h-.2c-5.3 2.6-10.8 4.9-16 7.8-.1-.2-.3-.4-.5-.6-.2-.1-.3 0-.4.1-.1 0-.2.1-.2.2-.1.7.1 1.5.3 2.3-.3-.4-.6-.8-.8-1.2-.2-.2-.6-.1-.5.2.3.9.8 1.7 1.4 2.5.5.7 1.2 1.7 2 2 .1 0 .2 0 .3-.1.2.1.5-.1.4-.3v-.1c2.4-1.4 4.8-2.9 7.2-4.4 2.2-1.4 4.6-2.7 6.7-4.3 1.9 1.9 4 3.5 6.1 5.1zm-6.4-5.6c-2.4 1.2-4.6 2.8-6.8 4.3-2.3 1.5-4.7 3-7 4.6-.4-.7-.9-1.3-1.3-2.1-.2-.4-.4-.9-.5-1.3.2.2.4.4.7.4.2 0 .3-.1.3-.3-.1-.3-.4-.6-.6-.9 5.4-2.2 10.7-5.1 15.9-7.6 1.8 2.1 3.8 4.1 5.6 6.2 1 1.1 1.9 2.2 2.8 3.4-.8-.6-1.6-1.1-2.4-1.7-2.1-1.6-4.2-3.2-6.4-4.6.1-.4-.1-.6-.3-.4z" fill="#3f312e" stroke-width="none" opacity="1"></path></g></g></g><g id="svga-group-beardwrap"><g id="svga-group-beard-single-move" transform="matrix(1,0,0,1,0,0)"><g id="svga-group-beard-single"></g></g></g><g id="svga-group-mustache-single-move" transform="matrix(1,0,0,1,0,0)"><g id="svga-group-mustache-single"></g></g><g id="svga-group-nose-single-move" transform="matrix(1,0,0,1,0,0)"><g id="svga-group-nose-single"><path id="SvgjsPath13290" d="M102.45 100.66c.12 1.28.05 5.25.48 6.39.43 1.14.81 1.43 2 .43s2.34-.57 3.05 1c.72 1.57 1.34 4.34.38 6.2-.95 1.86-1.86.57-2.77.52-.91-.05-1.96.72-2.24 2.29-.29 1.57-.91 4.05-2.48 4.34s-3.24-1-3.86-2.62c-.62-1.62-.76-4.44-1.76-4.86-1-.43-2.77 1.05-3.29.95-.52-.1-1.05-3.1-.76-5.15.29-2.05.67-3.05 2.24-3.15 1.57-.1 2.36 1.82 2.87 1.51.51-.32.75-1.46.89-2.89s-.1-3.72-.14-4.58c-.05-.86 1.1-2.19 2.77-2.19 1.67-.01 2.53.76 2.62 1.81z" fill="#ffd0bc" stroke-width="none" opacity="1" transform="translate(0 1)"></path><path id="SvgjsPath13291" d="M95.45 108.01c.11.11.47.55.58.66.04.04.08.04.13.04-.12.36-.25.73-.4 1.1-.1.24.29.39.42.18 2.18-3.58 1.35-7.86.86-11.78-.61-4.9.04-9.15 1.26-13.88.02-.08-.1-.13-.13-.06-1.75 3.52-2.16 7.85-1.85 11.72.34 4.3 1.18 8.3-.05 12.41-.69-1.49-2.79-2.57-4.15-1.24-1.68 1.63-1.47 5.74-.84 7.75.08.26.54.23.5-.07-.18-1.62-.39-3.14-.14-4.77.06-.41.12-.84.25-1.24.29-.93.34-.97 1.37-1.35 1.13-.44 1.36-.28 2.19.53z" fill="#d17f5b" stroke-width="none" opacity="1" transform="translate(0 1)"></path><path id="SvgjsPath13292" d="M97.19 116.41c.16.16.39.03.41-.17.3-2.38-3.97-3.61-5.11-1.55-.1.18.06.38.26.34.94-.2 1.74-.63 2.71-.21.74.32 1.17 1.04 1.73 1.59z" fill="#d17f5b" stroke-width="none" opacity="1" transform="translate(0 1)"></path><path id="SvgjsPath13293" d="M104.81 114.92c-.65.22-1.31.72-1.4 1.43-.03.24.31.34.46.19.4-.39.69-.79 1.28-.91.46-.1.96.17 1.38-.03.1-.05.14-.18.12-.28-.2-.7-1.32-.58-1.84-.4z" fill="#d17f5b" stroke-width="none" opacity="1" transform="translate(0 1)"></path><path id="SvgjsPath13294" d="M108.1 107.93c-1.02-1.89-2.69-1.75-3.75.07-.07.12.09.25.19.15.89-.88 2.22-1.16 3.04.09.38.58.58 1.39.72 2.06.32 1.6-.01 2.99-.3 4.56-.05.27.33.48.48.2 1.13-2.13.74-5.07-.38-7.13z" fill="#d17f5b" stroke-width="none" opacity="1" transform="translate(0 1)"></path><path id="SvgjsPath13295" d="M102.81 106.05c-.08-3.69.08-7.29.65-10.95.01-.07-.09-.11-.11-.03-1.24 3.55-1.51 7.32-.69 11 .02.09.16.07.15-.02z" fill="#d17f5b" stroke-width="none" opacity="1" transform="translate(0 1)"></path><path id="SvgjsPath13296" d="M103.19 117c-.36 1.79-.83 4.54-3.14 4.5-.87-.02-1.04-.18-1.59-.8-.36-.41-.66-.87-.95-1.33-.56-.89-1.02-1.85-1.36-2.84-.05-.16-.28-.09-.25.07.38 1.99 1.7 6.22 4.39 5.98 2.37-.2 4.03-3.49 3.32-5.59-.05-.18-.37-.22-.42.01z" fill="#d17f5b" stroke-width="none" opacity="1" transform="translate(0 1)"></path><path id="SvgjsPath13297" d="M107.18 109.2c-.8-.84-2.02-1.05-2.81-.13-.18.21-.01.6.29.5.58-.18 1.39.22 1.67.72.4.72.09 1.54.38 2.26.12.32.59.56.86.23.78-.96.43-2.72-.39-3.58z" fill="#ffd9c9" stroke-width="none" opacity="1" transform="translate(0 1)"></path><path id="SvgjsPath13298" d="M102.78 110.71c-.06-2.52-.74-5.04-1.22-7.5-.57-2.89.87-5.37 1.05-8.22.17-2.63-.32-5.27-1-7.8-.12-.46-.75-.25-.69.19.42 2.93 1.12 5.91.64 8.88-.35 2.2-1.31 4.26-1.54 6.49-.24 2.38.21 4.85.14 7.24-.04 1.19.01 2.38-.04 3.57-.06 1.26-.36 2.54.07 3.75.17.48.88.82 1.27.33 1.36-1.7 1.38-4.81 1.32-6.93z" fill="#ffd9c9" stroke-width="none" opacity="1" transform="translate(0 1)"></path></g></g><g id="svga-group-hair-front"><path id="SvgjsPath13400" d="M143.6 75.2s.6-3.3-1.2-6.4c0 0 .6-3.2-1.2-5.6 0 0-.2-5.5-4.2-7.2 0 0 .2-4.5-4.1-6 0 0 .2-5-6.8-6.8 0 0-1.7-4.4-6.1-4.2 0 0-3.2-4.2-7.7-2.9 0 0-1.9-2.9-6.3-.8 0 0-2.8-2.2-6.1-.5h.1c-3.3-1.8-6.1.5-6.1.5-4.4-2.1-6.3.8-6.3.8-4.5-1.2-7.7 2.9-7.7 2.9-4.4-.2-6.1 4.2-6.1 4.2C66.8 45 67 50 67 50c-4.3 1.5-4.1 6-4.1 6-3.9 1.7-4.2 7.2-4.2 7.2-1.8 2.5-1.2 5.6-1.2 5.6-1.8 3.2-1.2 6.4-1.2 6.4S55 79.6 54.9 82s4.4 11.2 7.2 8-.1-6.6-.1-6.6c4.6 1.1 1.1-8.3 1.1-8.3 3.4-2.4 1.5-6.2 1.5-6.2 3.7-1.9 2.1-5.6 2.1-5.6 3.7-.2 3-3.8 3-3.8 3.3-.5 4.1-3.7 4.1-3.7 3.8.5 4.7-2.2 4.7-2.2 3.8 1.6 5.5-2.4 5.5-2.4 3.5 4.1 8.1.3 8.1.3 4.5 4.3 7.7-.5 7.7-.5h.3s3.2 4.7 7.7.5c0 0 4.6 3.7 8.1-.3 0 0 1.7 3.9 5.5 2.4 0 0 .9 2.7 4.7 2.2 0 0 .8 3.3 4.1 3.7 0 0-.7 3.6 3 3.8 0 0-1.6 3.7 2.1 5.6 0 0-1.9 3.8 1.5 6.2 0 0-3.5 9.5 1.1 8.3 0 0-2.9 3.4-.1 6.5 2.8 3.2 7.3-5.6 7.2-8 0-2.3-1.4-6.7-1.4-6.7z" fill="#4e4341" stroke-width="none" opacity="1"></path><path id="SvgjsPath13401" d="M145.6 81.1c0-.1 0-.2-.1-.2 0-2.2-.6-4.4-1.4-6.1l-.2-.2c.9-1.9.2-4.4-1.1-5.9 0-.1-.1-.1-.1-.1.8-1.9 0-4.2-1.2-5.8-.1-.1-.2-.2-.4-.2.4-2.4-1.3-6.4-3.5-7.1h-.2c.4-2.5-1.9-5.3-4-6.2-.1 0-.2-.1-.3-.1-.6-3.2-3.4-6.3-6.7-6.5h-.2c-.6-2.2-3.5-4.4-5.8-4.1-.1 0-.2.1-.2.1-1.2-2.8-5.2-4-7.9-3.3-1.3-1.8-4.5-1.8-6.2-.6-1.5-1.5-4.2-1.7-6-.5-1.8-1.2-4.5-1-6 .5-1.8-1.2-4.9-1.3-6.2.6-2.9-.6-6.9.6-8.1 3.4-.1-.1-.1-.1-.2-.1-2.3-.3-5.2 1.8-5.8 4.1h-.2c-3.3.2-6.1 3.4-6.7 6.5-.1 0-.2 0-.3.1-2.1 1-4.4 3.7-4 6.2h-.2c-2.2.7-3.9 4.7-3.5 7.1-.1 0-.3 0-.4.2-1.2 1.5-2 3.9-1.2 5.8l-.1.1c-1.2 1.6-2 4-1.1 5.9-.1 0-.1.1-.2.2-.9 1.7-1.5 3.9-1.5 6.1 0 .1-.1.1-.1.2.2 2.6 2.2 8.6 5.3 9.4v.1c1.3.9 3.1-.3 3.6-1.6.7-1.6.2-3.8-1-5 3.8.3 2.4-6.7 1-8.7.1 0 .2 0 .2-.1 1.6-1.3 2.5-4.3 1.1-6.1 2.2-.8 3.4-3.5 2.3-5.5.9.2 2.1-.7 2.5-1.4.4-.6.7-1.8.3-2.6 1 .4 2.4-.6 3.1-1.3.5-.5.9-1.3 1-2.1 1.7.2 4-.6 4.4-2.4 1.2.5 2.6.4 3.7-.3.7-.4 1.5-1.1 1.8-2h.1c1.1 2.5 6.6 2.3 7.9 0 1.9 3.2 6.5 2.7 7.9-.6h.2c1.4 3.3 6 3.8 7.9.6 1.3 2.3 6.7 2.5 7.9 0h.1c.3.8 1.1 1.6 1.8 2 1.2.7 2.5.7 3.7.3.4 1.8 2.7 2.7 4.4 2.4.1.8.5 1.6 1 2.1.6.7 2 1.7 3.1 1.3-.4.7-.1 2 .3 2.6.5.7 1.6 1.6 2.5 1.4-1.1 2 .1 4.7 2.3 5.5-1.4 1.8-.4 4.8 1.1 6.1.1.1.1.1.2.1-1.3 1.9-2.8 9 1.1 8.7-1.3 1.2-1.7 3.5-1 5 .6 1.2 2.3 2.5 3.6 1.6v-.1c3.7-.9 5.7-6.9 5.9-9.5zm-83.8 8.4c-.5.4-1 .3-1.6.3-2.3-1.2-3.5-3.7-4.3-6.3-.1-1.1-.3-2.1-.3-3.2 0-1.4.4-2.8.9-4.1.2 3.4 1.8 6.4 5.3 7.6h.2c-.1.1-.2.2-.1.3.3 1.1 1 2 1 3.2-.1 1-.4 1.8-1.1 2.2zm.5-6.4c-.1 0-.2 0-.3.1-1.5-.8-3-1.6-3.8-3.2-.8-1.6-.8-3.4-1-5.2 0-.2-.2-.3-.3-.4-.2-1.5-.2-2.9.6-4.2 1 2.6 2.4 5.2 5.5 5.4.3 1 .7 2 .9 3.1.2 1.4.5 4.5-1.6 4.4zm2.3-11.2c-.1 1.1-.7 2-1.5 2.7-.1.1-.2.2-.2.3-1.2-.5-2.3-.8-3.1-1.9-.8-1.1-1.2-2.4-1.7-3.6 0-.1.1-.2.1-.3 0-.1.1-.1.1-.2-.3-1.9-.3-3.4.7-4.8.4 1.2 1.2 2.4 2 3.2s1.8 1.5 3 1.7c.3 1 .7 1.8.6 2.9zm-.3-3.4c-1-.6-1.9-1-2.7-1.8-.9-1-1.2-2.4-2.1-3.4v-.1c.4-1.3.4-2.7 1-4 .5-1.1 1.5-1.8 2.1-2.8.4 2.4 1.3 5.9 3.7 6.9.8 2.3.2 4.1-2 5.2zm4.6-6.7c-.3.4-.7.7-1.2.9-.3.1-.5.1-.8.2-.9-1-1.9-1.6-2.5-2.9-.6-1.3-.8-2.8-1.1-4.2v-.1c.3-1 .4-2 .9-2.9.5-.9 1.3-1.6 2.2-2.1.1 3.2.5 6.5 2.8 8.9 0 .3.1.5.1.8 0 .5-.1 1-.4 1.4zM82 52.6c-1 .6-2.1.5-3.2.2-1-4.7-.1-8.7 1.3-13.2.1-.2-.2-.3-.3-.1-2.3 4.3-2.8 8.9-1.9 13.6v.2c-.4.6-.7 1.2-1.4 1.6-.8.5-1.6.5-2.4.3-.2-3.6-.1-7-.1-10.6 0-.2-.3-.2-.3 0-.9 3.5-1.1 7.3-.4 10.8-.1.1-.1.3-.1.4-.3.7-.4 1.4-.9 2-.4.4-.8.6-1.3.8-.4.1-.8.1-1.1.3-.1.1-.2.2-.2.3-1.8-3-2.3-5.6-2.4-9 .1-.1.2-.3.1-.5.4-1.4 1.1-2.8 2.2-3.8 1.2-1.2 2.5-1.7 4.1-2.2.2-.1.3-.2.4-.4.1 0 .1 0 .1-.1.7-.9 1.3-1.8 2.3-2.5.9-.6 2-.7 3-1.1.1 0 .2-.1.2-.2.1.1.3.1.4 0 1.1-.9 1.9-1.9 3.2-2.4 1.4-.5 2.7-.6 4.2-.3-3.1 4-4.1 9.4-4.1 14.3-.4.5-.7 1.2-1.4 1.6zm6.3-.2c-.7.1-1.4.1-2-.2-.8-.3-1.2-1.1-1.8-1.6h-.1c0-5.2 1.7-9.4 3.9-14 .1-.2.2-.4.1-.6.8-.5 1.5-.9 2.5-1 1-.1 1.9.2 2.7.8-2 4.8-1.8 10.4-1.9 15.5v.1c-.9.6-2.3.8-3.4 1zm4.4-1.6c-.1-.1-.1-.2-.2-.2.1-5 .3-9.8 1.6-14.7.1 0 .1 0 .2-.1 1.6-1.4 3.5-1.8 5.4-.8-.4 5.1-.1 10.3-.1 15.5-.1 0-.1 0-.2.1-1.5 2.8-5 2.8-6.7.2zm14.6 0c-1.7 2.5-5.2 2.6-6.8-.2l-.1-.1c0-5.1.2-10.3-.2-15.5 2-1.1 3.8-.7 5.5.7.1.1.1.1.2.1 1.2 4.9 1.5 9.7 1.6 14.7-.1.2-.2.2-.2.3zm6.4 1.3c-.7.3-1.3.3-2 .2-1.1-.1-2.5-.4-3.4-1.1v-.1c-.1-5.1.2-10.7-1.9-15.5.8-.5 1.7-.8 2.7-.8 1 .1 1.7.5 2.5 1-.1.2-.1.4.1.6 2.2 4.7 3.9 8.9 3.9 14h-.1c-.6.7-1 1.4-1.8 1.7zm15.3 6.5c-.5-.2-.9-.4-1.3-.8-.6-.6-.7-1.3-.9-2 0-.2 0-.3-.1-.4.7-3.5.4-7.3-.4-10.8 0-.2-.3-.1-.3 0 .1 3.6.2 7-.1 10.6-.8.2-1.7.2-2.4-.3-.7-.4-1-1-1.4-1.6v-.2c.9-4.7.5-9.3-1.9-13.6-.1-.2-.3 0-.3.1 1.4 4.5 2.3 8.5 1.3 13.2-1.1.3-2.2.4-3.2-.2-.7-.4-1-1.1-1.5-1.7 0-4.9-1-10.3-4.1-14.3 1.4-.3 2.8-.2 4.2.3s2.2 1.5 3.2 2.4c.1.1.3.1.4 0l.2.2c1 .4 2 .5 3 1.1 1 .7 1.6 1.6 2.3 2.5l.1.1c0 .2.2.3.4.4 1.6.5 2.9 1 4.1 2.2 1.1 1.1 1.8 2.4 2.2 3.8 0 .2 0 .3.1.5 0 3.4-.6 6.1-2.4 9 0-.1-.1-.2-.2-.3-.3-.1-.6-.1-1-.2zm3.2 4c-.5-.2-.9-.5-1.2-.9-.3-.4-.4-.8-.4-1.3 0-.3.1-.6.1-.8 2.3-2.4 2.7-5.8 2.8-8.9.9.5 1.7 1.2 2.2 2.1.6.9.7 1.9.9 2.9v.1c-.3 1.4-.5 2.9-1.1 4.2-.6 1.3-1.6 1.9-2.5 2.9-.2-.2-.5-.2-.8-.3zm1.4.7c2.4-1 3.4-4.5 3.7-6.9.6 1 1.6 1.7 2.1 2.8.6 1.3.6 2.6 1.1 4v.1c-.9 1-1.2 2.4-2.1 3.4-.8.9-1.8 1.3-2.7 1.8-2.2-1.1-2.8-2.9-2.1-5.2zm1.8 8.6c-.1-1.1.2-1.9.6-2.8 1.1-.2 2.2-.9 3-1.7.8-.8 1.7-2.1 2-3.2 1 1.4 1 2.9.8 4.7 0 .1 0 .2.1.2 0 .1 0 .2.1.3-.5 1.2-.9 2.6-1.7 3.6-.8 1.1-2 1.4-3.1 1.9 0-.1 0-.2-.1-.3-1-.7-1.5-1.6-1.7-2.7zm.7 6.8c.2-1.1.6-2.1.9-3.1 3.1-.2 4.5-2.8 5.5-5.4.8 1.3.8 2.7.6 4.2-.2 0-.3.2-.3.4-.2 1.8-.2 3.6-1 5.2s-2.2 2.4-3.8 3.2c-.1-.1-.2-.1-.3-.1-2.1.1-1.8-3-1.6-4.4zm3.7 11.1c-.6 0-1.1 0-1.6-.3-.7-.5-1-1.3-1-2-.1-1.2.6-2.1 1-3.2.1-.2 0-.3-.1-.3.1 0 .2.1.2 0 3.5-1.2 5.1-4.2 5.3-7.6.5 1.3.8 2.6.9 4.1 0 1.1-.2 2.1-.3 3.2-.9 2.4-2.1 5-4.4 6.1z" fill="#3f312e" stroke-width="none" opacity="1"></path><path id="SvgjsPath13402" d="M96.6 51c-.9-.7-1.8-1.2-2.3-2.2-.6-1-.6-2-.7-3.1 0-.2-.2-.2-.3 0-.8 2.1 1 5.2 3.2 5.6.2-.1.3-.2.1-.3zm0-3.7c-1.3-1.7-2.1-3.4-2.6-5.5-.1-.2-.4-.2-.4 0 0 2.1 1 4.3 2.7 5.7.1.2.5 0 .3-.2zm.6-4.4c-1.3-1.6-1.8-3.3-2.1-5.3 0-.2-.3-.1-.4 0-.2 2.1.8 4.1 2.2 5.5.3.2.5 0 .3-.2zm-.3-5.6c-.1-.4-.2-.7-.4-1.1-.1-.1-.3-.1-.3.1 0 .4.2.7.3 1.1.1.3.5.1.4-.1zm-8 13.9c-.7-.5-1.4-1.2-1.9-2-.4-.7-.7-1.4-1.1-2.1-.1-.2-.4-.1-.4.1.1 1.9 1.6 3.6 3.1 4.5.3.1.5-.3.3-.5zm.1-3.6c-.9-1.4-1.3-2.9-1.8-4.5-.1-.2-.4-.2-.4 0-.1 1.7.7 3.3 1.7 4.7.2.3.7.1.5-.2zm0-4.6c-.2-.8-.4-1.7-.8-2.5-.1-.2-.4-.1-.4.1.1.8.4 1.7.7 2.5.1.3.6.2.5-.1zm.4-4.3c.1-.6.1-1.2.1-1.7 0-.1-.2-.1-.2 0-.2.6-.2 1.2-.3 1.8.1.1.4.1.4-.1zm-7.6 12.4c-1.4-.8-2-2.2-2.2-3.8 0-.2-.4-.2-.4 0-.5 1.8.8 3.6 2.3 4.3.3.2.6-.3.3-.5zm.2-3.3c-.8-1.5-1.2-3-1.8-4.6-.1-.2-.3-.1-.3 0 .2 1.7.8 3.3 1.7 4.8.2.2.5 0 .4-.2zm0-5c-.4-1.1-.6-2.3-.5-3.4 0-.2-.3-.2-.3 0-.2 1.3 0 2.5.5 3.6 0 .2.4 0 .3-.2zm1.2-3.7c.2-.5.4-1.1.5-1.6 0-.1-.2-.2-.2-.1-.3.5-.4 1.1-.6 1.6-.1.2.3.3.3.1zm-6.5 14.4c-1.1-.7-1.7-1.7-2.3-2.7-.1-.2-.4-.1-.4.1 0 1.4 1.2 2.5 2.4 3.1.4.1.6-.4.3-.5zm-.4-2.9c-.7-1.1-1-2.3-1.3-3.6 0-.2-.3-.1-.3 0-.1 1.3.5 2.7 1.2 3.8.2.3.6 0 .4-.2zm-.1-4c-.3-.7-.5-1.7-.9-2.3-.1-.2-.4-.1-.4.1.1.8.6 1.6.9 2.3 0 .3.4.2.4-.1zm.3-4.2c.2-.6.6-1.3.7-2 0-.2-.3-.2-.4-.1-.4.6-.5 1.3-.8 2-.1.3.4.4.5.1zm-4.8 14.5c-.6-.3-1.1-.6-1.6-1.1-.4-.4-.8-1-1.2-1.5-.1-.2-.4 0-.3.2.2 1.4 1.7 2.4 2.9 2.8.3.2.4-.3.2-.4zm-.6-2.9c-.4-.2-.7-.5-1-.9-.3-.3-.4-.8-.7-1.1-.1-.2-.4-.1-.4.1.1 1 1 1.8 1.8 2.3.4.1.6-.2.3-.4zm-.7-4c-.3-.4-.5-.8-.6-1.3-.1-.4-.1-.8-.2-1.2-.1-.2-.3-.2-.4-.1-.4 1 .2 2.2.9 2.9.1.3.5-.1.3-.3zm-5.3 10.8c.8.8 3.1.7 3.6-.4.1-.2-.1-.5-.3-.4-.5.2-.8.5-1.4.6-.6.1-1.1-.1-1.7-.2-.2-.1-.4.2-.2.4zm-1-2.9c.3.7 1.2 1.5 2 1.2.2-.1.2-.4 0-.5-.3-.1-.6-.1-.8-.2-.3-.2-.6-.4-.8-.7-.2-.2-.5 0-.4.2zm.1-1.8c.4.2.7.5 1.1.7.2.1.3-.2.2-.3-.3-.3-.7-.5-1.1-.8-.3-.2-.5.2-.2.4zm-2.4 9.7c.5.5 1.1.7 1.8.7.6 0 1.4-.3 1.7-.9.1-.2-.1-.5-.4-.4-.5.2-.8.5-1.3.6-.5.1-1-.1-1.5-.3-.2-.3-.5.1-.3.3zm-1-1.6c.6.7 2.1.9 2.5-.2.1-.2-.2-.3-.3-.2-.6.2-1.2.5-1.7 0-.4-.2-.8.2-.5.4zm-1.2 7.6c.8.7 2.4 1.4 3.4.6.2-.2.2-.5-.1-.5-.5 0-1 .2-1.5.1-.6 0-1.1-.2-1.6-.6-.1 0-.4.3-.2.4zm-1.1-3.4c.4.8 1.4 1.3 2.3.9.2-.1.1-.4-.1-.4-.7.1-1.4-.1-1.7-.7-.2-.4-.7-.1-.5.2zm.4 11.6c1 .9 2.5 1.4 3.7.7.1-.1.1-.3-.1-.3-1.2.1-2.4.1-3.4-.7-.1-.1-.4.2-.2.3zm-1.2-4c.4 1 1.4 2.2 2.6 2 .2 0 .2-.3.1-.4-.4-.3-.8-.4-1.2-.7-.5-.3-.8-.7-1.1-1.2-.1-.2-.5 0-.4.3zM56 83c.6 2 2.5 4.1 4.8 3.9.2 0 .3-.3.1-.4-2-.6-3.7-1.5-4.6-3.6-.1-.1-.4 0-.3.1zm-.1-1.9c.1.6.3 1.2.7 1.6.4.4 1 .9 1.6.9.3 0 .3-.3.1-.5-.4-.3-.9-.4-1.2-.8-.4-.4-.7-.8-.8-1.3-.1-.1-.4-.1-.4.1zM101 46c-.4 3 2.5 5.8 5.4 4.5.2-.1.1-.3-.1-.3-2.7.3-5.1-1.2-5.1-4.1.1-.3-.2-.3-.2-.1zm-.2-3.6c.2 1.6 1.4 3.8 3.2 4 .2 0 .5-.2.2-.4-.6-.5-1.3-.8-1.8-1.4-.6-.6-1-1.4-1.3-2.3-.1-.2-.4-.1-.3.1zm0-4c.3 1.2 1.1 2.7 2.3 3.3.2.1.5-.2.3-.3-.4-.4-.9-.8-1.2-1.2-.4-.5-.8-1.1-1-1.8-.2-.3-.5-.2-.4 0zm.9-2.8c.2.6.3 1.2.6 1.8.1.2.3.1.3-.1-.1-.6-.3-1.2-.5-1.8 0-.3-.5-.2-.4.1zm7.2 12c.6 1.4 1.8 2.7 3.3 3 .1 0 .2-.2.1-.2-1.3-.7-2.4-1.5-3.1-2.9 0-.2-.4-.1-.3.1zm.8-2.7c1.3.8 2.2 1.8 3.3 2.8.2.1.4 0 .3-.2-.7-1.3-2.1-2.2-3.4-2.8-.2-.2-.4.1-.2.2zm-.3-2.8c.6.3 1.3.6 1.9.9.1 0 .2-.1.1-.2-.6-.3-1.3-.6-1.9-.9-.1-.1-.2.1-.1.2zm-1.1-4.1c.6.5 1.3 1.1 2 1.5.1.1.2-.1.2-.2-.6-.6-1.2-1.1-1.9-1.6-.2-.1-.5.1-.3.3zm.5-1.3c.2 0 .2-.2 0-.2s-.2.2 0 .2zm8 12.1c.4.6.9 1.3 1.5 1.8.2.1.4-.1.3-.3-.3-.6-1-1.2-1.5-1.7-.1-.2-.4 0-.3.2zm-1.1-4.6c.3.8.8 1.5 1.3 2.1.5.5 1.1 1.1 1.8 1.2.2 0 .2-.2.2-.4-.4-.5-1.1-.9-1.6-1.3-.5-.5-1-1.1-1.4-1.7-.1-.4-.4-.1-.3.1zm-.9-3.5c.8.7 1.7 1.6 2.7 2.1.2.1.4-.1.2-.3-.3-.4-.8-.7-1.2-1.1-.5-.3-.9-.7-1.4-1-.2-.2-.5.1-.3.3zm-.2-3c.8.5 1.6 1.3 2.5 1.6.2.1.4-.2.2-.4-.6-.7-1.7-1.1-2.5-1.6-.3-.2-.5.2-.2.4zm7.9 14.1c.2 1 .8 2.1 1.8 2.5.1 0 .2-.1.1-.2-.7-.8-1.4-1.4-1.7-2.4 0-.2-.2-.1-.2.1zm.6-4.7c.4 1.2.8 2.6 1.5 3.7.1.2.4.1.3-.1-.4-1.3-1.1-2.5-1.6-3.7-.1-.1-.3 0-.2.1zm-1.2-4.1c.5.9 1 2 1.8 2.8.1.1.3 0 .3-.2-.4-1-1.1-2-1.7-2.9-.1-.1-.5.1-.4.3zm5.6 10.6c.5.9 1 1.9 1.6 2.8.1.1.3 0 .2-.1-.5-1-1.1-1.9-1.6-2.8 0-.2-.2-.1-.2.1zm.2-3.6c.2 1.1.7 2.3 1.6 3.1.1.1.4 0 .3-.2-.7-.9-1.3-1.8-1.6-2.9 0-.2-.3-.2-.3 0zm-.3-4.5c.2.3.3.7.6 1 .1.1.2 0 .2-.1-.1-.4-.3-.7-.5-1.1-.1-.1-.4.1-.3.2zm5 12.1c-.2 1.1-.3 2.3.2 3.3.1.2.4.1.4-.1-.1-1.1-.4-2.1-.3-3.2.1-.1-.2-.2-.3 0zm1.2-1.7c0 1-.1 2 .1 3 0 .2.3.1.3 0 .1-1-.1-2-.2-3 .1-.2-.2-.2-.2 0zm1 7.4c-.2.9-.2 1.9.4 2.7.1.1.2 0 .2-.1-.3-.8-.5-1.7-.3-2.5.1-.2-.2-.3-.3-.1zm1.5-2.3c-.6 1.1-1 2.7-.2 3.8.1.1.4.1.3-.1-.1-1.3-.4-2.3.2-3.6 0-.1-.2-.2-.3-.1zm1.3-1.7c-.1.3-.1.6-.1.9 0 .1.1.1.1 0 .1-.3.1-.6.2-.9h-.2zm-1.2 11c-.3 1-.4 2.2.2 3.1.1.2.4.1.3-.1-.2-1-.4-1.8-.2-2.9.1-.2-.2-.3-.3-.1zm1.5-.5c-.2 1-.1 2.1.5 2.9.1.1.2 0 .2-.1-.4-.9-.6-1.7-.5-2.7 0-.2-.2-.3-.2-.1zm-.5 5.7c-1.4 1.8-1.8 4.7-.1 6.5.2.2.4-.1.3-.2-1-2-1.3-4.1 0-6.1.1-.2-.1-.3-.2-.2zm1.3.5c-.5 1-.9 2.4-.4 3.5.1.2.4.1.4-.1 0-.5-.1-1-.1-1.5 0-.6.1-1.2.4-1.7.1-.3-.2-.5-.3-.2zm1.2-1c0 .6-.1 1.2 0 1.8 0 .1.2.1.3 0 .1-.6 0-1.2 0-1.8 0-.2-.3-.2-.3 0zm-.4 10.6c-.2.8-.4 1.8.1 2.6.1.1.3.1.3-.1 0-.8-.2-1.6 0-2.4.1-.3-.3-.4-.4-.1zm1.7-1.4c-.1.6-.2 1.2-.1 1.7 0 .2.3.3.4.1.2-.6.2-1.2.2-1.8 0-.3-.5-.3-.5 0z" fill="#5d5857" stroke-width="none" opacity="1"></path></g><g id="svga-group-glasses-single-move" transform="matrix(1,0,0,1,0,0)"><g id="svga-group-glasses-single"><path id="SvgjsPath13329" d="M72.71 85.78c-2.72.89-6.12 4.57-5.51 11.83.61 7.26 4.71 10.02 8.54 11.43 3.83 1.41 9.68 1.28 14.05-2.69s5.38-8.54 5.04-11.43-2.89-7.39-7.06-8.94c-4.17-1.54-8.48-2.35-15.06-.2z" fill="url(#SvgjsLinearGradient13330)" opacity="1"></path><path id="SvgjsPath13335" d="M127.29 85.78c2.72.89 6.12 4.57 5.51 11.83-.61 7.26-4.71 10.02-8.54 11.43-3.83 1.41-9.68 1.28-14.05-2.69s-5.38-8.54-5.04-11.43 2.89-7.39 7.06-8.94c4.17-1.54 8.48-2.35 15.06-.2z" fill="url(#SvgjsLinearGradient13336)" opacity="1"></path><path id="SvgjsPath13341" d="M119.3 110.69c-4.54 0-9.01-2.42-11.97-6.46-3.39-4.64-4.14-9.63-4.23-10.3.31-.21 1.53-1.13 1.35-2.31-.18-1.2-3.09-1.29-3.97-1.29h-.96c-.88 0-3.79.09-3.97 1.29-.18 1.19 1.04 2.1 1.35 2.31-.09.67-.84 5.66-4.23 10.3-2.96 4.05-7.43 6.46-11.97 6.46-2.19 0-4.42-.54-6.62-1.6-7.34-3.54-7.69-9.66-7.92-13.71-.02-.36-.04-.71-.06-1.03-.26-3.68-2.52-4.06-3.11-4.09v-3.73c.18.01.36.01.54.01 2.63 0 5.06-.7 7.63-1.44 2.8-.81 5.69-1.64 9.1-1.64.53 0 1.06.02 1.62.06 4.85.38 7.27 1.96 8.88 3.01.52.34.97.63 1.39.82.65.29 1.53.42 2.77.42.93 0 1.93-.08 2.89-.15.64-.05 1.27-.1 1.85-.12h.68c.57.02 1.2.07 1.84.12.97.07 1.96.15 2.89.15 1.24 0 2.12-.13 2.77-.42.43-.19.87-.48 1.39-.82 1.6-1.05 4.03-2.63 8.88-3.01.55-.04 1.09-.06 1.62-.06 3.41 0 6.31.84 9.1 1.64 2.57.74 5 1.44 7.63 1.44.18 0 .36 0 .54-.01v3.73c-.62.04-2.84.45-3.11 4.09-.02.33-.04.67-.06 1.04-.23 4.05-.58 10.17-7.92 13.71-2.19 1.05-4.42 1.59-6.61 1.59zm.99-25.75c-1.69 0-3.45.25-5.23.75-3.85 1.07-7.2 3.91-8.54 7.22-1.21 2.98-.83 6.29 1.09 9.57 2.57 4.38 6.88 6.89 11.83 6.89 3.2 0 6.33-1.07 8.58-2.94 5.16-4.29 5.49-12.86 2.32-17.1-2.05-2.75-5.81-4.39-10.05-4.39zm-40.58 0c-4.24 0-8 1.64-10.05 4.38-3.17 4.24-2.84 12.81 2.32 17.1 2.25 1.87 5.37 2.94 8.58 2.94 4.95 0 9.26-2.51 11.83-6.89 1.92-3.27 2.3-6.58 1.09-9.57-1.34-3.31-4.69-6.14-8.54-7.22-1.79-.49-3.54-.74-5.23-.74z" fill="#9b6db6" stroke-width="none" opacity="1"></path><path id="SvgjsPath13342" d="M119.74 83.57c3.4 0 6.28.83 9.07 1.64 2.58.75 5.01 1.45 7.66 1.45.14 0 .28 0 .42-.01v3.48c-.75.08-2.85.64-3.11 4.2-.02.33-.04.67-.06 1.04-.23 4.02-.57 10.1-7.85 13.61-2.18 1.05-4.39 1.58-6.57 1.58-4.5 0-8.93-2.4-11.87-6.41-3.27-4.47-4.07-9.27-4.2-10.17.4-.29 1.52-1.2 1.34-2.39-.19-1.26-2.93-1.39-4.09-1.39H99.53c-1.17 0-3.9.14-4.09 1.39-.18 1.19.94 2.1 1.34 2.39-.13.89-.93 5.69-4.2 10.17-2.93 4.01-7.37 6.41-11.87 6.41-2.18 0-4.38-.53-6.57-1.58-7.28-3.51-7.62-9.59-7.85-13.61l-.06-1.04c-.25-3.54-2.33-4.11-3.11-4.2v-3.49c.14 0 .28.01.42.01 2.65 0 5.08-.7 7.66-1.45 2.79-.81 5.67-1.64 9.07-1.64.53 0 1.08.02 1.61.06 4.82.38 7.23 1.95 8.82 2.99.52.34.97.64 1.41.83.67.3 1.56.43 2.82.43.94 0 1.94-.08 2.9-.15.65-.05 1.27-.1 1.83-.12h.68c.58.02 1.19.07 1.84.12.97.07 1.97.15 2.9.15 1.25 0 2.15-.14 2.82-.43.44-.19.89-.49 1.41-.83 1.59-1.04 4-2.61 8.82-2.99.53-.03 1.07-.05 1.61-.05m-.3 25.92c3.23 0 6.39-1.08 8.66-2.97 5.21-4.33 5.55-12.99 2.34-17.27-2.08-2.78-5.87-4.43-10.15-4.43-1.7 0-3.47.25-5.26.75-3.89 1.08-7.27 3.94-8.62 7.29-1.22 3.02-.84 6.37 1.1 9.68 2.59 4.41 6.94 6.95 11.93 6.95m-38.88 0c5 0 9.35-2.53 11.94-6.95 1.94-3.31 2.32-6.66 1.1-9.68-1.35-3.35-4.74-6.21-8.62-7.29-1.79-.5-3.56-.75-5.26-.75-4.28 0-8.07 1.66-10.15 4.43-3.2 4.28-2.87 12.94 2.34 17.27 2.26 1.89 5.42 2.97 8.65 2.97m39.18-26.17c-.53 0-1.07.02-1.63.06-6.41.5-8.56 3.06-10.31 3.84-.71.31-1.66.41-2.71.41-1.55 0-3.29-.21-4.74-.27h-.69c-1.44.06-3.19.27-4.74.27-1.05 0-2.01-.1-2.71-.41-1.75-.78-3.9-3.34-10.31-3.84-.56-.04-1.1-.06-1.63-.06-6.56 0-11.26 3.09-16.73 3.09-.22 0-.44-.01-.67-.02v3.98h.02c.23 0 2.81.09 3.09 3.98.29 4.08 0 10.97 8.06 14.85 2.33 1.12 4.57 1.61 6.67 1.61 5.16 0 9.45-2.93 12.07-6.51 3.69-5.05 4.26-10.43 4.26-10.43s-1.55-.97-1.36-2.23c.17-1.12 3.17-1.18 3.85-1.18h.95c.67 0 3.67.06 3.85 1.18.19 1.26-1.36 2.23-1.36 2.23s.58 5.39 4.26 10.43c2.62 3.59 6.91 6.51 12.07 6.51 2.1 0 4.34-.49 6.67-1.61 8.06-3.88 7.77-10.77 8.06-14.85.28-3.89 2.86-3.98 3.09-3.98h.02v-3.98c-.22.01-.45.02-.67.02-5.48 0-10.17-3.09-16.73-3.09zm-.3 25.92c-4.33 0-8.88-1.98-11.72-6.83-4.95-8.45 1.46-14.95 7.38-16.6 1.84-.51 3.58-.74 5.19-.74 4.53 0 8.06 1.81 9.95 4.33 3.16 4.23 2.84 12.66-2.3 16.93-2.19 1.82-5.28 2.91-8.5 2.91zm-38.88 0c-3.21 0-6.31-1.09-8.5-2.91-5.14-4.27-5.46-12.7-2.3-16.93 1.88-2.52 5.42-4.33 9.95-4.33 1.62 0 3.36.23 5.19.74 5.92 1.65 12.33 8.15 7.38 16.6-2.84 4.85-7.39 6.83-11.72 6.83z" fill="#763c97" stroke-width="none" opacity="1"></path></g></g></g></g></g><rect id="svga-credit-rect" width="200" height="15" x="0" y="185" fill="#ecf0f1" opacity="0.5" style="display: none;"></rect><text id="svga-credit-text" font-family="Avenir Next, Roboto, Helvetica, Arial, sans-serif" font-size="10px" text-anchor="start" font-weight="400" size="10px" anchor="start" weight="400" fill="#333333" x="33.40447998046875" y="182.60824704170227" style="display: none;"><tspan id="SvgjsTspan13033" dy="13" x="33.40447998046875">Created on AvatarMaker.com</tspan></text></g><defs id="SvgjsDefs12980"><linearGradient id="SvgjsLinearGradient13330" x1="81.0032" y1="84.4741" x2="81.0032" y2="109.8612" gradientUnits="userSpaceOnUse" class="svga-on-canvas-glasses-gradient-single-0-null"><stop id="SvgjsStop13331" stop-opacity="1" stop-color="#9ab4d3" offset="0" ></stop><stop id="SvgjsStop13332" stop-opacity="0.7593" stop-color="#93aed1" offset="0.2407" ></stop><stop id="SvgjsStop13333" stop-opacity="0.4009" stop-color="#7e9ecc" offset="0.5991" ></stop><stop id="SvgjsStop13334" stop-opacity="0" stop-color="#6086c4" offset="1" ></stop></linearGradient><linearGradient id="SvgjsLinearGradient13336" x1="-18.9968" y1="84.4741" x2="-18.9968" y2="109.8612" gradientTransform="matrix(-1 0 0 1 100 0)" gradientUnits="userSpaceOnUse" class="svga-on-canvas-glasses-gradient-single-1-null"><stop id="SvgjsStop13337" stop-opacity="1" stop-color="#9ab4d3" offset="0" ></stop><stop id="SvgjsStop13338" stop-opacity="0.7593" stop-color="#93aed1" offset="0.2407" ></stop><stop id="SvgjsStop13339" stop-opacity="0.4009" stop-color="#7e9ecc" offset="0.5991" ></stop><stop id="SvgjsStop13340" stop-opacity="0" stop-color="#6086c4" offset="1" ></stop></linearGradient></defs></svg>