<svg xmlns="http://www.w3.org/2000/svg" version="1.1" width="600px" height="600px" viewBox="0 0 200 200" style="overflow:hidden!important;"><g id="svga-group-wrapper"><g id="svga-group-backs-single"><path id="SvgjsPath71668" d="M0 0h200v200H0V0z" fill="#c4c7f3" stroke-width="none" opacity="1" stroke="none"></path><path id="SvgjsPath71669" d="M165.5 23.7c11.7 0 21.1 9.5 21.1 21.1S177.2 66 165.5 66s-21.1-9.5-21.1-21.1 9.4-21.2 21.1-21.2zm-77.3 86.5c11.7 0 21.1 9.5 21.1 21.1s-9.5 21.1-21.1 21.1-21.1-9.5-21.1-21.1 9.4-21.1 21.1-21.1zm-37.8 48.9c9.1 0 16.6 7.4 16.6 16.6s-7.4 16.6-16.6 16.6-16.6-7.4-16.6-16.6 7.5-16.6 16.6-16.6zm-.3-132.8c9.1 0 16.6 7.4 16.6 16.6s-7.4 16.6-16.6 16.6S33.5 52 33.5 42.8s7.4-16.5 16.6-16.5zm60.3-7.2c2.7 0 4.8 2.2 4.8 4.8s-2.2 4.8-4.8 4.8-4.8-2.2-4.8-4.8 2.1-4.8 4.8-4.8zm-91.5 97.1c2.7 0 4.8 2.2 4.8 4.8s-2.2 4.8-4.8 4.8-4.8-2.2-4.8-4.8 2.1-4.8 4.8-4.8zm120-5.7c4.8 0 8.8 3.9 8.8 8.8s-3.9 8.8-8.8 8.8-8.8-3.9-8.8-8.8 4-8.8 8.8-8.8z" fill="#a1a5e4" stroke-width="none" opacity="1" stroke="none"></path><path id="SvgjsPath71670" d="M101.8 45.4c14.2 0 25.8 11.5 25.8 25.8S116 97 101.8 97 76 85.4 76 71.2s11.5-25.8 25.8-25.8zm21.6 117.7c7.5 0 13.6 6.1 13.6 13.6s-6.1 13.6-13.6 13.6-13.6-6.1-13.6-13.6 6-13.6 13.6-13.6zm-88.6-35.9c7.2 0 13 5.8 13 12.9S42 153 34.8 153s-13-5.8-13-12.9 5.8-12.9 13-12.9zM55 88.8c2.1 0 3.8 1.7 3.8 3.8s-1.7 3.8-3.8 3.8-3.8-1.7-3.8-3.8 1.7-3.8 3.8-3.8zm44.9 78.4c2.1 0 3.8 1.7 3.8 3.8s-1.7 3.8-3.8 3.8-3.8-1.7-3.8-3.8 1.7-3.8 3.8-3.8zm79.9-82.1c2.1 0 3.8 1.7 3.8 3.8s-1.7 3.8-3.8 3.8-3.8-1.7-3.8-3.8 1.7-3.8 3.8-3.8zM66.7 16.5c2.1 0 3.8 1.7 3.8 3.8s-1.7 3.8-3.8 3.8-3.8-1.7-3.8-3.8 1.7-3.8 3.8-3.8zm-46.8-4.3c2.7 0 4.8 2.2 4.8 4.8s-2.2 4.8-4.8 4.8-4.8-2.2-4.8-4.8 2.1-4.8 4.8-4.8zM15.5 180c2.7 0 4.8 2.2 4.8 4.8s-2.2 4.8-4.8 4.8-4.8-2.2-4.8-4.8 2.2-4.8 4.8-4.8zM149.1 77.2c4.7 0 8.4 3.8 8.4 8.4s-3.8 8.4-8.4 8.4-8.4-3.8-8.4-8.4 3.7-8.4 8.4-8.4zM145.8 5c4.7 0 8.4 3.8 8.4 8.4s-3.8 8.4-8.4 8.4-8.4-3.8-8.4-8.4 3.7-8.4 8.4-8.4zM35.3 70.3c4.8 0 8.8 3.9 8.8 8.8s-3.9 8.8-8.8 8.8-8.8-3.9-8.8-8.8 4-8.8 8.8-8.8zm127.8 58.9c14 0 25.3 11.3 25.3 25.3s-11.3 25.3-25.3 25.3-25.3-11.3-25.3-25.3 11.4-25.3 25.3-25.3z" fill="#8186d4" stroke-width="none" opacity="1" stroke="none"></path></g><g id="svga-group-humanwrap-move" transform="matrix(1,0,0,1,0,0)"><g id="svga-group-humanwrap" transform="matrix(0.8499994000000002,0,0,0.8499994000000002,15.00756063081721,16.98390203510597)"><g id="svga-group-hair-back-move" transform="matrix(1,0,0,1,0,0)"><g id="svga-group-hair-back"><path id="SvgjsPath71532" d="M61.6 38.2S52 52.5 51.1 62.3s1.6 31 1.6 38-.7 25.9-11.6 35.1c0 0 8.2-4.3 12.3-11.6 0 0-2.5 10.5-9.8 16.2 0 0 9.6-4.3 15.7-15.2 0 0-4.8 13.2-12.8 16.8 0 0 9.8-2.7 16.4-14.8 0 0-2.7 16.6-7.3 22.3 0 0 8.6-11.6 10.9-19.4 0 0-3.6 13.7-3.2 20.5 0 0 1.6-10.9 9.8-18.4 0 0 1.1 12.8.2 18.4 0 0 4.6-7.7 5.2-14.6 0 0 3.6 10.9 6.2 15.5 0 0-1.6-9.6-.5-13.9l37.3-2.1s3.2 14.3 6.2 18.7c0 0-2.5-14.8-.9-20.3 0 0 .9 12.1 14.8 19.1 0 0-12.1-12.1-11.1-22.5 0 0 2.7 10.2 10.5 15.9 0 0-6.4-11.4-4.8-20 0 0 5.9 15.7 11.1 19.8 0 0-6.1-10.2-5.7-19.1 0 0 4.1 10 9.1 13 0 0-5.7-7.1-6.4-17.5 0 0 3.6 10 12.3 15 0 0-8.9-7.3-10.7-21.8-1.8-14.6 1.1-37.8 1.4-44.8s0-12.3-2.7-18.4-2.1-12.1-18.4-15.5c-16.4-3.5-64.6 1.5-64.6 1.5z" fill="#eeef76" stroke-width="none" opacity="1" stroke="none"></path><path id="SvgjsPath71533" d="M50.7 120.8c.7-2.1 1.3-4.2 1.7-6.3 1.8-8.6 1.3-17.4.7-25.9-.7-8.6-1.6-17.1-.9-25.6.4-4.2 1.1-8.4 2.4-12.5.7-2 1.5-4 2.4-5.9 1-1.9 2.1-3.7 3.4-5.4-1.5 1.6-2.8 3.3-3.9 5.2-1.1 1.9-2.1 3.8-2.9 5.8-.8 2-1.4 4.1-1.9 6.2-.5 2.1-.8 4.3-1.1 6.4-1 8.7-.2 17.3.5 25.9.3 4.3.6 8.5.7 12.8 0 2.1 0 4.2-.2 6.4-.2 2.1-.4 4.2-.8 6.3-.7 4.2-1.9 8.3-3.7 12.1-.9 1.9-2 3.8-3.2 5.5-1.3 1.7-2.7 3.3-4.3 4.8 1.7-1.3 3.3-2.8 4.7-4.5 1.4-1.7 2.6-3.5 3.7-5.4 1.1-1.9 1.9-3.9 2.7-5.9zm11.6-6.7c-1.1 2.7-2.1 5.5-3.1 8.2-1 2.7-2.1 5.3-3.5 7.8-1.3 2.5-2.9 4.9-4.7 7-1.9 2.1-4 4-6.5 5.6 2.8-.8 5.5-2.4 7.6-4.5 2.2-2.1 4-4.5 5.4-7.2 1.4-2.6 2.4-5.4 3.2-8.3.8-2.8 1.3-5.6 1.6-8.6zm7.3-1.7c0-4.2-.4-8.5-1.4-12.6.2 4.2.2 8.4-.1 12.6-.3 4.2-.9 8.3-1.8 12.3-.8 4.1-2 8.1-3.4 12-1.4 3.9-3.1 7.7-5 11.5 2.6-3.3 4.7-7 6.5-10.9 1.7-3.9 3-8 3.9-12.1.9-4.3 1.3-8.6 1.3-12.8zm8.1-5.1c.2 3.9.2 7.7-.1 11.5-.3 3.8-.9 7.6-1.9 11.2-.9 3.7-2.2 7.3-3.7 10.8-1.5 3.5-3.3 6.9-5.3 10.2 2.7-2.8 4.9-6.1 6.7-9.5 1.8-3.5 3.2-7.2 4.2-11 .9-3.8 1.5-7.7 1.5-11.6 0-3.9-.4-7.9-1.4-11.6zm8.3 18c-.2 3.3-.7 6.7-1.4 9.9-.7 3.3-1.6 6.5-2.7 9.6-1.1 3.2-2.5 6.2-4 9.3 2.2-2.6 4-5.6 5.5-8.7 1.5-3.1 2.5-6.4 3.2-9.8.7-3.4 1.1-6.9 1-10.3-.1-3.4-.5-6.9-1.5-10.2.1 3.4.1 6.8-.1 10.2zm67.8 8c-1.3-1.9-2.4-4-3.4-6.1-1.9-4.2-3-8.8-3.7-13.4a80.289 80.289 0 0 1-.6-13.9c.2-4.7.6-9.3 1-14 .4-4.7.8-9.4.9-14.1 0-2.4 0-4.7-.1-7.1-.2-2.4-.4-4.7-.9-7.1-.4-2.3-1-4.7-1.7-6.9-.8-2.2-1.6-4.5-2.7-6.6-1.1-2.1-2.4-4.1-3.9-5.9-1.5-1.8-3.2-3.5-5.1-4.9 1.7 1.6 3.3 3.3 4.7 5.2 1.3 1.9 2.5 3.9 3.4 6 1.9 4.2 3.1 8.8 3.8 13.3a80.289 80.289 0 0 1 .6 13.9c-.2 4.7-.6 9.3-1 14-.4 4.7-.8 9.4-.9 14.1 0 2.4 0 4.7.1 7.1.1 2.4.4 4.7.8 7.1.4 2.3.9 4.7 1.7 6.9.7 2.3 1.6 4.5 2.7 6.6 1.1 2.1 2.4 4.1 3.8 6 1.5 1.9 3.2 3.5 5 5-1.6-1.6-3.2-3.3-4.5-5.2zm-17-10.8c-.9-4.6-1.4-9.3-1.6-14.1-.2-4.7-.1-9.5 0-14.2.2-9.5.7-19.1-.3-28.7-.3-2.4-.6-4.8-1.1-7.1-.5-2.3-1.1-4.7-2-7-.9-2.2-2.1-4.4-3.8-6.2-.8-.9-1.8-1.7-2.8-2.3-1.1-.6-2.2-1-3.4-1.1 2.3.5 4.4 1.9 5.8 3.7 1.5 1.8 2.5 4 3.2 6.2.8 2.2 1.2 4.5 1.6 6.9.4 2.3.7 4.7.9 7 .7 9.4.2 19-.1 28.5-.2 9.5-.2 19.3 2.1 28.7 1.1 4.7 2.8 9.3 5.1 13.5 2.3 4.2 5.3 8.1 8.9 11.2-3.3-3.4-6-7.4-8-11.7-2.2-4.1-3.6-8.7-4.5-13.3zm-7.4 6.5c-2.8-9.2-4.1-18.8-4.7-28.4-.8-9.6-1-19.3-2.1-29-.3-2.4-.6-4.8-1-7.2-.4-2.4-.8-4.8-1.6-7.2-.8-2.3-2-4.6-3.7-6.3-1.7-1.8-4-3-6.5-3.1 2.4.3 4.5 1.7 6.1 3.5 1.6 1.8 2.6 4 3.2 6.3.6 2.3.9 4.7 1.2 7.1.3 2.4.5 4.8.7 7.2.8 9.6.9 19.3 1.7 29 .7 9.7 2.1 19.4 5.2 28.7 1.6 4.6 3.5 9.1 6 13.3 2.6 4.1 5.6 8 9.2 11.3-3.3-3.6-6.1-7.5-8.3-11.8-2.2-4.4-4-8.9-5.4-13.4zm-15.6-11.7c-3.5-13.1-5.2-26.6-5.3-40.2-1.5 13.6-.2 27.5 3.4 40.7 1.8 6.6 4.1 13.1 7 19.3 2.9 6.2 6.4 12.1 10.4 17.6-3.4-5.9-6.3-12-9-18.3-2.6-6.2-4.8-12.6-6.5-19.1z" fill="#dfe058" stroke-width="none" opacity="1" stroke="none"></path></g></g><g id="svga-group-humanbody-back"><path id="SvgjsPath71428" d="M180.8 184.9c-2.3-3.4-38.9-17.8-38.9-17.8l-13.4-5.2-5.6-68.8H76.8L71.3 162l-13.4 5.2S21.4 181.6 19 185c-2.3 3.4-3.3 14.9-3.3 14.9V219h168.5v-19.2c-.1.1-1-11.5-3.4-14.9z" fill="#ffd0bc" stroke-width="none" opacity="1" stroke="none"></path></g><g id="svga-group-chinshadow-single"><path id="SvgjsPath71727" d="M74.4 151c3.3 4.9 8 13.4 10.3 14 1.7.5 6.3-1.4 8.5-2.3.8-.3 1.7-.3 2.5 0 2.1 1 6.8 2.8 8.4 2.3 2.3-.6 7-9 10.3-14 1.78-2.67 7.23-9.55 11.96-15.83l-3.42-42.07H76.82l-4.4 55.29c.85 1.08 1.55 1.98 1.98 2.61z" fill="#e09879" stroke-width="none" opacity="1"></path></g><g id="svga-group-humanbody-front"><path id="SvgjsPath71429" d="M184.5 219c-.1-6.4-.1-12.8-.1-19.2l-.3-.1s.1-.1.2 0c.1 0 .1.1.1.1v-.4l-.1-.5-.1-.9-.2-1.9c-.2-1.3-.4-2.5-.6-3.8-.2-1.3-.5-2.5-.9-3.8-.4-1.2-.8-2.5-1.5-3.6-.8-.9-1.9-1.5-2.9-2.1-1-.6-2.1-1.1-3.2-1.7-2.1-1.1-4.3-2.1-6.5-3.1-4.4-2-8.7-3.9-13.1-5.7-4.4-1.9-8.8-3.7-13.2-5.5l-13-5.2-1.2-16.9c-.4-5.7-.9-11.5-1.3-17.2l-1.3-17.2-1.5-17.3-.1-.8h-.8c-7.7 0-15.4.1-23.1.1l-23.1.2h-.5v.5L75 110.2l-1.3 17.2c-.8 11.4-1.8 22.8-2.8 34.2-5.6 2.1-11.2 4.2-16.7 6.4-5.6 2.2-11.2 4.5-16.8 6.9-2.8 1.2-5.6 2.4-8.3 3.6-2.8 1.3-5.5 2.5-8.2 4.1-.7.4-1.3.8-2 1.4-.2.1-.4.4-.5.6l-.3.6c-.2.4-.4.7-.5 1.1-.6 1.5-1 3-1.3 4.5-.6 3-1.1 6-1.4 9.1l-.1 19.1v.9h.9l42.1.1H100c14 0 28.1-.1 42.1-.2l42.1-.5h.3v-.3zm-84.5-1-42.1-.1-41.2.1-.1-18.1c.3-3 .6-5.9 1.2-8.9.3-1.4.6-2.9 1.1-4.2.1-.3.3-.7.4-.9l.2-.4.3-.3c.5-.4 1.1-.8 1.8-1.2 2.5-1.5 5.3-2.8 8-4.1 2.7-1.3 5.5-2.5 8.2-3.7 5.5-2.4 11.1-4.8 16.7-7.1s11.2-4.5 16.9-6.7l.2-.1v-.2c.9-11.5 1.7-23 2.7-34.4l1.4-17.2 1.5-16.7 22.6.2c7.4.1 14.8.1 22.3.1l1.3 16.4 1.5 17.2c.5 5.7 1 11.5 1.5 17.2l1.6 17.2v.3l.3.1 13.4 5c4.4 1.7 8.9 3.4 13.3 5.2 4.4 1.8 8.8 3.7 13.2 5.6 2.2 1 4.3 2 6.5 3 1.1.5 2.1 1.1 3.2 1.6 1 .6 2.1 1.2 2.9 2 .7 1.1 1.1 2.3 1.4 3.5.3 1.2.6 2.5.8 3.7.2 1.3.4 2.5.6 3.8l.2 1.9.1.9.1.5v.4c0 6.3 0 12.6-.1 18.9l-41.8-.5c-14 .1-28.1 0-42.1 0z" fill="#d17f5b" stroke-width="none" opacity="1" stroke="none"></path><path id="SvgjsPath71430" d="M125.1 142.4s-1.8 23-9.1 32.9c0 0 7.9-25 9.1-32.9zm-34.5 16s5 7.9 11.5 10.1c0 0-9.5 2.2-11.5-10.1zM73.4 140c6.7 25.6 6.7 25.6 8.5 30.7 0 0 .4-12.6-8.5-30.7z" fill="#e09879" stroke-width="none" opacity="1" stroke="none"></path></g><g id="svga-group-clothes-single"><path id="SvgjsPath71303" d="M61.8 186.6s14.4 11.8 17.6 14.6c3.2 2.8 21.3 12 21.3 12s19.2-9.9 22.4-12.5c3.2-2.6 14.4-17.4 14.4-17.4V220H66.4l-4.6-33.4z" fill="#efefef" stroke-width="none" opacity="1"></path><path id="SvgjsPath71304" d="M67 148.7s-7.2 5.3-11 8.6-9.9 6.6-9.9 6.6l2.9 1.6s-5.5 3.2-10.9 4.8c-5.5 1.6-20.1 5.2-21.1 5.7s-2.3 2.9-2.3 2.9-4.4.9-4.9 11.1c-.6 10.2-1.3 30-1.3 30h64.1s-5.8-35.1-6.3-39.2c0-.4 1.2-16.6 1.2-18 0-1 4.4-11.7 4.3-15.4-.1-1.5-4.8 1.3-4.8 1.3zm66 0s7.2 5.3 11 8.6 9.9 6.6 9.9 6.6l-2.9 1.6s5.5 3.2 10.9 4.8c5.5 1.6 20.1 5.2 21.1 5.7s2.3 2.9 2.3 2.9 4.4.9 4.9 11.1 1.3 29.9 1.3 29.9h-64.1s5.8-35.1 6.3-39.2c0-.4-1.1-16.6-1.1-18 0-1-3.5-12.8-3.7-15.9-.1-1.2 4.1 1.9 4.1 1.9z" fill="#82cbe2" stroke-width="none" opacity="1" stroke="none"></path><path id="SvgjsPath71305" d="M138.2 164.1s4.9 11.3 6.3 13.8c1.4 2.6 12.2 10.8 12.2 10.8s-15.5 12.9-15.7 14.5c-.2 1.6-3.1 11.7-3.1 11.7l4.2-9.9s6.6-5.6 8.2-6.6 14.1-9.9 14.1-9.9-16.2-11-17.8-12.7c-1.6-1.4-8.4-11.7-8.4-11.7zm26.3 9.6c-3.5-.9-10.1-4.2-12.7-5.6 0 0 8 5.4 10.6 6.8 2.6 1.4 15.5 3.8 15.5 4.5 0 .7-4 5.2-4.9 7.5-.9 2.4-.9 9.1-.9 9.1s1.9-5.9 3.1-8.9 7.7-7.3 7.7-7.3 0-1.6-.9-2.6-14-2.6-17.5-3.5zm24.1 12.9c-.2-2.6-2.1-4.5-3.8-5.2 0 0 .9 1.6 1.2 2.6s.7 11.5.7 15.9 3.1 16.9 3.1 16.9-.9-27.6-1.2-30.2zM65.5 161.7c-.5 5.4-2.6 17.6-3.5 21.4-.9 3.8-.2 18.1-.2 18.1s.7-12.7 1.9-15.5c1.2-2.8 2.6-10.3 2.4-12.4-.4-2.2-.6-11.6-.6-11.6zm-43.1 14.5c-1.6.4-4.3 1.2-5.1 2.2 0 0 0 1.4 7.5-.8 5.3-1.5 14.7-5.8 19.7-8.2-6.9 2.7-20.8 6.5-22.1 6.8zm22.1-6.8c1.6-.6 2.9-1.2 3.5-1.6-.1 0-1.4.6-3.5 1.6zm-2.1 22.9c-2.2-1-5.7-2.4-5.7-2.4 4.1 1.8 21.2 14.6 21.2 14.6l6.3 13.8s-4.5-14.6-5.5-15.5c-.9-1-14.1-9.5-16.3-10.5z" fill="#a3dff1" stroke-width="none" opacity="1" stroke="none"></path><path id="SvgjsPath71306" d="M190.8 190.1c-.5-9.2-4.1-11.1-5.1-11.4-.4-.6-1.4-2.5-2.4-2.9-.5-.3-3.8-1.1-9.1-2.5-4.4-1.1-9.3-2.4-12-3.2-4.1-1.3-8.4-3.4-10.1-4.4l2.9-1.7-.8-.4c-.1 0-6.1-3.3-9.8-6.5-3.8-3.3-10.9-8.6-11-8.6l-.8-.6-4.8-2.4 1.1 16.4 3.1 1.2c0 1.1.4 6.1.7 10.5.2 3.5.5 7 .5 7.3-.1 1.2-.7 4.9-1.4 9.7-.6.8-1.2 1.5-1.8 2.2-1.3 1.6-2.6 3.1-3.9 4.6-.7.8-1.3 1.5-2 2.2-.3.4-.7.7-1.1 1-.4.3-.8.6-1.2.8-3.4 2.1-7 4-10.5 5.9-3.5 1.9-7 3.7-10.5 5.5-3.4-1.7-6.9-3.5-10.3-5.3-1.7-.9-3.5-1.9-5.2-2.9-1.7-1-3.4-1.9-5-3.1L68.5 192c-.9-5.4-1.6-9.9-1.7-11.1 0-.3.2-3.9.5-7.3.3-4.4.6-8.9.7-10.2l3.1-1.4 1.3-15.9-5 1.7-.8.6c-.1.1-7.2 5.4-11 8.6-3.7 3.2-9.8 6.5-9.8 6.5l-.8.4 2.9 1.7c-1.7.9-5.9 3.1-10 4.4-2.7.8-7.6 2.1-12 3.2-5.3 1.4-8.6 2.2-9.1 2.5-1 .5-2.1 2.3-2.4 2.9-1 .4-4.6 2.2-5.1 11.4-.6 10.1-1.3 29.8-1.3 30v.5h184.1v-.5c-.1-.2-.8-19.9-1.3-29.9zM30.4 219.5c-.1-3.5-.3-6.9-.9-10.4-.7-3.7-1.4-7.4-2.3-11-.5-1.8-.9-3.6-1.5-5.4-.6-1.8-1.2-3.6-2.2-5.2-1.1-1.6-2.3-3-3.6-4.4-.6-.7-1.3-1.4-2-2-.7-.6-1.3-1.4-2.2-1.8.4.2.7.6 1 .9.3.3.6.7.9 1l1.8 2.1c1.2 1.4 2.4 2.9 3.3 4.5.9 1.6 1.5 3.4 2 5.1.5 1.8 1 3.6 1.4 5.4.9 3.6 1.6 7.3 2.5 10.9.4 1.8.7 3.7.9 5.5.4 1.6.6 3.2.9 4.8H9c.1-3.2.8-20.3 1.2-29.4.5-9.6 4.5-10.6 4.6-10.6l.2-.1.1-.2c.5-.9 1.4-2.4 2.1-2.7.5-.2 4.8-1.4 8.9-2.4 4.4-1.1 9.4-2.4 12.1-3.2 4.9-1.5 9.8-4.2 10.8-4.8.6.4 1.2.7 1.8 1.1l2.5 1.5c.4.2.8.5 1.2.8l.6.3c-2.1 2.2-4.3 4.2-6.7 6l-8.4 6.1c-2.8 2.1-5.6 4.1-8.4 6.2l-1.1.8 1.2.8 6.1 4.1 6.1 4.1 6.2 4.1c1 .7 2.1 1.4 3 2l2.8 2.2c1.2 2.3 2.3 4.6 3.5 6.9l3.3 6.3H30.4zm32.4 0c-.9-2.2-1.8-4.4-2.7-6.7-1-2.4-2-4.9-3.1-7.3v-.1l-.1-.1c-.9-.8-1.8-1.7-2.8-2.5-1-.8-2-1.5-3-2.2-2-1.4-4-2.8-6-4.3s-4-2.8-6.1-4.2c-1.7-1.1-3.3-2.3-5-3.4 2.4-1.8 4.8-3.6 7.2-5.5 2.7-2.1 5.5-4.2 8.2-6.4 2.8-2.2 5.2-4.8 7.4-7.5s4.3-5.5 6-8.5c-2.1 2.7-4.4 5.4-6.8 7.9-.2.3-.5.5-.7.8-.2-.1-.4-.3-.6-.4-.4-.3-.7-.7-1.1-1-.8-.6-1.6-1.2-2.4-1.7-.8-.5-1.6-1.1-2.5-1.6l-1.2-.6-.6-.4c1.8-1 6.2-3.6 9.2-6.2 3-2.6 10.2-8 10.2-8l4.1-2.1s-3.7 14.6-3.7 15.3c0 .8-.4 5.9-.7 10.5-.4 5.7-.5 7.3-.5 7.5 0 .1 0 .3.1.4-.2.6-.4 1.2-.5 1.9l-.9 3.9c-.3 1.3-.5 2.6-.8 3.9-.2 1.3-.5 2.6-.7 3.9-.1 2.3-.2 4.5-.1 6.8.4-2.2.7-4.5 1-6.7.3-1.3.5-2.6.8-3.9.2-1.3.5-2.6.7-3.9l.6-3.9c0-.2.1-.5.1-.7 1.1 7.5 5.2 32.6 6 36.9l-9 .1zm57 0H84.2c-3.7 0-7.4 0-11.2.1-.4-2.4-2.8-16.6-4.4-27.2.8.7 1.6 1.4 2.4 2 3 2.6 5.9 5.1 8.9 7.6 1.6 1.2 3.3 2.2 5 3.2 1.7 1 3.4 1.9 5.2 2.9 3.5 1.9 7 3.7 10.5 5.5l.2.1.2-.1c3.6-1.9 7.1-3.7 10.7-5.7 3.5-1.9 7.1-3.9 10.4-6.1l1.2-.9c.4-.4.8-.7 1.1-1.1.7-.7 1.4-1.5 2-2.3 1.3-1.5 2.6-3.1 3.8-4.7.5-.6.9-1.1 1.4-1.7-1.7 10.7-4.2 25.9-4.7 28.4h-7.1zm8.2 0c.7-4.3 4.9-29.4 6-36.9 0 .2.1.5.1.7l.6 3.9c.2 1.3.5 2.6.7 3.9.3 1.3.5 2.6.8 3.9.2 2.2.6 4.5 1 6.7.1-2.3 0-4.6-.1-6.8-.2-1.3-.4-2.6-.7-3.9-.2-1.3-.5-2.6-.8-3.9l-.9-3.9c-.1-.6-.3-1.2-.5-1.9 0-.2 0-.3.1-.4 0-.2-.1-1.8-.5-7.5-.3-4.6-.7-9.8-.7-10.6 0-.9-3.7-15.8-3.7-15.8l4.2 2.6s7.2 5.4 10.2 8c3 2.6 7.4 5.2 9.2 6.2l-.6.4-1.2.6c-.9.5-1.7 1-2.5 1.6-.8.6-1.6 1.1-2.4 1.7-.4.3-.7.7-1.1 1-.2.2-.4.3-.6.4-.2-.2-.5-.5-.7-.8-2.4-2.5-4.6-5.2-6.8-7.9 1.8 3 3.9 5.8 6.1 8.5 2.2 2.7 4.6 5.3 7.4 7.5 2.7 2.2 5.5 4.3 8.2 6.4 2.4 1.9 4.8 3.7 7.2 5.5-1.7 1.1-3.3 2.2-5 3.4-2 1.4-4.1 2.8-6.1 4.2-2 1.4-4 2.8-6 4.3-1 .7-2 1.4-3 2.2-.9.8-1.9 1.6-2.8 2.5l-.1.1-.1.1c-1 2.4-2.1 4.9-3.1 7.3l-2.7 6.6-9.1.1zm41.7 0c.2-1.6.4-3.1.6-4.7.3-1.9.5-3.7.9-5.5.9-3.6 1.6-7.3 2.5-10.9.4-1.8.9-3.6 1.4-5.4s1.1-3.6 2-5.1c.9-1.5 2.1-3 3.3-4.5l1.8-2.1c.3-.4.6-.7.9-1 .3-.3.6-.7 1-.9-.8.4-1.5 1.2-2.2 1.8l-2 2c-1.3 1.4-2.5 2.8-3.6 4.4-1.1 1.6-1.6 3.4-2.2 5.2-.6 1.8-1.1 3.6-1.5 5.4-.9 3.7-1.6 7.3-2.3 11-.4 3.4-.6 6.8-.6 10.3h-32.4l3.3-6.3c1.2-2.3 2.4-4.6 3.5-6.9l2.8-2.2c1-.7 2-1.4 3-2l6.1-4.1 6.1-4.1 6.1-4.1 1.2-.8-1.1-.8c-2.8-2.1-5.6-4.2-8.4-6.2l-8.4-6.1c-2.4-1.8-4.6-3.8-6.7-6l.6-.3c.4-.2.8-.5 1.2-.8l2.5-1.5c.6-.3 1.2-.7 1.8-1.1 1 .6 5.9 3.3 10.8 4.8 2.7.8 7.7 2.1 12.1 3.2 4.2 1.1 8.5 2.2 8.9 2.4.6.3 1.6 1.8 2.1 2.7l.1.2.2.1s4.1 1 4.6 10.6c.5 9.1 1.1 26.2 1.2 29.4h-21.2zm22.4 1z" fill="#3295b4" stroke-width="none" opacity="1" stroke="none"></path></g><g id="svga-group-head" transform="matrix(1,0,0,1,0,0)"><g id="svga-group-ears-left-move" transform="matrix(1,0,0,1,0,0)"><g id="svga-group-ears-left"><path id="SvgjsPath71322" d="M69.12 87.77s-3.29-8.06-6.27-11.95c0 0-1.72-1.36-3.37-2.59a2.608 2.608 0 0 0-3.59.45c-1.89 2.35-5.15 6.65-7.88 11.59-.45.82-.63 1.77-.48 2.7.34 2.01 1.03 5.64 1.87 7.11 1.19 2.09 6.12 7.32 9.56 9.11 0 0 3.88.6 6.87-2.09s3.29-14.33 3.29-14.33z" fill="#ffd0bc" stroke-width="none" opacity="1" stroke="none"></path><path id="SvgjsPath71323" d="M67.06 88.73c-.08-.25-6.48-8.56-8.98-10.14-2.49-1.58-7.73 6.57-7.98 9.31s2.49 7.9 4.82 9.39c2.33 1.5 7.56 2.08 10.47-2.16 2.91-4.24 1.67-6.4 1.67-6.4z" fill="#f0b399" stroke-width="none" opacity="1" stroke="none"></path><path id="SvgjsPath71324" d="M47.63 85.77c-.18.46-.28.95-.31 1.44-.03.5.07.99.14 1.45.15.94.32 1.89.51 2.83.2.94.42 1.88.74 2.8.31.95.92 1.78 1.5 2.53 1.19 1.52 2.52 2.91 3.92 4.23 1.41 1.31 2.88 2.57 4.63 3.51l.07.04.06.01c1.97.21 3.93-.17 5.65-1.11.84-.48 1.63-1.08 2.2-1.94.55-.83.84-1.75 1.13-2.65.53-1.82.79-3.68.99-5.54.2-1.86.27-3.72.28-5.6-.39-1.08-.81-2.11-1.25-3.16-.43-1.04-.91-2.07-1.39-3.09-.5-1.02-.99-2.04-1.56-3.02-.57-.98-1.16-1.95-1.85-2.88l-.02-.03-.03-.03-2.24-1.76-1.15-.87c-.44-.31-.96-.5-1.5-.54a2.91 2.91 0 0 0-1.56.32c-.47.23-.88.68-1.14 1.05-.58.76-1.15 1.53-1.71 2.31-2.19 3.13-4.31 6.28-6.11 9.7zm.02 1.45c0-.46.09-.92.25-1.35.81-1.68 1.83-3.33 2.87-4.91 1.05-1.59 2.17-3.13 3.35-4.62.59-.75 1.18-1.49 1.79-2.22.54-.75 1.34-1.14 2.19-1.07.42.03.82.19 1.15.43l1.12.87 2.24 1.7c1.33 1.75 2.42 3.72 3.48 5.68.53.99 1.02 2 1.53 3.01.5 1 .99 2.03 1.46 3.04-.12 1.84-.35 3.7-.62 5.53-.28 1.83-.64 3.66-1.19 5.4-.31.85-.62 1.73-1.12 2.44-.47.69-1.22 1.23-1.99 1.66-1.52.84-3.37 1.17-5.08.99-1.58-.89-3.04-2.07-4.42-3.32-1.4-1.27-2.72-2.64-3.92-4.08-.6-.74-1.16-1.45-1.47-2.32-.34-.86-.6-1.78-.83-2.7-.23-.92-.43-1.85-.62-2.78-.07-.48-.18-.93-.17-1.38z" fill="#f0b399" stroke-width="none" opacity="1" stroke="none"></path><path id="SvgjsPath71325" d="M52.04 87.76c.28-.91.7-1.72 1.16-2.52.45-.79.97-1.54 1.51-2.27s1.12-1.43 1.79-2.06c.17-.16.35-.31.57-.42.11-.05.25-.11.43-.05.16.08.19.19.28.28.25.39.47.78.67 1.19.82 1.61 1.6 3.24 2.26 4.93.33.84.62 1.7.85 2.59.12.44.22.89.3 1.34.06.45.15.96.03 1.45-.21.97-.78 1.74-1.34 2.45-.58.7-1.24 1.33-1.96 1.89l-.05-.06c.61-.66 1.18-1.35 1.68-2.08.5-.72.93-1.52 1.08-2.32.12-.77-.17-1.66-.41-2.5-.26-.85-.52-1.7-.8-2.55-.55-1.7-1.12-3.41-1.88-5.03-.19-.4-.4-.8-.64-1.16-.06-.06-.14-.18-.19-.19-.04-.02-.13 0-.21.05-.17.09-.34.24-.5.39-.63.61-1.13 1.37-1.62 2.11-.93 1.51-1.82 3.1-2.31 4.74-.05.2-.1.41-.11.6-.01.1-.01.18 0 .26.01.09.03.21.05.31.08.42.19.84.33 1.25.28.82.64 1.62 1.07 2.37.11.19.22.37.34.55.06.09.12.17.18.26.06.08.15.17.12.14-.03.01.11.01.27-.06.16-.09.34-.18.5-.31.67-.51 1.29-1.17 1.81-1.85.06-.09.13-.17.18-.26l.08-.13.03-.09c.04-.15.03-.36 0-.56-.06-.42-.18-.84-.32-1.26-.28-.84-.62-1.68-.99-2.5l.07-.04c.48.77.92 1.56 1.29 2.39.18.42.35.85.46 1.31.05.23.09.48.05.78-.02.08-.04.16-.07.24-.03.06-.06.11-.09.16-.06.11-.13.2-.19.3-.53.77-1.12 1.47-1.85 2.09-.18.15-.39.3-.62.43-.24.1-.58.27-1.02.05-.23-.15-.27-.24-.36-.33-.07-.1-.15-.19-.22-.29-.14-.19-.26-.39-.39-.59-.47-.81-.86-1.65-1.13-2.54-.13-.45-.24-.9-.31-1.37-.01-.12-.03-.23-.04-.36-.01-.14-.01-.28.01-.41.04-.27.1-.51.17-.74z" fill="#d17f5b" stroke-width="none" opacity="1" stroke="none"></path></g></g><g id="svga-group-ears-right-move" transform="matrix(1,0,0,1,0,0)"><g id="svga-group-ears-right"><path id="SvgjsPath71326" d="M130.88 87.77s3.29-8.06 6.27-11.95c0 0 1.72-1.36 3.37-2.59 1.12-.84 2.71-.64 3.59.45 1.89 2.35 5.15 6.65 7.88 11.59.45.82.63 1.77.48 2.7-.34 2.01-1.03 5.64-1.87 7.11-1.19 2.09-6.12 7.32-9.56 9.11 0 0-3.88.6-6.87-2.09-2.99-2.68-3.29-14.33-3.29-14.33z" fill="#ffd0bc" stroke-width="none" opacity="1" stroke="none"></path><path id="SvgjsPath71327" d="M132.94 88.73c.08-.25 6.48-8.56 8.98-10.14 2.49-1.58 7.73 6.57 7.98 9.31s-2.49 7.9-4.82 9.39c-2.33 1.5-7.56 2.08-10.47-2.16-2.91-4.24-1.67-6.4-1.67-6.4z" fill="#f0b399" stroke-width="none" opacity="1" stroke="none"></path><path id="SvgjsPath71328" d="M146.25 76.06c-.56-.78-1.12-1.55-1.71-2.31-.26-.37-.66-.82-1.14-1.05a2.91 2.91 0 0 0-1.56-.32c-.54.04-1.06.23-1.5.54l-1.15.87-2.26 1.77-.03.03-.02.03c-.69.92-1.28 1.89-1.85 2.88-.57.98-1.06 2-1.56 3.02-.49 1.02-.96 2.05-1.39 3.09-.43 1.05-.86 2.08-1.25 3.16.01 1.88.08 3.73.28 5.6.2 1.86.46 3.72.99 5.54.3.9.58 1.82 1.13 2.65.57.86 1.36 1.46 2.2 1.94 1.72.95 3.68 1.32 5.65 1.11l.06-.01.07-.04c1.75-.94 3.22-2.2 4.63-3.51 1.4-1.32 2.73-2.71 3.92-4.23.58-.75 1.19-1.58 1.5-2.53.33-.92.54-1.86.74-2.8.2-.94.36-1.88.51-2.83.07-.46.17-.95.14-1.45-.02-.5-.13-.98-.31-1.44-1.77-3.42-3.89-6.57-6.09-9.71zm5.91 12.54c-.18.93-.38 1.86-.62 2.78-.23.92-.49 1.83-.83 2.7-.31.87-.87 1.58-1.47 2.32a41.929 41.929 0 0 1-3.92 4.08c-1.38 1.25-2.84 2.43-4.42 3.32-1.71.18-3.55-.15-5.08-.99-.77-.43-1.52-.96-1.99-1.66-.5-.71-.81-1.59-1.12-2.44-.55-1.74-.91-3.57-1.19-5.4-.26-1.83-.49-3.69-.62-5.53.47-1 .96-2.03 1.46-3.04.51-1 1-2.02 1.53-3.01 1.06-1.96 2.15-3.92 3.48-5.68l2.24-1.7 1.12-.87c.33-.25.73-.4 1.15-.43.85-.07 1.65.32 2.19 1.07.61.73 1.21 1.47 1.79 2.22 1.18 1.49 2.3 3.03 3.35 4.62 1.04 1.58 2.06 3.23 2.87 4.91.16.43.25.89.25 1.35.03.45-.08.9-.17 1.38z" fill="#f0b399" stroke-width="none" opacity="1" stroke="none"></path><path id="SvgjsPath71329" d="M147.96 87.76c-.28-.91-.7-1.72-1.16-2.52-.45-.79-.97-1.54-1.51-2.27s-1.12-1.43-1.79-2.06c-.17-.16-.35-.31-.57-.42-.11-.05-.25-.11-.43-.05-.16.08-.19.19-.28.28-.25.39-.47.78-.67 1.19-.82 1.61-1.6 3.24-2.26 4.93-.33.84-.62 1.7-.85 2.59-.12.44-.22.89-.3 1.34-.06.45-.15.96-.03 1.45.21.97.78 1.74 1.34 2.45.58.7 1.24 1.33 1.96 1.89l.05-.06c-.61-.66-1.18-1.35-1.68-2.08-.5-.72-.93-1.52-1.08-2.32-.12-.77.17-1.66.41-2.5.26-.85.52-1.7.8-2.55.55-1.7 1.12-3.41 1.88-5.03.19-.4.4-.8.64-1.16.06-.06.14-.18.19-.19.04-.02.13 0 .21.05.17.09.34.24.5.39.63.61 1.13 1.37 1.62 2.11.93 1.51 1.82 3.1 2.31 4.74.05.2.1.41.11.6.01.1.01.18 0 .26-.01.09-.03.21-.05.31-.08.42-.19.84-.33 1.25-.28.82-.64 1.62-1.07 2.37-.11.19-.22.37-.34.55-.06.09-.12.17-.18.26-.06.08-.15.17-.12.14.03.01-.11.01-.27-.06-.16-.09-.34-.18-.5-.31-.67-.51-1.29-1.17-1.81-1.85-.06-.09-.13-.17-.18-.26l-.08-.13-.03-.09c-.04-.15-.03-.36 0-.56.06-.42.18-.84.32-1.26.28-.84.62-1.68.99-2.5l-.07-.04c-.48.77-.92 1.56-1.29 2.39-.18.42-.35.85-.46 1.31-.05.23-.09.48-.05.78.02.08.04.16.07.24.03.06.06.11.09.16.06.11.13.2.19.3.53.77 1.12 1.47 1.85 2.09.18.15.39.3.62.43.24.1.58.27 1.02.05.23-.15.27-.24.36-.33.07-.1.15-.19.22-.29.14-.19.26-.39.39-.59.47-.81.86-1.65 1.13-2.54.13-.45.24-.9.31-1.37.01-.12.03-.23.04-.36.01-.14.01-.28-.01-.41-.04-.27-.1-.51-.17-.74z" fill="#d17f5b" stroke-width="none" opacity="1" stroke="none"></path></g></g><g id="svga-group-faceshape-wrap"><g id="svga-group-faceshape-single"><path id="SvgjsPath71716" d="M140.4 54.9c-2.2-10-6.3-16-15.2-20.8-9.3-5-25.2-4.8-25.2-4.8s-15.9-.2-25.2 4.8c-8.8 4.8-13 10.8-15.2 20.8-.9 4 0 13.6 0 13.6s1.2 13.5 1.2 19.8-1.2 21.4-.8 24.4c.4 3.1 16.6 21.8 19.9 26.7 3.3 4.9 8 13.4 10.3 14 1.7.5 6.3-1.4 8.5-2.3.8-.3 1.7-.3 2.5 0 2.2 1 6.8 2.8 8.5 2.3 2.3-.6 7-9 10.3-14 3.3-4.9 19.5-23.7 19.9-26.7.4-3.1-.8-18.1-.8-24.4s1.2-19.8 1.2-19.8c0-.1 1-9.6.1-13.6z" fill="#ffd0bc" stroke-width="none" opacity="1"></path><path id="SvgjsPath71717" d="M140.4 69.03s.85-8.56.08-14.12c-2.2-10-6.48-16.1-15.38-20.9-9.3-5-25.2-4.8-25.2-4.8S84 29 74.7 34C66 38.9 61.8 44.9 59.6 54.9c-.9 4 0 13.6 0 13.6s1.2 13.5 1.2 19.8-1.2 21.4-.8 24.4c.4 3.1 16.6 21.8 19.9 26.7 3.3 4.9 8 13.4 10.3 14 1.7.5 6.3-1.4 8.5-2.3.8-.3 1.7-.3 2.5 0 2.2 1 6.8 2.8 8.5 2.3 2.3-.6 7-9 10.3-14 3.3-4.9 19.5-23.7 19.9-26.7.4-3.1-.8-18.1-.8-24.4s1.3-19.27 1.3-19.27zm-1.7 30.47.1 5.2c0 1.7.1 3.4.1 5.1 0 .8.21 2.72-.8 4.3-.9 1.4-1.9 2.8-2.9 4.2-2 2.8-4.1 5.5-6.2 8.2l-6.4 7.2c-1.1 1.4-2.1 2.7-3.1 4.2-.5.7-1 1.5-1.5 2.2l-1.4 2.2c-.9 1.5-1.8 2.9-2.8 4.3-.9 1.4-1.9 2.8-2.9 4.1-.3.3-.5.6-.8.9-.2.2-.5.5-.7.5h-.5c-.3 0-.7-.1-1.1-.2-1.5-.3-3.1-.9-4.7-1.5-.4-.2-2.5-.9-2.8-.9-.6 0-1.2.1-1.8.3 0 0-4.28 1.78-5.9 2.1-1.5.3-2 .2-2.1.1l-1.2-1.2c-1.1-1.2-2-2.6-3-4s-1.9-2.9-2.8-4.3c-.9-1.5-1.9-2.9-2.9-4.4-1-1.4-2.1-2.8-3.2-4.1-1.1-1.4-2.1-2.7-3.2-4.1-2.2-2.7-4.3-4.4-6.4-7.1-1.1-1.4-2.1-2.7-3.1-4.1s-2.96-4.3-3.5-5.3c-.48-.88-.5-1.6-.5-1.6v-1.9c0-1.7 0-3.4.1-5.2l.5-10.3c.1-1.7.1-3.5.2-5.2 0-1.7 0-3.5-.1-5.2-.1-3.5-.4-6.9-.6-10.3l-.4-5.2c-.3-1.5-.4-3.2-.4-4.9 0-1.7-.1-3.4 0-5.1 0-.8.8-4.9.8-4.9.5-1.6 1-3.2 1.6-4.8.7-1.5 1.4-3 2.3-4.4.9-1.4 2-2.6 3.2-3.8l.4-.4c.1-.1.3-.3.5-.4l.9-.8c.7-.5 1.3-1 2-1.5s1.4-.9 2.1-1.3l1.1-.6.6-.3.6-.3 1.1-.5 1.2-.5.6-.2c.2-.1.4-.1.6-.2l1.2-.4c3.2-1 6.6-1.6 9.9-2 3.4-.4 6.8-.7 10.2-.7 3.4 0 6.8.2 10.2.5 3.4.4 6.8 1 10 2 .4.1.8.3 1.2.4l.6.2c.2.1.4.1.6.2.8.4 1.6.7 2.3 1.1 1.5.8 3 1.7 4.3 2.7.7.5 2.9 2.5 2.9 2.5 1.15 1.08 2.88 3.67 3.78 5.17.8 1.5 1.53 3.1 2.13 4.7.6 1.6.93 3.39 1.33 5.09.2 1.1.29 2.44.29 3.64 0 1.1.08 1.88.08 2.98-.1 2.2-.15 4.39-.35 6.59l-.47 5.43c-.2 1.7-.3 3.4-.5 5.2-.3 3.4-.51 6.71-.7 10.44-.14 3.51.01 6.66.11 10.16z" fill="#d17f5b" stroke-width="none" opacity="1"></path></g></g><g id="svga-group-mouth-single-move" transform="matrix(1,0,0,1,0,0)"><g id="svga-group-mouth-single"><path id="SvgjsPath71510" d="M119.75 120.2c-2.07.95-4.03 1.44-5.29 1.57-4.78.49-8.33.87-12.75 2.53-1.8.7-2.7.9-4.5.4-1.4-.4-2.8-.7-4.2-.9-2.1-.32-4.18.13-6.29.2-1.2.04-2.44-.29-3.84-.62-.7 0-1.25.22.14.97 3.11 1.68 5.12 1.2 8.62 2 2.4.5 6.2 3.44 8.6 2.64 3-1 6.57-3.23 9.57-4.23 3.3-1 4.76-.51 9.4-3.4.65-.45.99-1.37.54-1.16z" fill="#DA7C87" stroke-width="none" opacity="1" stroke="none"></path></g></g><g id="svga-group-eyes-left-move" transform="matrix(1,0,0,1,0,0)"><g id="svga-group-eyes-left"><g id="svga-group-eyesback-left"><path id="SvgjsPath71368" d="M80.2 74.2c7.5 0 13.5 5.8 13.5 13s-6 13-13.5 13-13.5-5.8-13.5-13 6-13 13.5-13z" fill="#ffffff" stroke-width="none" opacity="1"></path></g><g id="svga-group-eyesiriswrapper-left" transform="matrix(1,0,0,1,0,0)"><g id="svga-group-eyesiriscontrol-left" transform="matrix(1,0,0,1,0,0)"><g id="svga-group-eyesiris-left"><path id="SvgjsPath71445" d="M80.2 81.6c3.1 0 5.6 2.5 5.6 5.6s-2.5 5.6-5.6 5.6-5.6-2.5-5.6-5.6 2.5-5.6 5.6-5.6z" fill="#7b5c33" stroke-width="none" opacity="1"></path><path id="SvgjsPath71446" d="M80.2 84.2c1.7 0 3 1.3 3 3s-1.3 3-3 3-3-1.3-3-3 1.3-3 3-3z" fill="#000000" stroke-width="none" opacity="1"></path><path id="SvgjsPath71447" d="m79.5 84.8-.6-.6c-.2-.2-.5-.3-.8-.3s-.6.1-.8.3c-.2.2-.3.5-.3.8s.1.6.3.8l.6.6c.2.2.5.3.7.3.3 0 .6-.1.7-.3.6-.6.6-1.2.2-1.6zm2.7 5.1c1 0 1-1.5 0-1.5-.9 0-.9 1.5 0 1.5z" fill="#ffffff" stroke-width="none" opacity="1"></path></g></g></g><g id="svga-group-eyesfront-left"><path id="SvgjsPath71376" d="M80.2 73.7c-7.8 0-14.1 6.1-14.1 13.6s6.3 13.6 14.1 13.6 14.1-6.1 14.1-13.6S88 73.7 80.2 73.7zm7 20.8c-2.8 3.7-12.1 3-14 1.9-1.8-1.1-4.5-5.7-4.1-9.1 4.2-2.7 12.6-3.6 14.8-3.4 1.6.1 4.7 1.1 6.5 1.7-.3 2.3-1.2 6.4-3.2 8.9z" fill="#ffd0bc" stroke-width="none" opacity="1" stroke="none"></path><path id="SvgjsPath71377" d="M91.8 86c-1.9-.7-3.9-1.4-5.9-1.9l-1.5-.3c-.5-.1-1.1-.1-1.6-.1-1 0-2.1.1-3.1.2-2.1.2-4.1.6-6.1 1.2-1.8.6-3.7 1.2-5.3 2.4-.2-1.4-.3-2.8-.2-4.2 0-.4.1-.8.1-1.1.1-.3.2-.7.4-1 .4-.7.9-1.2 1.4-1.8 1-1.1 2.2-2.2 3.5-3 .2-.1.3-.2.5-.3.2-.1.3-.1.5-.2.4-.1.7-.1 1.1-.1.8 0 1.5.1 2.3.2 1.5.2 3.1.5 4.6.9 1.5.4 3 .8 4.4 1.6.7.4 1.3.9 1.8 1.4.6.5 1.1 1.1 1.5 1.8 1 1.2 1.5 2.7 1.6 4.3-.1-1.6-.5-3.1-1.3-4.5s-2-2.5-3.3-3.3c-1.4-.8-2.9-1.2-4.4-1.7-1.5-.4-3.1-.7-4.6-.9-.8-.1-1.6-.2-2.4-.2-.4 0-.8 0-1.2.1-.2 0-.4.1-.6.2-.2.1-.4.2-.5.3-1.4.8-2.6 1.9-3.7 3.1-.5.6-1.1 1.2-1.5 1.9-.2.3-.4.8-.5 1.2-.1.4-.1.8-.2 1.2-.1 1.6.1 3.2.3 4.8l.1.5.4-.3c.2-.1.3-.2.5-.4v.1c0 .7.1 1.3.3 1.9.3 1.2.8 2.4 1.5 3.5s1.4 2.2 2.5 2.9c.6.4 1.2.5 1.8.7.3.1.6.1.9.2l.9.1c2.5.2 5.1.2 7.6-.6 1.2-.4 2.4-1.1 3.2-2.2.8-1.1 1.3-2.2 1.7-3.4.6-1.8 1-3.6 1.2-5.5.5 0 .9.2 1.3.3zm-3 4.9c-.4 1.2-1 2.3-1.7 3.3s-1.8 1.6-3 2c-1.2.4-2.4.7-3.6.8-1.2.1-2.5.2-3.8.1-.6-.1-1.2-.1-1.9-.3-.6-.1-1.2-.3-1.7-.7-1-.7-1.7-1.8-2.3-2.9-.6-1.1-1-2.3-1.3-3.5-.1-.6-.2-1.2-.2-1.8v-.5c1.3-.8 2.9-1.4 4.4-1.9 2-.6 4-1 6-1.3 2-.2 4.1-.6 6.1 0 1.5.3 3 .8 4.4 1.2-.2 1.9-.7 3.8-1.4 5.5z" fill="#000000" stroke-width="none" opacity="1" stroke="none"></path></g></g></g><g id="svga-group-eyes-right-move" transform="matrix(1,0,0,1,0,0)"><g id="svga-group-eyes-right"><g id="svga-group-eyesback-right"><path id="SvgjsPath71369" d="M119.8 74.2c7.5 0 13.5 5.8 13.5 13s-6 13-13.5 13-13.5-5.8-13.5-13 6-13 13.5-13z" fill="#ffffff" stroke-width="none" opacity="1"></path></g><g id="svga-group-eyesiriswrapper-right" transform="matrix(1,0,0,1,0,0)"><g id="svga-group-eyesiriscontrol-right" transform="matrix(1,0,0,1,0,0)"><g id="svga-group-eyesiris-right"><path id="SvgjsPath71448" d="M119.8 82.3c2.7 0 4.9 2.2 4.9 4.9s-2.2 4.9-4.9 4.9-4.9-2.2-4.9-4.9 2.2-4.9 4.9-4.9z" fill="#7b5c33" stroke-width="none" opacity="1"></path><path id="SvgjsPath71449" d="M119.8 84.6c1.4 0 2.6 1.2 2.6 2.6s-1.2 2.6-2.6 2.6-2.6-1.2-2.6-2.6 1.2-2.6 2.6-2.6z" fill="#000000" stroke-width="none" opacity="1"></path><path id="SvgjsPath71450" d="M119.2 85.1c-.2-.2-.3-.4-.5-.5-.2-.2-.4-.3-.7-.3-.2 0-.5.1-.7.3-.2.2-.3.4-.3.7 0 .2.1.5.3.7.2.2.4.3.5.5.2.2.4.3.7.3.2 0 .5-.1.7-.3.3-.5.3-1.1 0-1.4zm2.4 4.5c.8 0 .9-1.3 0-1.3-.8-.1-.8 1.3 0 1.3z" fill="#ffffff" stroke-width="none" opacity="1"></path></g></g></g><g id="svga-group-eyesfront-right"><path id="SvgjsPath71378" d="M119.8 73.7c-7.8 0-14.1 6.1-14.1 13.6s6.3 13.6 14.1 13.6 14.1-6.1 14.1-13.6-6.3-13.6-14.1-13.6zm5.8 21.6c-1.8.9-10 .5-12.1-2.9-1.5-2.5-1.9-6.4-1.9-8.4 1.6.2 4.4.4 5.9.5 1.9.1 8.7 1.8 12.6 3.1.1 2.9-2.8 6.8-4.5 7.7z" fill="#ffd0bc" stroke-width="none" opacity="1" stroke="none"></path><path id="SvgjsPath71381" d="M131.6 86c0-.7-.2-1.3-.4-2-.5-1.2-1.2-2.3-2-3.4-.4-.5-.8-1-1.3-1.5-.2-.2-.5-.4-.8-.6s-.6-.3-.9-.4c-1.2-.5-2.4-.9-3.7-1.3-1.3-.3-2.6-.6-3.9-.6-.7 0-1.3.1-2 .4-.6.3-1.1.7-1.6 1.1-1 .8-2 1.7-2.8 2.7-.8 1-1.5 2.2-1.7 3.4.3-1.3 1-2.4 1.8-3.3.8-1 1.8-1.8 2.9-2.6.5-.4 1.1-.7 1.6-1 .6-.2 1.2-.3 1.8-.3 1.3 0 2.5.3 3.8.6 1.2.3 2.4.8 3.6 1.3.3.1.6.3.8.4.3.2.5.3.7.6.4.4.9.9 1.2 1.4.8 1 1.4 2.1 1.9 3.3.4 1 .5 2.2.4 3.3-1.6-.6-3.2-1-4.8-1.5-1.7-.5-3.4-.9-5.2-1.3-.9-.2-1.7-.4-2.6-.5-.9-.1-1.8-.1-2.7-.2-1.8-.1-3.5-.2-5.3-.4.3.1.7.1 1 .1 0 1.8.2 3.5.6 5.3.3 1.1.6 2.2 1.2 3.2.6 1.1 1.6 1.7 2.6 2.2 2.1.9 4.4 1.2 6.6 1.2h.8c.3 0 .6 0 .8-.1.6-.1 1.1-.1 1.7-.4 1-.6 1.8-1.4 2.4-2.3.7-.9 1.2-1.9 1.6-2.9.2-.5.4-1.1.4-1.7v-.4c.3.1.5.2.8.3l.3.1.1-.3c.3-.6.3-1.3.3-1.9zm-1.8 2.3c0 .5-.2 1.1-.4 1.6-.4 1-.8 2-1.5 2.9-.6.9-1.3 1.8-2.3 2.3-.5.2-1 .3-1.6.4-.6.1-1.1.1-1.7.1-1.1 0-2.2-.2-3.3-.4-1.1-.2-2.1-.6-3.1-1.1-1-.5-1.9-1.1-2.4-2-.6-.9-.9-2-1.2-3-.4-1.7-.7-3.4-.8-5.1 1.4.2 2.7.3 4.1.5.9.1 1.8.1 2.6.3.9.2 1.7.3 2.6.6 1.7.4 3.4.9 5.1 1.4 1.2.4 2.5.7 3.7 1.2.2-.1.2.1.2.3z" fill="#000000" stroke-width="none" opacity="1" stroke="none"></path></g></g></g><g id="svga-group-facehighlight-single"></g><g id="svga-group-eyebrows-left-move" transform="matrix(1,0,0,1,0,0)"><g id="svga-group-eyebrows-left-rotate" transform="matrix(1,1.7453292519943295e-9,-1.7453292519943295e-9,1,1.2391838311032188e-7,-1.3753196981269866e-7)"><g id="svga-group-eyebrows-left"><path id="SvgjsPath71281" d="M92.8 69.5s-.2 3.9-1 7.1c0 0-16.1-4.6-18-4.8-1.9-.2-8.4 4.1-8.4 4.1l6.5-9.8 3.8.3-.6-.9 8 1.9 7.5 1.2.5 2.8.4-2.8.5 2.8.8-1.9z" fill="#56342e" stroke-width="none" opacity="1"></path><path id="SvgjsPath71282" d="m92.8 69.5-.1.1c-.1.3-.2.5-.4.8-.1.2-.2.4-.3.7l-.4-2.5-.2-.9-.2.9-.3 1.6-.3-1.6v-.2h-.2l-3.9-.7-1.9-.3c-.6-.1-1.3-.2-1.9-.3-2.6-.6-5.1-1.2-7.7-1.8l-.8-.2.5.8.3.1-3.1-.2h-.2l-.1.1c-1.1 1.7-2.1 3.3-3.2 5l-3.2 5-.4.6.6-.4c1.9-1.3 3.9-2.5 6-3.4.5-.2 1.1-.4 1.6-.6.3-.1.5-.1.8-.1l.4.1.4.1c1.1.3 2.3.6 3.4.9 2.3.7 4.5 1.3 6.8 1.9 2.3.6 4.5 1.2 6.8 1.8l.2.1v-.2c.3-1.2.4-2.4.6-3.6.1-.6.1-1.2.2-1.8 0-.3 0-.6.1-.9V69.6l.1-.1c0 .1 0 0 0 0zm-.1.4-.1.4-.1.9-.3 1.8c-.2 1.1-.4 2.2-.7 3.3-2.2-.7-4.4-1.3-6.6-2-2.3-.7-4.5-1.3-6.8-1.8-1.1-.3-2.3-.5-3.4-.8l-.4-.1-.4-.1c-.3 0-.6 0-.9.1-.6.2-1.1.4-1.6.6-1.9.9-3.7 1.9-5.5 3.1l2.9-4.2c1.1-1.6 2.2-3.2 3.2-4.7l3.6.3.7.1-.4-.7-.1-.1c2.3.6 4.6 1.1 6.9 1.6l3.9.6 3.7.5.5 2.5.2 1.2.2-1.2.3-2 .4 1.9.1.3.1-.3.3-.9c.1-.3.2-.6.3-.8v.5zm-2.9 4.7c0-.8-.1-1.7-.2-2.5-.1-.4-.1-.8-.2-1.2s-.2-.8-.4-1.2c.1.4.1.8.1 1.2 0 .4.1.8.2 1.2.1.8.3 1.7.5 2.5zm-1.2-1.7c-.2-.3-.3-.7-.5-1l-.5-1-1-1.9-.2-.5v.6c0 1.6 0 3.2.1 4.8l.3-.1c-.3-.4-.6-.9-.9-1.3l-.9-1.2c-.3-.4-.6-.8-1-1.2-.3-.4-.7-.8-1.1-1.1.3.4.7.8 1 1.2l.9 1.2c.3.4.6.8.9 1.3.3.4.6.9.8 1.3l.3.5v-.6c0-1.6-.1-3.2-.1-4.8l-.2.1 1.1 1.9.6.9c0 .3.2.6.4.9z" fill="#47251f" stroke-width="none" opacity="1"></path></g></g></g><g id="svga-group-eyebrows-right-move" transform="matrix(1,0,0,1,0,0)"><g id="svga-group-eyebrows-right-rotate" transform="matrix(1,1.7453292519943295e-9,-1.7453292519943295e-9,1,1.2705996255135688e-7,-2.123193070246998e-7)"><g id="svga-group-eyebrows-right"><path id="SvgjsPath71283" d="M107.2 73.2s.9 3.1 2.3 5.5c0 0 14.9-6.1 16.8-6.5 1.9-.4 9 2 9 2l-8.2-6.9-3.6.8.4-.8-7.5 2.7-7.1 2v2.3l-.9-2.2v2.3l-1.2-1.2z" fill="#56342e" stroke-width="none" opacity="1"></path><path id="SvgjsPath71284" d="m135.4 74.1-4-3.5c-1.3-1.2-2.7-2.3-4.1-3.5l-.1-.1h-.1l-3 .6.1-.2.4-.7-.8.3c-2.4.8-4.8 1.7-7.2 2.6l-1.8.6-1.8.6-3.7 1.1h-.2v1.5l-.6-1.3-.3-.7v.7l.1 2c-.1-.2-.3-.3-.4-.5-.2-.2-.3-.4-.5-.6l-.1-.1V73.2l.1.2.1.4c.1.2.2.5.2.7.2.5.3.9.5 1.4.3.9.8 1.9 1.2 2.8l.1.2.2-.1c2.1-.8 4.2-1.6 6.4-2.5 2.1-.8 4.2-1.7 6.3-2.5 1.1-.4 2.1-.8 3.2-1.2l.4-.1.4-.1c.3-.1.5-.1.8-.1.6 0 1.1.1 1.7.2 2.2.4 4.4 1.1 6.6 1.8l.6.2-.7-.4zm-8.3-2.1c-.3 0-.6 0-.9.1l-.4.1-.4.1c-1.1.3-2.2.7-3.2 1.1-2.2.8-4.3 1.6-6.4 2.4-2.1.8-4.1 1.7-6.1 2.6-.5-.8-.9-1.7-1.2-2.5-.2-.4-.4-.9-.6-1.4l-.3-.7-.1-.3-.1-.2v-.1c.2.2.3.4.4.6.2.2.3.4.5.7l.2.2V72.8l.6 1.5.4.9v-3.1l3.6-1c1.2-.3 2.5-.7 3.7-1 2.2-.8 4.3-1.5 6.5-2.3v.1l-.3.6.7-.2 3.5-.8c1.3 1.1 2.7 2.2 4 3.3l3.6 2.9c-2-.6-3.9-1.2-6-1.6-.6.1-1.1 0-1.7-.1zm-16 4.7c-.2-.7-.2-1.3-.2-2v-1c0-.3 0-.7.2-1 0 .3.1.7.1 1s.1.7.1 1c-.1.7-.1 1.4-.2 2zm.9-1.5c.1-.3.2-.6.3-.8l.3-.8.6-1.7.2-.4.1.4c.3 1.3.5 2.6.8 3.8h-.3l.6-1.2c.2-.4.4-.8.7-1.1.2-.4.5-.7.7-1.1s.5-.7.8-1c-.3.3-.5.7-.7 1.1-.2.4-.4.7-.7 1.1l-.6 1.2-.6 1.2-.2.4-.1-.4c-.3-1.3-.5-2.6-.8-3.8h.3l-.7 1.6-.4.8c0 .2-.1.4-.3.7z" fill="#47251f" stroke-width="none" opacity="1"></path></g></g></g><g id="svga-group-beardwrap"><g id="svga-group-beard-single-move" transform="matrix(1,0,0,1,0,0)"><g id="svga-group-beard-single"></g></g></g><g id="svga-group-mustache-single-move" transform="matrix(1,0,0,1,0,0)"><g id="svga-group-mustache-single"></g></g><g id="svga-group-nose-single-move" transform="matrix(1,0,0,1,0,0)"><g id="svga-group-nose-single"><path id="SvgjsPath71485" d="M103.78 89.42s2.96 11.84 4.63 19.56c1.67 7.72.51 10.04-1.42 10.68s-10.29.51-12.61 0c-2.32-.51-3.6-1.67-3.99-4.5s5.02-26.5 5.02-26.5.66-4.22 2.03-5.25c1.38-1.03 4.55-1.58 6.34 6.01z" fill="#f7c1aa" stroke-width="none" opacity="1" stroke="none"></path><path id="SvgjsPath71486" d="m103.78 89.42 2.85 11.41 1.41 5.71c.45 1.91.94 3.81 1.23 5.77.14.98.25 1.97.25 2.97-.01 1-.08 2.03-.52 3.02-.22.49-.56.95-1.02 1.28-.45.33-1 .53-1.51.61-1.01.19-1.99.25-2.98.3-1.98.08-3.95.09-5.92-.01-.99-.06-1.97-.12-2.99-.28-1.01-.19-2.06-.51-2.92-1.24-.87-.72-1.34-1.78-1.58-2.78-.06-.25-.11-.51-.15-.76a3.73 3.73 0 0 1-.05-.82c.01-.53.08-1.02.13-1.51.27-1.97.64-3.89 1.02-5.82.79-3.85 1.66-7.67 2.55-11.49l1.36-5.72.35-1.43c.09-.48.2-.96.32-1.44.25-.95.53-1.9.99-2.78.23-.43.52-.87.94-1.14.41-.27.9-.45 1.39-.49 1.01-.08 1.94.52 2.56 1.26.63.75 1.08 1.65 1.43 2.56.36.92.63 1.87.86 2.82zm0 0c-.23-.95-.5-1.9-.86-2.81-.36-.91-.81-1.79-1.44-2.54-.32-.37-.69-.7-1.12-.93-.43-.23-.92-.33-1.4-.29-.48.04-.95.22-1.35.49-.4.27-.67.69-.89 1.12-.43.87-.7 1.82-.91 2.77-.11.48-.2.95-.27 1.44l-.3 1.44-1.17 5.76c-.76 3.84-1.51 7.69-2.17 11.55-.34 1.92-.67 3.86-.9 5.78-.05.48-.11.96-.12 1.42-.01.25 0 .39.04.64.03.23.08.46.13.68.22.89.61 1.7 1.27 2.24.65.55 1.53.86 2.44 1.03.92.16 1.9.23 2.86.29 1.94.1 3.89.16 5.83.11 1.87-.14 4.15.13 4.9-1.62.39-.8.52-1.77.55-2.72.03-.96-.04-1.93-.15-2.89-.22-1.93-.64-3.85-1.04-5.77-.4-1.92-.81-3.84-1.24-5.75-.84-3.82-1.76-7.63-2.69-11.44z" fill="#d17f5b" stroke-width="none" opacity="1" stroke="none"></path><path id="SvgjsPath71487" d="M96.99 116.8c-.75-.71-2.23-1.81-3.34-1.37-.21.08-.31.34-.14.52.34.35.87.5 1.29.74.49.27.93.58 1.33.98.56.53 1.43-.34.86-.87z" fill="#d17f5b" stroke-width="none" opacity="1" stroke="none"></path><path id="SvgjsPath71488" d="M106.62 115.67c-.57-.36-1.46.1-1.96.43-.56.38-1.05.87-1.25 1.52-.11.37.36.6.62.36.39-.37.76-.74 1.25-.98.47-.22 1.07-.16 1.45-.52.24-.24.16-.64-.11-.81z" fill="#d17f5b" stroke-width="none" opacity="1" stroke="none"></path></g></g><g id="svga-group-hair-front"><path id="SvgjsPath71530" d="M76.1 30.7s-5-.6-11.9 4.5-9.5 13.2-10.1 21.1c-.6 7.9 2.6 20.4 5.6 28.4s2.3 25.1-6 38.5c0 0 6.7-7.8 8.7-17.6 0 0-.6 15.7-4.8 25.4 0 0 6.7-10.7 7.6-22.9 0 0 1.9 21.7-8.9 33.9 0 0 10.1-10.6 11.3-28 1.2-17.4-3.4-31.2-3.8-42.1s1-19.8 8.1-23.8c7-4 12.2-1.2 12.2-1.2s5.4 1.6 8.1-.4c0 0 6.3 2.6 14.1.3 0 0 8.4-.3 10.8-3.5 0 0 .9.6 2.8-.2 1.9-.7 5.3-2.2 12.5 6s6.9 20.2 6.3 24.6c-.6 4.4-4.4 19.1-4.5 29.6s4.4 27.7 13.9 35.2c0 0-10.7-12.6-8.6-26.4 0 0 1.3 13.6 10 25.1 0 0-7.6-12.2-7.3-25.8s2.9-50.3 2.8-55.7-.4-19.2-6.6-30.6S122.1 9 111.8 7.3s-17.8.3-23.6 3.1-9.5 8.1-11.1 12.3-1 8-1 8z" fill="#eeef76" stroke-width="none" opacity="1" stroke="none"></path><path id="SvgjsPath71531" d="M140.9 130.4c-2-3.3-3.4-7-4.4-10.7-2-7.5-2-15.4-1-23.1 1-7.7 2.6-15.4 4.1-23.1 1.5-7.7 2.7-15.6 2.4-23.5-.1-4-.7-8-1.8-11.8-1.1-3.9-2.7-7.6-5-10.9-2.3-3.3-5.3-6.2-9-8-3.6-1.9-7.8-2.6-11.8-2.4-4 .2-7.9 1.1-11.7 2.6-3.7 1.5-7.2 3.4-10.3 6-1.5 1.3-2.8 2.9-3.8 4.6-1 1.7-1.6 3.7-1.8 5.7-.1 2 .2 4 1 5.8.4.9.9 1.8 1.6 2.5.7.7 1.4 1.3 2.3 1.8-.8-.5-1.6-1.2-2.2-1.9-.6-.8-1.1-1.6-1.4-2.5-.7-1.8-.9-3.8-.7-5.7.4-3.9 2.8-7.2 5.7-9.6 2.9-2.5 6.4-4.2 10.1-5.6 3.6-1.3 7.4-2.1 11.2-2.2 3.8-.1 7.6.7 11 2.4 2.6 1.3 4.9 3.2 6.7 5.5-1.1-.9-2.4-1.7-3.7-2.4-2.1-1-4.4-1.6-6.7-1.8-2.3-.1-4.7.3-6.9 1-4.4 1.5-8.3 4.6-10.5 8.7-1.2 2-1.9 4.3-1.9 6.6 0 1.2.1 2.3.6 3.4.4 1.1 1.1 2 2 2.7-1.5-1.7-1.9-4-1.6-6 .2-2.1 1.1-4.1 2.3-5.9 1.2-1.8 2.6-3.4 4.3-4.6 1.7-1.3 3.5-2.3 5.5-3 4-1.4 8.4-1.4 12.3.3 2.6 1.1 5 2.7 7 4.8 1.5 2.6 2.7 5.5 3.5 8.4-.9-1-1.9-1.9-3.1-2.5-1.3-.7-2.7-1.1-4.2-1.4-2.9-.4-5.8 0-8.5 1.1-1.3.6-2.6 1.3-3.6 2.4-1 1-1.7 2.4-1.8 3.8.5-1.3 1.4-2.3 2.4-3.1 1-.8 2.3-1.3 3.5-1.7 2.5-.7 5.1-1 7.7-.6 2.5.4 4.9 1.4 6.7 3.2.7.7 1.3 1.5 1.8 2.4.5 2.6.8 5.2.8 7.8.1 1.9.1 3.9 0 5.8l-.3-1.2c-.4-1.7-1.1-3.4-2-5-.9-1.6-2.1-3-3.4-4.2-1.4-1.2-3-2.2-4.7-2.8-3.4-1.2-7.4-1-10.3 1 1.1-.4 2.3-.7 3.4-.7 3.5 1.3 6.3 3.6 8.5 6.4 2.2 2.9 3.8 6.2 4.7 9.6.9 3.5 1.2 7.2 1.3 10.8.1 2.2 0 4.3 0 6.5-1.3 6.6-2.6 13.3-3.3 20.1-.8 7.8-.6 15.9 1.6 23.5 1.2 3.8 2.7 7.4 4.9 10.7 2.1 3.3 4.9 6.2 8.1 8.4-2.9-2.1-5.6-5-7.6-8.4zm-8.5-82c-2.5-2.8-5.9-4.9-9.6-5.5 2.2-.1 4.3.3 6.2 1.2 3 1.3 5.4 3.7 6.9 6.5 1.6 2.8 2.5 6.1 2.9 9.4.2 2.2.2 4.3.1 6.6v.3c0-2.8-.3-5.6-1-8.4-1.1-3.7-2.9-7.3-5.5-10.1zM77 33.7c-1.2-4.3-.6-8.9 1.5-12.7 2-3.9 5.2-7.1 9-9.2C91.3 9.6 95.6 8.4 100 8c8.7-.8 17.9.7 25.3 5.3 3.7 2.3 6.9 5.4 9.4 8.9 2.5 3.6 4.4 7.6 5.7 11.8s2.1 8.5 2.5 12.9c.4 4.4.3 8.8 0 13.3-.6 8.9-2.3 17.7-3.4 26.6-1.2 8.9-1.8 18-.5 26.9.7 4.5 1.8 8.9 3.5 13 1.8 4.2 4.1 8 7.2 11.3-2.9-3.4-5.1-7.4-6.7-11.5-1.6-4.2-2.5-8.6-3.1-13-.5-4.4-.6-8.9-.4-13.3.2-4.4.8-8.9 1.4-13.3 1.3-8.8 3-17.7 3.7-26.7.4-4.5.5-9 .1-13.6-.4-4.5-1.2-9-2.6-13.4-1.4-4.3-3.4-8.5-6.1-12.3-2.7-3.7-6.1-7-10-9.4-3.9-2.4-8.3-3.9-12.8-4.8-4.5-.8-9.1-1-13.6-.4s-9 1.9-12.9 4.2c-3.9 2.3-7.2 5.8-9.3 9.9-1 2.1-1.7 4.3-1.9 6.6-.2 2.3.1 4.6.7 6.8.7 2.2 1.8 4.2 3.3 5.9 1.5 1.7 3.4 3 5.4 3.9-3.8-1.8-6.7-5.6-7.9-9.9zm.2 12.1c-2.4.3-4.7 1.2-6.7 2.6-1 .7-1.9 1.5-2.7 2.4-.8.9-1.5 1.9-2.1 3-1.2 2.1-2 4.4-2.6 6.7-1 4.7-1.1 9.5-1.1 14.2.1 4.7.5 9.4 1 14.1 1 9.3 2.2 18.6 1.5 27.9-.3 4.6-1 9.2-2.4 13.6-.7 2.2-1.6 4.4-2.6 6.4-1.1 2.1-2.3 4-3.8 5.9 1.6-1.7 3-3.6 4.2-5.6 1.2-2 2.2-4.2 3.1-6.4 1.6-4.4 2.6-9.1 3.1-13.8 1-9.5-.2-18.9-1.1-28.2-.5-4.7-.9-9.3-1-13.9-.1-4.6 0-9.3.8-13.8.4-2.2 1.2-4.4 2.2-6.4.5-1 1.1-2 1.8-2.9.7-.9 1.5-1.7 2.4-2.4 1.8-1.4 3.9-2.4 6.2-2.8 2.2-.4 4.7-.1 6.8 1-2.1-1.4-4.6-1.9-7-1.6zm-18.5 62.1c-.7 3-1.6 5.9-2.6 8.7-1 2.9-2.3 5.7-3.6 8.5 2-2.4 3.7-5 5.1-7.9 1.4-2.8 2.4-5.8 3.1-8.9.6-2.7 1-5.4 1.1-8.1.1 2.2.1 4.5 0 6.7-.3 8.6-2 17.1-4.8 25.2 1.8-3.9 3.2-8.1 4.3-12.2 1.1-4.2 1.7-8.5 2.1-12.9.3-4.3.2-8.7-.2-13.1s-1.4-8.6-2.3-12.8c-1-4.2-1.9-8.4-2.4-12.6-.5-4.2-.5-8.5.4-12.6s2.8-8 5.8-11c1.5-1.5 3.2-2.8 5.1-3.7 1.9-.9 4-1.4 6.2-1.5-2.2-.2-4.4.2-6.4 1s-3.9 2-5.6 3.5c-1.6 1.5-3.1 3.2-4.2 5.2-1.1 1.9-1.9 4-2.5 6.2-1.1 4.3-1.2 8.8-.8 13.2.4 4.4 1.4 8.6 2.3 12.9.2 1.1.5 2.2.7 3.2-.7-2.8-1.5-5.7-2.2-8.5-1.4-6.2-2.5-12.4-2.3-18.6.1-1.5.2-3.1.4-4.6.2-1.5.6-3 1-4.5s1-2.9 1.6-4.3c.7-1.4 1.5-2.7 2.3-4 1.8-2.5 4-4.7 6.6-6.4 1.3-.8 2.7-1.6 4.2-2.1s3-.9 4.6-1.1c-1.6 0-3.2.2-4.8.6-1.6.4-3.1 1-4.5 1.8s-2.7 1.7-4 2.8c-1.2 1.1-2.3 2.3-3.4 3.5-1 1.3-1.9 2.7-2.7 4.1-.7 1.5-1.3 3-1.8 4.5-1 3.1-1.4 6.4-1.6 9.6-.1 3.2.2 6.5.7 9.7.5 3.2 1.2 6.3 2.2 9.4 1.4 4.9 3.1 9.6 4.7 14.3 0 2.7-.2 5.3-.4 7.9-.3 3-.7 6-1.4 8.9z" fill="#dfe058" stroke-width="none" opacity="1" stroke="none"></path></g><g id="svga-group-glasses-single-move" transform="matrix(1,0,0,1,0,0)"><g id="svga-group-glasses-single" transform="matrix(1.1000003000000003,0,0,1.1000003000000003,-10.041529834582164,-8.950856167673521)"><path id="SvgjsPath71559" d="M96.45 83.08c0-5.71-4.63-10.34-10.34-10.34-3.71 0-6.95 1.96-8.78 4.9 0 0-.18.22-.45.24-.31.02-.52-.24-.52-.24-1.82-2.93-5.07-4.9-8.78-4.9-5.71 0-10.34 4.63-10.34 10.34 0 .46.04.92.1 1.36l-.01.01s.92 7.59 6.22 13.11c5.83 6.08 12.24 8.64 13.28 8.67h.02c1.04-.02 7.45-2.59 13.28-8.67 5.29-5.52 6.22-13.11 6.22-13.11l-.01-.01c.07-.44.11-.9.11-1.36z" fill="url(#SvgjsLinearGradient71560)" opacity="1"></path><path id="SvgjsPath71567" d="M104.4 83.08c0-5.71 4.63-10.34 10.34-10.34 3.71 0 6.95 1.96 8.78 4.9 0 0 .18.22.45.24.31.02.52-.24.52-.24 1.82-2.93 5.07-4.9 8.78-4.9 5.71 0 10.34 4.63 10.34 10.34 0 .46-.04.92-.1 1.36l.01.01s-.92 7.59-6.22 13.11c-5.83 6.08-12.24 8.64-13.28 8.67H124c-1.04-.02-7.45-2.59-13.28-8.67-5.29-5.52-6.22-13.11-6.22-13.11l.01-.01c-.07-.44-.11-.9-.11-1.36z" fill="url(#SvgjsLinearGradient71568)" opacity="1"></path><path id="SvgjsPath71575" d="M143.57 81.94c-.17-1.51-.66-2.97-1.46-4.26-1.22-2-3.13-3.6-5.35-4.39-2.21-.81-4.7-.84-6.94-.06-2.23.77-4.17 2.33-5.43 4.33l-.01.01-.01.01-.02.02-.05.04c-.03.02-.06.05-.1.06-.07.03-.14.06-.21.05-.14 0-.29-.09-.39-.2-1.18-1.91-3-3.43-5.1-4.22-2.1-.81-4.46-.9-6.62-.27-2.15.62-4.1 1.96-5.42 3.76-1.04 1.35-1.69 2.98-1.94 4.66-1.25-.45-2.59-.69-3.92-.7h-.07c-1.68 0-3.1.36-4.17.76-.25-1.7-.89-3.35-1.95-4.72-1.33-1.8-3.27-3.14-5.42-3.76-2.15-.63-4.52-.54-6.62.27-2.11.79-3.92 2.31-5.1 4.22-.1.11-.25.2-.39.2-.07 0-.14-.02-.21-.05-.03-.02-.07-.04-.1-.06l-.07-.04-.02-.02-.01-.01-.01-.01c-1.26-2-3.2-3.56-5.43-4.33-2.23-.78-4.73-.75-6.94.06-2.23.78-4.13 2.38-5.35 4.39a9.98 9.98 0 0 0-1.46 4.26l-1.34-.08.19 1.64 1.08.03c.01.29.04.58.07.87l-.01.01.01.05c.83 5.05 2.99 10 6.66 13.66 1.81 1.83 3.81 3.47 5.95 4.9 1.07.71 2.18 1.37 3.33 1.96 1.16.56 2.29 1.16 3.64 1.39 1.35-.23 2.47-.83 3.64-1.39 1.15-.59 2.25-1.25 3.33-1.95 2.14-1.43 4.13-3.09 5.92-4.93 3.65-3.66 5.82-8.6 6.63-13.65v-.01l-.01-.01.09-1.35c0-.11-.02-.22-.03-.34 1.01-.42 2.41-.84 4.14-.82 1.31.01 2.62.27 3.83.75-.01.13-.03.27-.03.4l.09 1.35-.01.01v.01c.81 5.05 2.98 9.98 6.63 13.65a38.25 38.25 0 0 0 5.92 4.93c1.08.71 2.18 1.37 3.33 1.95 1.17.56 2.29 1.16 3.64 1.39 1.35-.23 2.47-.83 3.64-1.39a35.85 35.85 0 0 0 3.33-1.96c2.14-1.43 4.14-3.07 5.95-4.9 3.67-3.66 5.83-8.61 6.66-13.66l.01-.05-.01-.01c.04-.29.06-.58.07-.87l1.08-.03.19-1.64-1.32.09zm-47.13 1.14-.11 1.36v.02h.01c-.86 5.02-3.07 9.92-6.73 13.5a38.238 38.238 0 0 1-5.94 4.83c-1.07.7-2.16 1.36-3.3 1.94-1.13.55-2.33 1.16-3.51 1.36-1.19-.21-2.39-.81-3.51-1.36-1.14-.58-2.24-1.23-3.3-1.94a37.278 37.278 0 0 1-5.91-4.86c-3.64-3.57-5.85-8.45-6.7-13.45h.01l-.01-.05c-.32-2.31.16-4.72 1.39-6.7 1.2-2 3.12-3.55 5.32-4.31 2.19-.78 4.65-.79 6.84-.01 2.19.77 4.09 2.32 5.3 4.29l.14.04c-.03.03-.13-.01-.12-.02l.01.01.01.01.03.03.06.05c.04.03.09.06.13.09.1.05.21.08.32.08.23 0 .43-.12.57-.28l.01-.01c1.18-1.86 2.94-3.35 4.99-4.16 2.05-.82 4.37-.93 6.5-.33 2.13.59 4.06 1.89 5.39 3.67 1.06 1.35 1.72 2.99 1.98 4.69-.32.12-.62.25-.87.37l.49 1.02c.14-.07.32-.14.49-.21-.01.11.02.22.02.33zm46.98 1.41c-.85 5-3.06 9.88-6.7 13.45-1.8 1.82-3.79 3.44-5.91 4.86-1.07.7-2.17 1.36-3.3 1.94-1.13.55-2.33 1.15-3.51 1.36-1.18-.21-2.38-.81-3.51-1.36-1.14-.58-2.23-1.24-3.3-1.94a38.238 38.238 0 0 1-5.94-4.83c-3.66-3.58-5.87-8.48-6.73-13.5h.01v-.02l-.11-1.36c0-.13.03-.26.04-.39.22.09.45.17.67.28l.49-1.02c-.34-.16-.69-.3-1.05-.43.27-1.68.93-3.29 1.97-4.62 1.33-1.78 3.27-3.08 5.39-3.67 2.13-.6 4.45-.49 6.5.33 2.05.8 3.81 2.3 4.99 4.16l.01.01c.15.16.34.28.57.28.11 0 .22-.03.32-.08.05-.03.09-.05.13-.09l.06-.05.03-.03.01-.01.01-.01c0 .01-.09.05-.12.02l.14-.04c1.22-1.97 3.11-3.52 5.3-4.29 2.19-.78 4.64-.77 6.84.01 2.2.76 4.12 2.31 5.32 4.31 1.23 1.99 1.71 4.4 1.39 6.7l-.01.03z" fill="#c20b0b" stroke-width="none" opacity="1"></path></g></g></g></g></g><rect id="svga-credit-rect" width="200" height="15" x="0" y="185" fill="#ecf0f1" opacity="0.5" style="display: none;"></rect><text id="svga-credit-text" font-family="Avenir Next, Roboto, Helvetica, Arial, sans-serif" font-size="10px" text-anchor="start" font-weight="400" size="10px" anchor="start" weight="400" fill="#333333" x="33.40447998046875" y="182.60824704170227" style="display: none;"><tspan id="SvgjsTspan71275" dy="13" x="33.40447998046875">Created on AvatarMaker.com</tspan></text></g><defs id="SvgjsDefs71222"><linearGradient id="SvgjsLinearGradient71560" x1="76.8578" y1="72.7421" x2="76.8578" y2="106.2276" gradientUnits="userSpaceOnUse" class="svga-on-canvas-glasses-gradient-single-0-null"><stop id="SvgjsStop71561" stop-opacity="1" stop-color="#ff73b2" offset="0.004166667" ></stop><stop id="SvgjsStop71562" stop-opacity="0.8085" stop-color="#ff75ae" offset="0.1949" ></stop><stop id="SvgjsStop71563" stop-opacity="0.5986" stop-color="#ff79a0" offset="0.4039" ></stop><stop id="SvgjsStop71564" stop-opacity="0.3799" stop-color="#ff818a" offset="0.6217" ></stop><stop id="SvgjsStop71565" stop-opacity="0.1566" stop-color="#ff8b6c" offset="0.844" ></stop><stop id="SvgjsStop71566" stop-opacity="0" stop-color="#ff9452" offset="1" ></stop></linearGradient><linearGradient id="SvgjsLinearGradient71568" x1="-23.9909" y1="72.7421" x2="-23.9909" y2="106.2276" gradientTransform="matrix(-1 0 0 1 100 0)" gradientUnits="userSpaceOnUse" class="svga-on-canvas-glasses-gradient-single-1-null"><stop id="SvgjsStop71569" stop-opacity="1" stop-color="#ff73b2" offset="0.004166667" ></stop><stop id="SvgjsStop71570" stop-opacity="0.8085" stop-color="#ff75ae" offset="0.1949" ></stop><stop id="SvgjsStop71571" stop-opacity="0.5986" stop-color="#ff79a0" offset="0.4039" ></stop><stop id="SvgjsStop71572" stop-opacity="0.3799" stop-color="#ff818a" offset="0.6217" ></stop><stop id="SvgjsStop71573" stop-opacity="0.1566" stop-color="#ff8b6c" offset="0.844" ></stop><stop id="SvgjsStop71574" stop-opacity="0" stop-color="#ff9452" offset="1" ></stop></linearGradient></defs></svg>