<svg xmlns="http://www.w3.org/2000/svg" version="1.1" width="600px" height="600px" viewBox="0 0 200 200" style="overflow:hidden!important;"><defs id="SvgjsDefs29147"></defs><g id="svga-group-wrapper"><g id="svga-group-backs-single"><path id="SvgjsPath29618" d="M0 0h200v200H0V0z" fill="#86cbd1" stroke-width="none" opacity="1" stroke="none"></path><path id="SvgjsPath29619" d="M0 0h28.6v28.6H0V0zm57.1 0h28.6v28.6H57.1V0zm57.2 0h28.6v28.6h-28.6V0zm57.1 0H200v28.6h-28.6V0zM28.6 28.6h28.6v28.6H28.6V28.6zm57.1 0h28.6v28.6H85.7V28.6zm57.2 0h28.6v28.6h-28.6V28.6zM0 57.1h28.6v28.6H0V57.1zm57.1 0h28.6v28.6H57.1V57.1zm57.2 0h28.6v28.6h-28.6V57.1zm57.1 0H200v28.6h-28.6V57.1zM28.6 85.7h28.6v28.6H28.6V85.7zm57.1 0h28.6v28.6H85.7V85.7zm57.2 0h28.6v28.6h-28.6V85.7zM0 114.3h28.6v28.6H0v-28.6zm57.1 0h28.6v28.6H57.1v-28.6zm57.2 0h28.6v28.6h-28.6v-28.6zm57.1 0H200v28.6h-28.6v-28.6zM28.6 142.9h28.6v28.6H28.6v-28.6zm57.1 0h28.6v28.6H85.7v-28.6zm57.2 0h28.6v28.6h-28.6v-28.6zM0 171.4h28.6V200H0v-28.6zm57.1 0h28.6V200H57.1v-28.6zm57.2 0h28.6V200h-28.6v-28.6zm57.1 0H200V200h-28.6v-28.6z" fill="#69bbc2" stroke-width="none" opacity="1" stroke="none"></path></g><g id="svga-group-humanwrap-move" transform="matrix(1,0,0,1,0,0)"><g id="svga-group-humanwrap" transform="matrix(1,0,0,1,0,0)"><g id="svga-group-hair-back-move" transform="matrix(1,0,0,1,0,0)"><g id="svga-group-hair-back" transform="matrix(1,0,0,1,0,0)"><path id="SvgjsPath29872" d="M171 148.7c.2 5.7 2.3 13.4-2.7 17.6-4.7 4-12.1 1.8-17.5 1.3-.6-.1-1.6-.1-2.4 0 1.1-.6 2.1-1.4 3-2.4 4-4.4 1.7-9.1-2.3-12 0-.5 0-1.1-.1-1.6 1.9-.2 3.7-.5 5.6-.8 4.9-.8 3.6-8.6-1.1-8.5-2.4 0-4.8.1-7.1.1 1.1-1.8 1-4.4-.3-6.2 1.8-10.1 2.5-20.4 1.6-30.6-.4-4-.2-9.7-4.2-12.1-4.1-2.5-11.4-1.3-16.1-1.4-23.7-.6-47.4-1.4-71.2-2.1-2.6-.1-5.5 2.5-5.2 5.2 1.2 9.3 2.3 18.6 3.6 27.8.6 4.4 1.3 8.8 2.1 13.2.5 3.2.7 7.5 3.4 9.7-1.3 0-2.6.1-3.9.4-2.2.5-3.7 3.2-3 5.3.5 1.7 1.6 2.8 2.9 3.6-1.5.7-2.2 3.1-.3 4.1-1.1.3-2 1.1-2 2.5 0 1 .2 2 .5 2.9-.9.3-2.2.2-3.1.2-2.7-.1-5.5-.6-8.2-.8-1.1-.1-2.4-.3-3.4.3-1.3.8-1.5 2.5-2.2 3.8-3.9 2-5.7.2-4.7 5.6 0 .1.3.1.3 0 0-3.6 2.6-2.9 4.8-3.4.3-.2.7-.5 1-.8 1-1.3 2.5-2 4.6-1.9 1.4.1 2.8.8 4.2.9 2.4.2 5.7-.3 7.4-2 1.1 2.1 2.8 3.9 4.8 5.1h-.2c-5.6-.4-1.9 1.7-5.2 4.6-.2.2 0 .7.3.6 1.8-.6.5-.1 2-1.3.4-.3.1-1.3.4-1.5 2.1-1.5 6.9.7 9.5.4 2.8-.3 5.2-1.7 7.2-3.6.7-.5 1.4-1 2-1.6 1 .6 2.1 1 3.2 1.2 1.7 1.8 4.1 2.7 6.9 2.9 2.6.2 5.3-.1 7.9-.7 1.4-.4 2.8-.8 4.1-1.4 1.4-.6 1.9-.9 2.9-.7 1.9.4 3.5 1.8 5.6 2 2 .3 4.1.1 6.1-.5 2.1-.6 4.1-1.8 5.7-3.3.7-.7 1.4-1.5 1.9-2.3 0-.1.1-.1.1-.2h.1c2.1 1 4 2.5 6.8 2.4.8 0 1.5-.1 2.2-.3.1.1.2.3.3.4.1.1.2.3.3.4.1.1.2.2.3.4l.2.2c.1.1.2.1.3.2l.2.2c.9.7 2.7 1.7 3.8 1 1.2.4 2.4.5 3.7.2.5-.1.5-.9 0-1-1.7-.4-3.4-.5-5-1.5-.2-.1-.4-.3-.6-.5-.1-.4-.3-.8-.3-1.2l.6-.3c3.8 2.1 8.5 2.9 12.7 1.7-.1.1-.2.3-.3.5-1.1 2.4 3.2 3.6 1.4 6.2-.4.6.4 1.1.9.7 1-.8 1.6-1.6 1.6-2.9 0-.7-1.2-2.2-1.2-2.5.2-1.9 7-.1 8.6.1 2.2.2 4.5.1 6.7-.3 3.3-.7 7.7-2.2 9.4-5.4 2.2-4.4.2-11.7-.7-16.3-.3-.7-1.2-.6-1.2 0zm16.6-7.1c-.1-.6-.9-.8-1.1-.1-4.2 1.3-6.2.4-5.9-2.4-.1-.6-.2-1.1-.4-1.7-.2-.5-.5-1-.9-1.4-.7-.8-1.7-1.1-2.5-1.8-.5-.3-1-.6-1.5-.8-2.1-2.4-2.7-4.9-1.6-7.4 1-4 4.3-8.8-.3-11.8-.5-.3-.9.4-.6.8 4.1 4.7-3 10.9-1.7 16.2.3 1.4 1 2.4 2 3.3.6.6 1.4.8 2 1.3 2.1 1.7 2.7 3.7 3.4 6.2.6 2.3 1.6 4.5 4.5 4.6 3.1.1 4.9-2.3 4.6-5z" fill="#d6c3ab" stroke-width="none" opacity="1" stroke="none"></path></g></g><g id="svga-group-humanbody-back"><path id="SvgjsPath29452" d="M77.8 105.9s4.8 37.7 10 55.8c0 0-6.4 8.8-14.5 11.9-28.7 11.2-35 11.2-39.6 15.2-2.4 2.1.2 11.1 1.8 17.2 1.3 5 1.7 13.2 1.7 13.2h132.2s1.6-33-.6-39.8-7.1-2.9-21.9-4.5c-14.8-1.6-28.7-10.3-31-13.2l.3-60-38.4 4.2z" fill="#fbd5c0" stroke-width="none" opacity="1" stroke="none"></path></g><g id="svga-group-chinshadow-single"><path id="SvgjsPath29689" d="M85.6 152.8c6.6 3.5 10.7 3.5 10.7 3.5s8 0 19.6-9.5l.2-45.2-38.4 4.2c.1.1 3.6 27.7 7.9 47z" fill="#dc9f7d" stroke-width="none" opacity="1" stroke="none"></path></g><g id="svga-group-humanbody-front"><path id="SvgjsPath29453" d="M72.1 183.1s14.6-.2 20.4 2.6c5.8 2.9 12.7 2.4 16.1-1s21.6-7 21.6-7-19.7 1.9-25 4.6c-5.3 2.7-22.3-2.8-33.1.8z" fill="#dc9f7d" stroke-width="none" opacity="1" stroke="none"></path><path id="SvgjsPath29454" d="M74.2 173.2c6.7-1.3 14.7-6.4 14.7-6.4l6.2 5.5c-4.3-7.9-12.7-41.1-12.7-41.1l-.7.7c1.7 10.5 3.9 21.9 6.1 29.7 0 0-6 8.2-13.6 11.6z" fill="#dc9f7d" stroke-width="none" opacity="1" stroke="none"></path><path id="SvgjsPath29455" d="M170.7 188.5c-.1-2.1-.2-4.1-.4-6.2-.1-1-.3-2.1-.6-3.2-.2-.5-.4-1-.6-1.6-.2-.5-.6-1-1-1.5s-.9-.9-1.5-1.1c-.6-.3-1.1-.4-1.7-.6-1.1-.2-2.2-.2-3.2-.2-2.1 0-4.1.1-6.1.1s-4-.1-6-.2-4-.4-6-.7c-1-.2-2-.4-2.9-.6l-1.5-.4c-.5-.1-1-.3-1.4-.4-3.8-1.1-7.6-2.6-11.2-4.4l-1.3-.7-1.3-.7c-.4-.2-.9-.5-1.3-.8s-.9-.5-1.3-.8-.8-.5-1.3-.8l-1.2-.9-.6-.5-.3-.2-.3-.2c-.2-.2-.4-.3-.5-.5l-.2-.3v-44.6l-.1-15v-.6l-.6.1c-6.4.8-12.9 1.5-19.3 2.3l-19.1 2.3v.5l.1.4.1.9.2 1.8c.1 1.2.3 2.3.4 3.5l.9 7c.6 4.7 1.3 9.4 2.1 14 .8 4.7 1.5 9.3 2.5 14 .9 4.5 1.8 9 3 13.5-1.1 1.4-2.3 2.7-3.6 4-1.3 1.3-2.8 2.6-4.3 3.8-1.5 1.1-3.1 2.2-4.8 3l-1.3.6c-.4.2-.9.3-1.3.5l-2.7 1c-7.2 2.7-14.5 5.3-21.8 7.7l-5.5 1.8c-1.8.6-3.7 1.3-5.5 2.2-.4.2-.9.5-1.3.7-.4.3-.9.5-1.3.9l-.6.5c-.2.2-.5.5-.6.8-.3.5-.4 1.1-.5 1.6-.2 1.1-.1 2.1 0 3.1s.3 2 .4 2.9c.4 1.9.8 3.8 1.3 5.7l.8 2.8c.3.9.5 1.8.7 2.8.4 1.9.7 3.8.9 5.7s.4 3.8.5 5.7v.8h133.4v-.8c.2-4.1.4-8.2.5-12.3s.2-8.2.2-12.3c0-1.8-.1-3.8-.1-5.9zm-67.4 30.3H70.2l-16.5-.1-16-.1c-.1-1.8-.2-3.5-.4-5.3-.2-1.9-.4-3.9-.8-5.8-.2-1-.4-1.9-.7-2.9l-.7-2.8c-.5-1.9-.9-3.7-1.2-5.6-.2-.9-.3-1.9-.4-2.8-.1-.9-.1-1.9 0-2.7.1-.4.2-.8.4-1.1.1-.2.2-.3.3-.4l.5-.4c.3-.3.7-.5 1.1-.8.4-.2.8-.5 1.2-.7 1.7-.8 3.5-1.4 5.3-2l5.5-1.8c7.3-2.4 14.6-5 21.8-7.8l2.7-1c.5-.2.9-.3 1.4-.5l1.4-.6c1.8-.9 3.4-2 5-3.2s3-2.5 4.4-3.9 2.7-2.9 3.8-4.5l.2-.3-.1-.3c-1.3-4.5-2.3-9.1-3.3-13.7s-1.9-9.3-2.7-13.9c-.8-4.6-1.6-9.3-2.4-14l-2.2-13.9 19.3-1.8c6.2-.6 12.3-1.2 18.5-1.8l-.2 14.4-.2 15-.3 30v.4l.2.2.6.7.6.6.3.3.3.2.6.5c.4.3.9.6 1.3.9.4.3.9.6 1.3.9.4.3.9.5 1.3.8s.9.5 1.3.8l1.4.8 1.4.7c.5.2.9.5 1.4.7l1.4.7c1 .4 1.9.8 2.9 1.2s1.9.8 2.9 1.1l1.5.5c.5.2 1 .3 1.5.4.5.1 1 .3 1.5.4l1.5.4c1 .3 2 .4 3 .6 2 .4 4.1.6 6.2.8 2.1.2 4.1.2 6.2.2 2.1 0 4.1-.1 6.1-.1s4 .1 5 1.3c.5.6.9 1.4 1.2 2.3.3.9.4 1.9.6 2.8.3 2 .4 4 .5 6s.1 4.1.2 6.1c.1 7.9-.1 15.8-.4 23.7-10.8.1-21.5.1-32.3.2h-33.1z" fill="#cd865f" stroke-width="none" opacity="1" stroke="none"></path><path id="SvgjsPath29456" d="M150.7 219.2 147 198l-.4 21.2z" fill="#dc9f7d" stroke-width="none" opacity="1" stroke="none"></path><path id="SvgjsPath29457" d="M47.3 203.5s2.2 11.5 2.9 15.7h3.5l-6.4-15.7z" fill="#dc9f7d" stroke-width="none" opacity="1" stroke="none"></path></g><g id="svga-group-clothes-single"><path id="SvgjsPath29844" d="M70.5 188.4s17.7 11.1 20.6 13.2c2.9 2.2 13.3 5.2 13.3 5.2s13.5-6.3 15.2-7.7c1.7-1.4 16.3-17.4 16.3-17.4v38H71.7l-1.2-31.3z" fill="#ffffff" stroke-width="none" opacity="1"></path><path id="SvgjsPath29845" d="M73.7 175c.4-1.1 6.3-6.7 6.3-6.7l-5.9.3-19.1 6.5 3.5 1.3s-17.8 6.5-20.2 6.7c-2.5.2-7.2 0-7 2.8 0 0-2.8 1.5-2.8 3.4s6.1 20.2 8.3 30.4h47.1s-7.1-19.1-8.2-23.6c-1.3-4.5-2.4-19.9-2-21.1zm98.9-.1c-1.2-.8-3-.3-3-.3s-.1-2.9-1.2-3-7.7.8-11.9 1.2-13.1-.3-13.1-.3l1.2-1.1c-2.9-.1-16.2-6-17.9-6.5s-5.4-.3-5.4-.3 3.6 2.6 4.2 3.8c.6 1.2 6.9 20.1 6.5 24.5s-5 26.9-5 26.9h45.5c.1 0 1.3-44.2.1-44.9z" fill="#d2aad7" stroke-width="none" opacity="1" stroke="none"></path><path id="SvgjsPath29846" d="M173.6 177.7c0-.5 0-1-.1-1.5 0-.3 0-.5-.1-.8 0-.1 0-.3-.1-.4 0-.1-.1-.2-.1-.3 0-.1-.2-.3-.3-.3l-.1-.1c-.6-.3-1.2-.5-1.8-.5h-.8c0-.4-.1-.7-.2-1.1-.1-.3-.2-.7-.4-1-.1-.2-.3-.4-.5-.6-.2-.2-.7-.3-.8-.3-.8 0-1.3 0-1.9.1l-1.8.2-7.1.8c-2.3.3-4.6.3-7 .3-1.7-.1-3.5-.1-5.2-.2l1.1-1-1.8-.2c-.8-.1-1.8-.4-2.8-.6-1-.3-1.9-.6-2.9-.9l-5.7-2.1c-1.9-.7-3.8-1.4-5.8-2.1-1-.4-2.1-.4-3.1-.4h-3.1s-.1 0-.1.1l.1.1.1.1.2.1.3.3.7.6c.5.4.9.8 1.3 1.2.4.4.9.9 1.2 1.3.2.5.4 1.1.6 1.6.7 2.3 1.4 4.6 2.1 7 .7 2.3 1.3 4.7 1.9 7 .2 1 .5 2 .7 3-.6.6-1.2 1.3-1.8 1.9-2.4 2.4-4.7 4.9-7.1 7.3l-1.8 1.8c-.3.3-.6.5-.9.7-.3.2-.7.4-1.1.6-1.5.8-3 1.5-4.5 2.3l-8.9 4.3c-3-.9-5.9-1.9-8.8-3-1.5-.6-3-1.2-4.2-2.1-1.4-.9-2.7-1.8-4.1-2.6-2.8-1.7-5.5-3.4-8.3-5.1l-3.4-2c-.6-3.8-1-7.7-1.3-11.6-.1-1.1-.2-2.3-.2-3.4v-.8c0-.2 0-.4.2-.6.3-.4.7-.9 1-1.3.7-.9 1.5-1.7 2.3-2.6l1.2-1.3.6-.6.3-.3.2-.2.1-.1s.1-.1.1-.2h-6.1c-3.2 1-6.4 2-9.7 3-3.2 1-6.4 2-9.6 3.1l-2.1.7 2.1.8 1.3.5c-3.9 1.4-7.9 2.7-11.8 4.1-1.2.4-2.3.8-3.5 1.1-.6.2-1.2.4-1.7.5-.3.1-.5.1-.8.2l-.9.1c-1.2.1-2.5.2-3.8.5-.6.2-1.3.4-1.9.9l-.4.4-.3.6c-.1.2-.1.4-.1.6v.2c-.6.4-1.1.8-1.6 1.3-.5.6-1.1 1.4-1.1 2.3 0 .5.1.9.2 1.2.1.4.2.7.3 1.1.2.7.4 1.4.6 2.2l2.6 8.6c.9 2.9 1.7 5.8 2.5 8.7.8 2.9 1.5 5.8 2.1 8.8l.1.4 136.8.1v-.5c.1-4 0-8 .1-12l.2-12 .2-12v-6zm-5.4-5.3zm-108 46.5-8.9.1c-.2-3.1-.6-6.2-1.1-9.3-.5-3.5-1.1-7-1.7-10.4l-.5-2.6-.3-1.3c0-.2-.1-.5-.2-.8-.1-.3-.3-.5-.4-.7-.6-.9-1.4-1.5-2.1-2-.8-.6-1.5-1-2.3-1.4-3.2-1.7-6.6-2.8-10-3.6 3.2 1.6 6.3 3.1 9.3 5 1.4.9 2.9 1.9 3.7 3.1.1.1.2.3.2.4 0 .1.1.2.1.5l.2 1.3.5 2.6c.7 3.4 1.4 6.9 2.2 10.3.7 3 1.5 6 2.3 9h-2.6l-11.4.2c-.7-2.8-1.5-5.6-2.3-8.4l-2.5-8.7c-.8-2.9-1.7-5.8-2.4-8.7-.2-.7-.4-1.5-.5-2.2-.1-.4-.2-.7-.2-1.1-.1-.4-.1-.7-.1-1 0-.6.4-1.1.9-1.6s1.1-.9 1.7-1.2l.3-.2v-.4c0-.5.1-.8.5-1.1.4-.3.9-.5 1.4-.6 1.1-.2 2.3-.3 3.6-.3h1c.3-.1.7-.1 1-.2.6-.1 1.2-.3 1.8-.5 1.2-.4 2.4-.7 3.6-1.1 4.7-1.5 9.4-3.2 14-4.9l.8-.3c.1.1.2.1.4.1l2.1.6c.5.1.9.1 1.4.2-.5.4-1.1.8-1.6 1.2-1.1.9-2.2 1.7-3.2 2.6s-2.1 1.8-3.2 2.7l-.6.5.4.6c.9 1.3 1.8 2.7 2.6 4 .9 1.3 1.8 2.7 2.6 4 .4.7.8 1.4 1.1 2 .3.7.7 1.4 1 2.1l1.9 4.4c2.4 5.6 4.9 11.2 7.6 16.6-4.2.4-8.1.5-12.1.5zm12-.1c-.8-2.8-1.8-5.5-2.7-8.3-1.1-3-2.2-6.1-3.3-9.1l-1.8-4.5c-.3-.8-.6-1.5-1-2.3-.4-.8-.8-1.5-1.2-2.2-1.6-2.6-3.3-5-5-7.4.8-.8 1.6-1.5 2.4-2.3l3-2.9c2-1.9 4.1-3.7 6.1-5.7-1.6 1.1-3.2 2.2-4.8 3.4-.5-.2-1-.5-1.5-.7-.4-.2-.8-.3-1.3-.5l-.6-.2s-.1 0-.1-.1c-.1 0-.2-.1-.2-.1l-1.2-.4-1.4-.5c2.5-.9 4.9-1.8 7.4-2.7 3.2-1.1 6.3-2.3 9.4-3.5 1.8-.1 3.6-.4 5.6-.6l-.2.1-.3.3-.7.6-1.3 1.2c-.8.8-1.7 1.6-2.5 2.4-.4.4-.8.8-1.2 1.3-.1.1-.2.3-.3.4-.1.2-.1.4-.1.5 0 .3-.1.6-.1.9v3.5c.2 4.6.4 9.2 1.1 13.9.2 1.1.3 2.4.7 3.5.3 1.1.7 2.2 1 3.4.7 2.2 1.4 4.4 2.2 6.6 1.3 3.9 2.7 7.8 4.1 11.6-3.5.4-6.8.4-10.2.4zm15.6 0h-3.2L80 206.4l-2.3-6.5c-.4-1.1-.8-2.2-1.1-3.2-.3-1.1-.5-2.1-.7-3.3-.1-.4-.1-.9-.2-1.3l2.8 1.9 8.1 5.4c1.3.9 2.7 1.8 4 2.8 1.4 1 2.9 1.7 4.5 2.3 3 1.3 6.1 2.3 9.2 3.3l.3.1.3-.1c3.1-1.4 6.2-2.9 9.2-4.4l4.5-2.4c.4-.2.8-.4 1.1-.7.4-.3.8-.6 1.1-.9.6-.6 1.2-1.2 1.8-1.9 2.3-2.5 4.6-5.1 6.8-7.6l1.3-1.5c.2 1 .4 2 .5 2.9l.1.9v.8l-.3 1.8-.6 3.6-1.4 7.1-2.7 13.7c-7.4-.1-14.9-.1-22.3-.2-5.5-.2-10.9-.2-16.2-.2zm50.6 0-10.1-.1c.9-4.4 1.7-8.7 2.5-13.1.4-2.4.9-4.8 1.2-7.2l.6-3.6c.1-.6.2-1.2.2-1.9v-1l-.1-1c-.4-2.5-1-4.9-1.6-7.2-.7-2.4-1.4-4.7-2.2-7-.8-2.3-1.6-4.6-2.5-6.9-.2-.6-.4-1.1-.8-1.7-.4-.6-.9-.9-1.3-1.4-.5-.4-1-.8-1.4-1.1l-.8-.5-.4-.3-.1-.1h1.3c.5 0 1 .1 1.5.1 1 .1 2 .2 2.9.6l5.6 2.4c1.9.8 3.8 1.6 5.7 2.3.9.4 1.9.7 2.9 1.1.5.2 1 .3 1.5.5h-.1l-.7.6c-.4.2-.7.5-1.1.8-.9.7-1.8 1.6-2.6 2.4-1.2-.8-2.5-1.5-3.7-2.1 1.2.9 2.5 1.9 3.7 2.9l1.8 1.5c.6.5 1.3.9 2 1.3 1.4.8 2.8 1.5 4.2 2.2 1.1.6 2.2 1.1 3.4 1.6-1.4 2.6-2.8 5.3-4.1 8l-2.1 4.5c-.7 1.5-1.4 3-1.9 4.7-.4 1.7-.8 3.3-1.1 4.9-.3 1.6-.6 3.2-.9 4.9-.5 3.1-1 6-1.4 8.9zm34.1-11c-.1 3.8-.3 7.6-.4 11.5-4.1-.1-8.1-.2-12.2-.2.4-3.5.6-7 .7-10.6.1-3.9.2-7.8.1-11.7 0-1-.1-2-.1-3l-.1-.8v-.5c0-.4.1-.8.2-1.2.5-1.7 1.4-3.5 2.2-5.2 1.8-3.4 3.7-6.8 5.8-10.1-2.8 2.8-5.1 6-7.2 9.3-1 1.7-2 3.4-2.6 5.4-.2.5-.3 1-.3 1.6V193.2l.1.7c.1.9.1 1.9.1 2.9.1 3.9.2 7.8.4 11.7.1 3.5.3 7 .7 10.6-3.3-.1-6.5-.1-9.8-.1l-11.1-.1c.8-2.8 1.5-5.7 2.3-8.5.8-3.2 1.6-6.4 2.5-9.5.2-.7.6-1.4.9-2.2l1-2.2 2.2-4.4 4.4-8.9.4-.9-.9-.4c-2.9-1.2-5.8-2.4-8.6-3.7-.7-.3-1.4-.7-2.1-1.1-.6-.4-1.3-.9-1.9-1.3-.1 0-.1-.1-.1-.1.5-.1 1-.4 1.4-.6.6-.3 1.1-.7 1.6-1.1.3-.3.6-.6 1-.9l.6.1c2.4.2 4.8.4 7.1.5 2.4.1 4.8.1 7.2-.2l7.1-.8 1.8-.2c.6-.1 1.2-.1 1.6-.1l.1.1c.1.1.2.4.3.6.1.5.2 1.1.3 1.6l.1.9.9-.2c.8-.2 1.7-.2 2.3.1v.2c0 .2.1.5.1.7.1.5.1 1 .1 1.5l.3 6c.1 4 .2 8 .1 12-.4 3.9-.5 7.9-.6 11.9z" fill="#b06db8" stroke-width="none" opacity="1" stroke="none"></path></g><g id="svga-group-head" transform="matrix(1,0,0,1,0,0)"><g id="svga-group-ears-left-move" transform="matrix(1,0,0,1,0,0)"><g id="svga-group-ears-left" transform="matrix(1,0,0,1,0,0)"><path id="SvgjsPath29641" d="M65.8 98.48s-4.2-8.27-8.66-11.42c-4.46-3.15-9.84-3.15-9.84-3.15s-3.02 2.1-1.97 12.6c0 0 4.46 10.76 12.47 14.7 0 0 5.77 1.31 8.66.66-.01-.01 2.09-6.18-.66-13.39z" fill="#fbd5c0" stroke-width="none" opacity="1" stroke="none"></path><path id="SvgjsPath29642" d="M64.88 101.76s-3.67-7.87-6.04-9.84c-2.36-1.97-7.87-5.12-9.32-3.28-1.44 1.84-1.57 7.61-1.57 7.61s1.57 4.59 6.3 7.09c4.72 2.49 10.37 2.76 10.37 2.76l.26-4.34z" fill="#ecb99d" stroke-width="none" opacity="1" stroke="none"></path><path id="SvgjsPath29643" d="M44.99 93.25c.02 1.09.09 2.19.17 3.28v.02l.01.03a39.54 39.54 0 0 0 2.2 4.42c.82 1.43 1.75 2.79 2.75 4.11 1.02 1.3 2.15 2.51 3.38 3.64 1.25 1.1 2.62 2.07 4.12 2.83l.04.02.05.01c1.45.31 2.89.55 4.36.7.73.07 1.47.13 2.22.13.74-.01 1.5-.05 2.25-.23l.19-.05.05-.17c.33-1.14.5-2.27.58-3.42.08-1.15.08-2.3-.01-3.44a23.99 23.99 0 0 0-.52-3.38c-.23-1.12-.59-2.2-.99-3.27-.94-1.86-2.02-3.63-3.13-5.4-1.14-1.74-2.35-3.46-3.85-4.95-.75-.74-1.6-1.4-2.5-1.96-.91-.56-1.88-.98-2.87-1.35-1.99-.73-4.08-1.08-6.19-1.12h-.08l-.04.04c-.89.85-1.22 1.93-1.54 2.98-.29 1.06-.45 2.16-.54 3.25-.09 1.09-.13 2.18-.11 3.28zm.33-3.27c.11-1.08.28-2.15.59-3.19.15-.52.35-1.02.59-1.49.23-.44.53-.89.86-1.18 2.01.12 4.01.6 5.9 1.29 1.9.73 3.7 1.74 5.19 3.13 1.5 1.39 2.82 2.99 4.04 4.67 1.22 1.67 2.29 3.46 3.28 5.28.37 1.07.71 2.15.91 3.27.24 1.11.32 2.24.36 3.37.04 1.13-.04 2.26-.19 3.37-.14 1.04-.35 2.09-.65 3.07-.62.1-1.26.12-1.91.1-.71-.01-1.43-.06-2.14-.14-1.41-.15-2.83-.4-4.21-.7-1.39-.74-2.72-1.62-3.93-2.66-1.2-1.07-2.33-2.24-3.35-3.49a42.391 42.391 0 0 1-2.82-3.96c-.86-1.37-1.66-2.79-2.33-4.25l-.16-1.59c-.05-.54-.06-1.09-.09-1.63-.04-1.1-.03-2.18.06-3.27z" fill="#ecb99d" stroke-width="none" opacity="1" stroke="none"></path><path id="SvgjsPath29644" d="M49.2 91.53c.18-.69.39-1.36.67-2.03.07-.16.16-.33.26-.48.11-.15.23-.33.48-.37.45.02.72.22 1.06.37a18.3 18.3 0 0 1 3.48 2.44c.53.48 1.03 1.01 1.42 1.66.18.33.36.69.38 1.14.01.25-.01.36-.01.54l.01.51c.16 2.77.58 5.56.83 8.36l-.07.01c-.34-1.37-.61-2.75-.86-4.13-.26-1.39-.44-2.78-.55-4.2l-.03-.54v-.51c0-.26-.13-.56-.28-.84-.31-.57-.74-1.11-1.21-1.61-.94-1-2.01-1.94-3.22-2.61-.29-.16-.65-.33-.91-.33-.23.06-.41.43-.53.73-.26.63-.39 1.33-.52 2.01-.23 1.37-.39 2.77-.48 4.15-.02.34-.04.7-.02 1.01-.01.17.21.46.41.71.42.52.91 1.02 1.4 1.5.81.79 1.65 1.57 2.5 2.33.09-.91.18-1.82.24-2.74.04-.59.07-1.17.08-1.75.01-.53.01-1.07-.06-1.58-.15-.02-.33-.03-.5-.02a4.1 4.1 0 0 0-.69.1c-.46.1-.91.25-1.35.43l-.03-.07c.41-.25.85-.46 1.32-.62.23-.08.47-.15.72-.19.26-.04.49-.07.79-.01l.11.02.03.13c.15.61.18 1.21.22 1.81.02.6.02 1.19.01 1.79-.03 1.19-.08 2.37-.19 3.56l-.07.75-.58-.49c-1.08-.92-2.11-1.87-3.11-2.88-.49-.51-.98-1.03-1.43-1.61-.11-.15-.22-.3-.32-.47-.05-.09-.1-.18-.14-.29-.05-.11-.07-.28-.07-.37-.01-.39.03-.74.06-1.1.14-1.45.39-2.84.75-4.22z" fill="#cd865f" stroke-width="none" opacity="1" stroke="none"></path></g></g><g id="svga-group-ears-right-move" transform="matrix(1,0,0,1,0,0)"><g id="svga-group-ears-right" transform="matrix(1,0,0,1,0,0)"><path id="SvgjsPath29645" d="M134.2 98.48s4.2-8.27 8.66-11.42c4.46-3.15 9.84-3.15 9.84-3.15s3.02 2.1 1.97 12.6c0 0-4.46 10.76-12.47 14.7 0 0-5.77 1.31-8.66.66.01-.01-2.09-6.18.66-13.39z" fill="#fbd5c0" stroke-width="none" opacity="1" stroke="none"></path><path id="SvgjsPath29646" d="M135.12 101.76s3.67-7.87 6.04-9.84c2.36-1.97 7.87-5.12 9.32-3.28 1.44 1.84 1.57 7.61 1.57 7.61s-1.57 4.59-6.3 7.09c-4.72 2.49-10.37 2.76-10.37 2.76l-.26-4.34z" fill="#ecb99d" stroke-width="none" opacity="1" stroke="none"></path><path id="SvgjsPath29647" d="M154.91 89.96c-.09-1.09-.25-2.18-.54-3.25-.32-1.05-.65-2.13-1.54-2.98l-.04-.04h-.08c-2.11.04-4.21.39-6.19 1.12-.99.37-1.96.79-2.87 1.35-.9.56-1.75 1.22-2.5 1.96-1.5 1.49-2.71 3.21-3.85 4.95-1.11 1.77-2.18 3.54-3.13 5.4-.39 1.07-.76 2.15-.99 3.27a23.99 23.99 0 0 0-.52 3.38c-.1 1.14-.09 2.29-.01 3.44s.25 2.28.58 3.42l.05.17.19.05c.75.18 1.51.22 2.25.23.75 0 1.48-.05 2.22-.13 1.47-.15 2.91-.39 4.36-.7l.05-.01.04-.02c1.5-.76 2.87-1.73 4.12-2.83 1.23-1.12 2.36-2.34 3.38-3.64 1-1.31 1.93-2.68 2.75-4.11.82-1.43 1.57-2.89 2.2-4.42l.01-.03v-.02c.07-1.09.14-2.18.17-3.28.01-1.09-.03-2.18-.11-3.28zm-.16 3.28c-.03.54-.04 1.09-.09 1.63l-.16 1.59c-.67 1.47-1.47 2.89-2.33 4.25-.87 1.37-1.8 2.7-2.82 3.96a29.855 29.855 0 0 1-3.35 3.49 21.554 21.554 0 0 1-3.93 2.66c-1.38.3-2.8.54-4.21.7-.71.08-1.43.13-2.14.14-.64.01-1.29 0-1.91-.1-.3-.98-.51-2.03-.65-3.07-.15-1.11-.22-2.24-.19-3.37.04-1.13.12-2.26.36-3.37.2-1.12.54-2.2.91-3.27.98-1.82 2.05-3.61 3.28-5.28 1.21-1.67 2.54-3.28 4.04-4.67 1.49-1.39 3.28-2.4 5.19-3.13 1.88-.69 3.89-1.17 5.9-1.29.34.29.63.74.86 1.18.25.47.44.97.59 1.49.3 1.03.48 2.11.59 3.19.08 1.1.09 2.18.06 3.27z" fill="#ecb99d" stroke-width="none" opacity="1" stroke="none"></path><path id="SvgjsPath29648" d="M150.8 91.53c-.18-.69-.39-1.36-.67-2.03-.07-.16-.16-.33-.26-.48-.11-.15-.23-.33-.48-.37-.45.02-.72.22-1.06.37a18.3 18.3 0 0 0-3.48 2.44c-.53.48-1.03 1.01-1.42 1.66-.18.33-.36.69-.38 1.14-.01.25.01.36.01.54l-.01.51c-.16 2.77-.58 5.56-.83 8.36l.07.01c.34-1.37.61-2.75.86-4.13.26-1.39.44-2.78.55-4.2l.03-.54v-.51c0-.26.13-.56.28-.84.31-.57.74-1.11 1.21-1.61.94-1 2.01-1.94 3.22-2.61.29-.16.65-.33.91-.33.23.06.41.43.53.73.26.63.39 1.33.52 2.01.23 1.37.39 2.77.48 4.15.02.34.04.7.02 1.01.01.17-.21.46-.41.71-.42.52-.91 1.02-1.4 1.5-.81.79-1.65 1.57-2.5 2.33-.09-.91-.18-1.82-.24-2.74-.04-.59-.07-1.17-.08-1.75-.01-.53-.01-1.07.06-1.58.15-.02.33-.03.5-.02.23.01.46.05.69.1.46.1.91.25 1.35.43l.03-.07c-.41-.25-.85-.46-1.32-.62a4.23 4.23 0 0 0-.72-.19c-.26-.04-.49-.07-.79-.01l-.11.02-.03.13c-.15.61-.18 1.21-.22 1.81-.02.6-.02 1.19-.01 1.79.03 1.19.08 2.37.19 3.56l.07.75.58-.49c1.08-.92 2.11-1.87 3.11-2.88.49-.51.98-1.03 1.43-1.61.11-.15.22-.3.32-.47.05-.09.1-.18.14-.29.05-.11.07-.28.07-.37.01-.39-.03-.74-.06-1.1a26.8 26.8 0 0 0-.75-4.22z" fill="#cd865f" stroke-width="none" opacity="1" stroke="none"></path></g></g><g id="svga-group-faceshape-wrap" transform="matrix(1,0,0,1,0,0)"><g id="svga-group-faceshape-single"><path id="SvgjsPath29679" d="M135.9 49.8c-6.7-7.4-11.3-13.2-28.8-17.3-1.8-.4-12.3-.4-14.1 0-17.5 4.1-22.1 9.9-28.8 17.3-7.1 7.8-9.5 29-9.5 29 0 9.6 1.3 32.3 13.3 47.2 17.8 22.2 32.1 22.3 32.1 22.3s14.2 0 32.1-22.3c12-14.9 13.3-37.6 13.3-47.2-.1 0-2.5-21.2-9.6-29z" fill="#fbd5c0" stroke-width="none" opacity="1" stroke="none"></path><path id="SvgjsPath29680" d="M107.1 32.5c-1.8-.4-12.3-.4-14.1 0-17.5 4.1-22.1 9.9-28.8 17.3-7.1 7.8-9.5 29-9.5 29 0 9.6 1.3 32.3 13.3 47.2 17.8 22.2 32.1 22.3 32.1 22.3s14.2 0 32.1-22.3c12-14.9 13.3-37.6 13.3-47.2 0 0-2.4-21.2-9.5-29-6.9-7.4-11.5-13.2-28.9-17.3zM142 63.8c.7 2.5 1.1 5 1.6 7.5.4 2.5.7 5 1 7.5-.2 7.4-1.3 14.8-3 22-.9 3.6-1.9 7.1-3.3 10.5-.7 1.7-1.4 3.4-2.2 5s-1.7 3.2-2.7 4.7l-1.5 2.2c-.3.4-3.4 4.2-3.4 4.2l-3.7 4.1-6.1 5.7c-2.8 2.3-5.8 4.5-9 6.2l-1.2.6-1.2.6c-.8.4-1.6.7-2.5 1l-1.3.4c-.4.1-.8.2-1.3.3-.4.1-1.71.43-2.9.4 0 0-1.4-.2-1.9-.3-.4-.1-.9-.2-1.3-.3l-1.3-.4c-.8-.3-1.7-.6-2.5-1l-1.2-.5-1.2-.6c-3.2-1.6-6.3-3.7-9.1-6l-4.1-3.6-3.9-3.9-1-1-.9-1-1.8-2.1c-1.2-1.4-2.3-2.8-3.3-4.4-1-1.5-2-3.1-2.8-4.8-.8-1.6-1.6-3.3-2.3-5.1-.7-1.7-1.3-3.5-1.8-5.3s-1-3.6-1.4-5.4-.8-3.6-1-5.5c-.3-1.8-.5-3.7-.7-5.5-.4-3.7-.5-7.4-.5-11.1.3-2.3.8-4.6 1.2-6.9.5-2.3 1.1-4.6 1.7-6.8.7-2.2 1.4-4.5 2.3-6.6.4-1.1.9-2.1 1.4-3.1s2.59-4.47 6.3-8.1c1.6-1.7 3.3-3.3 5-4.7 3.5-2.8 7.7-4.9 12-6.5l1.6-.6c6.69-2.31 10.6-2.2 11.8-2.3 2.3-.1 4.71-.26 7-.1 3.16.22 6.8 1.4 6.8 1.4 2.3.6 4.5 1.3 6.7 2.3.3.1 1.6.7 1.6.7.5.3 2.6 1.3 3.1 1.7.5.3 5.3 3.7 6.9 5.4 1.7 1.7 3.3 3.4 4.9 5.2 1.7 1.9 2.9 4.2 3.9 6.6 1.1 2.4 1.9 4.8 2.5 7.3z" fill="#cd865f" stroke-width="none" opacity="1" stroke="none"></path></g></g><g id="svga-group-mouth-single-move" transform="matrix(1,0,0,1,0,0)"><g id="svga-group-mouth-single" transform="matrix(1,0,0,1,0,0)"><path id="SvgjsPath29919" d="M90.88 126.51s-.27 1.69.86 2.88c1.14 1.19 11.47 2.31 17.34.11 5.87-2.2 6.74-5.28 6.74-5.28s-5.39.45-7.07.11c-1.69-.34-7.66-1.1-8.9-1s-3.37.96-4.36 1.36-4.61 1.82-4.61 1.82z" fill="#9d6d5f" stroke-width="none" opacity="1"></path><path id="SvgjsPath29920" d="M87.57 126.62s1.87 1.37 4.84.17c2.96-1.19 6.58-2.22 8.13-2.32s7.17 1.35 10.39 1.07c3.22-.29 6.81-1.1 8.21-3.3s.26-3.18-.22-2.66c-.48.51-.69 4.46-3.65 4.22-2.96-.24-6.51-2.62-9.97-3.46-3.46-.83-4.82.93-5.53 1.53s-1.58.42-3.12.41c-1.54-.02-4.73.33-5.43 2.15-.71 1.82-2.27 2.85-3.65 2.19z" fill="#956253" stroke-width="none" opacity="1"></path></g></g><g id="svga-group-eyes-left-move" transform="matrix(1,0,0,1,0,0)"><g id="svga-group-eyes-left" transform="matrix(1,0,0,1,0,0)"><g id="svga-group-eyesback-left"><path id="SvgjsPath29747" d="M80.2 77.2c7.5 0 13.5 5.8 13.5 13s-6 13-13.5 13-13.5-5.8-13.5-13 6-13 13.5-13z" fill="#ffffff" stroke-width="none" opacity="1"></path></g><g id="svga-group-eyesiriswrapper-left" transform="matrix(1,0,0,1,0,0)"><g id="svga-group-eyesiriscontrol-left" transform="matrix(1,0,0,1,0,0)"><g id="svga-group-eyesiris-left" transform="matrix(1,0,0,1,0,0)"><path id="SvgjsPath29693" d="M80.2 84.9c2.9 0 5.3 2.4 5.3 5.3s-2.4 5.3-5.3 5.3-5.3-2.4-5.3-5.3 2.4-5.3 5.3-5.3z" fill="#4d3623" stroke-width="none" opacity="1"></path><path id="SvgjsPath29694" d="M80.2 85.2c2.8 0 5.1 2.3 5.1 5.1s-2.3 5.1-5.1 5.1-5.1-2.3-5.1-5.1 2.3-5.1 5.1-5.1m0-.6c-3.1 0-5.6 2.5-5.6 5.6s2.5 5.6 5.6 5.6 5.6-2.5 5.6-5.6-2.5-5.6-5.6-5.6z" fill="#2e1b0c" stroke-width="none" opacity="1"></path><path id="SvgjsPath29695" d="M77.4 91.7c0 1.3.5 2.5 1.3 3.3.5.1 1 .2 1.5.2 2.8 0 5.1-2.3 5.1-5.1 0-1-.3-2-.8-2.8-.7-.3-1.4-.5-2.2-.5-2.8.1-4.9 2.3-4.9 4.9z" fill="#5c4633" stroke-width="none" opacity="1"></path><path id="SvgjsPath29696" d="M80.2 87.5c1.5 0 2.7 1.2 2.7 2.7s-1.2 2.7-2.7 2.7-2.7-1.2-2.7-2.7 1.2-2.7 2.7-2.7z" fill="#000000" stroke-width="none" opacity="1"></path><path id="SvgjsPath29697" d="M79 87.5c.5 0 .9.4.9.9s-.4.9-.9.9-1-.4-1-.9.5-.9 1-.9zm3.1 4.3c.2 0 .4.2.4.4s-.2.4-.4.4-.4-.2-.4-.4.2-.4.4-.4z" fill="#ffffff" stroke-width="none" opacity="1"></path><path id="SvgjsPath29698" d="M80.2 95.3c.3 0 .5 0 .8-.1-.2 0-.3-.2-.4-.3-.1.2-.3.4-.4.4-.3 0-.5-.2-.5-.4-.1.2-.4.3-.6.2-.2-.1-.4-.3-.4-.5-.2.2-.4.2-.6.1s-.3-.3-.3-.5c-.2.1-.5.1-.7 0s-.2-.5-.1-.7c-.2.2-.5.1-.7 0-.2-.2-.2-.5 0-.7-.2 0-.5-.1-.7-.3.9 1.7 2.6 2.8 4.6 2.8zm-4.6-3zm8.8.7c-.1.1-.3.2-.5.1.1.4-.3.8-.8.7.1.2 0 .4-.2.6-.2.1-.4.1-.6 0 0 .2-.1.4-.3.5s-.4 0-.6-.2c0 .2-.1.4-.2.5 1.4-.3 2.5-1.1 3.2-2.2zm-1.8-7.1c.3-.1.6.2.5.5.3-.2.8.3.6.6.2-.1.4 0 .4.2s.1.3-.1.5c.2 0 .5.1.6.3.1.2.1.5-.1.7.2 0 .4.2.5.4.1.2 0 .5-.2.6.2.1.3.3.3.5s-.1.4-.3.5c.2.1.3.3.3.5s-.2.4-.4.4c.3.2.1.8-.2.8.1.1.1.3.1.5.4-.8.7-1.6.7-2.6 0-2-1.2-3.8-2.9-4.6.1 0 .2.1.2.2zm-.6-.2c.1-.1.2-.1.3 0-.5-.2-1-.4-1.5-.4v.1c.4-.2.9 0 1.2.3zm-5.5 7c.2 0 .3-.1.4-.2.2-.1.3-.2.4-.3v-.1c-.2.1-.3.1-.4.2-.1.2-.3.2-.4.4 0-.1 0 0 0 0zm-1.2-1.5c.1 0 .3 0 .4-.1.2 0 .3-.1.5-.1v-.1c-.2 0-.3 0-.5.1s-.3 0-.4.2c0-.1 0 0 0 0zm.5-2.5c.4.1.8.3 1.2.4 0 0 .1 0 0-.1-.4-.1-.8-.3-1.2-.3 0-.1 0 0 0 0zm.2-.7c.2.2.4.3.7.4 0 0 .1 0 0-.1-.2-.2-.5-.3-.7-.3-.1-.1-.1-.1 0 0zm3.7 6.5c.1-.3.2-.7.2-1 0 0-.1-.1-.1 0-.1.3-.1.7-.1 1zm3.5-4c.3.1.7.1 1.1.1v-.1h-1.1zm.2-.7c.3 0 .7.1 1 0v-.1c-.3 0-.6 0-1 .1zm.2-2.7c-.3.2-.6.5-.9.8 0 0 0 .1 0 0 .3-.2.6-.5.9-.8.1 0 0 0 0 0zm-2.8-1.3c-.1.3-.2.5-.2.8 0 .1.1.1.1 0 .1-.2.1-.5.1-.8zm-2.9.3c.1.2.2.5.3.7h.1c-.1-.2-.3-.4-.4-.7z" fill="#2e1b0c" stroke-width="none" opacity="1"></path></g></g></g><g id="svga-group-eyesfront-left"><path id="SvgjsPath29755" d="M80.2 76.7c-7.8 0-14.1 6.1-14.1 13.6s6.3 13.6 14.1 13.6 14.1-6.1 14.1-13.6S88 76.7 80.2 76.7zm-.7 23.4c-7.8 0-10.2-4.1-10.2-4.1 2.7-9.8 7.8-15.2 13.6-12.6 5.8 2.6 7.4 8.8 7.3 9.9s-2.9 6.8-10.7 6.8z" fill="#fbd5c0" stroke-width="none" opacity="1" stroke="none"></path><path id="SvgjsPath29756" d="M90.564 94.282c-1.7 9.1-9.8 10.6-9.8 10.6 10.8-1.9 9.8-10.6 9.8-10.6z" fill="#ecb99d" stroke-width="none" opacity="1" stroke="none"></path><path id="SvgjsPath29757" d="M73.953 82.16c4-3.4 9.5-2 9.5-2-1.7-1.1-8.5-1.9-11.5 2.9s-3.4 12.3-3.4 12.3 1.4-9.9 5.4-13.2z" fill="#ecb99d" stroke-width="none" opacity="1" stroke="none"></path><path id="SvgjsPath29758" d="M77.04 82.299a11.938 11.938 0 0 0-.73.321 2.259 2.259 0 0 0-.13.08 2.259 2.259 0 0 1-.13.08 12.928 12.928 0 0 1-.27-.697 46.745 46.745 0 0 1-.29-.826c-.086-.245-.166-.48-.234-.679l-.085-.246v-.003l-.031-.089a59.744 59.744 0 0 1-.123-.425l-.126-.445-.077-.267a.273.273 0 0 0-.014-.043.271.271 0 0 0-.32-.19c-.14.04-.23.18-.19.32l.003.015c.009.04.035.141.075.287l.006.024a29.517 29.517 0 0 0 .263.898l.023.076.3.95a20.783 20.783 0 0 0 .63 1.64 8.8 8.8 0 0 0-.462.337c-.27.21-.526.439-.758.683-.28.29-.55.58-.76.89a9.628 9.628 0 0 0-.65.92l-.15.24a10.555 10.555 0 0 1-.528-.664 12.367 12.367 0 0 1-.294-.418l-.008-.011-.15-.227-.47-.79a29.932 29.932 0 0 1-1.033-1.896l-.002-.003-.002-.006-.003-.005-.002-.004a.264.264 0 0 0-.348-.116.263.263 0 0 0-.125.34l.005.01.003.007.005.01A29.542 29.542 0 0 0 71.09 84.6l.47.739a11.358 11.358 0 0 0 .98 1.26l-.15.24a12.15 12.15 0 0 0-.52.97 24.427 24.427 0 0 0-.656 1.424c-.076.179-.15.357-.224.536a7.27 7.27 0 0 1-1.02-.56l-.42-.28c-.961-.66-1.873-1.451-2.436-1.967-.35-.321-.566-.535-.574-.543-.1-.1-.27-.1-.37 0-.1.1-.1.27 0 .37.032.032.246.244.582.554.573.527 1.501 1.335 2.5 2.02a14.938 14.938 0 0 0 .157.106l.277.166.006.003c.352.21.826.484 1.088.607l.03.014a28.68 28.68 0 0 0-.373 1.034 27.312 27.312 0 0 0-1.107 4.446 1.967 1.967 0 0 1-.03.123c0 .004 0 .007-.002.01a5.26 5.26 0 0 1-.042.146l-.006.02.01.016c.625 1.002 1.527 1.754 2.503 2.376l.195.122h.001l.011.007c.085.05.17.1.257.146.169.092.341.178.513.264a4.348 4.348 0 0 0-.453.668 6.104 6.104 0 0 0-.237.466c-.083.18-.166.382-.247.607l-.003.009a.263.263 0 0 0 .16.34c.03.01.06.02.09.02.11 0 .21-.07.25-.17l.004-.01c.097-.275.2-.513.299-.715.061-.125.122-.236.178-.335a3.915 3.915 0 0 1 .369-.535.956.956 0 0 1 .04-.045.26.26 0 0 0 .036-.048l.014-.022a8.586 8.586 0 0 0 .553.227l.026.01c.125.046.252.09.381.133a10.575 10.575 0 0 0-.115.343l-.017.053a13.39 13.39 0 0 0-.224.804 6.478 6.478 0 0 0-.144.798v.002a.274.274 0 0 0 .24.29h.03a.26.26 0 0 0 .26-.234v-.006l.001-.012a5.82 5.82 0 0 1 .136-.747c.037-.156.079-.309.12-.45.083-.291.163-.533.204-.654l.009-.027c.186.052.371.104.557.152l.168.042h.004l.021.006c1.203.256 2.426.425 3.649.439a.402.402 0 0 0 .035.001h.016c.3.019.603.011.906-.007l.015-.001h.001l.402-.027c.164-.012.328-.024.49-.032l.055-.003a12.568 12.568 0 0 1 .62-.11c.393-.065.79-.131 1.18-.247l.011-.003.018-.004c2.43-.603 4.59-2.077 6.097-4.039l.001-.002a11.241 11.241 0 0 0 .978-1.574l.003-.006a.139.139 0 0 0 .003-.005l.038-.082c.115-.25.224-.51.28-.794v-.003l.002-.011c.032-.184.027-.363.007-.539l-.004-.03a4.762 4.762 0 0 0-.043-.271c-.02-1.21-.35-2.43-.8-3.58l-.031-.072-.006-.013a13.62 13.62 0 0 0-2.343-3.675c-1.01-1.13-2.26-2.09-3.7-2.7-1.43-.62-3.06-.94-4.69-.68a6.454 6.454 0 0 0-1.6.439zm-1.93 3.903c.187-.24.39-.434.588-.622l.072-.068c.45-.43.95-.76 1.48-1.05.54-.24 1.1-.46 1.7-.52 1.18-.2 2.44.01 3.62.45 1.19.43 2.3 1.15 3.29 2.03.894.812 1.738 1.74 2.433 2.77l.129.195.018.027.05.078a12.91 12.91 0 0 1 1.59 3.41c.02.165.03.33.002.486v.003l-.002.011c-.045.26-.154.51-.262.761l-.038.09c-.26.547-.607 1.055-.966 1.533l-.001.002-.003.004c-1.5 1.93-3.72 3.23-6.08 3.74l-.02.006a8.038 8.038 0 0 1-1.142.218l-.162.022c-.137.019-.273.037-.409.057a3.938 3.938 0 0 0-.047.007h-.023l-.487.017-.384.013h-.016a7.244 7.244 0 0 1-.86.023l-.026-.001-.024-.002a17.547 17.547 0 0 1-3.584-.362l-.01-.003-.026-.005a14.85 14.85 0 0 1-2.135-.62 11.399 11.399 0 0 1-1.263-.578l-.022-.012c-1.05-.575-2.062-1.307-2.781-2.254l-.02-.026.01-.022a.753.753 0 0 0 .04-.128l.063-.128v-.002a93.336 93.336 0 0 1 2.047-4.016 45.13 45.13 0 0 1 1.84-3.094c.19-.29.38-.57.58-.85.19-.28.39-.55.6-.82.2-.27.42-.52.64-.77z" fill="#153a4d" stroke-width="none" opacity="1" stroke="none"></path></g></g></g><g id="svga-group-eyes-right-move" transform="matrix(1,0,0,1,0,0)"><g id="svga-group-eyes-right" transform="matrix(1,0,0,1,0,0)"><g id="svga-group-eyesback-right"><path id="SvgjsPath29748" d="M119.8 77.2c7.5 0 13.5 5.8 13.5 13s-6 13-13.5 13-13.5-5.8-13.5-13 6-13 13.5-13z" fill="#ffffff" stroke-width="none" opacity="1"></path></g><g id="svga-group-eyesiriswrapper-right" transform="matrix(1,0,0,1,0,0)"><g id="svga-group-eyesiriscontrol-right" transform="matrix(1,0,0,1,0,0)"><g id="svga-group-eyesiris-right" transform="matrix(1,0,0,1,0,0)"><path id="SvgjsPath29699" d="M119.8 85.5c2.6 0 4.7 2.1 4.7 4.7s-2.1 4.7-4.7 4.7-4.7-2.1-4.7-4.7 2.1-4.7 4.7-4.7z" fill="#4d3623" stroke-width="none" opacity="1"></path><path id="SvgjsPath29700" d="M119.8 85.8c2.4 0 4.4 2 4.4 4.4s-2 4.4-4.4 4.4-4.4-2-4.4-4.4 1.9-4.4 4.4-4.4m0-.5c-2.7 0-4.9 2.2-4.9 4.9s2.2 4.9 4.9 4.9 4.9-2.2 4.9-4.9-2.2-4.9-4.9-4.9z" fill="#2e1b0c" stroke-width="none" opacity="1"></path><path id="SvgjsPath29701" d="M117.3 91.5c0 1.1.4 2.2 1.2 2.9.4.1.8.2 1.3.2 2.4 0 4.4-2 4.4-4.4 0-.9-.3-1.8-.7-2.4-.6-.3-1.2-.5-1.9-.5-2.4 0-4.3 1.9-4.3 4.2z" fill="#5c4633" stroke-width="none" opacity="1"></path><path id="SvgjsPath29702" d="M119.8 87.8c1.3 0 2.4 1.1 2.4 2.4s-1.1 2.4-2.4 2.4-2.4-1.1-2.4-2.4 1.1-2.4 2.4-2.4z" fill="#000000" stroke-width="none" opacity="1"></path><path id="SvgjsPath29703" d="M118.7 87.8c.5 0 .8.4.8.8s-.4.8-.8.8-.8-.4-.8-.8.4-.8.8-.8zm2.8 3.8c.2 0 .3.1.3.3s-.1.3-.3.3-.3-.1-.3-.3.1-.3.3-.3z" fill="#ffffff" stroke-width="none" opacity="1"></path><path id="SvgjsPath29704" d="M119.8 94.7c.2 0 .4 0 .7-.1-.2 0-.3-.2-.3-.3-.1.2-.3.3-.4.4-.2 0-.4-.2-.5-.3-.1.2-.3.3-.5.2-.2-.1-.3-.2-.3-.4-.1.1-.4.2-.5.1s-.3-.3-.3-.4c-.2.1-.4.1-.6 0s-.2-.4-.1-.6c-.2.1-.4.1-.6 0-.2-.2-.2-.4 0-.6-.2 0-.4-.1-.6-.2.8 1.2 2.3 2.2 4 2.2zm-4-2.6s0-.1 0 0c-.1-.1 0 0 0 0zm7.7.6c-.1.1-.3.2-.4.1.1.4-.3.7-.7.7.1.2 0 .4-.2.5s-.4.1-.5 0c0 .2-.1.4-.3.4s-.4 0-.5-.2c0 .2-.1.3-.2.4 1.2-.3 2.2-1 2.8-1.9zm-1.6-6.2c.2-.1.5.2.4.4.3-.1.7.2.5.5.1 0 .3 0 .4.2.1.1 0 .3-.1.4.2 0 .4.1.5.3.1.2.1.4-.1.6.2 0 .4.1.4.3s0 .4-.2.5c.2.1.3.2.3.4s-.1.4-.3.4c.2.1.3.3.2.5s-.2.3-.4.4c.2.2.1.7-.2.7.1.1.1.3.1.4.4-.7.6-1.4.6-2.3 0-1.8-1-3.3-2.5-4 .3.1.4.2.4.3zm-.5-.3c.1-.1.2-.1.3 0-.4-.2-.8-.3-1.3-.4v.1c.3-.1.7.1 1 .3zm-4.8 6.2c.1 0 .2-.1.4-.2.1-.1.3-.1.4-.2v-.1c-.1.1-.3.1-.4.2s-.3.1-.4.3c-.1-.1 0 0 0 0zm-1.1-1.4c.1 0 .2 0 .4-.1.1 0 .3-.1.4-.1v-.1c-.1 0-.3 0-.4.1s-.3.1-.4.2zm.5-2.1c.3.1.7.2 1 .3 0 0 .1 0 0 0-.3-.2-.7-.3-1-.3-.1-.1-.1 0 0 0zm.1-.7c.2.1.4.3.6.4 0 0 .1 0 0-.1l-.6-.3zm3.3 5.8c.1-.3.2-.6.2-.9 0 0-.1-.1-.1 0-.1.2-.1.6-.1.9-.1 0 0 0 0 0zm3-3.5c.3.1.6.1.9.1-.2-.1-.6-.1-.9-.1zm.2-.6h.8v-.1c-.2 0-.5 0-.8.1 0-.1 0 0 0 0zm.2-2.4c-.3.2-.6.4-.8.7.2-.2.5-.4.8-.7zm-2.5-1.1c-.1.2-.1.5-.1.7h.1v-.7zm-2.5.2.3.6h.1c-.2-.2-.3-.4-.4-.6z" fill="#2e1b0c" stroke-width="none" opacity="1"></path></g></g></g><g id="svga-group-eyesfront-right"><path id="SvgjsPath29759" d="M119.8 76.7c-7.8 0-14.1 6.1-14.1 13.6s6.3 13.6 14.1 13.6 14.1-6.1 14.1-13.6-6.3-13.6-14.1-13.6zm.8 22.1c-7.3-.5-9.6-5.7-9.6-6.6s1.8-6.2 7.3-8.1 11.5 3.9 11.3 11.5c0-.1-1.8 3.7-9 3.2z" fill="#fbd5c0" stroke-width="none" opacity="1" stroke="none"></path><path id="SvgjsPath29762" d="M110.45 92.93s-.41 5.52 4.26 8.39c0 0-3.36-3.16-4.26-8.39z" fill="#ecb99d" stroke-width="none" opacity="1" stroke="none"></path><path id="SvgjsPath29763" d="M125.825 83.785c3.4 3 4.42 11.337 4.42 11.337s-.12-6.337-2.62-10.437-8.57-3.438-10.07-2.638c0 0 4.87-1.262 8.27 1.738z" fill="#ecb99d" stroke-width="none" opacity="1" stroke="none"></path><path id="SvgjsPath29764" d="M118.707 102.253c8.082 1.207 10.656-5.285 10.656-5.285-3.726 5.505-9.756 5.385-10.656 5.285z" fill="#ecb99d" stroke-width="none" opacity="1" stroke="none"></path><path id="SvgjsPath29765" d="M128.806 82.714a.276.276 0 0 0-.505-.219c-.249.575-.755 1.416-1.209 2.127a49.6 49.6 0 0 1-.588.896l-.053.08c-1.284-1.409-2.842-2.358-4.453-2.655-4.283-.788-9.697 2.652-11.095 9.113v-.001.003l-.002.01.001-.003c-.118 2.839 5.186 6.643 8.969 6.906 1.434.14 3.178.083 4.818-.293l.082.172c.069.15.162.358.254.598.188.488.364 1.068.368 1.522a.275.275 0 1 0 .55-.005c-.005-.559-.213-1.218-.405-1.715a10.59 10.59 0 0 0-.268-.631l-.037-.08c.323-.09.641-.194.949-.312l.035.036a32.77 32.77 0 0 1 .854.923c.244.275.499.574.716.852.221.283.39.53.474.705a.275.275 0 0 0 .496-.239c-.112-.231-.312-.517-.536-.804-.227-.29-.49-.6-.739-.88a35.06 35.06 0 0 0-.66-.72l-.097-.101c1.209-.556 2.225-1.365 2.821-2.494v.009l.001-.012c.18-1.753.012-3.434-.414-4.966l.145-.055c.206-.079.491-.19.804-.323.617-.261 1.371-.613 1.839-.952a.275.275 0 1 0-.322-.445c-.412.298-1.113.629-1.732.89a23.743 23.743 0 0 1-.893.358 12.74 12.74 0 0 0-.909-2.124 18.865 18.865 0 0 0 .73-.824c.468-.56 1.049-1.314 1.479-2.081a.275.275 0 0 0-.48-.269c-.406.724-.962 1.449-1.421 1.997-.229.273-.432.5-.577.659l-.017.017a11.53 11.53 0 0 0-.956-1.356l.138-.203c.154-.23.366-.55.594-.907.453-.708.982-1.584 1.251-2.204zm-7.149 1.807c2.208.316 7.49 4.257 7.889 10.984-.091.155-2.287 3.79-9.623 2.94-7.351-.851-8.959-6.18-9.018-6.384 3.707-7.277 8.543-7.855 10.752-7.54z" fill="#153a4d" stroke-width="none" opacity="1" stroke="none"></path></g></g></g><g id="svga-group-facehighlight-single"></g><g id="svga-group-eyebrows-left-move" transform="matrix(1,0,0,1,0,0)"><g id="svga-group-eyebrows-left-rotate" transform="matrix(1,0,0,1,0,0)"><g id="svga-group-eyebrows-left" transform="matrix(1,0,0,1,0,0)"><path id="SvgjsPath29822" d="M79.91 77.16c2.89-.09 7.72.79 8.3-.29.58-1.08-1.52-5.77-8.01-6.28-6.49-.51-10.39 6.13-9.16 6.57 1.23.43 6.56.07 8.87 0z" fill="#decfbc" stroke-width="none" opacity="1"></path><path id="SvgjsPath29823" d="M74.78 77.6c-.86.07-1.72.12-2.6.09-.22-.01-.44-.02-.67-.05-.12-.02-.22-.02-.35-.06l-.19-.05a.65.65 0 0 1-.28-.14c-.2-.17-.25-.39-.27-.55-.02-.16 0-.3.02-.43.05-.26.13-.48.22-.7.18-.43.42-.82.68-1.19.26-.37.54-.71.85-1.03.62-.64 1.3-1.21 2.05-1.69 1.49-.96 3.27-1.49 5.03-1.46.88.01 1.74.16 2.59.34.85.19 1.67.47 2.46.82.79.37 1.54.81 2.22 1.38.67.57 1.27 1.25 1.69 2.06.2.41.37.84.41 1.35.01.25.01.54-.21.84-.05.07-.11.12-.18.18-.06.04-.13.09-.19.11-.12.06-.25.1-.36.14-.47.13-.92.14-1.36.13-.44 0-.87-.04-1.3-.08-1.72-.17-3.41-.48-5.13-.43-1.71.07-3.41.28-5.13.42zm6.42-.49 1.29.02c.86.02 1.72.02 2.57.01.43-.01.85-.02 1.27-.05.21-.01.42-.03.62-.06.2-.02.4-.06.57-.11.17-.05.33-.14.37-.2.04-.05.08-.21.07-.39-.02-.35-.14-.75-.3-1.11-.32-.74-.81-1.43-1.4-2.02-.3-.3-.62-.57-.95-.82-.34-.24-.71-.46-1.08-.65-1.52-.75-3.26-1.04-4.93-.97-1.68.11-3.28.71-4.64 1.64a9.63 9.63 0 0 0-1.86 1.63c-.54.61-1.05 1.29-1.37 2-.08.18-.15.36-.18.52-.02.08-.02.16-.02.21 0 .05.02.05-.01.02-.08-.04.06.01.13.03.08.03.19.03.28.05.19.03.4.05.61.07.83.07 1.69.1 2.54.14 1.71.07 3.43.08 5.15.02.41.01.84.02 1.27.02z" fill="#cfb89a" stroke-width="none" opacity="1"></path></g></g></g><g id="svga-group-eyebrows-right-move" transform="matrix(1,0,0,1,0,0)"><g id="svga-group-eyebrows-right-rotate" transform="matrix(1,0,0,1,0,0)"><g id="svga-group-eyebrows-right" transform="matrix(1,0,0,1,0,0)"><path id="SvgjsPath29824" d="M119.79 77.79c-2.89-.09-7.72.79-8.3-.29-.58-1.08 1.52-5.77 8.01-6.28 6.49-.51 10.39 6.13 9.16 6.57s-6.56.07-8.87 0z" fill="#decfbc" stroke-width="none" opacity="1"></path><path id="SvgjsPath29825" d="M119.79 77.83c-1.72-.05-3.41.27-5.13.43-.43.04-.86.08-1.3.08-.44 0-.89-.01-1.36-.13a1.34 1.34 0 0 1-.36-.14c-.06-.03-.13-.08-.19-.11-.06-.05-.12-.1-.18-.18-.22-.3-.21-.6-.21-.84.03-.5.21-.94.41-1.35.42-.81 1.02-1.49 1.69-2.06.68-.57 1.43-1.02 2.22-1.38.79-.36 1.62-.64 2.46-.82.85-.18 1.7-.33 2.59-.34 1.76-.04 3.54.5 5.03 1.46.75.48 1.44 1.04 2.05 1.69.31.32.59.67.85 1.04s.5.76.68 1.19c.09.22.17.44.22.7.02.13.04.27.02.43-.02.16-.07.38-.27.55a.65.65 0 0 1-.28.14l-.19.05c-.13.04-.23.04-.35.06-.23.03-.45.04-.67.05-.88.03-1.74-.02-2.6-.09-1.71-.16-3.42-.37-5.13-.43zm0-.08c1.71.06 3.43.05 5.15-.02.85-.04 1.71-.07 2.54-.14.21-.02.41-.04.61-.07.09-.02.2-.03.28-.05.07-.02.21-.07.13-.03-.03.03-.02.03-.01-.02 0-.05 0-.13-.02-.21a2.3 2.3 0 0 0-.18-.52c-.32-.72-.82-1.39-1.37-2-.55-.61-1.18-1.16-1.86-1.63-1.37-.93-2.97-1.53-4.64-1.64-1.67-.07-3.41.22-4.93.97-.38.19-.74.41-1.08.65-.34.25-.66.52-.95.82-.59.59-1.08 1.28-1.4 2.02-.16.37-.28.76-.3 1.11-.01.17.03.34.07.39.04.06.2.15.37.2.17.05.37.09.57.11.2.03.41.05.62.06.42.02.84.04 1.27.05.85.01 1.71 0 2.57-.01l1.29-.02c.41-.03.84-.03 1.27-.02z" fill="#cfb89a" stroke-width="none" opacity="1"></path></g></g></g><g id="svga-group-nose-single-move" transform="matrix(1,0,0,1,0,0)"><g id="svga-group-nose-single" transform="matrix(1,0,0,1,0,0)"><path id="SvgjsPath29909" d="M109.52 109.12c-.37-.88-.94-1.63-1.59-2.29.5.77.95 1.58 1.22 2.42.13.42.21.86.14 1.25-.04.2-.1.36-.23.53-.12.17-.25.34-.41.47-.61.58-1.49.8-2.35.68-.43-.05-.87-.17-1.28-.35-.39-.14-.76-.35-1.13-.54.33-.49.63-1.01.89-1.55-.86.8-1.66 1.61-2.52 2.32-.43.35-.86.7-1.32.96-.45.27-.94.48-1.33.46-.1.01-.18-.02-.27-.03-.08-.05-.15-.05-.26-.14-.21-.13-.43-.31-.65-.48-.44-.34-.87-.72-1.31-1.08-.87-.74-1.75-1.48-2.69-2.17.44.7.95 1.34 1.47 1.97-.44.2-.89.36-1.34.46-.56.11-1.15.13-1.62-.09-.95-.47-1.51-1.61-1.35-2.58.04-.25.12-.44.26-.65.15-.23.32-.46.49-.69.35-.45.72-.9 1.11-1.33l.58-.65c.23-.25.4-.49.58-.74.36-.5.68-1.03.94-1.61.26-.57.42-1.23.52-1.81.1-.59.2-1.18.26-1.77.13-1.18.24-2.36.27-3.55.08-2.37.02-4.76-.45-7.08.05 2.36-.12 4.7-.35 7.03-.13 1.16-.26 2.33-.44 3.48-.09.58-.18 1.15-.28 1.72-.11.58-.23 1.07-.47 1.57-.22.5-.5.99-.82 1.45-.16.23-.33.47-.5.65-.2.23-.39.45-.58.68-.38.46-.74.94-1.09 1.43-.17.25-.35.5-.5.77-.18.29-.3.67-.32 1-.11 1.38.74 2.67 1.98 3.12.64.2 1.29.1 1.86-.1.47-.16.9-.4 1.31-.67.21.25.41.5.63.74.39.44.8.84 1.24 1.25.22.2.45.39.72.57.11.09.32.19.5.27.19.05.39.1.58.1.77 0 1.36-.33 1.88-.66.51-.36.96-.75 1.36-1.2.39-.42.74-.87 1.06-1.34.66.58 1.44 1.09 2.36 1.27.47.1.98.11 1.46 0 .48-.12.94-.36 1.31-.7.19-.17.34-.37.48-.57.15-.2.26-.48.28-.73.03-.54-.1-1.03-.29-1.47z" fill="#cd865f" stroke-width="none" opacity="1"></path></g></g><g id="svga-group-hair-front" transform="matrix(1,0,0,1,0,0)"><path id="SvgjsPath29870" d="M185.9 135.4c.4-.1.6-.7.1-.8-12.8-3.5-1.1-13.1-3.6-20.4-1.6-4.7-6.6-5.4-9.4-8.9-3.6-4.6 3.6-10.8 4.5-15.6.8-4.3-2-8.2-3.5-12.1.3-1.8.6-3.7 1-5.5.5-2.4.9-4.8.8-7.2.1-.4.2-.9.3-1.4 1-5.6-1.1-11.5-5.6-15.1-2.3-1.9-4.8-2.9-7.5-3.3 0-1-.1-1.9-.4-2.8-.6-1.9-1.7-3.5-3.2-4.8-1.5-1.3-3.3-2.2-5.2-2.7-3.3-.8-7.4.8-10.3-1.5-3.6-2.9-4-8.1-8.2-10.8-4.2-2.6-8.6-2.7-13-.8 0 0-.1 0-.1.1-1.6-1-3.3-1.6-5.1-1.9-1.8-.2-3.4.2-5.1.2-1.2 0-2.2-.2-3.2-.5-.3-.2-.6-.3-.9-.5-.9-.4-1.9-.7-2.9-.9-.7-.2-1.3-.3-1.9-.4-4.2-.6-8.6.4-12.2 3.7-2.8 2.5-4.7 5.3-8.7 5.6C73.8 24.8 61 29.5 62 38.6v.4c-4-1.9-10.2-1.9-13.5-1.1-3.4.8-6.7 2.8-8.1 6.2-1.2 2.9-1.1 5.3-4.5 6.7-2 .8-4.3.8-6.3 1.8-2.5 1.2-5.1 3.6-5 6.7.1 1.1.6 2.1 1.2 3.1.5.7 1.2 1.2 1.7 1.9 1.3 1.9 2.6 5.6 1.5 7.7-.8 1.5-2.2 2-2.4 3.8-.3 2 1.1 2.8 1.2 4.7.2 2.8-3.4 4.2-2.1 7.1.2.4.7.2.8-.1.8-2.4 3.4-3.7 4-6.1.2-.7 0-1.2 0-1.9-.2-.5-.5-1-.9-1.5-.6-2.2 0-3.9 1.6-5 1-1.9 2.4-2.6 1.9-5.1-.6-2.9-3.5-3.8-4.8-6.2-5.3-8.8 11.4-6.7 14-11.6 1-2 .1-3.3 2-5.4 1.6-1.9 4.2-2.5 6.6-2.8 1.4-.1 3.1-.2 4.7-.1-3.3.4-6.6 1.7-8.8 3.5-1.8 1.5-3.2 3.4-4.2 5.5-.4.3-.9.7-1.3 1.1-2.5 2.5-4.4 5.8-4.4 9.4 0 4.6 3.2 8.1 4.3 12.4.1.5.2.9.2 1.4-.7 2-2 3.6-3.6 5-4.1.8-8.2 3.7-10.8 7.3-3.8 2.5-6.9 5.5-7.6 10.4-.7 4.6 1.1 9.1 4.7 12.1 2.3 1.9 5.5 3.2 7.1 5.8.1.1.1.3.2.4-3.6 5.5-12.3 9.9-13.9 16.5-.8 3.4.1 7.2 2.4 9.9 2.7 3.1 7.3 3.3 4.8 9.4-.5 1.2-1.1 1.5-1.1 2.9 0 .5.7.7.9.2 1.9-3.5 6.8-5.1 3.8-9.8-1.7-2.6-5.2-3.2-6.7-6.1-1.4-2.6-.8-5.1.6-7.3.6 6 6.3 11.7 12.2 10 2.3 2.6 3.8 5.2 1.2 9-1.4 2.1-4.5 4.8-3.4 7.7 1.1 3 4.6 3.6 7.5 2.7 1.6 2.4 4 4.4 6.6 5.5.7 1.8 1.7 3.4 3.4 4.4 2.1 1.3 6 1.9 7.1-1 .3-.7-.4-1.4-1.1-1.4-2 0-3.4.7-5.1-.9l-.3-.3c2.4 0 4.6-1 6.4-3.5 1.6-2.2 2.3-4.9 2.1-7.5.8 1.2 1.7 2.2 2.8 2.8 1.7 1 4.1 1.6 6 .6 1.5-.8 2.7-2.9 1.7-4.5-.4-.6-1.4-.7-1.8 0-.3.5-.6 1-1 1.3-1.4-.2-1.6-3.3-1.3-4.5.3-1.2 2.2-2.2 3.1-2.9 1.2-.9 2.4-1.3 3.3-2.6 1.7-2.2 1.8-5.2.8-7.7-1-2.7-3.1-4.6-5.4-6.1-2.6-1.7-5-2.7-6-5.9-1-3.3.6-6.2 1.2-9.3v-.3c1-1 1.7-2.1 2-3.5 1.3-7.3-10-9.2-8.2-16 .2-.8.6-1.5 1-2.1.3-.4.6-.7 1-1.1 1-.9 2.3-1.7 3.4-2.5 1.8-1.1 3.9-1.9 5.9-3 3.3-1.7 5.6-3.8 5.8-7.7.2-4.5-2.5-8.1-4.5-11.8-4.4-8.2.7-14.6 7.8-18.1.6-.1 1.2-.3 1.8-.6.2.1.5 0 .7-.1.2-.2.4-.3.6-.5h.2c7.6-4.3 14.9-10.1 24.2-8.2 5.3 1.1 10.9 4.6 9.7 10.8-.7 3.5-2.2 6.8-2 10.4.3 5.8 5.1 8.9 10.4 9.5 2.7.3 5.4-.1 8.1-.4 6.8 1.7 13 5.9 11.7 14.1-1.1 6.7-7.6 11-9.5 17.5-.6 2.2-.7 4.5-.1 6.7 0 1.1.2 2.2.6 3.3 1 2.4 2.9 4 4.6 5.8 4.6 5-.3 8.3-4 11.6-2 1.8-3.8 4.3-4.3 6.9-.4.4-.9.9-1.2 1.4-2.1 3.3-2 9.9 2.9 10.5.7.1 1-1 .4-1.3-2.2-1-2.3-3.6-1.5-5.8.3.5.6 1 1 1.5.9 1 1.9 1.6 3 2.3 2.4 1.7 2.5 4 2 6.7-.1.3-.1.6-.2.9 0 .1 0 .1-.1.2-.6 2.3-1.4 4.3-.6 6.8.4 1.1 1 2 1.8 2.7-1.9-.1-4-1.6-4.9-3.6-.4-.7-1.4-.2-1.3.5 1.2 5.4 7 7.1 10.6 4.1h.2c2.3 0 4.2.1 6.1.8 2.7 1.9 5.7 3.1 9.2 2.6 3 .1 6.2-.6 8.8-1.6 5.1-1.5 9.9-6.8 9.7-11.8 3.9 3.2 10.8 2.6 11.1-4.2.1-1.1-1.4-1.4-1.9-.5-1.5 3.2-3.8 2.9-7-1.1.4-1.1.8-2.1 1.3-3.1.4-1 .9-2 1.1-3.1.4-2.5-.2-4.6-2-6.4-.6-.6-1.3-1.1-2-1.6-.1-.2-.3-.4-.4-.6-.7-1.6-1.5-3.2-2.2-4.8.7-1.1 1.3-2.4 1.7-3.7 1.5-2.6 2.3-5.5 2.7-8.3.1-1 .2-2.2.1-3.3.2.3.4.5.6.8 1.4 2.7-.4 6-1 8.7-1.3 6.3 2.5 12.2 8.8 11.3zM32.3 114c-2.1-2.5-5.4-3.9-7.9-6.5-3.7-3.7-4-9.6-1-13.8-.8 1.7-1 3.5-.5 5.5 1.3 4.6 5.5 6.9 8.5 10.2.4.5.8.9 1.1 1.3.3 1.2.2 2.3-.2 3.3zm34.6-56.8c-3.1 4.2-3.4 8.6-1.3 13.3 1.4 3.1 3.7 5.8 4.5 9.2.9 3.7-1 5.9-3.5 7.5.3-.6.6-1.3.8-2 1.1-3.7.7-7.4-1.4-10.4 0-.1-.1-.1-.1-.2-2.4-5.2-3.7-9.5-1.3-15 .2-.4.1-.9-.2-1.2 1.2-1.3 2.5-2.5 4.2-3.4.2-.1.3-.2.5-.3-.9.8-1.6 1.6-2.2 2.5zm48.8 9c-1.3-3.2-.3-5.9.8-9 1.3-3.7 2.7-7 .7-10.7-5-9.1-15.2-9.5-24.3-6.2.7-.5 1.3-1 2-1.5 3.5-1.4 7.2-2.2 11-2 3.7.2 7.4 1.2 10.5 3.3 2 2.9 3.8 5.7 3.9 9.4.1 4-1.9 7.6-2.2 11.5-.4 4.4 1.3 8.1 4.8 10.1-3.3-.3-6-1.7-7.2-4.9z" fill="#decfbc" stroke-width="none" opacity="1" stroke="none"></path><path id="SvgjsPath29871" d="M148.4 121.5c-1-.8-2.1-1.3-3.2-1.8s-2.3-.8-3.4-1.1c-1.1-.3-2.2-.6-3.2-1-2-.8-3.8-1.8-4.7-3.6-.9-1.7-.9-3.9-.3-5.9.6-2.1 1.7-3.9 3-5.8 2.6-3.6 5.8-6.9 8.3-10.9.6-1 1.2-2.1 1.6-3.1.4-1.1.8-2.2 1-3.4.5-2.3.5-4.8-.2-7.1-.4-1.2-.9-2.2-1.6-3.2l-.6-.7-.6-.6c-.4-.4-.9-.8-1.4-1.1-2.1-1.2-4.4-1.7-6.8-1.7-4.7-.1-9.1 1.6-13.6 1.5-2.2-.1-4.5-.6-6.2-1.9-.8-.7-1.5-1.5-1.9-2.5-.3-1-.4-2.1-.2-3.1.3-2.1 1.5-4 2.8-5.9 1.2-1.9 2.7-3.8 3.3-6.2.3-1.2.4-2.4.4-3.7-.1-1.2-.4-2.4-.8-3.6-.8-2.3-2.3-4.3-4.1-5.9-1.8-1.6-4.1-2.7-6.4-3.3-2.3-.6-4.8-.6-7.1-.3-4.7.6-9.1 2.7-12.8 5.4-3.7 2.7-6.9 6-10 9.4l.1.1c3.4-3.1 6.7-6.2 10.5-8.7 1.9-1.2 3.8-2.3 5.9-3.2 2.1-.8 4.2-1.3 6.4-1.6 4.3-.5 8.9.5 12.1 3.4.8.7 1.5 1.5 2.1 2.4.6.9 1.1 1.8 1.5 2.8.8 2 1 4.2.5 6.2s-1.7 3.9-2.9 5.9c-1.2 1.9-2.4 4.1-2.7 6.5-.2 1.2 0 2.5.4 3.6.5 1.1 1.3 2.1 2.3 2.8 2 1.4 4.4 1.8 6.7 1.9 4.7 0 9.1-1.6 13.6-1.4 2.2.1 4.5.5 6.3 1.7.4.3.9.6 1.3 1l.6.6.5.6c.6.9 1.1 1.9 1.3 2.9.5 2.1.4 4.3-.1 6.5-.5 2.1-1.4 4.1-2.7 6-2.4 3.7-5.7 6.9-8.5 10.7-1.4 1.9-2.6 3.9-3.4 6.3-.4 1.2-.6 2.4-.6 3.7 0 1.3.3 2.6.9 3.8.6 1.2 1.5 2.2 2.6 2.9 1 .7 2.2 1.3 3.3 1.7 2.2.8 4.5 1.3 6.5 2.1s3.9 2 4.8 3.7c.4.8.6 1.8.5 2.7s-.6 1.8-1.2 2.6c-1.3 1.6-3.2 2.7-5.2 3.9-1 .6-2 1.2-2.9 2-.9.8-1.8 1.8-2.3 2.9-.6 1.1-.9 2.4-.8 3.7.1.7.3 1.3.6 1.9.4.6.8 1.1 1.3 1.5 2 1.6 4.4 2 6.1 3.2.9.6 1.5 1.4 1.7 2.4s0 2.1-.4 3.1c-.9 2-2.9 3.4-4.8 4.6l.1.2c1.9-1.1 4-2.4 5.2-4.5.6-1.1.9-2.3.7-3.5-.2-1.3-1-2.4-1.9-3.1-1.9-1.5-4.3-2-5.8-3.4-.8-.7-1.2-1.5-1.3-2.5-.1-.9.2-2 .7-2.9 1-1.8 2.8-3 4.8-4.1 1-.6 2-1.1 3-1.8s2-1.5 2.8-2.4c.8-1 1.5-2.1 1.7-3.5.2-1.3 0-2.8-.6-4-.7-1.1-1.6-2.1-2.6-2.8zM67.1 56.3c1.1-.8 2.4-1.5 3.7-2.1 2.6-1.2 5.5-1.8 8.3-2.6v-.2c-2.9.4-5.8.8-8.7 1.8-2.8 1-5.6 2.6-7.4 5.2-.9 1.2-1.6 2.7-2 4.2-.3 1.5-.3 3.2.2 4.8.5 1.5 1.4 2.9 2.3 4.1.9 1.2 2 2.2 3 3.3 1 1 2 2.1 2.8 3.2.8 1.1 1.4 2.4 1.5 3.7.2 1.3-.2 2.7-.9 3.9-.7 1.2-1.8 2.2-2.9 3.1-2.3 1.7-5.1 2.8-7.5 4.6-1.2.9-2.3 1.9-3.1 3.2-.8 1.3-1.4 2.8-1.2 4.4.1 1.6 1 3.2 2.1 4.2 1.1 1.1 2.5 1.9 3.7 2.6 1.3.8 2.5 1.5 3.5 2.4.3.2.4.5.7.7.2.2.4.5.5.8.2.5.4 1.1.4 1.7 0 1.2-.6 2.3-1.5 3.2-.9.9-2.1 1.7-3.3 2.3-.6.3-1.2.6-1.9.9-.7.3-1.4.7-2 1.1-1.3.8-2.6 1.8-3.6 3.2-.5.7-.9 1.5-1.1 2.4-.2.9-.1 1.8.1 2.7.5 1.8 1.8 2.9 2.9 3.9 1.1 1 2.1 1.9 2.7 3 .6 1.1.7 2.4.5 3.7-.4 2.7-2.1 5.3-2.3 8.5 0 .8.1 1.6.3 2.3.3.8.8 1.4 1.4 1.9.6.5 1.3.9 2.1 1 .8.2 1.6 0 2.2-.5l-.1-.2c-1.3.7-2.8.1-3.7-.9-.5-.5-.8-1.1-1-1.7-.2-.6-.2-1.3-.1-2 .3-2.8 2.1-5.2 2.8-8.2.4-1.5.4-3.3-.4-4.9-.8-1.5-2-2.6-3-3.6s-1.9-2-2.2-3.1c-.3-1.1 0-2.2.7-3.2s1.8-1.9 3-2.6c.6-.4 1.2-.7 1.8-1 .6-.3 1.3-.7 2-1 1.3-.7 2.6-1.6 3.8-2.8.6-.6 1.1-1.2 1.5-2 .4-.8.6-1.7.6-2.6 0-.9-.3-1.7-.7-2.5-.2-.4-.5-.7-.7-1.1l-.9-.9c-1.2-1-2.6-1.7-3.9-2.4s-2.5-1.4-3.6-2.2c-1-.9-1.8-2-1.9-3.3-.2-1.3.2-2.7.9-3.9.7-1.2 1.7-2.3 2.8-3.1 2.3-1.8 5-2.8 7.5-4.6 1.2-.9 2.3-1.9 3.2-3.2.9-1.2 1.4-2.8 1.4-4.4 0-1.6-.7-3.1-1.5-4.4-.8-1.3-1.8-2.4-2.8-3.6-2-2.2-4-4.2-4.9-6.8-.9-2.5-.2-5.3 1.3-7.6.6-.9 1.5-1.9 2.6-2.8zM53 147.5c-.5-1.4-.5-2.9-.2-4.4.2-1.5.5-3.1.4-4.7-.1-.8-.3-1.7-.7-2.5-.4-.8-1.1-1.5-1.8-1.9-1.4-1-2.8-1.5-3.8-2.4-1-.8-1.3-2-1-3.3.3-1.2 1-2.4 2-3.3 1-.9 2.3-1.7 3.6-2.5.7-.4 1.3-.9 2-1.4.7-.5 1.3-1.1 1.8-1.8 1.1-1.3 2-3 1.8-5-.1-1-.4-1.8-.9-2.6s-1.2-1.4-1.9-1.9c-1.4-1-2.8-1.6-4.2-2.3-1.3-.7-2.6-1.4-3.5-2.4-.9-1-1.3-2.3-1.3-3.7 0-1.4.4-2.8 1.1-4.1.7-1.3 1.6-2.4 2.7-3.4 2.2-2.1 4.8-3.8 7-6.1 1.1-1.2 2-2.4 2.6-3.9.7-1.4 1-3.1.7-4.7-.2-1.6-1.1-3.1-2.1-4.2-1-1-2.1-2-3.3-3-1.2-1-2.3-2-3.1-3.2-.8-1.2-1.4-2.5-1.7-3.8-.5-2.8.3-5.7 1.8-8.2 1.5-2.5 3.7-4.5 6.3-5.8 2.7-1.3 5.6-2 8.6-2.2 3-.3 6.1-.2 9.1 0v-.2c-3-.5-6.1-.9-9.2-.8-3.1 0-6.3.6-9.2 1.9-1.5.6-2.9 1.5-4.1 2.5-1.2 1.1-2.3 2.3-3.1 3.7-1.7 2.8-2.6 6.1-1.9 9.4.3 1.6 1.2 3.2 2.2 4.4 1.1 1.2 2.3 2.2 3.5 3.2 1.2.9 2.4 1.8 3.5 2.9 1 1.1 1.8 2.3 2.1 3.8.2 1.4 0 3-.6 4.3-.6 1.3-1.5 2.6-2.6 3.7-2.1 2.2-4.8 3.7-7.2 5.7-2.4 2-4.5 4.8-4.7 8.3-.1 1.7.4 3.5 1.6 4.8 1.1 1.3 2.6 2.2 4 2.9 1.4.7 2.8 1.4 3.9 2.2.5.4 1 .9 1.3 1.4.3.5.5 1.1.5 1.7.1 1.2-.5 2.4-1.4 3.5-.8 1.1-2 1.9-3.3 2.7-1.3.8-2.6 1.7-3.9 2.8-1.2 1.2-2.2 2.7-2.5 4.5-.2.9-.1 1.8.2 2.8s.9 1.7 1.6 2.2c1.4 1.1 2.9 1.5 4.1 2.3 1.2.7 1.8 1.9 2 3.3.2 1.4 0 2.9-.1 4.5-.2 1.6 0 3.2.6 4.7.3.7.8 1.4 1.4 2 .6.5 1.5.8 2.2.7v-.2c-1.4-.2-2.5-1.5-2.9-2.9zm111.2-22c.7-1.1 1.2-2.3 1.6-3.6.3-1.3.4-2.6.2-4s-.9-2.7-2-3.7-2.4-1.5-3.7-1.8c-1.3-.3-2.6-.4-3.8-.6-1.2-.1-2.4-.3-3.4-.6s-1.9-.9-2.4-1.7c-1.1-1.6-.8-4.1.2-5.9 1.1-1.9 2.8-3.6 4.5-5.4s3.3-3.7 4.8-5.7c3-4 5.5-8.6 6.2-13.7.7-5.1-.5-10.5-3.9-14.5-.8-1-1.8-1.9-2.9-2.6-1.1-.7-2.3-1.3-3.6-1.6-2.5-.7-5.1-.6-7.6-.1-5 .9-9.3 3.5-13.9 5-2.3.7-4.7 1.4-7.1 1-1.2-.2-2.2-.9-2.9-1.8-.7-.9-1-2.1-1.2-3.3-.2-2.4.7-4.7 1.6-7 .9-2.3 1.5-4.8 1.7-7.3.4-5-.7-10.2-3.6-14.5-3-4.2-7.8-7-12.8-7.9-5-1-10.2-.5-14.9 1.4-4.7 1.9-8.8 5-12.1 8.7-3.4 3.7-6.1 7.9-8.2 12.3l.2.1c2.5-4.2 5.3-8.2 8.8-11.7 3.4-3.5 7.5-6.2 11.9-8 4.5-1.7 9.4-2.1 14-1.1 2.3.5 4.6 1.3 6.6 2.5s3.8 2.8 5.2 4.7c2.8 3.8 4.1 8.6 3.9 13.4-.1 2.4-.6 4.8-1.4 7.1-.8 2.3-1.7 4.7-1.4 7.3.1 1.3.5 2.5 1.3 3.6s2 1.8 3.2 2c2.6.5 5.1-.2 7.4-.9 4.7-1.5 9.1-3.8 13.9-4.5 2.4-.4 4.8-.3 7 .3 1.1.3 2.1.9 3.1 1.5.9.7 1.8 1.5 2.5 2.4 2.9 3.7 3.9 8.7 3.2 13.2-.7 4.7-3.1 8.9-6.1 12.7-1.5 1.9-3.1 3.7-4.7 5.5-1.6 1.8-3.5 3.5-4.9 5.9-.6 1.2-1.1 2.6-1.1 4-.1 1.4.2 2.9 1.1 4.1.9 1.2 2.2 2.1 3.5 2.5 1.3.4 2.6.5 3.8.6 2.4.2 4.9.3 6.4 1.8.8.7 1.3 1.6 1.5 2.7.2 1.1.1 2.2-.1 3.3-.3 1.1-.7 2.2-1.3 3.2-.6 1-1.4 1.9-2.1 2.8-1.6 1.8-3.5 3.4-5.1 5.4-.8 1-1.5 2-2 3.2-.5 1.2-.8 2.4-.8 3.7s.2 2.6.7 3.7c.6 1.1 1.5 2.1 2.7 2.6l.1-.2c-1.1-.6-1.9-1.5-2.3-2.6-.4-1.1-.6-2.3-.5-3.5.1-1.2.4-2.4.9-3.4s1.2-2 2-2.9c1.6-1.8 3.5-3.3 5.3-5.1 1.3-.9 2.1-1.9 2.8-3zM67.4 40.7c-.5-2.8-.7-5.6-.2-8.2.1-.6.3-1.3.6-1.9.2-.6.5-1.2.8-1.8.7-1.1 1.6-2.1 2.6-2.9 1-.8 2.2-1.4 3.5-1.7.7-.1 1.3-.1 2-.1.7.1 1.3.3 2 .5 1.3.4 2.7 1 4.2 1 .8 0 1.5-.3 2.2-.7.2-.1.3-.2.5-.3l.4-.4c.3-.2.5-.6.8-.9.9-1.2 1.5-2.6 2-3.9.6-1.3 1.1-2.5 1.9-3.4.4-.4.8-.7 1.3-.9.5-.2 1-.2 1.6 0 1.1.3 2.2 1 3.4 1.8.6.4 1.2.8 2 1.1.7.3 1.5.6 2.4.6.9.1 1.7-.1 2.5-.4.7-.3 1.4-.6 2-1l1.8-1.1c.6-.3 1.2-.6 1.8-.8 1.2-.3 2.7-.4 3.7.7l.2-.1c-.4-.6-1-1.1-1.8-1.4-.7-.2-1.5-.3-2.3-.2s-1.5.3-2.2.6c-.7.3-1.3.6-1.9.9-1.2.6-2.5 1-3.6.9-1.1-.1-2.2-.8-3.3-1.6-1.2-.7-2.4-1.7-4.1-2.1-1.7-.4-3.7.4-4.8 1.7-2 2.6-2.2 5.6-3.5 7.9-.6 1.1-1.7 2.1-3 2.2-1.3.1-2.7-.4-4-.9-1.3-.5-2.8-1-4.3-.9-1.5.1-3 .6-4.3 1.4-1.3.8-2.4 2-3.1 3.3-.8 1.4-1.2 2.8-1.4 4.3-.3 3 .3 5.9 1.5 8.5l.1.2zM22.1 81.4c-1.4-.9-2.3-2.4-2.6-3.9-.3-1.5.4-3.1 1.4-4.2.5-.5 1.1-1 1.8-1.2.7-.3 1.5-.4 2.3-.5 1.6-.2 4-.8 5-3.1.2-.6.3-1.2.2-1.8-.1-.6-.4-1.2-.7-1.6-.6-.8-1.4-1.4-1.9-1.9s-.9-1.1-1.2-1.8c-.3-.7-.4-1.4-.5-2.2-.1-1.5.4-3 1.2-4.3.4-.6 1-1.2 1.6-1.6.6-.4 1.4-.7 2.2-1 1.6-.5 3.3-.8 4.9-1.2 1.7-.4 3.4-1.2 4.5-2.8 1-1.5 1.2-3.4 1.9-4.8s1.9-2.5 3.3-3.3c1.4-.8 2.9-1.4 4.4-1.7s3.2-.3 4.8-.1c3.3.4 6.5 1.5 9.8 2.5l.1-.2c-3-1.6-6.1-3.2-9.6-3.8-3.4-.7-7.4-.2-10.4 1.9-1.5 1.1-2.7 2.5-3.4 4.2-.7 1.7-.6 3.5-1.5 4.9-.8 1.4-2.4 2.1-4.1 2.4-1.6.4-3.3.4-5.1.8-.9.2-1.7.5-2.6.9-.9.4-1.6 1.1-2.2 1.8-1.2 1.5-1.8 3.4-1.8 5.3 0 1 .1 1.9.5 2.8.3.9.9 1.8 1.5 2.5s1.3 1.2 1.7 1.7c.4.5.4.9.3 1.4-.2.5-.7 1-1.3 1.3-.6.3-1.3.5-2.1.7s-1.6.5-2.5.9c-.9.4-1.7 1.1-2.3 1.8-1.2 1.5-1.7 3.6-1.1 5.4.5 1.8 1.8 3.3 3.5 3.9v-.1zM51.5 171c-.9.2-1.8-.1-2.6-.6-1.5-1.1-2.2-3-3.1-4.7-.5-.9-1.1-1.8-1.9-2.5-.8-.7-1.9-1.1-2.9-1.4-2.1-.4-4.1-.3-5.9-.5-.9-.1-1.8-.3-2.4-.8-.6-.4-1.1-1.1-1.3-1.9-.3-1.5.4-3.4 1.3-4.9 1-1.6 2.2-3.3 2.7-5.5.3-1.1.3-2.3-.1-3.5-.4-1.1-1.1-2.1-1.9-2.9-1.7-1.5-3.6-2.2-5.3-3.1-1.7-.8-3.4-1.7-4.4-3-1.1-1.3-1.4-3-.9-4.7.4-1.7 1.4-3.3 2.6-4.6 2.6-2.7 6.3-4.4 9.1-7.5 1.3-1.6 2.5-3.4 2.8-5.5.2-1.1.1-2.2-.2-3.2-.3-1-.9-2-1.6-2.8-2.8-3.1-7-4.1-9.4-7-1.2-1.4-1.9-3.3-1.8-5.2 0-1.9.6-3.8 1.6-5.4 1-1.6 2.4-3 3.9-4.2 1.5-1.2 3.2-2.2 4.9-3.1 1.7-1 3.4-2 4.9-3.5.7-.7 1.4-1.6 1.8-2.7.4-1 .6-2.2.5-3.3-.3-2.2-1.5-4-2.4-5.7-1-1.7-1.5-3.3-1.6-5.1-.1-3.6 1.7-7.2 4.3-9.9 2.6-2.7 6.2-4.3 9.9-5.3s7.7-1.4 11.5-1.8V45c-3.9.1-7.9.2-11.8 1-2 .4-3.9 1-5.7 1.8-1.8.8-3.6 1.9-5.1 3.4-1.5 1.4-2.7 3.1-3.6 5-.9 1.9-1.4 4-1.4 6.1 0 2.1.8 4.2 1.9 6 1 1.7 2.1 3.3 2.3 5 .3 1.7-.4 3.4-1.6 4.8-1.2 1.4-2.8 2.5-4.5 3.5-3.3 2.1-6.7 4.4-8.8 7.9-1 1.7-1.6 3.7-1.7 5.7-.1 2 .6 4.1 1.9 5.7 2.7 3.1 6.8 4.4 9.1 7.2.6.7 1 1.5 1.2 2.4.2.8.2 1.8 0 2.6-.4 1.8-1.4 3.4-2.6 4.7-2.5 2.7-6.2 4.3-9.2 7.2-1.5 1.5-2.7 3.3-3.2 5.4-.3 1.1-.4 2.2-.2 3.3.2 1.1.7 2.2 1.4 3.1.7.9 1.6 1.6 2.5 2.2.9.6 1.8 1 2.7 1.5 1.8.9 3.5 1.6 4.9 2.8 1.3 1.1 1.9 2.6 1.5 4.2-.4 1.6-1.4 3.2-2.4 5-.5.9-.9 1.9-1.2 2.9-.3 1-.4 2.2-.1 3.4.3 1.2 1 2.2 2 2.8 1 .6 2.1.9 3.2 1 2.1.2 4-.1 5.8.2.9.1 1.7.5 2.4 1s1.2 1.3 1.8 2.1c1 1.6 1.9 3.6 3.6 4.8.4.3.9.5 1.5.6.5.1 1.1.1 1.6-.1 1-.2 2-1 2.1-2.1h-.2c-.4 1.2-1.3 1.8-2.2 1.9zm132.9-92c-.4-.8-1.1-1.4-1.7-1.9-1.3-1-2.6-1.7-3.7-2.4-1.1-.8-1.8-1.7-2.1-2.9-.3-1.2-.2-2.5 0-3.9.4-2.8 1.6-5.6 1.6-8.8 0-3.2-1.2-6.2-2.9-8.7-1.8-2.5-4.2-4.4-7-5.7-2.8-1.2-5.7-1.8-8.7-1.8-3-.1-5.9.3-8.8 1.1-2.8.8-5.6 1.7-8.4 1.9-1.4.1-2.8-.1-4-.5-1.2-.5-2.3-1.3-3.1-2.4-1.7-2.1-2.5-4.9-3.1-7.7-.6-2.8-1.1-5.8-2.6-8.6-3-5.6-10.3-7.9-15.8-5.5l.1.2c5.6-1.7 11.9 1.1 14.3 6 1.2 2.5 1.6 5.3 2.2 8.2.6 2.9 1.5 5.9 3.5 8.4 1 1.2 2.4 2.2 3.9 2.6 1.5.5 3.1.6 4.6.3 3-.4 5.7-1.6 8.5-2.4 2.8-.8 5.7-1.2 8.6-1 2.9.1 5.7.9 8.2 2.2s4.6 3.3 6.2 5.6c1.5 2.3 2.4 5 2.4 7.8 0 2.7-1.2 5.4-1.8 8.4-.3 1.5-.5 3.1 0 4.8.2.8.6 1.6 1.1 2.3.5.7 1.2 1.3 1.8 1.7 1.3.9 2.6 1.5 3.6 2.3 1 .8 1.6 1.8 1.7 3 .1 1.2-.3 2.5-1 3.6-.6 1.1-1.6 2.2-2.6 3.2s-2.1 2.1-2.9 3.4c-.8 1.3-1.5 2.8-1.6 4.3 0 .8.1 1.6.4 2.3.3.8.9 1.4 1.5 1.8.6.5 1.4.8 2.1.8.8.1 1.6-.2 2.2-.7l-.1-.2c-1.2.8-2.8.4-3.8-.5-.5-.4-.9-1-1.1-1.6-.2-.6-.2-1.3-.2-2 .2-1.3.8-2.6 1.6-3.7s1.9-2.1 2.9-3.1c1.1-1 2.1-2.1 3-3.4.8-1.3 1.4-2.9 1.4-4.7.2-.4 0-1.3-.4-2.1zM138 25.7c1.1 1.5 2 3.5 3.5 4.9.8.7 1.7 1.3 2.8 1.5 1.1.2 2.2-.1 3.1-.7.9-.6 1.7-1.3 2.4-2s1.4-1.3 2.1-1.7c.7-.4 1.5-.6 2.1-.4.6.2 1.1.7 1.6 1.5.6.7 1 1.8 2.1 2.5.5.4 1.2.7 1.9.7s1.3-.2 1.9-.5c1.1-.6 1.8-1.6 2.1-2.7.3-1 .4-2.1.4-3.1h-.2c-.3 1-.6 1.9-1.1 2.7-.5.8-1.1 1.4-1.8 1.6-.8.3-1.4.1-1.9-.3-.5-.5-.9-1.3-1.5-2.2-.3-.5-.6-.9-1.1-1.4s-1.1-.8-1.7-1c-1.4-.3-2.7.2-3.6.8-.9.6-1.7 1.4-2.3 2.2-.6.8-1.2 1.5-1.9 2.1-.7.6-1.5 1-2.4 1-.9 0-1.8-.6-2.4-1.3-1.3-1.4-1.6-3.4-2.6-5.3-2.1-3.9-7.4-5.6-11.1-3.8l.1.2c3.8-.1 7.5 1.7 9.5 4.7zm39.2 109.1c-.8-.9-1.6-1.7-2.2-2.5-.3-.4-.6-.9-.8-1.4l-.2-.7c-.1-.2-.1-.5-.1-.8-.1-1 0-2.2.3-3.2.6-2.2 1.7-4.3 2.5-6.5.4-1.1.7-2.3.8-3.5.1-1.2-.1-2.4-.6-3.6-.9-2.3-2.8-4-4.4-5.6-1.6-1.6-3.3-3.3-4-5.3-.7-2-.5-4.2.3-6.2.7-2.1 1.8-4.1 2.9-6.2 1.1-2.1 1.9-4.4 2.2-6.9.1-1.2.1-2.5-.3-3.6-.3-1.2-1-2.3-1.9-3l-.1.1c.7.9 1.2 1.9 1.4 3.1.2 1.1.1 2.2-.1 3.3-.4 2.2-1.4 4.3-2.5 6.3-1.2 2-2.4 4.1-3.2 6.4-.4 1.2-.7 2.4-.8 3.7-.1 1.3.1 2.6.6 3.8 2.2 4.8 7.4 6.3 9.3 10.5.4 1 .6 2.2.5 3.3-.1 1.1-.4 2.2-.9 3.3-.8 2.2-2.1 4.2-2.9 6.4-.4 1.1-.7 2.4-.6 3.7 0 1.3.5 2.6 1.2 3.7 1.4 2.1 3.3 3.6 4 5.5.4.9.4 1.9 0 2.6-.4.8-1.2 1.4-2.1 1.9-1 .6-2.1 1.2-3 2.4-.9 1.1-1.3 2.7-1.1 4.1.3 2.6 1.5 4.7 1.8 6.8.3 2.1-.1 4.3-1.1 6.2-1.9 3.9-6.8 6.2-11.4 5.3l-.1.2c2.2.8 4.8.7 7.1-.1 2.3-.8 4.4-2.4 5.7-4.6 1.3-2.1 1.9-4.7 1.7-7.2-.1-1.3-.5-2.5-.9-3.6-.3-1.1-.7-2.2-.7-3.2-.1-1 .1-1.8.6-2.5s1.5-1.3 2.5-1.9c1-.6 2.2-1.4 2.8-2.9.7-1.4.4-3-.1-4.2-.5-1.5-1.3-2.5-2.1-3.4z" fill="#cfb89a" stroke-width="none" opacity="1" stroke="none"></path></g><g id="svga-group-glasses-single-move" transform="matrix(1,0,0,1,0,0)"><g id="svga-group-glasses-single" transform="matrix(1,0,0,1,0,0)"></g></g></g></g></g><rect id="svga-credit-rect" width="200" height="15" x="0" y="185" fill="#ecf0f1" opacity="0.5" style="display: none;"></rect><text id="svga-credit-text" font-family="Avenir Next, Roboto, Helvetica, Arial, sans-serif" font-size="10px" text-anchor="start" font-weight="400" size="10px" anchor="start" weight="400" fill="#333333" x="33.40447998046875" y="182.60824704170227" style="display: none;"><tspan id="SvgjsTspan29195" dy="13" x="33.40447998046875">Created on AvatarMaker.com</tspan></text></g></svg>