<svg xmlns="http://www.w3.org/2000/svg" version="1.1" width="600px" height="600px" viewBox="0 0 200 200" style="overflow:hidden!important;"><defs id="SvgjsDefs23661"></defs><g id="svga-group-wrapper"><g id="svga-group-backs-single"><path id="SvgjsPath24513" d="M0 151.2s23.5-5.1 41.7 13.1S59.6 192.1 87 200H0v-48.8z" fill="#ff0000" stroke-width="none" opacity="1"></path><path id="SvgjsPath24514" d="M133.6 180.5c-23.4-5.2-55.2-7.3-78.3-46.1S0 100 0 100v51.2s23.5-5.1 41.7 13.1S59.6 192.1 87 200h80.9s-10.9-14.4-34.3-19.5z" fill="#ff6700" stroke-width="none" opacity="1"></path><path id="SvgjsPath24515" d="M170.8 156c-37.1 6.4-73.1-10.7-84.6-38.1-17-40.6-35.4-62.5-53.5-65-17.9-2.5-32.8 0-32.8 0V100s32.3-4.5 55.3 34.4 54.9 41 78.3 46.1 34.3 19.5 34.3 19.5H200v-50.1s-13.7 3.4-29.2 6.1z" fill="#ffb600" stroke-width="none" opacity="1"></path><path id="SvgjsPath24516" d="M149.1 124.2c-28.7-13.4-33-30-37.2-43.8-4.2-13.7-16.3-50-45.7-65.3S0 8 0 8v45s14.9-2.5 32.8 0c18.1 2.5 36.4 24.5 53.5 65 11.5 27.4 47.5 44.5 84.6 38.1 15.5-2.7 29.2-6.1 29.2-6.1v-14.3c-.1-.1-22.3 1.9-51-11.5z" fill="#378c00" stroke-width="none" opacity="1"></path><path id="SvgjsPath24517" d="M170.3 103c-17.6-9.8-25.8-29.7-34.3-63.3C127.5 6 100 0 100 0H0v8s36.8-8.2 66.1 7.2 41.5 51.6 45.7 65.3 8.5 30.4 37.2 43.8c28.7 13.4 50.9 11.4 50.9 11.4v-21.2c.1-.1-12-1.7-29.6-11.5z" fill="#00b1ba" stroke-width="none" opacity="1"></path><path id="SvgjsPath24518" d="M166.1 37.8C152.1 27.3 149.9 0 149.9 0H100s27.5 6 36 39.6 16.6 53.5 34.3 63.3 29.7 11.4 29.7 11.4V61.1s-19.8-12.9-33.9-23.3z" fill="#0530e2" stroke-width="none" opacity="1"></path><path id="SvgjsPath24519" d="M149.9 0s2.1 27.3 16.2 37.8S200 61.1 200 61.1V0h-50.1z" fill="#8900ea" stroke-width="none" opacity="1"></path><path id="SvgjsPath24520" d="M74.2 196.2c-2.6-1.1-5-2.4-7.4-3.9l-1.7-1.2c-.6-.4-1.1-.9-1.7-1.3-.5-.4-1.1-.9-1.7-1.3-.5-.5-1-.9-1.6-1.4-.5-.5-1.1-.9-1.6-1.4l-1.5-1.5c-1-1-2-2.1-3-3.1-3.9-4.4-7.2-9.2-10.5-14.1-1.7-2.4-3.2-5-5.1-7.4-.5-.6-.9-1.2-1.4-1.8-.5-.6-1-1.2-1.6-1.8l-.8-.8-.9-.8c-.6-.5-1.3-1-1.9-1.4-2.7-1.7-5.7-2.9-8.7-3.6s-6.1-1-9.2-1c-3.1 0-6.1.3-9 .9-1.7.3-3.3.7-5 1.2v1.6c4.7-.2 9.3-.2 13.8.2 2.8.3 5.6.7 8.3 1.4 2.7.7 5.2 1.7 7.7 2.9 1.2.6 2.4 1.3 3.5 2.1.6.4 1.1.8 1.6 1.3.5.4 1 1 1.6 1.5 2.1 2 4 4.2 5.8 6.5 3.5 4.7 6.4 9.8 9.7 14.8 1.7 2.5 3.4 5 5.4 7.3.5.6 1 1.1 1.5 1.7s1.1 1.1 1.7 1.6c.6.5 1.1 1.1 1.7 1.5l1.8 1.4c1.9 1.5 3.9 2.7 6 3.9h14.6c-.9-.3-1.7-.6-2.6-.9-2.6-1.1-5.2-2-7.8-3.1zm82.6-11.6c-.5-.3-1.1-.6-1.6-.9l-1.6-.8c-1.1-.5-2.2-1.1-3.3-1.6l-3.4-1.4c-1.1-.5-2.3-.9-3.4-1.3-4.6-1.7-9.3-3-14-4-2.4-.6-4.8-.9-7.1-1.3-2.4-.3-4.8-.7-7.2-.9-2.4-.3-4.8-.5-7.2-.7-1.2-.1-2.3-.2-3.4-.3-1.1-.2-2.2-.3-3.3-.6-8.8-1.9-17.1-6.4-24.4-12.2-7.3-5.8-13.6-13.1-19-20.9-2.7-3.9-5.1-8-7.4-12.1-1.2-2.1-2.3-4.2-3.4-6.2l-1.7-3.1c-.6-1.1-1.2-2.2-1.9-3.2-2.8-4.1-6.3-7.9-10.4-10.7-2-1.5-4.2-2.7-6.4-3.8-2.2-1.1-4.6-1.9-6.9-2.7-2.4-.8-4.8-1.2-7.2-1.6-2.4-.4-4.8-.6-7.3-.7-1.8 0-3.5 0-5.3.1v2c6.4.5 12.6 1.7 18.5 3.8 2.1.8 4.2 1.7 6.2 2.8 2 1.1 4 2.2 5.8 3.6.9.6 1.8 1.4 2.6 2.1.8.8 1.7 1.5 2.5 2.3l1.2 1.2 1.1 1.3c.8.8 1.4 1.7 2.2 2.6.7.9 1.3 1.8 2 2.8.7 1 1.3 2 2 3 1.4 2 2.7 3.9 4.1 5.9 2.8 3.9 5.6 7.8 8.5 11.6 5.7 7.7 11.5 15.2 18.5 22 3.5 3.4 7.3 6.5 11.5 9s8.8 4.5 13.7 5.7c1.2.3 2.4.5 3.7.8 1.2.2 2.5.4 3.7.5 2.3.3 4.7.6 7 .9 2.3.3 4.6.7 7 1.1 2.3.4 4.6.8 6.9 1.3 9.2 1.8 18.1 4.4 26.5 8.3 4.2 1.9 8.2 4.3 12.1 6.9l2.9 2c.9.7 1.8 1.5 2.8 2.2l.9.7h1.9c-5.5-6.2-11.9-11.5-19-15.5zm-6.8-28.8c-5.6-.1-11.3-.7-16.8-1.7-5.5-1.1-10.8-2.7-15.9-5.1-10-4.9-18.3-12.8-24.3-22.6-1.5-2.4-3-4.9-4.3-7.4-1.4-2.5-2.7-5.1-4-7.7-2.5-5.2-4.9-10.5-7.3-15.8-1.2-2.6-2.4-5.3-3.7-7.9-1.2-2.6-2.5-5.2-3.9-7.8-2.8-5.2-6-10.2-9.9-14.7-4-4.5-8.7-8.4-14.1-11.2-5.3-2.9-11.1-4.8-17-5.8-.7-.1-1.5-.3-2.2-.4l-2.2-.2-2.2-.2h-4.4l-2.2.1c-1.5 0-3 .2-4.4.4-.7.1-1.5.2-2.2.3l-2.2.4c-1.4.3-2.9.6-4.3 1.1-.8.2-1.7.5-2.5.8v1.5c9.4-1.9 19-1.9 28.2.2 1.4.3 2.7.6 4 1.1l2 .6 1 .3 1 .4c1.3.5 2.6 1 3.9 1.6l3.7 1.9c.6.3 1.2.7 1.8 1 .6.4 1.2.7 1.8 1.1l1.6.9 1.7 1.2c2.2 1.7 4.3 3.6 6.2 5.6 7.9 8 14 17.9 19.1 28.3 2.5 5.2 4.9 10.5 7.2 15.8 2.4 5.3 4.7 10.6 7.5 15.8 2.7 5.2 6 10.3 10.2 14.6 4.1 4.4 9 8 14.4 10.8 10.7 5.6 22.9 7.9 34.7 8 11.9 0 23.6-1.8 34.9-5 5.1-1.5 10.2-3.2 15.1-5.2v-2.8c-5.3 1.6-10.7 3.1-16.1 4.2-11.2 2.3-22.6 3.6-33.9 3.5zm41.1-20.2-2.1-.1-2.1-.1c-.7 0-1.4-.1-2.1-.2-2.9-.2-5.6-.7-8.5-1.1-2.8-.6-5.6-1.1-8.3-2-2.8-.7-5.4-1.7-8.1-2.6-1.3-.5-2.6-1.1-3.9-1.7-1.3-.6-2.6-1-3.9-1.7-2.5-1.3-5.1-2.5-7.5-3.9-1.2-.7-2.4-1.5-3.6-2.2-1.1-.8-2.4-1.6-3.5-2.4-2.3-1.7-4.4-3.5-6.5-5.5-4.1-4-7.6-8.5-10.6-13.5-2.9-5-5.2-10.3-7.2-15.7-2-5.4-3.5-11-5.2-16.6-.8-2.8-1.7-5.6-2.6-8.4-.9-2.8-1.9-5.6-3-8.3-1.1-2.7-2.4-5.5-3.8-8.1-1.4-2.6-2.9-5.2-4.5-7.7-1.7-2.5-3.4-4.9-5.3-7.2s-4-4.5-6.2-6.6c-4.4-4.1-9.6-7.5-15.1-10.1C61.8 7.3 56 5.5 50 4.6c-5.9-.9-11.9-1.1-17.8-.8-3 .1-5.9.4-8.8.8-1.5.2-2.9.4-4.4.7l-4.3.8c-2.9.7-5.7 1.3-8.6 2.1-2 .6-4.1 1.2-6.1 1.9v.8C10.7 9 21.5 7.6 32.3 7.8c5.7 0 11.4.5 16.9 1.6 5.5 1.1 10.9 2.8 15.9 5.2 2.5 1.2 4.9 2.5 7.2 4.1 2.3 1.6 4.5 3.2 6.6 5.1 4.2 3.7 7.9 8 11.2 12.6 3.2 4.7 6.2 9.6 8.6 14.7 2.4 5.2 4.6 10.5 6.6 16 2 5.4 4.1 10.9 6.2 16.3 1.1 2.7 2.2 5.4 3.4 8.1.6 1.3 1.3 2.6 1.9 4 .7 1.3 1.3 2.6 2.1 3.9 1.4 2.6 2.9 5.1 4.6 7.5 1.6 2.5 3.5 4.8 5.4 7.1 3.9 4.5 8.4 8.6 13.4 11.8 2.5 1.7 5.1 3 7.8 4.4 1.3.7 2.7 1.2 4.1 1.9 1.4.6 2.7 1.2 4.1 1.7 5.6 2 11.4 3.5 17.3 4.3 3 .3 5.9.6 8.9.7.7 0 1.5.1 2.2.1l2.2-.1 2.2-.1 2.2-.2c2.2-.2 4.5-.5 6.7-.9v-2c-2.3.2-4.5.2-6.8.2l-2.1-.2zM118.9 6.8c1.3 1.3 2.5 2.7 3.6 4.1 2.2 2.9 4.4 5.9 6.3 9 1.9 3.1 3.6 6.4 5 9.8l1 2.6c.3.9.5 1.8.8 2.7.3.9.4 1.8.6 2.7.2.9.4 1.8.6 2.8 1.3 7.5 2.5 15 4.1 22.5.9 3.7 1.7 7.5 3 11.2.3.9.6 1.8 1 2.8l1.1 2.7.6 1.3.7 1.3c.4.9.9 1.8 1.3 2.6 1.9 3.5 4.2 6.8 6.9 9.7 2.7 3 5.8 5.6 9.3 7.7 3.5 2.1 7.4 3.5 11.2 4.4 3.9.9 7.7 1.4 11.6 1.6l2.9.1h2.9c1.9 0 3.8-.1 5.8-.2.3 0 .6-.1.9-.1v-2.4c-4.1-.3-8.1-.8-12.1-1.4-.9-.1-1.8-.3-2.7-.5l-1.4-.2-1.4-.3c-1.8-.3-3.6-.8-5.3-1.3-3.5-1.1-6.7-2.4-9.7-4.3-6.1-3.7-11-9-14.9-15.2-.5-.8-.9-1.6-1.4-2.4l-.7-1.2-.6-1.2-1.2-2.5-1.1-2.5c-.4-.8-.8-1.7-1.1-2.6l-1.1-2.6c-.7-1.7-1.3-3.5-1.9-5.3-2.4-7.1-4.1-14.5-5.1-22-.5-3.8-1-7.6-2-11.4-.9-3.8-2.2-7.5-4-11-1.8-3.5-3.9-6.8-6.5-9.8-1.3-1.5-2.6-2.9-4-4.3-1.4-1.3-2.8-2.6-4.3-3.8h-5.9c1.1.9 2.2 1.9 3.3 2.9 1.4 1.3 2.7 2.6 3.9 4zm32.4-1.4c.2 2.4.4 4.9 1 7.3.2 1.2.6 2.4.8 3.6.4 1.2.7 2.4 1.1 3.5.7 2.3 1.7 4.6 2.8 6.8 1.2 2.2 2.5 4.3 4 6.2.7 1 1.5 1.9 2.3 2.9.4.5.8.9 1.2 1.4s.8.9 1.2 1.4c.9.8 1.7 1.7 2.5 2.6l1.2 1.3 1.2 1.3c.8.9 1.6 1.7 2.4 2.7.8.9 1.7 1.7 2.5 2.6.8.9 1.7 1.7 2.6 2.5.9.8 1.8 1.7 2.8 2.3l3 2.1c1.1.6 2.1 1.2 3.2 1.8 1.1.5 2.2 1 3.4 1.5 1.1.4 2.3.8 3.5 1.2 1.2.3 2.4.7 3.6.9.8.2 1.6.3 2.4.4v-3.1c-1.6-.6-3.1-1.2-4.6-1.9l-3.1-1.5-3.1-1.5c-1-.6-2-1.1-3-1.7-1-.6-2-1.2-3-1.7s-2-1.2-3-1.7-2-1.1-3-1.8c-1-.6-1.9-1.3-2.9-2-.9-.7-1.8-1.5-2.7-2.3-.4-.4-.9-.8-1.3-1.2l-1.2-1.3c-.8-.9-1.6-1.8-2.3-2.7-1.4-1.8-2.6-3.8-3.6-5.9-2-4.2-3.4-8.5-4.6-12.9-1.1-4.4-1.6-9-2.1-13.5-.2-1.7-.3-3.3-.4-5h-5c0 1.8 0 3.6.2 5.4z" fill="#ffffff" stroke-width="none" opacity="1"></path></g><g id="svga-group-humanwrap-move" transform="matrix(1,0,0,1,0,0)"><g id="svga-group-humanwrap" transform="matrix(1,0,0,1,0,0)"><g id="svga-group-hair-back-move" transform="matrix(1,0,0,1,0,0)"><g id="svga-group-hair-back" transform="matrix(1,0,0,1,0,0)"></g></g><g id="svga-group-humanbody-back"><path id="SvgjsPath24058" d="m170 180.3-27.3-6.9-18-9.9-1.5-28.2H76.8l-1.5 28.2-18 9.9-27.3 6.9-9.1 19.7-3 20h164.2l-3-20z" fill="#f6e4e2" stroke-width="none" opacity="1" stroke="none"></path><path id="SvgjsPath24059" d="m76.8 135.3-1.5 28.2-18 9.9-27.3 6.9-9.1 19.7-3 20h14.6v-20l2.7-17.7 23.8-6.4 24.7-8.3 3.5-32.3z" fill="#d7a19b" stroke-width="none" opacity="1" stroke="none"></path></g><g id="svga-group-chinshadow-single"><path id="SvgjsPath24315" d="m123.5 141.7-.3-6.4H76.8l-.8 15.6 4 7.3 17.2 4.3 17.2-4.3z" fill="#c8837c" stroke-width="none" opacity="1" stroke="none"></path></g><g id="svga-group-humanbody-front"><path id="SvgjsPath24060" d="m92.8 168.3 2 7.9 6.9 4.6s-8.5-3-8.7-3.6c-.2-.6-.2-8.9-.2-8.9z" fill="#d7a19b" stroke-width="none" opacity="1" stroke="none"></path></g><g id="svga-group-clothes-single"><path id="SvgjsPath24201" d="m179.8 179.4-4.1-1.2-3.7-3.2-17.2-6.6H45.2L28 175l-3.7 3.2-4.1 1.2-5 16V220H184.8v-24.6z" fill="#cbe9ee" stroke-width="none" opacity="1"></path><path id="SvgjsPath24202" d="M165 217.7v.2-.2zm3.5-26.6-3.1 12.6s-.3 12.2-.4 14c.1-1.8 1.6-13.8 1.6-13.8l3.3-12.2 3.9-10.9-5.3 10.3zM154 169.8l-31.2-1.4H45.2L28 175l-3.7 3.2-4.1 1.1-5 16V220h7.9v-24l4.1-11.6 5.6 6.6 4.5 14.2 1.2 14.7h.3l-.2-16.3-4.1-12.8-4.5-8.5 11.5-3.3 1.8 3.9 11.4 14.7 11.6 8.7 13.8 3.9 17.6 5.4 1.9 4.4h6.1l1.3-3.8 13.8-.6s10.1-7.8 10.7-8.3c.6-.4 11.6-7.2 11.6-7.2l8.7-4.8 7.4-10.9-1.4-10.1-3.8-4.5z" fill="#a8d7df" stroke-width="none" opacity="1"></path><path id="SvgjsPath24203" d="m76.4 143.6-6.4-2.9s-6.2 3.7-6.8 3.5c-.6-.2-10.1.8-10.1.8l-6.8 5.4 4.1-1-9.3 9.9-1.7 11.4 3.7-7-1.9 12.6 8.3 12.2-1.2-8.3 4.5 11.4s5.8 6.4 5.6 5.8-1.5-5.4-1.5-5.4l8.1 9.5 11.8 4.1-1.9-4.1 10.7 7.6 11.6 3.3 6.4 4.1-1.9-5.8 9.3 2.9h7.4l-2.9-2.7 8.9-6.4-1.7 5.2 9.7-5.2 5.8-7.6-1.4 5.8 5.8-6 2.9-7-1.2 7.4 7.2-7.8 3.3-13.8 1.4 7.2.4-11.4-4.1-8.9 4.1 3.1-5.8-10.9-7.2-3.3 5.4.2-9.7-6h-8.5l4.5-1.9-9.5-.4-2.5 1-2.1 3.7-8.5 3.1-3.5 3.3 2.9-.2-4.5 3.1-4.3 2.7-1 1.9 2.9-.8-1.9 2.3-3.1-2.1-4.7-4.1 3.5.8-3.7-2.7H90l-8.5-4.5 3.7.4-2.9-2.3-4.1-.2-.6-3.1-1.2-1.9z" fill="#ffffff" stroke-width="none" opacity="1"></path><path id="SvgjsPath24204" d="m76.4 143.6-6.4-2.9s-6.2 3.7-6.8 3.5c-.6-.2-10.1.8-10.1.8l-6.8 5.4 4.1-1-9.3 9.9-1.7 11.4 3.7-7-1.9 12.6 8.3 12.2-1.2-8.3 4.5 11.4s5.8 6.4 5.6 5.8-1.5-5.4-1.5-5.4l8.1 9.5 11.8 4.1-1.9-4.1 10.7 7.6 11.6 3.3 6.4 4.1-1.9-5.8 9.3 2.9h7.4l-2.9-2.7 8.9-6.4-1.7 5.2 9.7-5.2 5.8-7.6-1.4 5.8 5.8-6 2.9-7-1.2 7.4 7.2-7.8 3.3-13.8 1.4 7.2.4-11.4-4.1-8.9 4.1 3.1-5.8-10.9-7.2-3.3 5.4.2-9.7-6h-8.5l4.5-1.9-9.5-.4-2.5 1-2.1 3.7-8.5 3.1-3.5 3.3 2.9-.2-4.5 3.1-4.3 2.7-1 1.9 2.9-.8-1.9 2.3-3.1-2.1-4.7-4.1 3.5.8-3.7-2.7H90l-8.5-4.5 3.7.4-2.9-2.3-4.1-.2-.6-3.1-1.2-1.9z" fill="#ffffff" stroke-width="none" opacity="0.85"></path><path id="SvgjsPath24205" d="m52.6 155.1-2.8 9.7 3.3 12.9-2-12.6 1.5-10zm6.5 18.9s1.6 11.5 1.6 11-.5-11-.5-11l2.5-7c-.5-.1-3.6 7-3.6 7zm-2.4-11 .3 5.6.8-6.1 2.1-5.7-3.2 6.2zm-13.1 7.9 1.6 6.1-.5-6.6 1.5-5.7-2.6 6.2zm24.2 13.4 2.3 7.5 9.8 4.6-9-5.7-3.1-6.4zm-2.8-6.7-1.3 7 2 8.5-1-8.5.3-7zm23.1 6.4-10.3-3.4-3.1-7.9 2.3 9.5 11.1 1.8zm-19-7.9 1.3 6.9-.2-6.7 1.1-6.9-2.2 6.7zm21.6 28-5.4-5.9 4.8 7.2 6.9 2.3 2.3 3.4-1.3-4.6-7.3-2.4zm6.7-38.5 4.1 6.9 1.6 5.1-.3-4.6-3.1-5.7 5.7 2.5 6.4 7.5 3.9 1-3.4-2.1-6.2-7.2s-5.4-3.1-5.9-3.3-5.2-7.9-5.2-7.9-8.2-4.1-8.7-3.9l7.2 4.4 3.9 7.3zm12.4 12.3 1.6 5.6s6.9 8 6.7 7.5-5.7-7.5-5.7-8c.1-.5-2.6-5.1-2.6-5.1zm8.1 19s.3 6.6.3 7.2 1.3-6.7 1.3-6.7-3.3-6.1-3.4-6.6l1.8 6.1zm-23.6 1.8 9.6 4.6-9-5.7-4.2-6.1 3.6 7.2zm6.9-1.2 9.5 3.9 4.9 7.4-4.4-8.3-10-3zm.3 8.7s6.6 4.8 7.2 4.9c.7.2 5.7.8 5.7.8l-6.1-2.1-6.8-3.6zm-32.2-11.9 1.3 5.1 4.4 4.4-3.3-4.8-2.4-4.7zM55 177.4l-1 9.7 3.1 7.5-2-7.8-.1-9.4zm-.5-27.6-9.7 7-2.8 4.1 3.4-3 9.1-8.1zm7.4-3.2-7.4-.5-3.9 2 3.9-.8 7.4-.7zm17.8 6.8-4.4-7.4-7.7-.3 7.2 1.5 4.9 6.2zm-9.9 7.6-1.3-7 .5 8 6.9 2.1-6.1-3.1zm14.4-5 6.4 6.7-5.4-7.9s-7.4-1.5-7.9-1.5l6.9 2.7zm.3 17.1-5.4-6.4 4.2 7.5 6.4 2-5.2-3.1zm37.1-23.5c-.7.2-7.7 2.3-7.7 2.3l-1 2.4 2.3-2 6.4-2.7zm-7.3 7.3-8 4.4-1.6 3.9 2.9-3.6 6.7-4.7zm-1.8 16.2 1.2-6.2 3.1-5.4-4.4 5.2.1 6.4zm18.6-28.7-4.6 2-4.6 4.9 5.1-3.8 4.1-3.1zm7.4 5.2 8.2 1.3s-7.5-2.8-8.2-2.8-7.4.6-7.4.6l7.4.9zm10.5 7.7 5.2 4.9s-4.1-5.6-4.4-6.1c-.3-.5-11.6-2-11.6-2l10.8 3.2zm3.4 13.9-.3 9 2.1-9.3-7-8.5 5.2 8.8zm-6.2 20.3c0 .5 2-2.5 2-2.5l1.5-7.2-2.3 5.9c-.1 0-1.2 3.3-1.2 3.8zm-9.2 4.1 4.4-2.6 2.8-6.7-3.6 5.4-3.6 3.9zm-9 8.6 4.6-3.3 2.1-8-3.3 6.9-3.4 4.4zm-5.7-7.3-.2-8-5.4-8.2 4.4 8.4 1.2 7.8zm-2.1 9 3.9-6.6.2-5.1-2 5.7-2.1 6zm27.6-31.6-3.1-9.3 1.5 9.2-1.8 5.9 3.4-5.8zm-5.6 2.3-2.8 5.6-4.9 4.7 6.1-4.1 1.6-6.2zm-1.9-18.3-7-2 6.4 3.1 3.4 3.6-2.8-4.7zm-4.4 10.9-4.4-8.5 2.4 8.7v6.7l2-6.9zm-3.6-15.2-4.4-1.1-6.4 3.3 6.4-2.1h4.4zm1.8 25.9-4.4 6.9-3.8 3.3 4.4-2.4 3.8-7.8z" fill="#a8d7df" stroke-width="none" opacity="0.5"></path><path id="SvgjsPath24206" d="m109.3 181.8-1-6.7-3.5-3.2 2 4 2.5 5.9zm3-3.2 3.5 6.2 3.5 5.9-1.5-5.7-5.5-6.4zm-17.8-10.9 4.7 3.5-2.5-3.7-3.2-7.9-4.2-2.2 3.7 3.5 1.5 6.8zm14.5 18.8 2 6.2 2.7 7.4-.7-7.4-4-6.2zm-27.9 3.9-3.7-4.4 2.7 5.9 8.2 2.5-7.2-4zm12.4-3.4 4.7 6.2 8.2 2.7-7.9-3.9-5-5zm-9.8-9.8c-.2-.1-.3-.1-.4-.1l.4.1zm0 0c1.4.7 5.7 4.1 6.5 4.1 1 0 8.7-.5 8.7-.5l-8.2-1-7-2.6zm16 7.3 5.2 5.7s4.7 5.2 4.4 4.2-3-5.7-3-5.7l-6.6-4.2zm40.7-13.8-1.5 5.9 3.5-4.9-2.5-6.7.5 5.7zm-6.3 19.9 4.3-.8 2.1-3.5-3.1 2.3-3.3 2zm-8.3 9 3.1-1.9 2.9-6.7-3.9 5.5-2.1 3.1zm4.7-24.1-1.3 7.1 2.7-6.7-2.4-9.4 1 9zm5.4-15-3.9-4-5.3.1 4.7.9 4.5 3zm-18 16.5.5-8.4 2.6-6.6-3.8 5.6.7 9.4zm30-17.8s-4.6-2.1-5.1-2l4 2.1 3.8 3.4-2.7-3.5zm-10.6-8.3-5.1.4 9.6 1.1-4.5-1.5zm-13.7 31.2.3 5.9.9-5.5-.3-6-.9 5.6zM83.8 186l5.6 2.8 4.6 3.8-3.2-4.4c0-.1-6.6-2.4-7-2.2zm-3.4 13.6s4 6.3 4.4 6.3 7.6 2.7 7.6 2.7l-7-3.6-5-5.4zm-19.1-11.9 2.7 9.2 6.6 4.8-5.9-5.6-3.4-8.4zm3.9-18.2 1.7 7.8-.7-7.8.8-4.9-1.8 4.9zM58 150.1l-4 6.8 4.8-5.5 6.6-1.2-7.4-.1zm20.7 12.4-3.2-4.3 1.9 5 7.5 4.5-6.2-5.2z" fill="#ffffff" stroke-width="none" opacity="1"></path></g><g id="svga-group-head" transform="matrix(1,0,0,1,0,0)"><g id="svga-group-ears-left-move" transform="matrix(1,0,0,1,0,0)"><g id="svga-group-ears-left" transform="matrix(1,0,0,1,0,0)"><path id="SvgjsPath24225" d="M60.9 93s-5.5-3-7.7-3.9c0 0-3.9 5.4-5.1 7.2 0 0 3.1 14.7 3.9 17.3l5 6.5 5.4-1.7 4.2-14.2L60.9 93z" fill="#f6e4e2" stroke-width="none" opacity="1" stroke="none"></path><path id="SvgjsPath24226" d="M58.8 104.7c-.2-.4-6-10-6-10l-2.3 7.9 2.6-2.4 1.6 2.9s-.3 5-.2 5.5c0 .5 2.4 4.3 2.4 4.3l1.9-8.2z" fill="#d7a19b" stroke-width="none" opacity="1" stroke="none"></path><path id="SvgjsPath24227" d="m58.4 98-5.2-8.9c2.2.9 7.7 1.8 7.7 1.8l5.7 13.3-4.2 14.2-5.4 1.7 3.6-3.4L58.4 98z" fill="#e7c1bd" stroke-width="none" opacity="1" stroke="none"></path></g></g><g id="svga-group-ears-right-move" transform="matrix(1,0,0,1,0,0)"><g id="svga-group-ears-right" transform="matrix(1,0,0,1,0,0)"><path id="SvgjsPath24228" d="M139.1 93s5.5-3 7.7-3.9c0 0 3.9 5.4 5.1 7.2 0 0-3.1 14.7-3.9 17.3l-5 6.5-5.4-1.7-4.2-14.2 5.7-11.2z" fill="#f6e4e2" stroke-width="none" opacity="1" stroke="none"></path><path id="SvgjsPath24229" d="M141.2 104.7c.2-.4 6-10 6-10l2.3 7.9-2.6-2.4-1.6 2.9s.3 5 .2 5.5c0 .5-2.4 4.3-2.4 4.3l-1.9-8.2z" fill="#d7a19b" stroke-width="none" opacity="1" stroke="none"></path><path id="SvgjsPath24230" d="m141.6 98 5.2-8.9c-2.2.9-7.7 1.8-7.7 1.8l-5.7 13.3 4.2 14.2 5.4 1.7-3.6-3.4 2.2-18.7z" fill="#e7c1bd" stroke-width="none" opacity="1" stroke="none"></path></g></g><g id="svga-group-faceshape-wrap" transform="matrix(1,0,0,1,0,0)"><g id="svga-group-faceshape-single"><path id="SvgjsPath24301" d="M143.4 84.8c-.2-10.2-5.3-24.8-5.3-24.8-6.9-11.6-19.7-19.5-19.7-19.5-7.2-1.5-18.4-2.3-18.4-2.3s-11.1.8-18.4 2.3c0 0-12.8 7.9-19.7 19.5 0 0-5.1 14.5-5.3 24.8l1.1 24.4L68.6 127l14.2 25.6 17.2 4.3 17.2-4.3 14.2-25.6 10.9-17.8 1.1-24.4z" fill="#f6e4e2" stroke-width="none" opacity="1" stroke="none"></path><path id="SvgjsPath24302" d="M62.5 107.9s12.7 8.8 15.2 11.5 4.1 20.4 4.1 20.4l-7.4-19.3-11.9-12.6z" fill="#e7c1bd" stroke-width="none" opacity="1" stroke="none"></path><path id="SvgjsPath24303" d="M137.9 107.9s-12.7 8.8-15.2 11.5-4.1 20.4-4.1 20.4l7.4-19.3 11.9-12.6z" fill="#e7c1bd" stroke-width="none" opacity="1" stroke="none"></path><path id="SvgjsPath24304" d="M84.1 150.8s-9-22.6-9.8-23.8c-.7-1.2-12.8-18.8-12.8-18.8l-1-24.7 4-22.1 19-16.6 15.9-4.3 18.1.2.9-.2c-7.2-1.5-18.4-2.3-18.4-2.3s-11.1.8-18.4 2.3c0 0-12.8 7.9-19.7 19.5 0 0-5.1 14.5-5.3 24.8l1.1 24.4L68.6 127l14.2 25.6 17.2 4.3 17.2-4.3-17.4 3.2-15.7-5z" fill="#d7a19b" stroke-width="none" opacity="1" stroke="none"></path></g></g><g id="svga-group-mouth-single-move" transform="matrix(1,0,0,1,0,0)"><g id="svga-group-mouth-single" transform="matrix(1,0,0,1,0,0)"><path id="SvgjsPath24466" d="m88.05 132.71 3.94 1.66 3.52-3.29 4.85 2.44 4.76-2.21 3.71 3.32 3.84-1.95-8.13-7.1-4.4 1.7-4.9-1.7z" fill="#e0a4a0" stroke-width="none" opacity="1" transform="translate(0 2)"></path><path id="SvgjsPath24467" d="m86.88 132.21 5.22 2.59 3.64-2.53 4.66 1.83 4.57-1.75 3.53 2.75 5.38-2.99-4.98 1.89-3.9-3.7-4.6 2.6-5.2-2.7-3.4 3.6z" fill="#d18580" stroke-width="none" opacity="1" transform="translate(0 2)"></path><path id="SvgjsPath24468" d="m92.53 136.66 2.04 1.65 11.73.01 1.5-1.79-1.8.68-11.5.04z" fill="#d7a19b" stroke-width="none" opacity="1" transform="translate(0 2)"></path></g></g><g id="svga-group-eyes-left-move" transform="matrix(1,0,0,1,0,0)"><g id="svga-group-eyes-left" transform="matrix(1,0,0,1,0,0)"><g id="svga-group-eyesback-left"><path id="SvgjsPath24257" d="M91.2 95.7 86 91.1l-9 .1-7 3.8s5.8 4.3 7.2 4.9l8.8-.4 5.2-3.8z" fill="#ffffff" stroke-width="none" opacity="1"></path></g><g id="svga-group-eyesiriswrapper-left" transform="matrix(1,0,0,1,0,0)"><g id="svga-group-eyesiriscontrol-left" transform="matrix(1,0,0,1,0,0)"><g id="svga-group-eyesiris-left" transform="matrix(1,0,0,1,0,0)"><path id="SvgjsPath24319" d="m82.2 100.2-5.5-2-1-5.8 4.5-3.8 5.5 2.1 1 5.7z" fill="#724f7c" stroke-width="none" opacity="1"></path><path id="SvgjsPath24320" d="m78.2 95.4.6-3.1 3-1 2.4 2.1-.7 3.1-3 1z" fill="#000000" stroke-width="none" opacity="1"></path><path id="SvgjsPath24321" d="m78 91.7 2.2 2.1.6-.4-1.2-2.7z" fill="#ffffff" stroke-width="none" opacity="1"></path><path id="SvgjsPath24322" d="m82.1 96.4.5 1 .8-.4-.4-1z" fill="#ffffff" stroke-width="none" opacity="1"></path></g></g></g><g id="svga-group-eyesfront-left"><path id="SvgjsPath24265" d="M67.1 89.3v11.9l7.9 8.4h11.2l7.9-8.4V89.3l-7.9-8.4H75l-7.9 8.4zm3 5.7 7-3.8 9-.1 5.1 4.6-5.2 3.9-8.8.4c-1.3-.8-7.1-5-7.1-5z" fill="#f6e4e2" stroke-width="none" opacity="1" stroke="none"></path><path id="SvgjsPath24266" d="m91.7 96.1-1.2-.6-4.7-4.1H77l-7.2 4-1 .2 7.9-5 9.6-.1z" fill="#2c1630" stroke-width="none" opacity="1" stroke="none"></path><path id="SvgjsPath24267" d="m90.8 94-4-4.1-9.8-.1-8.1 3.6 8.1-3.1h9.7z" fill="#e7c1bd" stroke-width="none" opacity="1" stroke="none"></path></g></g></g><g id="svga-group-eyes-right-move" transform="matrix(1,0,0,1,0,0)"><g id="svga-group-eyes-right" transform="matrix(1,0,0,1,0,0)"><g id="svga-group-eyesback-right"><path id="SvgjsPath24258" d="m108.8 95.7 5.1-4.6 9 .1 7 3.8s-5.8 4.3-7.2 4.9l-8.8-.4-5.1-3.8z" fill="#ffffff" stroke-width="none" opacity="1"></path></g><g id="svga-group-eyesiriswrapper-right" transform="matrix(1,0,0,1,0,0)"><g id="svga-group-eyesiriscontrol-right" transform="matrix(1,0,0,1,0,0)"><g id="svga-group-eyesiris-right" transform="matrix(1,0,0,1,0,0)"><path id="SvgjsPath24323" d="m119.8 100.2-5.5-2-1-5.8 4.5-3.8 5.5 2.1 1 5.7z" fill="#724f7c" stroke-width="none" opacity="1"></path><path id="SvgjsPath24324" d="m115.8 95.4.7-3.1 3-1 2.3 2.1-.6 3.1-3 1z" fill="#000000" stroke-width="none" opacity="1"></path><path id="SvgjsPath24325" d="m115.7 91.7 2.2 2.1.6-.4-1.2-2.7z" fill="#ffffff" stroke-width="none" opacity="1"></path><path id="SvgjsPath24326" d="m119.7 96.4.6 1 .8-.4-.4-1z" fill="#ffffff" stroke-width="none" opacity="1"></path></g></g></g><g id="svga-group-eyesfront-right"><path id="SvgjsPath24268" d="M125 80.8h-11.2l-7.9 8.4v11.9l7.9 8.4H125l7.9-8.4V89.3l-7.9-8.5zm-2.3 19.1-8.8-.4-5.1-3.8 5.1-4.6 9 .1 7 3.8s-5.8 4.2-7.2 4.9z" fill="#f6e4e2" stroke-width="none" opacity="1" stroke="none"></path><path id="SvgjsPath24271" d="m108.3 96.1 1.2-.6 4.7-4.1h8.8l7.2 4 1 .2-7.9-5-9.6-.1z" fill="#2c1630" stroke-width="none" opacity="1" stroke="none"></path><path id="SvgjsPath24272" d="m109.2 94 4-4.1 9.8-.1 8.1 3.6-8.1-3.1h-9.7z" fill="#e7c1bd" stroke-width="none" opacity="1" stroke="none"></path></g></g></g><g id="svga-group-facehighlight-single"></g><g id="svga-group-eyebrows-left-move" transform="matrix(1,0,0,1,0,0)"><g id="svga-group-eyebrows-left-rotate" transform="matrix(1,0,0,1,0,0)"><g id="svga-group-eyebrows-left" transform="matrix(1,0,0,1,0,0)"><path id="SvgjsPath24175" d="m82.7 74.9-10.4-2.1-7.2 12.6 8.2-8 17.2 9.5 3.3-2.4-.8-4.6z" fill="#73625b" stroke-width="none" opacity="1"></path><path id="SvgjsPath24176" d="m72.5 76.4-7.4 9.1 8.5-6.6L90.5 87l3.3-2.4-.1-.6c-1.6 1-3.5 2.1-3.5 2.1l-4.7-7.4 1.6 5.3-6.9-4.1-4.3-4.4 1.6 3.2-5-2.3z" fill="#644e45" stroke-width="none" opacity="1"></path><path id="SvgjsPath24177" d="m76.4 73.6 4.4 4.9-2.6-4.5-1.8-.4zm11.1 3.6 3.1 6.5-1.1-5.5-2-1zm-15.7-3.7 2.9 1.9-2.4-2.6-.5.7z" fill="#827874" stroke-width="none" opacity="1"></path></g></g></g><g id="svga-group-eyebrows-right-move" transform="matrix(1,0,0,1,0,0)"><g id="svga-group-eyebrows-right-rotate" transform="matrix(1,0,0,1,0,0)"><g id="svga-group-eyebrows-right" transform="matrix(1,0,0,1,0,0)"><path id="SvgjsPath24178" d="m107 79.9-.8 4.6 3.3 2.4 17.2-9.5 8.2 8-7.2-12.6-10.4 2.1z" fill="#73625b" stroke-width="none" opacity="1"></path><path id="SvgjsPath24179" d="m122.5 78.6 1.6-3.2-4.3 4.4-6.9 4.1 1.6-5.3-4.7 7.4s-1.9-1.1-3.5-2.1l-.1.6 3.3 2.4 16.9-8.1 8.5 6.6-7.4-9.1-5 2.3z" fill="#644e45" stroke-width="none" opacity="1"></path><path id="SvgjsPath24180" d="m121.8 74-2.5 4.5 4.4-4.9-1.9.4zm-11.2 4.2-1.1 5.5 3.1-6.5-2 1zm17.1-5.4-2.4 2.6 2.9-1.9-.5-.7z" fill="#827874" stroke-width="none" opacity="1"></path></g></g></g><g id="svga-group-beardwrap" transform="matrix(1,0,0,1,0,0)"><g id="svga-group-beard-single-move" transform="matrix(1,0,0,1,0,0)"><g id="svga-group-beard-single" transform="matrix(1,0,0,1,0,0)"></g></g></g><g id="svga-group-mustache-single-move" transform="matrix(1,0,0,1,0,0)"><g id="svga-group-mustache-single" transform="matrix(1,0,0,1,0,0)"><path id="SvgjsPath24484" d="m96.7 124.6 1.7-.7.9-1.2-1.3.8-1.3 1.1zm-7.8-2.8-2 .7-1.8 1 2.5-.7 1.3-1zm9.5.6-2 .7-1.6 1.2 2.3-.9 1.3-1zm-1.5-.1-4.1 1.7 2.3-.6 1.8-1.1zm-4.5.1-1.7 1.3 3.6-1.6-1.9.3zm0-.5-2.1.6-2 1.2 2.7-.7 1.4-1.1zm-1.5 0-2.6.7-2 1.1 3.1-1 1.5-.8zm4.9.2-2.6.7-2 1.1 3.1-1 1.5-.8zm-8.1-.6-2.8.6-1.8 1.2 2.5-.7 2.1-1.1zm-2.5.3-2.4.6-2.2 1 2.6-.7 2-.9zm-2.2-.1-2.3.5-2.1.9 2.8-.6 1.6-.8zm-4.2.4-1.2.8 3.2-1-2 .2zm-1.8-.2-.9.7 2.6-.9-1.7.2zm24.1.7.9 1.2 1.7.7-1.2-1.2-1.4-.7zm10.4-.8 1.4 1.1 2.5.7-1.8-1-2.1-.8zm-9.5.6 1.3 1 2.3.9-1.6-1.2-2-.7zm3.4 1 2.3.6-4.1-1.7 1.8 1.1zm.7-1.3 3.6 1.6-1.7-1.3-1.9-.3zm1.9-.2 1.4 1 2.7.8-2-1.2-2.1-.6zm1.5 0 1.5.9 3.1 1-2-1.1-2.6-.8zm-4.9.2 1.5.9 3.1 1-2-1.1-2.6-.8zm8.1-.6 2.2 1.1 2.5.7-1.8-1.2-2.9-.6zm2.5.3 2.1.9 2.6.7-2.2-1-2.5-.6zm2.2-.1 1.6.9 2.8.6-2.1-.9-2.3-.6zm2.2.1 3.2 1-1.2-.8-2-.2zm3.8.1-1.7-.1 2.6.9-.9-.8z" fill="#73625b" stroke-width="none" opacity="1"></path></g></g><g id="svga-group-nose-single-move" transform="matrix(1,0,0,1,0,0)"><g id="svga-group-nose-single" transform="matrix(1,0,0,1,0,0)"><path id="SvgjsPath24441" d="m105.04 115.79-.68 2.7-4.33.85-4.47-1.09-.37-2.35-4.77-.18-.14-3.85 3.58-4.26 1.77-.03 9.04.07h1.56l3.58 4.26-.23 4.05z" fill="#f6e4e2" stroke-width="none" opacity="1" transform="translate(0 1)"></path><path id="SvgjsPath24442" d="m106.34 107.36-3.34.32 3.1.23 3.31 4.01-.08 3.46h-2.2v-1.73l-2.28.08-.55 4.25-4.28.3-4.28-.3-.56-4.25-2.28-.08v1.73h-2.2l-.08-3.46 3.31-4.01 3.1-.23-.99-.1 1.24-4.06-.3-2.68-.36 2.73-1.81 3.9-1.12-.11-3.85 4.4.31 4.49 4.88.23.47 2.52 4.39 1h.25l4.39-1 .47-2.52 4.88-.23.32-4.49z" fill="#d7a19b" stroke-width="none" opacity="1" transform="translate(0 1)"></path><path id="SvgjsPath24443" d="M94.52 108.82c.23-.08 10.75 0 10.75 0l-1.29 6.66-7.72.15-1.74-6.81z" fill="#fef7f6" stroke-width="none" opacity="1" transform="translate(0 1)"></path><path id="SvgjsPath24444" d="m95.03 116.48-2.13-1.1v-1.73l2.28.08z" fill="#d7a19b" stroke-width="none" opacity="1" transform="translate(0 1)"></path><path id="SvgjsPath24445" d="m105 116.48-.15-2.75 2.28-.08v1.73z" fill="#d7a19b" stroke-width="none" opacity="1" transform="translate(0 1)"></path></g></g><g id="svga-group-hair-front" transform="matrix(1,0,0,1,0,0)"><path id="SvgjsPath24492" d="m124.2 43-6.2-4.3-8.8-1.2 2-5.5-1.3-5.7-6.3-4.2-10.3 1-4.8 6.2-.8 5.1 2.5 3.6-8.5 1.1-11.6 10.6 12.6-.7 15 8.1h7.1l16.1-10.8 10.7 5.2z" fill="#73625b" stroke-width="none" opacity="1"></path><path id="SvgjsPath24493" d="m70.1 49.7 12.6-.7 15 8.1h7.1L121 46.3l10.7 5.2-11.9-7.8L106 54.4l-8.6.6-5.6-8.6 2.9-8.3-3.9 7.8 4.5 7.7-8.7-5.6-.1-5.7 2.9-3.9s-3.9 3.4-3.9 3.7v5.3l-5.3-.6 1.6-7.7-11.7 10.6zm31.3 5.4-1.3-6.9 1-10.1.9 10.4-.6 6.6zm10.8-4.4-1.8-7.6-4.5-5.7 5.8 4.9 2 7.6-1.5.8zm-14.7-9.9L90.2 38l-2.4-3.6.8-5.2 4.8-6.2 10.3-1 4.3 6.2-1.1 7.8s-6.6 1-6.2.7 5.3-1.4 5.2-1.8c-.1-.4.6-7.1.6-7.1l-4.6-4.4-7.6 1.7-3.7 4.9-1.1 4 1.8 3 6.2 3.8zm0-2.6c0-.8-1.6-8.1-1.1-8.6s6.5-7 6.2-6.6-4.8 7.4-4.8 7.4l-.3 7.8zm7.1.4s4.8-6 5-6.4c.2-.4.4-6 .4-6l1.3 5.8-2.1 5.5-4.6 1.1z" fill="#644e45" stroke-width="none" opacity="1"></path></g><g id="svga-group-glasses-single-move" transform="matrix(1,0,0,1,0,0)"><g id="svga-group-glasses-single" transform="matrix(1,0,0,1,0,0)"></g></g></g></g></g><rect id="svga-credit-rect" width="200" height="15" x="0" y="185" fill="#ecf0f1" opacity="0.5" style="display: none;"></rect><text id="svga-credit-text" font-family="Avenir Next, Roboto, Helvetica, Arial, sans-serif" font-size="10px" text-anchor="start" font-weight="400" size="10px" anchor="start" weight="400" fill="#333333" x="33.40447998046875" y="182.60824704170227" style="display: none;"><tspan id="SvgjsTspan23714" dy="13" x="33.40447998046875">Created on AvatarMaker.com</tspan></text></g></svg>