<svg xmlns="http://www.w3.org/2000/svg" version="1.1" width="600px" height="600px" viewBox="0 0 200 200" style="overflow:hidden!important;"><defs id="SvgjsDefs71732"></defs><g id="svga-group-wrapper"><g id="svga-group-backs-single"><path id="SvgjsPath72414" d="M0 0h200v200H0V0z" fill="#e5fcc2" stroke-width="none" opacity="1"></path><path id="SvgjsPath72415" d="M100 124.2c-13.3 0-24.2-10.8-24.2-24.2S86.7 75.8 100 75.8s24.2 10.8 24.2 24.2-10.9 24.2-24.2 24.2zm0-42.4c-10 0-18.2 8.2-18.2 18.2s8.2 18.2 18.2 18.2 18.2-8.2 18.2-18.2S110 81.8 100 81.8zm0 57.4c-21.6 0-39.2-17.6-39.2-39.2S78.4 60.8 100 60.8s39.2 17.6 39.2 39.2-17.6 39.2-39.2 39.2zm0-72.4c-18.3 0-33.2 14.9-33.2 33.2s14.9 33.2 33.2 33.2 33.2-14.9 33.2-33.2-14.9-33.2-33.2-33.2zm0 87.5c-29.9 0-54.3-24.4-54.3-54.3S70.1 45.7 100 45.7 154.3 70 154.3 100s-24.4 54.3-54.3 54.3zm0-102.6c-26.6 0-48.3 21.7-48.3 48.3 0 26.6 21.7 48.3 48.3 48.3 26.6 0 48.3-21.7 48.3-48.3 0-26.6-21.7-48.3-48.3-48.3zm0 116.4c-37.6 0-68.1-30.6-68.1-68.1S62.4 31.9 100 31.9s68.1 30.6 68.1 68.1-30.5 68.1-68.1 68.1zm0-130.2c-34.2 0-62.1 27.9-62.1 62.1s27.9 62.1 62.1 62.1 62.1-27.9 62.1-62.1-27.9-62.1-62.1-62.1zm0 146.2c-46.4 0-84.1-37.7-84.1-84.1S53.6 15.9 100 15.9s84.1 37.7 84.1 84.1-37.7 84.1-84.1 84.1zm0-162.2c-43.1 0-78.1 35-78.1 78.1s35 78.1 78.1 78.1 78.1-35.1 78.1-78.1-35-78.1-78.1-78.1zm0 90c-6.6 0-11.9-5.4-11.9-11.9 0-6.6 5.4-11.9 11.9-11.9 6.6 0 11.9 5.4 11.9 11.9 0 6.6-5.3 11.9-11.9 11.9zm0-17.8c-3.3 0-5.9 2.7-5.9 5.9 0 3.3 2.7 5.9 5.9 5.9 3.3 0 5.9-2.7 5.9-5.9 0-3.3-2.6-5.9-5.9-5.9zM0 146.7v12.8c9.9 16.6 23.9 30.6 40.5 40.5h12.8C29.9 189 11 170.1 0 146.7zm200 0c-11 23.4-29.9 42.3-53.3 53.3h12.8c16.6-9.9 30.6-23.9 40.5-40.5v-12.8zm0-93.4V40.5C190.1 23.9 176.1 9.9 159.5 0h-12.8C170.1 11 189 29.9 200 53.3zm-200 0C11 29.9 29.9 11 53.3 0H40.5C23.9 9.9 9.9 23.9 0 40.5v12.8zm200 36.3C195.1 42.5 157.6 4.9 110.4 0H89.6C42.5 4.9 4.9 42.5 0 89.6v20.8c4.9 47.1 42.5 84.7 89.6 89.6h20.8c47.1-4.9 84.7-42.4 89.6-89.6V89.6zM100 194.5c-52.1 0-94.5-42.4-94.5-94.5S47.9 5.5 100 5.5s94.5 42.4 94.5 94.5-42.4 94.5-94.5 94.5zM0 176.2v9.5c4.4 5.1 9.1 9.9 14.3 14.3h9.5c-9-6.8-17-14.8-23.8-23.8zm200 0c-6.8 8.9-14.8 16.9-23.8 23.8h9.5c5.1-4.4 9.9-9.1 14.3-14.3v-9.5zM0 23.8c6.8-9 14.8-17 23.8-23.8h-9.5C9.1 4.4 4.4 9.1 0 14.3v9.5zm200 0v-9.5c-4.4-5.1-9.1-9.9-14.3-14.3h-9.5c9 6.8 17 14.8 23.8 23.8z" fill="#ceed9f" stroke-width="none" opacity="1"></path></g><g id="svga-group-humanwrap-move" transform="matrix(1,0,0,1,0,0)"><g id="svga-group-humanwrap" transform="matrix(0.8499995000000001,0,0,0.8499995000000001,15.007550625816805,17.14166785647582)"><g id="svga-group-hair-back-move" transform="matrix(1,0,0,1,0,0)"><g id="svga-group-hair-back" transform="matrix(1,0,0,1,0,0)"></g></g><g id="svga-group-humanbody-back"><path id="SvgjsPath72131" d="M180.8 184.9c-2.3-3.4-38.9-17.8-38.9-17.8l-13.4-5.2-5.6-68.8H76.8L71.3 162l-13.4 5.2S21.4 181.6 19 185c-2.3 3.4-3.3 14.9-3.3 14.9V219h168.5v-19.2c-.1.1-1-11.5-3.4-14.9z" fill="#f4baa3" stroke-width="none" opacity="1" stroke="none"></path></g><g id="svga-group-chinshadow-single"><path id="SvgjsPath72380" d="m76.82 93.1-3.58 45.07c7.72 10.37 15.12 20.14 15.87 20.73 1.4 1.1 9.2 1.1 10.6 0 1.02-.76 16.06-21.1 25.8-34.27l-2.57-31.53H76.82z" fill="#d58464" stroke-width="none" opacity="1" stroke="none"></path></g><g id="svga-group-humanbody-front"><path id="SvgjsPath72132" d="M184.5 219c-.1-6.4-.1-12.8-.1-19.2l-.3-.1s.1-.1.2 0c.1 0 .1.1.1.1v-.4l-.1-.5-.1-.9-.2-1.9c-.2-1.3-.4-2.5-.6-3.8-.2-1.3-.5-2.5-.9-3.8-.4-1.2-.8-2.5-1.5-3.6-.8-.9-1.9-1.5-2.9-2.1-1-.6-2.1-1.1-3.2-1.7-2.1-1.1-4.3-2.1-6.5-3.1-4.4-2-8.7-3.9-13.1-5.7-4.4-1.9-8.8-3.7-13.2-5.5l-13-5.2-1.2-16.9c-.4-5.7-.9-11.5-1.3-17.2l-1.3-17.2-1.5-17.3-.1-.8h-.8c-7.7 0-15.4.1-23.1.1l-23.1.2h-.5v.5L75 110.2l-1.3 17.2c-.8 11.4-1.8 22.8-2.8 34.2-5.6 2.1-11.2 4.2-16.7 6.4-5.6 2.2-11.2 4.5-16.8 6.9-2.8 1.2-5.6 2.4-8.3 3.6-2.8 1.3-5.5 2.5-8.2 4.1-.7.4-1.3.8-2 1.4-.2.1-.4.4-.5.6l-.3.6c-.2.4-.4.7-.5 1.1-.6 1.5-1 3-1.3 4.5-.6 3-1.1 6-1.4 9.1l-.1 19.1v.9h.9l42.1.1H100c14 0 28.1-.1 42.1-.2l42.1-.5h.3v-.3zm-84.5-1-42.1-.1-41.2.1-.1-18.1c.3-3 .6-5.9 1.2-8.9.3-1.4.6-2.9 1.1-4.2.1-.3.3-.7.4-.9l.2-.4.3-.3c.5-.4 1.1-.8 1.8-1.2 2.5-1.5 5.3-2.8 8-4.1 2.7-1.3 5.5-2.5 8.2-3.7 5.5-2.4 11.1-4.8 16.7-7.1s11.2-4.5 16.9-6.7l.2-.1v-.2c.9-11.5 1.7-23 2.7-34.4l1.4-17.2 1.5-16.7 22.6.2c7.4.1 14.8.1 22.3.1l1.3 16.4 1.5 17.2c.5 5.7 1 11.5 1.5 17.2l1.6 17.2v.3l.3.1 13.4 5c4.4 1.7 8.9 3.4 13.3 5.2 4.4 1.8 8.8 3.7 13.2 5.6 2.2 1 4.3 2 6.5 3 1.1.5 2.1 1.1 3.2 1.6 1 .6 2.1 1.2 2.9 2 .7 1.1 1.1 2.3 1.4 3.5.3 1.2.6 2.5.8 3.7.2 1.3.4 2.5.6 3.8l.2 1.9.1.9.1.5v.4c0 6.3 0 12.6-.1 18.9l-41.8-.5c-14 .1-28.1 0-42.1 0z" fill="#c66c49" stroke-width="none" opacity="1" stroke="none"></path><path id="SvgjsPath72133" d="M125.1 142.4s-1.8 23-9.1 32.9c0 0 7.9-25 9.1-32.9zm-34.5 16s5 7.9 11.5 10.1c0 0-9.5 2.2-11.5-10.1zM73.4 140c6.7 25.6 6.7 25.6 8.5 30.7 0 0 .4-12.6-8.5-30.7z" fill="#d58464" stroke-width="none" opacity="1" stroke="none"></path></g><g id="svga-group-clothes-single"><path id="SvgjsPath72271" d="M61.8 186.6s14.4 11.8 17.6 14.6c3.2 2.8 21.3 12 21.3 12s19.2-9.9 22.4-12.5c3.2-2.6 14.4-17.4 14.4-17.4V220H66.4l-4.6-33.4z" fill="#efefef" stroke-width="none" opacity="1"></path><path id="SvgjsPath72272" d="M67 148.7s-7.2 5.3-11 8.6-9.9 6.6-9.9 6.6l2.9 1.6s-5.5 3.2-10.9 4.8c-5.5 1.6-20.1 5.2-21.1 5.7s-2.3 2.9-2.3 2.9-4.4.9-4.9 11.1c-.6 10.2-1.3 30-1.3 30h64.1s-5.8-35.1-6.3-39.2c0-.4 1.2-16.6 1.2-18 0-1 4.4-11.7 4.3-15.4-.1-1.5-4.8 1.3-4.8 1.3zm66 0s7.2 5.3 11 8.6 9.9 6.6 9.9 6.6l-2.9 1.6s5.5 3.2 10.9 4.8c5.5 1.6 20.1 5.2 21.1 5.7s2.3 2.9 2.3 2.9 4.4.9 4.9 11.1 1.3 29.9 1.3 29.9h-64.1s5.8-35.1 6.3-39.2c0-.4-1.1-16.6-1.1-18 0-1-3.5-12.8-3.7-15.9-.1-1.2 4.1 1.9 4.1 1.9z" fill="#864025" stroke-width="none" opacity="1" stroke="none"></path><path id="SvgjsPath72273" d="M138.2 164.1s4.9 11.3 6.3 13.8c1.4 2.6 12.2 10.8 12.2 10.8s-15.5 12.9-15.7 14.5c-.2 1.6-3.1 11.7-3.1 11.7l4.2-9.9s6.6-5.6 8.2-6.6 14.1-9.9 14.1-9.9-16.2-11-17.8-12.7c-1.6-1.4-8.4-11.7-8.4-11.7zm26.3 9.6c-3.5-.9-10.1-4.2-12.7-5.6 0 0 8 5.4 10.6 6.8 2.6 1.4 15.5 3.8 15.5 4.5 0 .7-4 5.2-4.9 7.5-.9 2.4-.9 9.1-.9 9.1s1.9-5.9 3.1-8.9 7.7-7.3 7.7-7.3 0-1.6-.9-2.6-14-2.6-17.5-3.5zm24.1 12.9c-.2-2.6-2.1-4.5-3.8-5.2 0 0 .9 1.6 1.2 2.6s.7 11.5.7 15.9 3.1 16.9 3.1 16.9-.9-27.6-1.2-30.2zM65.5 161.7c-.5 5.4-2.6 17.6-3.5 21.4-.9 3.8-.2 18.1-.2 18.1s.7-12.7 1.9-15.5c1.2-2.8 2.6-10.3 2.4-12.4-.4-2.2-.6-11.6-.6-11.6zm-43.1 14.5c-1.6.4-4.3 1.2-5.1 2.2 0 0 0 1.4 7.5-.8 5.3-1.5 14.7-5.8 19.7-8.2-6.9 2.7-20.8 6.5-22.1 6.8zm22.1-6.8c1.6-.6 2.9-1.2 3.5-1.6-.1 0-1.4.6-3.5 1.6zm-2.1 22.9c-2.2-1-5.7-2.4-5.7-2.4 4.1 1.8 21.2 14.6 21.2 14.6l6.3 13.8s-4.5-14.6-5.5-15.5c-.9-1-14.1-9.5-16.3-10.5z" fill="#955238" stroke-width="none" opacity="1" stroke="none"></path><path id="SvgjsPath72274" d="M190.8 190.1c-.5-9.2-4.1-11.1-5.1-11.4-.4-.6-1.4-2.5-2.4-2.9-.5-.3-3.8-1.1-9.1-2.5-4.4-1.1-9.3-2.4-12-3.2-4.1-1.3-8.4-3.4-10.1-4.4l2.9-1.7-.8-.4c-.1 0-6.1-3.3-9.8-6.5-3.8-3.3-10.9-8.6-11-8.6l-.8-.6-4.8-2.4 1.1 16.4 3.1 1.2c0 1.1.4 6.1.7 10.5.2 3.5.5 7 .5 7.3-.1 1.2-.7 4.9-1.4 9.7-.6.8-1.2 1.5-1.8 2.2-1.3 1.6-2.6 3.1-3.9 4.6-.7.8-1.3 1.5-2 2.2-.3.4-.7.7-1.1 1-.4.3-.8.6-1.2.8-3.4 2.1-7 4-10.5 5.9-3.5 1.9-7 3.7-10.5 5.5-3.4-1.7-6.9-3.5-10.3-5.3-1.7-.9-3.5-1.9-5.2-2.9-1.7-1-3.4-1.9-5-3.1L68.5 192c-.9-5.4-1.6-9.9-1.7-11.1 0-.3.2-3.9.5-7.3.3-4.4.6-8.9.7-10.2l3.1-1.4 1.3-15.9-5 1.7-.8.6c-.1.1-7.2 5.4-11 8.6-3.7 3.2-9.8 6.5-9.8 6.5l-.8.4 2.9 1.7c-1.7.9-5.9 3.1-10 4.4-2.7.8-7.6 2.1-12 3.2-5.3 1.4-8.6 2.2-9.1 2.5-1 .5-2.1 2.3-2.4 2.9-1 .4-4.6 2.2-5.1 11.4-.6 10.1-1.3 29.8-1.3 30v.5h184.1v-.5c-.1-.2-.8-19.9-1.3-29.9zM30.4 219.5c-.1-3.5-.3-6.9-.9-10.4-.7-3.7-1.4-7.4-2.3-11-.5-1.8-.9-3.6-1.5-5.4-.6-1.8-1.2-3.6-2.2-5.2-1.1-1.6-2.3-3-3.6-4.4-.6-.7-1.3-1.4-2-2-.7-.6-1.3-1.4-2.2-1.8.4.2.7.6 1 .9.3.3.6.7.9 1l1.8 2.1c1.2 1.4 2.4 2.9 3.3 4.5.9 1.6 1.5 3.4 2 5.1.5 1.8 1 3.6 1.4 5.4.9 3.6 1.6 7.3 2.5 10.9.4 1.8.7 3.7.9 5.5.4 1.6.6 3.2.9 4.8H9c.1-3.2.8-20.3 1.2-29.4.5-9.6 4.5-10.6 4.6-10.6l.2-.1.1-.2c.5-.9 1.4-2.4 2.1-2.7.5-.2 4.8-1.4 8.9-2.4 4.4-1.1 9.4-2.4 12.1-3.2 4.9-1.5 9.8-4.2 10.8-4.8.6.4 1.2.7 1.8 1.1l2.5 1.5c.4.2.8.5 1.2.8l.6.3c-2.1 2.2-4.3 4.2-6.7 6l-8.4 6.1c-2.8 2.1-5.6 4.1-8.4 6.2l-1.1.8 1.2.8 6.1 4.1 6.1 4.1 6.2 4.1c1 .7 2.1 1.4 3 2l2.8 2.2c1.2 2.3 2.3 4.6 3.5 6.9l3.3 6.3H30.4zm32.4 0c-.9-2.2-1.8-4.4-2.7-6.7-1-2.4-2-4.9-3.1-7.3v-.1l-.1-.1c-.9-.8-1.8-1.7-2.8-2.5-1-.8-2-1.5-3-2.2-2-1.4-4-2.8-6-4.3s-4-2.8-6.1-4.2c-1.7-1.1-3.3-2.3-5-3.4 2.4-1.8 4.8-3.6 7.2-5.5 2.7-2.1 5.5-4.2 8.2-6.4 2.8-2.2 5.2-4.8 7.4-7.5s4.3-5.5 6-8.5c-2.1 2.7-4.4 5.4-6.8 7.9-.2.3-.5.5-.7.8-.2-.1-.4-.3-.6-.4-.4-.3-.7-.7-1.1-1-.8-.6-1.6-1.2-2.4-1.7-.8-.5-1.6-1.1-2.5-1.6l-1.2-.6-.6-.4c1.8-1 6.2-3.6 9.2-6.2 3-2.6 10.2-8 10.2-8l4.1-2.1s-3.7 14.6-3.7 15.3c0 .8-.4 5.9-.7 10.5-.4 5.7-.5 7.3-.5 7.5 0 .1 0 .3.1.4-.2.6-.4 1.2-.5 1.9l-.9 3.9c-.3 1.3-.5 2.6-.8 3.9-.2 1.3-.5 2.6-.7 3.9-.1 2.3-.2 4.5-.1 6.8.4-2.2.7-4.5 1-6.7.3-1.3.5-2.6.8-3.9.2-1.3.5-2.6.7-3.9l.6-3.9c0-.2.1-.5.1-.7 1.1 7.5 5.2 32.6 6 36.9l-9 .1zm57 0H84.2c-3.7 0-7.4 0-11.2.1-.4-2.4-2.8-16.6-4.4-27.2.8.7 1.6 1.4 2.4 2 3 2.6 5.9 5.1 8.9 7.6 1.6 1.2 3.3 2.2 5 3.2 1.7 1 3.4 1.9 5.2 2.9 3.5 1.9 7 3.7 10.5 5.5l.2.1.2-.1c3.6-1.9 7.1-3.7 10.7-5.7 3.5-1.9 7.1-3.9 10.4-6.1l1.2-.9c.4-.4.8-.7 1.1-1.1.7-.7 1.4-1.5 2-2.3 1.3-1.5 2.6-3.1 3.8-4.7.5-.6.9-1.1 1.4-1.7-1.7 10.7-4.2 25.9-4.7 28.4h-7.1zm8.2 0c.7-4.3 4.9-29.4 6-36.9 0 .2.1.5.1.7l.6 3.9c.2 1.3.5 2.6.7 3.9.3 1.3.5 2.6.8 3.9.2 2.2.6 4.5 1 6.7.1-2.3 0-4.6-.1-6.8-.2-1.3-.4-2.6-.7-3.9-.2-1.3-.5-2.6-.8-3.9l-.9-3.9c-.1-.6-.3-1.2-.5-1.9 0-.2 0-.3.1-.4 0-.2-.1-1.8-.5-7.5-.3-4.6-.7-9.8-.7-10.6 0-.9-3.7-15.8-3.7-15.8l4.2 2.6s7.2 5.4 10.2 8c3 2.6 7.4 5.2 9.2 6.2l-.6.4-1.2.6c-.9.5-1.7 1-2.5 1.6-.8.6-1.6 1.1-2.4 1.7-.4.3-.7.7-1.1 1-.2.2-.4.3-.6.4-.2-.2-.5-.5-.7-.8-2.4-2.5-4.6-5.2-6.8-7.9 1.8 3 3.9 5.8 6.1 8.5 2.2 2.7 4.6 5.3 7.4 7.5 2.7 2.2 5.5 4.3 8.2 6.4 2.4 1.9 4.8 3.7 7.2 5.5-1.7 1.1-3.3 2.2-5 3.4-2 1.4-4.1 2.8-6.1 4.2-2 1.4-4 2.8-6 4.3-1 .7-2 1.4-3 2.2-.9.8-1.9 1.6-2.8 2.5l-.1.1-.1.1c-1 2.4-2.1 4.9-3.1 7.3l-2.7 6.6-9.1.1zm41.7 0c.2-1.6.4-3.1.6-4.7.3-1.9.5-3.7.9-5.5.9-3.6 1.6-7.3 2.5-10.9.4-1.8.9-3.6 1.4-5.4s1.1-3.6 2-5.1c.9-1.5 2.1-3 3.3-4.5l1.8-2.1c.3-.4.6-.7.9-1 .3-.3.6-.7 1-.9-.8.4-1.5 1.2-2.2 1.8l-2 2c-1.3 1.4-2.5 2.8-3.6 4.4-1.1 1.6-1.6 3.4-2.2 5.2-.6 1.8-1.1 3.6-1.5 5.4-.9 3.7-1.6 7.3-2.3 11-.4 3.4-.6 6.8-.6 10.3h-32.4l3.3-6.3c1.2-2.3 2.4-4.6 3.5-6.9l2.8-2.2c1-.7 2-1.4 3-2l6.1-4.1 6.1-4.1 6.1-4.1 1.2-.8-1.1-.8c-2.8-2.1-5.6-4.2-8.4-6.2l-8.4-6.1c-2.4-1.8-4.6-3.8-6.7-6l.6-.3c.4-.2.8-.5 1.2-.8l2.5-1.5c.6-.3 1.2-.7 1.8-1.1 1 .6 5.9 3.3 10.8 4.8 2.7.8 7.7 2.1 12.1 3.2 4.2 1.1 8.5 2.2 8.9 2.4.6.3 1.6 1.8 2.1 2.7l.1.2.2.1s4.1 1 4.6 10.6c.5 9.1 1.1 26.2 1.2 29.4h-21.2zm22.4 1z" fill="#581900" stroke-width="none" opacity="1" stroke="none"></path></g><g id="svga-group-head" transform="matrix(1,0,0,1,0,0)"><g id="svga-group-ears-left-move" transform="matrix(1,0,0,1,0,0)"><g id="svga-group-ears-left" transform="matrix(1,0,0,1,0,0)"><path id="SvgjsPath72290" d="M70.01 81.26s-3.24-4.86-12.55-8.1c0 0-3.1-.67-10.39 10.66 0 0-1.35 5.94 5.13 15.65 0 0 6.34 3.37 16.73-1.21 0 0 4.72-7.69 1.08-17z" fill="#f4baa3" stroke-width="none" opacity="1" stroke="none"></path><path id="SvgjsPath72291" d="M68.66 90.08s-5.67-8.43-10.93-11.38c0 0-3.51 2.67-6.48 7.73 0 0 2.97 6.89 4.45 8.71 0 0 3.64 1.41 11.2-.56l1.76-4.5z" fill="#e59e82" stroke-width="none" opacity="1" stroke="none"></path><path id="SvgjsPath72292" d="M46.91 83.79c-.12.72-.12 1.43-.08 2.13.03.71.12 1.41.22 2.1.23 1.39.63 2.75 1.08 4.08.45 1.34 1.04 2.62 1.65 3.9.32.63.66 1.25 1 1.87l1.1 1.81.05.08.09.04c1.39.67 2.82.98 4.28 1.17 1.46.18 2.94.17 4.4.04 1.46-.13 2.9-.44 4.3-.84.71-.19 1.39-.45 2.08-.68l2.03-.82.13-.05.07-.12c.77-1.34 1.25-2.75 1.64-4.19.39-1.44.58-2.93.62-4.41.04-1.48-.04-2.97-.34-4.41-.21-1.46-.68-2.86-1.19-4.24-.75-1.04-1.67-1.91-2.62-2.75-.96-.83-1.97-1.6-3.03-2.3-1.06-.7-2.17-1.33-3.3-1.9-1.14-.58-2.32-1.04-3.51-1.49l-.03-.01h-.02c-.53-.05-.8.08-1.15.19-.32.12-.62.29-.91.46-.56.36-1.08.76-1.57 1.19-.98.85-1.83 1.83-2.63 2.82-1.61 2-2.97 4.15-4.35 6.28l-.02.03.01.02zm.32.09c.7-1.04 1.4-2.08 2.17-3.07.76-1.01 1.55-1.99 2.39-2.94.84-.93 1.7-1.85 2.64-2.66.47-.4.96-.78 1.48-1.09.26-.16.52-.29.79-.4.24-.1.57-.18.69-.18l1.73.62 1.73.71c1.15.49 2.28 1.03 3.37 1.66 1.08.63 2.15 1.3 3.12 2.09.97.79 1.9 1.66 2.65 2.66.47 1.38.89 2.78 1.07 4.23.2 1.44.19 2.91.05 4.35-.13 1.44-.45 2.86-.87 4.23-.4 1.33-.96 2.63-1.61 3.8l-1.83.73c-.67.21-1.34.46-2.02.64-1.36.38-2.75.65-4.14.82-1.4.15-2.81.18-4.21.04-1.35-.15-2.75-.43-3.95-.95l-1.08-1.65-1.06-1.79c-.66-1.22-1.3-2.46-1.79-3.76-.51-1.29-.92-2.63-1.17-4-.27-1.35-.38-2.76-.15-4.09z" fill="#e59e82" stroke-width="none" opacity="1" stroke="none"></path><path id="SvgjsPath72293" d="M52.21 84.06c.46-.6.96-1.16 1.45-1.73 1.01-1.12 2.05-2.19 3.12-3.26l.12-.12.16.12c.9.67 1.74 1.43 2.52 2.24.77.82 1.44 1.71 2.09 2.62 1.27 1.84 2.38 3.77 3.26 5.82l-.08.04c-1.24-1.84-2.49-3.65-3.81-5.4-.66-.87-1.34-1.73-2.03-2.57-.66-.79-1.34-1.57-2.09-2.27-1.1.89-2.11 1.91-3.01 3-.91 1.1-1.7 2.31-2.27 3.59.53 1.19 1.08 2.38 1.66 3.54.53 1.03 1.08 2.07 1.7 3.01.68-.6 1.35-1.23 1.97-1.88.72-.77 1.38-1.61 1.82-2.53-.13-.47-.36-.96-.61-1.42a7.38 7.38 0 0 0-1.01-1.36l.06-.07c.46.35.88.77 1.24 1.23.18.23.35.48.49.74.15.26.28.52.39.83l.02.07-.03.1c-.36 1.14-1.06 2.08-1.76 2.96-.72.89-1.51 1.68-2.37 2.45l-.39.34-.31-.42c-.85-1.16-1.45-2.4-2.02-3.65-.58-1.25-1.09-2.51-1.56-3.8l-.06-.15.07-.12c.38-.72.81-1.35 1.27-1.95z" fill="#c66c49" stroke-width="none" opacity="1" stroke="none"></path></g></g><g id="svga-group-ears-right-move" transform="matrix(1,0,0,1,0,0)"><g id="svga-group-ears-right" transform="matrix(1,0,0,1,0,0)"><path id="SvgjsPath72294" d="M129.99 81.26s3.24-4.86 12.55-8.1c0 0 3.1-.67 10.39 10.66 0 0 1.35 5.94-5.13 15.65 0 0-6.34 3.37-16.73-1.21 0 0-4.72-7.69-1.08-17z" fill="#f4baa3" stroke-width="none" opacity="1" stroke="none"></path><path id="SvgjsPath72295" d="M131.34 90.08s5.67-8.43 10.93-11.38c0 0 3.51 2.67 6.48 7.73 0 0-2.97 6.89-4.45 8.71 0 0-3.64 1.41-11.2-.56l-1.76-4.5z" fill="#e59e82" stroke-width="none" opacity="1" stroke="none"></path><path id="SvgjsPath72296" d="m153.08 83.76-.02-.03c-1.38-2.13-2.74-4.29-4.35-6.28-.8-1-1.65-1.97-2.63-2.82-.49-.43-1-.84-1.57-1.19-.28-.18-.58-.34-.91-.46-.35-.11-.63-.24-1.15-.19h-.02l-.03.01c-1.19.45-2.38.92-3.51 1.49-1.14.58-2.24 1.2-3.3 1.9-1.06.7-2.07 1.47-3.03 2.3-.95.84-1.86 1.71-2.62 2.75-.51 1.38-.98 2.78-1.19 4.24-.29 1.45-.38 2.93-.34 4.41.04 1.48.23 2.97.62 4.41.39 1.45.87 2.85 1.64 4.19l.07.12.13.05 2.03.82c.69.22 1.38.49 2.08.68 1.41.4 2.84.7 4.3.84 1.46.13 2.94.14 4.4-.04 1.47-.19 2.9-.49 4.28-1.17l.09-.04.05-.08 1.1-1.81c.33-.62.68-1.24 1-1.87.61-1.27 1.2-2.56 1.65-3.9.45-1.33.85-2.69 1.08-4.08.11-.7.19-1.4.22-2.1.04-.71.04-1.41-.08-2.13l.01-.02zm-.43 4.21c-.25 1.37-.65 2.71-1.17 4-.49 1.3-1.13 2.54-1.79 3.76l-1.06 1.79-1.08 1.65c-1.21.52-2.6.81-3.95.95-1.4.14-2.81.11-4.21-.04-1.4-.17-2.78-.44-4.14-.82-.68-.18-1.35-.43-2.02-.64l-1.83-.73c-.65-1.18-1.21-2.48-1.61-3.8-.42-1.38-.74-2.79-.87-4.23-.14-1.44-.15-2.9.05-4.35.17-1.45.6-2.85 1.07-4.23.74-1 1.67-1.88 2.65-2.66.98-.79 2.04-1.46 3.12-2.09 1.09-.62 2.22-1.16 3.37-1.66l1.73-.71 1.73-.62c.11 0 .45.08.69.18.26.12.53.25.79.4.51.31 1.01.68 1.48 1.09.94.81 1.8 1.73 2.64 2.66.83.94 1.63 1.93 2.39 2.94.77.99 1.47 2.03 2.17 3.07.2 1.33.09 2.74-.15 4.09z" fill="#e59e82" stroke-width="none" opacity="1" stroke="none"></path><path id="SvgjsPath72297" d="M147.79 84.06c-.46-.6-.96-1.16-1.45-1.73a87.123 87.123 0 0 0-3.12-3.26l-.12-.12-.16.12c-.9.67-1.74 1.43-2.52 2.24-.77.82-1.44 1.71-2.09 2.62-1.27 1.84-2.38 3.77-3.26 5.82l.08.04c1.24-1.84 2.49-3.65 3.81-5.4.66-.87 1.34-1.73 2.03-2.57.66-.79 1.34-1.57 2.09-2.27 1.1.89 2.11 1.91 3.01 3 .91 1.1 1.7 2.31 2.27 3.59-.53 1.19-1.08 2.38-1.66 3.54-.53 1.03-1.08 2.07-1.7 3.01-.68-.6-1.35-1.23-1.97-1.88-.72-.77-1.38-1.61-1.82-2.53.13-.47.36-.96.61-1.42.28-.49.62-.94 1.01-1.36l-.06-.07c-.46.35-.88.77-1.24 1.23-.18.23-.35.48-.49.74-.15.26-.28.52-.39.83l-.02.07.03.1c.36 1.14 1.06 2.08 1.76 2.96.72.89 1.51 1.68 2.37 2.45l.39.34.31-.42c.85-1.16 1.45-2.4 2.02-3.65.58-1.25 1.09-2.51 1.56-3.8l.06-.15-.07-.12c-.38-.72-.81-1.35-1.27-1.95z" fill="#c66c49" stroke-width="none" opacity="1" stroke="none"></path></g></g><g id="svga-group-faceshape-wrap" transform="matrix(1,0,0,1,0,0)"><g id="svga-group-faceshape-single"><path id="SvgjsPath72370" d="M140.23 54.83c-2.2-10-6.4-15.85-15.3-20.65-9.3-5-24.9-4.73-24.9-4.73s-15.93-.18-25.23 4.82c-8.8 4.8-12.86 10.64-15.06 20.64-.9 4 .02 13.62.02 13.62s1 9.87.7 16.37c-.3 6.6-1.06 19.94.34 21.94s32.47 42.97 33.97 44.17c1.4 1.1 8.83 1.18 10.23.08s32.45-42.47 33.95-44.47c1.4-2 .69-14.44.39-21.04s.47-15.29.47-15.29 1.32-11.46.42-15.46z" fill="#f4baa3" stroke-width="none" opacity="1" stroke="none"></path><path id="SvgjsPath72371" d="M139.64 84.83c-.3-6.6.66-16.33.66-16.33s1.02-9.58.12-13.68c-2.2-10-6.42-15.92-15.32-20.72-9.3-5-25.2-4.8-25.2-4.8s-15.9-.2-25.2 4.8C66 38.9 61.8 44.9 59.6 54.9c-.9 4 0 13.6 0 13.6s1.1 9.9.8 16.4c-.3 6.6-1.1 20 .3 22 1.4 2 32.5 43.2 34 44.4 1.4 1.1 9.2 1.1 10.6 0s32.5-42.4 34-44.4c1.4-2 .64-15.47.34-22.07zM84.2 31.8c3.1-.6 6.3-1.1 9.5-1.3 1.6-.1 3.2-.25 4.8-.3 1.6-.05 3.2 0 4.8 0 3.2.1 6.4.3 9.6.8s6.1 1.32 9.1 2.42c1.03.3 10.98 5.34 14.33 12.04 1.46 2.92 2.63 6.19 3.33 9.29.89 3.46.44 8.95.34 10.05-.1 1.1-.2 2.3-.3 3.4-.2 1.6-.47 3.17-.57 4.87-.2 1.6-.23 3.23-.33 4.93-.1 1.6.2 8.3.2 10 .1 3.2.2 10.5.1 13.7 0 .8.02 2.48-.4 3.5-.53 1.19-1.6 2.7-1.6 2.7l-1.5 1.9c-4 5.2-7.9 9.4-11.8 14.6l-5.9 7.8-5.8 7.8-5.9 7.8c-.5.6-1 1.3-1.5 1.9-1.49.94-2.7.9-3.5 1s-3.8-.1-4.6-.2c-.4-.1-1.02-.11-1.6-.5-.24-.16-1.5-1.8-1.5-1.8l-1.5-1.9c-2-2.6-4-5.1-5.9-7.7l-11.8-15.5c-4-5.2-7.9-9.3-11.8-14.5l-1.5-1.9s-.74-1.21-.9-6.8c0-3.2.28-10.47.48-13.67.3-6.5-.25-13.11-.75-19.51-.2-3.2-.33-6.48-.03-9.68 0-.4.6-4.04.8-4.74.4-1.5 1-3 1.6-4.5s1.4-2.8 2.3-4.1c.9-1.3 1.9-2.5 3-3.6.5-.6 1.2-1 1.8-1.6.6-.5 1.2-1 1.9-1.4 1.3-.9 2.9-1.71 4.3-2.41 2.8-1.4 5.6-2.29 8.7-2.89" fill="#c66c49" stroke-width="none" opacity="1" stroke="none"></path></g></g><g id="svga-group-mouth-single-move" transform="matrix(1,0,0,1,0,0)"><g id="svga-group-mouth-single" transform="matrix(1,0,0,1,0,0)"><path id="SvgjsPath72445" d="M85.21 121.82c.18-.06 14.39 5.08 14.39 5.08l1.41 1.99 1.71-2.42s6.32-2.18 13.36-8.02c0 0-4.45 6.65-8.01 9.61-3.56 2.97-6.47 4.09-7.42 4.03-.95-.06-10.09-5.04-11.51-6.23-1.43-1.18-3.93-4.04-3.93-4.04z" fill="#f18f77" stroke-width="none" opacity="1"></path><path id="SvgjsPath72446" d="M118.5 117.2c-.8-.8-2.3-1.9-3.5-1.6-.3.1-.6.5-.3.8.4.5.9.8 1.5 1.1-1.8 2.7-3.8 4.9-6.2 7.1-2.6 2.3-6.7 6.3-10.2 5.6-2.8-.6-6.1-2.7-8.6-4.2-2.8-1.7-4.9-3.9-7.3-5.9l.2-.2c.8-.7 2-1.1 2.8-1.9.4-.4.2-.9-.3-1.1-1.3-.5-3 .5-3.9 1.4-1.1 1-2 2.3-2 3.8 0 .6.9 1.1 1.3.5s.8-1.2 1.2-1.7c2 2.9 5 5.3 7.7 7.4 1.7 1.3 3.4 2.4 5.3 3.3 1.5.7 3.6 2 5.3 2 1.8 0 3.2-1.5 4.4-2.5 1.8-1.5 3.4-3.1 5-4.8 2.1-2.2 5.2-4.9 6.3-8l.1.1c.8.8 1.1 2 2 2.6.3.2.8 0 .9-.4.4-1.2-.9-2.6-1.7-3.4z" fill="#e27459" stroke-width="none" opacity="1"></path></g></g><g id="svga-group-eyes-left-move" transform="matrix(1,0,0,1,0,0)"><g id="svga-group-eyes-left" transform="matrix(1,0,0,1,0,0)"><g id="svga-group-eyesback-left"><path id="SvgjsPath72324" d="M80.2 74.2c7.5 0 13.5 5.8 13.5 13s-6 13-13.5 13-13.5-5.8-13.5-13 6-13 13.5-13z" fill="#ffffff" stroke-width="none" opacity="1"></path></g><g id="svga-group-eyesiriswrapper-left" transform="matrix(1,0,0,1,0,0)"><g id="svga-group-eyesiriscontrol-left" transform="matrix(1,0,0,1,0,0)"><g id="svga-group-eyesiris-left" transform="matrix(1,0,0,1,0,0)"><path id="SvgjsPath72384" d="M80.2 81.6c3.1 0 5.6 2.5 5.6 5.6s-2.5 5.6-5.6 5.6-5.6-2.5-5.6-5.6 2.5-5.6 5.6-5.6z" fill="#724f7c" stroke-width="none" opacity="1"></path><path id="SvgjsPath72385" d="M80.2 84.2c1.7 0 3 1.3 3 3s-1.3 3-3 3-3-1.3-3-3 1.3-3 3-3z" fill="#000000" stroke-width="none" opacity="1"></path><path id="SvgjsPath72386" d="m79.5 84.8-.6-.6c-.2-.2-.5-.3-.8-.3s-.6.1-.8.3c-.2.2-.3.5-.3.8s.1.6.3.8l.6.6c.2.2.5.3.7.3.3 0 .6-.1.7-.3.6-.6.6-1.2.2-1.6zm2.7 5.1c1 0 1-1.5 0-1.5-.9 0-.9 1.5 0 1.5z" fill="#ffffff" stroke-width="none" opacity="1"></path></g></g></g><g id="svga-group-eyesfront-left"><path id="SvgjsPath72332" d="M80.2 73.68c-7.76 0-14.06 6.06-14.06 13.55s6.29 13.55 14.06 13.55 14.06-6.06 14.06-13.55-6.3-13.55-14.06-13.55zm1.43 21.93c-2.87.55-12.6-1.99-12.64-2.45-.04-.46 4.34-8.5 6.7-9.62s6.86-4.11 8.12-3.76c1.26.35 4.38 6.38 5.62 11.95 0-.01-4.93 3.33-7.8 3.88z" fill="#f4baa3" stroke-width="none" opacity="1" stroke="none"></path><path id="SvgjsPath72333" d="M84.67 98.44c-.98.87-6.07 2.75-6.07 2.75s3.78-.32 5.53-1.39c1.75-1.07 5.32-6.89 5.32-6.89s-3.8 4.66-4.78 5.53z" fill="#d58464" stroke-width="none" opacity="1" stroke="none"></path><path id="SvgjsPath72334" d="m88.76 83.77 2.52-4.55-3.52-.04-2.89-.75s-9.45 4.32-10.23 4.91c-.78.58-4.7 6.71-5.68 8.55-.98 1.84-.91 3.9-.91 3.9.19-.45.63-1.3 1.2-2.34.11.05.23.1.34.15 2.22.77 4.48 1.37 6.78 1.85 1.15.21 2.31.42 3.5.48.59.03 1.19.04 1.81-.07.59-.13 1.16-.32 1.71-.55 2.18-.94 4.15-2.17 6.07-3.56-.01-.03-.01-.06-.02-.1.28-2.35-.46-6.11-.68-7.88zm-5.54 11.11c-.54.21-1.08.38-1.63.49-.54.09-1.11.07-1.69.03-1.15-.09-2.3-.24-3.44-.44-1.15-.19-2.29-.4-3.43-.66-1.14-.25-2.27-.52-3.37-.91-.11-.04-.21-.08-.32-.13 1.77-3.21 4.72-8.09 5.79-8.95.91-.72 5.6-2.55 9-3.82.23.22.44.45.65.71.21.29.42.58.61.89.6.98 1.12 2.02 1.61 3.07.97 2.1 1.78 4.31 2.39 6.53-1.97 1.18-4.03 2.36-6.17 3.19z" fill="#000000" stroke-width="none" opacity="1" stroke="none"></path></g></g></g><g id="svga-group-eyes-right-move" transform="matrix(1,0,0,1,0,0)"><g id="svga-group-eyes-right" transform="matrix(1,0,0,1,0,0)"><g id="svga-group-eyesback-right"><path id="SvgjsPath72325" d="M119.8 74.2c7.5 0 13.5 5.8 13.5 13s-6 13-13.5 13-13.5-5.8-13.5-13 6-13 13.5-13z" fill="#ffffff" stroke-width="none" opacity="1"></path></g><g id="svga-group-eyesiriswrapper-right" transform="matrix(1,0,0,1,0,0)"><g id="svga-group-eyesiriscontrol-right" transform="matrix(1,0,0,1,0,0)"><g id="svga-group-eyesiris-right" transform="matrix(1,0,0,1,0,0)"><path id="SvgjsPath72387" d="M119.8 82.3c2.7 0 4.9 2.2 4.9 4.9s-2.2 4.9-4.9 4.9-4.9-2.2-4.9-4.9 2.2-4.9 4.9-4.9z" fill="#724f7c" stroke-width="none" opacity="1"></path><path id="SvgjsPath72388" d="M119.8 84.6c1.4 0 2.6 1.2 2.6 2.6s-1.2 2.6-2.6 2.6-2.6-1.2-2.6-2.6 1.2-2.6 2.6-2.6z" fill="#000000" stroke-width="none" opacity="1"></path><path id="SvgjsPath72389" d="M119.2 85.1c-.2-.2-.3-.4-.5-.5-.2-.2-.4-.3-.7-.3-.2 0-.5.1-.7.3-.2.2-.3.4-.3.7 0 .2.1.5.3.7.2.2.4.3.5.5.2.2.4.3.7.3.2 0 .5-.1.7-.3.3-.5.3-1.1 0-1.4zm2.4 4.5c.8 0 .9-1.3 0-1.3-.8-.1-.8 1.3 0 1.3z" fill="#ffffff" stroke-width="none" opacity="1"></path></g></g></g><g id="svga-group-eyesfront-right"><path id="SvgjsPath72335" d="M119.8 73.68c-7.76 0-14.06 6.06-14.06 13.55s6.29 13.55 14.06 13.55 14.06-6.06 14.06-13.55-6.29-13.55-14.06-13.55zm-.1 19.3c-2.69-.48-7.92-1.42-7.92-1.42 1.09-5.23 3.93-10.91 5.11-11.25 1.17-.35 5.42 2.39 7.65 3.41 2.22 1.02 6.42 8.49 6.39 8.92s-8.54.82-11.23.34z" fill="#f4baa3" stroke-width="none" opacity="1" stroke="none"></path><path id="SvgjsPath72338" d="M130.94 91.45c-.94-1.71-4.69-7.39-5.43-7.93-.74-.54-9.64-4.46-9.64-4.46l-2.69.74s1.15.39 2.73.95c-.07.08-.13.16-.19.25-.33.45-.61.92-.86 1.4-.51.96-.95 1.95-1.35 2.95-.78 2.02-1.4 4.06-1.74 6.23 2.02.45 4.13.91 6.28 1.34l1.61.31c.55.1 1.09.15 1.63.18 1.08.06 2.16.05 3.23.03 1.07-.04 2.15-.11 3.22-.2l1.6-.16c.27-.03.53-.06.8-.1.18-.04.35-.06.53-.11.56.99.99 1.8 1.18 2.22-.01 0 .03-1.93-.91-3.64zm-.84 1.31c-.26.03-.53.06-.79.08-.53.05-1.07.06-1.6.08-1.07.03-2.14.04-3.21.02-2.14-.01-4.27-.04-6.31-.48-2.07-.33-4.18-.62-6.38-.93a40.47 40.47 0 0 1 2.12-6.01c.43-.97.89-1.93 1.42-2.85.27-.45.54-.9.85-1.32.1-.13.21-.26.32-.39 3.2 1.15 7.67 2.81 8.53 3.48 1.01.78 3.8 5.25 5.5 8.23-.14.05-.3.07-.45.09z" fill="#000000" stroke-width="none" opacity="1" stroke="none"></path><path id="SvgjsPath72339" d="M112.18 93.13s5.73 4.16 8.05 4.6c2.32.44 6.81-.4 6.81-.4s-6.43-.17-7.8-.66c-1.38-.49-7.06-3.54-7.06-3.54z" fill="#d58464" stroke-width="none" opacity="1" stroke="none"></path></g></g></g><g id="svga-group-facehighlight-single"></g><g id="svga-group-eyebrows-left-move" transform="matrix(1,0,0,1,0,0)"><g id="svga-group-eyebrows-left-rotate" transform="matrix(1,0,0,1,0,0)"><g id="svga-group-eyebrows-left" transform="matrix(1,0,0,1,0,0)"><path id="SvgjsPath72249" d="M93.2 68.2s-1.8 4.7-3.3 5.6-18.1.7-18.1.7-4.2 2.2-5.5 3.9l3.3-8.3.4.4 10.4-1.7-1.2.8 13-1.7-1.3 2.2 2.3-1.9z" fill="#a46c47" stroke-width="none" opacity="1"></path><path id="SvgjsPath72250" d="m66 79.1.4-.6c.3-.4.7-.8 1.1-1.2.2-.2.4-.3.7-.5.2-.2.5-.3.7-.5.5-.3 1-.6 1.4-.9s1-.6 1.5-.8c2.2.1 4.3.1 6.4.1 2.2 0 4.3 0 6.5-.1 1.1-.1 2.2-.1 3.2-.2.5-.1 1.1-.1 1.6-.3l.2-.1c.1 0 .1-.1.2-.1.1-.1.2-.2.3-.2l.3-.3.2-.3c.3-.4.5-.8.8-1.2l.6-1.2c.2-.4.4-.8.5-1.2.1-.2.2-.4.2-.6l.1-.3.1-.2v-.2l-1.2.9c-.3.2-.5.4-.8.6l1.1-1.8.1-.2h-.3l-3.3.4-3.3.4c-1.1.1-2.2.3-3.3.4l-2.2.3.4-.2.9-.6-1.1.2-2.6.4-2.6.4-5.1.8-.4-.3-.2-.2-.1.3-1.6 4.2-.4 2.2c-.3.7-.5 1.4-.8 2.1l-.2.6zm.6-1.1c.2-.5.4-1.1.7-1.6l.8-2.1 1.6-3.8.2.2.1.1h.1l5.2-.8 2.6-.4 1.5-.2-.4.1-.8.5 1.1-.1 3.3-.4c1.1-.1 2.2-.3 3.2-.5l3.2-.5 3-.4-1.1 2-.3.5.4-.4 1.1-.9c.4-.3.7-.6 1.1-1l-.1.1v.1l-.1.1-.1.3-.3.6-.6 1.2c-.4.8-.9 1.6-1.4 2.3l-.2.3-.2.2c-.1.1-.2.1-.3.2l-.1.1-.2.1c-.5.1-1 .2-1.6.2-1.1.1-2.1.2-3.2.2-2.2.1-4.3.1-6.5.2-2.2 0-4.3.1-6.5.1-1 .6-2 1.1-3 1.8-.5.3-.9.7-1.4 1-.3.1-.6.4-.8.6zm23.1-9c-.6.3-1.1.7-1.6 1-.5.3-1.1.7-1.6 1.1-.5.4-1 .7-1.6 1.1s-1 .8-1.5 1.1l.4.2c.2-.7.3-1.3.4-2l.1-.4-.4.3c-.6.5-1.2 1-1.7 1.5.7-.4 1.3-.8 1.9-1.3l-.3-.1c-.2.7-.4 1.3-.6 1.9l-.2.6.6-.4c.5-.4 1-.7 1.5-1.1l1.5-1.2 1.5-1.2c.6-.3 1.1-.7 1.6-1.1zm-10.9 1.6c-.7.4-1.4.9-2.2 1.4-.7.5-1.4.9-2.1 1.4l.4.2c.1-.3.2-.6.4-1 .1-.3.2-.6.4-1l.2-.5-.5.2c-.5.2-1.1.5-1.6.7s-1 .5-1.5.8c-.5.3-1 .6-1.4.9-.4.3-.9.7-1.2 1.1.4-.3.9-.6 1.4-.9.5-.3 1-.6 1.5-.8.5-.2 1-.5 1.5-.7.5-.2 1-.5 1.6-.7l-.3-.2c-.1.3-.2.6-.4 1-.1.3-.2.6-.3 1l-.2.6.6-.4c.7-.5 1.3-1 2-1.5.4-.5 1.1-1 1.7-1.6z" fill="#955932" stroke-width="none" opacity="1"></path></g></g></g><g id="svga-group-eyebrows-right-move" transform="matrix(1,0,0,1,0,0)"><g id="svga-group-eyebrows-right-rotate" transform="matrix(1,0,0,1,0,0)"><g id="svga-group-eyebrows-right" transform="matrix(1,0,0,1,0,0)"><path id="SvgjsPath72251" d="M108.2 71.1s2.3 4.4 3.6 5.2c1.4.7 15.7-1.3 15.7-1.3s4 1.7 5.3 3.2l-4-7.8-.3.4-9.2-.5 1.2.6-11.5-.2 1.4 2-2.2-1.6z" fill="#a46c47" stroke-width="none" opacity="1"></path><path id="SvgjsPath72252" d="M132.9 78.2c-.3-.7-.7-1.3-1-2l-1-2-2-3.9-.1-.3-.2.2-.3.3-4.5-.3-2.3-.1-2.3-.1-1-.1.9.5.4.2H108.7l.1.2 1.2 1.6c-.2-.2-.5-.3-.8-.5-.4-.2-.8-.5-1.1-.8v.2l.1.2.2.3.3.6c.2.4.4.8.7 1.2.2.4.5.8.7 1.1s.5.7.8 1.1l.2.3.3.2c.1.1.2.1.3.2.1 0 .1.1.2.1h.2c.5.1 1 .1 1.4.1.9 0 1.9-.1 2.8-.2 1.9-.1 3.7-.4 5.6-.6 1.8-.2 3.7-.5 5.5-.8.5.2.9.4 1.4.6.5.2.9.5 1.4.7.2.1.4.3.7.4.2.1.4.3.6.4.4.3.8.6 1.1 1l.4.5-.1-.5zm-1.2-1.1c-.4-.3-.9-.6-1.3-.8-.9-.5-1.8-1-2.8-1.4-1.8.2-3.7.5-5.6.7-1.9.2-3.7.4-5.6.6-.9.1-1.9.2-2.8.2-.5 0-.9 0-1.4-.1H111.9c-.1-.1-.2-.1-.3-.2l-.2-.2-.2-.2c-.6-.7-1.1-1.4-1.6-2.2-.2-.4-.5-.8-.7-1.1l-.3-.6-.2-.3-.1-.2v-.1l-.1-.1c.4.3.7.6 1.1.8l1.1.8.4.3-.3-.4-1.3-1.8 2.6.1 2.9.1c.9 0 1.9.1 2.9.1l2.9.1h.9l-.8-.4-.3-.2 1.3.1 2.3.1 4.6.2h.1l.1-.1.1-.2 1.9 3.6 1 1.9c.3.5.5 1 .8 1.5-.2-.2-.5-.4-.8-.6zm-20.4-5.6c.5.3 1 .6 1.6.8s1 .6 1.5.9l1.5.9 1.5.9-.3.2c-.2-.6-.4-1.3-.7-1.9l-.1-.4.3.3c.6.4 1.1.8 1.7 1.3-.6-.3-1.2-.7-1.8-1.1l.2-.2c.3.6.5 1.2.8 1.9l.2.6-.5-.3-1.5-.9c-.5-.3-1-.6-1.5-1s-1-.7-1.4-1c-.5-.3-1-.7-1.5-1zm9.6.3c.7.3 1.4.7 2.1 1.1s1.3.8 2 1.2l-.3.2c-.2-.3-.3-.6-.5-.9-.2-.3-.3-.6-.5-.9l-.2-.4.5.2c.5.2 1 .3 1.5.5s.9.4 1.4.6c.5.2.9.5 1.4.8.4.3.9.6 1.2.9-.4-.3-.9-.5-1.3-.8-.5-.2-.9-.4-1.4-.6-.5-.2-.9-.4-1.4-.6-.5-.2-1-.3-1.4-.5l.3-.3c.2.3.3.6.4.9.2.3.3.6.4.9l.3.6-.6-.4c-.7-.4-1.3-.8-1.9-1.3-.7-.3-1.4-.7-2-1.2z" fill="#955932" stroke-width="none" opacity="1"></path></g></g></g><g id="svga-group-beardwrap" transform="matrix(1,0,0,1,0,0)"><g id="svga-group-beard-single-move" transform="matrix(1,0,0,1,0,0)"><g id="svga-group-beard-single" transform="matrix(1,0,0,1,0,0)"><path id="SvgjsPath72239" d="M60 87.7c-1.9 1.7-4.6 11.5-5.3 17.8-.6 6.4-.5 19.7 1.4 22.2l1.7-2.6s0 18.9 14.6 49.1l.5-4.3 2.7 7.6s5.2 6.1 14.7 11.2c9.6 5.1 16.5 2.1 16.5 2.1l.8-3.6 1.3 3.1s5.3-1.2 9.9-7.4l2.8-6.8.2 5.5s20.8-17.5 22.1-68l-1.3-3.6 2.1 2.3s.7-16.6-5.3-25.3c0 0-3.7-2.1-4.3 1.3s-2.5 12-3.8 17.6-11.8 25.2-17.7 29.6c-7.7 5.6-18.7 6.1-25.5 0-6.5-5.9-14.7-17.3-18.7-26.5-4.8-11.1-4.4-18.5-5.5-20.4s-3.9-.9-3.9-.9z" fill="#a46c47" stroke-width="none" opacity="1"></path><path id="SvgjsPath72240" d="M145 105.8c-.2-2.2-.4-4.4-.8-6.5-.4-2.2-.9-4.3-1.6-6.4-.7-2.1-1.6-4.1-2.8-6l-.1-.1-.1-.1c-.7-.4-1.5-.7-2.4-.7-.9-.1-1.9.4-2.3 1.3-.2.4-.3.8-.4 1.2l-.2 1.1-.5 2.2-1.9 8.8-.9 4.4c-.1.8-.3 1.4-.6 2.1-.3.7-.5 1.4-.8 2.1-1.1 2.7-2.5 5.4-3.8 8.1-1.4 2.6-2.9 5.2-4.5 7.8-1.6 2.5-3.3 5-5.2 7.3-.9 1.1-2 2.2-3.1 3.1-.6.4-1.2.9-1.8 1.2-.3.2-.6.4-1 .5l-1 .5c-2.7 1.2-5.6 1.9-8.5 2-2.9.1-5.9-.5-8.5-1.7-1.3-.6-2.6-1.4-3.7-2.4s-2.2-2-3.2-3.1c-4.1-4.3-7.7-9.2-10.8-14.2-1.6-2.5-3-5.2-4.3-7.8-1.3-2.7-2.3-5.5-3.2-8.3-.9-2.8-1.5-5.8-2-8.7l-.4-2.2c-.1-.7-.3-1.5-.6-2.2-.3-.7-1.1-1.2-1.8-1.2-.8-.1-1.5 0-2.2.3-.7.6-1 1.4-1.4 2.2-.4.8-.7 1.6-1 2.4-.6 1.6-1.1 3.3-1.5 4.9-.8 3.3-1.5 6.7-1.8 10.2-.2 3.4-.3 6.9-.2 10.3.1 1.7.2 3.4.4 5.2.1.9.2 1.7.4 2.6.2.8.4 1.7.9 2.5l.2.4.2-.4 1.2-1.8c.2 4 .8 8 1.6 11.9.9 4.2 2 8.4 3.2 12.5 1.3 4.1 2.7 8.2 4.3 12.1.8 2 1.7 4 2.5 5.9l2.7 5.8.6 1.4.2-1.5.3-2.5 2.1 5.9v.2c2 2.2 4.3 4.2 6.7 6 2.4 1.8 4.9 3.4 7.5 4.9 1.3.7 2.7 1.4 4.1 1.9 1.4.5 2.9.9 4.4 1.1 3 .5 6.1.4 8.9-.6h.1v-.1l.6-2.9 1 2.4.1.2.2-.1c1.1-.3 2-.7 2.9-1.2s1.8-1.1 2.7-1.7l2.4-2.1 2.1-2.4 2.6-6.1.1 4.8v.4l.3-.2c2.3-2.1 4.2-4.5 5.9-7 .9-1.2 1.7-2.6 2.5-3.9.8-1.3 1.5-2.7 2.2-4 2.8-5.4 4.9-11.2 6.6-17.1.4-1.5.8-2.9 1.2-4.4l1-4.5.5-2.2.4-2.3.7-4.5c.4-3 .7-6.1 1-9.1l.5-9.2v-.2l-.5-1.6.7.7.8.8v-1.1c.1-3 0-5.2-.1-7.3zm-3 26-.7 4.5-.4 2.2-.5 2.2-.9 4.5c-.4 1.5-.8 2.9-1.2 4.4-1.7 5.8-3.7 11.6-6.4 17-.7 1.3-1.4 2.7-2.2 4-.8 1.3-1.5 2.6-2.4 3.9-1.6 2.4-3.4 4.7-5.5 6.7l-.2-5.1v-.7l-.3.6-2.8 6.8c-.6.8-1.3 1.6-2 2.3-.7.8-1.5 1.4-2.3 2.1-.8.6-1.7 1.2-2.6 1.7-.8.5-1.8.9-2.7 1.1l-1.2-3-.3-.7-.2.8-.8 3.5c-2.7.9-5.7 1-8.5.5-1.4-.2-2.9-.7-4.2-1.1-1.4-.5-2.7-1.2-4-1.9-2.6-1.4-5.1-3-7.4-4.8-2.3-1.8-4.6-3.7-6.5-5.9l-2.6-7.5-.6-1.6-.2 1.7-.3 2.8-2.1-4.5c-.8-2-1.7-3.9-2.5-5.9-1.6-4-3.1-8-4.4-12.1-1.3-4.1-2.4-8.2-3.3-12.4-.9-4.2-1.6-8.4-1.8-12.7v-1l-.5.8-1.4 2.2c-.3-.6-.5-1.2-.6-1.9-.2-.8-.3-1.7-.4-2.5-.2-1.7-.3-3.4-.4-5.1-.1-3.4-.1-6.8.1-10.3.2-3.4.8-6.8 1.6-10.1.4-1.7.9-3.3 1.4-4.9l.9-2.4c.3-.8.7-1.6 1.3-2.2.7-.2 1.5-.3 2.2-.2.7.1 1.4.5 1.7 1.2.3.7.4 1.4.5 2.2l.3 2.2c.4 3 1 5.9 1.9 8.8 1.7 5.8 4.3 11.3 7.4 16.4 3.2 5.1 6.7 10 10.8 14.4 1 1.1 2.1 2.2 3.2 3.2 1.2 1 2.4 1.9 3.8 2.5 2.8 1.3 5.9 1.9 8.9 1.9 3.1-.1 6.1-.7 8.9-2l1-.5c.3-.2.7-.4 1-.6.7-.4 1.3-.8 1.9-1.2 1.2-.9 2.3-2 3.3-3.2 1.9-2.3 3.6-4.8 5.2-7.4 1.6-2.6 3.1-5.2 4.5-7.8 1.4-2.7 2.7-5.4 3.9-8.2.3-.7.6-1.4.8-2.1.2-.7.4-1.5.6-2.2l.9-4.4 1.9-8.8.5-2.2.2-1.1c.1-.3.1-.7.3-.9.3-.5.8-.8 1.4-.8.6 0 1.2.2 1.8.5 1.1 1.7 2 3.7 2.7 5.7.7 2 1.2 4.2 1.5 6.3.4 2.1.6 4.3.8 6.4.1 1.8.2 3.6.2 5.3l-1.3-1.5-1.5-1.6.7 2.1 1.3 3.5-.4 9c-.2 3-.4 6.1-.8 9.1zm-82.3-26.1c-.1 1.3-.2 2.7-.1 4s.2 2.7.4 4c.1-1.3.1-2.7.2-4 .1-1.3.2-2.6.3-4 .1-1.3.3-2.6.4-3.9l.6-3.9c-.5 1.2-.8 2.5-1.1 3.8-.4 1.4-.6 2.7-.7 4zm4.2 22.1c-.1-2.7-.1-5.3 0-7.9.1-2.7.3-5.3.5-7.9-.5 2.6-.8 5.3-1.1 7.9-.2 2.7-.2 5.3-.2 8 .1 2.7.3 5.3.6 8 .3 2.6.8 5.3 1.5 7.9-.4-2.6-.7-5.3-.9-7.9-.1-2.8-.3-5.4-.4-8.1zm4.7 17.8c-.3-2.7-.5-5.4-.7-8.1s-.3-5.4-.3-8.1c-.2 2.7-.3 5.4-.2 8.1.1 2.7.2 5.4.5 8.1.3 2.7.7 5.4 1.2 8.1.5 2.7 1.2 5.3 1.9 7.9-.5-2.7-1-5.3-1.4-8-.4-2.6-.8-5.3-1-8zm10.5 11.7c-.6-3.4-.9-6.9-1-10.3-.1-3.5 0-6.9.3-10.4-.6 3.4-.9 6.9-.9 10.4s.3 7 .9 10.4c.6 3.4 1.4 6.9 2.6 10.1 1.1 3.3 2.5 6.5 4.2 9.6-1.4-3.2-2.7-6.4-3.7-9.7-1-3.3-1.9-6.7-2.4-10.1zm14 17.1c-.5-2.5-.8-4.9-1.2-7.4l-.9-7.5c0 2.5.1 5 .3 7.5s.6 5 1 7.5c.5 2.5 1 4.9 1.7 7.4s1.4 4.8 2.3 7.2c-.6-2.4-1.2-4.9-1.8-7.3-.4-2.5-1-4.9-1.4-7.4zm13.6-20c-.1-2.7-.3-5.3-.5-8-.1 2.7-.1 5.3-.1 8s.1 5.3.1 8c.1 2.7.2 5.3.3 8 .1 2.7.3 5.3.5 8 .1-2.7.1-5.3.1-8s-.1-5.3-.1-8c-.1-2.7-.1-5.3-.3-8zm8 4.7c-.1 2.6-.2 5.3-.4 7.9-.1 2.6-.3 5.3-.5 7.9l-.6 7.9c.5-2.6.9-5.2 1.2-7.9.3-2.6.5-5.3.7-7.9.1-2.6.2-5.3.2-8 0-2.6-.1-5.3-.3-7.9l-.3 8zm8.3-6.9-1 11.5c.5-1.9.8-3.8 1.1-5.7.3-1.9.5-3.8.7-5.8.2-1.9.3-3.9.3-5.8s0-3.9-.2-5.8l-.9 11.6zm11.3-37.3.2 11.5.1 11.5c.3-1.9.4-3.8.6-5.8.1-1.9.1-3.9.1-5.8s-.1-3.9-.3-5.8c-.1-1.8-.3-3.7-.7-5.6zm-2.8 22.7c-.1 3-.2 6-.5 9-.2 3-.4 6-.7 9-.3 3-.6 6-.9 8.9.6-2.9 1.1-5.9 1.5-8.9s.6-6 .9-9a135.263 135.263 0 0 0 0-18l-.3 9zm5.1-31.8c.1 1.8.4 3.5.6 5.2.2 1.7.4 3.4.8 5.2.3-1.7.2-3.5 0-5.2-.3-1.9-.7-3.6-1.4-5.2z" fill="#955932" stroke-width="none" opacity="1"></path></g></g></g><g id="svga-group-mustache-single-move" transform="matrix(1,0,0,1,0,0)"><g id="svga-group-mustache-single" transform="matrix(1,0,0,1,0,0)"></g></g><g id="svga-group-nose-single-move" transform="matrix(1,0,0,1,0,0)"><g id="svga-group-nose-single" transform="matrix(1,0,0,1,0,0)"><path id="SvgjsPath72424" d="M98.34 75.84s-3.77 9.97-3.77 11.79c0 1.82 1.56 5.03 2.35 6.84 1.21 2.78 1.05 6.77-.04 7.74-1.09.97-1.94.61-2.92-.12-.97-.73-5.1-1.94-5.35 4.01s1.46 7.05 2.67 6.56c1.22-.49 2.31-4.86 3.65-.85 1.34 4.01 1.46 5.83 2.8 6.32s3.77.61 4.98-.24 1.82-4.5 2.31-7.17 1.94-.12 2.19 1.22c.24 1.34 1.58 1.7 2.55.97.97-.73 1.82-5.71 1.46-8.14-.36-2.43-2.92-4.74-5.35-2.92-2.43 1.82-3.04-3.28-2.92-4.62.12-1.34.67-4.02 1.52-5.96s-.16-5.62-.64-7.2c-.49-1.58-.76-6.16-1.49-7.5-.72-1.34-2.3-1.34-4-.73z" fill="#fcc9b5" stroke-width="none" opacity="1"></path><path id="SvgjsPath72425" d="M98.34 75.84c-.89 2.54-1.76 5.09-2.55 7.66-.38 1.28-.8 2.59-.99 3.88-.05.61.11 1.27.3 1.9.19.63.43 1.26.68 1.87.5 1.25 1.1 2.42 1.63 3.71.48 1.31.7 2.69.7 4.07 0 .69-.06 1.39-.23 2.09-.09.35-.21.7-.41 1.04-.1.16-.25.35-.4.47-.14.12-.29.24-.46.34-.33.2-.76.34-1.18.31-.43-.02-.8-.19-1.12-.37-.32-.18-.61-.43-.83-.54-.26-.13-.55-.23-.85-.3-.59-.13-1.21-.11-1.72.12-.52.22-.93.64-1.2 1.18-.28.53-.44 1.15-.53 1.78-.09.63-.11 1.29-.11 1.95 0 1.31.07 2.66.45 3.84.19.58.5 1.14.9 1.35.19.1.4.12.61.06.06-.02.11-.03.13-.05.03-.02.08-.05.12-.09.09-.08.19-.19.28-.31.39-.49.7-1.08 1.23-1.66.14-.14.31-.3.57-.41.26-.13.69-.1.93.07.47.32.62.68.79 1.01.31.68.48 1.32.7 1.97l.59 1.94c.2.64.38 1.29.63 1.85.12.29.26.54.43.73.17.19.33.29.6.38 1.15.35 2.53.42 3.66.1.28-.08.54-.2.74-.34.16-.12.34-.36.48-.62.29-.53.49-1.15.67-1.77.36-1.26.6-2.58.84-3.9l.09-.5c.03-.18.07-.36.13-.55.06-.19.13-.39.28-.6.07-.1.17-.22.33-.32.15-.1.38-.16.57-.13.38.06.56.25.72.4.16.16.27.32.38.48.21.32.37.65.5.99.07.17.13.34.18.52.03.09.05.18.07.28l.03.14.02.09c.06.25.17.46.34.6.33.3.87.31 1.3.04.13-.08.14-.09.22-.21.07-.1.14-.23.2-.36.13-.27.23-.58.32-.88.18-.62.33-1.26.44-1.91.21-1.29.34-2.63.26-3.91-.05-1.23-.66-2.41-1.62-3.14-.47-.35-1.04-.57-1.6-.54-.28.01-.56.07-.83.18-.13.06-.27.12-.39.2-.13.08-.23.16-.41.27-.32.2-.74.4-1.22.34-.49-.06-.86-.38-1.09-.69-.46-.64-.65-1.33-.81-2.02-.15-.69-.23-1.37-.25-2.07-.02-.73.12-1.41.24-2.08.26-1.34.61-2.66 1.11-3.94.12-.31.28-.65.38-.92.1-.29.16-.6.19-.92.06-.64.03-1.3-.03-1.96-.14-1.32-.45-2.62-.83-3.91-.33-1.35-.43-2.68-.62-4.02-.09-.67-.18-1.33-.31-1.99-.14-.65-.26-1.33-.67-1.84-.4-.52-1.07-.77-1.73-.77-.67-.03-1.33.13-1.97.34zm0 0c.63-.23 1.29-.42 1.97-.43.67-.02 1.4.2 1.86.75.23.26.39.59.49.91.11.32.19.65.27.98.15.66.26 1.33.37 1.99.23 1.32.37 2.69.73 3.94.41 1.29.76 2.61.95 3.96.09.68.14 1.37.08 2.07-.03.35-.09.7-.2 1.05-.12.37-.26.63-.37.95-.45 1.24-.77 2.55-1 3.85-.1.66-.22 1.31-.19 1.93.03.65.12 1.3.27 1.93.15.62.36 1.25.7 1.7.36.45.73.48 1.23.14.1-.07.27-.2.42-.29.16-.1.33-.19.5-.27.35-.15.73-.25 1.13-.27.79-.05 1.56.24 2.17.68 1.21.89 1.94 2.34 2.01 3.8.1 1.41-.03 2.78-.25 4.14-.11.68-.25 1.36-.45 2.03-.1.34-.21.67-.37 1.01-.08.17-.16.34-.29.52-.1.17-.34.39-.51.48-.69.47-1.77.5-2.47-.12-.35-.3-.56-.71-.66-1.11l-.06-.26c-.02-.07-.03-.14-.06-.21-.04-.14-.09-.29-.15-.43-.12-.28-.25-.56-.41-.81-.08-.12-.17-.23-.25-.31-.08-.08-.17-.12-.13-.11.02 0 .08 0 .09-.02.01-.01 0 0-.02.04-.04.07-.1.19-.14.32-.04.13-.07.28-.1.43l-.09.5c-.24 1.33-.47 2.67-.84 4-.19.67-.4 1.34-.75 2-.18.33-.39.67-.76.96-.35.26-.71.41-1.08.52-.73.21-1.46.26-2.17.24-.72-.03-1.42-.13-2.13-.36-.37-.11-.81-.37-1.07-.7-.27-.32-.45-.67-.59-1-.28-.67-.46-1.32-.66-1.97l-.58-1.93c-.2-.63-.39-1.3-.64-1.84-.12-.27-.3-.53-.4-.59-.04-.02.01-.01-.04 0-.05.02-.15.09-.24.18-.39.4-.72 1.01-1.17 1.58-.12.14-.24.29-.4.43-.08.07-.17.14-.28.21-.12.07-.24.11-.34.14-.43.13-.95.09-1.35-.14-.4-.22-.68-.55-.88-.88-.21-.33-.35-.68-.46-1.02-.43-1.39-.48-2.78-.47-4.15.02-1.35.08-2.81.78-4.15.35-.66.93-1.26 1.66-1.55.73-.3 1.53-.29 2.24-.13.36.09.71.21 1.05.39.37.2.59.42.85.57.53.33 1.02.4 1.51.1.12-.07.24-.16.36-.25.11-.09.18-.17.26-.29.15-.24.26-.53.34-.83.16-.61.23-1.26.24-1.91.02-1.3-.17-2.63-.59-3.86-.47-1.22-1.08-2.46-1.55-3.72-.24-.63-.46-1.28-.64-1.94-.17-.66-.33-1.34-.25-2.08.24-1.37.7-2.63 1.12-3.92.89-2.55 1.85-5.07 2.85-7.57z" fill="#c66c49" stroke-width="none" opacity="1"></path></g></g><g id="svga-group-hair-front" transform="matrix(1,0,0,1,0,0)"><path id="SvgjsPath72468" d="M62.3 84.7s1.5-2.7 1.7-7.3 0-10.9.2-14.2c.2-3.3 1-8.2 1.5-10 .4-1.8.6-3.5 1.8-5.3 1.2-1.8 2.4-3.6 5.2-4.3 2.8-.7 7.6-3 8.7-4.3 0 0 3-.6 3.7-1 0 0 5.3 2.6 7.2 2.8 1.9.2 8.2.5 12.3-.7s10.1-2.6 12.4-2.2 12.2-1.1 16.6 12.7c0 0 1.1 4.3 1.2 10.4.1 6.1.3 10.1.8 11.9.4 1.8 1.2 5.6 1.2 7.3s.6 2.5.6 2.5 1.7-3.8 2.2-5.8 1.9-11.6 2.1-13.1c.2-1.5.6-6.4.9-8.5.3-2 0-9.5 0-9.5s.1-4.7-.6-6.1c-.7-1.3-1.4-3.5-2.9-4.8 0 0 .1-1.6-.1-2.7s-2.1-5.3-8.2-10.6-13.3-9.4-21.6-9.4c0 0 2.9-.4 4.8-.6 0 0-5.5-.7-8.1-.3l4.3-.6s-7.2-1.4-12.3.1c0 0 .7-1.2 4.2-2.5 0 0-7.8-2.1-15.4 3.1 0 0-5.9-.3-11.7 6.8 0 0-3.7 1.1-4.7 1.8s-6.2 3.1-6.9 11.4c0 0-5 .6-5.5 11l.5 8.7s-1.8 3.6-1.8 7.3 1 6 1.1 7.8c.1 1.8.7 5.2.7 5.2s1.8 4.2 2.1 5.9c.2 1.9 1.8 7.1 1.8 7.1z" fill="#a46c47" stroke-width="none" opacity="1"></path><path id="SvgjsPath72469" d="M143 46.5c.1-1 .1-2 0-3s-.3-2-.6-3-.7-1.9-1.1-2.8c-.4-.8-1-1.6-1.6-2.4.2-1.8-.4-3.5-1.2-5-.8-1.5-1.9-2.9-3.1-4.2-2.3-2.6-5-4.8-7.7-6.9-2.8-2-5.8-3.8-9.1-4.9-1.6-.6-3.3-1-5-1.2-1.7-.2-3.4-.3-5.1-.1 3.4-.3 6.8.5 10 1.7s6.1 3 8.8 5.1c1.4 1 2.6 2.1 3.9 3.3 1.3 1.1 2.5 2.3 3.6 3.6 1.1 1.3 2.1 2.6 2.9 4.1.8 1.4 1.3 3.1 1.1 4.6v.2l.2.2c.6.7 1.1 1.5 1.6 2.3.4.8.8 1.7 1.1 2.6s.5 1.8.5 2.8c.1 1 .1 1.9 0 2.9.2 3.1.2 6.2.1 9.3-.1 3.1-.7 6.1-1.1 9.2-.4 3.1-.8 6.2-1.3 9.2-.2 1.5-.5 3.1-.9 4.5-.5 1.4-1.1 2.9-1.5 4.4.5-1.5 1.1-2.9 1.7-4.3.5-1.5.8-3 1.1-4.6.6-3.1 1.1-6.1 1.5-9.2l.7-4.6c.3-1.5.4-3.1.5-4.7.2-2.9.2-6 0-9.1zm-7.5 1.3c.1-.8.4-1.6.6-2.4.2-.8.5-1.6.8-2.4l.8-2.4.4-1.2.2-.6.1-.3.1-.2v-.1.1-.1c-.1 0 0 0-.1.1l-.1.1-.2.3-.3.5-.6 1.1c-.4.8-.8 1.5-1.1 2.3-.7 1.6-1.3 3.2-1.6 4.9-.2 1.2-.2 2.4-.2 3.6-.1-.5-.3-1-.4-1.5-.5-1.8-1.2-3.6-2-5.3s-1.7-3.4-3-4.9c-2.4-3-5.9-4.9-9.4-6.3-3.5-1.2-6.3-3.8-8.2-6.9-.9-1.5-1.7-3.3-1.8-5.1-.1-.9.1-1.8.4-2.6.4-.8.9-1.5 1.7-2 1.4-1.1 3.3-1.6 5.1-1.5 1.8.1 3.7.7 5.3 1.6-1.6-1-3.4-1.6-5.3-1.8-1.9-.2-3.9.2-5.4 1.4-.8.5-1.5 1.3-1.9 2.2-.4.9-.6 1.9-.5 2.9.1 2 .8 3.8 1.8 5.4 1.9 3.3 5 6 8.5 7.3 3.4 1.4 6.7 3.3 8.9 6.1 1.8 2.2 3 4.8 4 7.5-1.3-3.2-3.6-6.2-6.7-8-1.8-1.1-3.9-1.7-6-1.8h-.4c-3.2-1-6.6-1.6-10-1.7h-2.5l-.8-.1c-.5 0-1.1-.2-1.6-.3-.5-.2-1-.3-1.5-.6-2-.9-3.7-2.3-4.8-4.1-1.2-1.8-2-3.9-2.3-6-.3-2.2-.2-4.4.5-6.4s2.3-3.7 4.1-4.9c1.9-1.1 4.1-1.8 6.3-2.1-2.2.1-4.5.6-6.5 1.7s-3.7 2.8-4.6 5c-.2.5-.4 1.1-.5 1.7-.1.6-.2 1.1-.2 1.7 0 .6-.1 1.1-.1 1.7 0 .6.1 1.1.1 1.7.3 2.3 1.1 4.5 2.3 6.5 1.3 1.9 3.2 3.5 5.3 4.4 2.1 1 4.6 1.1 6.8.9 2.2-.1 4.4.1 6.6.5.6.1 1.3.2 1.9.3-1.5 0-3 0-4.4.2-4.2.5-8.2 2-12.2 2.6-2 .3-4.1.4-6.1.2-2.1-.1-4.1-.6-5.9-1.4-1.8-.8-3.5-2-4.8-3.6-1.3-1.5-2.2-3.4-2.8-5.3s-.8-4-.7-6c.1-2 .3-4.1 1.1-6 1.6-3.7 4.9-6.6 8.6-8.2 3.4-1.5 7.3-2 10.9-1.4-.5.2-1 .3-1.5.6-.4.2-.8.4-1.2.7-.4.3-.7.6-.9 1.1l-.1.4.4-.1c1-.4 2.1-.6 3.1-.7 1.1-.1 2.1-.2 3.2-.2s2.2.1 3.2.1c1.1.1 2.2.2 3.2.4-1.1-.2-2.1-.4-3.2-.5s-2.2-.2-3.2-.2c-1.1 0-2.2 0-3.3.1-.9.1-1.8.2-2.7.5.2-.2.3-.4.5-.5.3-.2.7-.4 1.1-.6.8-.3 1.6-.6 2.5-.8l1.1-.2-1.1-.3c-4-1-8.5-.6-12.4 1-1.3.5-2.6 1.2-3.7 2.1-1.5.2-2.9.6-4.3 1.2-1.7.7-3.3 1.7-4.7 2.8-.4.3-.7.6-1.1.9-.3.3-.6.7-.9 1-.3.4-.5.8-.8 1.1-3.1.6-6.1 2.2-8.3 4.6-1.3 1.5-2.1 3.3-2.7 5.2-.3 1.2-.5 2.4-.5 3.6-1.5.5-2.8 1.6-3.6 3-.9 1.5-1.3 3.3-1.5 5-.4 3.3-.4 6.7 0 10.1v.2c-.9 2.7-1.6 5.5-1.8 8.4V61c.1.7.2 1.5.4 2.2.3 1.4.5 2.8.7 4.2.2 1.4.4 2.8.8 4.2.2.7.4 1.4.7 2.1.3.6.5 1.3.8 2 .9 2.7 1.7 5.4 2.4 8.2-.5-2.8-1-5.6-1.9-8.4-.2-.7-.4-1.4-.7-2.1-.3-.7-.5-1.3-.6-2-.3-1.4-.4-2.8-.6-4.2-.2-1.4-.4-2.8-.7-4.2-.2-.7-.3-1.4-.3-2v-2c.1-2.2.6-4.4 1.2-6.5.7 2.9 2.2 8.2 5.7 12.4 0 1.1.1 2.2 0 3.4 0 1.9-.1 3.8-.1 5.6 0 1.9-.1 3.8-.3 5.6-.1.9-.1 1.9-.3 2.8-.2.9-.2 1.9-.7 2.7.5-.8.7-1.8.9-2.7s.4-1.9.5-2.8c.2-1.9.4-3.8.6-5.6.2-1.9.2-3.8.3-5.7.1-1.9 0-3.8 0-5.6.1-3.7.6-7.5 1.5-11.1.4-1.8 1-3.6 2.2-5 1.2-1.4 2.8-2.4 4.6-3-1.8.4-3.6 1.4-5 2.7-.7.7-1.2 1.5-1.6 2.4-.4.9-.7 1.8-1 2.7-.6 1.8-.9 3.7-1.2 5.6-.3 1.9-.5 3.8-.6 5.7v.6c-4.1-5.7-5.1-13-5.1-13.1h-.1c-.2-1.6-.3-3.2-.4-4.8-.1-1.7 0-3.4.1-5.2.1-1.7.4-3.4 1.2-4.9.7-1.3 1.8-2.5 3.3-3.1 0 .7 0 1.5.1 2.2.3 1.9 1 3.9 2.4 5.3 1.4 1.5 3.4 2.2 5.3 2.4 3.9.6 7.9-.6 10.8-3-1.6 1-3.3 1.8-5.2 2.2-1.8.4-3.7.4-5.5.1-1.8-.4-3.6-1-4.8-2.3-1.2-1.3-1.9-3.1-2.1-4.9-.5-3.6.5-7.5 2.7-10.4 1.2-1.4 2.7-2.6 4.3-3.5 1-.6 2.2-1 3.3-1.4-.2.4-.3.7-.5 1.1-.7 1.7-1.1 3.6-1.2 5.4-.1 1.9 0 3.7.4 5.5.4 1.8 1 3.6 2.2 5.1.6.7 1.4 1.4 2.2 1.8.8.4 1.7.7 2.6.9 1.8.3 3.6.2 5.2-.6 1 .8 2.2 1.5 3.4 2.1 2 .8 4.1 1.3 6.2 1.4 2.1.2 4.2.1 6.3-.2 4.2-.7 8.1-2.2 12.2-2.8 2.6-.3 5.3-.5 7.8-.1l1.2.3c-.2-.1-.4-.1-.6-.2 1.3.3 2.5.7 3.6 1.3 3.5 1.9 6.1 5.4 7.5 9.2.1.2.2.5.2.7.5 1.8.9 3.6 1.1 5.4 0 .2 0 .3.1.5 0 .6-.1 1.3-.2 1.9.1-.3.2-.5.3-.8.1 1.3 0 2.6 0 3.9 0 3.7.4 7.5.9 11.2.3 1.8.7 3.7 1.1 5.5.4 1.8.2 3.7.1 5.5.1-.9.3-1.8.4-2.8.1-.9 0-1.9-.1-2.8-.1-.9-.3-1.8-.5-2.8s-.3-1.8-.4-2.8c-.4-3.7-.7-7.4-.6-11.1.1-1.8.1-3.8-.1-5.6 0-.3-.1-.7-.1-1 .1-.5.1-1 .2-1.5.3-1.3.3-3 .6-4.6zM80 38.4c-1.7-.5-3.4-1.3-4.3-2.6-1-1.4-1.5-3.1-1.9-4.9-.3-1.7-.4-3.5-.3-5.3.2-2.4.8-4.8 2-6.9.2 0 .5-.1.8-.1-.2 0-.5 0-.7.1.6-.9 1.2-1.7 2.1-2.4 1.3-1.2 2.8-2.2 4.4-3 1.2-.6 2.6-1.1 3.9-1.5-2.2 1.6-4 3.8-5.2 6.4-.9 2-1.1 4.2-1.2 6.3-.1 2.1.2 4.3.7 6.3s1.6 4 3 5.7c.5.6 1.1 1.2 1.8 1.7-1.7.6-3.5.6-5.1.2z" fill="#955932" stroke-width="none" opacity="1"></path></g><g id="svga-group-glasses-single-move" transform="matrix(1,0,0,1,0,0)"><g id="svga-group-glasses-single" transform="matrix(1,0,0,1,0,0)"></g></g></g></g></g><rect id="svga-credit-rect" width="200" height="15" x="0" y="185" fill="#ecf0f1" opacity="0.5" style="display: none;"></rect><text id="svga-credit-text" font-family="Avenir Next, Roboto, Helvetica, Arial, sans-serif" font-size="10px" text-anchor="start" font-weight="400" size="10px" anchor="start" weight="400" fill="#333333" x="33.40447998046875" y="182.60824704170227" style="display: none;"><tspan id="SvgjsTspan71785" dy="13" x="33.40447998046875">Created on AvatarMaker.com</tspan></text></g></svg>