<?xml version="1.0" encoding="UTF-8" standalone="no"?>
<svg
   xmlns:dc="http://purl.org/dc/elements/1.1/"
   xmlns:cc="http://creativecommons.org/ns#"
   xmlns:rdf="http://www.w3.org/1999/02/22-rdf-syntax-ns#"
   xmlns:svg="http://www.w3.org/2000/svg"
   xmlns="http://www.w3.org/2000/svg"
   xmlns:sodipodi="http://sodipodi.sourceforge.net/DTD/sodipodi-0.dtd"
   xmlns:inkscape="http://www.inkscape.org/namespaces/inkscape"
   inkscape:version="1.0beta2 (2b71d25, 2019-12-03)"
   sodipodi:docname="IIAT画册-初稿.pdf"
   viewBox="0 0 181.58293 59.40773"
   height="59.40773"
   width="181.58293"
   xml:space="preserve"
   id="svg833"
   version="1.1"><metadata
     id="metadata839"><rdf:RDF><cc:Work
         rdf:about=""><dc:format>image/svg+xml</dc:format><dc:type
           rdf:resource="http://purl.org/dc/dcmitype/StillImage" /><dc:title></dc:title></cc:Work></rdf:RDF></metadata><defs
     id="defs837" /><sodipodi:namedview
     inkscape:current-layer="g841"
     inkscape:window-maximized="0"
     inkscape:window-y="25"
     inkscape:window-x="199"
     inkscape:cy="284.38035"
     inkscape:cx="-230.88701"
     inkscape:zoom="0.55469691"
     fit-margin-bottom="0"
     fit-margin-right="0"
     fit-margin-left="0"
     fit-margin-top="0"
     showgrid="false"
     id="namedview835"
     inkscape:window-height="925"
     inkscape:window-width="1554"
     inkscape:pageshadow="2"
     inkscape:pageopacity="0"
     guidetolerance="10"
     gridtolerance="10"
     objecttolerance="10"
     borderopacity="1"
     inkscape:document-rotation="0"
     bordercolor="#666666"
     pagecolor="#ffffff" /><g
     transform="matrix(1.3333333,0,0,-1.3333333,-1330.2281,869.29131)"
     inkscape:label="IIAT画册-初稿"
     inkscape:groupmode="layer"
     id="g841"><path
       inkscape:connector-curvature="0"
       id="path845"
       style="fill:#d3edfb;fill-opacity:1;fill-rule:evenodd;stroke:none"
       d="m 1030.0377,621.0731 5.3577,2.2196 -2.2192,5.3574 z" /><path
       inkscape:connector-curvature="0"
       id="path847"
       style="fill:#d3edfb;fill-opacity:1;fill-rule:evenodd;stroke:none"
       d="m 1011.3318,619.602 2.219,-5.3578 5.3581,2.2192 z" /><path
       inkscape:connector-curvature="0"
       id="path849"
       style="fill:#d3edfb;fill-opacity:1;fill-rule:evenodd;stroke:none"
       d="m 1026.3472,645.1373 -5.3577,-2.2195 7.577,-3.1386 z" /><path
       inkscape:connector-curvature="0"
       id="path851"
       style="fill:#d3edfb;fill-opacity:1;fill-rule:evenodd;stroke:none"
       d="m 1009.8604,621.0731 -3.1385,7.577 -2.2196,-5.3577 z" /><path
       inkscape:connector-curvature="0"
       id="path853"
       style="fill:#80cef3;fill-opacity:1;fill-rule:evenodd;stroke:none"
       d="m 1012.7341,614.1353 -2.4429,5.8975 -5.8983,2.4432 0.1851,-8.1558 z" /><path
       inkscape:connector-curvature="0"
       id="path855"
       style="fill:#80cef3;fill-opacity:1;fill-rule:evenodd;stroke:none"
       d="m 1019.9492,616.0323 -5.8975,-2.4426 5.8977,-5.6367 5.8978,5.6364 z" /><path
       inkscape:connector-curvature="0"
       id="path857"
       style="fill:#d3edfb;fill-opacity:1;fill-rule:evenodd;stroke:none"
       d="m 1028.5665,619.602 -7.577,-3.1386 5.3577,-2.2192 z" /><path
       inkscape:connector-curvature="0"
       id="path859"
       style="fill:#80cef3;fill-opacity:1;fill-rule:evenodd;stroke:none"
       d="m 1035.5043,622.4757 -5.8975,-2.4429 -2.4432,-5.8983 8.1559,0.1851 z" /><path
       inkscape:connector-curvature="0"
       id="path861"
       style="fill:#80cef3;fill-opacity:1;fill-rule:evenodd;stroke:none"
       d="m 1033.6073,629.6907 2.4429,-5.8977 5.6364,5.8983 -5.6361,5.8975 z" /><path
       inkscape:connector-curvature="0"
       id="path863"
       style="fill:#d3edfb;fill-opacity:1;fill-rule:evenodd;stroke:none"
       d="m 1030.0377,638.3078 3.1385,-7.5767 2.2195,5.3577 z" /><path
       inkscape:connector-curvature="0"
       id="path865"
       style="fill:#80cef3;fill-opacity:1;fill-rule:evenodd;stroke:none"
       d="m 1027.1642,645.2459 2.4426,-5.8975 5.8983,-2.4432 -0.1851,8.1556 z" /><path
       inkscape:connector-curvature="0"
       id="path867"
       style="fill:#80cef3;fill-opacity:1;fill-rule:evenodd;stroke:none"
       d="m 1019.9489,643.3486 5.8977,2.4429 -5.8983,5.6364 -5.8975,-5.6361 z" /><path
       inkscape:connector-curvature="0"
       id="path869"
       style="fill:#d3edfb;fill-opacity:1;fill-rule:evenodd;stroke:none"
       d="m 1011.3318,639.7795 7.5771,3.1383 -5.3581,2.2195 z" /><path
       inkscape:connector-curvature="0"
       id="path871"
       style="fill:#80cef3;fill-opacity:1;fill-rule:evenodd;stroke:none"
       d="m 1010.2912,639.3487 2.4432,5.898 -8.1555,-0.1848 -0.1851,-8.1564 z" /><path
       inkscape:connector-curvature="0"
       id="path873"
       style="fill:#d3edfb;fill-opacity:1;fill-rule:evenodd;stroke:none"
       d="m 1006.7219,630.7311 3.1385,7.5767 -5.3578,-2.219 z" /><path
       inkscape:connector-curvature="0"
       id="path875"
       style="fill:#00b0cd;fill-opacity:1;fill-rule:evenodd;stroke:none"
       d="m 1004.6092,645.8564 c 1.8349,1.7425 3.9991,3.1978 6.4488,4.2631 l 1.6895,-4.0788 z" /><path
       inkscape:connector-curvature="0"
       id="path877"
       style="fill:#00b0cd;fill-opacity:1;fill-rule:evenodd;stroke:none"
       d="m 999.5207,638.5833 c 1.0284,2.3635 2.465,4.5505 4.2619,6.4463 l -0.1845,-8.1352 z" /><path
       inkscape:connector-curvature="0"
       id="path879"
       style="fill:#00b0cd;fill-opacity:1;fill-rule:evenodd;stroke:none"
       d="m 997.6711,630.2755 c 0.07,2.6113 0.601,5.1735 1.5449,7.5722 l 4.0774,-1.6889 z" /><path
       inkscape:connector-curvature="0"
       id="path881"
       style="fill:#00b0cd;fill-opacity:1;fill-rule:evenodd;stroke:none"
       d="m 999.2166,621.5323 c -0.9788,2.4855 -1.4797,5.0446 -1.5455,7.5745 l 5.6242,-5.8853 z" /><path
       inkscape:connector-curvature="0"
       id="path883"
       style="fill:#00b0cd;fill-opacity:1;fill-rule:evenodd;stroke:none"
       d="m 1003.7835,614.3505 c -1.7428,1.8351 -3.1981,3.9994 -4.2633,6.4488 l 4.0787,1.6895 z" /><path
       inkscape:connector-curvature="0"
       id="path885"
       style="fill:#00b0cd;fill-opacity:1;fill-rule:evenodd;stroke:none"
       d="m 1011.0563,609.2623 c -2.3632,1.0281 -4.5502,2.465 -6.4463,4.2619 l 8.1355,-0.1848 z" /><path
       inkscape:connector-curvature="0"
       id="path887"
       style="fill:#00b0cd;fill-opacity:1;fill-rule:evenodd;stroke:none"
       d="m 1019.3641,607.4127 c -2.6116,0.07 -5.1735,0.6009 -7.5719,1.5449 l 1.6889,4.0773 z" /><path
       inkscape:connector-curvature="0"
       id="path889"
       style="fill:#00b0cd;fill-opacity:1;fill-rule:evenodd;stroke:none"
       d="m 1028.1073,608.9584 c -2.4854,-0.9791 -5.0443,-1.4799 -7.5745,-1.5457 l 5.8853,5.6239 z" /><path
       inkscape:connector-curvature="0"
       id="path891"
       style="fill:#00b0cd;fill-opacity:1;fill-rule:evenodd;stroke:none"
       d="m 1035.2891,613.5248 c -1.8351,-1.7428 -3.9994,-3.1975 -6.4488,-4.2628 l -1.6894,4.0782 z" /><path
       inkscape:connector-curvature="0"
       id="path893"
       style="fill:#00b0cd;fill-opacity:1;fill-rule:evenodd;stroke:none"
       d="m 1040.3773,620.7982 c -1.0284,-2.3636 -2.465,-4.5505 -4.2619,-6.4469 l 0.1849,8.1355 z" /><path
       inkscape:connector-curvature="0"
       id="path895"
       style="fill:#00b0cd;fill-opacity:1;fill-rule:evenodd;stroke:none"
       d="m 1042.2269,629.1054 c -0.07,-2.6113 -0.6009,-5.1735 -1.5446,-7.5716 l -4.0776,1.6888 z" /><path
       inkscape:connector-curvature="0"
       id="path897"
       style="fill:#00b0cd;fill-opacity:1;fill-rule:evenodd;stroke:none"
       d="m 1040.6812,637.8489 c 0.9794,-2.4855 1.48,-5.0446 1.5457,-7.5742 l -5.6239,5.885 z" /><path
       inkscape:connector-curvature="0"
       id="path899"
       style="fill:#00b0cd;fill-opacity:1;fill-rule:evenodd;stroke:none"
       d="m 1036.1149,645.0304 c 1.7427,-1.8348 3.1974,-3.9991 4.2627,-6.4488 l -4.0782,-1.6894 z" /><path
       inkscape:connector-curvature="0"
       id="path901"
       style="fill:#00b0cd;fill-opacity:1;fill-rule:evenodd;stroke:none"
       d="m 1028.8417,650.1189 c 2.3633,-1.0281 4.5502,-2.465 6.4466,-4.2619 l -8.1354,0.1845 z" /><path
       inkscape:connector-curvature="0"
       id="path903"
       style="fill:#00b0cd;fill-opacity:1;fill-rule:evenodd;stroke:none"
       d="m 1020.5342,651.9685 c 2.6113,-0.0697 5.1735,-0.6012 7.5717,-1.5449 l -1.6886,-4.0773 z" /><path
       inkscape:connector-curvature="0"
       id="path905"
       style="fill:#00b0cd;fill-opacity:1;fill-rule:evenodd;stroke:none"
       d="m 1011.7908,650.4231 c 2.4854,0.9788 5.0445,1.4796 7.5744,1.5454 l -5.885,-5.6242 z" /><path
       inkscape:connector-curvature="0"
       id="path907"
       style="fill:#80cef3;fill-opacity:1;fill-rule:evenodd;stroke:none"
       d="m 1003.8481,635.5879 -5.6364,-5.898 5.6361,-5.8978 2.4432,5.8984 z" /><path
       inkscape:connector-curvature="0"
       id="path909"
       style="fill:#00b0cd;fill-opacity:1;fill-rule:nonzero;stroke:none"
       d="m 1087.3534,642.8854 c 0,-1.1505 -0.3802,-2.7218 -1.1421,-4.7151 l -9.4057,-24.4998 c -0.098,-0.2917 -0.1468,-0.5996 -0.1468,-0.9239 0,-0.3237 0.1468,-0.5989 0.4385,-0.8265 0.2914,-0.2268 0.6234,-0.3396 0.9958,-0.3396 h 6.8789 l 2.0415,5.9298 h 11.2051 l 1.1908,-4.2767 c 0.2917,-1.1024 1.036,-1.6531 2.2348,-1.6531 h 8.0697 l -11.6416,32.9096 c -0.3243,0.8266 -0.9397,1.2376 -1.8471,1.2376 h -9.5034 c 0.4204,-0.7446 0.6316,-1.692 0.6316,-2.8423 z m 8.9685,-18.5694 h -6.9755 l 3.7431,11.8128 z" /><path
       inkscape:connector-curvature="0"
       id="path911"
       style="fill:#00b0cd;fill-opacity:1;fill-rule:nonzero;stroke:none"
       d="m 1120.4646,645.7277 h -15.202 c 0.7617,-1.4567 1.1424,-3.0699 1.1424,-4.8356 v -0.7838 c 0,-1.0406 0.8487,-1.8895 1.8896,-1.8895 h 7.4985 v -24.8885 c 0.016,-0.5837 0.2188,-1.0199 0.6074,-1.3119 0.3895,-0.2917 0.8184,-0.4382 1.2889,-0.4382 h 6.7808 v 26.6386 h 9.3881 v 4.8359 0.7838 c 0,1.0406 -0.849,1.8892 -1.8896,1.8892 z" /><path
       inkscape:connector-curvature="0"
       id="path913"
       style="fill:#00b0cd;fill-opacity:1;fill-rule:nonzero;stroke:none"
       d="m 1058.1463,643.9788 c 0,0.5992 -0.195,1.0471 -0.5834,1.3374 -0.3883,0.2914 -0.8266,0.4274 -1.313,0.411 h -8.0212 c 0.762,-1.4567 1.1424,-3.0697 1.1424,-4.8359 v -27.5616 c 0.016,-0.5836 0.2191,-1.0202 0.6077,-1.3118 0.3895,-0.2917 0.8184,-0.4383 1.2889,-0.4383 h 6.8786 c 0,4.4275 0,28.5384 0,32.3992" /><path
       inkscape:connector-curvature="0"
       id="path915"
       style="fill:#00b0cd;fill-opacity:1;fill-rule:nonzero;stroke:none"
       d="m 1072.4783,643.9788 c 0,0.5992 -0.1951,1.0471 -0.5831,1.3374 -0.3884,0.2914 -0.8263,0.4274 -1.3133,0.411 h -8.0209 c 0.7616,-1.4567 1.1423,-3.0697 1.1423,-4.8359 v -27.5616 c 0.016,-0.5836 0.2192,-1.0202 0.6075,-1.3118 0.3898,-0.2917 0.8184,-0.4383 1.2889,-0.4383 h 6.8786 c 0,4.4275 0,28.5384 0,32.3992" /><text
       id="text923"
       style="font-variant:normal;font-size:12px;font-family:FZLTZHK--GBK1;-inkscape-font-specification:FZLTZHK--GBK1-0;writing-mode:lr-tb;fill:#fefefe;fill-opacity:1;fill-rule:nonzero;stroke:none"
       transform="matrix(1,0,0,-1,1020.8205,326.0639)"><tspan
         id="tspan919"
         sodipodi:role="line"
         y="0"
         x="0 12.6655 25.330999 37.996201 50.6614 63.326599 75.992104 88.6576 101.3228">帝工先进技术研究院</tspan><tspan
         id="tspan921"
         sodipodi:role="line"
         y="15.107"
         x="-62.643299 -49.9781 -37.312599 -25.312599 -18.6646 -5.9914999 6.0085001 12.6565 25.329399 37.994598 50.659801 63.325001 75.990501 88.655998 101.3212">暨帝工 杭州 科技产业有限公司</tspan></text><path
       inkscape:connector-curvature="0"
       id="path925"
       style="fill:#fefefe;fill-opacity:1;fill-rule:nonzero;stroke:none"
       d="m 917.8191,344.1552 v 9.1695 h 0.999 v -9.1695 z m 3.1836,0 v 6.6467 h 0.8326 v -0.9392 c 0.1834,0.3459 0.4161,0.6126 0.7021,0.7983 0.2883,0.1876 0.5998,0.2817 0.9414,0.2817 0.3818,0 0.7041,-0.0983 0.9669,-0.2967 0.2625,-0.1965 0.4501,-0.4845 0.5632,-0.8643 0.2177,0.3863 0.4675,0.6766 0.7492,0.8708 0.2818,0.1941 0.5936,0.2902 0.9349,0.2902 0.523,0 0.9349,-0.1771 1.2359,-0.5315 0.3011,-0.3543 0.4504,-0.9198 0.4504,-1.699 v -4.557 h -0.9221 v 4.1836 c 0,0.4737 -0.0343,0.811 -0.1026,1.0095 -0.0703,0.1964 -0.1814,0.35 -0.335,0.4589 -0.1557,0.1088 -0.3286,0.1621 -0.5208,0.1621 -0.3968,0 -0.7191,-0.1579 -0.9711,-0.4717 -0.2497,-0.3157 -0.3756,-0.8087 -0.3756,-1.4853 v -3.8571 H 924.23 v 4.3137 c 0,0.5508 -0.0834,0.9369 -0.2517,1.1634 -0.1687,0.2239 -0.4014,0.337 -0.6959,0.337 -0.4184,0 -0.7492,-0.1706 -0.9924,-0.5099 -0.2435,-0.3396 -0.3651,-0.9584 -0.3651,-1.8593 v -3.4449 z m 9.3328,-2.5484 v 9.1951 h 0.8581 v -0.8731 c 0.2072,0.3586 0.4376,0.6168 0.6916,0.7747 0.254,0.1602 0.5443,0.2392 0.8708,0.2392 0.4292,0 0.8153,-0.1281 1.1591,-0.3821 0.3456,-0.254 0.6211,-0.6403 0.8323,-1.1591 0.2092,-0.5184 0.3138,-1.144 0.3138,-1.8739 0,-1.1291 -0.237,-1.9999 -0.7087,-2.6102 -0.4737,-0.6106 -1.0267,-0.9159 -1.6648,-0.9159 -0.2837,0 -0.5465,0.0726 -0.794,0.2177 -0.2454,0.1452 -0.4566,0.3524 -0.6361,0.6169 v -3.2293 z m 0.8476,5.8249 c 0,-0.858 0.1429,-1.4921 0.4289,-1.8975 0.286,-0.4079 0.6318,-0.6105 1.0374,-0.6105 0.3884,0 0.73,0.2114 1.0222,0.6318 0.2945,0.4204 0.4419,1.0715 0.4419,1.9508 0,0.8688 -0.1431,1.5111 -0.4291,1.9273 -0.286,0.4164 -0.6316,0.6256 -1.0415,0.6256 -0.3693,0 -0.7044,-0.2242 -1.0074,-0.6724 -0.301,-0.4484 -0.4524,-1.0993 -0.4524,-1.9551 z m 9.3027,-1.1505 0.9479,-0.1409 c -0.1581,-0.7064 -0.4461,-1.2402 -0.8603,-1.5988 -0.4161,-0.3605 -0.9306,-0.54 -1.5432,-0.54 -0.7727,0 -1.3957,0.2926 -1.8739,0.8796 -0.478,0.5848 -0.7172,1.4298 -0.7172,2.5356 0,1.1461 0.2412,2.0191 0.7237,2.6232 0.4821,0.6018 1.0905,0.9028 1.8312,0.9028 0.7044,0 1.2934,-0.2945 1.7651,-0.8858 0.4697,-0.5913 0.7067,-1.4471 0.7067,-2.5676 l -0.007,-0.2988 h -4.0725 c 0.0386,-0.7492 0.2115,-1.315 0.521,-1.6948 0.3093,-0.3821 0.6852,-0.572 1.1291,-0.572 0.6936,0 1.178,0.4524 1.449,1.3575 z m -3.0435,1.8311 h 3.0435 c -0.0425,0.5766 -0.1641,1.0055 -0.369,1.2892 -0.2968,0.4122 -0.6747,0.6191 -1.1333,0.6191 -0.4142,0 -0.7665,-0.1729 -1.0588,-0.5164 -0.2925,-0.3436 -0.4524,-0.8068 -0.4824,-1.3919 z m 5.7407,-3.9571 v 6.6467 h 0.8322 v -1.0182 c 0.2135,0.4674 0.4079,0.7769 0.5851,0.9306 0.1772,0.1516 0.3756,0.2284 0.5976,0.2284 0.3072,0 0.6233,-0.1196 0.9433,-0.3585 l -0.3072,-1.0503 c -0.2305,0.1624 -0.4527,0.2435 -0.6704,0.2435 -0.1962,0 -0.3756,-0.0683 -0.5378,-0.2072 -0.1644,-0.1366 -0.2795,-0.3285 -0.3458,-0.574 -0.1174,-0.4292 -0.1749,-0.8839 -0.1749,-1.3683 v -3.4727 z m 4.0802,7.876 v 1.2935 h 0.9218 v -1.2935 z m 0,-7.876 v 6.6467 h 0.9218 v -6.6467 z m 6.4641,0.8175 c -0.3095,-0.3223 -0.6296,-0.5633 -0.9626,-0.7257 -0.3351,-0.1644 -0.6809,-0.2455 -1.0395,-0.2455 -0.5678,0 -1.0202,0.171 -1.3575,0.5145 -0.3393,0.3416 -0.508,0.8025 -0.508,1.3831 0,0.3843 0.0791,0.7236 0.239,1.0201 0.1582,0.2968 0.3759,0.5296 0.6511,0.6959 0.2752,0.1664 0.6936,0.2903 1.2529,0.3694 0.7512,0.1066 1.3042,0.2347 1.654,0.3841 l 0.006,0.2883 c 0,0.4566 -0.081,0.7767 -0.2432,0.9623 -0.2284,0.2671 -0.5805,0.4014 -1.0545,0.4014 -0.4291,0 -0.7492,-0.0895 -0.9626,-0.2667 -0.2112,-0.1772 -0.3671,-0.5122 -0.4674,-1.0012 l -0.9221,0.1667 c 0.1303,0.7064 0.3906,1.2186 0.7854,1.5409 0.3949,0.3223 0.9607,0.4824 1.6949,0.4824 0.572,0 1.0202,-0.1068 1.3467,-0.3223 0.3243,-0.2134 0.5315,-0.4801 0.6168,-0.7962 0.0854,-0.3181 0.1282,-0.779 0.1282,-1.3873 v -1.5004 c 0,-1.0502 0.0192,-1.7118 0.0598,-1.9851 0.0382,-0.271 0.1173,-0.5377 0.2347,-0.7962 h -0.9604 c -0.0984,0.2285 -0.1624,0.5017 -0.1922,0.8175 z m -0.0706,2.5123 c -0.337,-0.1666 -0.8407,-0.3075 -1.5089,-0.4226 -0.3883,-0.0663 -0.6596,-0.1432 -0.8132,-0.2285 -0.1559,-0.0853 -0.2753,-0.2069 -0.3606,-0.3628 -0.0856,-0.1556 -0.1281,-0.3373 -0.1281,-0.542 0,-0.3161 0.0981,-0.57 0.2945,-0.76 0.1965,-0.1899 0.4674,-0.2837 0.8133,-0.2837 0.3308,0 0.6295,0.0853 0.8986,0.256 0.2687,0.1709 0.4716,0.3991 0.604,0.6851 0.1344,0.284 0.2004,0.7001 0.2004,1.2467 z m 2.9211,-3.3298 v 9.1695 h 0.9221 v -9.1695 z m 6.9432,0 v 9.1695 h 0.9989 v -9.1695 z m 3.1839,0 v 6.6467 h 0.8322 V 349.85 c 0.2007,0.3671 0.4439,0.6403 0.7322,0.8217 0.2903,0.1815 0.6211,0.271 0.9947,0.271 0.2923,0 0.5613,-0.0575 0.8087,-0.1729 0.2478,-0.1131 0.4462,-0.2625 0.5979,-0.4481 0.1513,-0.1857 0.2644,-0.4269 0.3393,-0.7237 0.0745,-0.2945 0.1131,-0.7492 0.1131,-1.3618 v -4.081 h -0.9221 v 4.0385 c 0,0.4887 -0.0406,0.845 -0.1239,1.0692 -0.0831,0.2242 -0.2132,0.3991 -0.3904,0.523 -0.1771,0.1216 -0.3801,0.1834 -0.6148,0.1834 -0.4396,0 -0.7897,-0.1641 -1.0522,-0.4929 -0.2625,-0.3308 -0.3929,-0.8944 -0.3929,-1.6949 v -3.6263 z m 6.065,1.9851 0.9221,0.1664 c 0.0533,-0.4675 0.2007,-0.8153 0.4416,-1.0415 0.2413,-0.2284 0.5593,-0.3415 0.9584,-0.3415 0.3991,0 0.7067,0.1003 0.9244,0.2987 0.2177,0.1987 0.3266,0.4505 0.3266,0.7557 0,0.2625 -0.0919,0.4675 -0.2756,0.6146 -0.1281,0.1003 -0.4396,0.2242 -0.9348,0.3759 -0.7172,0.2197 -1.1974,0.4076 -1.4406,0.5612 -0.2435,0.1537 -0.4334,0.3606 -0.5678,0.6188 -0.1346,0.2585 -0.2007,0.5531 -0.2007,0.8816 0,0.5658 0.1814,1.0267 0.5443,1.381 0.3628,0.3544 0.8665,0.5315 1.5091,0.5315 0.4034,0 0.7597,-0.0725 1.067,-0.2199 0.3053,-0.1452 0.54,-0.3436 0.7044,-0.5891 0.1622,-0.2474 0.2755,-0.5998 0.3373,-1.0607 l -0.8966,-0.1664 c -0.083,0.7427 -0.4801,1.114 -1.1865,1.114 -0.4034,0 -0.7022,-0.081 -0.9009,-0.2412 -0.1962,-0.1602 -0.2945,-0.3648 -0.2945,-0.6145 0,-0.2455 0.0941,-0.44 0.284,-0.5806 0.1131,-0.0833 0.4504,-0.2177 1.0117,-0.4014 0.7662,-0.2327 1.2592,-0.4226 1.4834,-0.5678 0.2219,-0.1428 0.3948,-0.3415 0.5187,-0.589 0.1236,-0.2497 0.1857,-0.5465 0.1857,-0.8901 0,-0.6361 -0.2007,-1.1503 -0.6041,-1.5431 -0.4014,-0.3949 -0.9499,-0.5914 -1.6478,-0.5914 -1.3042,0 -2.0596,0.713 -2.2688,2.1388 z m 8.257,-0.9732 0.1282,-0.9989 c -0.2563,-0.0683 -0.4868,-0.1026 -0.6917,-0.1026 -0.3223,0 -0.5805,0.0641 -0.779,0.1922 -0.1964,0.1259 -0.3308,0.301 -0.4033,0.523 -0.0749,0.2197 -0.1111,0.6616 -0.1111,1.3212 v 3.8291 h -0.6787 v 0.8708 h 0.6787 v 1.6392 l 0.9221,0.6786 v -2.3178 h 0.9348 v -0.8708 h -0.9348 v -3.8931 c 0,-0.3609 0.0277,-0.5914 0.081,-0.696 0.0791,-0.1516 0.2285,-0.2262 0.4462,-0.2262 0.1046,0 0.2412,0.0171 0.4076,0.0513 z m 1.442,6.8641 v 1.2935 h 0.9221 v -1.2935 z m 0,-7.876 v 6.6467 h 0.9221 v -6.6467 z m 4.9788,1.0119 0.1281,-0.9989 c -0.2562,-0.0683 -0.4867,-0.1026 -0.6916,-0.1026 -0.3223,0 -0.5806,0.0641 -0.779,0.1922 -0.1964,0.1259 -0.3308,0.301 -0.4034,0.523 -0.0748,0.2197 -0.1111,0.6616 -0.1111,1.3212 v 3.8291 h -0.6786 v 0.8708 h 0.6786 v 1.6392 l 0.9221,0.6786 v -2.3178 h 0.9349 v -0.8708 h -0.9349 v -3.8931 c 0,-0.3609 0.0278,-0.5914 0.0811,-0.696 0.0791,-0.1516 0.2285,-0.2262 0.4462,-0.2262 0.1046,0 0.2409,0.0171 0.4076,0.0513 z m 5.002,-1.0119 v 0.9757 c -0.2112,-0.3759 -0.4632,-0.6577 -0.7492,-0.8476 -0.288,-0.1876 -0.6126,-0.2818 -0.9754,-0.2818 -0.4289,0 -0.794,0.1154 -1.099,0.3481 -0.3033,0.2305 -0.506,0.525 -0.6083,0.8793 -0.1026,0.3544 -0.1539,0.8388 -0.1539,1.4537 v 4.1193 h 0.9221 v -3.6862 c 0,-0.6851 0.0343,-1.1418 0.1026,-1.3745 0.0683,-0.2305 0.1962,-0.4162 0.3798,-0.557 0.1857,-0.1389 0.3972,-0.2092 0.6339,-0.2092 0.4396,0 0.8005,0.1814 1.0842,0.5442 0.2412,0.3138 0.3609,0.8878 0.3609,1.7223 v 3.5604 h 0.9221 v -6.6467 z m 4.9255,1.0119 0.1281,-0.9989 c -0.2562,-0.0683 -0.4867,-0.1026 -0.6916,-0.1026 -0.3223,0 -0.5806,0.0641 -0.779,0.1922 -0.1964,0.1259 -0.3311,0.301 -0.4037,0.523 -0.0745,0.2197 -0.1108,0.6616 -0.1108,1.3212 v 3.8291 h -0.6789 v 0.8708 h 0.6789 v 1.6392 l 0.9221,0.6786 v -2.3178 h 0.9349 v -0.8708 h -0.9349 v -3.8931 c 0,-0.3609 0.0278,-0.5914 0.0811,-0.696 0.0788,-0.1516 0.2285,-0.2262 0.4462,-0.2262 0.1046,0 0.2409,0.0171 0.4076,0.0513 z m 5.1687,1.1141 0.9476,-0.1409 c -0.1579,-0.7064 -0.4462,-1.2402 -0.8603,-1.5988 -0.4161,-0.3605 -0.9306,-0.54 -1.5432,-0.54 -0.7724,0 -1.3958,0.2926 -1.874,0.8796 -0.4779,0.5848 -0.7171,1.4298 -0.7171,2.5356 0,1.1461 0.2412,2.0191 0.7236,2.6232 0.4825,0.6018 1.0908,0.9028 1.8312,0.9028 0.7044,0 1.2935,-0.2945 1.7652,-0.8858 0.4697,-0.5913 0.7066,-1.4471 0.7066,-2.5676 l -0.01,-0.2988 h -4.0725 c 0.0385,-0.7492 0.2114,-1.315 0.521,-1.6948 0.3095,-0.3821 0.6851,-0.572 1.129,-0.572 0.6937,0 1.1781,0.4524 1.4494,1.3575 z m -3.0439,1.8311 h 3.0439 c -0.043,0.5766 -0.1644,1.0055 -0.3694,1.2892 -0.2968,0.4122 -0.6743,0.6191 -1.1333,0.6191 -0.4141,0 -0.7662,-0.1729 -1.0587,-0.5164 -0.2925,-0.3436 -0.4524,-0.8068 -0.4825,-1.3919 z m 7.731,-0.64 c 0,1.146 0.2412,2.0106 0.7214,2.5954 0.4802,0.5825 1.0905,0.875 1.8269,0.875 0.7257,0 1.3297,-0.2925 1.8184,-0.875 0.4867,-0.5848 0.7302,-1.4258 0.7302,-2.5271 0,-1.1911 -0.2392,-2.0789 -0.7194,-2.6637 -0.4782,-0.5828 -1.0885,-0.8754 -1.8292,-0.8754 -0.7279,0 -1.336,0.2926 -1.8207,0.8796 -0.4844,0.5848 -0.7276,1.4491 -0.7276,2.5912 z m 0.9476,0.004 c 0,-0.8623 0.1559,-1.5026 0.4674,-1.9233 0.3115,-0.4203 0.6979,-0.6295 1.1588,-0.6295 0.4312,0 0.8028,0.2114 1.1121,0.636 0.3095,0.4247 0.4631,1.063 0.4631,1.9168 0,0.8558 -0.1556,1.4939 -0.4674,1.9146 -0.3115,0.4203 -0.6979,0.6295 -1.1588,0.6295 -0.4354,0 -0.8067,-0.2112 -1.1143,-0.6338 -0.3073,-0.4207 -0.4609,-1.0587 -0.4609,-1.9103 z m 6.0777,-3.3213 v 5.7759 h -0.8194 v 0.8708 h 0.8194 v 0.7044 c 0,0.5207 0.054,0.9113 0.1625,1.1695 0.1088,0.2605 0.2752,0.459 0.4994,0.5976 0.224,0.1366 0.5035,0.2049 0.8431,0.2049 0.2624,0 0.5504,-0.0385 0.8642,-0.1153 l -0.1366,-0.9859 c -0.1919,0.0425 -0.3713,0.064 -0.542,0.064 -0.2755,0 -0.4717,-0.0705 -0.5913,-0.2134 -0.1173,-0.1432 -0.1771,-0.4164 -0.1771,-0.8175 v -0.6083 h 1.0629 v -0.8708 h -1.0629 v -5.7759 z m 6.2368,0 2.8965,9.1695 h 1.0672 l 3.0671,-9.1695 h -1.1378 l -0.8643,2.7791 h -3.1697 l -0.8133,-2.7791 z m 2.1493,3.7652 h 2.5741 l -0.7875,2.5399 c -0.2435,0.7789 -0.4226,1.4131 -0.5357,1.9017 -0.098,-0.589 -0.235,-1.1718 -0.4122,-1.7523 z m 9.6638,-3.7652 v 0.8305 c -0.1666,-0.3203 -0.3821,-0.5635 -0.6446,-0.7322 -0.2627,-0.1686 -0.5465,-0.252 -0.8518,-0.252 -0.6423,0 -1.1973,0.3034 -1.6667,0.9094 -0.4697,0.606 -0.7045,1.4598 -0.7045,2.5614 0,0.7554 0.1046,1.3935 0.3138,1.9188 0.207,0.5249 0.4867,0.9155 0.8346,1.1695 0.3478,0.254 0.7341,0.3821 1.161,0.3821 0.3031,0 0.5871,-0.079 0.8473,-0.2392 0.2605,-0.1599 0.4759,-0.3841 0.6469,-0.6701 v 3.2913 h 0.9221 v -9.1695 z m -2.9199,3.3106 c 0,-0.8601 0.1494,-1.4984 0.4461,-1.9168 0.2988,-0.4161 0.6466,-0.6253 1.0415,-0.6253 0.3929,0 0.7322,0.2006 1.0202,0.602 0.2883,0.3992 0.4311,1.0052 0.4311,1.8142 0,0.9326 -0.1428,1.6115 -0.4311,2.0384 -0.288,0.4289 -0.6509,0.6423 -1.0885,0.6423 -0.3884,0 -0.7214,-0.2049 -1.0009,-0.6168 -0.2798,-0.4119 -0.4184,-1.0565 -0.4184,-1.938 z m 7.3437,-3.3106 -2.0577,6.6467 h 0.9584 l 1.1676,-3.9765 c 0.1344,-0.4504 0.2497,-0.8963 0.3498,-1.3382 0.079,0.3501 0.1922,0.7704 0.3396,1.2637 l 1.2166,4.051 h 0.9604 l -2.0662,-6.6467 z m 7.8494,0.8175 c -0.3095,-0.3223 -0.6299,-0.5633 -0.9626,-0.7257 -0.3351,-0.1644 -0.6809,-0.2455 -1.0395,-0.2455 -0.5678,0 -1.0202,0.171 -1.3575,0.5145 -0.3393,0.3416 -0.508,0.8025 -0.508,1.3831 0,0.3843 0.079,0.7236 0.239,1.0201 0.1579,0.2968 0.3756,0.5296 0.6511,0.6959 0.2752,0.1664 0.6936,0.2903 1.2529,0.3694 0.7512,0.1066 1.3039,0.2347 1.654,0.3841 l 0.01,0.2883 c 0,0.4566 -0.081,0.7767 -0.2435,0.9623 -0.2281,0.2671 -0.5805,0.4014 -1.0542,0.4014 -0.4291,0 -0.7492,-0.0895 -0.9626,-0.2667 -0.2115,-0.1772 -0.3671,-0.5122 -0.4674,-1.0012 l -0.9222,0.1667 c 0.1302,0.7064 0.3907,1.2186 0.7855,1.5409 0.3949,0.3223 0.9604,0.4824 1.6946,0.4824 0.572,0 1.0205,-0.1068 1.347,-0.3223 0.3243,-0.2134 0.5315,-0.4801 0.6168,-0.7962 0.085,-0.3181 0.1281,-0.779 0.1281,-1.3873 v -1.5004 c 0,-1.0502 0.019,-1.7118 0.06,-1.9851 0.038,-0.271 0.1176,-0.5377 0.235,-0.7962 h -0.9607 c -0.098,0.2285 -0.1621,0.5017 -0.1919,0.8175 z m -0.071,2.5123 c -0.3373,-0.1666 -0.841,-0.3075 -1.5089,-0.4226 -0.3886,-0.0663 -0.6596,-0.1432 -0.8132,-0.2285 -0.1559,-0.0853 -0.2753,-0.2069 -0.3609,-0.3628 -0.085,-0.1556 -0.1278,-0.3373 -0.1278,-0.542 0,-0.3161 0.098,-0.57 0.2945,-0.76 0.1962,-0.1899 0.4674,-0.2837 0.813,-0.2837 0.3311,0 0.6298,0.0853 0.8986,0.256 0.269,0.1709 0.4719,0.3991 0.604,0.6851 0.1347,0.284 0.2007,0.7001 0.2007,1.2467 z m 2.9469,-3.3298 v 6.6467 h 0.8323 v -0.9519 c 0.2007,0.3671 0.4439,0.6403 0.7322,0.8217 0.2902,0.1815 0.621,0.271 0.9946,0.271 0.2923,0 0.5613,-0.0575 0.8088,-0.1729 0.2477,-0.1131 0.4461,-0.2625 0.5978,-0.4481 0.1514,-0.1857 0.2645,-0.4269 0.3393,-0.7237 0.074,-0.2945 0.1131,-0.7492 0.1131,-1.3618 v -4.081 h -0.9221 v 4.0385 c 0,0.4887 -0.041,0.845 -0.1239,1.0692 -0.083,0.2242 -0.2134,0.3991 -0.3903,0.523 -0.1772,0.1216 -0.3801,0.1834 -0.6149,0.1834 -0.4396,0 -0.7897,-0.1641 -1.0522,-0.4929 -0.2625,-0.3308 -0.3929,-0.8944 -0.3929,-1.6949 v -3.6263 z m 9.9836,2.4205 0.9221,-0.1409 c -0.1045,-0.7897 -0.367,-1.3938 -0.7854,-1.8099 -0.4204,-0.4161 -0.9241,-0.6234 -1.5112,-0.6234 -0.7149,0 -1.3019,0.2926 -1.7628,0.8796 -0.4612,0.5848 -0.6917,1.4514 -0.6917,2.5974 0,1.1549 0.2327,2.0214 0.6979,2.5977 0.4674,0.5783 1.0652,0.8665 1.7952,0.8665 0.5655,0 1.0394,-0.1751 1.4258,-0.5249 0.3861,-0.3501 0.6338,-0.8754 0.7427,-1.5752 l -0.8966,-0.1667 c -0.087,0.4504 -0.239,0.7877 -0.4567,1.0097 -0.2177,0.2239 -0.4782,0.335 -0.7832,0.335 -0.4547,0 -0.8303,-0.2007 -1.1293,-0.604 -0.2988,-0.4034 -0.4482,-1.0437 -0.4482,-1.9188 0,-0.9071 0.1432,-1.5625 0.4269,-1.9658 0.2841,-0.4057 0.6469,-0.6083 1.0908,-0.6083 0.3501,0 0.6466,0.1346 0.8943,0.4013 0.2455,0.2688 0.4034,0.6852 0.4694,1.2507 z m 6.0033,-0.2945 0.9476,-0.1409 c -0.1579,-0.7064 -0.4459,-1.2402 -0.8601,-1.5988 -0.4161,-0.3605 -0.9306,-0.54 -1.5431,-0.54 -0.7728,0 -1.3958,0.2926 -1.874,0.8796 -0.4782,0.5848 -0.7172,1.4298 -0.7172,2.5356 0,1.1461 0.2412,2.0191 0.7234,2.6232 0.4825,0.6018 1.0908,0.9028 1.8315,0.9028 0.7044,0 1.2934,-0.2945 1.7651,-0.8858 0.4697,-0.5913 0.7064,-1.4471 0.7064,-2.5676 l -0.01,-0.2988 h -4.0726 c 0.039,-0.7492 0.2115,-1.315 0.5208,-1.6948 0.3095,-0.3821 0.6851,-0.572 1.1293,-0.572 0.6936,0 1.1781,0.4524 1.4491,1.3575 z m -3.0436,1.8311 h 3.0436 c -0.043,0.5766 -0.1645,1.0055 -0.3691,1.2892 -0.2968,0.4122 -0.6747,0.6191 -1.1336,0.6191 -0.4139,0 -0.7662,-0.1729 -1.0585,-0.5164 -0.2925,-0.3436 -0.4526,-0.8068 -0.4824,-1.3919 z m 9.2752,-3.9571 v 0.8305 c -0.1666,-0.3203 -0.3821,-0.5635 -0.6446,-0.7322 -0.2625,-0.1686 -0.5465,-0.252 -0.8518,-0.252 -0.6423,0 -1.1973,0.3034 -1.6667,0.9094 -0.4697,0.606 -0.7045,1.4598 -0.7045,2.5614 0,0.7554 0.1046,1.3935 0.3138,1.9188 0.207,0.5249 0.4867,0.9155 0.8346,1.1695 0.3478,0.254 0.7341,0.3821 1.161,0.3821 0.3031,0 0.5871,-0.079 0.8473,-0.2392 0.2605,-0.1599 0.4762,-0.3841 0.6469,-0.6701 v 3.2913 h 0.9221 v -9.1695 z m -2.9199,3.3106 c 0,-0.8601 0.1494,-1.4984 0.4461,-1.9168 0.2988,-0.4161 0.6466,-0.6253 1.0415,-0.6253 0.3929,0 0.7322,0.2006 1.0205,0.602 0.288,0.3992 0.4311,1.0052 0.4311,1.8142 0,0.9326 -0.1431,1.6115 -0.4311,2.0384 -0.2883,0.4289 -0.6512,0.6423 -1.0888,0.6423 -0.3884,0 -0.7214,-0.2049 -1.0009,-0.6168 -0.2795,-0.4119 -0.4184,-1.0565 -0.4184,-1.938 z m 11.5514,-3.3106 v 8.0937 h -2.4718 v 1.0758 h 5.955 v -1.0758 h -2.4842 v -8.0937 z m 7.5014,2.126 0.9479,-0.1409 c -0.1582,-0.7064 -0.4462,-1.2402 -0.8604,-1.5988 -0.4161,-0.3605 -0.9306,-0.54 -1.5431,-0.54 -0.7728,0 -1.3958,0.2926 -1.874,0.8796 -0.4779,0.5848 -0.7172,1.4298 -0.7172,2.5356 0,1.1461 0.2412,2.0191 0.7237,2.6232 0.4822,0.6018 1.0905,0.9028 1.8312,0.9028 0.7044,0 1.2934,-0.2945 1.7651,-0.8858 0.4697,-0.5913 0.7067,-1.4471 0.7067,-2.5676 l -0.01,-0.2988 h -4.0726 c 0.039,-0.7492 0.2115,-1.315 0.521,-1.6948 0.3093,-0.3821 0.6852,-0.572 1.1291,-0.572 0.6936,0 1.1781,0.4524 1.4491,1.3575 z m -3.0436,1.8311 h 3.0436 c -0.043,0.5766 -0.1642,1.0055 -0.3691,1.2892 -0.2968,0.4122 -0.6747,0.6191 -1.1333,0.6191 -0.4141,0 -0.7665,-0.1729 -1.0587,-0.5164 -0.2926,-0.3436 -0.4525,-0.8068 -0.4825,-1.3919 z m 9.3008,-1.5366 0.9221,-0.1409 c -0.1046,-0.7897 -0.3671,-1.3938 -0.7855,-1.8099 -0.4204,-0.4161 -0.9241,-0.6234 -1.5112,-0.6234 -0.7149,0 -1.3019,0.2926 -1.7628,0.8796 -0.4612,0.5848 -0.6917,1.4514 -0.6917,2.5974 0,1.1549 0.2327,2.0214 0.6979,2.5977 0.4674,0.5783 1.0653,0.8665 1.7952,0.8665 0.5655,0 1.0394,-0.1751 1.4258,-0.5249 0.3861,-0.3501 0.6338,-0.8754 0.7427,-1.5752 l -0.8966,-0.1667 c -0.087,0.4504 -0.239,0.7877 -0.4567,1.0097 -0.2177,0.2239 -0.4782,0.335 -0.7832,0.335 -0.4547,0 -0.8303,-0.2007 -1.129,-0.604 -0.2991,-0.4034 -0.4485,-1.0437 -0.4485,-1.9188 0,-0.9071 0.1432,-1.5625 0.4269,-1.9658 0.2841,-0.4057 0.6469,-0.6083 1.0908,-0.6083 0.3501,0 0.6466,0.1346 0.8943,0.4013 0.2455,0.2688 0.4034,0.6852 0.4695,1.2507 z m 2.2765,-2.4205 v 9.1695 h 0.9221 v -3.2998 c 0.2157,0.3073 0.4612,0.5357 0.7341,0.6894 0.2713,0.1516 0.5721,0.2284 0.9009,0.2284 0.5785,0 1.0372,-0.1836 1.3725,-0.5527 0.3351,-0.3694 0.5015,-1.046 0.5015,-2.0279 v -4.2069 h -0.9221 v 4.2026 c 0,0.5743 -0.1024,0.9862 -0.3053,1.2359 -0.2047,0.2498 -0.4845,0.3756 -0.8408,0.3756 -0.3991,0 -0.7384,-0.1599 -1.0202,-0.4802 -0.2798,-0.32 -0.4206,-0.89 -0.4206,-1.7053 v -3.6286 z m 6.4238,0 v 6.6467 h 0.8323 v -0.9519 c 0.2007,0.3671 0.4439,0.6403 0.7322,0.8217 0.2902,0.1815 0.621,0.271 0.9946,0.271 0.2923,0 0.5613,-0.0575 0.8091,-0.1729 0.2474,-0.1131 0.4458,-0.2625 0.5975,-0.4481 0.1514,-0.1857 0.2645,-0.4269 0.3393,-0.7237 0.075,-0.2945 0.1131,-0.7492 0.1131,-1.3618 v -4.081 h -0.9221 v 4.0385 c 0,0.4887 -0.041,0.845 -0.1236,1.0692 -0.083,0.2242 -0.2134,0.3991 -0.3906,0.523 -0.1772,0.1216 -0.3801,0.1834 -0.6148,0.1834 -0.4397,0 -0.7898,-0.1641 -1.0523,-0.4929 -0.2624,-0.3308 -0.3926,-0.8944 -0.3926,-1.6949 v -3.6263 z m 6.0778,3.3171 c 0,1.146 0.2412,2.0106 0.7214,2.5954 0.4802,0.5825 1.0908,0.875 1.8272,0.875 0.7257,0 1.3298,-0.2925 1.8184,-0.875 0.4868,-0.5848 0.73,-1.4258 0.73,-2.5271 0,-1.1911 -0.239,-2.0789 -0.7192,-2.6637 -0.4782,-0.5828 -1.0888,-0.8754 -1.8292,-0.8754 -0.7279,0 -1.3362,0.2926 -1.8207,0.8796 -0.4844,0.5848 -0.7279,1.4491 -0.7279,2.5912 z m 0.9476,0.004 c 0,-0.8623 0.1559,-1.5026 0.4674,-1.9233 0.3119,-0.4203 0.6982,-0.6295 1.1591,-0.6295 0.4312,0 0.8025,0.2114 1.1121,0.636 0.3095,0.4247 0.4631,1.063 0.4631,1.9168 0,0.8558 -0.1559,1.4939 -0.4674,1.9146 -0.3118,0.4203 -0.6979,0.6295 -1.1591,0.6295 -0.4354,0 -0.8067,-0.2112 -1.114,-0.6338 -0.3075,-0.4207 -0.4612,-1.0587 -0.4612,-1.9103 z m 5.7963,-3.3213 v 9.1695 h 0.9221 v -9.1695 z m 2.5965,3.3171 c 0,1.146 0.2413,2.0106 0.7215,2.5954 0.4804,0.5825 1.0907,0.875 1.8272,0.875 0.7256,0 1.3297,-0.2925 1.8184,-0.875 0.4867,-0.5848 0.7299,-1.4258 0.7299,-2.5271 0,-1.1911 -0.2389,-2.0789 -0.7191,-2.6637 -0.4782,-0.5828 -1.0885,-0.8754 -1.8292,-0.8754 -0.728,0 -1.3363,0.2926 -1.8207,0.8796 -0.4845,0.5848 -0.728,1.4491 -0.728,2.5912 z m 0.9479,0.004 c 0,-0.8623 0.1557,-1.5026 0.4675,-1.9233 0.3115,-0.4203 0.6979,-0.6295 1.1588,-0.6295 0.4311,0 0.8025,0.2114 1.112,0.636 0.3096,0.4247 0.4632,1.063 0.4632,1.9168 0,0.8558 -0.1559,1.4939 -0.4674,1.9146 -0.3116,0.4203 -0.6979,0.6295 -1.1591,0.6295 -0.4354,0 -0.8068,-0.2112 -1.114,-0.6338 -0.3073,-0.4207 -0.461,-1.0587 -0.461,-1.9103 z m 5.6424,-3.8718 0.8963,-0.1664 c 0.043,-0.3543 0.1687,-0.6171 0.3779,-0.7897 0.2114,-0.1729 0.5017,-0.2605 0.8773,-0.2605 0.4076,0 0.7322,0.0961 0.9731,0.2902 0.2413,0.1942 0.4057,0.4825 0.4952,0.8643 0.054,0.2327 0.081,0.7237 0.081,1.4729 -0.2004,-0.284 -0.4269,-0.4995 -0.6786,-0.6446 -0.2497,-0.1429 -0.5292,-0.2157 -0.8345,-0.2157 -0.6531,0 -1.1954,0.2755 -1.6265,0.826 -0.493,0.6318 -0.7407,1.4794 -0.7407,2.5421 0,0.7129 0.1091,1.3363 0.3268,1.8697 0.2177,0.5338 0.5015,0.9244 0.8558,1.1741 0.352,0.2498 0.7492,0.3756 1.1888,0.3756 0.3201,0 0.6146,-0.079 0.8793,-0.2347 0.2668,-0.1581 0.5018,-0.3929 0.7064,-0.7066 v 0.8005 h 0.8453 v -5.7393 c 0,-1.0225 -0.083,-1.7504 -0.2497,-2.1858 -0.1687,-0.4354 -0.4416,-0.7813 -0.8218,-1.033 -0.3798,-0.252 -0.8365,-0.3778 -1.3722,-0.3778 -0.7044,0 -1.2487,0.1899 -1.6285,0.5677 -0.3802,0.3779 -0.5636,0.9009 -0.5508,1.571 z m 0.7685,3.9892 c 0,-0.8751 0.1451,-1.5134 0.4331,-1.9145 0.2883,-0.4014 0.6404,-0.6021 1.0587,-0.6021 0.4184,0 0.7728,0.1964 1.065,0.589 0.2926,0.3929 0.4397,1.0182 0.4397,1.8763 0,0.8368 -0.1494,1.4578 -0.4502,1.8655 -0.301,0.4076 -0.6681,0.6125 -1.0992,0.6125 -0.3844,0 -0.7215,-0.2049 -1.0117,-0.6125 -0.2903,-0.4077 -0.4354,-1.0117 -0.4354,-1.8142 z m 5.8087,-5.9871 -0.1023,1.0503 c 0.2027,-0.0683 0.3779,-0.1026 0.523,-0.1026 0.1942,0 0.3563,0.0405 0.4822,0.1196 0.1261,0.0791 0.2307,0.2027 0.3138,0.3693 0.03,0.0596 0.1493,0.4374 0.3608,1.1376 l -2.0511,6.6209 h 0.9946 l 1.1311,-3.8206 c 0.1408,-0.4759 0.2712,-0.9839 0.3906,-1.5262 0.1046,0.5123 0.2304,1.014 0.3756,1.5027 l 1.1633,3.8441 h 0.9264 l -2.0705,-6.7598 c -0.2709,-0.8728 -0.4844,-1.4556 -0.6403,-1.7501 -0.1556,-0.2923 -0.3328,-0.5037 -0.5315,-0.6319 -0.1984,-0.1301 -0.4224,-0.1941 -0.6721,-0.1941 -0.1752,0 -0.3716,0.047 -0.5936,0.1408" /><path
       inkscape:connector-curvature="0"
       id="path927"
       style="fill:#fefefe;fill-opacity:1;fill-rule:nonzero;stroke:none"
       d="m 1031.1834,315.212 c 0,-2.0301 -0.6874,-3.8701 -2.0625,-5.5221 h -1.1605 v 0.0487 c 0.6472,0.5984 1.1747,1.3323 1.5812,2.1977 0.4813,1.0293 0.724,2.1212 0.724,3.2757 0,1.1444 -0.2427,2.2303 -0.724,3.2576 -0.4065,0.8651 -0.934,1.5973 -1.5812,2.198 v 0.0646 h 1.1605 c 1.3751,-1.6622 2.0625,-3.5022 2.0625,-5.5202" /><text
       id="text937"
       style="font-variant:normal;font-size:9px;font-family:FZLTKHK--GBK1;-inkscape-font-specification:FZLTKHK--GBK1-0;writing-mode:lr-tb;fill:#fefefe;fill-opacity:1;fill-rule:nonzero;stroke:none"
       transform="matrix(1,0,0,-1,56.4109,80.9776)"><tspan
         id="tspan931"
         sodipodi:role="line"
         y="0"
         x="0 5.9828 11.9656 15.1722 20.6262 23.1192 29.628599 31.8855 37.868599 43.851398 47.6203 50.221298 52.714298 59.790901 65.739403 68.030899 70.287804 76.236298 78.527802 84.510597 89.9916 92.484596 98.473198 104.456 107.057 109.55 116.5903 118.8821 124.8652 130.8483 136.8311 142.7796 148.76241 152.5313 158.5141 164.5675 172.13319 178.1163 184.09911 190.08189 195.5023 201.45081 207.43359 212.8876 215.3806 222.4167 227.8734 230.16521 236.1483 242.13139 247.5881 253.06911 255.5621 262.4921 264.98511 271.53491 277.5177 282.97409 288.92261 294.9057 300.88879 303.146 309.12909 315.11221 320.03519 322.5282 329.60321 335.5863 339.3555 344.77621 347.3772">11th Floor, Building 15, Singapore-Hangzhou Science &amp; Technology Park, </tspan><tspan
         id="tspan933"
         sodipodi:role="line"
         y="11.3304"
         x="-0.0082999999 7.5570998 13.5402 19.5233 25.506399 30.9268 36.875301 42.858101 48.312099 50.805099 57.8769 63.333599 69.316704 75.299797 81.282898 89.939102 92.230598 97.189598 99.682602 106.6126 109.1056 115.651 121.6338 127.0905 133.03931 139.0224 145.00549 147.2627 153.2458 159.2289 161.52071 166.9774 172.96049 174.7155 177.2085 184.81441 190.7975 196.2179 202.2007 204.4576 210.4404 216.3889 225.0448 231.02789 237.011 239.72 242.213 249.3221 253.09129 259.0741 265.05719">Hangzhou Economic &amp; Technological Development Area.</tspan><tspan
         id="tspan935"
         sodipodi:role="line"
         y="23.743299"
         x="-0.0128 6.5327001 12.5158">Tel</tspan></text><text
       id="text941"
       style="font-variant:normal;font-weight:300;font-size:9px;font-family:RTWSYueGoG0v1;-inkscape-font-specification:RTWSYueGoG0v1-LightCond;writing-mode:lr-tb;fill:#fefefe;fill-opacity:1;fill-rule:nonzero;stroke:none"
       transform="matrix(1,0,0,-1,71.1839,57.2343)"><tspan
         id="tspan939"
         y="0"
         x="0">：</tspan></text><text
       id="text945"
       style="font-variant:normal;font-size:9px;font-family:FZLTKHK--GBK1;-inkscape-font-specification:FZLTKHK--GBK1-0;writing-mode:lr-tb;fill:#fefefe;fill-opacity:1;fill-rule:nonzero;stroke:none"
       transform="matrix(1,0,0,-1,78.294,57.2343)"><tspan
         id="tspan943"
         sodipodi:role="line"
         y="0"
         x="0 6.4060001 12.4954 18.0124 22.9984 28.479401 30.972401 36.9697 42.952499 48.935299 55.025002 61.044102 67.062897 73.0457 79.028503 85.011299 90.9944">+86 0 57186910178</tspan></text><text
       id="text949"
       style="font-variant:normal;font-size:9px;font-family:FZLTKHK--GBK1;-inkscape-font-specification:FZLTKHK--GBK1-0;writing-mode:lr-tb;fill:#fefefe;fill-opacity:1;fill-rule:nonzero;stroke:none"
       transform="matrix(1,0,0,-1,192.8789,57.2343)"><tspan
         id="tspan947"
         sodipodi:role="line"
         y="0"
         x="0 7.0735998 15.7295 21.712299 24.004101">Email</tspan></text><text
       id="text953"
       style="font-variant:normal;font-weight:300;font-size:9px;font-family:RTWSYueGoG0v1;-inkscape-font-specification:RTWSYueGoG0v1-LightCond;writing-mode:lr-tb;fill:#fefefe;fill-opacity:1;fill-rule:nonzero;stroke:none"
       transform="matrix(1,0,0,-1,219.1402,57.2343)"><tspan
         id="tspan951"
         y="0"
         x="0">：</tspan></text><text
       id="text957"
       style="font-variant:normal;font-size:9px;font-family:FZLTKHK--GBK1;-inkscape-font-specification:FZLTKHK--GBK1-0;writing-mode:lr-tb;fill:#fefefe;fill-opacity:1;fill-rule:nonzero;stroke:none"
       transform="matrix(1,0,0,-1,226.2501,57.2343)"><tspan
         id="tspan955"
         sodipodi:role="line"
         y="0"
         x="0 2.2918 8.2749004 11.3752 17.358 27.876801 33.8256 39.2463 45.299999 47.591499 49.883301 55.866402 59.073002 62.173 67.6297 73.612503">info@hz-iiat.com</tspan></text><text
       id="text961"
       style="font-variant:normal;font-size:9px;font-family:FZLTKHK--GBK1;-inkscape-font-specification:FZLTKHK--GBK1-0;writing-mode:lr-tb;fill:#fefefe;fill-opacity:1;fill-rule:nonzero;stroke:none"
       transform="matrix(1,0,0,-1,56.4783,97.0177)"><tspan
         id="tspan959"
         sodipodi:role="line"
         y="0"
         x="0 9.4991999 18.9984 28.497299 37.996201 47.495098 56.994301 66.4935 75.992401 85.491302 94.990196 104.4894 113.9886 123.4878 132.98669 142.4856 151.9848 161.48399 170.9832 179.9832 185.966 191.44701 200.44701 206.43269 211.9137">杭州经济技术开发区白杨新街新加坡科技园15幢11楼</tspan></text><path
       inkscape:connector-curvature="0"
       id="path987"
       style="fill:#fefefe;fill-opacity:1;fill-rule:nonzero;stroke:none"
       d="m 101.3394,56.7122 h -0.3597 c -1.0207,0.881 -1.5511,2.1016 -1.5908,3.6618 0.0397,1.5817 0.5701,2.823 1.5908,3.7233 h 0.3597 c -1.0397,-1.0412 -1.5508,-2.2825 -1.5304,-3.7233 -0.0204,-1.4409 0.4907,-2.6615 1.5304,-3.6618 z m 5.0196,0 h 0.3612 c 1.0196,0.881 1.5497,2.1016 1.5908,3.6618 -0.0411,1.5817 -0.5712,2.823 -1.5908,3.7233 h -0.3612 c 1.0412,-1.0412 1.5511,-2.2825 1.5319,-3.7233 0.0192,-1.4409 -0.4907,-2.6615 -1.5319,-3.6618" /></g></svg>
