<svg xmlns="http://www.w3.org/2000/svg" version="1.1" width="600px" height="600px" viewBox="0 0 200 200" style="overflow:hidden!important;"><g id="svga-group-wrapper"><g id="svga-group-backs-single"><path id="SvgjsPath20303" d="M0 0h200v200H0V0z" fill="#45ada8" stroke-width="none" opacity="1"></path><path id="SvgjsPath20304" d="M6.5 16.3c4-9.2 13.8-13.8 22-11.3 6 1.9 10.6 7.5 11.8 14.3 0 0 25.4-15.2 41.7 1.1 6.1 6.1 6.7 17.8-4.9 27.2-8.8 7.2-19.5 1.4-19.5 1.4 2 5.6.6 11.5-3 14.3-5 3.8-14.5 2.2-18.9-5.8 0 0 2.5 13.2-12.6 15.4C7.9 75.1 8.7 60 8.7 60s-.9 4.4-8.7 4.4V13s1.4-.3 3.2.5 3.3 2.8 3.3 2.8zm136.2 47.3c-.2-.7-4.6-9.9-15.2-9-10.6.9-7.6 14.8-7.6 14.8s-14.3.5-15.5 11.8S116.4 103 134 92c0 0 13.9 14.1 28.9-.9 0 0 21 12.7 28.4.2S182.9 73 182.9 73s6.5-15.7-12-12c0 0-3-9-13.2-8.5-10.1.4-15 11.1-15 11.1zM81.6 149s-5.5 6.7-16.8 5.1c-11.3-1.6-12.2-10.9-12.2-10.9s-14.3 12.5-31.6 3-7.9-26.3-.7-30.7 20.3-.5 20.3-.5-1.6-4.8 4.6-8.5c6.2-3.7 11.3 1.8 11.3 1.8s1.2-8.3 14.1-8.1S83 112.5 83 112.5s5.1-9.2 16.4-3.7 7.6 14.3 7.6 14.3 3-3.7 6.5-4.2 7.6 3 7.2 6.9c0 0 8.8-8.1 20.3 5.5s-11.3 28.2-21.9 15.9c0 0-3.5 10.6-20.1 9.5S81.6 149 81.6 149zm72.7 19.1s-2.8-6.2-10.9-6-7.9 9.7-7.9 9.7-6-5.8-12-1.4 0 11.3 0 11.3-5.8.5-5.3 6.2 12.9 12.9 26.8-.2c0 0 4.2 6.7 11.3 4.9 7.2-1.9 6.9-8.5 6.9-8.5s9.7 8.5 19.2 2.5 6.7-23.6-8.8-24.5c-15.4-.9-19.3 6-19.3 6zM126.5 0s-7.4 3.7-5.5 12.9 16.1 8.3 19.6 3.5c0 0-2.8 9.7 7.4 10.1 0 0-.2 16.8 18.4 11s16.3-22.3 16.3-22.3 2.5 12.9 17.4 12.9V0h-73.6zM0 195.2s19.3 7.9 29.6-9.4-11.8-20.6-15.4-15.7c0 0 1.6-16.7-14.2-13.2v38.3z" fill="#ffffff" stroke-width="none" opacity="1"></path></g><g id="svga-group-humanwrap-move" transform="matrix(1,0,0,1,0,0)"><g id="svga-group-humanwrap"><g id="svga-group-hair-back-move" transform="matrix(1,0,0,1,0,0)"><g id="svga-group-hair-back"><path id="SvgjsPath20549" d="M171.9 134.5s-5.3-8.7-5.9-9c-.6-.3 1.8-6.7 1.8-6.7l-5.1-5.4 2.2-11.2s-3.9-5.1-6.2-7.8l1.2-4.5-.9-3.6.3.3 2.3-12.4-7.2-6.4.5-3.9-10.8-5.7.6-8.8-12.5-3.4v-5.2l-11.1-.5-2.3-2.8-16 1.8s.2.2.5.6l-13.9.7-1.3 2 3 3 17.4 1.5 1.7.5c.3.2.5.4.7.5.7.5 7 4.9 13.6 9.6l-29.1-.8L68 62l-1.8.9-.2-1.7-6-3.4-3.4 4.5-9.7 4.4.6 7.4-5.7 4 2.6 6.6-5.2 1.7 2.6 7.9-.7 2-2.5 3.5 3.7 7.4-4.6 4.6 3.4 8.3-5.2 5.4 4.6 6.6-4.1 4 4.1 7.5-1.4 5.4 5.2-4-3.2-8 4.8-6.1 3.8 4.1-3.7 6.3 5.4 6-1.7-5.7 4.5-6.4 1.3 2.1-2.3 3.9 2.6 4.3v-4.3l3.8-4.5-2.3-8.1 6.2 8.5-.8 4.1 2.8 3.2-1.3 3 3.8-4.3s-1.9-3.2-1.7-3.9S69 136 69 136l.2 3.4 4.1 3.4-.4-3.4 4.3-5.6-2.1 7.7 2.1 4.5.4-3.2 4.1-4.3-2.6 6.6 1.9 4.1 4.1-5.8 31.2-2.1.4 5.6 3.2 3.4-1.1-4.1 2.3-10.1 1.5 7.1-.6 6.8 4.1-7.1-.2-2.8 2.8 3-.9 5.1 4.3-6.2-1.7-4.5 2.1-3.9-.4 3.9 2.6 4.7-1.7 4.5 2.4 2.8.4-3.4 4.3-4.1-.9-5.3 2.8-3-3.2-7.5.4-3 .6 2.3 5.5 5.5-2.8 6.3 3.6 3.3.6 5 2.2-4.7-2.2-5 5-3.4 2.1 3.6-2 6.6 5.7 5.1-3.1-6.6 2.3-3.4 3.5 4.8-.6 3.1 3.4-3.5s-3.5-5.4-3.1-5.9c.4-.4 3.4-6 3.8-6.8l3.1 2.5-1.3 6.1 6.4 5-2.1-4 2.1-4.6zm-19.3-15.4 1.5-2.2 1 2.3-.9 1.6-1.6-1.7zm-2.3 8.4-.8-2.6.7-3 2.2 2-2.1 3.6zm3.4 3 1.5-2.1 2.3 3.6-1.2 1.7-2.6-3.2z" fill="#6b5850" stroke-width="none" opacity="1"></path></g></g><g id="svga-group-humanbody-back"><path id="SvgjsPath20379" d="m168.2 200-4.6-14.2-34.9-13.4-10.8-9.7-1.4-50.5h-33l-1.4 50.5-10.8 9.7-34.9 13.4-4.6 14.2-3 20h142.4z" fill="#f4baa3" stroke-width="none" opacity="1"></path><path id="SvgjsPath20380" d="m83.5 112.2-1.4 50.5-10.8 9.7-34.9 13.4-4.6 14.2-3 20H39v-20l1.7-13.3 32.1-12.9 14.1-9.5 2-52.1z" fill="#d58464" stroke-width="none" opacity="1"></path></g><g id="svga-group-chinshadow-single"><path id="SvgjsPath20375" d="m117.4 146.9-.9-34.7h-33l-1 38.2 10.7 7 4 1.1 4.1-1.1z" fill="#c66c49" stroke-width="none" opacity="1"></path></g><g id="svga-group-humanbody-front"></g><g id="svga-group-clothes-single"><path id="SvgjsPath20524" d="m71.3 172.4-4-.1-1.8 1.4h-3l-2.1 1.6-2.5.2-1.5 1.9 1.9 13.6-.8 19.2-1.1 9.8H94l-14.2-17.1-7-17.4z" fill="#152c5e" stroke-width="none" opacity="1"></path><path id="SvgjsPath20525" d="m128.7 172.4 4-.1 1.8 1.4h3l2.1 1.6 2.5.2 1.5 1.9-1.9 13.6.9 19.2 1 9.8H106l14.2-17.1 7-17.4z" fill="#152c5e" stroke-width="none" opacity="1"></path><path id="SvgjsPath20526" d="m62.5 174.7-1.4 1.6 3.2 16.3 4 23.5 2.6 2.5 1.7-3.3-7.2-23.6-2.9-17zm4.4-1.3-1.2 1.7 6.3 25.1 8.1 14 4.3 2.7-.6-4.6-4.3-3.9-5.8-9.9-6.8-25.1zm-5.4 18.1-3.4-14.8-.9 2 2.7 13.2-2.3 28.1h8.5l-4.6-28.5zm76-16.8 1.4 1.6-3.2 16.3-4 23.5-2.6 2.5-1.7-3.3 7.2-23.6 2.9-17zm-4.4-1.3 1.2 1.7-6.3 25.1-8.1 14-4.3 2.7.6-4.6 4.3-3.9 5.8-9.9 6.8-25.1zm5.4 18.1 3.4-14.8.9 2-2.7 13.2 2.4 28.1H134l4.5-28.5z" fill="#0a1f4f" stroke-width="none" opacity="1"></path><path id="SvgjsPath20527" d="m68.7 173.7 2.7 12.9 6.8 17.3 11.1 13.3L78.9 203l-6.8-17.2-1.9-11.5-1.5-.6zm61.2-.3L128 186l-6.8 17.6-12.5 14.7 7.4-7 4.4-4.2 5-8.7 3.6-13.3 2.5-12.1-1.7.4zm5.4 1.5-4.8 20.7 3.1-4.1 3-16.7h-1.3zm-72 .4 4.1 18.3L71 199l-6.2-23.5-1.5-.2z" fill="#233b6d" stroke-width="none" opacity="1"></path></g><g id="svga-group-head" transform="matrix(1,0,0,1,0,0)"><g id="svga-group-ears-left-move" transform="matrix(1,0,0,1,0,0)"><g id="svga-group-ears-left"><path id="SvgjsPath20325" d="m65.4 98.3-5.3-9.7-7-.9-2 7.2.4 8.9 7 11.4 6.1 4.5 3.8-11.6z" fill="#f4baa3" stroke-width="none" opacity="1"></path><path id="SvgjsPath20326" d="m59.4 101.2-4.1-9.8-1.9 5.1.4 5 2.6 6.1-1.6-9.4 1.5-.7 1.3 10.8 2 2.1z" fill="#d58464" stroke-width="none" opacity="1"></path><path id="SvgjsPath20327" d="m61.7 101-3.2-11.6-5.4-1.7 7 .9 5.3 9.7 3 9.8-3.8 11.6-6.1-4.5 3.6.7z" fill="#e59e82" stroke-width="none" opacity="1"></path></g></g><g id="svga-group-ears-right-move" transform="matrix(1,0,0,1,0,0)"><g id="svga-group-ears-right"><path id="SvgjsPath20328" d="m134.6 98.3 5.3-9.7 7-.9 2 7.2-.4 8.9-7 11.4-6.1 4.5-3.8-11.6z" fill="#f4baa3" stroke-width="none" opacity="1"></path><path id="SvgjsPath20329" d="m140.6 101.2 4.1-9.8 1.9 5.1-.4 5-2.6 6.1 1.6-9.4-1.5-.7-1.3 10.8-2 2.1z" fill="#d58464" stroke-width="none" opacity="1"></path><path id="SvgjsPath20330" d="m138.3 101 3.2-11.6 5.4-1.7-7 .9-5.3 9.7-3 9.8 3.8 11.6 6.1-4.5-3.6.7z" fill="#e59e82" stroke-width="none" opacity="1"></path></g></g><g id="svga-group-faceshape-wrap"><g id="svga-group-faceshape-single"><path id="SvgjsPath20361" d="M136.8 61c-6.7-11.2-19-18.9-19-18.9-7-1.5-17.8-2.2-17.8-2.2s-10.8.8-17.8 2.2c0 0-12.4 7.6-19 18.9 0 0-5 14-5.2 23.9l2.1 23 6.6 19.2 6.3 8.4 23 15 4 1 4-1 22.9-14.9 6.3-8.4 6.6-19.2 2.1-23c-.2-9.9-5.1-24-5.1-24z" fill="#f4baa3" stroke-width="none" opacity="1"></path><path id="SvgjsPath20362" d="m93.8 147.5-17.6-13.8-6.2-8.1-6.2-17.5-3-23 6-22.3 17-18 16-3.3 18 .6c-7-1.5-17.8-2.2-17.8-2.2s-10.8.8-17.8 2.2c0 0-12.4 7.6-19 18.9 0 0-5 14-5.2 23.9l2.1 23 6.6 19.2 6.3 8.4 23 15 4 1 4-1-3.7.3-6.5-3.3z" fill="#d58464" stroke-width="none" opacity="1"></path></g></g><g id="svga-group-mouth-single-move" transform="matrix(1,0,0,1,0,0)"><g id="svga-group-mouth-single"><path id="SvgjsPath20313" d="m88.96 130.19 2.46 6.24 4.93 2.13 4.59-2.22 4.19 2.22 5.09-1.97 2.62-7.06-8.28.9-8.62-.08z" fill="#fe856a" stroke-width="none" opacity="1" transform="translate(0 3)"></path><path id="SvgjsPath20314" d="m86.56 129.61 8.09 3.07 12.15-.33 7.88-3.06-5.15-.77-4.15-3.5-4.93 2.95-5.14-2.73-4.92 4.05z" fill="#ef694c" stroke-width="none" opacity="1" transform="translate(0 3)"></path><path id="SvgjsPath20315" d="m96.1 132.2 8.72-.25 1.49-2.68-1.94 2.31z" fill="#ff9a84" stroke-width="none" opacity="1" transform="translate(0 3)"></path></g></g><g id="svga-group-eyes-left-move" transform="matrix(1,0,0,1,0,0)"><g id="svga-group-eyes-left"><g id="svga-group-eyesback-left"><path id="SvgjsPath20431" d="M90.1 100.6s-3.1-4.1-4.3-5.2l-7.4-.2s-3.8 3.3-5.5 5.8l4.4 4.9 7.8.2c0-.1 3.4-2.8 5-5.5z" fill="#ffffff" stroke-width="none" opacity="1"></path></g><g id="svga-group-eyesiriswrapper-left" transform="matrix(1,0,0,1,0,0)"><g id="svga-group-eyesiriscontrol-left" transform="matrix(1,0,0,1,0,0)"><g id="svga-group-eyesiris-left"><path id="SvgjsPath20395" d="m82.59 104.53-4.96-1.82-.91-5.21 4.06-3.39 4.96 1.82.91 5.21z" fill="#8ab42d" stroke-width="none" opacity="1"></path><path id="SvgjsPath20396" d="m78.19 100.47.77-3.59 3.49-1.14 2.73 2.46-.77 3.59-3.49 1.13z" fill="#000000" stroke-width="none" opacity="1"></path><path id="SvgjsPath20397" d="m78.52 96.52 3.23 3.6-1.39-5.36z" fill="#ffffff" stroke-width="none" opacity="1"></path></g></g></g><g id="svga-group-eyesfront-left"><path id="SvgjsPath20439" d="M68 94.5v11.1l7.7 7.9h10.9l7.7-7.9V94.5l-7.7-7.9H75.7L68 94.5zm4.9 6.4c1.7-2.5 5.5-5.8 5.5-5.8l7.4.2c1.2 1.1 4.3 5.2 4.3 5.2-1.6 2.7-5 5.4-5 5.4l-7.8-.2-4.4-4.8z" fill="#f4baa3" stroke-width="none" opacity="1"></path><path id="SvgjsPath20440" d="m90.9 98.6-4.4-6.3s-6.7-.7-8.6-.3c0 0-4.5 6.3-5.7 8 0 0 4.5-6.9 5.6-8.4 0 0 6.6 0 8.9.4 0 0 3.9 5.9 4.2 6.6z" fill="#d58464" stroke-width="none" opacity="1"></path><path id="SvgjsPath20441" d="m70.5 99.9 2.5.6.8-.9-2.7-1.3 3 1 .6-.8-2.1-1.4 2.3 1.2 1-1.1-1.8-1.2 2 1 2.2-2.5 7.8.5 4.6 5.8-.6-.2-4.2-4.8-7.4-.4-6.3 6.4.5-1z" fill="#092e0c" stroke-width="none" opacity="1"></path></g></g></g><g id="svga-group-eyes-right-move" transform="matrix(1,0,0,1,0,0)"><g id="svga-group-eyes-right"><g id="svga-group-eyesback-right"><path id="SvgjsPath20432" d="M109.9 100.6s3.1-4.1 4.3-5.2l7.4-.2s3.8 3.3 5.5 5.8l-4.4 4.9-7.8.2c0-.1-3.4-2.8-5-5.5z" fill="#ffffff" stroke-width="none" opacity="1"></path></g><g id="svga-group-eyesiriswrapper-right" transform="matrix(1,0,0,1,0,0)"><g id="svga-group-eyesiriscontrol-right" transform="matrix(1,0,0,1,0,0)"><g id="svga-group-eyesiris-right"><path id="SvgjsPath20398" d="m119.22 104.53-4.96-1.82-.91-5.21 4.06-3.39 4.96 1.82.91 5.21z" fill="#8ab42d" stroke-width="none" opacity="1"></path><path id="SvgjsPath20399" d="m114.82 100.47.77-3.59 3.49-1.14 2.73 2.46-.77 3.59-3.49 1.13z" fill="#000000" stroke-width="none" opacity="1"></path><path id="SvgjsPath20400" d="m115.15 96.52 3.23 3.6-1.39-5.36z" fill="#ffffff" stroke-width="none" opacity="1"></path></g></g></g><g id="svga-group-eyesfront-right"><path id="SvgjsPath20442" d="M124.3 86.6h-10.9l-7.7 7.9v11.1l7.7 7.9h10.9l7.7-7.9V94.5l-7.7-7.9zm-1.6 19.2-7.8.2s-3.4-2.7-5-5.4c0 0 3.1-4.1 4.3-5.2l7.4-.2s3.8 3.3 5.5 5.8l-4.4 4.8z" fill="#f4baa3" stroke-width="none" opacity="1"></path><path id="SvgjsPath20445" d="m109.1 98.6 4.4-6.3s6.7-.7 8.6-.3c0 0 4.5 6.3 5.7 8 0 0-4.5-6.9-5.6-8.4 0 0-6.6 0-8.9.4 0 0-3.9 5.9-4.2 6.6z" fill="#d58464" stroke-width="none" opacity="1"></path><path id="SvgjsPath20446" d="m129.5 99.9-2.5.6-.8-.9 2.7-1.3-3 1-.6-.8 2.1-1.4-2.3 1.2-1-1.1 1.8-1.2-2 1-2.2-2.5-7.8.5-4.6 5.8.6-.2 4.2-4.8 7.4-.4 6.3 6.4-.5-1z" fill="#092e0c" stroke-width="none" opacity="1"></path></g></g></g><g id="svga-group-facehighlight-single"></g><g id="svga-group-eyebrows-left-move" transform="matrix(1,0,0,1,0,0)"><g id="svga-group-eyebrows-left-rotate" transform="matrix(1,1.7453292519943295e-9,-1.7453292519943295e-9,1,1.531526407916317e-7,-1.3892820049932197e-7)"><g id="svga-group-eyebrows-left"><path id="SvgjsPath20502" d="m91.7 88.1.1 1.9-1.7 1.7-1.8-.7s-5.5-2.8-5.8-2.8S76 88 76 88l-7.3 2.9-1.3-1.1 6.1-5.1 6.6-.9 7.9 2.1 3.7 2.2z" fill="#73625b" stroke-width="none" opacity="1"></path><path id="SvgjsPath20503" d="m80.1 83.8 1 .3 1.7 3.6-3-3.8.3-.1zm-10.8 4.4 4.1-.6-5.5 1.8 1.4-1.2zm20.3 2.1 1-2.9.9.5-1.9 2.4zm-.4-3.8-.6 3-.4-3.6 1 .6zM73.1 85l2.3.5-3.2.2.9-.7zm4-.8 2 2-3.1-1.9 1.1-.1z" fill="#827874" stroke-width="none" opacity="1"></path></g></g></g><g id="svga-group-eyebrows-right-move" transform="matrix(1,0,0,1,0,0)"><g id="svga-group-eyebrows-right-rotate" transform="matrix(1,1.7453292519943295e-9,-1.7453292519943295e-9,1,1.531526407916317e-7,-2.1022492546762805e-7)"><g id="svga-group-eyebrows-right"><path id="SvgjsPath20504" d="m108.3 88.1-.1 1.9 1.7 1.7 1.8-.7s5.5-2.8 5.8-2.8 6.5-.2 6.5-.2l7.4 2.9 1.3-1.1-6.1-5.1-6.6-.9-7.9 2.1-3.8 2.2z" fill="#73625b" stroke-width="none" opacity="1"></path><path id="SvgjsPath20505" d="m119.9 83.8-1 .3-1.7 3.6 3-3.8-.3-.1zm10.8 4.4-4.1-.6 5.5 1.8-1.4-1.2zm-20.3 2.1-1-2.9-.9.5 1.9 2.4zm.4-3.8.6 3 .4-3.6-1 .6zm16.1-1.5-2.3.5 3.2.2-.9-.7zm-4-.8-2 2 3.2-1.8-1.2-.2z" fill="#827874" stroke-width="none" opacity="1"></path></g></g></g><g id="svga-group-nose-single-move" transform="matrix(1,0,0,1,0,0)"><g id="svga-group-nose-single"><path id="SvgjsPath20479" d="m106.39 109.63-.72-.09-1.09-.01 1.23.86 1.4 8.65-3.62.99-1.27.73 6.51-.91z" fill="#d58464" stroke-width="none" opacity="1" transform="translate(0 2)"></path><path id="SvgjsPath20480" d="m103.41 117.68-3.15 3.28h-.53l-3.15-3.28-3.08.45 1.18 1.09 1.81-.45 3.05 4.01h.91l3.05-4.01 1.81.45 1.17-1.09z" fill="#d58464" stroke-width="none" opacity="1" transform="translate(0 2)"></path><path id="SvgjsPath20481" d="m96.4 120.03-3.62-.99 1.4-8.65 1.23-.86-.69.01 1.89-14.75-2.67 14.8-.35.04-2.44 10.22 6.51.91z" fill="#d58464" stroke-width="none" opacity="1" transform="translate(0 2)"></path><path id="SvgjsPath20482" d="m102.76 94.48 1.53 10.76.73.59-1.77-10.36z" fill="#d58464" stroke-width="none" opacity="1" transform="translate(0 2)"></path><path id="SvgjsPath20483" d="M104.26 116.95s1.75.38 1.75.19-.88-6.26-.88-6.26l-.88-.63v6.7z" fill="#fcc9b5" stroke-width="none" opacity="1" transform="translate(0 2)"></path><path id="SvgjsPath20484" d="m99.94 117.63 2.69-.43-1.5-17.73-.5-1.62z" fill="#fcc9b5" stroke-width="none" opacity="1" transform="translate(0 2)"></path></g></g><g id="svga-group-hair-front"><path id="SvgjsPath20547" d="m173.4 130.3 1.7-6.1-5-5.4 1.7-10.3-6.3-3.6 3.2-5.6-5.4-2 2.8-6.3-5.4-3.8 1.5-5.4-6.3-4 1.5-5.8-6.9-2.9-.4-7.2-9.3-2.7-.2-7.6-9.6-2.5-1.2-6.1-2.2-.2-.6-2.5s-3.8.9-7.3 1.7l-.9-.1-1.9-2.9-6 .6-1.4-2.1L106 39l-3.2-2.2-7.1 2.9v-.1l-11.2-3-7.2 3.2H67.1l-3.7 6.3-7.6 2.8-1.3 9.9-6.3 2.6-.2 7.1s-7.6 4.1-7.3 5 .9 8.2.9 8.2l-3.6.9 1.1 8.9-5.8 8 4.5 6.3-6 6.9 4.3 6.1-2.8 3.2 1.1 7.3-3.7 2.6 1.9 5.6-1.9 3.7 2.2 3.5-.7-4.1 4.5-4.3-1.7-3.7 5-2.8-1.3-6.5 4.5-6.1-3.5-5.6 6-8-3.9-5.8 5-5.2-3.2-6.3 5.8-1.7-2.2-8.4 5.8-2.3.2 1s-4.8 4-4.6 4.8 1.4 4.6 1.4 4.6l-4.2 3.8 3.4 7s-4.6 2.6-3.8 3.2c.8.6 3 8.2 3 8.2l-5 .8 3 6.6-3.4 1.4 3.6 5.2-3.6 2.8 2.8 6.4-3.8 2.4 4.4 5.8-.1-.9 3.1 6.4-2.8 4.1 4.8-4.1-2.6-6.5 3.7-4.8-2.8-8.2 3.9-3.7-2.2-6.9 3.7-2.8-2.8-8.4 4.1-1.7-1.6-4.8 1-1.4-1.1-1.7 2.3-.9-.5.6 5.2 9.3-5.6 7.6 4.1 8.4L55 127l5 9-2.6 3.9 2.6 6.9-.7-6.3 4.3-3.5-5.2-9.9 5.4-7.8-4.3-9.9 6.3-6.1-4.7-11 5.8-5.4-1.3-5.6 6.1-1.9 1.1-12.1 3.7-8.2-2.6 7.7-.9 12.8 6.3-.9 1.6-11.9v11.9l6.2-.3.5-5.2 1.6 5.4s1-11.1 1-11.9 2.6-16 2.6-16l-1.3 16L92 78l1-7.2.5 8 5.2-1.6-.3-11.2 1.6 11.9 3.9.3.8-6.2.5 6.2h6.3l.9-11.9-.8-11.9 2.3 11.9-.8 11.9 4.9.8.3-3.3 1.8 3.6.8-11.1.5 11.1 3.1-.3 5.5 2.3.7-8.4-.8-7.5 2.3 8.5-.8 8.5 2.9 1.5 3.4 6.2-3.6 5.8 4 6.2s-3.8 10.8-4.2 11.6c-.4.8 4 9.1 4 9.1l-2.8 5.2 4.6 6.4-3.6 4.4 2.4 3.7-1.5 2.5 4.2 4.1-1.4-2.7 3.4-2.9-3.4-4.4 4.2-5.4s-2.8-3.3-3.4-3.5c-.6-.2 2.1-5.4 2.1-5.4l-4.5-10.8 4.8-10.8-4.8-6 3.9-3.5c-.9 1.6-1.7 3.2-1.8 3.5-.2.7 5.6 4.9 5.6 4.9l-4.1 9.2 5.8 4-5 9.4 6.7 4.9-3.2 7.4 4.1 5.8-1.7 5.6 4.1-5.2-3.9-6.7 5-6.3-6.9-6.1 6.3-8.3s-6.7-6.1-7.3-6.3c-.6-.2 4.3-7.6 4.3-7.6l-5-5.6 4.2-7.2 5.5 3.6-3 9 6.9 4.7-.1.1-6 8 6.9 5.2-2.6 7.9 7.3 4.9-2.4 6.5 4.5 2.9.6 4.3 1.9-3.6-2.6-4.5 2.8-7.4-6.9-4.7 3.6-5.6 5.5 3.3-2.2 7 4.5 2.9 1.1 4.7 1.9-4.9-3.1-3.1zm-14.2-29.8 2.5 1.4s-.3.5-.6 1.2l-2.4-.9.5-1.7zm-2.4-17-1.7 3.3-.4-.3.6-3.7 1.5.7zm-5-9.6-.9 1.9-1.7-1-.3-1.8 2.9.9zm-93.4 1.4L57 71.2l2.5-1.7.2 4.1-.3 1.4-1 .3zm87.9-9-4.5-2.4 4.9 1.3-.4 1.1zm-88.4-2.4-.5 2.9-2.6.9v-1.5l3.1-2.3zm-11.7 71.7-.5-3 3.5-2.9.2.6-3.2 5.3zm4.7-18-.7.7-1.8-2.2 1.1-1.1 1.4 2.6zM58 80.8l1.6 7.6-.9 1-.7-8.6zm4 4.9.7-1.6.2.7-.9.9zm80.5 7.4-2-4.5.2-1.9 3.6 3.2c-.1-.1-.9 1.5-1.8 3.2zm-.9-11.6c-.4 0 .5-2.2 1.2-4.1l6.3 2.3-1.5 6.4c-2.2-1.9-5.5-4.6-6-4.6zm23.5 36.7L160 115l3.4-6.1c1.9.6 3.5 1.1 3.5 1.1l-1.8 8.2z" fill="#73625b" stroke-width="none" opacity="1"></path><path id="SvgjsPath20548" d="m92.7 42.3-10.2-1.4-5.9 4-7-.5-3.2 8.6-7.2 2.7 1.3 7.8-6.5 7 .8 9.9-2.7 4 1.1 5.1.8-5.9 4.3-4.6-1.3-7.8 7.5-6.3-2.1-7.9 7.3-2.7 1.9-7.5 7.2.3 4.3-4.6 9.6-.2zm-4.8 4.5-6.2 13.7 1.1 16.1 1.3-15.9 3.8-13.9zm17.2-3.7 4.3 18-.8 14.5-1.1-14.5-2.4-18zm-5.4 4.5L98.9 61l1.9 14.2-.3-14.8-.8-12.8zm15.9-2.9 8.6 1.3 3.2 7.2 8.9 1.9-.5 7.3 5.4 5.1-3.5 7 2.9 6.2-2.7 3.8 1.6 5.1-4-6.7 2.9-3.2-3.8-7 2.4-5.9-4.6-5.9-.5-4.6-7.5-2.2-2.4-6.5-6.4-2.9zm3.2 7.2 5.6 16.1.5 9.1 2.4-10.2-3.8-10.2-4.7-4.8zm26.9 21.8 7 7.8-1.6 6.4 6.7 5.6-3.2 7.5 6.4 5.1-3.5 6.2 4.3 7-2.1 5.4 4.8-5.6-4.3-7 3.2-7.5-4.6-5.1 1.3-7.8-5.6-5.2.2-6.6-9-6.2zM41.4 87.4l1.9 5.4-5.1 5.4 3 6.2-5.4 7.3 4 6.5-3 3.8 6.3-4.7-3.5-5.6 6-8-3.9-5.8 5-5.2-5.3-5.3z" fill="#7b6d67" stroke-width="none" opacity="1"></path></g><g id="svga-group-glasses-single-move" transform="matrix(1,0,0,1,0,0)"><g id="svga-group-glasses-single"></g></g></g></g></g><rect id="svga-credit-rect" width="200" height="15" x="0" y="185" fill="#ecf0f1" opacity="0.5" style="display: none;"></rect><text id="svga-credit-text" font-family="Avenir Next, Roboto, Helvetica, Arial, sans-serif" font-size="10px" text-anchor="start" font-weight="400" size="10px" anchor="start" weight="400" fill="#333333" x="33.40447998046875" y="182.60824704170227" style="display: none;"><tspan id="SvgjsTspan20302" dy="13" x="33.40447998046875">Created on AvatarMaker.com</tspan></text></g><defs id="SvgjsDefs20254"></defs></svg>