<svg xmlns="http://www.w3.org/2000/svg" version="1.1" width="600px" height="600px" viewBox="0 0 200 200" style="overflow:hidden!important;"><g id="svga-group-wrapper"><g id="svga-group-backs-single"><path id="SvgjsPath21199" d="M0 0h200v200H0V0z" fill="#f9f2e7" stroke-width="none" opacity="1"></path><path id="SvgjsPath21200" d="M0 0h18.2v200H0V0zm36.4 0h18.2v200H36.4V0zm36.3 0h18.2v200H72.7V0zm36.4 0h18.2v200h-18.2V0zm36.3 0h18.2v200h-18.2V0zm36.4 0H200v200h-18.2V0z" fill="#eadac1" stroke-width="none" opacity="1"></path></g><g id="svga-group-humanwrap-move" transform="matrix(1,0,0,1,0,0)"><g id="svga-group-humanwrap" transform="matrix(0.8499995000000001,0,0,0.8499995000000001,14.955047389512046,16.91255637499998)"><g id="svga-group-hair-back-move" transform="matrix(1,0,0,1,0,0)"><g id="svga-group-hair-back"><path id="SvgjsPath21285" d="M65.8 116.4c0-.2-.1-.4-.1-.5 2.2-1.2 3.6-3.9 3.1-7.2 0-.4 0-.8-.1-1.2 0-1.9-.7-3.9-2.1-5.5l.3-.6c3.3-3.2 4.8-8.4.3-12.9-1.3-1.3-3-2.2-4.8-2.7-.7-.7-1.6-1.4-2.5-1.9-.1-2.3-.8-4.6-2.3-6.5-2.5-3.2-6.8-4.9-10.7-3.6-2.1.7-3.8 2.1-4.9 3.9h-1.2v-.2c0-.8-.2-1.6-.7-2.3-.5-.7-1-1.3-1.7-1.7-.1-.1-.2-.1-.3-.2 0 0-.1-.1-.2-.1-1.8-1.1-4.2-1.2-6.1-.1-.1.1-.2.1-.3.2-1.3.8-2.4 2.1-2.8 3.6-.4 1.4-.2 3.3.6 4.6.4.6.9 1.1 1.4 1.6-.4.3-.7.7-.9 1.1-.5.9-.8 2.3-.4 3.3s1 2 2 2.6c.1 0 .1.1.2.1-.5.6-.8 1.2-1 2-.1.3-.2.7-.3 1-.8 2.6 1 5.2 3.4 5.8-.5.7-.8 1.4-.8 2.3 0 .4 0 .8.1 1.2.1 1.1.4 2 1.2 2.8.4.4 1 .7 1.5.9-.2.8-.2 1.8 0 2.5.1.4.3.8.5 1.1 0 .1-.1.2-.2.4-.1.6-.2 1.1-.2 1.7.1.6.2 1.1.2 1.7.2.8.6 1.6 1.2 2.2.3.5.7.9 1.2 1.2.4.4.9.7 1.4.8.5.3 1 .4 1.6.4.8.2 1.7.2 2.5-.1.4-.1.8-.3 1.3-.5.4.2.8.4 1.3.5 0 .6.2 1.2.5 1.8.5 1.1 1.2 2.1 2.3 2.7.9.5 1.9.7 2.9.8h.1c.4.7.9 1.3 1.6 1.8.4.4.8.6 1.3.8.5.3 1 .4 1.5.4.5.2 1.1.2 1.6 0 .8 0 1.6-.3 2.3-.7.2-.1.5-.3.7-.4.8.7 1.9 1.2 3 1.1 1.2-.1 2.5-.4 3.3-1.4.7-.8 1.3-1.7 1.6-2.7.1-.5.2-1 .2-1.5 0-1-.3-1.7-.7-2.5-.8-.9-1.8-1.6-2.9-1.9zm99.9-15.7c-.3-.4-.6-.7-.8-1 .2-.2.4-.3.7-.5.6-.5 1-1.2 1.2-1.9.5-1.2.7-2.6.3-3.8-.2-.7-.5-1.3-.9-1.8.2-.9.2-1.8 0-2.6-.2-.7-.3-1.2-.7-1.8-.6-.9-1.1-1.4-2-2 .1-.3.1-.7.1-1.1 0-2.7-1.4-5.1-3.8-6.4-2.2-1.2-4.9-1.1-7.1.1-2.7-2.8-7.1-3.5-10.7-.9-1 .7-1.8 1.6-2.3 2.6-2.1-.6-4.3-.4-6.2.8-2 1.3-3.1 3.4-3.4 5.6-2.3 0-4.1 1.4-4.9 3.6-.8 2-1.2 4.2-.6 6.3 0 .2.1.3.2.4-.9 1.1-1.6 2.3-1.9 3.6-.3.8-.5 1.7-.6 2.6-.1 1.6.3 3.1 1.1 4.4-.5.4-.9.8-1.2 1.3-1.6 1.7-2.6 4.1-2.2 6.7.4 3.2 2.9 5.7 6 6.1.3 3 2.5 5.6 5.5 6.3.1.6.2 1.2.6 1.8.5.7 1.1 1.3 1.8 1.8 1.1.7 2.5.8 3.8.5 1.8-.4 3.2-1.4 4.1-3 .1-.2.2-.3.2-.5.1.1.2.1.3.1.5.2.9.4 1.4.6.8.2 1.6.3 2.4.1 1.2-.2 2.5-.7 3.4-1.6.7-.8 1.2-1.6 1.5-2.6.2-.7.2-1.3.2-1.9.1-.4.1-.9.1-1.3 1.5 0 2.9-.7 3.8-1.9.8-1 1.1-2.2 1-3.4.1-.4.2-.8.1-1.2 0-.2 0-.3-.1-.5h.5c.9 0 1.7-.2 2.5-.6 2.2.2 4.3-.8 5.8-2.5 1.9-2.1 2.7-5 2-7.8-.3-1-.7-1.9-1.2-2.7z" fill="#a68469" stroke-width="none" opacity="1" stroke="none"></path><path id="SvgjsPath21286" d="M37.6 103c-2.1-1.1-2-3-.9-4.5.3-.4-.1-1-.6-1.1-3-.1-5.3-4.5-1.7-5.9.3-.1.4-.6 0-.7-2.2-.4-3.3 2-3.1 3.9.2 2.1 1.7 3.4 3.6 3.9-1 2.2-.6 5.6 2.5 5.2.5-.1.5-.7.2-.8zm6.2 11.7c-2 .5-5.1 1.5-6-1.2-.6-2.1.8-4.1 2.2-5.3.3-.2 0-.7-.4-.6-2.5.7-3.8 4.6-2.7 6.9 1.3 2.7 5.1 2.6 7.2.9.3-.4 0-.8-.3-.7zm3.9-15.5c-1.1.1-2.3.1-3.2-.7-1-.8-1.2-2.3-.7-3.4.2-.5-.5-.9-.7-.4-.8 1.5-.7 3.3.5 4.6 1.1 1.1 3.1 1.6 4.4.6.2-.2 0-.7-.3-.7zm2.8 1.3c-.3.1-.3.5 0 .6 1.7.5 3.4 1 4.4 2.6 1 1.7.7 3.2.4 5-.1.6.5.8.9.4 2.7-3.6-1.5-9.5-5.7-8.6zm4.1 19.2c-.8.5-1.5 1.2-2.3 1.7-1.2.6-2.6.4-3.6-.4-1.8-1.6-1.3-4.3.3-5.9.3-.3-.1-.8-.5-.6-2.5 1.8-3.2 5.2-.8 7.4 2.3 2.2 6.4 1.3 7.6-1.7.2-.3-.4-.6-.7-.5zm5.3.7c-.5.5-.9 1.2-1.8 1-.8-.1-1.3-.9-1.2-1.7.1-.6-.9-.7-1-.1-.3 1.3.5 2.7 1.8 3.1 1.1.3 3-.6 2.9-1.9.1-.5-.3-.7-.7-.4zm90 1.3c-.1-.3-.6-.4-.7 0-.3 1.3-.7 2.7-1.8 3.6-1.2 1.1-3 1.2-4.5.6 0-.4-.1-.8-.3-1.1-.4-.7-1.4-.1-1.1.6.6 1.4-1.6 3.9-2.7 4.4-1.6.8-3.5.1-4.4-1.3-.3-.4-.9-.1-.7.4 1.1 2 3.6 3.1 5.7 2.1 1.3-.6 2.9-2.4 3.4-4.1 1.6.8 3.5.7 5.1-.3 1.5-1.1 2.5-3.1 2-4.9zm-2.5-7.8c-1 .7-2 1.5-3.3 1.2-1.4-.3-2.2-1.7-2.2-3.1 0-.7-.9-.6-1 0-.2 1.9.9 3.7 2.7 4.3 1.7.5 3.8-.2 4.5-1.9.1-.3-.3-.7-.7-.5zm12.6-8.5c-.3-.3-.8 0-.7.4.4 1.7.3 3.4-.9 4.7-1.2 1.2-4.1 1.5-4.2-.9 0-.7-1-.7-1 0-.1 2.8 3 4 5.2 2.7 2.1-1.3 3.7-4.9 1.6-6.9zm-6.8-9.9c-.5-.2-.7.4-.4.8.9 1.1 1.9 1.9 1.9 3.4 0 1.7-1.6 3.2-3.2 2.4-.6-.3-1.1.6-.5.9 1.9 1 4 0 4.7-2 .7-2-.5-4.7-2.5-5.5zm12.2-2.6c-.2-.1-.5 0-.5.3 0 .5.2 1 .3 1.5.2.8.1 1.8-.4 2.5-.8 1.5-2.6 2.2-4.2 1.9-.6-.1-.8.7-.2.9 2 .5 4.1-.2 5.2-1.9 1-1.3 1.5-4.3-.2-5.2zm.2 9.7c-.4-.4-1 .2-.6.6 2.6 3 1.3 6.4-1.6 8.4-.3.2-.1.7.3.7 4.4-1 4.9-6.9 1.9-9.7z" fill="#875d3b" stroke-width="none" opacity="1" stroke="none"></path><path id="SvgjsPath21287" d="M139.8 122.9c-.1-.3-.5-.3-.6-.1-.5 1-.4 2.2-1.2 3.1-.6.7-2.1 1-2.4-.1-.1-.5-.9-.3-.8.2.3 1.4 2 1.8 3.2 1.3 1.5-.6 2.2-2.9 1.8-4.4zm8-2.7c-.2-.2-.7-.3-.7.1-.2.9-.1 1.8-1 2.3-.9.6-2 .2-2.6-.5-.4-.4-1.1.1-.7.6.9 1.1 2.4 1.7 3.7 1 1-.5 2.1-2.3 1.3-3.5zm9.4-16.9c-1.5 1.7-3.6 2.4-5.3.5-.5-.5-1.3 0-1.1.6.2.9.1 1.8-.4 2.7-.8 1.4-2 1.7-3.8.7-.3-.4-.9-.1-.8.3.4 1.7 2.1 2.1 3.5 1.5 1.8-.8 2.5-2.3 2.7-4.1 2.1 1.3 5.1.8 6-1.9.1-.3-.5-.6-.8-.3zm4.9-1.5c-.2-.2-.4.1-.3.3 1.4 2.3 1.8 5.1.2 7.4-.3.4.4.9.7.5 1.9-2.3 2-6.2-.6-8.2zm1.1-6.9c-.1-.2-.5-.2-.6.1-.1.6-.2 1.1-.5 1.6s-.8.9-1.4 1c-.5.1-.3.9.2.8.8-.2 1.5-.7 1.9-1.3.5-.6.8-1.6.4-2.2zM59.6 122.4c-.7.6-1.3 1.4-2.3 1.6-.9.2-2-.2-2.3-1.2-.1-.4-.9-.4-.8.1.2 1.3 1.2 2.3 2.6 2.4 1.5.1 3-1.1 3.5-2.5.1-.4-.4-.6-.7-.4zm-13.8-9.6c-1 0-1.9.2-2.9.1-.4-.1-.8-.2-1.2-.4-.2-.1-.4-.3-.5-.6-.1-.4.1-.7.6-.7.5.2.9-.4.4-.7-1.4-.8-2.7 1.2-1.8 2.3 1.1 1.6 4.2 1.8 5.7.8.4-.1.2-.8-.3-.8zm2-8c-.2-.2-.6-.1-.6.2 0 .5.1.9 0 1.4-.2.5-.5.9-1 1.1-.5.2-.3 1.1.2.8.7-.3 1.2-.8 1.5-1.5.4-.6.5-1.6-.1-2zM36 91.4c-.7.3-1.2 1.1-1.2 1.9-.1.7.2 1.7 1 1.9.3.1.5-.2.4-.5-.2-.5-.5-.8-.5-1.3s.3-1 .7-1.2c.5-.4.1-1-.4-.8z" fill="#c5b2a4" stroke-width="none" opacity="1" stroke="none"></path></g></g><g id="svga-group-humanbody-back"><path id="SvgjsPath21131" d="M166.5 181.1c-10.9-6.6-27.6-8.4-35-12.1-4.9-2.5-9.1-4.7-8.9-17.8s1.9-42.4 1.9-42.4H75.4s1.6 29.4 1.9 42.4-4.2 15.6-8.9 17.8c-7.4 3.5-24.1 5.4-35 12.1-10.8 6.6-10 18.9-10 18.9v19.7h153.3V200c-.1 0 .7-12.3-10.2-18.9z" fill="#f4baa3" stroke-width="none" opacity="1" stroke="none"></path></g><g id="svga-group-chinshadow-single"><path id="SvgjsPath21127" d="M124.5 108.9H75.4c.1 1.8 1.6 29.7 1.9 42.3 0 1.4 0 2.7-.1 3.9 1.7 2.2 3.4 4.2 5.1 5.9 5.5 6.1 8.4 6.5 17.7 6.5s12.2-.4 17.7-6.5c1.6-1.7 3.3-3.7 5-5.9-.1-1.2-.1-2.5-.1-3.9.2-12.7 1.8-40.5 1.9-42.3z" fill="#d58464" stroke-width="none" opacity="0.65" stroke="none"></path></g><g id="svga-group-humanbody-front"><path id="SvgjsPath21132" d="M78.7 156.8c.5 4.8 1.7 9.4 3.1 13.9.8 2.3 1.6 4.6 2.6 6.9.8 2 1.7 4.2 3.1 5.9.3.4 1 0 .9-.5-.5-2.2-1.6-4.3-2.4-6.4-.9-2.2-1.7-4.4-2.5-6.6-1.5-4.4-2.8-8.9-4.1-13.3-.2-.4-.8-.3-.7.1zm41.3-1c-1.3 8.2-3.9 16.1-5.4 24.2-.1.4.4.5.6.2 3.1-7.7 4.1-16.1 5.1-24.3-.1-.2-.3-.2-.3-.1zm-25.8 11.9c-.9 3.6 1.9 8.6 6.2 7.6.5-.1.4-.8 0-1-1.4-.5-2.9-.9-3.9-2.1-1.1-1.2-1.5-2.9-1.4-4.5 0-.4-.8-.5-.9 0z" fill="#d58464" stroke-width="none" opacity="1" stroke="none"></path><path id="SvgjsPath21133" d="M177.3 219.7c-.1-6.6-.3-13.1-.3-19.7l-.3-.3c.1 0 .1 0 .2.1s.1.2.1.1v-1.4c0-.5-.1-.9-.1-1.4-.1-.9-.3-1.9-.5-2.8-.5-1.8-1.1-3.6-2-5.3-1.7-3.4-4.4-6.2-7.7-8.1-3.6-2.2-7.6-3.8-11.6-5.1-4-1.3-8.1-2.4-12.1-3.5-4-1.2-8.1-2.2-11.8-4.2-1.9-1-3.6-2.1-4.8-3.6-1.2-1.6-1.9-3.5-2.3-5.5-.8-4-.4-8.2-.3-12.4l.7-12.6 1.5-25.2.1-1.4h-1.4c-8.2 0-16.4 0-24.6.1l-24.6.3h-.9l.1.9c.8 11.9 1.6 23.8 2.1 35.7.1 3 .3 6 .2 8.9-.1 2.9-.4 5.9-1.6 8.6-.6 1.3-1.4 2.5-2.4 3.5s-2.3 1.8-3.6 2.4c-2.6 1.3-5.4 2.2-8.3 3-5.8 1.5-11.6 2.8-17.3 4.7-2.8.9-5.7 2-8.4 3.4-1.3.7-2.7 1.4-4 2.4-1.3.9-2.4 1.9-3.5 3.1-2.1 2.3-3.6 5.2-4.5 8.1-.5 1.5-.8 3-1 4.6-.1.8-.1 1.6-.1 2.4v2.3l-.2 17.9v1.3h1.4l38.3.2c12.8.1 25.5.1 38.3 0 12.8-.1 25.6-.1 38.3-.3 12.8-.2 25.6-.5 38.3-.7h.6v-.5zm-77.2-1.6H61.8l-37 .2-.1-16.6v-2.2c0-.7 0-1.4.1-2.1.1-1.4.4-2.8.8-4.2.8-2.7 2.1-5.3 3.9-7.5.9-1.1 2-2.1 3.1-2.9 1.1-.9 2.4-1.6 3.7-2.3 2.6-1.4 5.3-2.5 8.1-3.5 5.6-2 11.4-3.4 17.1-5.1 2.9-.8 5.8-1.7 8.5-3.1 1.3-.7 2.7-1.5 3.8-2.6 1.1-1.1 2-2.4 2.6-3.9 1.2-2.9 1.5-5.9 1.6-8.9 0-3-.1-6-.2-9l-1.3-34.8 23.5.4c7.7.1 15.4.1 23.1.1-.4 7.9-.8 15.9-1.1 23.8-.2 4.2-.2 8.4-.3 12.6 0 4.2-.2 8.5.8 12.8.5 2.1 1.3 4.2 2.8 6 1.4 1.7 3.4 2.9 5.3 3.8 3.9 1.9 8 2.8 12.1 3.8s8.2 2 12.2 3.3c4 1.3 7.9 2.8 11.5 5 3.2 1.9 5.8 4.7 7.5 8 .9 1.6 1.5 3.4 1.9 5.2.2.9.4 1.8.4 2.7.1.5.1.9.1 1.4V200l-.3 19c-12.6-.2-25.1-.5-37.7-.7-12.7-.1-25.5-.1-38.2-.2z" fill="#c66c49" stroke-width="none" opacity="1" stroke="none"></path></g><g id="svga-group-clothes-single"><path id="SvgjsPath21013" d="M149.9 220.3c-.4-19.5 5.9-44.6 5.9-44.6l-12.6-3.6s-8.7 28.3-45.2 27.1-41.2-27.1-41.2-27.1l-12.6 3.6s6.3 25.2 5.9 44.6h99.8z" fill="#4b2824" stroke-width="none" opacity="1"></path><path id="SvgjsPath21014" d="m156 174.9-12.6-3.6c-.4-.1-.9.1-1.1.5-.7 2-1.7 4.1-2.9 6-1.1 1.9-2.4 3.8-3.9 5.5-1.4 1.7-3 3.3-4.7 4.8-1.7 1.4-3.5 2.8-5.4 3.9-3.8 2.4-8 4.1-12.4 5.2-4.4 1.1-8.9 1.6-13.4 1.6s-9.1-.4-13.5-1.4c-1.1-.2-2.2-.5-3.3-.8-1.1-.4-2.2-.7-3.2-1.1-2.1-.8-4.2-1.7-6.2-2.9-3.9-2.2-7.5-5.2-10.2-8.7-1.4-1.8-2.6-3.7-3.6-5.7s-1.8-4.1-2.2-6.3c-.1-.3-.4-.5-.8-.4L44 174.9c-.4.1-.6.5-.5.9.8 3.6 1.6 7.3 2.3 11 .7 3.7 1.3 7.4 1.8 11.1.5 3.7.9 7.4 1.2 11.2.3 3.7.4 7.5.3 11.2 0 .6.5 1.1 1.1 1.1l25.2-.1c8.4 0 16.8-.1 25.1-.2l12.5-.1 12.4-.2 24.7-.4c.1-3.8.3-7.6.7-11.3.4-3.7.9-7.4 1.4-11.2.6-3.7 1.3-7.4 2-11.1.8-3.7 1.5-7.4 2.4-11 0-.4-.2-.8-.6-.9zm-3.3 11.6c-.7 3.7-1.2 7.4-1.7 11.2s-.9 7.5-1.1 11.3c-.2 3.8-.3 7.5-.1 11.2l-25.2-.4-12.5-.2-12.4-.1c-8.3-.1-16.6-.2-24.8-.2l-23.7-.1c0-3.4-.2-6.9-.4-10.3-.3-3.8-.8-7.5-1.3-11.3-1.1-7.2-2.5-14.4-4.2-21.5l11.2-3.3c2.5 8.9 8.9 16.1 16.8 20.4 8.1 4.5 17.4 6.2 26.5 6.3 4.6.1 9.2-.3 13.7-1.3s8.9-2.6 12.9-5c4-2.3 7.6-5.4 10.6-8.9 2.8-3.4 5.2-7.1 6.8-11.3l11.1 3.1c-.8 3.5-1.6 7-2.2 10.4z" fill="#2c100c" stroke-width="none" opacity="1"></path></g><g id="svga-group-head" transform="matrix(1,0,0,1,0,0)"><g id="svga-group-ears-left-move" transform="matrix(1,0,0,1,0,0)"><g id="svga-group-ears-left"><path id="SvgjsPath21023" d="M60.8 95.5s-3.2-5.5-5-8c-1.8-2.4-4.1-5-4.9-.8s-.9 12.5.3 18.1 6.2 11.3 8.3 11.3c2.2 0 3.6-8.4 3.6-11.4 0-2.8-1.1-7.1-2.3-9.2z" fill="#f4baa3" stroke-width="none" opacity="1" stroke="none"></path><path id="SvgjsPath21024" d="M62.6 94.8c.3.8-.2 4.4 0 5.3.4 1.6.8 3.3.9 5 0 1.7-.1 3.3-.4 4.8-.3 1.5-.6 3-1.1 4.3-.3.7-.6 1.3-1 1.9-.2.3-.4.5-.7.7-.2.1-.3.1-.5.1s-.3 0-.5-.1c-.6-.2-1.2-.5-1.7-.9-.3-.2-.5-.5-.8-.7l-.8-.8c-1-1.1-1.9-2.3-2.7-3.7-.8-1.4-1.5-2.9-2-4.6-.1-.4-.2-.8-.3-1.3-.1-.4-.2-.8-.2-1.3-.1-.8-.2-1.7-.3-2.5-.2-1.7-.3-3.3-.3-4.9-.1-3.3-.1-6.5.4-9.6.2-.8.3-1.6.8-2.2l.2-.2c.1-.1.1-.1.2-.1.1-.1.3-.1.5-.2.2 0 5.7.6 6.5 1.9.7 1.5 3.5 8.3 3.8 9.1zM55.8 88c-.9-1.1-1.8-2.2-2.7-2.7-.5-.2-.8-.2-1.1.2-.3.4-.5 1-.6 1.6-.3 1.4-.5 2.9-.6 4.4s-.2 3.1-.2 4.7.1 3.2.3 4.9c.1.8.2 1.6.4 2.4l.3 1.2c.1.4.2.8.3 1.1.5 1.5 1.2 2.9 2 4.1s1.7 2.4 2.6 3.3c.9.9 1.9 1.8 2.8 2 .8.3 1.4-.9 1.9-2.1s.8-2.6 1.1-4 .6-2.9.6-4.4-.2-3.2-.5-4.8c-.3-1.6-.8-3.2-1.6-4.6-1.6-2.4-3.3-5-5-7.3z" fill="#e59e82" stroke-width="none" opacity="1" stroke="none"></path><path id="SvgjsPath21025" d="M53.7 91.4c1.6 1.3 3.1 3.5 3.8 6.1 0 .2-.1.2-.2.1 0 0 0-.1-.1-.1-.5-.5-1-1.1-1.5-1.1-.8.1-.7 1.6-.4 2.7.4 1.6 1.1 3 1.8 4.4.1.2 0 .3-.1.2-1-1.5-2.7-4.8-2.4-6.9.2-1.9 1.5-1 2.3-.1-.6-1.3-1.3-2.6-2.1-3.6-1.1-1.3-3.4-3.3-3.8-.7 0 .2-.2.1-.2-.1-.2-2.5 1.8-1.7 2.9-.9z" fill="#d58464" stroke-width="none" opacity="1" stroke="none"></path><path id="SvgjsPath21026" d="M57.8 106.7c1 2.6-.6 3.3-1.7 2.2-1.8-1.7-3.1-5.6-3.4-8.8 0-.2.2-.2.2 0 .3 1.8.7 3.5 1.4 5.1.4 1 .9 2 1.5 2.7.4.5.8.9 1.2 1 .9-.1 1.2-.8.8-2.2-.1 0 0-.1 0 0z" fill="#d58464" stroke-width="none" opacity="1" stroke="none"></path></g></g><g id="svga-group-ears-right-move" transform="matrix(1,0,0,1,0,0)"><g id="svga-group-ears-right"><path id="SvgjsPath21027" d="M139.2 95.5s3.2-5.5 5-8c1.8-2.4 4.1-5 4.9-.8s.9 12.5-.3 18.1-6.2 11.3-8.3 11.3c-2.2 0-3.6-8.4-3.6-11.4s1.1-7.1 2.3-9.2z" fill="#f4baa3" stroke-width="none" opacity="1" stroke="none"></path><path id="SvgjsPath21028" d="M141.3 85.8c.8-1.4 6.3-2 6.5-1.9.2 0 .3.1.5.2.1 0 .1.1.2.1l.2.2c.5.6.7 1.4.8 2.2.5 3.1.5 6.4.4 9.6-.1 1.6-.2 3.3-.3 4.9-.1.8-.2 1.7-.3 2.5-.1.4-.1.8-.2 1.3-.1.4-.2.8-.3 1.3-.5 1.7-1.2 3.2-2 4.6s-1.7 2.6-2.7 3.7c-.2.3-.5.5-.8.8-.3.2-.5.5-.8.7-.5.4-1.1.8-1.7.9-.2 0-.3.1-.5.1s-.3-.1-.5-.1c-.3-.2-.5-.4-.7-.7-.4-.5-.7-1.2-1-1.9-.5-1.4-.9-2.8-1.1-4.3-.3-1.5-.4-3.1-.4-4.8.1-1.7.4-3.4.9-5 .2-.8-.3-4.5 0-5.3.2-.9 3-7.7 3.8-9.1zm-2.1 9.7c-.7 1.4-1.2 3-1.6 4.6-.3 1.6-.5 3.3-.5 4.8.1 1.5.4 3 .6 4.4.3 1.4.6 2.8 1.1 4s1.1 2.3 1.9 2.1c.9-.2 1.9-1 2.8-2 .9-1 1.8-2.1 2.6-3.3.8-1.3 1.5-2.6 2-4.1.1-.4.2-.8.3-1.1l.3-1.2c.2-.8.3-1.6.4-2.4.2-1.6.3-3.3.3-4.9s0-3.2-.2-4.7c-.1-1.5-.3-3.1-.6-4.4-.2-.7-.4-1.3-.6-1.6-.3-.3-.7-.4-1.1-.2-.9.5-1.8 1.6-2.7 2.7-1.7 2.1-3.4 4.7-5 7.3z" fill="#e59e82" stroke-width="none" opacity="1" stroke="none"></path><path id="SvgjsPath21029" d="M146.3 91.4c-1.6 1.3-3.1 3.5-3.8 6.1 0 .2.1.2.2.1 0 0 0-.1.1-.1.5-.5 1-1.1 1.5-1.1.8.1.7 1.6.4 2.7-.4 1.6-1.1 3-1.8 4.4-.1.2 0 .3.1.2 1-1.5 2.7-4.8 2.4-6.9-.2-1.9-1.5-1-2.3-.1.6-1.3 1.3-2.6 2.1-3.6 1.1-1.3 3.4-3.3 3.8-.7 0 .2.2.1.2-.1.2-2.5-1.8-1.7-2.9-.9z" fill="#d58464" stroke-width="none" opacity="1" stroke="none"></path><path id="SvgjsPath21030" d="M142.2 106.7c-1 2.6.6 3.3 1.7 2.2 1.8-1.7 3.1-5.6 3.4-8.8 0-.2-.2-.2-.2 0-.3 1.8-.7 3.5-1.4 5.1-.4 1-.9 2-1.5 2.7-.4.5-.8.9-1.2 1-.9-.1-1.2-.8-.8-2.2.1 0 0-.1 0 0z" fill="#d58464" stroke-width="none" opacity="1" stroke="none"></path></g></g><g id="svga-group-faceshape-wrap"><g id="svga-group-faceshape-single"><path id="SvgjsPath21113" d="M143.2 82v-.3c-1.3-29.9-20.7-46.4-43.2-46.4S58.1 51.8 56.9 81.7v.3c.1 9.4-.6 25.5 2 31.6 1.3 3.1 13.8 23.8 23.4 34.2 5.5 6.1 8.4 6.5 17.7 6.5 9.3 0 12.2-.4 17.7-6.5 9.6-10.4 22.1-31.1 23.4-34.2 2.6-6.1 1.9-22.2 2.1-31.6z" fill="#f4baa3" stroke-width="none" opacity="1" stroke="none"></path><path id="SvgjsPath21114" d="M117.7 147.8c9.6-10.4 22.1-31.1 23.4-34.2 2.6-6.1 1.9-22.2 2.1-31.6v-.3c-1.3-29.9-20.7-46.4-43.2-46.4S58.1 51.8 56.9 81.7v.3c.1 9.4-.6 25.5 2 31.6 1.3 3.1 13.8 23.8 23.4 34.2 5.5 6.1 8.4 6.5 17.7 6.5s12.2-.4 17.7-6.5zm-30.3 1.4c-1.2-.9-2.3-2-3.4-3.2-2.3-2.4-4.4-6-6.5-8.6-4.2-5.3-8.1-10.8-11.9-16.3-.9-1.4-1.9-2.8-2.8-4.2-.5-.7-.9-1.4-1.3-2.1l-.6-1c-.2-.3-.4-.6-.5-1-.6-1.3-.9-2.9-1.2-4.5s-.5-3.3-.7-4.9c-.6-6.7-.7-13.5-.8-20.3 0-6.7 1.1-13.4 3.6-19.7.1-.4.3-.8.4-1.2l.6-1.1 1.1-2.2c.3-.8.8-1.4 1.3-2.2l1.3-2.1 1.5-2c.5-.6 1-1.3 1.6-1.9 1.2-1.2 2.2-2.4 3.5-3.4.6-.5 1.3-1.1 1.9-1.6l2-1.4 1-.7c.3-.2.7-.4 1.1-.6l2.1-1.2c.7-.4 1.5-.6 2.2-1 .8-.3 1.5-.7 2.3-.9 1.6-.5 3.1-1 4.7-1.3 6.3-1.4 12.9-1.5 19.2-.1l2.4.5 2.3.7c1.6.4 3 1.1 4.5 1.7.8.3 1.4.8 2.1 1.1.7.4 1.5.7 2.1 1.2 1.3.9 2.8 1.7 4 2.8 5.1 4.1 9.3 9.5 12 15.6 2.7 6.1 4.1 12.9 4.4 19.6-.1 3.4-.1 6.8-.2 10.2-.1 3.4-.2 6.8-.6 10.2-.3 3.3-.8 6.8-1.8 9.8l-.5 1.1c-.2.3-.4.7-.6 1-.4.7-.9 1.4-1.3 2.1-.9 1.4-1.9 2.8-2.9 4.2-2 2.8-4 5.5-6 8.2-1 1.3-2 2.7-3.1 4-1 1.3-2.1 2.7-3.1 4-2.1 2.6-4.2 6.2-6.5 8.6-2.2 2.5-4.4 4.7-6.9 5.5-2.5.9-5.8.9-9.2.9-3.3 0-6.8.1-9.4-.6-1.1-.2-2.2-.8-3.4-1.7z" fill="#c66c49" stroke-width="none" opacity="1" stroke="none"></path></g></g><g id="svga-group-mouth-single-move" transform="matrix(1,0,0,1,0,0)"><g id="svga-group-mouth-single"><path id="SvgjsPath21309" d="M84.13 121.38s.02 2.5 1.11 4.36c0 0 4.32 4.53 9.9 8.4.19.14 8.24 1.16 10.36.41 0 0 8.36-5.19 10.19-9.12 0 0 .66-1.94.41-3.27 0 0-6.34 1.76-9.33 2.2-2.99.45-10.62 0-14.41-.57-3.8-.57-7.27-1.92-8.23-2.41z" fill="#000000" stroke-width="none" opacity="1" transform="translate(0 2)"></path><path id="SvgjsPath21310" d="M106.75 124.35c-2.99.45-10.62 0-14.41-.57-3.79-.57-7.26-1.92-8.22-2.41 0 0 .02 2.5 1.11 4.36l.19.19c1.51 1.07 3.66 2.31 6.2 2.99 5.05 1.36 15.17 1.9 22.14-1.92.58-.32 1.09-.63 1.57-.95.14-.21.25-.43.34-.64 0 0 .66-1.94.41-3.27.01.02-6.34 1.79-9.33 2.22z" fill="#ffffff" stroke-width="none" opacity="1" transform="translate(0 2)"></path><path id="SvgjsPath21311" d="M116.59 121.88c.16-.2 0-.49-.28-.48-1.71.52-2.76.73-4.08 1.09-1.18.32-9.11 1.01-11.89.99-9.17-.2-13.39-1.67-16.1-2.4-.22-.06-.44.18-.34.34-.21 1.26 1.06 4.43 1.06 4.45 2.41 3.32 6.15 6.2 9.6 8.45 2.45 1.59 9.23 1.33 10.89.76 2.36-.89 4.78-3.17 6.36-4.68 1.46-1.4 3.54-4 4.23-5.1.29-.44.46-.97.57-1.48.13-.52.3-1.38-.02-1.94zm-5.54 8.28c-2.42 2.24-5.67 3.61-5.82 3.62-1.9.17-3.8.26-5.72.19-1.36-.05-4.19-.4-4.31-.48-1.83-.93-3.63-2.15-5.26-3.53-1.59-1.34-3.52-2.92-4.56-4.42-.65-1.11-1.02-2.25-.86-3.72 4.7 2.47 10.68 3.54 15.92 3.58 2.85.02 5.63-.36 8.4-.92 2.13-.43 5.04-.89 7-2.08-.03.32-.02.66-.07.97-.09.56.23 2.27-4.72 6.79z" fill="#e2929b" stroke-width="none" opacity="1" transform="translate(0 2)"></path></g></g><g id="svga-group-eyes-left-move" transform="matrix(1,0,0,1,0,0)"><g id="svga-group-eyes-left"><g id="svga-group-eyesback-left"><path id="SvgjsPath21069" d="M90.4 96.5S89 94 86.9 92.3c-2.1-1.7-5.6-2.5-8.1-2.3-2.5.2-7.1 1.8-9.6 5.5 0 0 2.3 1.2 5.6 1.8 3.3.6 8.9 1.1 12 .4 3-.6 3.6-1.2 3.6-1.2z" fill="#ffffff" stroke-width="none" opacity="1"></path></g><g id="svga-group-eyesiriswrapper-left" transform="matrix(1,0,0,1,0,0)"><g id="svga-group-eyesiriscontrol-left" transform="matrix(1,0,0,1,0,0)"><g id="svga-group-eyesiris-left"><path id="SvgjsPath21148" d="M80 88.1c3 0 5.5 2.4 5.5 5.4 0 3-2.4 5.5-5.4 5.5s-5.5-2.4-5.5-5.4c0-3 2.4-5.5 5.4-5.5z" fill="#8f9cca" stroke-width="none" opacity="1"></path><path id="SvgjsPath21149" d="M80.1 99.3c-3.2 0-5.8-2.5-5.8-5.7s2.5-5.8 5.7-5.8 5.8 2.5 5.8 5.7-2.5 5.7-5.7 5.8zm-.1-11c-2.9 0-5.2 2.4-5.1 5.2s2.4 5.2 5.2 5.1c2.9 0 5.2-2.4 5.1-5.2 0-2.8-2.3-5.1-5.2-5.1z" fill="#7282ba" stroke-width="none" opacity="1"></path><path id="SvgjsPath21150" d="M80 88.9c2.6 0 4.7 2.1 4.7 4.6 0 2.6-2.1 4.7-4.6 4.7s-4.7-2.1-4.7-4.6c0-2.6 2-4.7 4.6-4.7z" fill="#9faad1" stroke-width="none" opacity="1"></path><path id="SvgjsPath21151" d="M80 89.5c2.2 0 4 1.8 4.1 4 0 2.2-1.8 4-4 4.1s-4-1.8-4.1-4c0-2.3 1.8-4.1 4-4.1z" fill="#b0b9d9" stroke-width="none" opacity="1"></path><path id="SvgjsPath21152" d="M80 90.6c1.6 0 2.9 1.3 3 2.9 0 1.6-1.3 2.9-2.9 3s-2.9-1.3-3-2.9c0-1.7 1.3-3 2.9-3z" fill="#000000" stroke-width="none" opacity="1"></path><path id="SvgjsPath21153" d="M78.7 90.6c.6 0 1 .4 1 1s-.4 1-1 1-1-.4-1-1 .5-1 1-1zm3.4 4.6c.2 0 .4.2.4.4s-.1.4-.4.4-.4-.2-.4-.4.2-.4.4-.4z" fill="#ffffff" stroke-width="none" opacity="1"></path></g></g></g><g id="svga-group-eyesfront-left"><path id="SvgjsPath21077" d="M74.8 97.4c3.3.6 8.9 1.1 12 .4s3.6-1.3 3.6-1.3-1.4-2.5-3.5-4.2-5.6-2.5-8.1-2.3c-2.5.2-6.8 1.7-9.3 5.2v-.7c0-6.4 4.7-11.5 10.6-11.5s10.6 5.2 10.6 11.5S86 106 80.1 106c-5.5 0-10.1-4.6-10.6-10.5.6.5 2.6 1.4 5.3 1.9z" fill="#f4baa3" stroke-width="none" opacity="1" stroke="none"></path><path id="SvgjsPath21078" d="M90.9 98c-3.6 2.6-8.4 4.1-12.9 3.7-.2 0-.2-.2 0-.2 4.7-.5 8.5-1.4 12.7-3.7.3-.2.4.1.2.2z" fill="#e59e82" stroke-width="none" opacity="1" stroke="none"></path><path id="SvgjsPath21079" d="M69.2 95.7c5.5 4.1 15.4 3.7 21.5 1.5.3-.1.5-.5.3-.8-4.8-9.2-16.2-9.3-22-1-.1.1.1.3.2.3zm10.9 1.9c-3.7-.2-7-1.3-10.5-2.2 5.7-6.8 15.6-6.8 20.2.9-3.2 1.1-6.4 1.5-9.7 1.3z" fill="#5fa2a5" stroke-width="none" opacity="1" stroke="none"></path></g></g></g><g id="svga-group-eyes-right-move" transform="matrix(1,0,0,1,0,0)"><g id="svga-group-eyes-right"><g id="svga-group-eyesback-right"><path id="SvgjsPath21070" d="M109.6 96.5s1.4-2.5 3.5-4.2c2.1-1.7 5.6-2.5 8.1-2.3 2.5.2 7.1 1.8 9.6 5.5 0 0-2.3 1.2-5.6 1.8-3.3.6-8.9 1.1-12 .4-3-.6-3.6-1.2-3.6-1.2z" fill="#ffffff" stroke-width="none" opacity="1"></path></g><g id="svga-group-eyesiriswrapper-right" transform="matrix(1,0,0,1,0,0)"><g id="svga-group-eyesiriscontrol-right" transform="matrix(1,0,0,1,0,0)"><g id="svga-group-eyesiris-right"><path id="SvgjsPath21154" d="M119.9 88.1c3 0 5.5 2.4 5.5 5.4S123 99 120 99s-5.5-2.4-5.5-5.4 2.4-5.5 5.4-5.5z" fill="#8f9cca" stroke-width="none" opacity="1"></path><path id="SvgjsPath21155" d="M120 99.3c-3.2 0-5.8-2.5-5.8-5.7s2.5-5.8 5.7-5.8 5.8 2.5 5.8 5.7-2.5 5.7-5.7 5.8zm-.1-11c-2.9 0-5.2 2.4-5.1 5.2 0 2.9 2.4 5.2 5.2 5.1 2.9 0 5.2-2.4 5.1-5.2 0-2.8-2.3-5.1-5.2-5.1z" fill="#7282ba" stroke-width="none" opacity="1"></path><path id="SvgjsPath21156" d="M119.9 88.9c2.6 0 4.7 2.1 4.7 4.6s-2.1 4.7-4.6 4.7-4.7-2.1-4.7-4.6 2-4.7 4.6-4.7z" fill="#9faad1" stroke-width="none" opacity="1"></path><path id="SvgjsPath21157" d="M119.9 89.5c2.2 0 4 1.8 4.1 4 0 2.2-1.8 4-4 4.1-2.2 0-4-1.8-4.1-4 0-2.3 1.8-4.1 4-4.1z" fill="#b0b9d9" stroke-width="none" opacity="1"></path><path id="SvgjsPath21158" d="M119.9 90.6c1.6 0 2.9 1.3 3 2.9 0 1.6-1.3 2.9-2.9 3-1.6 0-2.9-1.3-3-2.9 0-1.7 1.3-3 2.9-3z" fill="#000000" stroke-width="none" opacity="1"></path><path id="SvgjsPath21159" d="M118.6 90.6c.6 0 1 .4 1 1s-.4 1-1 1-1-.4-1-1 .5-1 1-1zm3.4 4.6c.2 0 .4.2.4.4s-.1.4-.4.4-.4-.2-.4-.4.2-.4.4-.4z" fill="#ffffff" stroke-width="none" opacity="1"></path></g></g></g><g id="svga-group-eyesfront-right"><path id="SvgjsPath21080" d="M125.2 97.4c-3.3.6-8.9 1.1-12 .4s-3.6-1.3-3.6-1.3 1.4-2.5 3.5-4.2 5.6-2.5 8.1-2.3c2.5.2 6.8 1.7 9.3 5.2v-.7c0-6.4-4.7-11.5-10.6-11.5s-10.6 5.2-10.6 11.5S114 106 119.9 106c5.5 0 10.1-4.6 10.6-10.5-.6.5-2.6 1.4-5.3 1.9z" fill="#f4baa3" stroke-width="none" opacity="1" stroke="none"></path><path id="SvgjsPath21083" d="M109.1 98c3.6 2.6 8.4 4.1 12.9 3.7.2 0 .2-.2 0-.2-4.7-.5-8.5-1.4-12.7-3.7-.3-.2-.4.1-.2.2z" fill="#e59e82" stroke-width="none" opacity="1" stroke="none"></path><path id="SvgjsPath21084" d="M131 95.4c-5.8-8.3-17.3-8.2-22 1-.2.3 0 .7.3.8 6.1 2.2 16 2.6 21.5-1.5.1 0 .3-.2.2-.3zm-20.8.9c4.6-7.7 14.5-7.7 20.2-.9-3.5.9-6.8 2-10.5 2.2-3.3.2-6.5-.2-9.7-1.3z" fill="#5fa2a5" stroke-width="none" opacity="1" stroke="none"></path></g></g></g><g id="svga-group-facehighlight-single"></g><g id="svga-group-eyebrows-left-move" transform="matrix(1,0,0,1,0,0)"><g id="svga-group-eyebrows-left-rotate" transform="matrix(1,1.7453292519943295e-9,-1.7453292519943295e-9,1,1.4130762338027125e-7,-1.375987466190054e-7)"><g id="svga-group-eyebrows-left"><path id="SvgjsPath20989" d="M66.1 85c.5-1.2 1.7-2.2 2.6-3.1.8-.9 1.7-1.9 2.6-2.7.4-.9 1.2-1.5 1.9-2.2l.1-.1c.1-.2.2-.3.3-.5.3-.5.7-1 1.2-1.4h.2l.1-.1c.1 0 .1-.1.1-.1.1-.1.2-.2.3-.2.1-.1.2-.1.3 0h.1c.3 0 .4.2.5.4h.2c.5.2.9.3 1.4.4.3.1.4.3.4.5l1.5.6c.4.2.8.3 1.3.6.6.3 1.2.5 1.8.8.2.1.3.2.3.4.1 0 .1.1.2.1s.1.1.1.2c.1.1.2.1.4.2 1.3.4 2.5.9 3.7 1.6.2.1.2.2.3.3.1.1.2.1.3.2.3.1.5.2.8.3 1 .3 1.9.7 2.8 1.3.1.1.1.2.1.3.2.1.3.2.5.4.3.2.1.8-.3.7-.1 0-.2-.1-.3-.1-.2.6-.5 1.2-.9 1.7v.1c0 .2 0 .4-.1.6 0 .4-.4.8-.8.6l-3.6-2.4c-1.3-.8-2.6-1.6-3.8-2.6-1.4-.8-2.8-1.6-4.1-2.5-.8-.4-1.5-.9-2.2-1.4-.2.2-.5.3-.7.4-.6.5-1.1.9-1.7 1.4-.8.6-1.6 1.3-2.6 1.6-.3.4-.7.8-1.1 1.2-.5.5-1.1 1.1-1.8 1.5-.2.2-.4.3-.6.4-.5.5-.9.9-1.5 1.2-.2-.1-.5-.4-.3-.6z" fill="#a68469" stroke-width="none" opacity="1"></path><path id="SvgjsPath20990" d="M89.5 86.3c0-.1.1-.2.2-.3-.1-.1-.2-.2-.2-.3.2-.7.4-1.3.4-2 .1-.9-.2-1.6-.4-2.4-.1-.2.2-.4.4-.3 1.4.9.9 2.9.4 4.3.2-.2.3-.3.4-.5.4-.6.7-1.2 1-1.9.1-.3.6-.2.5.2-.1.7-.4 1.4-.8 2.1-.3.5-.9 1.4-1.5 1.6-.3 0-.5-.2-.4-.5zM76.2 74.7c2.3 1.6 4.2 3.9 6.3 5.7 1.1.9 2.3 1.8 3.5 2.6-.6-.9-1.2-1.7-1.9-2.4-1.2-1.3-2.6-2.3-3.8-3.5-.2-.2 0-.7.3-.5 3 1.4 5.1 4.4 6.6 7.3l1.2.9c-.3-.8-.7-1.7-1.1-2.5-.5-.9-1.2-1.7-1.7-2.6-.1-.2.1-.4.3-.3 1.9 1.1 3 3.8 3.2 6l.1.1c.1.1 0 .3-.1.3-.1.2-.3.2-.4 0 0-.1-.1-.2-.1-.2-2.4-1.2-4.6-2.9-6.7-4.5-2.1-1.7-4.8-3.6-6.2-5.9-.1-.4.2-.7.5-.5zm-4.1 3.2c.4-.5 1.2-.6 1.8-.6.7-.1 1.5-.1 2.1.2.2.1.2.4-.1.4-.7.1-1.3 0-2 0-.6.1-1.2.4-1.8.3 0 .1-.1-.1 0-.3zm-2.3 2.6c.7-.6 1.7-.9 2.5-1.2 1-.4 2.1-.8 3.2-1.2.2-.1.3.2.2.3-.9.5-1.9 1-2.9 1.4-.9.4-1.8.9-2.8 1.1-.3.1-.4-.3-.2-.4z" fill="#b59a85" stroke-width="none" opacity="1"></path><path id="SvgjsPath20991" d="M76 78.3c2.1 1.6 4.5 2.9 6.7 4.3 2.4 1.5 4.7 3 7.2 4.4v.1c-.1.2.2.4.4.3.1.1.2.1.3.1.8-.3 1.5-1.3 2-2 .6-.8 1.1-1.6 1.4-2.5.1-.3-.3-.4-.5-.2-.3.4-.6.8-.8 1.2.2-.8.4-1.6.3-2.3 0-.1-.1-.2-.2-.2-.1-.2-.3-.3-.4-.1-.2.2-.3.4-.5.6-5.1-2.9-10.7-5.2-16-7.8h-.4c-2.2 1.9-4.1 4-6 6.1-1.9 2.1-4 4.2-5.4 6.6v.1c-.1.1-.2.3-.4.4-.1.2 0 .4.2.3 2.2-1 4.1-2.8 6-4.3C72 81.6 74 80 76 78.3zm-.2-.4c-2.2 1.4-4.3 3.1-6.4 4.7-.7.6-1.6 1.1-2.3 1.7.9-1.1 1.8-2.3 2.8-3.4 1.9-2.1 3.8-4.1 5.6-6.2 5.3 2.5 10.5 5.4 15.9 7.6-.2.3-.5.5-.6.9-.1.2.1.3.3.3.3-.1.5-.2.7-.4-.2.5-.3.9-.5 1.3-.3.8-.8 1.4-1.3 2.1-2.3-1.6-4.6-3.1-7-4.6-2.2-1.4-4.4-3.1-6.8-4.3-.1-.1-.3 0-.4.3z" fill="#976f50" stroke-width="none" opacity="1"></path></g></g></g><g id="svga-group-eyebrows-right-move" transform="matrix(1,0,0,1,0,0)"><g id="svga-group-eyebrows-right-rotate" transform="matrix(1,1.7453292519943295e-9,-1.7453292519943295e-9,1,1.4088745103890687e-7,-2.115051813689206e-7)"><g id="svga-group-eyebrows-right"><path id="SvgjsPath20992" d="M134 85c-.5-1.2-1.7-2.1-2.6-3.1-.9-.9-1.7-1.9-2.6-2.7-.4-.8-1.2-1.5-1.9-2.2l-.1-.1c-.1-.2-.2-.3-.3-.5-.3-.5-.7-1-1.2-1.4-.1-.1-.1-.1-.2-.1l-.1-.1c-.1 0-.1-.1-.1-.1-.1-.1-.2-.2-.3-.2-.1-.1-.2-.1-.3 0h-.1c-.3 0-.4.2-.5.4h-.2c-.5.2-.9.3-1.4.4-.3.1-.4.3-.4.5l-1.5.6c-.4.2-.8.3-1.3.6-.6.3-1.2.5-1.8.8-.2.1-.3.2-.3.4-.1 0-.1.1-.2.1-.1.1-.1.1-.1.2-.1.1-.2.1-.4.2-1.3.4-2.5.9-3.7 1.6-.2.1-.2.2-.3.3-.1.1-.2.1-.3.2-.3.1-.5.2-.8.3-1 .3-1.9.7-2.8 1.3-.1.1-.1.2-.1.3-.2.1-.3.2-.5.4-.3.2-.1.8.3.7.1 0 .2-.1.3-.1.2.6.5 1.2.9 1.7v.1c0 .2 0 .4.1.6 0 .4.4.8.8.6l3.6-2.4c1.3-.8 2.6-1.6 3.7-2.6 1.4-.8 2.8-1.6 4.1-2.5.8-.4 1.5-.9 2.2-1.4.2.2.5.3.7.4.6.5 1.1.9 1.7 1.4.8.6 1.6 1.3 2.5 1.6.3.4.6.8 1.1 1.2.5.5 1.1 1.1 1.8 1.5.2.2.4.3.6.4.5.5.9.9 1.5 1.2.3 0 .6-.3.5-.5z" fill="#a68469" stroke-width="none" opacity="1"></path><path id="SvgjsPath20993" d="M110.5 86.3c0-.1-.1-.2-.2-.3.1-.1.2-.2.2-.3-.2-.7-.4-1.3-.4-2-.1-.9.2-1.6.4-2.4.1-.2-.2-.4-.4-.3-1.3.9-.9 2.9-.4 4.3-.2-.2-.3-.3-.4-.5-.4-.6-.7-1.2-1-1.9-.1-.3-.6-.1-.5.2.1.7.4 1.4.8 2.1.3.5.9 1.4 1.5 1.6.3 0 .5-.2.4-.5zm13.3-11.6c-2.3 1.6-4.2 3.9-6.3 5.7-1.1.9-2.3 1.8-3.5 2.7.6-.9 1.2-1.7 1.9-2.4 1.2-1.3 2.6-2.3 3.8-3.5.2-.2 0-.7-.3-.5-3 1.4-5.1 4.4-6.6 7.3l-1.2.9c.3-.8.6-1.7 1.1-2.5.5-.9 1.2-1.7 1.7-2.6.1-.2-.1-.4-.3-.3-1.9 1.1-3 3.8-3.2 6l-.1.1c-.1.1 0 .3.1.3.1.2.3.2.4 0 0-.1.1-.2.1-.2 2.4-1.2 4.6-2.9 6.7-4.6 2.1-1.7 4.8-3.6 6.2-5.9.1-.4-.2-.7-.5-.5zm4.1 3.2c-.4-.5-1.2-.6-1.8-.6-.7-.1-1.5-.1-2.1.2-.2.1-.2.4.1.4.7.1 1.3 0 2 0 .6.1 1.2.4 1.8.3 0 0 .1-.1 0-.3zm2.3 2.6c-.7-.6-1.7-.9-2.5-1.2-1-.4-2.1-.8-3.2-1.2-.2-.1-.3.2-.2.3.9.5 1.9 1 2.9 1.4.9.4 1.8.9 2.8 1.1.3.1.4-.3.2-.4z" fill="#b59a85" stroke-width="none" opacity="1"></path><path id="SvgjsPath20994" d="M130.1 83.2c1.9 1.5 3.8 3.3 6 4.3.2.1.4-.2.2-.3-.1-.1-.2-.3-.4-.4v-.1c-1.4-2.4-3.5-4.5-5.4-6.6-1.9-2.1-3.8-4.2-6-6.1-.1-.1-.2-.1-.2 0h-.2c-5.3 2.6-10.8 4.9-16 7.8-.1-.2-.3-.4-.5-.6-.2-.1-.3 0-.4.1-.1 0-.2.1-.2.2-.1.7.1 1.5.3 2.3-.3-.4-.6-.8-.8-1.2-.2-.2-.6-.1-.5.2.3.9.8 1.7 1.4 2.5.5.7 1.2 1.7 2 2 .1 0 .2 0 .3-.1.2.1.5-.1.4-.3v-.1c2.4-1.4 4.8-2.9 7.2-4.4 2.2-1.4 4.6-2.7 6.7-4.3 1.9 1.9 4 3.5 6.1 5.1zm-6.4-5.6c-2.4 1.2-4.6 2.8-6.8 4.3-2.3 1.5-4.7 3-7 4.6-.4-.7-.9-1.3-1.3-2.1-.2-.4-.4-.9-.5-1.3.2.2.4.4.7.4.2 0 .3-.1.3-.3-.1-.3-.4-.6-.6-.9 5.4-2.2 10.7-5.1 15.9-7.6 1.8 2.1 3.8 4.1 5.6 6.2 1 1.1 1.9 2.2 2.8 3.4-.8-.6-1.6-1.1-2.4-1.7-2.1-1.6-4.2-3.2-6.4-4.6.1-.4-.1-.6-.3-.4z" fill="#976f50" stroke-width="none" opacity="1"></path></g></g></g><g id="svga-group-beardwrap"><g id="svga-group-beard-single-move" transform="matrix(1,0,0,1,0,0)"><g id="svga-group-beard-single"></g></g></g><g id="svga-group-mustache-single-move" transform="matrix(1,0,0,1,0,0)"><g id="svga-group-mustache-single"></g></g><g id="svga-group-nose-single-move" transform="matrix(1,0,0,1,0,0)"><g id="svga-group-nose-single"><path id="SvgjsPath21209" d="M108.82 114.55c-.68.35-1.95-.3-2.8-.12-.85.18-3.92 2.8-4.86 3.1-.94.3-2.83-.49-4.22-1.49-1.4-1-3.04-1.73-3.98-1.61-.94.12-2.86.27-3.16-1.19-.3-1.46 1.03-3.77 1.73-4.68.7-.91 1.32-1.79 1.9-2.22.59-.42 5.18-1.67 8.7-.94 3.53.73 4.68 1.98 5.87 3.44 1.19 1.45 2.28 4.95.82 5.71z" fill="#f4baa3" stroke-width="none" opacity="1" transform="translate(0 1)" stroke="none"></path><path id="SvgjsPath21210" d="M93.36 106.28c-1.54 1.31-5.19 5.71-3.47 7.9.26.33.59.51.99.6 1.42.33 2.5-.24 3.96.48 1.73.86 3.1 2.49 5.1 2.76 1.63.23 2.75-.66 3.93-1.64.64-.53 1.36-1.25 2.21-1.42.64-.13 1.35.24 1.97.27.48.02.83.03 1.22-.28.9-.72.69-2.13.45-3.09-.47-1.93-1.5-3.67-3.03-4.92a.212.212 0 0 0-.3.3c1.04 1.29 1.99 2.66 2.47 4.27.36 1.23.81 2.6-1.15 2.71-.35.02-.81-.23-1.2-.22-.9.03-1.68.5-2.38 1.01-1.9 1.39-3.2 2.86-5.69 1.52-1.99-1.07-3.45-2.76-5.87-2.51-.4.07-.79.13-1.19.18-1.11-.53-1.49-1.27-1.14-2.24.17-.75.53-1.49.86-2.18.62-1.27 1.5-2.32 2.34-3.44.03-.04-.04-.09-.08-.06z" fill="#c66c49" stroke-width="none" opacity="1" transform="translate(0 1)" stroke="none"></path><path id="SvgjsPath21211" d="M93.93 108.29c-.24 3.02 2.33 5.74 5.42 5.4a.15.15 0 0 0 0-.3c-2.87-.33-4.95-2.2-5.31-5.1-.01-.07-.1-.08-.11 0z" fill="#c66c49" stroke-width="none" opacity="1" transform="translate(0 1)" stroke="none"></path><path id="SvgjsPath21212" d="M102.14 105.4c-1.12-.46-2.36-.67-3.57-.54-.92.1-2.35.65-2.03 1.85.4 1.55 2.5 1.37 3.72 1.73 1.33.39 1.81 1.66 2.97 2.26.42.22.96.19 1.3-.17 1.84-1.91-.61-4.39-2.39-5.13z" fill="#fcc9b5" stroke-width="none" opacity="1" transform="translate(0 1)" stroke="none"></path></g></g><g id="svga-group-hair-front"><path id="SvgjsPath21282" d="M170.6 74c0-1.3-.6-2.6-1.4-3.5-.1-.1-.2-.2-.3-.2.1-.4.1-.8.1-1.1-.1-2-.8-4.1-2.2-5.5-.5-.6-1.2-1-2-1.3 0-.5-.1-1-.1-1.5 0-1-.2-2-.7-2.8.1-.2.3-.4.4-.6l1.1-1.5c.4-.7.7-1.5.7-2.3.2-.8.1-1.6-.1-2.5l-.6-1.5c-.4-.7-.9-1.3-1.6-1.7-.6-.5-1.4-.9-2.2-1.1 0-.1-.1-.2-.1-.2-.3-.5-.6-.9-.9-1.2.1-.2.1-.3.1-.5.2-.2.4-.3.6-.6 1-1 1.6-2.2 2.1-3.5.1-.5.1-1 .2-1.5 0-.8-.1-1.5-.5-2.2-.5-1.1-1.3-2.2-2.3-2.7-.6-.3-1.2-.5-1.8-.7-.1-.4-.3-.9-.5-1.2-.7-1.1-1.7-2-3-2.3-.4-.1-.8-.1-1.1-.1.1-.6.1-1.2.2-1.8.2-1.9-1.2-3.9-2.7-4.8-.9-.5-1.8-.8-2.8-.8-.5 0-.9.1-1.4.2-.1-.2-.2-.5-.3-.7-.4-.7-.9-1.3-1.6-1.7-1-.8-2.4-1.4-3.7-1.3-.2 0-.4 0-.7.1.2-.9.2-1.8-.1-2.7-.4-1.2-1-2.2-2-2.9-1-.7-2.2-1.3-3.4-1.2-.5.1-1 .1-1.5.2-1 .3-1.8.8-2.5 1.5-.1.1-.2.2-.4.3-.1 0-.2-.1-.3-.1-.6-1-1.5-1.8-2.5-2.2-1.3-.6-2.6-.6-3.9 0-.2.1-.3.2-.5.3h-.9v-.1c-.1-.4-.2-.8-.3-1.1-.4-1.6-1.6-2.9-3.2-3.6-.7-1.1-1.6-2-2.7-2.7-1.2-.7-2.5-1-3.8-1-.4 0-.8 0-1.1.1-1 .1-2 .4-2.9.9 0 0-.1 0-.1.1-.4-.3-.9-.5-1.4-.6-.9-.3-1.8-.4-2.8-.3-.8 0-1.5.3-2.2.7-.2.1-.3.2-.4.3-.1 0-.1.1-.2.1h-.1c-.3.2-.7.5-1 .8-.8.7-1.6 1.5-2.1 2.4-.2.3-.3.6-.5 1-.6-.1-1.2 0-1.8.1-.2-.4-.4-.7-.7-1-.2-.3-.4-.6-.7-.9-.3-.5-.6-.9-.9-1.3-1-1-2.4-1.6-3.8-1.8-.6-.2-1.2-.2-1.8 0-.6 0-1.2.2-1.7.4-.6.3-1.2.6-1.7 1-.4-.1-.8 0-1.2.1-.6 0-1.2.2-1.7.5-.6.2-1.1.4-1.5.9-.7.5-1.3 1.1-1.7 1.9-.3.6-.5 1.1-.8 1.7-2.6-.2-5.2 1-6.8 3.2-.2.1-.5.2-.7.3-.7-.4-1.4-.6-2.1-.7-2.6-1.4-6.1-.9-8.2 1.1-.6-.2-1.2-.3-1.9-.3-1.3 0-2.5.3-3.6 1-2.1 1.3-3.5 3.6-3.5 6.1v.5c-1-.2-2.1-.2-3.1.1-3.8 1-5.9 4.5-5.8 8.2-1.8.7-3.1 2.1-3.6 4-.3 1-.4 2.1-.5 3.1 0 .4.1.8.1 1.2.1 1 .4 2 .9 3l.3.4c-.7-.1-1.5 0-2.2.2-.7.2-1.3.5-1.9 1-.3.2-.5.4-.8.6-.8.5-1.4 1.2-1.9 2-.8 1.8-1.1 2.5-1.2 4.5-.1 1.2.4 2.9 1 4 .2.4.5.7.7 1-.3.2-.5.3-.8.5.1-.1.2-.2.3-.2-.1.1-.2.1-.2.2-.3.2-.5.4-.7.6-.1.1-.2.1-.2.2.1 0 .1-.1.2-.2-1.1 1-1.8 2.1-2 3.6-.2.8-.1 1.5.1 2.3.3 1 .8 1.8 1.5 2.5-.2.1-.4.2-.6.2-.5.2-1 .4-1.5.8-.8.6-1.5 1.5-1.7 2.5-.2 1.1-.3 1.9 0 3.1.5 1.8 1.8 3.1 3.4 3.8.3.1.5.2.8.3 0 .1 0 .2.1.2.4 1.1.8 2 1.5 2.8-.3.4-.5.8-.7 1.2-.6.4-1.3 1.1-1.6 1.8-.7 1.5-.9 2.9-.3 4.5.6 1.4 1.8 2.6 3.3 2.9.9.2 1.8.3 2.7.1.1.5.3 1 .6 1.5.5.9 1.3 1.6 2.2 2.1.1.5.3 1.1.6 1.5.7 1.1 2 2.2 3.3 2.5 1.4.3 3 .2 4.2-.6 1.2-.8 2.2-1.9 2.5-3.3.2-.7.2-1.3.2-1.9.2 0 .5-.1.7-.1 1-.3 1.8-.7 2.5-1.4.1 2.6 2.1 4.8 4.8 4.8 1.2 0 2.5-.5 3.4-1.4.8-.8 1.5-2.2 1.4-3.4-.1-1.6-.9-3.1-2.1-4v-.2c0-.1.1-.2.1-.2.6-.5 1.2-1.1 1.5-1.8.8-1.4 1.1-3.2.6-4.8l-.6-1.5c-.3-.6-.8-1.1-1.3-1.5 1.3-.8 2.2-1.9 2.8-3.3.6-1.4.7-2.8.5-4.2-.2-1.5-.8-2.8-1.7-4-.1-.2-.2-.3-.3-.4.7.4 1.4.6 2.3.6 1.3 0 2.6-.5 3.5-1.5l.2-.2c.6.6 1.4 1 2.5 1 2.6 0 3.8-2.1 3.6-4.1 0 0 0-.1.1-.1 1.3.1 2.5-.3 3.4-1.2 1.1-1.1 1.5-2.7 1.1-4.2-.2-.6-.4-1-.7-1.4.2-.6.4-1.2.5-1.8.1-.5.1-.9.1-1.4.2 0 .3-.1.5-.1.4 1.7 1.5 3.1 2.9 4 1.3.8 2.9.9 4.3.4.5 1.6 1.9 2.9 4.1 2.6 3.1-.3 5.1-2.1 5.7-4.3.4-.7.7-1.4.6-2.3v-.1c1.5 1.1 3.5 1.6 5.6 1.3.2.3.5.6.8.8 1.1.8 2.7 1 3.9.5 0 1.9.9 3.6 2.6 4.7.4.3.9.5 1.4.7.4.1.8.2 1.2.2.4 0 .8 0 1.2-.2.6-.1 1.2-.3 1.7-.6.6.8 1.5 1.2 2.5 1.3.3.2.6.3.9.4.7.2 1.5.2 2.2 0 .8-.2 1.4-.7 2-1.2.4.1.9.1 1.3 0-.2.9-.1 1.8.4 2.7.9 1.5 2.7 2.1 4.2 1.7.3.4.7.8 1.1 1 .8.5 1.9.7 2.8.6.1.5.3 1.1.6 1.6.5.9 1.1 1.7 1.9 2.3-.5.4-1 .8-1.3 1.4v.1c-.2.4-.3.8-.5 1.2-.2.7-.2 1.3-.1 1.9-.2.5-.2 1.1-.3 1.6 0 1.7.9 3.1 2.3 4 .4.3.8.4 1.2.6v.2c0 .4.1.8.1 1.1-.3 1.2-.1 2.4.5 3.5-.5.4-.8.9-1.1 1.4-.8 1-1.1 2.4-.9 3.7.2 1.4 1 3 2.4 3.6 1.1.5 1.8.8 3 .8.8 0 1.6-.2 2.4-.6.3.6.8 1.2 1.4 1.6.4.3.8.5 1.2.7.1.5.2 1.1.5 1.5.2.7.6 1.3 1.2 1.8 1 1 2.6 1.7 4 1.7 1.1-.1 2.3-.3 3.2-1 1 .2 2 .3 2.9 0 1-.3 1.9-.8 2.7-1.6.9-.8 1.3-1.8 1.6-3v.2c0-.1.1-.2.1-.4.3-.8.4-1.7.4-2.6.5-.1 1-.3 1.5-.6.9-.5 1.4-1 1.9-1.7s1-1.4 1.2-2.3c.3-1.1.3-2.3 0-3.4-.2-.8-.6-1.6-1.1-2.2-.4-.6-.9-1.1-1.5-1.5 2.8-.2 5.3-2.3 5.3-5.2z" fill="#a68469" stroke-width="none" opacity="1" stroke="none"></path><path id="SvgjsPath21283" d="M51.1 41.9c-2.1-.5-3.1-1.8-3.5-3.9-.3-1.8-.2-5.5 2.5-5.3.5 0 .5-.7 0-.7-5.4-.6-4.7 11.2.8 10.7.5-.1.7-.7.2-.8zm5.8 7.7c-1.8 1.5-4.5 1.3-5.7-.9-1.2-2.1-.1-4.6 1.8-5.9.3-.2 0-.6-.3-.4-2.8 1.4-4.1 4.7-2.1 7.4 1.6 2.2 5 2.4 6.6.1.3-.3-.1-.5-.3-.3zM73.7 35c-.1-.2-.4-.2-.4 0 .3 3-.9 6.2-4 7.1-3.7 1-7.1-1.9-6.5-5.7.1-.5-.7-.7-.8-.2-.7 3.9 2.4 7.5 6.5 7 4-.5 6.4-4.5 5.2-8.2zm-3.1 16c-.1-.3-.5-.3-.6 0-.2.9-.3 1.9-1.2 2.4-.9.5-2 .3-2.5-.6-.2-.4-.9 0-.7.4 1.5 2.7 5.9.7 5-2.2zM42.5 61.4c-3.7-2.8-4.1-7.2-1.1-10.6.4-.5-.2-1.2-.7-.7-3.6 3.5-3.5 8.4-.2 11.6-2.3.9-3.8 3.7-4.2 6.1-.5 3.7 1.4 6.6 4.6 8.1.3.2.6-.3.3-.5-2.6-2-3.7-4.1-3.3-7.4.3-2 1.4-5.4 4.2-5.2.8 0 .9-1 .4-1.4zm8.7 25.1c-1.8 1.1-3.9 2-6.1 1.4-2.3-.6-3.8-2.7-3.5-5 0-.5-.8-.6-.8-.1-1.1 6.3 7.1 8.2 10.8 4.2.2-.3-.1-.7-.4-.5zm8.7-24c-.4 0-.4.5-.1.6 2.6 1 4.4 2.9 4.5 5.8.1 2.7-1.1 5.5-3.9 6.2-.4.1-.3.8.1.8 7-.2 6.3-13.1-.6-13.4zM35 87.9c-1.9-.4-3.6-1.7-3.5-3.9.1-1.9 1.6-3 2.9-4.1.3-.2 0-.6-.3-.6-2.4.4-4.1 3.3-3.8 5.6.3 2.2 2.4 4.3 4.7 3.8.4 0 .4-.7 0-.8zm.7-31.8c-2.5.1-4.1.4-5 3.1-.7 2.1-.3 4.2.9 6-4.4 1.1-3.5 7.6.8 9 .4.1.7-.5.3-.7-.8-.3-1.4-.8-1.8-1.5-1.6-1.6-1-3.5 1.9-5.7.6 0 .8-.7.5-1.1-.9-1-1.4-2.2-1.5-3.6-.2-1.4.3-2.3 1.7-2.9 1.5-1.3 1.2-1.1 2.5-1.7.3-.2.1-.9-.3-.9zm9.7-24.8c-2.6-1.2-5.3.6-6.2 3.1-1.2 3.3.3 7.1 2.6 9.6.4.4.9-.1.7-.6-1-2.2-2.5-4.2-2.4-6.7.1-3 2.2-4.9 5.1-4.5.4-.1.6-.7.2-.9zm52.4 17.8c-.3-1.7-1.6-3-3.4-2.7-.3 0-.3.5 0 .6 3.2.7 2.2 4.4.9 6.4-.9 1.3-2 1.8-3.6 1.4-1.4-.4-3.5-1.6-3.1-3.4.1-.2-.2-.4-.4-.4.1-.3-.3-.6-.6-.4-.7.5-1.1 1.2-1.8 1.7-1.1.7-2.2.2-3-.5-1.6-1.2-2.7-3.3-2.1-5.3.2-.5-.6-.7-.8-.2-1 2.6.4 5.3 2.6 6.8 1.9 1.3 4.2.9 5.3-1-.3 1.5.9 2.7 2.3 3.5 1.8 1 3.6 1.3 5.3-.2 1.5-1.6 2.8-4.2 2.4-6.3zm19.3 5.1c-.8 1.7-2.4 2.9-4.4 2.3-1.9-.6-3.7-3-3.5-5 .1-.4-.6-.5-.8-.2-1.3 2.4 1.7 5.7 3.9 6.5 2.2.7 5.7-.5 5.6-3.3.1-.5-.6-.7-.8-.3zm-20.3-20c-.1-.5-.6-.6-.9-.2-.5.8-.9 1.6-2 1.8-.8.2-3-.7-2.5-1.8.2-.3-.3-.8-.6-.5-.3.4-.4.8-.4 1.2-.2-.1-.3-.1-.6 0-2.3 1-5.1 1-6.5-1.5-1.6-2.9-.2-6.6 2.8-7.8.6-.3.4-1.3-.3-1.1-3.7 1.3-5.8 5.8-3.9 9.4 1.5 2.9 6.2 4.6 8.6 1.9l.1-.1c.4.8 1.5 1.5 2.4 1.7 1.7.2 4-1.1 3.8-3zM83.3 7.1c.2-.1.2-.6-.1-.5-2.3.2-3.9 2.6-3.8 4.8-1.1-.5-2.3-.6-3.4-.5-2.5.3-4.2 2.2-5 4.5-1.6-1.6-4.1-2.5-6.2-2.3-1.6.1-3.4.7-4.2 2.1-.5.9-.7 2.1.2 2.7.2.1.5.1.6-.1l.1-.1c.3-.3 0-.8-.3-.8.2-1.1.9-1.9 2.1-2.2.6-.2 1.2-.3 1.8-.3 1 0 2.1.2 3 .7 1.9 1 2.6 2.6 3.8 4.3.3.4 1 .3 1-.3-.1-1.2-.6-2.2-1.4-3.1l.1-.1c1.1-1.8 2.3-3.5 4.6-3.8 2.1-.2 3.5.8 4.9 2.2.4.5 1.1-.1.8-.6-.4-.8-1-1.4-1.8-1.9.3-2.2 1.4-3.5 3.2-4.7zm30.4 9.7c-1.6-2.1-4-3.7-6.8-2.8-2.8.9-3.7 3.9-2 6.2.3.5 1.1 0 .8-.5-.2-4.4 1.5-5.8 5-4.1 1 .7 1.9 1.5 2.4 2.6.3.5.9.4 1.2 0 2-2.9 6.8-2.9 9-.5 1.7 1.8 1.8 3.7 1.1 5.9-.2.7.9 1.2 1.2.5 3.8-7.3-7.2-12.8-11.9-7.3zm16.9 27c-2 2.6-2.4 1.3-5.3.1-.2-.1-.3-.5-.6-.4-.5.1-.5.1-1 .3-.4.3-.9.6-1.3.9-2.1 1.2-3.5.4-4.3-2.4.2-.5-.6-.8-.8-.2-.1.2-.2.5-.2.7h-.1c-1.7.3-3.3.3-4.4-1.3-.8-1.1-1-2.7-.7-3.9.7-2.6 3.1-4.4 5.8-4.5.6 0 .6-.9 0-1-3.8-.1-7.2 2.8-7.3 6.7 0 3.1 3.4 7.1 6.6 5.1.2.9.7 1.7 1.6 2.1 2.1 1.2 3.4-.3 5.3-.9.1 0 .2-.1.2-.1l.4.4c.3.2.5.5.8.7.7.6 1.7.9 2.6.9 1.7-.1 3.1-1.2 3.5-2.8.3-.6-.4-.8-.8-.4zM142.8 62c-1.9 0-3.9-.2-4.7-2.3-.7-2 .5-5.2 3.1-4.5.4.1.7-.5.3-.7-2.9-1.3-5.2 1.9-4.9 4.6.3 2.8 3.7 5.5 6.4 3.8.5-.2.3-.8-.2-.9zm-2.6 12.9c-1.6-.3-3.2-.4-4.2-2.1-1.5-2.5.5-4.9 2.9-5.5.7-.2.6-1.4-.2-1.3-3.1.3-4.2-2.6-3.4-5.2.2-.6-.7-.8-.9-.2-1 2.5-.2 5.3 1.9 6.3-4.2 2.9-1.4 11.1 4 8.8.4-.1.3-.7-.1-.8zm.7 8c-.9-.5-1.8-.7-2.4-1.7-.7-1.1-.5-2.4.2-3.5.2-.4-.3-.8-.6-.5-.9 1.2-1.3 2.7-.8 4.2.5 1.2 1.9 2.6 3.3 2.4.5-.1.8-.6.3-.9zm23.7-4.5c-1.7 1.3-4.1 4-6.4 2.2-.5-.4-1.4-.2-1.4.6-.1 1.9-1.8 2.7-3.5 2.5-1.9-.2-3-1.5-3-3.6 0-.5-.8-.5-.8 0-.2 2.4 1.1 4.7 3.6 5.1 2.4.4 3.9-1.1 4.9-2.9 2.8 1.4 5.8-.7 7.2-3.4.2-.2-.2-.7-.6-.5zm-.7-20.3c-.8-2.2-3.4-2.9-5.4-2.4-.4.1-.4.7 0 .8 1.6.4 3.4 0 4.3 1.7.7 1.4.8 4.4-.6 5.3-.4.3 0 1 .4.7 1.9-1.1 2-4.2 1.3-6.1zm-12.4-21.3c.8-1.8.4-3.9-1.3-5.2-2.3-1.8-5.8-1.5-8.1.1-.5.4-.2 1.3.5 1.1 1.2-.3 2.2-.8 3.5-.9 2.1-.1 6.6 1.5 3.9 5-.4.6 0 1.3.7 1.2 4.9-.7 4 6.9 0 7.8-.4.1-.3.8.1.8 5.2-.7 5.8-9 .7-9.9zm-10.4-20.2c-.5-1.6-1.7-3-3.2-3.7-2.9-1.4-6.5.6-6.2 4 .1.5.8.5.8 0 .1-3.2 3.9-3.8 5.9-1.9.9.9 1.4 2.1 1.5 3.4.1 1-.2 1.9.1 2.9.1.3.6.5.8.2 1.1-1.2.8-3.4.3-4.9zm-47.9-6.4c-3.1 0-5.6 3.1-6.1 6-.1.6.6.9 1 .4 1-1.4 1.5-3.2 3-4.2 1.8-1.2 5.3-.6 4.4 2.2-.2.5.7.9.9.4 1.1-2.4-.7-4.8-3.2-4.8z" fill="#875d3b" stroke-width="none" opacity="1" stroke="none"></path><path id="SvgjsPath21284" d="M72.1 34.7c0-.4-.6-.7-.8-.2-.7 1.5-2 3.2-3.9 2.8-1.9-.4-2.9-2.8-2.1-4.5.2-.5-.5-1-.8-.5-1.3 2.2-.2 5.4 2.3 6.2 2.2.6 5.5-1.2 5.3-3.8zm-7.2-4.3c-.8.5-1.8-.2-2-1-.2-1 .2-1.9.3-2.8 0-.2-.4-.4-.5-.2-.9 1.1-1.3 3-.3 4.3.7 1 2.1 1.3 3.1.4.2-.4-.2-1-.6-.7zm82.2-3.9c0-1.3-.2-2.5-1.6-3.1-1.6-.7-3.1.5-4.3 1.5-.3.2.1.8.4.5.5-.4 1.4-1.2 2-1.2.8.3 1.5.6 2.3 1 .1.7.1 1.4-.1 2.1-.1.6.4 1 .9.7 2.6-1.3 5.2.5 5.1 3.4-.1.9 1.3.9 1.3 0 .3-3.6-2.8-5.9-6-4.9zm-1.3 7.5c-1.8-1.2-4-.5-5.2 1.2-.2.3.3.7.5.4 1-1.2 2.8-1.7 4.1-.7 1.7 1.2 1.2 3.1.8 4.8-.1.4.4.5.6.2 1.4-1.9 1.3-4.6-.8-5.9zm.5 9.9c-.4 0-.5.7-.1.7 2.3.3 3.8 2.9 3.1 5.1-.8 2.2-2.9 2.8-4.9 3.3-.4.1-.4.8 0 .9 2.8.5 5.9-1.8 6.2-4.7.3-2.7-1.6-5.1-4.3-5.3zm8.9 5.5c-.5-.2-1 .4-.6.8 2.6 2.7-.2 5.5-2.7 6.8-.6.3-.5 1.4.2 1.6 3.2.7-.2 10.9-4.8 6.2-.4-.4-.9.2-.6.6 4 4.9 10.7-3.2 7-7.5 2.9-2 5.9-6.4 1.5-8.5zM132 38.2c-1.5 2.2-5.5 5.2-6.4.7-.1-.5-.7-.7-1.1-.4-2.5 1.7-6.6-2.7-3.4-4.5.3-.2.1-.8-.3-.6-4.5 1.6-.6 7.3 3.3 6.7.3 1.7 1.8 2.9 3.6 3 2.6.2 4.6-2.1 5.1-4.5.2-.5-.5-.8-.8-.4zm-20.2-17c-2.7-3.2-8.7-2.6-8.3 2.5.1.6.8.7 1 .1.7-3 2.9-3.4 6.8-.9.2.5 1.2.7 1.3 0 .8-5.1 8-2.5 8.7 1.1.1.7 1.1.4 1-.3-.7-4.6-8.4-6.8-10.5-2.5zm7.4-9.5c-1.8-2.8-5-5.6-8.1-3.5-1.8-2.7-6.6-.3-7.8 2-.2.4.3.9.7.5.8-.9 5.2-4.4 6.3-1.4.2.5.7.6 1.1.3l3.1-.9c.8.2 1.4.6 1.9 1.1.8.7 1.4 1.4 2.1 2.3.3.5 1 .1.7-.4zM101 30.3c-.7.4-1.4.7-2.1 1-.2.1-5.5 1.3-3.7-1.3.3-.5-.3-.9-.7-.7l-.1.1h-.1c-3.2 2.5-7-.8-5.8-4.4.2-.5-.5-.6-.7-.2-1.7 4.2 2.2 7.5 5.8 6.1 0 .7.4 1.4 1.2 1.8 2.2 1.2 5.1-.2 6.5-1.9.4-.2 0-.7-.3-.5zm3.8 15.8c-.9.2-1.6.5-2.5.1-.9-.4-1.5-1.3-1.6-2.3 0-.5-.8-.5-.8 0 0 1.3.6 2.6 1.8 3.2 1 .5 2.7.7 3.6-.3.3-.3 0-.8-.5-.7zm51.7 46.3c0-1.2-1.8-.6-1.2.3.5.8-.2 2-.9 2.4-.7.5-1.7.5-2.5.3-1.7-.5-2.6-2.1-3.1-3.7-.1-.4-.9-.4-.8.1.3 2.5 2 4.9 4.8 4.9 1.1 0 2.2-.4 2.9-1.2.8-.9.8-1.9.8-3.1zm4.6-21.5c-1.1-1.3-3-1.3-4 .1-.2.3.3.8.6.4 1-1.3 2.7-.5 3.1.9.4 1.4-.4 2.4-.9 3.6-.2.4.5.8.8.4 1.3-1.3 1.6-3.9.4-5.4zM44 70.9c-1.4-.3-2.8-.7-3.3-2.2-.5-1.6.4-3.2 1.8-3.9.4-.2.1-1-.3-.8-1.9.7-3.2 2.7-2.7 4.8.4 1.9 2.5 3.6 4.5 3 .4-.1.5-.8 0-.9zm12-8.3c-.8-.8-1.8.7-.9 1.1C58 65 60.9 70.4 58 73c-.4.4.2 1 .6.6 3.9-3.3-.1-8.4-2.6-11zm18-7.9c-.5-.5-1.4.2-1 .8 1.7 2.6-1.6 4.2-3.6 2.6-.4-.3-1.2-.2-1.1.5.3 3.7-3.8 3.7-6 2.3-.4-.2-.9.3-.5.7 2.7 2.3 7.1 1.7 7.7-1.8 3.2 1.5 7.4-1.9 4.5-5.1zm3.8-10.1c-.6-2-2.7-1.7-4.1-1-.3.2-.1.7.2.6.6-.2 1.3-.6 2-.3.7.2 1 1 .8 1.7-.2 1.2-1.4 1.6-1.9 2.6-.2.3.1.8.5.7 1.6-.5 2.9-2.7 2.5-4.3zm50.7 6.6c-.8.3-1.6.8-2.5 1-.9.2-3.3.5-3-1.2.1-.6-.8-.9-1-.3-.4 1.5.7 2.7 2.2 3 1.7.3 3.7-.4 4.7-1.8.3-.4 0-.8-.4-.7zm7.3-27.7c-1.5-.7-3.3.1-3.5 1.8-.1.5.7.6.8.1.3-1.6 2.1-1.3 2.8-.2.7 1.1.3 2.2.5 3.4.1.5.8.5 1 .1.9-1.7.1-4.3-1.6-5.2zm4.5 22.5c-.6.6-.9 1.4-1.6 1.9-.8.5-2.4.1-2.1-1.1.2-.6-.8-.9-1-.3-.5 1.5.9 2.9 2.3 2.9 1.5 0 3.2-1.5 3.2-3.1.1-.4-.5-.6-.8-.3zm7.5 39.3c-1 .1-1.9.4-2.8-.2-.9-.6-1.2-1.7-1-2.7.1-.6-.8-.9-1-.3-.4 1.4 0 2.9 1.1 3.8 1 .9 3 1.2 4.1.2.2-.2.1-.9-.4-.8zM82 16.6c-.6-2-3.2-2.8-5.1-2.1-2 .8-2.9 3-2.3 5 .2.6 1.1.4.9-.3-.3-1.5.5-3.3 2.1-3.7 1.5-.4 2.7.5 3.7 1.5.3.3.8 0 .7-.4z" fill="#c5b2a4" stroke-width="none" opacity="1" stroke="none"></path></g><g id="svga-group-glasses-single-move" transform="matrix(1,0,0,1,0,0)"><g id="svga-group-glasses-single"><path id="SvgjsPath21235" d="m77.6 101.2-.1-.2 12.6-11 .1.2-12.6 11zm3.9 4.6-.2-.2 9.8-8.5.2.2-9.8 8.5zM75 97.4l-.1-.2 9.8-8.5.1.2-9.8 8.5zm3.4-.5-.2-.2 9.9-8.5.1.2-9.8 8.5z" fill="#ffffff" stroke-width="none" opacity="0.67"></path><path id="SvgjsPath21236" d="m122.4 101.2.1-.2-12.6-11-.1.2 12.6 11zm-3.9 4.6.2-.2-9.8-8.5-.2.2 9.8 8.5zm6.5-8.4.1-.2-9.8-8.5-.1.2 9.8 8.5zm-3.4-.5.2-.2-9.9-8.5-.1.2 9.8 8.5z" fill="#ffffff" stroke-width="none" opacity="0.67"></path><path id="SvgjsPath21237" d="M83.9 85.9c5.9 0 10.7 4.8 10.7 10.7s-4.8 10.7-10.7 10.7-10.7-4.8-10.7-10.7S78 85.9 83.9 85.9z" fill="#ffffff" stroke-width="none" opacity="0.28"></path><path id="SvgjsPath21238" d="M116.1 85.9c5.9 0 10.7 4.8 10.7 10.7s-4.8 10.7-10.7 10.7-10.7-4.8-10.7-10.7 4.8-10.7 10.7-10.7z" fill="#ffffff" stroke-width="none" opacity="0.28"></path><path id="SvgjsPath21239" d="M83.9 85.4c-4.7 0-8.7 2.9-10.4 7-.6 0-1.9-.1-2.8.1l.1 2.8 2.1-.1c-.1.5-.1.9-.1 1.4 0 6.2 5 11.2 11.2 11.2s11.2-5 11.2-11.2-5.1-11.2-11.3-11.2zm0 21.4c-5.6 0-10.2-4.6-10.2-10.2s4.6-10.2 10.2-10.2S94.1 91 94.1 96.6s-4.6 10.2-10.2 10.2z" fill="#2e0914" stroke-width="none" opacity="1"></path><path id="SvgjsPath21240" d="M83.9 85.4c-2.2 0-4.4.7-6.2 2-1.8 1.3-3.2 3.1-4 5.1l-.1.1h-.2c-.9 0-1.9 0-2.8.1l.2-.2.1 2.8-.2-.2H73v.2c-.3 2.2.1 4.5 1.1 6.5.5 1 1.2 1.9 2 2.7.8.8 1.7 1.4 2.7 2 2 1 4.3 1.4 6.5 1.1s4.3-1.2 5.9-2.7c.8-.7 1.5-1.6 2.1-2.5s1-2 1.3-3c.6-2.1.4-4.4-.3-6.5-.7-2.1-2.2-3.9-4-5.2-.9-.6-1.9-1.2-3-1.5-1.2-.6-2.3-.7-3.4-.8zm0 0c1.1 0 2.3.2 3.3.5 1.1.3 2.1.8 3.1 1.4 1.9 1.3 3.4 3.1 4.3 5.3.4 1.1.7 2.2.8 3.4.1 1.2 0 2.3-.3 3.4s-.7 2.2-1.3 3.2c-.6 1-1.3 1.9-2.2 2.6-1.7 1.5-3.9 2.5-6.2 2.7-2.3.2-4.6-.2-6.6-1.3-1-.6-1.9-1.2-2.7-2.1-.8-.8-1.5-1.7-2-2.7-1.1-2-1.5-4.3-1.3-6.6l.2.2-2.1.1h-.2v-.2l-.1-2.8v-.2h.2c1-.2 1.9-.1 2.9-.1l-.2.1c.8-2.1 2.4-3.9 4.3-5.1 1.6-1.2 3.9-1.8 6.1-1.8z" fill="#0f0005" stroke-width="none" opacity="1"></path><path id="SvgjsPath21241" d="M83.9 106.8c-2.7 0-5.4-1-7.3-2.9-2-1.9-3.1-4.6-3.1-7.3s1.2-5.4 3.1-7.3 4.6-3.1 7.3-3.1 5.4 1 7.4 3c2 1.9 3.1 4.6 3.1 7.4 0 2.7-1.2 5.5-3.1 7.3-2.1 1.9-4.7 3-7.4 2.9zm0 0c2.7 0 5.3-1.2 7.1-3.1 1.8-1.9 2.9-4.5 2.8-7.1s-1.1-5.2-2.9-7.1-4.4-3-7.1-3c-2.6 0-5.3 1-7.2 2.9-1.9 1.9-2.9 4.5-2.8 7.2 0 2.6 1.1 5.2 2.9 7.1 1.9 1.9 4.5 3.1 7.2 3.1z" fill="#0f0005" stroke-width="none" opacity="1"></path><path id="SvgjsPath21242" d="M104.9 96.6c0 6.2 5 11.2 11.2 11.2s11.2-5 11.2-11.2c0-.5 0-.9-.1-1.4l2 .1.1-2.8c-.9-.2-2.2-.1-2.8-.1-1.7-4.1-5.7-7-10.4-7-6.2 0-11.2 5-11.2 11.2zm1 0c0-5.6 4.6-10.2 10.2-10.2s10.2 4.6 10.2 10.2-4.6 10.2-10.2 10.2-10.2-4.6-10.2-10.2z" fill="#2e0914" stroke-width="none" opacity="1"></path><path id="SvgjsPath21243" d="M104.9 96.6c0 3.1 1.4 6.1 3.6 8.1s5.2 3.1 8.2 2.9c3-.1 5.9-1.6 7.9-3.9s2.8-5.5 2.4-8.5V95H129.3l-.1.2v-2.8l.1.2c-.9-.1-1.9-.1-2.8-.1h-.2l-.1-.1c-1-2.3-2.7-4.3-5-5.5-2.2-1.2-4.8-1.6-7.3-1.2s-4.8 1.8-6.5 3.7c-1.5 2.1-2.4 4.6-2.5 7.2zm0 0c0-2.6.9-5.2 2.5-7.2s4-3.5 6.6-4 5.3-.1 7.7 1.2c2.3 1.3 4.1 3.4 5.1 5.8l-.2-.1c1 0 1.9 0 2.9.1h.2v.2l-.1 2.8v.2h-.1l-2.1-.1.1-.1c.4 3.1-.6 6.2-2.6 8.6-1.9 2.4-4.9 4-8 4.2s-6.3-.9-8.5-3.1c-2.3-2.4-3.5-5.4-3.5-8.5z" fill="#0f0005" stroke-width="none" opacity="1"></path><path id="SvgjsPath21244" d="M105.9 96.6c0-2.7 1-5.4 2.9-7.3 1.9-2 4.6-3.1 7.3-3.1s5.4 1.2 7.3 3.1 3.1 4.6 3.1 7.3-1 5.4-3 7.4c-1.9 2-4.6 3.1-7.4 3.1-2.7 0-5.5-1.2-7.3-3.1-1.9-2-2.9-4.7-2.9-7.4zm0 0c0 2.7 1.2 5.3 3.1 7.1 1.9 1.8 4.5 2.9 7.1 2.8s5.2-1.1 7.1-2.9 3-4.4 3-7.1c0-2.6-1-5.3-2.9-7.2-1.9-1.9-4.5-2.9-7.2-2.8-2.6 0-5.2 1.1-7.1 2.9-1.9 1.9-3.1 4.5-3.1 7.2z" fill="#0f0005" stroke-width="none" opacity="1"></path><path id="SvgjsPath21245" d="M93.5 95.5h13.1v1.4H93.5v-1.4z" fill="#0f0005" stroke-width="none" opacity="1"></path></g></g></g></g></g><rect id="svga-credit-rect" width="200" height="15" x="0" y="185" fill="#ecf0f1" opacity="0.5" style="display: none;"></rect><text id="svga-credit-text" font-family="Avenir Next, Roboto, Helvetica, Arial, sans-serif" font-size="10px" text-anchor="start" font-weight="400" size="10px" anchor="start" weight="400" fill="#333333" x="33.40447998046875" y="182.60824704170227" style="display: none;"><tspan id="SvgjsTspan20983" dy="13" x="33.40447998046875">Created on AvatarMaker.com</tspan></text></g><defs id="SvgjsDefs20930"></defs></svg>