<svg xmlns="http://www.w3.org/2000/svg" viewBox="0 0 117.43 31.9"><defs><style>.cls-1{fill:#2f7ad6;}</style></defs><g id="图层_2" data-name="图层 2"><g id="图层_1-2" data-name="图层 1"><path class="cls-1" d="M24.57,13.17a1.11,1.11,0,0,0-.71.26L22,11.63a1.5,1.5,0,0,0,.07-.44,1.48,1.48,0,0,0-2.95,0,1.5,1.5,0,0,0,.19.73L16,13.87a1.69,1.69,0,0,0-1.14-.43A1.79,1.79,0,0,0,13.6,14l-2.19-2.23a2,2,0,0,0,.28-1,2,2,0,1,0-3.46,1.4L5.15,15.6a2.93,2.93,0,0,0-1.5-.41,3,3,0,1,0,3,3,3,3,0,0,0-.74-2l2.63-3.86a1.93,1.93,0,0,0,1.14.36,2,2,0,0,0,1.17-.38l2.55,1.88a1.75,1.75,0,1,0,3.21,1,1.68,1.68,0,0,0-.07-.5l3-2.47a1.47,1.47,0,0,0,2,.12l2.07,1.36a1.14,1.14,0,0,0-.15.56,1.09,1.09,0,1,0,1.09-1.09Z"/><path class="cls-1" d="M25.34.72h0a8.11,8.11,0,0,0-6.46-.1A11.86,11.86,0,0,0,15.61,3L11.54,7.35a0,0,0,0,0,.05.05L15.9,4.51l0,0c2.65-1.64,4.89-2.33,7.82-1.55A9.09,9.09,0,0,1,30,9.32c0,.08.11.12.14,0l0-1A8.12,8.12,0,0,0,25.34.72Z"/><path class="cls-1" d="M4.91,31.24h0a8.06,8.06,0,0,0,6.46,0,11.51,11.51,0,0,0,3.22-2.41l4-4.44s0-.08,0-.06l-4.26,3,0,0C11.63,29,9.4,29.72,6.46,29A9.1,9.1,0,0,1,.15,22.73c0-.08-.11-.12-.14,0v1A8.1,8.1,0,0,0,4.91,31.24Z"/><path class="cls-1" d="M37.74,20v8.36H35.33V14.22h2.59l3.94,9.07.87-2.17c.29-.73.58-1.45.88-2.18l1.89-4.72h2.58V28.35H45.6V19.79l-.06.19-2.49,6.27h-2.6Z"/><path class="cls-1" d="M49.88,16.05V14.22h2.54v1.83Zm0,2.09h2.54V28.35H49.88Z"/><path class="cls-1" d="M56.75,28.35H54.21V18.14h2.54V19l.16-.14.16-.13a4.5,4.5,0,0,1,1.17-.61,4.17,4.17,0,0,1,1.37-.2,4.85,4.85,0,0,1,1,.11,3.75,3.75,0,0,1,.91.31,3.6,3.6,0,0,1,.75.49,2.8,2.8,0,0,1,.55.65,3.73,3.73,0,0,1,.35,1,7.36,7.36,0,0,1,.13,1.41v6.47H60.78V22.59a7,7,0,0,0-.16-1.89,1.46,1.46,0,0,0-.52-.84,2.53,2.53,0,0,0-.47-.23,1.41,1.41,0,0,0-.44-.08,1.73,1.73,0,0,0-.55.11A3.51,3.51,0,0,0,58,20a2.16,2.16,0,0,0-.47.45,5.31,5.31,0,0,0-.46.74,2.63,2.63,0,0,0-.26.88,8,8,0,0,0-.09,1.29Z"/><path class="cls-1" d="M71.9,13.66h2.54V28.35H71.9v-.68l-.3.27a2.73,2.73,0,0,1-.54.3,4.5,4.5,0,0,1-1.35.35,5,5,0,0,1-.68,0,4.29,4.29,0,0,1-1.25-.17A4.14,4.14,0,0,1,66.71,28a4.57,4.57,0,0,1-1-.86,3.92,3.92,0,0,1-.66-1,8.15,8.15,0,0,1-.42-1.38,7.07,7.07,0,0,1,.16-3.52,6.32,6.32,0,0,1,.89-1.78,3.77,3.77,0,0,1,1.44-1.15,4.67,4.67,0,0,1,2-.4,4.45,4.45,0,0,1,1.39.2,3.25,3.25,0,0,1,1.1.55l.15.11.13.13Zm0,9.58a4.86,4.86,0,0,0-.67-2.76,2,2,0,0,0-1.71-1.08,2.23,2.23,0,0,0-1.7,1,4.44,4.44,0,0,0-.71,2.86,9.46,9.46,0,0,0,.17,1.93,2.73,2.73,0,0,0,.5,1.16,2.78,2.78,0,0,0,.81.64,1.86,1.86,0,0,0,.89.22,2.07,2.07,0,0,0,1.23-.47,1.6,1.6,0,0,0,.47-.54,5.6,5.6,0,0,0,.41-.85,9.63,9.63,0,0,0,.22-1A6.56,6.56,0,0,0,71.9,23.24Z"/><path class="cls-1" d="M78.77,28.35H76.09V14.22h4.76a8.68,8.68,0,0,1,1.54.12,3.53,3.53,0,0,1,1.07.35,5.16,5.16,0,0,1,.86.63,3,3,0,0,1,.58.73,5.18,5.18,0,0,1,.39,1,3.45,3.45,0,0,1,.13.95,3.64,3.64,0,0,1-.36,1.54,5.66,5.66,0,0,1-1,1.45,5.2,5.2,0,0,1-.69.5,9.49,9.49,0,0,1-1.06.53,4.06,4.06,0,0,1,.42.26,2.29,2.29,0,0,1,.23.17,4.33,4.33,0,0,1,.61.74c.11.17.22.33.31.49s.19.31.27.46l2.29,4.24H83.59l-2-3.71a9.6,9.6,0,0,0-.81-1.3,7.37,7.37,0,0,0-.91-1H78.77Zm0-7.55h1.35a2.85,2.85,0,0,0,1.48-.34,2.27,2.27,0,0,0,.76-1,3,3,0,0,0,.3-1.39,3.15,3.15,0,0,0-.22-1.21,1.8,1.8,0,0,0-.66-.78,2.71,2.71,0,0,0-1.53-.34H78.77Z"/><path class="cls-1" d="M93.52,28.35c0-.15-.09-.29-.13-.44s-.07-.27-.1-.38a4.84,4.84,0,0,1-1.37.8,4.62,4.62,0,0,1-1.64.3,3.46,3.46,0,0,1-2.34-.75,2.62,2.62,0,0,1-1-2.08,2.35,2.35,0,0,1,.35-1.28,3.34,3.34,0,0,1,1-1A7.55,7.55,0,0,1,90,22.76a25.94,25.94,0,0,1,2.63-.65l.55-.11V20.87q0-1-.42-1.23a2.34,2.34,0,0,0-1.27-.37,2.17,2.17,0,0,0-1.36.44,1.21,1.21,0,0,0-.42,1v.22H87.06v-.2a2.39,2.39,0,0,1,.66-1.42,3.31,3.31,0,0,1,.67-.59,6.77,6.77,0,0,1,1-.51,6.22,6.22,0,0,1,2.2-.37,7.13,7.13,0,0,1,1.15.1,5.61,5.61,0,0,1,1,.26,5,5,0,0,1,.93.46,1.79,1.79,0,0,1,.57.48,2.55,2.55,0,0,1,.38.91,5.69,5.69,0,0,1,.13,1.31v3.92c0,.21,0,.43,0,.66s0,.45,0,.69a5,5,0,0,0,.1.81c.06.28.13.58.23.9Zm-.3-4.94c-.35.09-.69.18-1,.28l-.88.3a7.12,7.12,0,0,0-.7.29,3.17,3.17,0,0,0-.48.29,1.5,1.5,0,0,0-.54,1.27,1.91,1.91,0,0,0,.08.54,1.11,1.11,0,0,0,.24.44,1,1,0,0,0,.38.3,1.24,1.24,0,0,0,.52.11,1.82,1.82,0,0,0,.54-.1,3.57,3.57,0,0,0,.62-.31,2.83,2.83,0,0,0,.91-1.06,3.29,3.29,0,0,0,.32-1.56Z"/><path class="cls-1" d="M100,28.35H97.48V18.14H100V19l.16-.14.16-.13a4.5,4.5,0,0,1,1.17-.61,4.17,4.17,0,0,1,1.37-.2,4.85,4.85,0,0,1,1,.11,3.75,3.75,0,0,1,.91.31,3.6,3.6,0,0,1,.75.49,3.06,3.06,0,0,1,.55.65,3.73,3.73,0,0,1,.35,1,7.42,7.42,0,0,1,.12,1.41v6.47h-2.54V22.59a7,7,0,0,0-.16-1.89,1.46,1.46,0,0,0-.52-.84,2.87,2.87,0,0,0-.47-.23,1.41,1.41,0,0,0-.44-.08,1.68,1.68,0,0,0-.55.11,3.51,3.51,0,0,0-.61.31,2.16,2.16,0,0,0-.47.45,5.31,5.31,0,0,0-.46.74,2.63,2.63,0,0,0-.26.88,8,8,0,0,0-.09,1.29Z"/><path class="cls-1" d="M110.86,28.35h-2.61V13.66h2.61v8.48l1.88-2c.62-.66,1.24-1.32,1.86-2h2.67l-4.42,4.75,2.29,2.73,2.29,2.73h-2.84L110.86,24Z"/></g></g></svg>