<svg xmlns="http://www.w3.org/2000/svg" version="1.1" width="600px" height="600px" viewBox="0 0 200 200" style="overflow:hidden!important;"><defs id="SvgjsDefs58089"></defs><g id="svga-group-wrapper"><g id="svga-group-backs-single"><path id="SvgjsPath58994" d="M0 151.2s23.5-5.1 41.7 13.1S59.6 192.1 87 200H0v-48.8z" fill="#ff0000" stroke-width="none" opacity="1"></path><path id="SvgjsPath58995" d="M133.6 180.5c-23.4-5.2-55.2-7.3-78.3-46.1S0 100 0 100v51.2s23.5-5.1 41.7 13.1S59.6 192.1 87 200h80.9s-10.9-14.4-34.3-19.5z" fill="#ff6700" stroke-width="none" opacity="1"></path><path id="SvgjsPath58996" d="M170.8 156c-37.1 6.4-73.1-10.7-84.6-38.1-17-40.6-35.4-62.5-53.5-65-17.9-2.5-32.8 0-32.8 0V100s32.3-4.5 55.3 34.4 54.9 41 78.3 46.1 34.3 19.5 34.3 19.5H200v-50.1s-13.7 3.4-29.2 6.1z" fill="#ffb600" stroke-width="none" opacity="1"></path><path id="SvgjsPath58997" d="M149.1 124.2c-28.7-13.4-33-30-37.2-43.8-4.2-13.7-16.3-50-45.7-65.3S0 8 0 8v45s14.9-2.5 32.8 0c18.1 2.5 36.4 24.5 53.5 65 11.5 27.4 47.5 44.5 84.6 38.1 15.5-2.7 29.2-6.1 29.2-6.1v-14.3c-.1-.1-22.3 1.9-51-11.5z" fill="#378c00" stroke-width="none" opacity="1"></path><path id="SvgjsPath58998" d="M170.3 103c-17.6-9.8-25.8-29.7-34.3-63.3C127.5 6 100 0 100 0H0v8s36.8-8.2 66.1 7.2 41.5 51.6 45.7 65.3 8.5 30.4 37.2 43.8c28.7 13.4 50.9 11.4 50.9 11.4v-21.2c.1-.1-12-1.7-29.6-11.5z" fill="#00b1ba" stroke-width="none" opacity="1"></path><path id="SvgjsPath58999" d="M166.1 37.8C152.1 27.3 149.9 0 149.9 0H100s27.5 6 36 39.6 16.6 53.5 34.3 63.3 29.7 11.4 29.7 11.4V61.1s-19.8-12.9-33.9-23.3z" fill="#0530e2" stroke-width="none" opacity="1"></path><path id="SvgjsPath59000" d="M149.9 0s2.1 27.3 16.2 37.8S200 61.1 200 61.1V0h-50.1z" fill="#8900ea" stroke-width="none" opacity="1"></path><path id="SvgjsPath59001" d="M74.2 196.2c-2.6-1.1-5-2.4-7.4-3.9l-1.7-1.2c-.6-.4-1.1-.9-1.7-1.3-.5-.4-1.1-.9-1.7-1.3-.5-.5-1-.9-1.6-1.4-.5-.5-1.1-.9-1.6-1.4l-1.5-1.5c-1-1-2-2.1-3-3.1-3.9-4.4-7.2-9.2-10.5-14.1-1.7-2.4-3.2-5-5.1-7.4-.5-.6-.9-1.2-1.4-1.8-.5-.6-1-1.2-1.6-1.8l-.8-.8-.9-.8c-.6-.5-1.3-1-1.9-1.4-2.7-1.7-5.7-2.9-8.7-3.6s-6.1-1-9.2-1c-3.1 0-6.1.3-9 .9-1.7.3-3.3.7-5 1.2v1.6c4.7-.2 9.3-.2 13.8.2 2.8.3 5.6.7 8.3 1.4 2.7.7 5.2 1.7 7.7 2.9 1.2.6 2.4 1.3 3.5 2.1.6.4 1.1.8 1.6 1.3.5.4 1 1 1.6 1.5 2.1 2 4 4.2 5.8 6.5 3.5 4.7 6.4 9.8 9.7 14.8 1.7 2.5 3.4 5 5.4 7.3.5.6 1 1.1 1.5 1.7s1.1 1.1 1.7 1.6c.6.5 1.1 1.1 1.7 1.5l1.8 1.4c1.9 1.5 3.9 2.7 6 3.9h14.6c-.9-.3-1.7-.6-2.6-.9-2.6-1.1-5.2-2-7.8-3.1zm82.6-11.6c-.5-.3-1.1-.6-1.6-.9l-1.6-.8c-1.1-.5-2.2-1.1-3.3-1.6l-3.4-1.4c-1.1-.5-2.3-.9-3.4-1.3-4.6-1.7-9.3-3-14-4-2.4-.6-4.8-.9-7.1-1.3-2.4-.3-4.8-.7-7.2-.9-2.4-.3-4.8-.5-7.2-.7-1.2-.1-2.3-.2-3.4-.3-1.1-.2-2.2-.3-3.3-.6-8.8-1.9-17.1-6.4-24.4-12.2-7.3-5.8-13.6-13.1-19-20.9-2.7-3.9-5.1-8-7.4-12.1-1.2-2.1-2.3-4.2-3.4-6.2l-1.7-3.1c-.6-1.1-1.2-2.2-1.9-3.2-2.8-4.1-6.3-7.9-10.4-10.7-2-1.5-4.2-2.7-6.4-3.8-2.2-1.1-4.6-1.9-6.9-2.7-2.4-.8-4.8-1.2-7.2-1.6-2.4-.4-4.8-.6-7.3-.7-1.8 0-3.5 0-5.3.1v2c6.4.5 12.6 1.7 18.5 3.8 2.1.8 4.2 1.7 6.2 2.8 2 1.1 4 2.2 5.8 3.6.9.6 1.8 1.4 2.6 2.1.8.8 1.7 1.5 2.5 2.3l1.2 1.2 1.1 1.3c.8.8 1.4 1.7 2.2 2.6.7.9 1.3 1.8 2 2.8.7 1 1.3 2 2 3 1.4 2 2.7 3.9 4.1 5.9 2.8 3.9 5.6 7.8 8.5 11.6 5.7 7.7 11.5 15.2 18.5 22 3.5 3.4 7.3 6.5 11.5 9s8.8 4.5 13.7 5.7c1.2.3 2.4.5 3.7.8 1.2.2 2.5.4 3.7.5 2.3.3 4.7.6 7 .9 2.3.3 4.6.7 7 1.1 2.3.4 4.6.8 6.9 1.3 9.2 1.8 18.1 4.4 26.5 8.3 4.2 1.9 8.2 4.3 12.1 6.9l2.9 2c.9.7 1.8 1.5 2.8 2.2l.9.7h1.9c-5.5-6.2-11.9-11.5-19-15.5zm-6.8-28.8c-5.6-.1-11.3-.7-16.8-1.7-5.5-1.1-10.8-2.7-15.9-5.1-10-4.9-18.3-12.8-24.3-22.6-1.5-2.4-3-4.9-4.3-7.4-1.4-2.5-2.7-5.1-4-7.7-2.5-5.2-4.9-10.5-7.3-15.8-1.2-2.6-2.4-5.3-3.7-7.9-1.2-2.6-2.5-5.2-3.9-7.8-2.8-5.2-6-10.2-9.9-14.7-4-4.5-8.7-8.4-14.1-11.2-5.3-2.9-11.1-4.8-17-5.8-.7-.1-1.5-.3-2.2-.4l-2.2-.2-2.2-.2h-4.4l-2.2.1c-1.5 0-3 .2-4.4.4-.7.1-1.5.2-2.2.3l-2.2.4c-1.4.3-2.9.6-4.3 1.1-.8.2-1.7.5-2.5.8v1.5c9.4-1.9 19-1.9 28.2.2 1.4.3 2.7.6 4 1.1l2 .6 1 .3 1 .4c1.3.5 2.6 1 3.9 1.6l3.7 1.9c.6.3 1.2.7 1.8 1 .6.4 1.2.7 1.8 1.1l1.6.9 1.7 1.2c2.2 1.7 4.3 3.6 6.2 5.6 7.9 8 14 17.9 19.1 28.3 2.5 5.2 4.9 10.5 7.2 15.8 2.4 5.3 4.7 10.6 7.5 15.8 2.7 5.2 6 10.3 10.2 14.6 4.1 4.4 9 8 14.4 10.8 10.7 5.6 22.9 7.9 34.7 8 11.9 0 23.6-1.8 34.9-5 5.1-1.5 10.2-3.2 15.1-5.2v-2.8c-5.3 1.6-10.7 3.1-16.1 4.2-11.2 2.3-22.6 3.6-33.9 3.5zm41.1-20.2-2.1-.1-2.1-.1c-.7 0-1.4-.1-2.1-.2-2.9-.2-5.6-.7-8.5-1.1-2.8-.6-5.6-1.1-8.3-2-2.8-.7-5.4-1.7-8.1-2.6-1.3-.5-2.6-1.1-3.9-1.7-1.3-.6-2.6-1-3.9-1.7-2.5-1.3-5.1-2.5-7.5-3.9-1.2-.7-2.4-1.5-3.6-2.2-1.1-.8-2.4-1.6-3.5-2.4-2.3-1.7-4.4-3.5-6.5-5.5-4.1-4-7.6-8.5-10.6-13.5-2.9-5-5.2-10.3-7.2-15.7-2-5.4-3.5-11-5.2-16.6-.8-2.8-1.7-5.6-2.6-8.4-.9-2.8-1.9-5.6-3-8.3-1.1-2.7-2.4-5.5-3.8-8.1-1.4-2.6-2.9-5.2-4.5-7.7-1.7-2.5-3.4-4.9-5.3-7.2s-4-4.5-6.2-6.6c-4.4-4.1-9.6-7.5-15.1-10.1C61.8 7.3 56 5.5 50 4.6c-5.9-.9-11.9-1.1-17.8-.8-3 .1-5.9.4-8.8.8-1.5.2-2.9.4-4.4.7l-4.3.8c-2.9.7-5.7 1.3-8.6 2.1-2 .6-4.1 1.2-6.1 1.9v.8C10.7 9 21.5 7.6 32.3 7.8c5.7 0 11.4.5 16.9 1.6 5.5 1.1 10.9 2.8 15.9 5.2 2.5 1.2 4.9 2.5 7.2 4.1 2.3 1.6 4.5 3.2 6.6 5.1 4.2 3.7 7.9 8 11.2 12.6 3.2 4.7 6.2 9.6 8.6 14.7 2.4 5.2 4.6 10.5 6.6 16 2 5.4 4.1 10.9 6.2 16.3 1.1 2.7 2.2 5.4 3.4 8.1.6 1.3 1.3 2.6 1.9 4 .7 1.3 1.3 2.6 2.1 3.9 1.4 2.6 2.9 5.1 4.6 7.5 1.6 2.5 3.5 4.8 5.4 7.1 3.9 4.5 8.4 8.6 13.4 11.8 2.5 1.7 5.1 3 7.8 4.4 1.3.7 2.7 1.2 4.1 1.9 1.4.6 2.7 1.2 4.1 1.7 5.6 2 11.4 3.5 17.3 4.3 3 .3 5.9.6 8.9.7.7 0 1.5.1 2.2.1l2.2-.1 2.2-.1 2.2-.2c2.2-.2 4.5-.5 6.7-.9v-2c-2.3.2-4.5.2-6.8.2l-2.1-.2zM118.9 6.8c1.3 1.3 2.5 2.7 3.6 4.1 2.2 2.9 4.4 5.9 6.3 9 1.9 3.1 3.6 6.4 5 9.8l1 2.6c.3.9.5 1.8.8 2.7.3.9.4 1.8.6 2.7.2.9.4 1.8.6 2.8 1.3 7.5 2.5 15 4.1 22.5.9 3.7 1.7 7.5 3 11.2.3.9.6 1.8 1 2.8l1.1 2.7.6 1.3.7 1.3c.4.9.9 1.8 1.3 2.6 1.9 3.5 4.2 6.8 6.9 9.7 2.7 3 5.8 5.6 9.3 7.7 3.5 2.1 7.4 3.5 11.2 4.4 3.9.9 7.7 1.4 11.6 1.6l2.9.1h2.9c1.9 0 3.8-.1 5.8-.2.3 0 .6-.1.9-.1v-2.4c-4.1-.3-8.1-.8-12.1-1.4-.9-.1-1.8-.3-2.7-.5l-1.4-.2-1.4-.3c-1.8-.3-3.6-.8-5.3-1.3-3.5-1.1-6.7-2.4-9.7-4.3-6.1-3.7-11-9-14.9-15.2-.5-.8-.9-1.6-1.4-2.4l-.7-1.2-.6-1.2-1.2-2.5-1.1-2.5c-.4-.8-.8-1.7-1.1-2.6l-1.1-2.6c-.7-1.7-1.3-3.5-1.9-5.3-2.4-7.1-4.1-14.5-5.1-22-.5-3.8-1-7.6-2-11.4-.9-3.8-2.2-7.5-4-11-1.8-3.5-3.9-6.8-6.5-9.8-1.3-1.5-2.6-2.9-4-4.3-1.4-1.3-2.8-2.6-4.3-3.8h-5.9c1.1.9 2.2 1.9 3.3 2.9 1.4 1.3 2.7 2.6 3.9 4zm32.4-1.4c.2 2.4.4 4.9 1 7.3.2 1.2.6 2.4.8 3.6.4 1.2.7 2.4 1.1 3.5.7 2.3 1.7 4.6 2.8 6.8 1.2 2.2 2.5 4.3 4 6.2.7 1 1.5 1.9 2.3 2.9.4.5.8.9 1.2 1.4s.8.9 1.2 1.4c.9.8 1.7 1.7 2.5 2.6l1.2 1.3 1.2 1.3c.8.9 1.6 1.7 2.4 2.7.8.9 1.7 1.7 2.5 2.6.8.9 1.7 1.7 2.6 2.5.9.8 1.8 1.7 2.8 2.3l3 2.1c1.1.6 2.1 1.2 3.2 1.8 1.1.5 2.2 1 3.4 1.5 1.1.4 2.3.8 3.5 1.2 1.2.3 2.4.7 3.6.9.8.2 1.6.3 2.4.4v-3.1c-1.6-.6-3.1-1.2-4.6-1.9l-3.1-1.5-3.1-1.5c-1-.6-2-1.1-3-1.7-1-.6-2-1.2-3-1.7s-2-1.2-3-1.7-2-1.1-3-1.8c-1-.6-1.9-1.3-2.9-2-.9-.7-1.8-1.5-2.7-2.3-.4-.4-.9-.8-1.3-1.2l-1.2-1.3c-.8-.9-1.6-1.8-2.3-2.7-1.4-1.8-2.6-3.8-3.6-5.9-2-4.2-3.4-8.5-4.6-12.9-1.1-4.4-1.6-9-2.1-13.5-.2-1.7-.3-3.3-.4-5h-5c0 1.8 0 3.6.2 5.4z" fill="#ffffff" stroke-width="none" opacity="1"></path></g><g id="svga-group-humanwrap-move" transform="matrix(1,0,0,1,0,0)"><g id="svga-group-humanwrap" transform="matrix(1.1000003000000003,0,0,1.1000003000000003,-9.945031818648559,-12.761062758171107)"><g id="svga-group-hair-back-move" transform="matrix(1,0,0,1,0,0)"><g id="svga-group-hair-back" transform="matrix(1,0,0,1,0,0)"><path id="SvgjsPath58834" d="M123.7 122c1.7 12.1 2.4 24.2 2.3 36.3 0 2.4 3.7 2.4 3.8 0 .1-12.5-.7-24.9-2.4-37.3-.4-2.4-4-1.4-3.7 1zm3.8-4.1c2.3 11.6 3.3 23.3 3.1 35.2-.1 2.4 3.7 2.4 3.8 0 .3-12.2-.8-24.2-3.2-36.2-.6-2.4-4.2-1.4-3.7 1zm7.2-6.8c-.7-2.3-4.4-1.3-3.6 1 3.9 12.1 4 25.7 3.5 38.3-.1 2.4 3.7 2.4 3.8 0 .5-12.9.3-26.9-3.7-39.3zm-59.8 10.5c-1.1 12.1-1.2 24.3-.5 36.4.1 2.4-3.6 2.6-3.8.2-.7-12.5-.5-24.9.6-37.4.2-2.4 3.9-1.6 3.7.8zm-4-3.9c-1.8 11.7-2.2 23.5-1.3 35.3.2 2.4-3.6 2.6-3.8.2-.9-12.1-.4-24.2 1.4-36.3.4-2.4 4-1.6 3.7.8zm-7.6-6.4c.6-2.3 4.3-1.5 3.7.8-3.2 12.3-2.7 25.9-1.6 38.5.2 2.4-3.5 2.6-3.8.2-1.1-12.9-1.6-26.9 1.7-39.5zM88.8 129c-1.1 12.1-1.2 24.3-.5 36.4.1 2.4-3.6 2.6-3.8.2-.7-12.5-.5-24.9.6-37.4.2-2.4 3.9-1.6 3.7.8zm-4.1-3.9c-1.8 11.7-2.2 23.5-1.3 35.3.2 2.4-3.6 2.6-3.8.2-.9-12.1-.4-24.2 1.4-36.3.4-2.4 4.1-1.6 3.7.8zm-7.5-6.4c.6-2.3 4.3-1.5 3.7.8-3.2 12.3-2.7 25.9-1.6 38.5.2 2.4-3.5 2.6-3.8.2-1.2-13-1.6-26.9 1.7-39.5zm38.6 12c1.1 12.5 1.3 24.9.6 37.4-.1 2.4-3.9 2.2-3.8-.2.7-12.1.6-24.3-.5-36.4-.2-2.4 3.5-3.2 3.7-.8zm4-3.9c1.8 12 2.3 24.1 1.4 36.3-.2 2.4-3.9 2.2-3.8-.2.9-11.8.4-23.6-1.3-35.3-.3-2.4 3.4-3.2 3.7-.8zm5.6 33.8c-.2 2.4-4 2.2-3.8-.2 1.1-12.6 1.6-26.1-1.6-38.5-.6-2.3 3.1-3.1 3.7-.8 3.3 12.7 2.9 26.7 1.7 39.5z" fill="#080806" stroke-width="none" opacity="1" stroke="none"></path><path id="SvgjsPath58835" d="M135.2 110.9c-.5-1.5-1.9-1.9-3.1-1.5-1.1.3-2 1.4-1.5 2.8 2.2 7 3.2 14.6 3.6 22-.5-5.9-1.4-11.7-2.6-17.5-.2-.8-.6-1.4-1.4-1.6-.8-.3-1.8-.1-2.5.6-.7.6-.9 1.4-.8 2.3.1.6.2 1.3.3 1.9-.5-.6-1.2-.8-1.9-.7-1.3.2-2.5 1.3-2.3 2.9 1.6 11.8 2.4 24 2.3 36.2 0 .9.4 1.6 1.1 2 .4.2.8.3 1.3.3.4 0 .9-.1 1.3-.3.7-.4 1.1-1.1 1.1-2v-4.4c.3.9 1.2 1.4 2.1 1.4h.1c1.2 0 2.4-.8 2.4-2.3v-.9c.4.4 1 .6 1.5.6h.1c1.2 0 2.4-.8 2.4-2.3.6-12.3.6-26.6-3.5-39.5zm-6.6 48.5c-.5.3-1.1.3-1.6 0-.3-.2-.6-.5-.6-1.1.1-12.3-.7-24.6-2.3-36.4-.2-1.1.7-1.7 1.4-1.8h.2c.4 0 .9.1 1 .9 1.7 12.4 2.5 25 2.4 37.2.1.7-.2 1.1-.5 1.2zm-.1-32.8c1 7.2 1.6 14.6 1.6 22-.2-7.3-.7-14.6-1.6-22zm5.3 26.4c0 .9-.7 1.3-1.4 1.3-.6 0-1.3-.4-1.3-1.3.3-11.9-.8-23.8-3.1-35.3-.1-.7.2-1.1.4-1.3.3-.3.7-.4 1.1-.4.1 0 .3 0 .4.1.4.1.6.4.7.9 2.4 11.9 3.5 24 3.2 36zm4.1-2.6c0 .9-.8 1.3-1.5 1.3-.6 0-1.3-.4-1.2-1.3.5-12.1.4-26.1-3.6-38.5-.3-.9.3-1.4.9-1.6.2-.1.3-.1.5-.1.5 0 1.1.3 1.3 1 4 12.7 4 27 3.6 39.2zm-76.8.4c.1 1.5 1.4 2.2 2.6 2.2h.1c.5-.1 1.1-.3 1.5-.6 0 .3 0 .6.1.9.1 1.5 1.3 2.2 2.5 2.2h.1c.9-.1 1.8-.6 2.1-1.6.1 1.5.1 2.9.2 4.4.1.9.5 1.6 1.2 1.9.4.2.8.3 1.3.3.4 0 .9-.2 1.3-.4.7-.4 1-1.2 1-2-.7-12.2-.5-24.5.5-36.3.1-1.6-1.1-2.7-2.4-2.8-.7-.1-1.4.2-1.9.8.1-.6.2-1.3.3-1.9.1-.9-.2-1.7-.9-2.2-.7-.6-1.7-.7-2.5-.4-.7.3-1.2.9-1.3 1.7-.9 5.8-1.4 11.7-1.7 17.6 0-7.4.6-15 2.5-22.2.4-1.5-.6-2.5-1.6-2.8-1.2-.3-2.6.2-3 1.7-3.7 12.9-3.1 27.2-2 39.5zm10.1 7.4c-.7-12.2-.5-24.8.6-37.3.1-.8.6-1 1-1h.2c.7.1 1.6.6 1.5 1.7-1 11.9-1.2 24.2-.5 36.5 0 .6-.3 1-.5 1.1-.4.3-1.1.3-1.5.1-.4-.2-.8-.5-.8-1.1zm-1.4-9.6c-.3-7.4-.2-14.8.5-22.1-.5 7.4-.6 14.8-.5 22.1zM67.7 117c.1-.5.3-.8.7-.9.1-.1.3-.1.4-.1.4 0 .8.1 1.1.4.3.2.6.6.5 1.3-1.7 11.6-2.2 23.5-1.3 35.4.1.9-.6 1.3-1.2 1.4-.7 0-1.4-.3-1.5-1.2-1-12.2-.5-24.3 1.3-36.3zm-3.9-5.6c.2-.7.7-1 1.2-1 .2 0 .3 0 .5.1.6.2 1.2.6.9 1.5-3.3 12.6-2.7 26.6-1.7 38.6.1.9-.6 1.3-1.2 1.4-.7 0-1.5-.3-1.6-1.2-.8-12.3-1.5-26.5 1.9-39.4zM75 158.2c.1 1.5 1.4 2.2 2.6 2.2h.1c.5-.1 1.1-.3 1.5-.6 0 .3 0 .6.1.9.1 1.5 1.3 2.2 2.5 2.2h.1c.9-.1 1.8-.6 2.1-1.6.1 1.5.1 2.9.2 4.4.1.9.5 1.6 1.2 1.9.4.2.8.3 1.3.3.4 0 .9-.2 1.3-.4.7-.4 1-1.2 1-2-.7-12.2-.5-24.5.5-36.3.1-1.6-1.1-2.7-2.4-2.8-.7-.1-1.4.2-1.9.8.1-.6.2-1.3.3-1.9.1-.9-.2-1.7-.9-2.2-.7-.6-1.7-.7-2.5-.4-.7.3-1.2.9-1.3 1.7-.9 5.8-1.4 11.7-1.7 17.6 0-7.4.6-15.1 2.5-22.2.4-1.5-.6-2.5-1.6-2.8-1.2-.3-2.6.2-3 1.7-3.7 12.9-3.1 27.2-2 39.5zm10 7.4c-.7-12.2-.5-24.8.6-37.3.1-.8.6-1 1-1h.2c.7.1 1.6.6 1.5 1.7-1 11.9-1.2 24.2-.5 36.5 0 .6-.3 1-.5 1.1-.4.3-1.1.3-1.5.1-.4-.2-.7-.5-.8-1.1zm-1.4-9.6c-.3-7.4-.2-14.8.5-22.1-.4 7.4-.6 14.7-.5 22.1zm-2-31.6c.1-.5.3-.8.7-.9.1-.1.3-.1.4-.1.4 0 .8.1 1.1.4.3.2.6.6.5 1.3-1.7 11.6-2.2 23.5-1.3 35.4.1.9-.6 1.3-1.2 1.4-.7 0-1.4-.3-1.5-1.2-1-12.2-.5-24.3 1.3-36.3zm-3.9-5.6c.2-.7.7-1 1.2-1 .2 0 .3 0 .5.1.6.2 1.2.6.9 1.5-3.2 12.6-2.6 26.6-1.6 38.6.1.9-.6 1.3-1.2 1.4-.7 0-1.5-.3-1.6-1.2-1-12.3-1.6-26.5 1.8-39.4zm46.5 2.3c-.4-1.5-1.8-2-3-1.7-1.1.3-2 1.3-1.6 2.8 1.9 7.1 2.5 14.7 2.5 22.2-.2-5.9-.8-11.8-1.7-17.6-.1-.8-.6-1.4-1.3-1.7-.8-.3-1.8-.2-2.5.4-.7.5-1 1.4-.9 2.2.1.6.2 1.3.3 1.9-.4-.6-1.2-.9-1.9-.8-1.3.1-2.6 1.2-2.4 2.8 1 11.9 1.2 24.1.5 36.3-.1.9.3 1.6 1 2 .4.2.8.4 1.3.4.4 0 .9-.1 1.3-.3.7-.4 1.2-1.1 1.2-1.9.1-1.5.2-2.9.2-4.4.3.9 1.2 1.5 2.1 1.6h.1c1.2.1 2.4-.7 2.5-2.2 0-.3 0-.6.1-.9.4.4.9.6 1.5.6h.1c1.2.1 2.4-.7 2.6-2.2.8-12.2 1.4-26.5-2-39.5zm-9 48c-.5.2-1.1.2-1.5-.1-.3-.2-.6-.5-.5-1.1.7-12.3.5-24.6-.5-36.5-.1-1.1.8-1.6 1.5-1.7h.2c.4 0 .9.2 1 1 1.1 12.5 1.3 25.1.6 37.3-.1.7-.5 1-.8 1.1zm1.6-32.7c.7 7.3.8 14.7.5 22.1.1-7.3-.1-14.7-.5-22.1zm4 26.6c-.1.9-.8 1.3-1.5 1.2-.6 0-1.3-.4-1.2-1.4.9-11.9.4-23.8-1.3-35.4-.1-.7.2-1.1.5-1.3.3-.2.7-.4 1.1-.4.1 0 .3 0 .4.1.4.2.6.5.7.9 1.7 12.2 2.1 24.3 1.3 36.3zm4.1-2.4c-.1.9-.9 1.3-1.6 1.2-.6-.1-1.3-.4-1.2-1.4 1.1-12 1.7-26-1.7-38.6-.2-.9.4-1.4.9-1.5.2 0 .3-.1.5-.1.5 0 1.1.3 1.2 1 3.6 13 3 27.2 1.9 39.4z" fill="#000000" stroke-width="none" opacity="1" stroke="none"></path><path id="SvgjsPath58836" d="M64.8 148.8c-.1 0-.1-.1-.2-.1.1-.1.1-.3 0-.4-.6-.6-1.3-1-1.8-1.7s-.6-1.4-1-2.1c-.1-.2-.5-.2-.5.1-.2 1.3.8 3.1 2.1 3.9-.5 0-.9 0-1.3.1-.1 0-.2.1-.2.2v.2c.1.1.2.2.3.2.4 0 .8-.1 1.2-.1s.8.2 1.1.2c.4 0 .6-.3.3-.5zm-.7-4.7-1.2-1.2c-.4-.4-1.1-1-.9-1.6.1-.2-.3-.5-.5-.3-1.2 1.3 1.3 3.1 2.3 3.4.3.1.5-.2.3-.3zm-1.1-4.4c-.3-.6-.6-1-.6-1.7 0-.4-.5-.4-.5 0 0 .7.2 1.5.8 2 .1.2.5 0 .3-.3zm.9-4.6c-.4-.5-1-.9-1.3-1.6-.4-.6-.6-1.4-.6-2.1 0-.3-.4-.4-.5-.1-.3 1.6.4 3.8 2.1 4.3.4 0 .5-.3.3-.5zm-.1-4c-.2-.4-.6-.7-.8-1.1-.3-.4-.4-.9-.5-1.4 0-.3-.5-.3-.5 0 0 1 .4 2.5 1.5 2.8.2.1.4-.1.3-.3zm-1.3-6.4c0-.4-.7-.4-.7 0 0 .9.2 2 .8 2.6.2.2.4 0 .4-.2-.2-.8-.5-1.5-.5-2.4zm6.3 27.5c-1.1-.6-2.2-1.4-2.4-2.7 0-.2-.4-.2-.4.1 0 1.4 1.1 3.2 2.7 3 .2 0 .3-.3.1-.4zm-.5-3.2c-.2-.4-.7-.7-.9-1-.3-.4-.5-.9-.6-1.4-.1-.3-.5-.2-.5.1 0 1 .6 2.7 1.8 2.8.1 0 .3-.3.2-.5zm-.7-3c-.5-.8-1-1.5-1.1-2.5 0-.3-.5-.3-.5 0 0 1 .3 2.1 1.1 2.8.3.2.7 0 .5-.3zm.5-5.7c-.7-.6-1.4-1.3-1.5-2.3 0-.3-.4-.3-.4 0 0 1.1.6 2.4 1.8 2.6 0 .1.2-.1.1-.3zm-.2-2.9c-.2-.4-.6-.8-.8-1.2-.2-.4-.4-1-.5-1.5-.1-.3-.5-.2-.5.1 0 1.1.4 2.6 1.5 3 .2.1.4-.2.3-.4zm3.6 17.6c-.4.1-.3.7.1.7s.8 0 1.2.2c.3.1.6.4.9.4.2 0 .3-.2.3-.4-.3-1-1.8-1.1-2.5-.9zm2-2c-.3-.3-.7-.5-1.1-.8-.4-.3-.7-.6-.9-1.1-.2-.3-.5 0-.4.2.4.9 1.2 2 2.2 2.1.2 0 .4-.3.2-.4zm-.4-2.1c-.2-.4-.4-.7-.7-1.1-.3-.4-.7-.8-.9-1.3-.2-.3-.7 0-.5.3.4.8 1 1.9 1.9 2.3.1.2.3 0 .2-.2zm.1-2.3c-.3-.4-.8-.7-1.1-1.1-.3-.5-.6-1-.6-1.6 0-.4-.6-.4-.6 0 0 .7.1 1.4.5 2 .3.5.9 1.1 1.5 1 .3.1.4-.1.3-.3zm-.7-4c-.1-.4-.4-.7-.6-1-.2-.4-.4-.8-.5-1.2-.1-.3-.7-.3-.6.1.1.8.5 2.2 1.4 2.5.1 0 .4-.2.3-.4zm.3-5.7c-.2-.4-.5-.6-.7-.9-.2-.3-.5-.7-.6-1.1-.1-.3-.5-.2-.5.1.2.8.6 2 1.5 2.3.2.1.3-.2.3-.4zm5.9 17.3c-.1 0-.1-.1-.2-.1.1-.1.1-.3 0-.4-.6-.6-1.3-1-1.8-1.7s-.6-1.4-1-2.1c-.1-.2-.4-.2-.5.1-.2 1.3.8 3.1 2.1 3.9-.4 0-.9 0-1.3.1-.1 0-.2.1-.2.2v.2c.1.1.2.2.3.2.4 0 .8-.1 1.2-.1s.8.2 1.2.2c.2 0 .4-.3.2-.5zm-.7-4.8-1.2-1.2c-.4-.4-1.1-1-.9-1.6.1-.2-.3-.5-.4-.3-1.2 1.3 1.3 3.1 2.3 3.4.2.2.3-.1.2-.3zm-1.1-4.3c-.3-.6-.6-1-.6-1.7 0-.4-.6-.4-.6 0 0 .7.2 1.5.8 2 .2.2.5 0 .4-.3zm.9-4.6c-.4-.5-1-.9-1.3-1.6-.4-.6-.6-1.4-.6-2.1 0-.3-.4-.4-.5-.1-.3 1.6.4 3.8 2.1 4.3.3 0 .5-.3.3-.5zm-.2-4c-.2-.4-.6-.7-.8-1.1-.3-.4-.4-.9-.5-1.4 0-.3-.5-.3-.4 0 0 1 .4 2.5 1.5 2.8.2.1.3-.1.2-.3zm-1.3-6.4c0-.4-.7-.4-.7 0 0 .9.2 2 .8 2.6.2.2.4 0 .4-.2-.1-.8-.5-1.5-.5-2.4zm6.3 27.5c-1.1-.6-2.2-1.4-2.4-2.7 0-.2-.4-.2-.4.1 0 1.4 1.1 3.2 2.7 3 .2-.1.3-.3.1-.4zm-.5-3.2c-.2-.4-.7-.7-.9-1-.3-.4-.5-.9-.6-1.4-.1-.3-.5-.2-.5.1 0 1 .6 2.7 1.8 2.8.2 0 .3-.3.2-.5zm-.6-3c-.5-.8-1-1.5-1.1-2.5 0-.3-.5-.3-.5 0 0 1 .3 2.1 1.1 2.8.3.2.6 0 .5-.3zm.4-5.7c-.7-.6-1.4-1.3-1.5-2.3 0-.3-.4-.3-.4 0 0 1.1.6 2.4 1.8 2.6.1.1.3-.1.1-.3zm-.2-2.9c-.2-.4-.6-.8-.8-1.2-.2-.4-.4-1-.5-1.5-.1-.3-.5-.2-.5.1 0 1.1.4 2.6 1.5 3 .3.1.4-.3.3-.4zm3.6 17.6c-.4.1-.3.7.1.7s.8 0 1.2.2c.3.1.6.4.9.4.2 0 .3-.2.3-.4-.2-1-1.7-1.1-2.5-.9zm2-2c-.3-.3-.7-.5-1.1-.8-.4-.3-.7-.6-.9-1.1-.2-.3-.5 0-.4.2.4.9 1.2 2 2.2 2.1.3 0 .4-.3.2-.4zm-.3-2.1c-.2-.4-.4-.7-.7-1.1-.3-.4-.7-.8-.9-1.3-.2-.3-.7 0-.5.3.4.8 1 1.9 1.9 2.3 0 .2.2 0 .2-.2zm.1-2.3c-.3-.4-.8-.7-1.1-1.1-.3-.5-.6-1-.6-1.6 0-.4-.6-.4-.6 0 0 .7.1 1.4.5 2 .3.5.9 1.1 1.5 1 .2.1.4-.1.3-.3zm-.8-4c-.1-.4-.4-.7-.6-1-.2-.4-.4-.8-.5-1.2-.1-.3-.7-.3-.6.1.1.8.5 2.2 1.4 2.5.2 0 .4-.2.3-.4zm.3-5.7c-.2-.4-.5-.6-.7-.9-.2-.3-.5-.7-.6-1.1-.1-.3-.5-.2-.5.1.2.8.6 2 1.5 2.3.2.1.4-.2.3-.4zm35.8 12.9c.4 0 .8-.1 1.2-.2s.8 0 1.2.1c.1 0 .2-.1.3-.2v-.2c0-.1-.1-.2-.2-.2-.4-.1-.8-.2-1.3-.1 1.3-.8 2.3-2.6 2.1-3.9 0-.2-.4-.3-.5-.1-.3.7-.5 1.5-1 2.1-.5.7-1.2 1.1-1.8 1.7-.1.1-.1.3 0 .4-.1 0-.1.1-.2.1-.2.2 0 .5.2.5zm.8-4.9c1.1-.3 3.5-2.2 2.3-3.4-.2-.2-.5 0-.4.3.2.6-.5 1.2-.9 1.6L123 154c-.2.1-.1.4.2.3zm1.2-4.4c.6-.5.8-1.3.8-2 0-.4-.5-.4-.6 0-.1.7-.3 1.1-.6 1.7-.1.3.2.5.4.3zm-1-4.4c1.7-.4 2.4-2.7 2.1-4.3-.1-.3-.5-.2-.5.1 0 .7-.2 1.5-.6 2.1-.3.6-.9 1-1.3 1.6-.2.2 0 .6.3.5zm.1-4.1c1.1-.4 1.5-1.9 1.5-2.8 0-.3-.4-.3-.4 0-.1.5-.2 1-.5 1.4-.2.4-.6.7-.8 1.1-.1.1 0 .3.2.3zm.5-4.4c-.1.2.2.4.4.2.7-.7.8-1.7.8-2.6 0-.4-.6-.4-.7 0 .1.9-.3 1.6-.5 2.4zm-5.6 25.5c1.6.2 2.7-1.6 2.7-3 0-.2-.4-.3-.4-.1-.2 1.3-1.3 2.1-2.4 2.7-.2.1-.1.3.1.4zm.7-3.1c1.2-.1 1.8-1.8 1.8-2.8 0-.3-.5-.4-.5-.1-.1.5-.3 1-.6 1.4-.3.4-.7.6-.9 1-.2.2-.1.5.2.5zm.8-3.2c.8-.7 1.1-1.8 1.1-2.8 0-.3-.4-.3-.5 0-.1.9-.6 1.7-1.1 2.5-.1.3.2.5.5.3zm-.7-5.7c1.2-.2 1.8-1.5 1.8-2.6 0-.3-.4-.3-.4 0-.1 1-.8 1.7-1.5 2.3-.3.2-.1.4.1.3zm.3-2.8c1.1-.5 1.6-1.9 1.5-3 0-.3-.5-.4-.5-.1-.1.5-.2 1-.5 1.5-.2.4-.6.8-.8 1.2-.1.2 0 .5.3.4zm-6.4 18.1c0 .2.1.4.3.4.4 0 .6-.2.9-.4.4-.2.8-.2 1.2-.2.4 0 .5-.6.1-.7-.8-.2-2.3-.1-2.5.9zm.7-2.5c1 0 1.8-1.2 2.2-2.1.1-.3-.2-.5-.4-.2-.2.4-.6.8-.9 1.1-.3.3-.8.5-1.1.8-.2.1-.1.5.2.4zm.5-2.2c.9-.4 1.5-1.5 1.9-2.3.2-.3-.3-.6-.5-.3-.3.4-.6.9-.9 1.3-.3.3-.6.6-.7 1.1-.2.1 0 .3.2.2zm-.2-2.2c.6.1 1.2-.6 1.5-1 .4-.6.6-1.3.5-2 0-.4-.6-.4-.6 0 0 .6-.2 1.1-.6 1.6-.3.4-.8.6-1.1 1.1 0 .1.1.3.3.3zm.8-4c.9-.2 1.3-1.7 1.4-2.5 0-.4-.5-.4-.6-.1-.1.4-.3.9-.5 1.2-.2.3-.5.6-.6 1-.1.2.1.4.3.4zm-.3-5.7c.9-.3 1.3-1.5 1.5-2.3.1-.3-.3-.4-.5-.1-.1.4-.4.8-.6 1.1-.2.3-.6.6-.7.9-.1.2.1.5.3.4zm14.9 7.4c-.6-.4-1.3-.6-1.8-1.1-.6-.5-1.1-1.1-1.3-1.8-.1-.3-.5-.2-.5.1.3 1.6 1.8 3.5 3.6 3.2.2.1.2-.2 0-.4zm-1.1-3.7c-.3-.4-.7-.6-1-1-.3-.4-.5-.9-.6-1.4-.1-.3-.6-.2-.5.1.1 1.1.8 2.6 2 2.7.1 0 .2-.3.1-.4zm-.3-3.2c-.2-.4-.6-.7-.9-1.1-.3-.4-.5-.9-.7-1.4-.1-.3-.6-.2-.5.1.2 1 .8 2.2 1.8 2.6.3.2.4 0 .3-.2zm1.1-6.4c-.7-.4-1.4-.7-2-1.3-.6-.6-1.1-1.3-1.4-2.1-.1-.2-.5-.2-.4.1.3 1.6 1.8 3.6 3.6 3.7.4.1.4-.3.2-.4zm-.9-3.7c-.4-.4-1-.6-1.4-1-.4-.5-.7-1.1-.9-1.7-.1-.2-.4-.2-.4.1.1 1.2 1 3.1 2.5 3.1.2 0 .3-.3.2-.5zm-1.4-3.2c-.5-.5-1-1-1.4-1.7-.1-.2-.4 0-.3.2.4.7.9 1.3 1.5 1.7.1.1.3-.1.2-.2zm-.1-5.2c-.1-.3-.3-.5-.5-.7-.1-.2-.3.1-.2.2.2.2.3.4.6.6.1.1.2 0 .1-.1zm6.7 19.9c-.4-.4-.9-.6-1.2-1.1-.3-.5-.5-1.1-.4-1.7 0-.2-.3-.2-.4-.1-.3 1.3.4 3.1 1.9 3.3.1 0 .2-.3.1-.4zm-.1-4.3c-.2-.3-.5-.6-.7-.9-.2-.3-.4-.6-.6-1-.1-.2-.5-.1-.4.2.3.7.7 1.6 1.4 2 .1.2.4-.1.3-.3zm-.1-6.2c-.4-.4-.8-.7-1.1-1.1-.4-.4-.6-1-.8-1.5-.1-.2-.4-.2-.4.1.1 1.2.8 2.6 2.1 3 .2 0 .4-.3.2-.5zm-.7-3.6c-.2-.3-.6-.6-.8-.9-.3-.4-.5-.8-.6-1.2-.1-.3-.5-.2-.5.1.1.9.6 2.1 1.6 2.4.2 0 .4-.2.3-.4zm-1.8-4.7c-.1-.2-.4 0-.3.2.2.4.4.9.7 1.3.1.1.3.1.3-.1-.2-.5-.4-.9-.7-1.4zm6.3 14.8c-.6-.6-1.1-1.2-1.1-2.2 0-.2-.4-.2-.4 0-.1.9.4 2.1 1.3 2.5.2.2.4-.1.2-.3zm.3-3.7c-.2-.4-.5-.7-.8-1.1-.2-.4-.4-.9-.6-1.3-.1-.2-.4-.2-.4.1.1 1 .4 2.2 1.3 2.8.4.1.7-.2.5-.5zm-.1-4.2c-.5-.9-1.1-1.6-1.4-2.6-.1-.3-.5-.1-.4.1.2 1 .7 2.1 1.5 2.7.1.3.4.1.3-.2zm.2-4.9c-.7-.4-1.4-.6-1.9-1.4-.1-.2-.5 0-.4.2.4.8 1.2 1.7 2.2 1.6.2 0 .2-.3.1-.4zm-.3-7.3c-.1-.3-.5-.2-.4.1.4 1.3.1 3.1-1.3 3.7-.2.1-.2.3 0 .4.8.2 1.4-.5 1.7-1.2.4-.9.4-2 0-3zm-.9.1c-.6 0-1.3.2-1.6-.6-.1-.3-.6-.2-.5.2.2.8 1.6 1.7 2.3.8.1-.2 0-.4-.2-.4zm-.9-5.7c-.1-.2-.3-.2-.4 0-.2.5-.5.9-1 .6-.2-.1-.4.3-.2.4.7.3 1.8-.2 1.6-1z" fill="#171714" stroke-width="none" opacity="1" stroke="none"></path></g></g><g id="svga-group-humanbody-back"><path id="SvgjsPath58490" d="M166.5 181.1c-10.9-6.6-27.6-8.4-35-12.1-4.9-2.5-9.1-4.7-8.9-17.8s1.9-42.4 1.9-42.4H75.4s1.6 29.4 1.9 42.4-4.2 15.6-8.9 17.8c-7.4 3.5-24.1 5.4-35 12.1-10.8 6.6-10 18.9-10 18.9v19.7h153.3V200c-.1 0 .7-12.3-10.2-18.9z" fill="#d79468" stroke-width="none" opacity="1" stroke="none"></path></g><g id="svga-group-chinshadow-single"><path id="SvgjsPath58724" d="M124.5 108.9H75.4c.1 1.8 1.6 29.7 1.9 42.3.1 2.6-.1 4.8-.3 6.6 11.9 10.2 23 9 23 9s11.1 1.2 23-8.9c-.3-1.8-.4-4-.4-6.6.2-12.8 1.8-40.6 1.9-42.4z" fill="#b86934" stroke-width="none" opacity="0.65" stroke="none"></path></g><g id="svga-group-humanbody-front"><path id="SvgjsPath58491" d="M78.7 156.8c.5 4.8 1.7 9.4 3.1 13.9.8 2.3 1.6 4.6 2.6 6.9.8 2 1.7 4.2 3.1 5.9.3.4 1 0 .9-.5-.5-2.2-1.6-4.3-2.4-6.4-.9-2.2-1.7-4.4-2.5-6.6-1.5-4.4-2.8-8.9-4.1-13.3-.2-.4-.8-.3-.7.1zm41.3-1c-1.3 8.2-3.9 16.1-5.4 24.2-.1.4.4.5.6.2 3.1-7.7 4.1-16.1 5.1-24.3-.1-.2-.3-.2-.3-.1zm-25.8 11.9c-.9 3.6 1.9 8.6 6.2 7.6.5-.1.4-.8 0-1-1.4-.5-2.9-.9-3.9-2.1-1.1-1.2-1.5-2.9-1.4-4.5 0-.4-.8-.5-.9 0z" fill="#b86934" stroke-width="none" opacity="1" stroke="none"></path><path id="SvgjsPath58492" d="M177.3 219.7c-.1-6.6-.3-13.1-.3-19.7l-.3-.3c.1 0 .1 0 .2.1s.1.2.1.1v-1.4c0-.5-.1-.9-.1-1.4-.1-.9-.3-1.9-.5-2.8-.5-1.8-1.1-3.6-2-5.3-1.7-3.4-4.4-6.2-7.7-8.1-3.6-2.2-7.6-3.8-11.6-5.1-4-1.3-8.1-2.4-12.1-3.5-4-1.2-8.1-2.2-11.8-4.2-1.9-1-3.6-2.1-4.8-3.6-1.2-1.6-1.9-3.5-2.3-5.5-.8-4-.4-8.2-.3-12.4l.7-12.6 1.5-25.2.1-1.4h-1.4c-8.2 0-16.4 0-24.6.1l-24.6.3h-.9l.1.9c.8 11.9 1.6 23.8 2.1 35.7.1 3 .3 6 .2 8.9-.1 2.9-.4 5.9-1.6 8.6-.6 1.3-1.4 2.5-2.4 3.5s-2.3 1.8-3.6 2.4c-2.6 1.3-5.4 2.2-8.3 3-5.8 1.5-11.6 2.8-17.3 4.7-2.8.9-5.7 2-8.4 3.4-1.3.7-2.7 1.4-4 2.4-1.3.9-2.4 1.9-3.5 3.1-2.1 2.3-3.6 5.2-4.5 8.1-.5 1.5-.8 3-1 4.6-.1.8-.1 1.6-.1 2.4v2.3l-.2 17.9v1.3h1.4l38.3.2c12.8.1 25.5.1 38.3 0 12.8-.1 25.6-.1 38.3-.3 12.8-.2 25.6-.5 38.3-.7h.6v-.5zm-77.2-1.6H61.8l-37 .2-.1-16.6v-2.2c0-.7 0-1.4.1-2.1.1-1.4.4-2.8.8-4.2.8-2.7 2.1-5.3 3.9-7.5.9-1.1 2-2.1 3.1-2.9 1.1-.9 2.4-1.6 3.7-2.3 2.6-1.4 5.3-2.5 8.1-3.5 5.6-2 11.4-3.4 17.1-5.1 2.9-.8 5.8-1.7 8.5-3.1 1.3-.7 2.7-1.5 3.8-2.6 1.1-1.1 2-2.4 2.6-3.9 1.2-2.9 1.5-5.9 1.6-8.9 0-3-.1-6-.2-9l-1.3-34.8 23.5.4c7.7.1 15.4.1 23.1.1-.4 7.9-.8 15.9-1.1 23.8-.2 4.2-.2 8.4-.3 12.6 0 4.2-.2 8.5.8 12.8.5 2.1 1.3 4.2 2.8 6 1.4 1.7 3.4 2.9 5.3 3.8 3.9 1.9 8 2.8 12.1 3.8s8.2 2 12.2 3.3c4 1.3 7.9 2.8 11.5 5 3.2 1.9 5.8 4.7 7.5 8 .9 1.6 1.5 3.4 1.9 5.2.2.9.4 1.8.4 2.7.1.5.1.9.1 1.4V200l-.3 19c-12.6-.2-25.1-.5-37.7-.7-12.7-.1-25.5-.1-38.2-.2z" fill="#a9561f" stroke-width="none" opacity="1" stroke="none"></path></g><g id="svga-group-clothes-single"><path id="SvgjsPath58632" d="M179.3 220.1c0-17.5-1.6-26.7-1.6-26.7-3.2-15.2-21.5-18.1-30.1-20.5-2.8-.8-8.2-1.4-8.2-1.4-4.8 5.3-9.9 9.8-15.9 15.4-7.5 7-14.9 13-21.8 18.1-6.4-4-13.8-9.3-21.4-16.1-7.7-6.9-13.1-12.8-17.9-18.8-3.1.5-7.1.9-10.7 1.7-8.7 1.9-26.5 7.6-29.5 21.6 0 0-1.6 9.2-1.6 26.7h158.7z" fill="#4b2824" stroke-width="none" opacity="1" stroke="none"></path><path id="SvgjsPath58633" d="M179.6 210.9c0-3.1-.1-6.1-.3-9.2-.1-1.5-.2-3.1-.3-4.6l-.2-2.3-.1-1.2c0-.4-.2-.8-.3-1.2-.2-.8-.4-1.6-.7-2.3l-.9-2.2-1.2-2.1c-.4-.7-1-1.3-1.5-1.9-2.1-2.4-4.7-4.4-7.5-5.9s-5.7-2.6-8.7-3.6c-3-.9-6-1.7-8.9-2.5-2.9-.8-6.1-.8-9.1-1.7-.5-.1-1 0-1.4.4-5.8 6.3-11.5 11.3-17.8 17.1-6.1 5.6-12.4 11.1-19.1 16.1-3.6-2.2-7.2-4.6-10.6-7.1-3.6-2.6-7.1-5.4-10.5-8.4-3.4-3-6.6-6.1-9.7-9.3-3.1-3.3-5.2-5.8-8-9.3-.1-.1-.3-.2-.5-.2-3.2.6-6.9.8-10 1.5-3.1.6-6.2 1.4-9.2 2.4-6 2.1-11.9 4.9-16.5 9.7-2.3 2.4-4.1 5.2-5.1 8.4l-.4 1.2c-.1.2-.1.4-.2.6l.1.7-.3 2.4c-.2 1.6-.4 3.2-.5 4.7-.6 6.3-.8 12.6-.9 19 0 .8.6 1.4 1.4 1.4l40 .2c13.3 0 26.7-.1 39.9-.2l39.7-.5 19.7-.3 19.5-.4c.1-1.5.1-3.2.1-4.7v-4.7zM23 196.6c.1-.8.2-1.6.3-2.3l.1-.6c0-.2.1-.3.1-.5l.3-1.1c.8-2.8 2.4-5.5 4.4-7.7 1.5-1.6 3.2-3.1 5-4.4 1.1 1.1 2 2.4 2.8 3.7.9 1.5 1.7 3 2.4 4.6 1.4 3.2 2.4 6.5 3.2 9.9.4 1.7.8 3.4 1.1 5.1.3 1.7.6 3.4.9 5.2.5 3.3 1 6.6 1.5 10l-22.8.1c0-5.8.1-11.6.5-17.4-.1-1.4 0-3 .2-4.6zm116.1 22.7-39.7-.5c-13.2-.1-26.3-.2-39.4-.2l-15 .1c.3-3.4.2-6.8 0-10.2-.3-3.5-.8-7.1-1.6-10.6-.4-1.7-.9-3.5-1.5-5.2-.6-1.7-1.3-3.4-2.2-4.9-.8-1.6-1.8-3.1-3-4.5-1-1.2-2.1-2.4-3.4-3.2 3.2-2.2 6.8-3.9 10.4-5.2 2.9-1.1 5.9-1.9 9-2.6 3-.7 6.7-.9 9.6-1.5 2.8 3.4 4.9 5.8 7.9 9 3.1 3.3 6.3 6.4 9.7 9.5 6.7 6.1 13.8 11.6 21.4 16.6.3.2.7.2 1 0 7-5 13.8-10.3 20.2-16.1 3.2-2.9 6.4-5.8 9.4-8.9 2.9-2.8 5.3-4.8 8-7.8 2.7.8 5.7.7 8.4 1.4 3 .8 6 1.4 8.9 2.3 2.9.9 5.7 1.9 8.4 3.3.3.1.5.3.8.4-1.1.8-2.1 1.8-2.9 2.9-1.1 1.4-2.1 2.9-3 4.5-.9 1.6-1.6 3.2-2.2 4.9-.6 1.7-1.1 3.4-1.5 5.2-.8 3.5-1.3 7-1.6 10.6-.2 3.5-.3 7.1 0 10.6l1.5-10.5c.3-1.7.6-3.5.9-5.2.3-1.7.6-3.4 1.1-5.1.8-3.4 1.8-6.7 3.2-9.9.7-1.6 1.5-3.1 2.4-4.6.7-1.2 1.5-2.3 2.4-3.3 2.2 1.2 4.3 2.8 6.1 4.6.5.6 1 1.1 1.4 1.7l1.2 1.8.9 2c.3.7.4 1.4.7 2.1.1.4.2.7.3 1.1l.2 1.1.3 2.3.5 4.6c.3 3 .6 6.1.7 9.2l.5 9.1-40.4-.9zm-4.2-34.6c-3.4 3.3-6.9 6.5-10.4 9.5-7.1 6.1-14.3 11.9-21.9 17.3-4.3-2.5-8.5-5.3-12.5-8.3-4.1-3.1-8-6.3-11.8-9.7-3.8-3.4-7.5-6.9-11.1-10.6-3.6-3.6-7.1-7.4-10.4-11.3 3.2 4 6.5 7.9 10 11.6 3.5 3.7 7.2 7.4 10.9 10.8 3.8 3.5 7.8 6.7 11.8 9.9 4.1 3.1 8.4 6 12.8 8.6.2.1.4.1.5 0 3.8-2.8 7.6-5.6 11.3-8.6 3.7-3 7.3-6 10.8-9.2 3.5-3.1 6.9-6.4 10.3-9.8 3.3-3.4 6.5-6.9 9.5-10.4-3.1 3.5-6.3 6.9-9.8 10.2z" fill="#2c100c" stroke-width="none" opacity="1" stroke="none"></path></g><g id="svga-group-head" transform="matrix(1,0,0,1,0,0)"><g id="svga-group-ears-left-move" transform="matrix(1,0,0,1,0,0)"><g id="svga-group-ears-left" transform="matrix(1,0,0,1,0,0)"><path id="SvgjsPath58642" d="M63 101.3s-1.7-4.6-3.4-7.5-4.3-6.9-5.9-7.9-2.7-.4-2.3 2.3 2.5 11.4 3 14c.6 2.6 1.9 8.4 3.4 12.2 1.5 3.8 2.5 5.5 4 .5s2.4-10.4 1.2-13.6z" fill="#d79468" stroke-width="none" opacity="1" stroke="none"></path><path id="SvgjsPath58643" d="M67.1 106c0 1.6-.8 7.1-2.2 10.6-1.3 1.2-4.7 2.2-4.8 2.1-.1 0-.2 0-.4-.1-.4-.2-.7-.6-.9-1s-.4-.7-.6-1.1c-.3-.7-.6-1.4-.9-2.2-.6-1.5-1-3-1.5-4.6-.9-3.1-1.5-6.2-2-9.4-.6-3.1-1.2-6.2-1.9-9.3l-.5-2.3c-.2-.8-.4-1.6-.3-2.5.1-.5.3-.9.6-1.1s.6-.3 1-.2c.6.1 6.8.8 7.3 1.3 3.4 1.3 7.2 8.5 7.1 19.8zm-8.2-12.6c-.8-1.2-1.6-2.3-2.4-3.5-.8-1.1-1.6-2.3-2.5-3.1-.4-.4-.9-.7-1.4-.8-.5-.1-.9.1-1 .6-.1.6 0 1.4.1 2.2.1.8.3 1.6.4 2.3.6 3.1 1.4 6.2 2.1 9.3.7 3.1 1.5 6.1 2.4 9.1.4 1.5.9 3 1.5 4.3.3.7.6 1.4.9 2 .2.3.3.6.5.9.2.2.3.4.4.5.1 0 .1 0 .3-.1.1-.1.1-.2.2-.3.1-.1.1-.2.2-.4.3-.6.5-1.2.7-1.9.4-1.4.9-2.7 1.2-4.2.4-1.4.7-2.9.8-4.4s.1-3.2-.4-4.6c-1-2.9-2.4-5.6-4-7.9z" fill="#c87d4d" stroke-width="none" opacity="1" stroke="none"></path><path id="SvgjsPath58644" d="M52.1 88.9c3.2 3.5 5.8 9.5 6.2 15.1 0 .4-.3.4-.4.1l-.3-1.5c-.3-.7-.8-.8-1.4-.2.1.4.1.9.2 1.3.1.6.3 1.1.5 1.7.5 1.3 1.2 2.3 1.8 3.5.1.2 0 .6-.2.5-1.5-1.3-3.1-4.8-3-7.3 0-.8.3-1.4.8-1.5.3 0 .6.1.8.4-1.1-4.4-2.7-8-5.2-11.6-.1-.4.1-.7.2-.5z" fill="#b86934" stroke-width="none" opacity="1" stroke="none"></path></g></g><g id="svga-group-ears-right-move" transform="matrix(1,0,0,1,0,0)"><g id="svga-group-ears-right" transform="matrix(1,0,0,1,0,0)"><path id="SvgjsPath58645" d="M137 101.3s1.7-4.6 3.4-7.5 4.3-6.9 5.9-7.9c1.6-1 2.7-.4 2.3 2.3-.5 2.7-2.5 11.4-3 14-.6 2.6-1.9 8.4-3.4 12.2-1.5 3.8-2.5 5.5-4 .5s-2.4-10.4-1.2-13.6z" fill="#d79468" stroke-width="none" opacity="1" stroke="none"></path><path id="SvgjsPath58646" d="M140.1 86.2c.5-.5 6.7-1.2 7.3-1.3.3 0 .7 0 1 .2s.5.7.6 1.1c.1.9-.1 1.8-.3 2.5l-.5 2.3c-.7 3.1-1.3 6.2-1.9 9.3-.6 3.1-1.2 6.3-2 9.4-.4 1.5-.9 3.1-1.5 4.6-.3.7-.6 1.4-.9 2.2-.2.4-.4.7-.6 1.1-.2.3-.5.7-.9 1-.1 0-.2.1-.4.1-.1 0-3.5-1-4.8-2.1-1.4-3.5-2.2-9-2.2-10.6-.2-11.3 3.6-18.5 7.1-19.8zm-3.1 15.1c-.5 1.5-.6 3.1-.4 4.6.1 1.5.4 3 .8 4.4l1.2 4.2c.2.7.4 1.3.7 1.9.1.2.1.3.2.4.1.1.1.2.2.3.1.1.2.2.3.1s.3-.2.4-.5c.2-.3.3-.6.5-.9.3-.6.6-1.4.9-2 .6-1.4 1-2.8 1.5-4.3.9-3 1.6-6 2.4-9.1.8-3.1 1.5-6.2 2.1-9.3.2-.8.3-1.6.4-2.3.1-.8.2-1.6.1-2.2-.1-.6-.5-.8-1-.6-.5.1-1 .4-1.4.8-.9.8-1.7 2-2.5 3.1s-1.6 2.3-2.4 3.5c-1.5 2.3-2.9 5-4 7.9z" fill="#c87d4d" stroke-width="none" opacity="1" stroke="none"></path><path id="SvgjsPath58647" d="M147.9 88.9c-3.2 3.5-5.8 9.5-6.2 15.1 0 .4.3.4.4.1l.3-1.5c.3-.7.8-.8 1.4-.2-.1.4-.1.9-.2 1.3-.1.6-.3 1.1-.5 1.7-.5 1.3-1.2 2.3-1.8 3.5-.1.2 0 .6.2.5 1.5-1.3 3.1-4.8 3-7.3 0-.8-.3-1.4-.8-1.5-.3 0-.6.1-.8.4 1.1-4.4 2.7-8 5.2-11.6.1-.4-.1-.7-.2-.5z" fill="#b86934" stroke-width="none" opacity="1" stroke="none"></path></g></g><g id="svga-group-faceshape-wrap" transform="matrix(1,0,0,1,0,0)"><g id="svga-group-faceshape-single"><path id="SvgjsPath58712" d="M143.2 82v-.3c-1.3-29.9-20.7-46.4-43.2-46.4S58.1 51.8 56.9 81.7v.3c0 3 0 30.2 5.7 41.9C77.7 155 100 153.7 100 153.7s22.3 1.4 37.5-29.8c5.7-11.7 5.7-38.9 5.7-41.9z" fill="#d79468" stroke-width="none" opacity="1" stroke="none"></path><path id="SvgjsPath58713" d="M137.5 123.9c5.7-11.7 5.7-38.9 5.7-41.9v-.3c-1.3-29.9-20.7-46.4-43.2-46.4S58.1 51.8 56.9 81.7v.3c0 3 0 30.2 5.7 41.9C77.7 155 100 153.7 100 153.7s22.3 1.4 37.5-29.8zM87.7 148c-4.2-1.7-8.5-5.5-11.8-8.8l-2.4-2.5-2.2-2.8c-.8-.9-1.4-1.9-2.1-2.9-.6-1-1.3-1.9-2-3l-1.7-3.1c-.6-1-1.2-2.1-1.6-3.1-1-2-1.6-4.3-2.3-6.6-1.2-4.6-2-9.4-2.6-14.2-.6-4.8-1-9.7-1.2-14.5-.1-2.4-.2-4.9 0-7.2.1-1.2.1-2.4.3-3.6l.6-3.6.1-.9.2-.9.5-1.7.5-1.7c.1-.6.4-1.1.6-1.7.4-1.1.8-2.3 1.3-3.4l1.6-3.2c2.3-4.2 5.3-8 8.8-11.1 3.5-3.1 7.6-5.6 12-7.2s9-2.5 13.6-2.7 9.3.3 13.8 1.5c8.9 2.4 17 7.9 22.6 15.7l2 3c.6 1 1.1 2.1 1.7 3.2.6 1.1 1 2.2 1.5 3.3.4 1.1.9 2.2 1.2 3.4l1 3.5c.2 1.2.5 2.4.7 3.6l.3 1.8.2 1.9c.1 1.5.2 3.8.2 5.3-.1 7.1-.6 14.2-1.8 21.2-.6 3.8-1.4 7.5-2.5 11.2-.3.9-.5 1.8-.9 2.7-.4.9-.6 1.8-1 2.6-.7 1.6-1.8 3.2-2.7 4.9-.5.8-.9 1.6-1.5 2.4l-1.6 2.3c-.6.8-1 1.6-1.6 2.3l-1.8 2.1c-1.1 1.5-2.5 2.7-3.7 4.1-.6.7-3.3 3-4.1 3.5 0 0-2.3 1.8-7.3 4.5-1.2.6-2.4 1.2-3.7 1.6-4.3 1.7-9.1 3.7-21.2-1.2z" fill="#a9561f" stroke-width="none" opacity="1" stroke="none"></path></g></g><g id="svga-group-mouth-single-move" transform="matrix(1,0,0,1,0,0)"><g id="svga-group-mouth-single" transform="matrix(1,0,0,1,0,0)"><path id="SvgjsPath58810" d="M105.48 122.03c-2.25.26-3.67 1.47-5.39 3.22-1.68-1.82-3.12-2.77-4.87-3.05-2.04-.11-5.99 1.37-10.41 2.14 2.63.48 4.44.77 7.07.63 3.49-.18 5.3.13 7.81 2.24.18.13.69.15.9-.06.8-.6 1.54-1.01 2.41-1.48 1.54-.85 2.74-1.06 4.06-1.15 3.92.07 5.28.94 8.67.31-3.8-.81-6.7-2.91-10.25-2.8z" fill="#e66638" stroke-width="none" opacity="1" transform="translate(0 2)"></path><path id="SvgjsPath58811" d="M87.19 129.49c-.34 5.89 9.78 2.96 12.68 2.78 3.32-.21 6.74.37 10.02.06 1.84-.17 3.32-1.17 3.21-3.15-.02-.36-.19-1.97-.22-1.57-.28 4.28-5.36 3.53-7.52 3.47a55.82 55.82 0 0 0-5.49.11c-3.47.24-11.26 1.82-12.45-2.79-.06-.26-.21.84-.23 1.09z" fill="#b86934" stroke-width="none" opacity="1" transform="translate(0 2)"></path></g></g><g id="svga-group-eyes-left-move" transform="matrix(1,0,0,1,0,0)"><g id="svga-group-eyes-left" transform="matrix(1,0,0,1,0,0)"><g id="svga-group-eyesback-left"><path id="SvgjsPath58674" d="M88.2 99.8s.1-4-2.3-6.6c-2.4-2.6-6.4-5.6-14.3-2.8 0 0 1.3 3.7 2.8 5.3 1.5 1.5 4.7 3.8 7.6 4.2 3 .3 6.2-.1 6.2-.1z" fill="#ffffff" stroke-width="none" opacity="1"></path></g><g id="svga-group-eyesiriswrapper-left" transform="matrix(1,0,0,1,0,0)"><g id="svga-group-eyesiriscontrol-left" transform="matrix(1,0,0,1,0,0)"><g id="svga-group-eyesiris-left" transform="matrix(1,0,0,1,0,0)"><path id="SvgjsPath58728" d="M80.1 87.8c3.2 0 5.7 2.6 5.7 5.7s-2.6 5.7-5.7 5.7-5.7-2.6-5.7-5.7 2.5-5.7 5.7-5.7z" fill="#ea02f5" stroke-width="none" opacity="1"></path><path id="SvgjsPath58729" d="M80.1 88.1c3 0 5.5 2.4 5.5 5.5 0 3-2.4 5.5-5.5 5.5-3 0-5.5-2.4-5.5-5.5s2.4-5.5 5.5-5.5m0-.6c-3.3 0-6 2.7-6 6s2.7 6 6 6 6-2.7 6-6-2.7-6-6-6z" fill="#cd00d6" stroke-width="none" opacity="1"></path><path id="SvgjsPath58730" d="M77 95.1c0 1.4.6 2.7 1.4 3.6.5.2 1.1.2 1.6.2 3 0 5.5-2.4 5.5-5.5 0-1.1-.3-2.2-.9-3-.7-.4-1.5-.6-2.4-.6-2.9.1-5.2 2.5-5.2 5.3z" fill="#f51cff" stroke-width="none" opacity="1"></path><path id="SvgjsPath58731" d="M80.1 90.6c1.6 0 2.9 1.3 2.9 2.9s-1.3 2.9-2.9 2.9-2.9-1.3-2.9-2.9 1.2-2.9 2.9-2.9z" fill="#000000" stroke-width="none" opacity="1"></path><path id="SvgjsPath58732" d="M78.8 90.4c.8 0 1.5.7 1.5 1.5s-.7 1.5-1.5 1.5-1.5-.7-1.5-1.5.7-1.5 1.5-1.5zm2.9 4.3c.5 0 1 .4 1 1s-.4 1-1 1-1-.4-1-1 .4-1 1-1z" fill="#ffffff" stroke-width="none" opacity="1"></path></g></g></g><g id="svga-group-eyesfront-left"><path id="SvgjsPath58682" d="M69.4 94.6c0 6.4 4.7 11.5 10.6 11.5s10.6-5.2 10.6-11.5S85.9 83.1 80 83.1s-10.6 5.1-10.6 11.5zm2.2-4.2c7.9-2.9 12 .2 14.3 2.8 2.4 2.6 2.3 6.6 2.3 6.6s-3.2.5-6.2.1c-2.9-.4-6.1-2.7-7.6-4.2s-2.8-5.3-2.8-5.3z" fill="#d79468" stroke-width="none" opacity="1" stroke="none"></path><path id="SvgjsPath58683" d="M71.2 90.6c2.4 7.1 9.7 11.3 17.1 9.5.2-.1.2-.3.1-.4.8-3.5-1.7-7.2-4.5-9.1-3.3-2.1-9-2.9-12.4-.7-.1.1-.1.2-.1.3-.2.1-.3.2-.2.4zm.7-.2c1.6-.2 3.2-.8 4.9-.8 2.1 0 4.2.4 6 1.4 3.4 1.9 4.6 5 5.2 8.5-3.6 0-7 .1-10.2-1.7-2.8-1.6-4.8-4.3-5.9-7.4z" fill="#2e0914" stroke-width="none" opacity="1" stroke="none"></path></g></g></g><g id="svga-group-eyes-right-move" transform="matrix(1,0,0,1,0,0)"><g id="svga-group-eyes-right" transform="matrix(1,0,0,1,0,0)"><g id="svga-group-eyesback-right"><path id="SvgjsPath58675" d="M111.8 99.8s-.1-4 2.3-6.6c2.4-2.6 6.4-5.6 14.3-2.8 0 0-1.3 3.7-2.8 5.3-1.5 1.5-4.7 3.8-7.6 4.2-3 .3-6.2-.1-6.2-.1z" fill="#ffffff" stroke-width="none" opacity="1"></path></g><g id="svga-group-eyesiriswrapper-right" transform="matrix(1,0,0,1,0,0)"><g id="svga-group-eyesiriscontrol-right" transform="matrix(1,0,0,1,0,0)"><g id="svga-group-eyesiris-right" transform="matrix(1,0,0,1,0,0)"><path id="SvgjsPath58733" d="M119.9 87.8c3.2 0 5.7 2.6 5.7 5.7s-2.6 5.7-5.7 5.7-5.7-2.6-5.7-5.7 2.6-5.7 5.7-5.7z" fill="#ea02f5" stroke-width="none" opacity="1"></path><path id="SvgjsPath58734" d="M119.9 88.1c3 0 5.5 2.4 5.5 5.5 0 3-2.4 5.5-5.5 5.5s-5.5-2.4-5.5-5.5c.1-3.1 2.5-5.5 5.5-5.5m0-.6c-3.3 0-6 2.7-6 6s2.7 6 6 6 6-2.7 6-6-2.6-6-6-6z" fill="#cd00d6" stroke-width="none" opacity="1"></path><path id="SvgjsPath58735" d="M116.9 95.1c0 1.4.6 2.7 1.4 3.6.5.2 1.1.2 1.6.2 3 0 5.5-2.4 5.5-5.5 0-1.1-.3-2.2-.9-3-.7-.4-1.5-.6-2.4-.6-2.9.1-5.2 2.5-5.2 5.3z" fill="#f51cff" stroke-width="none" opacity="1"></path><path id="SvgjsPath58736" d="M119.9 90.6c1.6 0 2.9 1.3 2.9 2.9s-1.3 2.9-2.9 2.9-2.9-1.3-2.9-2.9 1.3-2.9 2.9-2.9z" fill="#000000" stroke-width="none" opacity="1"></path><path id="SvgjsPath58737" d="M118.7 90.4c.8 0 1.5.7 1.5 1.5s-.7 1.5-1.5 1.5-1.5-.7-1.5-1.5.7-1.5 1.5-1.5zm2.8 4.3c.5 0 1 .4 1 1s-.4 1-1 1-1-.4-1-1 .5-1 1-1z" fill="#ffffff" stroke-width="none" opacity="1"></path></g></g></g><g id="svga-group-eyesfront-right"><path id="SvgjsPath58684" d="M120 83.1c-5.9 0-10.6 5.2-10.6 11.5s4.7 11.5 10.6 11.5 10.6-5.2 10.6-11.5-4.8-11.5-10.6-11.5zm5.6 12.6c-1.5 1.5-4.7 3.8-7.6 4.2-2.9.4-6.2-.1-6.2-.1s-.1-4 2.3-6.6c2.4-2.6 6.4-5.6 14.3-2.8 0 0-1.3 3.7-2.8 5.3z" fill="#d79468" stroke-width="none" opacity="1" stroke="none"></path><path id="SvgjsPath58687" d="M128.7 90.2c0-.1 0-.2-.1-.3-3.4-2.2-9.2-1.4-12.4.7-2.8 1.8-5.4 5.6-4.5 9.1-.1.1-.1.4.1.4 7.4 1.7 14.7-2.4 17.1-9.5 0-.2-.1-.3-.2-.4zm-6.5 7.7c-3.2 1.9-6.6 1.8-10.2 1.7.6-3.6 1.8-6.7 5.2-8.5 1.8-1 3.9-1.5 6-1.4 1.7 0 3.2.6 4.9.8-1.1 3-3.1 5.7-5.9 7.4z" fill="#2e0914" stroke-width="none" opacity="1" stroke="none"></path></g></g></g><g id="svga-group-facehighlight-single"></g><g id="svga-group-eyebrows-left-move" transform="matrix(1,0,0,1,0,0)"><g id="svga-group-eyebrows-left-rotate" transform="matrix(1,0,0,1,0,0)"><g id="svga-group-eyebrows-left" transform="matrix(1,0,0,1,0,0)"><path id="SvgjsPath58608" d="M67 82.5c.1-.3.3-.6.5-.8.1-.2.3-.5.5-.7.2-.2.4-.4.7-.6.5-.9 1.7-1.6 2.5-2.1.9-.5 1.8-.9 2.9-.9 1-.2 2.1-.2 2.9.2.4 0 .7.1 1 .3 1.1-.1 2.3.2 3.3.4 1.4.3 2.8.6 4.1 1.2 1.4 0 2.8.1 4.1.5h.2c.1 0 .2.1.2.1h.1c.1 0 .2.1.3.2.1.1 0 .3 0 .4v.1c0 .2 0 .4-.1.6 0 .6-.1 1.1-.5 1.6 0 .1 0 .2-.1.3-.1.5-.2 1.1-.7 1.4-.2.2-.5.3-.8.3-.1 0-.2 0-.3-.1h-.6c-.6.2-1.4 0-1.9-.1-.6-.1-1.2-.3-1.7-.6-1.8-.3-3.5-.8-5.3-1.2-1.6-.4-4-.4-5.4-1.3-.7.1-1.3.2-2 .2-.3 0-.7.1-1.1 0-.2 0-.5 0-.7-.2 0 0-.1 0-.1-.1h-.1l-.4.4c-.3.3-.7.7-1.2.8-.1.2-.3 0-.3-.3z" fill="#080806" stroke-width="none" opacity="1"></path><path id="SvgjsPath58609" d="M87.7 83c-.1-.6-.2-1.2-.4-1.7 0-.2.2-.3.3-.1.7 1 .9 2.8.2 3.9-.1.2-.3.1-.3-.1.1-.8.2-1.4.2-2zm-3.4-3.2c1.3.8 2.1 2.6 2.1 4 0 .2-.3.3-.3.1-.2-.7-.4-1.3-.7-1.9-.3-.7-.9-1.2-1.3-1.9-.3-.2 0-.4.2-.3zm-3.3-.7c2.2.8 3.8 3.2 4.2 5.3 0 .2-.2.2-.3.1-.4-1-.9-2-1.7-2.8-.7-.9-1.6-1.4-2.5-2.2-.2-.1.1-.5.3-.4zm-4.9-.8c2.4.6 4.8 2.6 5.8 4.7.1.2-.3.4-.4.2-.8-1-1.6-1.9-2.6-2.7-.9-.7-2-1.2-3-1.8-.2-.1-.1-.4.2-.4zM67.4 82c1.6-1.8 3.8-4.3 6.5-4 .2 0 .2.3 0 .3-2.6.2-4.3 2.5-6.3 3.9-.2.1-.4-.1-.2-.2z" fill="#171714" stroke-width="none" opacity="1"></path><path id="SvgjsPath58610" d="M90.9 80.6c-.1-.3-.5-.3-.6 0-.3 1.1-.3 2.4-1.2 3.3-.6.7-1.5.8-2.4.7.3-1.5.2-3.7-.8-4.9-.2-.2-.5-.1-.4.2 0 .8.4 1.6.5 2.4.1.8.2 1.5.2 2.3-.1 0-.2 0-.3-.1-.3-2-1.3-4.1-2.8-5.5 2.3.5 4.6.9 6.9 1.1.1 0 .2-.2.1-.2-2.6-.9-5.3-1.4-8-2-2.4-.5-5.1-1.4-7.6-1.5-2.1-.1-3.6.9-5 2.2-1.5 1.4-3.1 3.1-4.1 4.9l-.2.2c-.1.1-.2.3-.1.4 0 0 0 .1-.1.1-.2.4.3.7.6.4.1 0 .2 0 .3-.1 1.4-.7 2.5-1.4 4.1-1.6 1.3-.2 2.7-.1 4 .1 2.9.4 5.6 1.3 8.3 2.1 2.1.6 4.9 1.7 6.9.2 1.7-1 1.9-3.1 1.7-4.7zm-13.4 1.3c-.5-.1-1.1-.2-1.7-.3.1-1.1-.3-2.3-.8-3.3.7.6 1.4 1.2 2 1.9.6.6.9 1.4 1.5 2-.4-.1-.7-.2-1-.3zM70 79.5c1.2-1.1 2.5-1.7 4-1.9.2.8.6 1.6.7 2.4l.3 1.5c-.3 0-.7-.1-1-.1-.5-.9-1.3-1.8-2.3-2.1-.2-.1-.3.2-.2.4.4.4.9.8 1.3 1.2.1.2.2.3.4.5-1.9-.1-3.8.1-5.4.8.6-1 1.3-1.9 2.2-2.7zm15.2 4.8c-.2-.1-.4-.1-.6-.2-.4-.1-.9-.3-1.3-.4-.8-1.8-2.1-3.6-3.7-4.8-.2-.1-.4.1-.3.2 1.2 1.4 2.2 2.9 3.3 4.4-1.1-.4-2.2-.7-3.2-1.1-.2-1.1-1.2-2.2-1.9-3-.7-.7-1.5-1.4-2.4-1.9.4 0 .8.1 1.3.1 2 .3 4 .8 6 1.2v.1c.7 1.1 1.5 2.2 2.1 3.3.2.7.4 1.4.7 2.1z" fill="#000000" stroke-width="none" opacity="1"></path></g></g></g><g id="svga-group-eyebrows-right-move" transform="matrix(1,0,0,1,0,0)"><g id="svga-group-eyebrows-right-rotate" transform="matrix(1,0,0,1,0,0)"><g id="svga-group-eyebrows-right" transform="matrix(1,0,0,1,0,0)"><path id="SvgjsPath58611" d="M133 82.5c-.1-.3-.3-.6-.5-.8-.1-.2-.3-.5-.5-.7-.2-.2-.4-.4-.7-.6-.5-.9-1.7-1.6-2.5-2.1-.9-.5-1.8-.9-2.9-.9-1-.2-2.1-.2-2.9.2-.4 0-.7.1-1 .3-1.1-.1-2.3.2-3.3.4-1.4.3-2.8.6-4.1 1.2-1.4 0-2.8.1-4.1.5h-.2c-.1 0-.2.1-.2.1h-.1c-.1 0-.2.1-.3.2-.1.1 0 .3 0 .4v.1c0 .2 0 .4.1.6 0 .6.1 1.1.5 1.6 0 .1 0 .2.1.3.1.5.2 1.1.7 1.4.2.2.5.3.8.3.1 0 .2 0 .3-.1h.6c.6.2 1.4 0 1.9-.1.6-.1 1.2-.3 1.7-.6 1.8-.3 3.5-.8 5.3-1.2 1.6-.4 4-.4 5.4-1.3.7.1 1.4.2 2 .2.3 0 .7.1 1.1 0 .2 0 .5 0 .7-.2 0 0 .1 0 .1-.1h.1l.4.4c.3.3.7.7 1.2.8.1.2.3 0 .3-.3z" fill="#080806" stroke-width="none" opacity="1"></path><path id="SvgjsPath58612" d="M112.3 83c.1-.6.2-1.2.4-1.7 0-.2-.2-.3-.3-.1-.7 1-.9 2.8-.2 3.9.1.2.3.1.3-.1-.1-.8-.2-1.4-.2-2zm3.4-3.2c-1.3.8-2.1 2.6-2.1 4 0 .2.3.3.3.1.2-.7.4-1.3.7-1.9.3-.7.9-1.2 1.3-1.9.3-.2 0-.4-.2-.3zm3.3-.7c-2.2.8-3.8 3.2-4.2 5.3 0 .2.2.2.3.1.4-1 .9-2 1.7-2.8.7-.9 1.6-1.4 2.5-2.2.2-.1-.1-.5-.3-.4zm4.9-.8c-2.4.6-4.8 2.6-5.8 4.7-.1.2.3.4.4.2.8-1 1.6-1.9 2.6-2.7.9-.7 2-1.2 3-1.8.2-.1.1-.4-.2-.4zm8.7 3.7c-1.6-1.8-3.8-4.3-6.5-4-.2 0-.2.3 0 .3 2.6.2 4.3 2.5 6.3 3.9.2.1.4-.1.2-.2z" fill="#171714" stroke-width="none" opacity="1"></path><path id="SvgjsPath58613" d="M110.6 85.3c2 1.5 4.8.4 6.9-.2 2.8-.8 5.5-1.8 8.3-2.1 1.3-.2 2.7-.3 4-.1 1.6.2 2.7.9 4.1 1.6.1.1.2.1.3.1.3.3.8 0 .6-.4 0 0 0-.1-.1-.1 0-.1 0-.3-.1-.4l-.2-.2c-1-1.8-2.6-3.5-4.1-4.9-1.4-1.3-2.9-2.3-5-2.2-2.5.1-5.2 1-7.6 1.5-2.7.6-5.4 1.1-8 2-.2.1-.1.2.1.2 2.3-.2 4.6-.6 6.9-1.1-1.5 1.4-2.5 3.5-2.8 5.5-.1 0-.2 0-.3.1.1-.8.1-1.5.2-2.3.1-.8.5-1.6.5-2.4 0-.2-.3-.3-.4-.2-1 1.2-1.1 3.4-.8 4.9-.9.1-1.7 0-2.4-.7-.8-.9-.9-2.2-1.2-3.4-.1-.3-.5-.3-.6 0 0 1.7.2 3.8 1.7 4.8zm10.9-3.2c.5-.6.9-1.4 1.5-2 .6-.7 1.3-1.3 2-1.9-.5 1-.9 2.3-.8 3.3-.6.1-1.2.2-1.7.3-.3.2-.6.3-1 .3zm10.8 0c-1.6-.7-3.6-.9-5.4-.8.1-.2.2-.3.4-.5.4-.5.9-.8 1.3-1.2.1-.1.1-.4-.2-.4-1 .3-1.8 1.2-2.3 2.1-.3 0-.7.1-1 .1l.3-1.5c.2-.8.5-1.6.7-2.4 1.4.2 2.7.8 4 1.9.8.9 1.5 1.8 2.2 2.7zm-16.7.2c.6-1.2 1.4-2.2 2.1-3.3v-.1c2-.4 4-.9 6-1.2.4-.1.9-.1 1.3-.1-.9.5-1.7 1.2-2.4 1.9-.7.8-1.7 1.9-1.9 3-1.1.3-2.2.7-3.2 1.1 1-1.5 2.1-2.9 3.3-4.4.1-.2-.1-.3-.3-.2-1.6 1.2-2.9 3-3.7 4.8-.4.1-.9.3-1.3.4-.2.1-.4.1-.6.2.2-.8.4-1.5.7-2.1z" fill="#000000" stroke-width="none" opacity="1"></path></g></g></g><g id="svga-group-beardwrap" transform="matrix(1,0,0,1,0,0)"><g id="svga-group-beard-single-move" transform="matrix(1,0,0,1,0,0)"><g id="svga-group-beard-single" transform="matrix(1,0,0,1,0,0)"><path id="SvgjsPath58894" d="M143.3 88.3c-.4-1.3-2.9-2.1-3.2.2-1.5 10.8-5.7 31.9-11.1 35.3-1.3.6-2.2 1.4-3.8 1.6 1-.4 1.8-1 2.6-1.6 1.9-1.3 6.4-5.2 2.2-9.9-3.2-3.6-6.2 1.5-6.2 1.5s1-.9 2.9-.6c3 .4 1.6 4.5-2.7 5.2s-4.6-3-11.2-2.7c-6.7.4-12.4 2.3-12.4 2.3s-5.3-1.9-12-2.3c-6.7-.4-6.8 3.4-11.2 2.7-4.4-.8-5.8-4.8-2.7-5.2 1.9-.3 2.9.6 2.9.6s-3-5.1-6.2-1.5c-4.2 4.7.3 8.6 2.2 9.9.5.3.9.7 1.4 1-1.7 0-4.6-1.6-5.9-3.5-1.9-2.8-6.1-14-7.2-19.5-.7-3.5-1.5-13.1-1.7-14.1s-2.8-.6-3.4.6-2.4 21.3-2.4 21.3c-.3 7.3-.9 16.5 2.1 22.1 1.8 3.9 10.5 15.7 10.5 15.7l-.6-2.1c4.8 4.6 15.2 12.2 15.2 12.2l-.2-1.3C84.7 159 98 167.5 98 167.5l.2-1.3 2.1 1.5s4.9-.6 7.8-2.7 10.5-8.2 10.5-8.2l.2 1.5c4.6-4 11.2-10.8 11.2-10.8l-.6 2.9s13-13.9 14.6-18.5c1.3-3.7 2.3-8.9 2-17.7-.7-12.7-2.4-24.5-2.7-25.9zm-25.1 44.6c-1.1 1.3-11 11-11.4 10.5-.4-.6-1.1-5.3-1.1-5.3-1.7.6-12.9-.2-12.9-.2 0 1.1-1.1 5.5-1.1 5.5l-10.7-11s0-4.3-.3-6.2c.3 0 .5 0 .8-.1 4.8-.4 15.1-.7 19-1.9 3.7 1.1 13.4 1.5 18.4 1.8 0 1.5.2 5.8-.7 6.9z" fill="#080806" stroke-width="none" opacity="1"></path><path id="SvgjsPath58895" d="M56.1 98.9c.3-2.6.5-5.3.8-7.9 0-.2-.1-.2-.2-.2l.3-2.7c0-.2-.3-.2-.3 0-.2 1.7-.4 3.3-.5 4.9v.1c-.3 1.9-.5 3.8-.4 5.8-.1.2.3.2.3 0zm-.5 8c.2-2.9.2-5.8.3-8.7 0-.2-.3-.2-.3 0-.1 2.9-.3 5.8-.3 8.7 0 .2.3.2.3 0zm-1.9 3.8c-.3 4.7-.2 9.7.6 14.3 0 .1.2.1.2 0-.1-4.8-.4-9.6-.5-14.3-.1-.2-.3-.1-.3 0zm1.6-4.3c-.2.8-.3 1.7-.5 2.5.1-2.7.2-5.4.4-8.2 0-.2-.3-.2-.3-.1-.8 4.3-1.1 8.7-.7 13-.2 2.6-.1 5.1.3 7.6 0 .2.4.2.4-.1-.1-5-.1-9.9.6-14.9.2.1-.1.1-.2.2zm3.9 29.1v-.1c0-.1-.1-.1-.1-.2-.9-2.1-1.6-4.2-2.2-6.4.1.2.4.1.3-.1-1-4.8-1.7-9.4-1.6-14.3 0-.2-.2-.2-.3 0-.3 4-.1 8.1.9 12-.1 0-.3 0-.3.2.2 1.9.6 3.9 1.2 5.7-.8-1.5-1.5-3-2-4.8 0-.2-.3-.1-.3 0-.1-.9-.2-1.8-.3-2.6 0-.2-.2-.2-.3 0-.1 2.1.2 4.7 1.1 6.6 0 .1.2 0 .2-.1-.2-1-.5-2-.6-3 0-.2 0-.3-.1-.5.4 2.4 1.5 5 3.1 6.8.4 1 .9 1.9 1.5 2.9.1.2.5 0 .4-.2-.1-.6-.4-1.3-.6-1.9zm.4-6c0-.2-.3-.2-.3 0-.3 4.4.6 9.1 3.3 12.7.2.3.6 0 .5-.3-2.2-3.9-3.5-7.8-3.5-12.4zm2.8 6.8c-.1-.3-.5-.2-.5.1.6 4.1 2.2 8.1 5.2 11 .2.2.5-.1.3-.3-2.2-3.3-4.1-6.7-5-10.8zm2.4 3.8c-.1-.3-.6 0-.4.2 2.1 4.4 5.1 8.5 9 11.5.2.1.4-.1.2-.3-3.5-3.4-6.5-7-8.8-11.4zm5.8 5.3c-.2-.2-.5 0-.4.2 2.7 4 5.7 7.9 9.7 10.8.2.1.4-.2.2-.3-3.2-3.5-6.6-6.8-9.5-10.7zm17.5 14c-.1-.1-.1-.1-.2 0-.7-1.1-1.8-2.1-2.8-3-.2-.2-.6.1-.3.3 1.1 1.1 1.9 2.4 3 3.4.1.1.3.1.3-.1 1.1.9 2.2 1.9 3.3 2.8-3.1-2.2-6.3-4.3-9.4-6.5l.9.6c.2.1.5-.2.3-.4-2.4-2.2-4.9-4.1-7.1-6.6-.1-.2-.4.1-.3.2 1.4 1.8 3 3.7 4.9 5.2-.1-.1-.2-.1-.2-.2-.2-.1-.4.1-.2.2 3.7 3.1 7.6 6.1 11.9 8.4.2.1.3 0 .3-.2 1.9 1.5 3.8 2.9 5.8 4 .2.1.5-.2.3-.4-3.3-2.6-7.1-5-10.5-7.7zm9.2 5.5-1.6-1.8c.2.1.3.2.5.3.2.1.4-.1.2-.3-.6-.7-1.4-1.4-2.1-2.1-.4-.4-.8-.8-1.1-1.3l.8.8c.5.5 1 1.1 1.6 1.6.2.1.4 0 .3-.2-.9-1.2-2.1-2.2-3.1-3.2-.1-.1-.3 0-.3.1 0-.1-.1-.1-.1-.1-.1-.2-.4 0-.4.1-1-1.2-2.1-2.3-3.2-3.4-.2-.2-.4.1-.2.2 1.6 1.9 3.1 3.9 4.9 5.6.1.1.2 0 .3-.1.4.5.9 1 1.4 1.5-.2 0-.4.3-.2.6l2 2.2c.6.7 1.2 1.4 1.9 2 .2.2.5-.2.4-.4-.7-.8-1.4-1.4-2-2.1zm1.5-.2c-.2-.2-.6.1-.4.4.3.4.6.7 1 1 .2.1.3-.1.2-.2-.1-.4-.5-.8-.8-1.2zm-40.2-65c.2-2.3.2-4.6.2-6.9 0-.2-.3-.2-.3 0-.2 2.3-.3 4.6-.2 6.9 0 .2.3.2.3 0zm.9 8.6c.3-2.9.4-5.8.2-8.7 0-.2-.3-.2-.4 0-.3 2.9-.3 5.8-.2 8.7.1.2.4.2.4 0zm.3 6.5c.6-2.9.9-6.1 1.2-9.1 0-.2-.2-.2-.3 0-.6 3-1.1 6-1.3 9-.1.3.3.3.4.1zm1.3 4.9c.3-2.6.3-5.2.5-7.8 0-.2-.3-.2-.3 0-.2 2.6-.5 5.2-.5 7.8 0 .2.3.2.3 0zm.3 3.4c-.1 2.8-.1 5.7.3 8.4 0 .2.3.1.3 0-.1-2.8-.3-5.6-.2-8.4 0-.2-.4-.2-.4 0zm2.5 14.4c-.6-3.5-1-6.8-.7-10.3 0-.3-.4-.3-.5 0-.4 3.5-.4 7.1.7 10.4.1.3.6.2.5-.1zm2.9 4.4c-.8-2.7-1.6-5.4-2-8.1 0-.2-.4-.2-.4.1.3 2.8.9 5.6 2.1 8.2.1.1.4 0 .3-.2zm2.6 2.2c.1.2.4.1.4-.2-.7-2.1-1.7-4-2.3-6.1-.1-.3-.6-.2-.5.1.5 2.2 1.2 4.4 2.4 6.2zm3.3 1.4c.3.9.7 1.6 1.2 2.3.1.2.4.1.4-.1-.5-2-1.6-3.9-2.2-5.9-.1-.3-.5-.2-.4.1.2.8.4 1.6.6 2.5-.6-1.2-1.3-2.4-1.7-3.8-.1-.3-.6-.2-.5.1.5 1.6 1.2 3.4 2.3 4.8.1.1.2.1.3 0zm14.1 10.9c.2.1.4-.1.2-.2-1.5-1.7-3.2-3.4-4.7-5.1-.2-.3-.5-.7-.7-1-.2-.3-.6 0-.4.2.9 1.7 1.9 3.6 3.5 4.9.2.1.5 0 .3-.3-.1-.2-.2-.4-.4-.5.8.8 1.5 1.4 2.2 2zm2.2 1.2s.1 0 0 0c.9 1 1.8 2 2.8 2.8.1.1.3-.1.2-.2-1.6-1.7-3.2-3.3-4.5-5.1-.1-.1-.2-.1-.2 0-.1-.1-.2-.3-.3-.4-.2-.2-.4.1-.3.3.7.8 1.4 1.8 2.3 2.6zm8.8 5c-.2-.2-.5 0-.5.2l-.1-.1c-.5-.6-1.1-1.1-1.6-1.7-.1-.1-.4.1-.3.2.4.6.8 1.2 1.3 1.7.4.5.7 1.2 1.3 1.4.1 0 .2-.1.2-.1 0-.1-.1-.2-.1-.3l.7.7c.4.5.8 1.1 1.3 1.6.2.2.4 0 .3-.3-.4-1.3-1.5-2.4-2.5-3.3zm44.5-75.1c-.1-.2-.4 0-.4.1 1.1 2.3 1.8 4.6 2.3 7-.1-.1-.4 0-.3.1.4 4.8.6 9.7.9 14.6-.5-2.1-1-4.2-1.7-6.3-.1-.2-.5-.1-.4.1 1.9 6.5 3 13 3 19.8 0 .2.5.2.5-.1.1-4-.3-8-1.1-11.9.1 0 .1-.1.1-.1.4-4.4.1-8.8-.5-13.1.1 0 .2 0 .2-.1.1-3.5-.8-6.9-2.6-10.1zm1.1 43c-1.1 2.8-2.6 5.2-4.3 7.7-.2.2.2.5.4.3 2.2-2.1 3.6-5 4.3-7.9.1-.3-.3-.3-.4-.1zm.9-18c0-.2-.4-.2-.4 0 .5 5.3.5 10.6.8 15.9-.1.8-.2 1.6-.5 2.5-.4 1.4-1.1 2.6-1.9 3.9-.1.1-.1.2-.1.3-.1.2.1.4.3.2 1.1-1.4 2.1-3.3 2.6-5.2.1 0 .2-.1.2-.2.5-5.8-.2-11.8-1-17.4zm-11 31.3c-.9 2.2-2.3 4.1-3.8 5.9-.1.1.1.3.2.2 1.9-1.6 3.1-3.6 4-5.9.1-.3-.3-.5-.4-.2zm-3 1.7c-2.1 2.8-4.3 5.4-6.7 7.9.2-.4.4-.9.6-1.4.1-.2-.3-.4-.4-.1-.6 1.2-1.3 2.4-2.1 3.4-.4.4-.9.9-1.3 1.4-.1.1-.1.2 0 .3-.8.9-1.8 1.7-2.7 2.5-.1.1 0 .3.2.2 1.5-.8 2.8-2 3.9-3.3 3.7-2.8 7-6.6 9.1-10.6.1-.3-.4-.6-.6-.3zm-10.5 9c-2.1 2.8-4.5 5.3-6.8 7.9-.2.2.1.6.3.4 2.8-2.1 5.2-5.1 7-8 .2-.4-.3-.6-.5-.3zm-4.8 5.1c.3-.3-.2-.7-.4-.4-1.9 1.9-4 3.5-6.1 5.1.4-.5.9-1 1.3-1.5.1-.2-.1-.4-.2-.2-1.9 1.8-4 3.2-6 4.8-.2.2.1.4.3.3 1.2-.5 2.2-1.2 3.2-2 .1.1.2.1.3.1 2.8-1.4 5.4-3.8 7.6-6.2zm-10.4 5.7c-1.3.7-2.9 1.6-3.8 2.9-.1.2.1.4.3.3 1.3-.8 2.3-2 3.7-2.8.2-.1 0-.5-.2-.4zm-3.2 1.3c.1-.2-.2-.3-.3-.2-.2.3-.4.5-.4.8 0 .1.1.2.2.1.2-.1.3-.4.5-.7zm-24.9-17.2c-1.1-1.7-2.2-3.3-2.7-5.3-.1-.2-.4-.1-.3.1.5 2 1.3 4 2.8 5.4.1.2.3 0 .2-.2zM79 151c-.6-1.5-1.8-2.9-2.7-4.2-.2-.2-.5 0-.4.2.9 1.4 1.7 3 2.8 4.2.1.1.4 0 .3-.2zm2 1.2c-.6-1.7-1.8-3.3-2.6-5-.1-.2-.6-.1-.4.2.7 1.7 1.4 3.7 2.7 5 .1.1.4 0 .3-.2zm2.2 1.9c-.7-1.6-1.9-3.1-2.6-4.7-.1-.3-.7-.1-.5.2.7 1.6 1.5 3.5 2.8 4.8.2.2.4 0 .3-.3zm17.3 9.2c.1.5.3.9.4 1.4.1.4.2.9.5 1.3.2.2.6.2.6-.2s-.2-.9-.4-1.3c-.2-.5-.3-.9-.5-1.4-.2-.3-.7-.2-.6.2zm-30.8-32.2c-.2-1.6-.5-3.1-.9-4.7 0-.1-.2-.1-.2 0 .2 1.6.5 3.1.8 4.7.2.1.3.1.3 0zm1.5 3.3c-.4-1.7-.8-3.4-.9-5.2 0-.2-.3-.2-.3 0 .1 1.8.3 3.6.9 5.3.1.1.3.1.3-.1zm1.7 3.2c-.2-1.8-.6-3.6-1-5.4 0-.2-.3-.1-.3.1.3 1.8.5 3.6 1 5.4 0 .1.3 0 .3-.1zm.3-2.2c.2 1.8.7 3.5 1.7 5 .1.1.3 0 .2-.1-.8-1.6-1.3-3.2-1.6-4.9 0-.2-.3-.2-.3 0zm1.4 1.2c.4 1.9 1 3.8 2.2 5.4.1.1.3 0 .2-.1-.8-1.8-1.6-3.5-2-5.4-.1-.3-.4-.2-.4.1zm1.9 1.8c.7 2.1 1.5 4.4 2.8 6.2.1.1.4.1.3-.1-.9-2.1-1.9-4-2.7-6.2 0-.3-.5-.2-.4.1zm2.6 3.5c.6 1.3 1.1 2.7 1.9 3.8.1.2.4.1.3-.1-.4-1.4-1.2-2.7-1.8-3.9-.2-.3-.6-.1-.4.2zm1.7 1.6c.6 1.7 1.3 3.5 2.4 4.9.2.2.4-.1.3-.2-.7-1.6-1.6-3.1-2.3-4.7 0-.4-.4-.3-.4 0zm2 2.9c.9 1.7 1.9 3.5 3.2 4.8.2.1.4 0 .3-.2-1-1.6-2.2-3.1-3.2-4.8-.2-.2-.4 0-.3.2zm5.3 5.6c-.4-.9-1.2-1.8-1.7-2.7-.1-.1-.3 0-.2.1.6.9 1.1 1.9 1.7 2.7 0 .2.2 0 .2-.1zm2.2-4.4c0 2.5.7 5 2.3 6.9.2.2.4-.1.3-.2-1.1-2.2-1.9-4.2-2.2-6.6 0-.3-.4-.3-.4-.1zm5.7 10.9c-.9-2.1-2-4.1-2.8-6.3-.1-.2-.4-.1-.3.1.7 2.2 1.5 4.5 2.8 6.4.1.2.4.1.3-.2zm2.8 3.7c-1.1-2.1-2.3-4-3.1-6.3-.1-.3-.6-.2-.5.1.6 2.3 1.5 4.7 3.2 6.4.3.3.6.1.4-.2zm-4.9-16.1c-.1-2.4-.3-4.7-.3-7.1 0-.2-.3-.2-.4 0-.2 2.4-.3 4.8.2 7.1.1.4.5.3.5 0zm.3-2.7c-.5 2.5-.4 5.2.7 7.5.1.2.4.1.4-.2-.6-2.5-1-4.8-.7-7.3.1-.2-.3-.3-.4 0zm2.6 9.9c-.1-1.6-.4-3.1-.6-4.7 0-.3-.4-.3-.4 0 .1 1.6.1 3.2.6 4.7 0 .3.4.3.4 0zm6 6.8c0 .1.2.1.2 0 .1-1.6-.1-3.1-.2-4.7 0-.1-.2-.2-.3-.1v-.4c0-.1-.1 0-.1 0 .1.2 0 .4-.1.6 0 .1.1.1.1.1.1-.1.1-.2.1-.3v.1c.1 1.6.2 3.1.3 4.7zm1.5 1.6c.1-1.4 0-2.9.1-4.4 0-.2-.4-.2-.4 0-.1 1.4-.3 3-.1 4.4 0 .3.4.2.4 0zm1.6-.9c.2-1.4 0-3 0-4.4 0-.3-.5-.3-.5 0 0 1.4-.2 3 0 4.4.2.1.5.2.5 0zm-1.6-9.7c-.1-2.1-.7-4.2-1.2-6.2-.1-.2-.3-.1-.3.1.5 2 .8 4.1 1.2 6.1.1.1.4.1.3 0zm.6-3.6c-.2-1.1-.4-2.2-.7-3.3 0-.1-.3-.1-.2.1.2 1.1.4 2.2.7 3.3 0 0 .2 0 .2-.1zm.7-1.5c0-1.7-.5-3.5-1-5.2-.1-.2-.5-.1-.4.1.5 1.7.7 3.4 1 5.1 0 .2.4.2.4 0zm.8.1c-.1-2.2-.7-4.5-1.4-6.6 0-.1-.2-.1-.2.1.6 2.2.9 4.4 1.3 6.6 0 .2.3.1.3-.1zm4.3 6.5c-.3 2.9-.9 5.7-1.5 8.5-.1.2.2.3.3.1 1.1-2.7 1.5-5.7 1.5-8.6 0-.2-.3-.2-.3 0zm1.5 6.1c1-1.4 1.3-3.5 1.5-5.2 0-.3-.5-.3-.5 0-.1.9-.3 1.8-.5 2.7-.2.8-.6 1.6-.7 2.4-.1.1.1.2.2.1zm1.7-.6c1-1.4 1.5-3.3 1.8-4.9.1-.4-.5-.5-.5-.1-.4 1.7-1.2 3.2-1.7 4.8-.1.3.3.4.4.2zm1.8-1c.4-.5.5-1.1.8-1.7.3-.7.5-1.4.8-2.2.1-.4-.4-.5-.6-.1-.3.7-.5 1.4-.8 2-.2.6-.6 1.2-.6 1.8.1.2.3.3.4.2zm2.2-1.7c.7-1.2 1-2.6 1-4 0-.3-.4-.3-.5 0-.1 1.4-.5 2.6-.9 3.8 0 .2.3.4.4.2zm4-7.2c-.4 1.1-1 2.2-1.3 3.3 0 .1.2.2.2.1.6-1 .9-2.2 1.4-3.3.1-.3-.2-.4-.3-.1zm3.1-3.6c-.3.8-.6 1.7-.9 2.5-.3.8-.7 1.6-.9 2.5 0 .2.2.3.3.1.9-1.4 1.4-3.4 1.9-5 .2-.3-.3-.4-.4-.1zm.5 4c.6-1.3.9-2.9 1.2-4.2.1-.2-.3-.3-.4-.1-.5 1.3-1.1 2.8-1.2 4.2 0 .2.3.4.4.1zm2.8-4.8c-.1.5-.2.9-.3 1.4 0 .1.2.2.2 0 .2-.4.2-.9.3-1.4.1-.1-.2-.2-.2 0zm2.9-5.6c-.1 1.9-.5 3.7-.8 5.6 0 .3.4.3.5.1.7-1.7.8-3.8.8-5.6 0-.5-.5-.5-.5-.1zm1.2 4.8c.5-1.5.5-3.3.8-4.9 0-.2-.3-.4-.4-.1-.3 1.6-.8 3.4-.7 5 0 .2.3.2.3 0zm.7-1.8c0 .2.3.2.4.1.3-.6.3-1.3.4-1.9.1-.7.2-1.5.3-2.2.1-.3-.4-.5-.5-.1l-.4 2.3c-.1.6-.2 1.2-.2 1.8zm7.6-5c.1-.1-.2-.3-.3-.1-.7 1.3-1.4 2.7-2.1 4l-.6.9c.4-.9.7-1.9.9-2.8.1-.3-.3-.3-.4-.1-1.1 2.8-2.6 5.2-4.3 7.7-.2.2.2.5.4.3.6-.6 1.2-1.3 1.7-2h.1c2.1-2.1 3.6-5.2 4.6-7.9zm-5.4 3.4c.4-1.1.5-2.4.6-3.6.1-.3-.4-.4-.4-.1-.2 1.2-.5 2.4-.6 3.7 0 .1.4.2.4 0zm.6-5.5c0-3-.3-5.9-.6-8.9 0-.2-.4-.2-.4 0 .1 3 .1 6 .6 8.9 0 .3.4.2.4 0zm.7-3.6c0-1.6-.4-3.3-.6-4.9 0-.2-.4-.2-.4.1.2 1.6.3 3.3.7 4.9.1.1.3.1.3-.1zm.5-4.1c.1-1.6-.3-3.3-.5-5 0-.2-.3-.2-.3 0 .1 1.7 0 3.4.4 5 .1.3.4.3.4 0zm.8-5.5c.1-.7 0-1.6 0-2.3 0-.2-.4-.2-.4 0 0 .8-.1 1.6 0 2.3.1.2.4.2.4 0zm1-9.2c0-1.2-.3-2.5-.5-3.7 0-.3-.5-.2-.4.1.2 1.2.2 2.4.6 3.6 0 .3.3.2.3 0zm.8-2.4c0-1.6-.4-3.3-.7-4.9-.1-.2-.4-.1-.3.1.3 1.6.4 3.2.7 4.8 0 .2.3.2.3 0zM118 132.4c-.7 2.6-1.6 5-2.4 7.5-.1.2.3.4.4.2 1.3-2.3 2-4.9 2.4-7.6.1-.3-.3-.4-.4-.1zm-4.5 9.4c1-1.8 1.8-3.7 2.6-5.5.1-.2-.2-.4-.3-.2-.9 1.9-1.8 3.7-2.6 5.6 0 .2.2.2.3.1zm0-3.3c-.8 1.3-1.6 2.5-2.2 3.9-.1.1.1.2.2.1.9-1.2 1.7-2.5 2.4-3.7.1-.3-.3-.6-.4-.3zm-35.1-12c.7.1 1.3.2 2 .2-1 2.7-.5 6.6.9 9 .1.2.4.1.4-.1.3.9.7 1.7 1.2 2.6.1.2.5.1.4-.2-.9-2.5-1.8-4.9-2.5-7.5 0-.1-.1-.1-.1-.1 0-1.2.1-2.4.1-3.6 2.5.1 5.2-.4 7.6-.7 3.9-.4 7.8-.7 11.6-1.4.1 0 .1 0 .1-.1 5.3 1.2 12.2 2.8 18.4 2.2.1 2.3.3 4.5.2 6.8 0 .2.3.3.4.1.5-2.2.7-4.7.1-6.9 3.9-.4 7.5-1.7 10.2-4.4.2-.2-.1-.4-.3-.3-.5.4-.9.7-1.4 1 1.4-1.5 2.3-3.4 2.4-5.5 0-.2-.3-.2-.3 0-.4 2.4-1.4 4.5-3.1 6.1-1.7.9-3.4 1.4-5.2 1.8 2.3-1.1 4.3-3 5.1-5.4.1-.3-.3-.5-.5-.2-1.7 3-4.1 5.2-7.4 5.9-1.2.1-2.5 0-3.8-.1 3.6-.6 7-2.5 9.2-5.5.2-.2-.2-.4-.3-.3-3.4 3.3-7.2 5.3-11.7 5.4-4.3-.6-8.6-1.6-12.6-1.8.8-.9 1.2-2.1 1.1-3.2 0-.2-.4-.3-.5-.1-.3 1.7-1.1 2.9-2.4 3.9-3.3.3-7 1-10.6 1.3-2.9-.6-5.2-2.1-7.2-4.3-.2-.2-.5.1-.3.3 1.3 2.1 3.4 3.6 5.8 4.2-2.8.2-5.5.1-7.8-.6-.5-.4-1-.7-1.4-1.2-.7-.8-1.1-1.6-1.5-2.5-.1-.2-.3-.1-.3.1.2 1.1.9 2.2 1.8 3.1-2.8-1.2-5.1-3.4-6.4-7.3-.1-.2-.4-.1-.3.1 1 4.6 4.3 8.2 8.9 9.2zm7.5 15.1c-.7-1.9-1.7-3.7-2.7-5.5-.1-.2-.4 0-.3.2.8 1.9 1.6 3.7 2.7 5.4.1.2.4.1.3-.1zm-.2-2.1c.6 1.2 1.2 2.6 2.1 3.6.2.2.5 0 .4-.2-.4-1.3-1.3-2.5-2-3.6-.3-.3-.7-.1-.5.2zm-15.6-22.9c1.2-3.1 4.5-3.8 6.7-1.3.2.2.5-.1.3-.3-1.8-3.3-7.2-2.2-7.5 1.6.1.2.4.2.5 0zm13.1 3.8c-.2-.1-.3.2-.2.3 3.7 1.8 7.7 4.5 12 3.8.2 0 .1-.3 0-.3-4.2 0-8-2-11.8-3.8zm41.3-5.6c1.4-2.3 5.1-.2 5.7 1.7.5 1.7 0 3.4-.6 5.1-.1.2.3.4.4.2 1.9-1.9 2.1-5.7-.1-7.5-1.6-1.3-5.1-2.4-5.8.3 0 .3.3.4.4.2zm-23.4 5c5.6-.9 11.3-2.4 16.9-1.4.1 0 .2-.2.1-.2-4.7-2.5-12.3-.1-17.1 1.2-.3 0-.2.5.1.4zm-21.8 1.3c7.1-4.1 13.7-2.8 21.3-1.2.3.1.4-.3.1-.4-6.8-2.6-15.7-4.1-21.6 1.2-.2.2 0 .5.2.4z" fill="#000000" stroke-width="none" opacity="1"></path></g></g></g><g id="svga-group-mustache-single-move" transform="matrix(1,0,0,1,0,0)"><g id="svga-group-mustache-single" transform="matrix(1,0,0,1,0,0)"></g></g><g id="svga-group-nose-single-move" transform="matrix(1,0,0,1,0,0)"><g id="svga-group-nose-single" transform="matrix(1,0,0,1,0,0)"><path id="SvgjsPath58784" d="M104.66 106.24s.9-.28 1.41.67c.51.95 1.27 3.18 1.65 4.2.38 1.02.76 2.48.45 3.05s-2.16 1.72-4.13 1.46c0 0-.76 2.23-1.27 3.05-.51.83-1.91 1.91-3.43 1.21-1.53-.7-1.72-2.42-2.23-3.24-.51-.83-1.14-1.14-1.14-1.14s-2.35.19-2.93 0c-.57-.19-1.34-1.46-1.02-3.24.32-1.78 1.14-4.64 1.59-5.15s.97-1.18 1.95-.66c0 0 .98-14.67 1.29-15.94.32-1.27 3.24-2.35 5.98-.45l1.83 16.18z" fill="#d79468" stroke-width="none" opacity="1" transform="translate(0 1)"></path><path id="SvgjsPath58785" d="M106.52 113.45c.17-.17 0-.55-.26-.44-.91.38-1.57.93-2.17 1.72-.81 1.06-1.05 3.04-1.94 3.92-3.05 3-4.02-1.38-5.1-2.76-.8-1.03-1.76-1.69-2.94-2.21-.22-.1-.4.19-.19.32.54.34 1.04.72 1.5 1.14-.28-.1-.53-.14-.9-.14-.26 0-.65.15-.9.08-.69-.21-1.08-1.19-1.16-1.87-.11-.98.99-7.38 2.75-6.44 0 .26 0 .53.01.79.01.29.47.38.53.07.73-3.57.64-7.48.88-11.12.26-3.94.67-7.92.8-11.86.01-.19-.27-.18-.29 0-.47 3.79-.67 7.65-1.03 11.46-.31 3.24-.88 6.66-.91 9.95-1.7-1.5-3.12 4.31-3.25 5.06-.21 1.15-.76 3.01-.03 4.09.83 1.24 2.38.4 3.55.78.24.08.43-.11.46-.32.2.22.4.46.57.71.64.91.91 1.98 1.51 2.9.59.89 1.44 1.61 2.58 1.5 1.13-.11 1.98-1.01 2.49-1.94.46-.82.66-1.76 1.08-2.6.6-1.16 1.48-1.91 2.36-2.79z" fill="#a9561f" stroke-width="none" opacity="1" transform="translate(0 1)"></path><path id="SvgjsPath58786" d="M107.63 110.22c-.28-.7-1.23-4.75-2.63-4.19-.24-3.09-.81-6.21-1.15-9.26-.41-3.59-.76-7.2-1.3-10.77-.02-.14-.26-.11-.25.03.25 3.85.71 7.7 1.1 11.53.36 3.57.43 7.3 1.15 10.82.07.32.57.25.57-.08-.01-.59-.04-1.19-.08-1.79.88-.12 1.95 3.85 2.07 4.2.21.6.53 1.23.66 1.85.39 1.92-.67 2.25-2.14 2.82-.35.13-.21.62.15.56 1.02-.17 2.19-.56 2.68-1.56.64-1.32-.35-2.95-.83-4.16z" fill="#a9561f" stroke-width="none" opacity="1" transform="translate(0 1)"></path><path id="SvgjsPath58787" d="M102.6 109.76c-.39-.4-1.12-.32-1.39.18-.42.77-.18 1.67-.31 2.51-.12.79-.38 1.58-.36 2.38.01.22.23.42.45.34.96-.32 1.58-1.25 1.87-2.19.31-1.01.53-2.4-.26-3.22z" fill="#dfa077" stroke-width="none" opacity="1" transform="translate(0 1)"></path><path id="SvgjsPath58788" d="M101.39 96.01c-.21-2.89-.25-5.79-.61-8.67-.02-.14-.2-.14-.21 0-.62 5.58-.23 11.88.96 17.39.07.31.56.24.55-.07-.11-2.89-.48-5.77-.69-8.65z" fill="#dfa077" stroke-width="none" opacity="1" transform="translate(0 1)"></path></g></g><g id="svga-group-hair-front" transform="matrix(1,0,0,1,0,0)"><path id="SvgjsPath58831" d="M143.6 75.2s.6-3.3-1.2-6.4c0 0 .6-3.2-1.2-5.6 0 0-.2-5.5-4.2-7.2 0 0 .2-4.5-4.1-6 0 0 .2-5-6.8-6.8 0 0-1.7-4.4-6.1-4.2 0 0-3.2-4.2-7.7-2.9 0 0-1.9-2.9-6.3-.8 0 0-2.8-2.2-6.1-.5h.1c-3.3-1.8-6.1.5-6.1.5-4.4-2.1-6.3.8-6.3.8-4.5-1.2-7.7 2.9-7.7 2.9-4.4-.2-6.1 4.2-6.1 4.2C66.8 45 67 50 67 50c-4.3 1.5-4.1 6-4.1 6-3.9 1.7-4.2 7.2-4.2 7.2-1.8 2.5-1.2 5.6-1.2 5.6-1.8 3.2-1.2 6.4-1.2 6.4S55 79.6 54.9 82s4.4 11.2 7.2 8-.1-6.6-.1-6.6c4.6 1.1 1.1-8.3 1.1-8.3 3.4-2.4 1.5-6.2 1.5-6.2 3.7-1.9 2.1-5.6 2.1-5.6 3.7-.2 3-3.8 3-3.8 3.3-.5 4.1-3.7 4.1-3.7 3.8.5 4.7-2.2 4.7-2.2 3.8 1.6 5.5-2.4 5.5-2.4 3.5 4.1 8.1.3 8.1.3 4.5 4.3 7.7-.5 7.7-.5h.3s3.2 4.7 7.7.5c0 0 4.6 3.7 8.1-.3 0 0 1.7 3.9 5.5 2.4 0 0 .9 2.7 4.7 2.2 0 0 .8 3.3 4.1 3.7 0 0-.7 3.6 3 3.8 0 0-1.6 3.7 2.1 5.6 0 0-1.9 3.8 1.5 6.2 0 0-3.5 9.5 1.1 8.3 0 0-2.9 3.4-.1 6.5 2.8 3.2 7.3-5.6 7.2-8 0-2.3-1.4-6.7-1.4-6.7z" fill="#080806" stroke-width="none" opacity="1" stroke="none"></path><path id="SvgjsPath58832" d="M145.6 81.1c0-.1 0-.2-.1-.2 0-2.2-.6-4.4-1.4-6.1l-.2-.2c.9-1.9.2-4.4-1.1-5.9 0-.1-.1-.1-.1-.1.8-1.9 0-4.2-1.2-5.8-.1-.1-.2-.2-.4-.2.4-2.4-1.3-6.4-3.5-7.1h-.2c.4-2.5-1.9-5.3-4-6.2-.1 0-.2-.1-.3-.1-.6-3.2-3.4-6.3-6.7-6.5h-.2c-.6-2.2-3.5-4.4-5.8-4.1-.1 0-.2.1-.2.1-1.2-2.8-5.2-4-7.9-3.3-1.3-1.8-4.5-1.8-6.2-.6-1.5-1.5-4.2-1.7-6-.5-1.8-1.2-4.5-1-6 .5-1.8-1.2-4.9-1.3-6.2.6-2.9-.6-6.9.6-8.1 3.4-.1-.1-.1-.1-.2-.1-2.3-.3-5.2 1.8-5.8 4.1h-.2c-3.3.2-6.1 3.4-6.7 6.5-.1 0-.2 0-.3.1-2.1 1-4.4 3.7-4 6.2h-.2c-2.2.7-3.9 4.7-3.5 7.1-.1 0-.3 0-.4.2-1.2 1.5-2 3.9-1.2 5.8l-.1.1c-1.2 1.6-2 4-1.1 5.9-.1 0-.1.1-.2.2-.9 1.7-1.5 3.9-1.5 6.1 0 .1-.1.1-.1.2.2 2.6 2.2 8.6 5.3 9.4v.1c1.3.9 3.1-.3 3.6-1.6.7-1.6.2-3.8-1-5 3.8.3 2.4-6.7 1-8.7.1 0 .2 0 .2-.1 1.6-1.3 2.5-4.3 1.1-6.1 2.2-.8 3.4-3.5 2.3-5.5.9.2 2.1-.7 2.5-1.4.4-.6.7-1.8.3-2.6 1 .4 2.4-.6 3.1-1.3.5-.5.9-1.3 1-2.1 1.7.2 4-.6 4.4-2.4 1.2.5 2.6.4 3.7-.3.7-.4 1.5-1.1 1.8-2h.1c1.1 2.5 6.6 2.3 7.9 0 1.9 3.2 6.5 2.7 7.9-.6h.2c1.4 3.3 6 3.8 7.9.6 1.3 2.3 6.7 2.5 7.9 0h.1c.3.8 1.1 1.6 1.8 2 1.2.7 2.5.7 3.7.3.4 1.8 2.7 2.7 4.4 2.4.1.8.5 1.6 1 2.1.6.7 2 1.7 3.1 1.3-.4.7-.1 2 .3 2.6.5.7 1.6 1.6 2.5 1.4-1.1 2 .1 4.7 2.3 5.5-1.4 1.8-.4 4.8 1.1 6.1.1.1.1.1.2.1-1.3 1.9-2.8 9 1.1 8.7-1.3 1.2-1.7 3.5-1 5 .6 1.2 2.3 2.5 3.6 1.6v-.1c3.7-.9 5.7-6.9 5.9-9.5zm-83.8 8.4c-.5.4-1 .3-1.6.3-2.3-1.2-3.5-3.7-4.3-6.3-.1-1.1-.3-2.1-.3-3.2 0-1.4.4-2.8.9-4.1.2 3.4 1.8 6.4 5.3 7.6h.2c-.1.1-.2.2-.1.3.3 1.1 1 2 1 3.2-.1 1-.4 1.8-1.1 2.2zm.5-6.4c-.1 0-.2 0-.3.1-1.5-.8-3-1.6-3.8-3.2-.8-1.6-.8-3.4-1-5.2 0-.2-.2-.3-.3-.4-.2-1.5-.2-2.9.6-4.2 1 2.6 2.4 5.2 5.5 5.4.3 1 .7 2 .9 3.1.2 1.4.5 4.5-1.6 4.4zm2.3-11.2c-.1 1.1-.7 2-1.5 2.7-.1.1-.2.2-.2.3-1.2-.5-2.3-.8-3.1-1.9-.8-1.1-1.2-2.4-1.7-3.6 0-.1.1-.2.1-.3 0-.1.1-.1.1-.2-.3-1.9-.3-3.4.7-4.8.4 1.2 1.2 2.4 2 3.2s1.8 1.5 3 1.7c.3 1 .7 1.8.6 2.9zm-.3-3.4c-1-.6-1.9-1-2.7-1.8-.9-1-1.2-2.4-2.1-3.4v-.1c.4-1.3.4-2.7 1-4 .5-1.1 1.5-1.8 2.1-2.8.4 2.4 1.3 5.9 3.7 6.9.8 2.3.2 4.1-2 5.2zm4.6-6.7c-.3.4-.7.7-1.2.9-.3.1-.5.1-.8.2-.9-1-1.9-1.6-2.5-2.9-.6-1.3-.8-2.8-1.1-4.2v-.1c.3-1 .4-2 .9-2.9.5-.9 1.3-1.6 2.2-2.1.1 3.2.5 6.5 2.8 8.9 0 .3.1.5.1.8 0 .5-.1 1-.4 1.4zM82 52.6c-1 .6-2.1.5-3.2.2-1-4.7-.1-8.7 1.3-13.2.1-.2-.2-.3-.3-.1-2.3 4.3-2.8 8.9-1.9 13.6v.2c-.4.6-.7 1.2-1.4 1.6-.8.5-1.6.5-2.4.3-.2-3.6-.1-7-.1-10.6 0-.2-.3-.2-.3 0-.9 3.5-1.1 7.3-.4 10.8-.1.1-.1.3-.1.4-.3.7-.4 1.4-.9 2-.4.4-.8.6-1.3.8-.4.1-.8.1-1.1.3-.1.1-.2.2-.2.3-1.8-3-2.3-5.6-2.4-9 .1-.1.2-.3.1-.5.4-1.4 1.1-2.8 2.2-3.8 1.2-1.2 2.5-1.7 4.1-2.2.2-.1.3-.2.4-.4.1 0 .1 0 .1-.1.7-.9 1.3-1.8 2.3-2.5.9-.6 2-.7 3-1.1.1 0 .2-.1.2-.2.1.1.3.1.4 0 1.1-.9 1.9-1.9 3.2-2.4 1.4-.5 2.7-.6 4.2-.3-3.1 4-4.1 9.4-4.1 14.3-.4.5-.7 1.2-1.4 1.6zm6.3-.2c-.7.1-1.4.1-2-.2-.8-.3-1.2-1.1-1.8-1.6h-.1c0-5.2 1.7-9.4 3.9-14 .1-.2.2-.4.1-.6.8-.5 1.5-.9 2.5-1 1-.1 1.9.2 2.7.8-2 4.8-1.8 10.4-1.9 15.5v.1c-.9.6-2.3.8-3.4 1zm4.4-1.6c-.1-.1-.1-.2-.2-.2.1-5 .3-9.8 1.6-14.7.1 0 .1 0 .2-.1 1.6-1.4 3.5-1.8 5.4-.8-.4 5.1-.1 10.3-.1 15.5-.1 0-.1 0-.2.1-1.5 2.8-5 2.8-6.7.2zm14.6 0c-1.7 2.5-5.2 2.6-6.8-.2l-.1-.1c0-5.1.2-10.3-.2-15.5 2-1.1 3.8-.7 5.5.7.1.1.1.1.2.1 1.2 4.9 1.5 9.7 1.6 14.7-.1.2-.2.2-.2.3zm6.4 1.3c-.7.3-1.3.3-2 .2-1.1-.1-2.5-.4-3.4-1.1v-.1c-.1-5.1.2-10.7-1.9-15.5.8-.5 1.7-.8 2.7-.8 1 .1 1.7.5 2.5 1-.1.2-.1.4.1.6 2.2 4.7 3.9 8.9 3.9 14h-.1c-.6.7-1 1.4-1.8 1.7zm15.3 6.5c-.5-.2-.9-.4-1.3-.8-.6-.6-.7-1.3-.9-2 0-.2 0-.3-.1-.4.7-3.5.4-7.3-.4-10.8 0-.2-.3-.1-.3 0 .1 3.6.2 7-.1 10.6-.8.2-1.7.2-2.4-.3-.7-.4-1-1-1.4-1.6v-.2c.9-4.7.5-9.3-1.9-13.6-.1-.2-.3 0-.3.1 1.4 4.5 2.3 8.5 1.3 13.2-1.1.3-2.2.4-3.2-.2-.7-.4-1-1.1-1.5-1.7 0-4.9-1-10.3-4.1-14.3 1.4-.3 2.8-.2 4.2.3s2.2 1.5 3.2 2.4c.1.1.3.1.4 0l.2.2c1 .4 2 .5 3 1.1 1 .7 1.6 1.6 2.3 2.5l.1.1c0 .2.2.3.4.4 1.6.5 2.9 1 4.1 2.2 1.1 1.1 1.8 2.4 2.2 3.8 0 .2 0 .3.1.5 0 3.4-.6 6.1-2.4 9 0-.1-.1-.2-.2-.3-.3-.1-.6-.1-1-.2zm3.2 4c-.5-.2-.9-.5-1.2-.9-.3-.4-.4-.8-.4-1.3 0-.3.1-.6.1-.8 2.3-2.4 2.7-5.8 2.8-8.9.9.5 1.7 1.2 2.2 2.1.6.9.7 1.9.9 2.9v.1c-.3 1.4-.5 2.9-1.1 4.2-.6 1.3-1.6 1.9-2.5 2.9-.2-.2-.5-.2-.8-.3zm1.4.7c2.4-1 3.4-4.5 3.7-6.9.6 1 1.6 1.7 2.1 2.8.6 1.3.6 2.6 1.1 4v.1c-.9 1-1.2 2.4-2.1 3.4-.8.9-1.8 1.3-2.7 1.8-2.2-1.1-2.8-2.9-2.1-5.2zm1.8 8.6c-.1-1.1.2-1.9.6-2.8 1.1-.2 2.2-.9 3-1.7.8-.8 1.7-2.1 2-3.2 1 1.4 1 2.9.8 4.7 0 .1 0 .2.1.2 0 .1 0 .2.1.3-.5 1.2-.9 2.6-1.7 3.6-.8 1.1-2 1.4-3.1 1.9 0-.1 0-.2-.1-.3-1-.7-1.5-1.6-1.7-2.7zm.7 6.8c.2-1.1.6-2.1.9-3.1 3.1-.2 4.5-2.8 5.5-5.4.8 1.3.8 2.7.6 4.2-.2 0-.3.2-.3.4-.2 1.8-.2 3.6-1 5.2s-2.2 2.4-3.8 3.2c-.1-.1-.2-.1-.3-.1-2.1.1-1.8-3-1.6-4.4zm3.7 11.1c-.6 0-1.1 0-1.6-.3-.7-.5-1-1.3-1-2-.1-1.2.6-2.1 1-3.2.1-.2 0-.3-.1-.3.1 0 .2.1.2 0 3.5-1.2 5.1-4.2 5.3-7.6.5 1.3.8 2.6.9 4.1 0 1.1-.2 2.1-.3 3.2-.9 2.4-2.1 5-4.4 6.1z" fill="#000000" stroke-width="none" opacity="1" stroke="none"></path><path id="SvgjsPath58833" d="M96.6 51c-.9-.7-1.8-1.2-2.3-2.2-.6-1-.6-2-.7-3.1 0-.2-.2-.2-.3 0-.8 2.1 1 5.2 3.2 5.6.2-.1.3-.2.1-.3zm0-3.7c-1.3-1.7-2.1-3.4-2.6-5.5-.1-.2-.4-.2-.4 0 0 2.1 1 4.3 2.7 5.7.1.2.5 0 .3-.2zm.6-4.4c-1.3-1.6-1.8-3.3-2.1-5.3 0-.2-.3-.1-.4 0-.2 2.1.8 4.1 2.2 5.5.3.2.5 0 .3-.2zm-.3-5.6c-.1-.4-.2-.7-.4-1.1-.1-.1-.3-.1-.3.1 0 .4.2.7.3 1.1.1.3.5.1.4-.1zm-8 13.9c-.7-.5-1.4-1.2-1.9-2-.4-.7-.7-1.4-1.1-2.1-.1-.2-.4-.1-.4.1.1 1.9 1.6 3.6 3.1 4.5.3.1.5-.3.3-.5zm.1-3.6c-.9-1.4-1.3-2.9-1.8-4.5-.1-.2-.4-.2-.4 0-.1 1.7.7 3.3 1.7 4.7.2.3.7.1.5-.2zm0-4.6c-.2-.8-.4-1.7-.8-2.5-.1-.2-.4-.1-.4.1.1.8.4 1.7.7 2.5.1.3.6.2.5-.1zm.4-4.3c.1-.6.1-1.2.1-1.7 0-.1-.2-.1-.2 0-.2.6-.2 1.2-.3 1.8.1.1.4.1.4-.1zm-7.6 12.4c-1.4-.8-2-2.2-2.2-3.8 0-.2-.4-.2-.4 0-.5 1.8.8 3.6 2.3 4.3.3.2.6-.3.3-.5zm.2-3.3c-.8-1.5-1.2-3-1.8-4.6-.1-.2-.3-.1-.3 0 .2 1.7.8 3.3 1.7 4.8.2.2.5 0 .4-.2zm0-5c-.4-1.1-.6-2.3-.5-3.4 0-.2-.3-.2-.3 0-.2 1.3 0 2.5.5 3.6 0 .2.4 0 .3-.2zm1.2-3.7c.2-.5.4-1.1.5-1.6 0-.1-.2-.2-.2-.1-.3.5-.4 1.1-.6 1.6-.1.2.3.3.3.1zm-6.5 14.4c-1.1-.7-1.7-1.7-2.3-2.7-.1-.2-.4-.1-.4.1 0 1.4 1.2 2.5 2.4 3.1.4.1.6-.4.3-.5zm-.4-2.9c-.7-1.1-1-2.3-1.3-3.6 0-.2-.3-.1-.3 0-.1 1.3.5 2.7 1.2 3.8.2.3.6 0 .4-.2zm-.1-4c-.3-.7-.5-1.7-.9-2.3-.1-.2-.4-.1-.4.1.1.8.6 1.6.9 2.3 0 .3.4.2.4-.1zm.3-4.2c.2-.6.6-1.3.7-2 0-.2-.3-.2-.4-.1-.4.6-.5 1.3-.8 2-.1.3.4.4.5.1zm-4.8 14.5c-.6-.3-1.1-.6-1.6-1.1-.4-.4-.8-1-1.2-1.5-.1-.2-.4 0-.3.2.2 1.4 1.7 2.4 2.9 2.8.3.2.4-.3.2-.4zm-.6-2.9c-.4-.2-.7-.5-1-.9-.3-.3-.4-.8-.7-1.1-.1-.2-.4-.1-.4.1.1 1 1 1.8 1.8 2.3.4.1.6-.2.3-.4zm-.7-4c-.3-.4-.5-.8-.6-1.3-.1-.4-.1-.8-.2-1.2-.1-.2-.3-.2-.4-.1-.4 1 .2 2.2.9 2.9.1.3.5-.1.3-.3zm-5.3 10.8c.8.8 3.1.7 3.6-.4.1-.2-.1-.5-.3-.4-.5.2-.8.5-1.4.6-.6.1-1.1-.1-1.7-.2-.2-.1-.4.2-.2.4zm-1-2.9c.3.7 1.2 1.5 2 1.2.2-.1.2-.4 0-.5-.3-.1-.6-.1-.8-.2-.3-.2-.6-.4-.8-.7-.2-.2-.5 0-.4.2zm.1-1.8c.4.2.7.5 1.1.7.2.1.3-.2.2-.3-.3-.3-.7-.5-1.1-.8-.3-.2-.5.2-.2.4zm-2.4 9.7c.5.5 1.1.7 1.8.7.6 0 1.4-.3 1.7-.9.1-.2-.1-.5-.4-.4-.5.2-.8.5-1.3.6-.5.1-1-.1-1.5-.3-.2-.3-.5.1-.3.3zm-1-1.6c.6.7 2.1.9 2.5-.2.1-.2-.2-.3-.3-.2-.6.2-1.2.5-1.7 0-.4-.2-.8.2-.5.4zm-1.2 7.6c.8.7 2.4 1.4 3.4.6.2-.2.2-.5-.1-.5-.5 0-1 .2-1.5.1-.6 0-1.1-.2-1.6-.6-.1 0-.4.3-.2.4zm-1.1-3.4c.4.8 1.4 1.3 2.3.9.2-.1.1-.4-.1-.4-.7.1-1.4-.1-1.7-.7-.2-.4-.7-.1-.5.2zm.4 11.6c1 .9 2.5 1.4 3.7.7.1-.1.1-.3-.1-.3-1.2.1-2.4.1-3.4-.7-.1-.1-.4.2-.2.3zm-1.2-4c.4 1 1.4 2.2 2.6 2 .2 0 .2-.3.1-.4-.4-.3-.8-.4-1.2-.7-.5-.3-.8-.7-1.1-1.2-.1-.2-.5 0-.4.3zM56 83c.6 2 2.5 4.1 4.8 3.9.2 0 .3-.3.1-.4-2-.6-3.7-1.5-4.6-3.6-.1-.1-.4 0-.3.1zm-.1-1.9c.1.6.3 1.2.7 1.6.4.4 1 .9 1.6.9.3 0 .3-.3.1-.5-.4-.3-.9-.4-1.2-.8-.4-.4-.7-.8-.8-1.3-.1-.1-.4-.1-.4.1zM101 46c-.4 3 2.5 5.8 5.4 4.5.2-.1.1-.3-.1-.3-2.7.3-5.1-1.2-5.1-4.1.1-.3-.2-.3-.2-.1zm-.2-3.6c.2 1.6 1.4 3.8 3.2 4 .2 0 .5-.2.2-.4-.6-.5-1.3-.8-1.8-1.4-.6-.6-1-1.4-1.3-2.3-.1-.2-.4-.1-.3.1zm0-4c.3 1.2 1.1 2.7 2.3 3.3.2.1.5-.2.3-.3-.4-.4-.9-.8-1.2-1.2-.4-.5-.8-1.1-1-1.8-.2-.3-.5-.2-.4 0zm.9-2.8c.2.6.3 1.2.6 1.8.1.2.3.1.3-.1-.1-.6-.3-1.2-.5-1.8 0-.3-.5-.2-.4.1zm7.2 12c.6 1.4 1.8 2.7 3.3 3 .1 0 .2-.2.1-.2-1.3-.7-2.4-1.5-3.1-2.9 0-.2-.4-.1-.3.1zm.8-2.7c1.3.8 2.2 1.8 3.3 2.8.2.1.4 0 .3-.2-.7-1.3-2.1-2.2-3.4-2.8-.2-.2-.4.1-.2.2zm-.3-2.8c.6.3 1.3.6 1.9.9.1 0 .2-.1.1-.2-.6-.3-1.3-.6-1.9-.9-.1-.1-.2.1-.1.2zm-1.1-4.1c.6.5 1.3 1.1 2 1.5.1.1.2-.1.2-.2-.6-.6-1.2-1.1-1.9-1.6-.2-.1-.5.1-.3.3zm.5-1.3c.2 0 .2-.2 0-.2s-.2.2 0 .2zm8 12.1c.4.6.9 1.3 1.5 1.8.2.1.4-.1.3-.3-.3-.6-1-1.2-1.5-1.7-.1-.2-.4 0-.3.2zm-1.1-4.6c.3.8.8 1.5 1.3 2.1.5.5 1.1 1.1 1.8 1.2.2 0 .2-.2.2-.4-.4-.5-1.1-.9-1.6-1.3-.5-.5-1-1.1-1.4-1.7-.1-.4-.4-.1-.3.1zm-.9-3.5c.8.7 1.7 1.6 2.7 2.1.2.1.4-.1.2-.3-.3-.4-.8-.7-1.2-1.1-.5-.3-.9-.7-1.4-1-.2-.2-.5.1-.3.3zm-.2-3c.8.5 1.6 1.3 2.5 1.6.2.1.4-.2.2-.4-.6-.7-1.7-1.1-2.5-1.6-.3-.2-.5.2-.2.4zm7.9 14.1c.2 1 .8 2.1 1.8 2.5.1 0 .2-.1.1-.2-.7-.8-1.4-1.4-1.7-2.4 0-.2-.2-.1-.2.1zm.6-4.7c.4 1.2.8 2.6 1.5 3.7.1.2.4.1.3-.1-.4-1.3-1.1-2.5-1.6-3.7-.1-.1-.3 0-.2.1zm-1.2-4.1c.5.9 1 2 1.8 2.8.1.1.3 0 .3-.2-.4-1-1.1-2-1.7-2.9-.1-.1-.5.1-.4.3zm5.6 10.6c.5.9 1 1.9 1.6 2.8.1.1.3 0 .2-.1-.5-1-1.1-1.9-1.6-2.8 0-.2-.2-.1-.2.1zm.2-3.6c.2 1.1.7 2.3 1.6 3.1.1.1.4 0 .3-.2-.7-.9-1.3-1.8-1.6-2.9 0-.2-.3-.2-.3 0zm-.3-4.5c.2.3.3.7.6 1 .1.1.2 0 .2-.1-.1-.4-.3-.7-.5-1.1-.1-.1-.4.1-.3.2zm5 12.1c-.2 1.1-.3 2.3.2 3.3.1.2.4.1.4-.1-.1-1.1-.4-2.1-.3-3.2.1-.1-.2-.2-.3 0zm1.2-1.7c0 1-.1 2 .1 3 0 .2.3.1.3 0 .1-1-.1-2-.2-3 .1-.2-.2-.2-.2 0zm1 7.4c-.2.9-.2 1.9.4 2.7.1.1.2 0 .2-.1-.3-.8-.5-1.7-.3-2.5.1-.2-.2-.3-.3-.1zm1.5-2.3c-.6 1.1-1 2.7-.2 3.8.1.1.4.1.3-.1-.1-1.3-.4-2.3.2-3.6 0-.1-.2-.2-.3-.1zm1.3-1.7c-.1.3-.1.6-.1.9 0 .1.1.1.1 0 .1-.3.1-.6.2-.9h-.2zm-1.2 11c-.3 1-.4 2.2.2 3.1.1.2.4.1.3-.1-.2-1-.4-1.8-.2-2.9.1-.2-.2-.3-.3-.1zm1.5-.5c-.2 1-.1 2.1.5 2.9.1.1.2 0 .2-.1-.4-.9-.6-1.7-.5-2.7 0-.2-.2-.3-.2-.1zm-.5 5.7c-1.4 1.8-1.8 4.7-.1 6.5.2.2.4-.1.3-.2-1-2-1.3-4.1 0-6.1.1-.2-.1-.3-.2-.2zm1.3.5c-.5 1-.9 2.4-.4 3.5.1.2.4.1.4-.1 0-.5-.1-1-.1-1.5 0-.6.1-1.2.4-1.7.1-.3-.2-.5-.3-.2zm1.2-1c0 .6-.1 1.2 0 1.8 0 .1.2.1.3 0 .1-.6 0-1.2 0-1.8 0-.2-.3-.2-.3 0zm-.4 10.6c-.2.8-.4 1.8.1 2.6.1.1.3.1.3-.1 0-.8-.2-1.6 0-2.4.1-.3-.3-.4-.4-.1zm1.7-1.4c-.1.6-.2 1.2-.1 1.7 0 .2.3.3.4.1.2-.6.2-1.2.2-1.8 0-.3-.5-.3-.5 0z" fill="#171714" stroke-width="none" opacity="1" stroke="none"></path></g><g id="svga-group-glasses-single-move" transform="matrix(1,0,0,1,0,0)"><g id="svga-group-glasses-single" transform="matrix(1,0,0,1,0,0)"></g></g></g></g></g><rect id="svga-credit-rect" width="200" height="15" x="0" y="185" fill="#ecf0f1" opacity="0.5" style="display: none;"></rect><text id="svga-credit-text" font-family="Avenir Next, Roboto, Helvetica, Arial, sans-serif" font-size="10px" text-anchor="start" font-weight="400" size="10px" anchor="start" weight="400" fill="#333333" x="33.40447998046875" y="182.60824704170227" style="display: none;"><tspan id="SvgjsTspan58142" dy="13" x="33.40447998046875">Created on AvatarMaker.com</tspan></text></g></svg>