<?xml version="1.0" encoding="utf-8"?>
<!-- Generator: Adobe Illustrator 24.3.0, SVG Export Plug-In . SVG Version: 6.00 Build 0)  -->
<svg version="1.1" id="Layer_1" xmlns="http://www.w3.org/2000/svg" xmlns:xlink="http://www.w3.org/1999/xlink" x="0px" y="0px"
	 viewBox="0 0 200 81" style="enable-background:new 0 0 200 81;" xml:space="preserve">
<style type="text/css">
	.st0{fill:#E95801;}
	.st1{fill:url(#SVGID_1_);}
	.st2{fill:#732784;}
	.st3{fill:url(#SVGID_2_);}
	.st4{fill:#009F9F;}
	.st5{fill:url(#SVGID_3_);}
	.st6{fill:url(#SVGID_4_);}
	.st7{fill:#7B7B7B;}
</style>
<g>
	<path class="st0" d="M2,78.6v-6.1h0.6v6.1H2z"/>
	<path class="st0" d="M10.3,72.5v6.1H9.8l-4.2-5.1h0v5.1H4.9v-6.1h0.6l4.2,5.1h0v-5.1H10.3z"/>
	<path class="st0" d="M17.1,73.7c-0.4-0.3-1.2-0.8-2.3-0.8c-0.8,0-1.8,0.3-1.8,1.2c0,0.9,1.1,0.9,2.1,1c1.1,0.1,2.8,0.2,2.8,1.8
		c0,1.4-1.3,2-2.8,2c-1.5,0-2.5-0.6-3.1-1.3l0.4-0.4c0.5,0.5,1.4,1.1,2.8,1.1c1.1,0,2.1-0.4,2.1-1.4c0-1-1.1-1.2-2.2-1.2
		c-1.3-0.1-2.8-0.2-2.8-1.5c0-1.3,1.3-1.8,2.4-1.8c1.2,0,2.2,0.5,2.7,0.9L17.1,73.7z"/>
	<path class="st0" d="M19.6,78.6v-6.1h0.6v6.1H19.6z"/>
	<path class="st0" d="M27.7,73.7c-0.6-0.5-1.4-0.8-2.2-0.8c-1.5,0-2.7,1.2-2.7,2.7c0,1.4,1.1,2.7,2.8,2.7c0.8,0,1.6-0.3,2.1-0.7
		v-1.6h-2.1v-0.6h2.6v2.5c-0.7,0.6-1.8,1-2.7,1c-1.9,0-3.4-1.5-3.4-3.2c0-1.8,1.5-3.2,3.4-3.2c1,0,1.9,0.3,2.7,1L27.7,73.7z"/>
	<path class="st0" d="M30.2,78.6v-6.1h0.6V75H35v-2.5h0.6v6.1H35v-3.1h-4.1v3.1H30.2z"/>
	<path class="st0" d="M37,72.5h5.4V73h-2.4v5.6h-0.6V73H37V72.5z"/>
	<path class="st0" d="M42.6,75H45v0.6h-2.4V75z"/>
	<path class="st0" d="M46.5,78.6v-6.1h3.4c0.7,0,1.2,0.2,1.5,0.5c0.3,0.3,0.4,0.6,0.4,1c0,0.6-0.4,1.2-1,1.3
		c0.8,0.1,1.3,0.8,1.3,1.5c0,0.4-0.2,0.9-0.5,1.2c-0.3,0.3-0.8,0.5-1.6,0.5H46.5z M47.1,73v2.1h3c0.3,0,0.6-0.1,0.8-0.3
		c0.2-0.2,0.3-0.5,0.3-0.8c0-0.3-0.1-0.5-0.3-0.7c-0.2-0.3-0.6-0.4-1-0.4H47.1z M47.1,75.7v2.4h2.9c0.4,0,0.8-0.1,1.1-0.4
		c0.2-0.2,0.4-0.5,0.4-0.8c0-0.3-0.1-0.6-0.3-0.8c-0.2-0.2-0.5-0.4-0.9-0.4H47.1z"/>
	<path class="st0" d="M53.3,78.6l2.9-6.1h0.6l2.9,6.1h-0.7l-0.9-2h-3.2l-0.9,2H53.3z M55.1,76.1h2.7l-1.3-2.9h-0.1L55.1,76.1z"/>
	<path class="st0" d="M65.5,73.7c-0.4-0.3-1.2-0.8-2.3-0.8c-0.8,0-1.8,0.3-1.8,1.2c0,0.9,1.1,0.9,2.1,1c1.1,0.1,2.8,0.2,2.8,1.8
		c0,1.4-1.3,2-2.8,2c-1.5,0-2.5-0.6-3.1-1.3l0.4-0.4c0.5,0.5,1.4,1.1,2.8,1.1c1.1,0,2.1-0.4,2.1-1.4c0-1-1.1-1.2-2.2-1.2
		c-1.3-0.1-2.8-0.2-2.8-1.5c0-1.3,1.3-1.8,2.4-1.8c1.2,0,2.2,0.5,2.7,0.9L65.5,73.7z"/>
	<path class="st0" d="M71.3,75.6h-2.6v2.4h4.5v0.6h-5.1v-6.1H73V73h-4.3v2.1h2.6V75.6z"/>
	<path class="st0" d="M74.8,78.6v-6.1h2.6c1.2,0,1.8,0.3,2.4,0.9c0.5,0.6,0.9,1.3,0.9,2.2c0,0.9-0.3,1.7-0.9,2.2
		c-0.6,0.5-1.2,0.8-2.4,0.8H74.8z M77.3,78.1c1,0,1.4-0.3,1.9-0.7c0.5-0.5,0.7-1.1,0.7-1.8c0-0.7-0.3-1.3-0.7-1.8
		c-0.5-0.4-1-0.7-1.9-0.7h-1.9v5H77.3z"/>
	<path class="st0" d="M84.5,78.6v-6.1H87c1.2,0,1.8,0.3,2.4,0.9c0.5,0.6,0.9,1.3,0.9,2.2c0,0.9-0.3,1.7-0.9,2.2
		c-0.6,0.5-1.2,0.8-2.4,0.8H84.5z M87,78.1c1,0,1.4-0.3,1.9-0.7c0.5-0.5,0.7-1.1,0.7-1.8c0-0.7-0.3-1.3-0.7-1.8
		C88.4,73.3,88,73,87,73h-1.9v5H87z"/>
	<path class="st0" d="M95.3,75.6h-2.6v2.4h4.5v0.6h-5.1v-6.1H97V73h-4.3v2.1h2.6V75.6z"/>
	<path class="st0" d="M104.3,77.6c-0.7,0.7-1.7,1.2-2.9,1.2c-2,0-3.4-1.5-3.4-3.2c0-1.8,1.4-3.2,3.4-3.2c1.1,0,2.1,0.4,2.8,1
		l-0.4,0.4c-0.6-0.5-1.5-0.9-2.3-0.9c-1.6,0-2.7,1.2-2.7,2.7c0,1.5,1.2,2.7,2.7,2.7c1,0,1.9-0.4,2.4-1L104.3,77.6z"/>
	<path class="st0" d="M105.9,78.6v-6.1h0.6v6.1H105.9z"/>
	<path class="st0" d="M113.3,73.7c-0.4-0.3-1.2-0.8-2.3-0.8c-0.8,0-1.8,0.3-1.8,1.2c0,0.9,1.1,0.9,2.1,1c1.1,0.1,2.8,0.2,2.8,1.8
		c0,1.4-1.3,2-2.8,2c-1.5,0-2.5-0.6-3.1-1.3l0.4-0.4c0.5,0.5,1.4,1.1,2.8,1.1c1.1,0,2.1-0.4,2.1-1.4c0-1-1.1-1.2-2.2-1.2
		c-1.3-0.1-2.8-0.2-2.8-1.5c0-1.3,1.3-1.8,2.4-1.8c1.2,0,2.2,0.5,2.7,0.9L113.3,73.7z"/>
	<path class="st0" d="M115.8,78.6v-6.1h0.6v6.1H115.8z"/>
	<path class="st0" d="M121.6,72.3c1.9,0,3.4,1.4,3.4,3.2c0,1.8-1.5,3.2-3.4,3.2c-1.9,0-3.4-1.4-3.4-3.2
		C118.2,73.8,119.7,72.3,121.6,72.3z M121.6,78.2c1.5,0,2.7-1.2,2.7-2.7c0-1.5-1.2-2.6-2.7-2.6c-1.5,0-2.7,1.2-2.7,2.6
		C118.9,77,120.1,78.2,121.6,78.2z"/>
	<path class="st0" d="M132.2,72.5v6.1h-0.6l-4.2-5.1h0v5.1h-0.6v-6.1h0.6l4.2,5.1h0v-5.1H132.2z"/>
	<path class="st0" d="M142.2,78.6v-5h0l-2.4,4h-0.2l-2.4-4h0v5h-0.6v-6.1h0.7l2.4,4h0l2.4-4h0.7v6.1H142.2z"/>
	<path class="st0" d="M144.3,78.6l2.9-6.1h0.6l2.9,6.1H150l-0.9-2h-3.2l-0.9,2H144.3z M146.1,76.1h2.7l-1.3-2.9h-0.1L146.1,76.1z"/>
	<path class="st0" d="M157.3,72.5l-2.4,2.3l2.9,3.8H157l-2.5-3.4l-1.7,1.6v1.7h-0.6v-6.1h0.6v3.7l3.7-3.7H157.3z"/>
	<path class="st0" d="M159.1,78.6v-6.1h0.6v6.1H159.1z"/>
	<path class="st0" d="M167.5,72.5v6.1h-0.6l-4.2-5.1h0v5.1h-0.6v-6.1h0.6l4.2,5.1h0v-5.1H167.5z"/>
	<path class="st0" d="M174.9,73.7c-0.6-0.5-1.4-0.8-2.2-0.8c-1.5,0-2.7,1.2-2.7,2.7c0,1.4,1.1,2.7,2.8,2.7c0.8,0,1.6-0.3,2.1-0.7
		v-1.6h-2.1v-0.6h2.6v2.5c-0.7,0.6-1.8,1-2.7,1c-1.9,0-3.4-1.5-3.4-3.2c0-1.8,1.5-3.2,3.4-3.2c1,0,1.9,0.3,2.7,1L174.9,73.7z"/>
</g>
<g>
	
		<linearGradient id="SVGID_1_" gradientUnits="userSpaceOnUse" x1="147.9836" y1="61.3269" x2="147.9837" y2="61.327" gradientTransform="matrix(-1 0 0 1 334.2047 0)">
		<stop  offset="0" style="stop-color:#62C5E8"/>
		<stop  offset="1" style="stop-color:#4D2181"/>
	</linearGradient>
	<polygon class="st1" points="186.2,61.3 186.2,61.3 186.2,61.3 	"/>
	<polygon class="st2" points="186.2,67.1 186.2,61.4 191.1,58.6 191.1,64.2 	"/>
</g>
<g>
	
		<linearGradient id="SVGID_2_" gradientUnits="userSpaceOnUse" x1="147.9836" y1="61.327" x2="147.9836" y2="61.3269" gradientTransform="matrix(-1 0 0 1 334.2047 0)">
		<stop  offset="0" style="stop-color:#6E1F81"/>
		<stop  offset="7.542050e-02" style="stop-color:#762584"/>
		<stop  offset="0.478" style="stop-color:#9D4191"/>
		<stop  offset="0.8002" style="stop-color:#B45299"/>
		<stop  offset="1" style="stop-color:#BD589C"/>
	</linearGradient>
	<polygon class="st3" points="186.2,61.3 186.2,61.3 186.2,61.3 	"/>
	<polygon class="st4" points="186.2,67.1 186.2,61.4 181.3,58.6 181.3,64.2 	"/>
</g>
<g>
	<polygon class="st0" points="191.1,58.6 186.2,55.8 181.4,58.6 186.2,61.4 	"/>
</g>
<linearGradient id="SVGID_3_" gradientUnits="userSpaceOnUse" x1="160.4147" y1="21.824" x2="160.4147" y2="21.824" gradientTransform="matrix(-1 0 0 1 334.2047 0)">
	<stop  offset="0" style="stop-color:#62C5E8"/>
	<stop  offset="1" style="stop-color:#4D2181"/>
</linearGradient>
<polygon class="st5" points="173.8,21.8 173.8,21.8 173.8,21.8 "/>
<polygon class="st2" points="191,34.8 191,29.1 195.8,26.3 195.8,32 "/>
<polygon class="st2" points="175.6,42.8 175.6,37.2 180.5,34.4 180.5,40 "/>
<polygon class="st4" points="182.5,35.8 182.5,30.1 187.4,27.3 187.4,33 "/>
<polygon class="st2" points="186.6,47.8 186.6,42.1 191.5,39.3 191.5,44.9 "/>
<polygon class="st4" points="189.9,49.4 189.9,43.8 194.8,41 194.8,46.6 "/>
<polygon class="st0" points="193.5,36.7 193.5,31.1 198.4,28.3 198.4,33.9 "/>
<linearGradient id="SVGID_4_" gradientUnits="userSpaceOnUse" x1="160.4147" y1="21.824" x2="160.4147" y2="21.824" gradientTransform="matrix(-1 0 0 1 334.2047 0)">
	<stop  offset="0" style="stop-color:#6E1F81"/>
	<stop  offset="7.542050e-02" style="stop-color:#762584"/>
	<stop  offset="0.478" style="stop-color:#9D4191"/>
	<stop  offset="0.8002" style="stop-color:#B45299"/>
	<stop  offset="1" style="stop-color:#BD589C"/>
</linearGradient>
<polygon class="st6" points="173.8,21.8 173.8,21.8 173.8,21.8 "/>
<polygon class="st2" points="156.7,14.2 156.7,8.5 151.8,5.7 151.8,11.3 "/>
<polygon class="st2" points="172.2,34 172.2,28.3 167.3,25.4 167.3,31.1 "/>
<polygon class="st0" points="174.9,31.9 174.9,26.3 170.1,23.4 170.1,29.1 "/>
<polygon class="st0" points="172.7,9.5 172.7,3.8 167.9,1 167.9,6.6 "/>
<polygon class="st0" points="163.1,23.8 163.1,18.1 158.2,15.3 158.2,21 "/>
<polygon class="st2" points="193.1,18.3 188.2,15.5 183.3,18.3 188.2,21.2 "/>
<polygon class="st4" points="168.8,11.4 163.9,8.5 159.1,11.4 163.9,14.2 "/>
<polygon class="st4" points="174.9,18.5 170,15.7 165.2,18.5 170,21.3 "/>
<polygon class="st2" points="179.7,18.1 174.8,15.3 169.9,18.1 174.8,20.9 "/>
<polygon class="st4" points="178.2,15.5 178.2,9.8 183.1,7 183.1,12.7 "/>
<polygon class="st4" points="182.3,26.6 182.3,20.9 187.2,18.1 187.2,23.8 "/>
<g>
	<path class="st7" d="M5.8,53.2v12.5H1.8V51.8c0-1.7-0.2-3.4-0.5-5.2H5c0.2,1.1,0.3,1.9,0.4,3.2c1.3-1.9,2.8-3.8,5.6-3.8
		c1.1,0,2.2,0.3,2.7,0.8l-1.2,3.8c-0.6-0.4-1.8-0.6-2.4-0.6C8.2,49.9,6.9,51.6,5.8,53.2z"/>
	<path class="st7" d="M15.9,48.4c1.7-1.1,5.2-2.5,9.1-2.5c4.3,0,8.7,1.4,8.7,5.6v10.7c0,1,0.1,2.4,0.5,3.5h-4.1
		c-0.2-0.6-0.4-1.6-0.5-2.4c-1.5,1.3-3.6,2.8-7.3,2.8c-4.6,0-7.5-2.7-7.5-6.6c0-3.4,3.1-6.1,8.8-6.1c2.1,0,4.6,0.5,6,1.5v-2.1
		c0-2.3-2.1-3.3-4.8-3.3c-3,0-6.1,1.4-7.5,2.3L15.9,48.4z M29.6,60V58c-0.9-0.6-2.9-1.4-5.3-1.4c-4,0-5.4,1.3-5.4,2.9
		c0,1.8,1.5,3.2,4.3,3.2C26.7,62.7,29.2,60.4,29.6,60z"/>
	<path class="st7" d="M53.4,65.7c-0.2-0.8-0.3-1.8-0.3-2.7c-0.8,1.3-3.2,3.3-6.3,3.3c-5.2,0-9.4-4-9.4-10.2c0-6.1,4.3-10.2,9.4-10.2
		c2.1,0,4.2,0.9,5.9,2.6V38.3h4.1v22.1c0,1.7,0,3.5,0.4,5.3H53.4z M41.9,56.1c0,4,2.4,6.7,5.3,6.7c2.9,0,4.9-1.9,5.5-2.7v-7.9
		c-1.6-1.6-3.5-2.7-5.5-2.7C44.3,49.5,41.9,52.1,41.9,56.1z"/>
	<path class="st7" d="M62.2,65.7V46.6h4.1v19.2H62.2z"/>
	<path class="st7" d="M80.1,45.9c6.1,0,10.2,4.5,10.2,10.2c0,5.8-4.1,10.2-10.2,10.2C74,66.3,70,61.8,70,56.1
		C70,50.5,74,45.9,80.1,45.9z M80.1,62.9c3.8,0,6-3.1,6-6.8c0-3.6-2.2-6.7-6-6.7c-3.7,0-5.9,3.2-5.9,6.7
		C74.2,59.8,76.4,62.9,80.1,62.9z"/>
	<path class="st7" d="M110.8,65.7h-4.1v-13c0-1.7-1.5-3.2-3.5-3.2c-2.1,0-3.7,1.5-4.8,3.1v13.1h-4.1V51.8c0-1.7-0.1-3.4-0.5-5.2h3.7
		c0.2,1,0.3,1.7,0.4,2.8c1.3-1.7,3-3.5,6-3.5c2.8,0,5.2,1.5,6.3,3.8c1.3-2.1,3.3-3.8,6.2-3.8c3.9,0,7,2.9,7,6.8v13h-4.1v-13
		c0-1.7-1.5-3.2-3.5-3.2c-2.1,0-3.7,1.5-4.8,3.1V65.7z"/>
	<path class="st7" d="M128.2,65.7V46.6h4.1v19.2H128.2z"/>
	<path class="st7" d="M152.2,51.8c-1.5-1.5-3.6-2.3-5.5-2.3c-3.2,0-5.8,2.6-5.8,6.5c0,4,2.7,6.6,6,6.6c2.4,0,4.3-1.2,5.7-2.6
		l2.7,2.6c-0.8,1-3.8,3.6-8.8,3.6c-5.4,0-10.1-4-10.1-10.2c0-6.1,4.6-10.2,10.2-10.2c2.9,0,5.9,1,8.2,3.1L152.2,51.8z"/>
	<path class="st7" d="M173.2,51.2c-1.3-0.7-4.3-1.9-7.1-1.9c-2.1,0-3.9,0.7-3.9,2.2c0,1.9,3,2.1,4.7,2.2c3.4,0.2,9.1,0.5,9.1,6
		c0,4.6-3.9,6.7-9,6.7c-4.5,0-7.6-1.7-9.5-2.9l1.5-3.1c1.8,1.1,4.4,2.6,7.9,2.6c2.8,0,4.9-1,4.9-2.9c0-2.2-2.9-2.4-5-2.5
		c-4-0.2-8.8-0.6-8.8-5.6c0-4.7,4.2-6.1,7.9-6.1c3.6,0,7.2,1.3,8.7,2.2L173.2,51.2z"/>
	<rect x="128.2" y="38.3" class="st7" width="4" height="4"/>
	<rect x="62.2" y="38.2" class="st7" width="4" height="4"/>
</g>
</svg>
