<svg xmlns="http://www.w3.org/2000/svg" version="1.1" width="600px" height="600px" viewBox="0 0 200 200" style="overflow:hidden!important;"><g id="svga-group-wrapper"><g id="svga-group-backs-single"><path id="SvgjsPath52946" d="M0 0h200v200H0V0z" fill="#e0dac5" stroke-width="none" opacity="1" stroke="none"></path><path id="SvgjsPath52947" d="M0 70.8 39.2 200l39.2-86.3L0 9.9v60.9zM200 0h-47.6l23 37.5L200 0zm-28.9 104.9 16.5-40.7-70.5-26.8 54 67.5zM51.3 200h101.1v-33.1l-73.9 19.5L51.3 200zm27.2-86.3 73.9 53.2L78.5 0v113.7z" fill="#d1c6a3" stroke-width="none" opacity="1" stroke="none"></path><path id="SvgjsPath52948" d="m134.4 0 2 130.8L176.2 0h-41.8zm18 166.9 47.6-14.5v-21.5L171.1 105l-18.7 61.9zm22.9-129.4 12.3 26.8 12.4 6.9V0l-24.7 37.5zm-58.2 0L96.7 26.6 117.1 0 81 18.3 46.7 0h-28l56.2 21.4L0 59.3v93.1L94.8 29l22.3 8.5zM0 200h94.2l42.2-69.2L0 189.1V200z" fill="#c1b483" stroke-width="none" opacity="1" stroke="none"></path><path id="SvgjsPath52949" d="M104.4 70.8 91.1 13.5 166.2 0 90 8.6 88 0H68.2l3.5 10.6L0 18.7v11.1l73.7-13.2 19.5 59-65.3 28L0 70.8v5.4l24 29.2-24 10.2 24.5-9.6 57.4 69.8L51.3 200h27.2l11.1-14.9 12.3 14.9h7.9l-16.7-19.6 24.1-32.4 17.2 52.1-29.2-125.6 94.8-37v-7.6l-95.6 40.9zm12.7 77.1-30.9 24.4-57.7-67.9 65.7-25.7 22.9 69.2zm70.5 52.1H200l-47.6-95.1 35.2 95.1z" fill="#ffffff" stroke-width="none" opacity="1"></path></g><g id="svga-group-humanwrap-move" transform="matrix(1,0,0,1,0,0)"><g id="svga-group-humanwrap" transform="matrix(0.8999996000000001,0,0,0.8999996000000001,10.000039237057479,12.785051368882733)"><g id="svga-group-hair-back-move" transform="matrix(1,0,0,1,0,0)"><g id="svga-group-hair-back"><path id="SvgjsPath52916" d="m61.9 125.5 1.3 15.8s0 6.9-.2 7.4-.6 6-.6 6l1.7 2.5 3.9-1.7-.5-8.2.2-9.8.5-4.9s.8 9.3.8 9.8.2 10.4.2 10.4l-.2 6.3 2.2 3 2.7-2.4-1.1-12.6.9-11.7.8 3s-.2 9.6-.2 10.1.6 11.7.6 11.7l2.1 2.7 6.8-10.4-2.5-14.7-6-10.7-8-2.8-4.7-.6-.7 1.8z" fill="#1e1d1c" stroke-width="none" opacity="1" stroke="none"></path><path id="SvgjsPath52917" d="m80.9 102.3-20.5-3.4 1.5 26.6 1.3 15.8s0 6.9-.2 7.4-.6 6-.6 6l1.7 2.5 1.3-.6-1.2-3.4.5-24 3.4 2.4v1.3-.4s.8 9.3.8 9.8.2 10.4.2 10.4l-.2 6.3 2.2 3 1.3-1.1-1.2-4.6-.5-23.3 2.9.5.1 2 .8 2.9s-.2 9.6-.2 10.1.6 11.7.6 11.7l2.1 2.7.4-.7 5-17.4-1.5-42.5zm57.2 23.2-1.3 15.8s0 6.9.2 7.4.6 6 .6 6l-1.7 2.5-3.9-1.7.5-8.2-.2-9.8-.5-4.9s-.8 9.3-.8 9.8-.2 10.4-.2 10.4l.2 6.3-2.2 3-2.7-2.4 1.1-12.6-.9-11.7-.8 3s.2 9.6.2 10.1-.6 11.7-.6 11.7l-2.1 2.7-6.8-10.4 2.5-14.7 6-10.7 8-2.8 4.7-.6.7 1.8z" fill="#0f0d0c" stroke-width="none" opacity="1" stroke="none"></path><path id="SvgjsPath52918" d="m116.1 102.3 21.6-8 .3 31.3-1.3 15.8s0 6.9.2 7.4.6 6 .6 6l-1.7 2.5-1.3-.6 1.2-3.4-.5-24-3.4 2.4v1.3-.4s-.8 9.3-.8 9.8-.2 10.4-.2 10.4l.2 6.3-2.2 3-1.3-1.1 1.2-4.6.5-23.3-2.9.5-.1 2-.8 2.9s.2 9.6.2 10.1-.6 11.7-.6 11.7l-2.1 2.7-.4-.7-5-17.4-1.4-42.6z" fill="#1e1d1c" stroke-width="none" opacity="1" stroke="none"></path></g></g><g id="svga-group-humanbody-back"><path id="SvgjsPath52782" d="m170 180.3-27.3-6.9-18-9.9-1.5-28.2H76.8l-1.5 28.2-18 9.9-27.3 6.9-9.1 19.7-3 20h164.2l-3-20z" fill="#eea774" stroke-width="none" opacity="1"></path><path id="SvgjsPath52783" d="m76.8 135.3-1.5 28.2-18 9.9-27.3 6.9-9.1 19.7-3 20h14.6v-20l2.7-17.7 23.8-6.4 24.7-8.3 3.5-32.3z" fill="#cf793c" stroke-width="none" opacity="1"></path></g><g id="svga-group-chinshadow-single"><path id="SvgjsPath52778" d="m108.1 161.8 7.7-14.6s3.7-3.4 7.7-7.1l-.3-4.8H76.8l-.5 9.8c1.4 1.3 2.4 2.2 2.4 2.2l7.7 14.6h5.5l5.4-.9 5.4.9 5.4-.1z" fill="#c06524" stroke-width="none" opacity="1"></path></g><g id="svga-group-humanbody-front"><path id="SvgjsPath52784" d="m92.8 168.3 2 7.9 6.9 4.6s-8.5-3-8.7-3.6c-.2-.6-.2-8.9-.2-8.9z" fill="#cf793c" stroke-width="none" opacity="1"></path></g><g id="svga-group-clothes-single"><path id="SvgjsPath52659" d="m69.5 182.7 18.5 17 12.3 8.5 13.9-8.9 21-19.1V220H70.6z" fill="#ededed" stroke-width="none" opacity="1"></path><path id="SvgjsPath52660" d="m80.1 220-4.6-31.8-6-5.5.7 22.9 6.2 14.4z" fill="#d8d8d8" stroke-width="none" opacity="1"></path><path id="SvgjsPath52661" d="m75.3 163.5.6-11.1-23.3 15.9 1.3 1.1L26 180.2l-3.1.9-3.6 18.9-3.1 20h62l-6.8-40 3.9-16.5zM183.9 220l-3.1-20-3.7-18.9-3.1-.9-27.8-10.8 1.3-1.1-23.3-15.9.6 11.1 4 16.5-6.8 40h61.9z" fill="#864025" stroke-width="none" opacity="1"></path><path id="SvgjsPath52662" d="m45.7 189.1 17.6-16.9 7.3-8.5-9 8.3-9.1-3.7 1.3 1.1L26 180.2l-3.1.9-3.6 18.9-3.2 20h12.3l2.9-32.5 1.4 1.9s4.7 12.7 5.1 13.2c.3.5 3.6 16.9 3.6 16.9L39 201.7l-5.8-13.4-1.9-1.9.2-1.8 26.2-12.8 2.3 1.4-17.6 16.3 18.1 15.1 10 15.3h1.9l-9.8-17.2-16.9-13.6zM71 175.9l.4 4.1 4-16.5.6-10.6-2.2 2.6-2.8 20.4zm75.2-6.5 1.3-1.1-9.1 3.7-9-8.3 7.3 8.5 17.6 16.9-16.9 13.7-9.8 17.2h1.9l10-15.3 18.1-15.1-17.6-16.3 6.2-3.9zm20.5 19-5.8 13.4-2.4 17.8s3.2-16.4 3.6-16.9 5.1-13.2 5.1-13.2l5.6-7.3-6.1 6.2zM129 175.9l-2.7-20.3-2.2-2.6.6 10.6 4 16.5.3-4.2z" fill="#773015" stroke-width="none" opacity="1"></path><path id="SvgjsPath52663" d="m149.3 188.7-15.1 13s-6.8 16.2-6.8 16.8 8.5-16 8.5-16l16.6-13.4-21.1-21.7 17.9 21.3zm-10.2-17.8 6-3-16.6-11.3 14.1 11.1-3.5 3.2zm31.1 10.4-5.3 4.9-3.6 10.9 4.9-10 7.2-6.2s-25.8-9.4-26.4-9.4l23.2 9.8zm5.7 2.1L177 200l4.9 17.2-6-33.8zm-105.8-16-3.4 12.1L76.9 219l-7.5-39 .7-12.6zm-8.1 7.3-14.7 14.1 15.5 12.3-12.4-11.5L62 174.7z" fill="#955238" stroke-width="none" opacity="1"></path></g><g id="svga-group-head" transform="matrix(1,0,0,1,0,0)"><g id="svga-group-ears-left-move" transform="matrix(1,0,0,1,0,0)"><g id="svga-group-ears-left"><path id="SvgjsPath52679" d="M64.4 98.1 54.2 87l-5.4 1.3 4.4 13.8-.1 8.8 4.1 8.5 3.8-.6 4.9-9.3z" fill="#eea774" stroke-width="none" opacity="1"></path><path id="SvgjsPath52680" d="m52.8 97.9-2.3-8.8L58 102l-1.4.2 2.1 5.5-.1 5.1-4-3.7-.1-10.8-2.1-4.5z" fill="#cf793c" stroke-width="none" opacity="1"></path><path id="SvgjsPath52681" d="M50.66 87.86 54.2 87l10.2 11.1 1.5 11.4-4.9 9.3-3.8.6-1.92-3.98c1.4 1.3 2.52 2.48 2.52 2.48l2.5-2s1-10.8 1.1-11.2c.1-.4-5.5-11.8-5.5-11.8l-5.24-5.04z" fill="#df8f56" stroke-width="none" opacity="1"></path></g></g><g id="svga-group-ears-right-move" transform="matrix(1,0,0,1,0,0)"><g id="svga-group-ears-right"><path id="SvgjsPath52682" d="M135.6 98.1 145.8 87l5.4 1.3-4.4 13.8.1 8.8-4.1 8.5-3.8-.6-4.9-9.3z" fill="#eea774" stroke-width="none" opacity="1"></path><path id="SvgjsPath52683" d="m147.2 97.9 2.3-8.8L142 102l1.4.2-2.1 5.5.1 5.1 4-3.7.1-10.8 2.1-4.5z" fill="#cf793c" stroke-width="none" opacity="1"></path><path id="SvgjsPath52684" d="M149.32 87.86 145.8 87l-10.2 11.1-1.5 11.4 4.9 9.3 3.77.58 1.96-4.01c-1.4 1.3-2.54 2.53-2.54 2.53l-2.5-2s-1-10.8-1.1-11.2c-.1-.4 5.5-11.8 5.5-11.8l5.23-5.04z" fill="#df8f56" stroke-width="none" opacity="1"></path></g></g><g id="svga-group-faceshape-wrap"><g id="svga-group-faceshape-single"><path id="SvgjsPath52763" d="M143.4 84.8c-.2-10.2-5.3-24.8-5.3-24.8-6.9-11.6-19.7-19.5-19.7-19.5-7.2-1.5-18.4-2.3-18.4-2.3s-11.1.8-18.4 2.3c0 0-12.8 7.9-19.7 19.5 0 0-5.1 14.5-5.3 24.8-.3.8 2.2 25.6 2.2 25.6l6.1 15.2c2.1 2.9 16.6 16.1 16.6 16.1l7.7 14.6h5.5l5.4-.9 5.4.9h5.5l7.7-14.6s14.4-13.2 16.6-16.1l6.1-15.2c-.2-.1 2.3-24.8 2-25.6z" fill="#eea774" stroke-width="none" opacity="1"></path><path id="SvgjsPath52764" d="m109.5 154.4-9.3-2.9-10 2.9-6.3-15.2-14.8-14.7-6.1-15.9s-2.3-22.9-2.5-23.8 5.2-22.4 5.2-22.4l17.5-19L99.9 40l18.5.5c-7.2-1.5-18.4-2.3-18.4-2.3s-11.1.8-18.4 2.3c0 0-12.8 7.9-19.7 19.5 0 0-5.1 14.5-5.3 24.8-.3.8 2.2 25.6 2.2 25.6l6.1 15.2c2.1 2.9 16.6 16.1 16.6 16.1l7.7 14.6h5.5l5.4-.9 5.4.9h5.5l7.7-14.6s14.4-13.2 16.6-16.1l-16.9 14.9-8.9 13.9z" fill="#cf793c" stroke-width="none" opacity="1"></path></g></g><g id="svga-group-mouth-single-move" transform="matrix(1,0,0,1,0,0)"><g id="svga-group-mouth-single"><path id="SvgjsPath52884" d="m82.7 123.9 1.5 4.2 10.2 9.1 13.4.1 8.6-8.4 1.1-5.2-17.4 4.4z" fill="#000000" stroke-width="none" opacity="1" transform="translate(0 2)"></path><path id="SvgjsPath52885" d="m100.1 128.1-17.4-4.2 1.9 4.1 15.4 3.5 16.1-2.8 1.4-5z" fill="#ffffff" stroke-width="none" opacity="1" transform="translate(0 2)"></path><path id="SvgjsPath52886" d="m81.8 123.6 18.3 4.8 18.8-5-19 3.3z" fill="#9b565f" stroke-width="none" opacity="1" transform="translate(0 2)"></path><path id="SvgjsPath52887" d="m117.4 121.1 1 2.4.2 2.7.7-2.4-.9-2.3-1-.4zm-34.9.5-.9 2.3.7 2.4.2-2.7 1-2.4-1 .4z" fill="#df8f56" stroke-width="none" opacity="1" transform="translate(0 2)"></path><path id="SvgjsPath52888" d="M96.6 140.1s1.4.8 1.6.8c.2 0 6.4-.1 6.4-.1l.7-.9-8.7.2z" fill="#cf793c" stroke-width="none" opacity="1" transform="translate(0 2)"></path></g></g><g id="svga-group-eyes-left-move" transform="matrix(1,0,0,1,0,0)"><g id="svga-group-eyes-left"><g id="svga-group-eyesback-left"><path id="SvgjsPath52719" d="M90.5 99.6s-.5-5.6-1.8-7.4c-.2-.2-14.7.2-17.9.3L72 99l1.9 1.5c0 .1 15.6-.4 16.6-.9z" fill="#ffffff" stroke-width="none" opacity="1"></path></g><g id="svga-group-eyesiriswrapper-left" transform="matrix(1,0,0,1,0,0)"><g id="svga-group-eyesiriscontrol-left" transform="matrix(1,0,0,1,0,0)"><g id="svga-group-eyesiris-left"><path id="SvgjsPath52799" d="m77.2 97.7-.8-5 3.8-3.3 4.8 1.8.9 5-3.9 3.2z" fill="#ddb332" stroke-width="none" opacity="1"></path><path id="SvgjsPath52800" d="m80.3 89.9 4.3 1.6.8 4.5-3.5 2.9-4.3-1.6-.8-4.5 3.5-2.9m-.1-1-4.3 3.6.9 5.5 5.2 1.9 4.3-3.6-.9-5.5-5.2-1.9z" fill="#d5aa26" stroke-width="none" opacity="1"></path><path id="SvgjsPath52801" d="m80.2 89.2 4.9 1.8.9 5.2-4 3.4-4.9-1.8-.9-5.2 4-3.4m-.1-.5-4.5 3.8 1 5.8 5.5 2 4.5-3.8-1-5.8-5.5-2z" fill="#be9105" stroke-width="none" opacity="1"></path><path id="SvgjsPath52802" d="m78.1 95.4.7-3.1 3-1 2.3 2.2-.6 3-3 1z" fill="#000000" stroke-width="none" opacity="1"></path><path id="SvgjsPath52803" d="M79.1 91.9h1.8v1.8h-1.8v-1.8z" fill="#ffffff" stroke-width="none" opacity="1"></path><path id="SvgjsPath52804" d="M81.5 96.3h1v1h-1v-1z" fill="#ffffff" stroke-width="none" opacity="1"></path></g></g></g><g id="svga-group-eyesfront-left"><path id="SvgjsPath52727" d="M67.1 89.3v11.9l7.9 8.4h11.2l7.9-8.4V89.3l-7.9-8.4H75l-7.9 8.4zm3.7 3.2c3.2-.1 17.7-.5 17.9-.3 1.3 1.8 1.8 7.4 1.8 7.4-1 .5-16.6 1-16.6 1L72 99l-1.2-6.5z" fill="#eea774" stroke-width="none" opacity="1"></path><path id="SvgjsPath52728" d="m89.8 95.1.3 4.3-3.1.5-.3-.5-2.3.8h2.1l.7 1.2 4.1-.1z" fill="#df8f56" stroke-width="none" opacity="1"></path><path id="SvgjsPath52729" d="m90.3 98.1-1.9-5.3H71.1l.2 1.6-1.4-.5-.6-1.9 21.2-.2-.9.7 1.3 7.1z" fill="#782c76" stroke-width="none" opacity="1"></path></g></g></g><g id="svga-group-eyes-right-move" transform="matrix(1,0,0,1,0,0)"><g id="svga-group-eyes-right"><g id="svga-group-eyesback-right"><path id="SvgjsPath52720" d="M109.5 99.6s.5-5.6 1.8-7.4c.2-.2 14.6.2 17.9.3L128 99l-1.9 1.5c0 .1-15.6-.4-16.6-.9z" fill="#ffffff" stroke-width="none" opacity="1"></path></g><g id="svga-group-eyesiriswrapper-right" transform="matrix(1,0,0,1,0,0)"><g id="svga-group-eyesiriscontrol-right" transform="matrix(1,0,0,1,0,0)"><g id="svga-group-eyesiris-right"><path id="SvgjsPath52805" d="m115 97.7-.9-5 3.9-3.3 4.8 1.8.8 5-3.8 3.2z" fill="#ddb332" stroke-width="none" opacity="1"></path><path id="SvgjsPath52806" d="m118.1 89.9 4.3 1.6.8 4.5-3.5 2.9-4.3-1.6-.8-4.5 3.5-2.9m-.2-1-4.3 3.6.9 5.5 5.2 1.9 4.3-3.6-.9-5.5-5.2-1.9z" fill="#d5aa26" stroke-width="none" opacity="1"></path><path id="SvgjsPath52807" d="m118 89.2 4.9 1.8.9 5.2-4 3.4-4.9-1.8-.9-5.2 4-3.4m-.1-.5-4.5 3.8 1 5.8 5.5 2 4.5-3.8-1-5.8-5.5-2z" fill="#af8400" stroke-width="none" opacity="1"></path><path id="SvgjsPath52808" d="m115.9 95.4.6-3.1 3-1 2.4 2.2-.7 3-3 1z" fill="#000000" stroke-width="none" opacity="1"></path><path id="SvgjsPath52809" d="M116.9 91.9h1.8v1.8h-1.8v-1.8z" fill="#ffffff" stroke-width="none" opacity="1"></path><path id="SvgjsPath52810" d="M119.2 96.3h1v1h-1v-1z" fill="#ffffff" stroke-width="none" opacity="1"></path></g></g></g><g id="svga-group-eyesfront-right"><path id="SvgjsPath52730" d="M125 80.8h-11.2l-7.9 8.4v11.9l7.9 8.4H125l7.9-8.4V89.3l-7.9-8.5zm3 18.2-1.9 1.5s-15.6-.5-16.6-1c0 0 .5-5.6 1.8-7.4.2-.2 14.6.2 17.9.3L128 99z" fill="#eea774" stroke-width="none" opacity="1"></path><path id="SvgjsPath52733" d="m110.2 95.1-.3 4.3 3.1.5.3-.5 2.3.8h-2.1l-.7 1.2-4.1-.1z" fill="#df8f56" stroke-width="none" opacity="1"></path><path id="SvgjsPath52734" d="m109.7 98.1 1.9-5.3h17.3l-.2 1.6 1.4-.5.6-1.9-21.2-.2.9.7-1.3 7.1z" fill="#782c76" stroke-width="none" opacity="1"></path></g></g></g><g id="svga-group-facehighlight-single"></g><g id="svga-group-eyebrows-left-move" transform="matrix(1,0,0,1,0,0)"><g id="svga-group-eyebrows-left-rotate" transform="matrix(1,1.7453292519943295e-9,-1.7453292519943295e-9,1,1.394518136521583e-7,-1.3866640813375852e-7)"><g id="svga-group-eyebrows-left"><path id="SvgjsPath52633" d="m82.7 74.9-10.4-2.1-7.2 12.6 8.2-8 17.2 9.5 3.3-2.4-.8-4.6z" fill="#b7513b" stroke-width="none" opacity="1"></path><path id="SvgjsPath52634" d="m72.5 76.4-7.4 9.1 8.5-6.6L90.5 87l3.3-2.4-.1-.6c-1.6 1-3.5 2.1-3.5 2.1l-4.7-7.4 1.6 5.3-6.9-4.1-4.3-4.4 1.6 3.2-5-2.3z" fill="#a83c25" stroke-width="none" opacity="1"></path><path id="SvgjsPath52635" d="m76.4 73.6 4.4 4.9-2.6-4.5-1.8-.4zm11.1 3.6 3.1 6.5-1.1-5.5-2-1zm-15.7-3.7 2.9 1.9-2.4-2.6-.5.7z" fill="#c66854" stroke-width="none" opacity="1"></path></g></g></g><g id="svga-group-eyebrows-right-move" transform="matrix(1,0,0,1,0,0)"><g id="svga-group-eyebrows-right-rotate" transform="matrix(1,1.7453292519943295e-9,-1.7453292519943295e-9,1,1.3936454479335225e-7,-2.1039943476353073e-7)"><g id="svga-group-eyebrows-right"><path id="SvgjsPath52636" d="m107 79.9-.8 4.6 3.3 2.4 17.2-9.5 8.2 8-7.2-12.6-10.4 2.1z" fill="#b7513b" stroke-width="none" opacity="1"></path><path id="SvgjsPath52637" d="m122.5 78.6 1.6-3.2-4.3 4.4-6.9 4.1 1.6-5.3-4.7 7.4s-1.9-1.1-3.5-2.1l-.1.6 3.3 2.4 16.9-8.1 8.5 6.6-7.4-9.1-5 2.3z" fill="#a83c25" stroke-width="none" opacity="1"></path><path id="SvgjsPath52638" d="m121.8 74-2.5 4.5 4.4-4.9-1.9.4zm-11.2 4.2-1.1 5.5 3.1-6.5-2 1zm17.1-5.4-2.4 2.6 2.9-1.9-.5-.7z" fill="#c66854" stroke-width="none" opacity="1"></path></g></g></g><g id="svga-group-beardwrap"><g id="svga-group-beard-single-move" transform="matrix(1,0,0,1,0,0)"><g id="svga-group-beard-single"></g></g></g><g id="svga-group-mustache-single-move" transform="matrix(1,0,0,1,0,0)"><g id="svga-group-mustache-single"></g></g><g id="svga-group-nose-single-move" transform="matrix(1,0,0,1,0,0)"><g id="svga-group-nose-single"><path id="SvgjsPath52860" d="M95.61 108.49H93.8l-1.54 8.24 3.42.42 3.28 5.52 2.94.07 3.49-5.73 3.28-.42-1.67-8.03-1.89-.14-1.12-11.46-3.49-4.12-3.77 4.54z" fill="#eea774" stroke-width="none" opacity="1" transform="translate(0 1)"></path><path id="SvgjsPath52861" d="m107.24 108.16-1.71-.1-2.47-20.99 1.9 24.11.29-1.85 1.23-.49 1.52 7.32-2.28.19-.19-1.17.76-.78h-1.14l-3.13 7.42h-3.24l-3.13-7.42h-1.14l.76.78-.19 1.17-2.28-.19 1.52-7.32 1.23.49.29 1.85 1.9-24.11-2.47 20.99-1.71.1-2 9.07 3.33.3 3.99 5.56h3.04l3.99-5.56 3.33-.3z" fill="#cf793c" stroke-width="none" opacity="1" transform="translate(0 1)"></path><path id="SvgjsPath52862" d="M101.2 118.96s2.39-7.16 2.25-7.58c-.14-.42-2.11-20.79-2.11-20.79l-.56 19.8.42 8.57z" fill="#f6b484" stroke-width="none" opacity="1" transform="translate(0 1)"></path></g></g><g id="svga-group-hair-front"><path id="SvgjsPath52914" d="m143.8 81.9-.1-9.4-1.8-.9-1-10.5-1.8-.2-2.6-7.7-1.9-.4-3.7-6.7-2.6.2-4.1-4.8-2.6-.2-4.9-3.9-2.8.7-5.5-2.4-3.7 1.4-4.7-1.4-4.7 1.4-3.7-1.4-5.5 2.4-2.8-.7-4.9 3.9-2.6.2-4.1 4.8-2.5-.2-3.8 6.7-1.9.4-2.7 7.7-1.7.2-1 10.5-1.8.9-.1 9.4-1.4 1.3 4.1 12.2 3-3.7-1.6-8 3.5-1.8-.7-8.7 2.6-1.1 1-6.7 4.4-1 1.3-5.7 5.1-.8 1-4.7 4.6.2 3-3.4 4.8 2.7 4.9-2.5 4 2.3v.2l.2-.1.2.1v-.2l4-2.3 4.9 2.5 4.8-2.7 3 3.4 4.6-.2 1 4.7 5.1.8 1.3 5.7 4.5 1 .9 6.7 2.6 1.1-.7 8.7 3.5 1.8-1.6 8 3 3.7 4.1-12.2z" fill="#1e1d1c" stroke-width="none" opacity="1" stroke="none"></path><path id="SvgjsPath52915" d="M95.4 38.1c-.3 1.9-.3 3.8-.3 5.8.1 1.9.3 3.8.7 5.7.3-1.9.3-3.8.3-5.8-.1-1.9-.2-3.8-.7-5.7zm-10 6.4c0 1.7.1 3.4.5 5.1.4-1.7.5-3.4.5-5.1 0-1.7-.1-3.4-.5-5.1-.4 1.7-.5 3.4-.5 5.1zm-6.7-1.7c-.5 1.4-.7 2.9-.9 4.3 0 .8.1 1.5.2 2.3.1.8.2 1.5.4 2.3.2-.8.3-1.6.3-2.3.1-.8.1-1.5.1-2.3.1-1.4.1-2.9-.1-4.3zm-6.4 7.4c0-.7-.1-1.4-.2-2.2-.2.7-.4 1.4-.5 2.1l-.3 2.1c.1.9.2 1.9.3 2.8.2.9.3 1.8.7 2.8.2-1 .2-1.9.2-2.8 0-.9-.1-1.8-.2-2.8v-2zm-6.4 4.1c-.5 1.7-.7 3.3-.8 5 .3 1.7.6 3.3 1.2 5 .1-1.7 0-3.4-.2-5 .1-1.6.1-3.3-.2-5zm-4 10.9c-.2-.8-.4-1.6-.7-2.4-.1.8-.1 1.7-.1 2.5s.1 1.6.2 2.4c.3 1.6.7 3.2 1.4 4.8.1-1.7-.1-3.3-.4-4.9-.1-.8-.2-1.7-.4-2.4zm-3.4 8.9c-.2 1.5-.1 3 .1 4.4.2 1.5.5 2.9 1.1 4.3.2-1.5.1-3-.1-4.4-.3-1.4-.6-2.9-1.1-4.3zm45.4-30.3c-.1 1.9-.1 3.8.3 5.8.5-1.9.6-3.8.7-5.7.1-1.9.1-3.8-.3-5.8-.5 1.9-.6 3.8-.7 5.7zm9.7.7c0 1.7.1 3.4.5 5.1.4-1.7.5-3.4.5-5.1 0-1.7-.1-3.4-.5-5.1-.4 1.7-.5 3.4-.5 5.1zm7.7-1.7c-.3 1.5-.2 2.9-.1 4.4 0 .8 0 1.5.1 2.3.1.8.2 1.6.3 2.3.2-.8.3-1.5.4-2.3.1-.8.1-1.5.2-2.3-.1-1.6-.3-3-.9-4.4zm7.1 7.3c-.1-.7-.3-1.4-.5-2.1-.1.7-.2 1.5-.2 2.2 0 .7 0 1.4.1 2.1-.1.9-.1 1.8-.2 2.8 0 .9 0 1.9.2 2.8.3-.9.5-1.8.7-2.8.1-.9.2-1.8.3-2.8-.1-.8-.2-1.5-.4-2.2zm5.7 4.2c-.3 1.7-.3 3.3-.2 5-.2 1.7-.4 3.3-.2 5 .6-1.6 1-3.3 1.2-5-.1-1.7-.3-3.3-.8-5zm4 10.9c-.2.8-.3 1.6-.4 2.4-.3 1.6-.5 3.2-.4 4.9.7-1.5 1.1-3.1 1.4-4.8.1-.8.2-1.6.2-2.4 0-.8 0-1.7-.1-2.5-.4.8-.6 1.6-.7 2.4zm3.5 8.9c-.6 1.4-.9 2.8-1.1 4.3-.2 1.5-.3 2.9-.1 4.4.6-1.4.9-2.8 1.1-4.3.1-1.4.3-2.8.1-4.4z" fill="#0f0d0c" stroke-width="none" opacity="1" stroke="none"></path></g><g id="svga-group-glasses-single-move" transform="matrix(1,0,0,1,0,0)"><g id="svga-group-glasses-single"></g></g></g></g></g><rect id="svga-credit-rect" width="200" height="15" x="0" y="185" fill="#ecf0f1" opacity="0.5" style="display: none;"></rect><text id="svga-credit-text" font-family="Avenir Next, Roboto, Helvetica, Arial, sans-serif" font-size="10px" text-anchor="start" font-weight="400" size="10px" anchor="start" weight="400" fill="#333333" x="33.40447998046875" y="182.60824704170227" style="display: none;"><tspan id="SvgjsTspan52627" dy="13" x="33.40447998046875">Created on AvatarMaker.com</tspan></text></g><defs id="SvgjsDefs52574"></defs></svg>