<svg xmlns="http://www.w3.org/2000/svg" version="1.1" width="600px" height="600px" viewBox="0 0 200 200" style="overflow:hidden!important;"><defs id="SvgjsDefs17221"></defs><g id="svga-group-wrapper"><g id="svga-group-backs-single"><path id="SvgjsPath18014" d="M0 0h200v200H0V0z" fill="#cdb380" stroke-width="none" opacity="1"></path><path id="SvgjsPath18015" d="M88.8 158.9s-21.3-3-23.6-17.1c-1.5-9.3 10.5-9.3 14.8-5.5 0 0 3.3-8.7 9.9-7.2 8.4 1.9 9.2 12.7-1.1 29.8zM38.7 51s14.9-16.3 6.8-30.1c-5.3-9.2-14.9-1.5-15.7 4.6 0 0-8.8-5.6-13 0-5.4 7 1.6 17 21.9 25.5zM168 165s-2.6-14.4 1.6-22.7 14.8-4 13.3 4.9c0 0 8.2-2 10.6 4.5 2.3 6.4-10 12.7-25.5 13.3zm6.6-139.5s5.2-1.9 5.9-4.8c.8-3-3-3.5-4.5-1.6 0 0-1.1-2.8-3.1-2.2-1.9.5-2.2 2.6 1.7 8.6z" fill="#ae8d4a" stroke-width="none" opacity="1"></path><path id="SvgjsPath18016" d="M125 33.1s-13-1.2-19.2-6.8.1-13.7 7.4-10.3c0 0 .2-7.6 6.3-8 6.2-.5 8.7 11.5 5.5 25.1zm15.9 84.9s3.6-4.2 2.8-7.1c-.8-3-4.4-1.6-4.7.8 0 0-2.4-1.9-3.8-.4s-.6 3.4 5.7 6.7zm12.2 66.9s7.1-.7 9-4.2-2.7-5.4-5.2-3.4c0 0-.5-3.9-3.2-3.8s-3.6 2.7-.6 11.4zm-122.9 5.7s23.3-3.5 29-15.3-9.8-17.2-17.5-10.6c0 0-2.3-12.8-11-11.9s-11.7 9.5-.5 37.8zm3.5-106.7s3.3-12.8-1.5-18.3-11 1.3-9.3 6.7c0 0-7.1-1.6-8.5 3-1.4 4.8 2.3 8.2 19.3 8.6z" fill="#be9f63" stroke-width="none" opacity="1"></path><path id="SvgjsPath18017" d="M149.4 76.1s-24.7-19.3-16.5-40.8c5.4-14.2 20.6-5.7 23.2 2.7 0 0 11-10 18.2-3.2 9.1 8.6 1.6 24.4-24.9 41.3zm7 29.6s-4.5-12.3-2-20.2 12.4-5.8 12.4 2.3c0 0 6.9-3 10 2.3 3 5.4-6.9 12.7-20.4 15.6zM53.9 143.9s-13-1.2-19.2-6.8.1-13.7 7.4-10.3c0 0 .2-7.6 6.3-8s8.7 11.6 5.5 25.1zm89.6 23.3s-4.6-9.3-3.3-15.7c1.2-6.5 9.3-5.6 10 .8 0 0 5.2-3 8 1s-4.3 10.5-14.7 13.9zM65.3 46s5.8-6.7 4.5-11.4-7-2.5-7.5 1.2c0 0-3.8-3.1-6-.7-2.2 2.4-1 5.6 9 10.9zm-40.7 81.2s4.7-5.4 3.7-9.3-5.7-2-6.1 1c0 0-3.1-2.5-4.9-.6s-.8 4.6 7.3 8.9zm53 60.3s5.2-1.9 5.9-4.8-3-3.5-4.5-1.6c0 0-1.1-2.8-3.1-2.2-1.8.6-2.1 2.7 1.7 8.6zm47.7-12.7s4.7-5.4 3.7-9.3c-1-3.9-5.7-2-6.1 1 0 0-3.1-2.5-4.9-.6-1.9 2-.9 4.6 7.3 8.9zm-22.6-132s4.7-5.4 3.7-9.3-5.7-2-6.1 1c0 0-3.1-2.5-4.9-.6-1.9 2-.9 4.6 7.3 8.9zM77.3 94.4s8.8-4.2 9.6-9.5-5.9-5.6-8.2-2.1c0 0-2.5-4.8-5.8-3.3-3.2 1.4-3.4 5.1 4.4 14.9z" fill="#c5a971" stroke-width="none" opacity="1"></path></g><g id="svga-group-humanwrap-move" transform="matrix(1,0,0,1,0,0)"><g id="svga-group-humanwrap" transform="matrix(1.1000003000000003,0,0,1.1000003000000003,-9.95502921649954,-12.840462868196909)"><g id="svga-group-hair-back-move" transform="matrix(1,0,0,1,0,0)"><g id="svga-group-hair-back" transform="matrix(1,0,0,1,0,0)"><path id="SvgjsPath17931" d="M85.5 39.3s-26 4.5-33.6 29.6-.6 18.1-3.4 35.8.8 26.5 4.8 30.5c0 0-4.2 8.8 1.1 16.4 0 0-5.1 3.7-2.8 11.3 0 0-6.8 3.4-2.8 14.9 4 11.6 15.8 8.5 18.9 4.2 3.1-4.2 45.2-28.2 49.7-29.6s18.6-9.6 22.3-22.9c0 0 9-11.8 5.9-30.2 0 0 5.1-14.7.9-28.5s-13.3-22-21.2-22.3-34.4-6.2-34.4-6.2l-5.4-3z" fill="#504543" stroke-width="none" opacity="1" stroke="none"></path><path id="SvgjsPath17932" d="M57.7 65.3s-6 10.5-6.2 18.1 0 14.7-1.7 22.9 2 15 8.8 19.8c6.8 4.8 9.7 11.5 11.7 15.2s20.9 10.4 16.7-12.8c-1.5-7.9-24.4-54-25.2-57.1s-4.1-6.1-4.1-6.1zm77.6 21.2s7.1 11 6.2 21-2 20.1-7.6 27.2c-5.7 7.1-16.7 10.8-16.7 10.8l8.5-28.9 9.6-30.1z" fill="#483b39" stroke-width="none" opacity="1" stroke="none"></path></g></g><g id="svga-group-humanbody-back"><path id="SvgjsPath17525" d="m168.5 219.5-1.7-21.5s.7-9-8.8-15.3-23.4-10.1-29.5-14.2c-6.1-4.1-9.2-4.5-9-16.9s.9-40.3.9-40.3H79.6s.7 27.9.9 40.3c.2 12.4-2.9 12.8-9 16.9-6.1 4.1-20 7.9-29.5 14.2S33.2 198 33.2 198l-1.6 21.5h136.9z" fill="#f6e4e2" stroke-width="none" opacity="1" stroke="none"></path></g><g id="svga-group-chinshadow-single"><path id="SvgjsPath17773" d="M83.1 156.9c5 5.2 12.1 7.4 16.9 7.4s12-2.1 16.9-7.4c.86-.92 1.73-1.91 2.61-2.96-.02-.73-.02-1.5-.01-2.34.2-12.4.9-40.3.9-40.3H79.6s.7 27.9.9 40.3c.01.85.01 1.64-.01 2.38.88 1.04 1.76 2.01 2.61 2.92z" fill="#d7a19b" stroke-width="none" opacity="0.65" stroke="none"></path></g><g id="svga-group-humanbody-front"><path id="SvgjsPath17526" d="M73.8 175.9c5.1 2.9 11.8 5.2 17.6 5.7.4 0 .4-.6.1-.7-2.8-1.1-5.9-1.7-8.8-2.6-2.9-.9-5.8-2-8.8-2.7-.1-.1-.3.2-.1.3zm35.2 6.2c5.3-.6 11.3-3 15.9-5.8.3-.2.1-.6-.2-.5-2.6.9-5.2 2-7.8 2.9-2.6.9-5.4 1.5-8 2.5-.5.1-.5.9.1.9z" fill="#d7a19b" stroke-width="none" opacity="1" stroke="none"></path><path id="SvgjsPath17527" d="m168.4 219.4-2.1-21.4c0-2.2-.5-4.5-1.5-6.6-.9-2.1-2.3-3.9-3.9-5.5s-3.5-2.8-5.5-4c-2-1.2-4.1-2.2-6.2-3.1-4.2-1.9-8.6-3.6-12.9-5.4-2.2-.9-4.3-1.9-6.4-3-1.1-.6-2.1-1.2-3-1.9-1-.6-2-1.2-3-1.9s-2-1.5-2.8-2.6c-.8-1-1.3-2.2-1.7-3.4-.7-2.4-.8-4.8-.8-7.2 0-4.7.2-9.4.3-14.1.2-9.4.6-18.7.9-28l.6.6-20.4-.2-20.4-.1.3-.3.7 28c.1 4.7.3 9.3.4 14 0 2.4-.1 4.7-.8 7.1-.3 1.2-.9 2.3-1.6 3.3-.8 1-1.7 1.8-2.7 2.5s-2 1.3-2.9 2c-.9.6-1.9 1.3-3 1.9-2.1 1.2-4.2 2.1-6.4 3.1-4.3 1.9-8.6 3.6-12.8 5.6-2.1 1-4.2 2.1-6.1 3.2-2 1.2-3.8 2.4-5.4 4-1.6 1.6-2.9 3.4-3.8 5.4-.4 1-.8 2.1-1 3.1-.2 1.1-.4 2.2-.3 3.2v.2l-1.5 21.5-1-1.1 34 .1c11.3 0 22.7.1 34.1.2l34.2.3 34.4.5zm.2.2-34 .4-34.2.3c-11.4.1-22.9.2-34.4.2l-34.4.1h-1.1l.1-1.1 1.7-21.5v.1c-.1-5.1 2.2-9.8 5.7-13.3 1.7-1.7 3.8-3.1 5.8-4.3 2-1.2 4.2-2.2 6.3-3.2 4.3-2 8.7-3.7 13-5.4 2.1-.9 4.3-1.8 6.3-2.9 1-.5 1.9-1.1 3-1.8 1-.6 2-1.2 2.9-1.9.9-.6 1.8-1.4 2.4-2.2.7-.9 1.2-1.9 1.5-2.9.6-2.1.8-4.5.8-6.8 0-4.6-.1-9.3-.2-14l-.6-28v-.3h.3l20.4-.1 20.4-.2h.6v.6c-.1 9.3-.2 18.7-.4 28-.1 4.7-.2 9.4-.2 14 .1 2.3.2 4.6.8 6.7.3 1.1.8 2 1.4 2.9.6.8 1.4 1.6 2.4 2.2.9.6 1.9 1.3 2.9 1.9 1 .7 1.9 1.3 2.9 1.8 2 1.1 4.1 2.1 6.3 3 4.3 1.8 8.6 3.6 12.9 5.6 2.1 1 4.2 2.1 6.2 3.3 2 1.2 4 2.6 5.7 4.3 3.4 3.4 5.6 8.1 5.4 13v-.1l1.4 21.6zm-112.8-.4 1.9-13.8.1 13.8h-2zm88.6 0-1.9-13.8-.1 13.8h2z" fill="#c8837c" stroke-width="none" opacity="1" stroke="none"></path></g><g id="svga-group-clothes-single"><path id="SvgjsPath17905" d="M76.4 200.1c-6.6-13.5-9.4-30.5-9.4-30.5-2.2-.9-3.6.8-3.6.8-1.2-.4-3.4 1.5-3.4 1.5-2.2-.5-3.5 1.5-3.5 1.5-3.2 0-3.4 2-3.4 2s1.4 12.2 1.5 23.4c.1 11.1-2.4 21.2-2.4 21.2h39.4c.1 0-8.6-6.4-15.2-19.9zm68.9-1.3c.1-11.1 1.5-23.4 1.5-23.4s-.1-2-3.4-2c0 0-1.2-2-3.5-1.5 0 0-2.1-1.9-3.4-1.5 0 0-1.4-1.6-3.6-.8 0 0-2.8 17-9.4 30.5S108.3 220 108.3 220h39.4s-2.5-10.1-2.4-21.2z" fill="#152c5e" stroke-width="none" opacity="1"></path><path id="SvgjsPath17906" d="M91.9 219.7c-1.8-1.5-3.5-3.2-5-5-1.5-1.8-3-3.7-4.3-5.6-2.6-3.9-4.9-8.1-6.8-12.4-1.9-4.3-3.5-8.8-4.9-13.3-.7-2.3-1.3-4.6-2-6.9-.7-2.3-1.2-4.6-1.8-7-.7-.3-1.3-.4-2.1-.3-.3.1-.7.2-1 .3-.3.1-.5.3-.7.5-.3-.1-.7 0-1 0-.3.1-.7.2-1 .4l-1.5.9c-.7-.1-1.4-.1-2.1.2-.4.1-.7.4-1 .6l-.6.6c-.7 0-1.4.1-2.1.4-.4.2-.8.4-1.1.8-.3.4-.5.7-.6 1.3v.2c.3 3.7.6 7.4.7 11.1.2 3.7.3 7.4.4 11.1.1 3.7-.1 7.4-.5 11.1-.4 3.7-.9 7.4-1.7 10.9v.2c0 .5.4.9.9.9l9.9-.2 9.9-.2c3.3-.1 6.6-.2 9.9-.2h9.9c.1 0 .2 0 .3-.1.1.1.1-.1-.1-.3zm-10 0c-3.3 0-6.6-.1-9.9-.2l-9.9-.3-8.7-.1c.8-3.3 1.3-6.7 1.7-10 .5-3.8.7-7.6.5-11.3-.1-3.8-.3-7.5-.7-11.2-.3-3.7-.7-7.4-1.2-11.1 0-.1.1-.4.2-.5.2-.2.4-.4.6-.5.2-.1.5-.2.8-.3.3-.1.6-.1 1-.1.2 3.4.4 6.9.6 10.3.3 3.6.6 7.2.9 10.9l.5 5.4c.2 1.8.2 3.6.3 5.4v5.4c0 1.8-.1 3.6-.1 5.4.5-3.6.8-7.2.9-10.9.1-1.8 0-3.6-.1-5.5l-.5-5.4c-.4-3.6-.7-7.2-1.2-10.8-.4-3.4-.8-6.8-1.4-10.3.2 0 .3-.1.4-.2.1-.2.3-.5.5-.6.2-.2.5-.4.7-.5.5-.3 1.1-.3 1.7-.2.1 0 .2 0 .3-.1.4-.4.9-.8 1.4-1.1.5-.3 1.1-.6 1.6-.5.1 0 .2 0 .3-.1.2-.2.4-.4.7-.6.3-.2.5-.3.8-.4.3-.1.6-.1.9-.1.3 0 .6.1.9.1.5 4.7 1.5 9.4 2.7 14.1.3 1.2.6 2.3.9 3.5.4 1.1.7 2.3 1.1 3.4.7 2.3 1.6 4.5 2.6 6.8 1.9 4.4 4.3 8.7 7.2 12.5 2.7 3.6 5.8 6.9 9.3 9.7h-8.3zm-6.6-9.4c-1.3-3.1-2.3-6.4-3.3-9.6-1-3.3-1.9-6.5-2.9-9.8l-5.7-19.7c.8 3.3 1.6 6.6 2.4 10l2.6 9.9c.9 3.3 1.8 6.6 2.8 9.9.5 1.6 1 3.3 1.5 4.9.5 1.6 1.1 3.3 1.8 4.9.3.7.6 1.5.8 2.3.2.8.1 1.6-.3 2-.4.4-1.1.1-1.7-.4-.6-.5-1-1.2-1.3-2-1.2-3.1-1.8-6.5-2.7-9.8-.8-3.3-1.5-6.6-2.2-10l-2.2-10c1.1 6.7 2.3 13.5 3.7 20.1.3 1.7.7 3.3 1.1 5 .4 1.7.8 3.3 1.4 5 .3.8.8 1.6 1.5 2.3.3.3.8.6 1.3.8.5.2 1.2.1 1.6-.3.4-.4.6-.9.7-1.4.1-.5 0-1 0-1.4-.2-1.1-.5-1.9-.9-2.7zm-10.5-8.5c-.2-.7-.5-1.5-.7-2.2-.2-.7-.3-1.5-.5-2.2-.3-1.5-.5-3.1-.7-4.6l-2.7-18.6c.5 6.2 1.1 12.5 1.8 18.7.2 1.6.4 3.1.7 4.7.1.8.2 1.6.5 2.4.2.8.5 1.5.7 2.3 1 3 2.1 5.9 3 8.9.4 1.5.8 3 .8 4.4 0 .4-.1.7-.2.9-.2.2-.4.5-.7.6-.5.3-1.2.2-1.7-.2s-.8-1.1-1-1.8c-.2-.7-.3-1.5-.4-2.2l-.6-4.6-2.1-19c.3 6.3.8 12.5 1.3 18.8.1 1.6.3 3.1.5 4.7.1.8.2 1.6.4 2.4.2.8.6 1.6 1.3 2.2.7.7 1.8.9 2.7.4.4-.2.8-.5 1-1 .3-.5.3-.9.3-1.3.1-1.7-.4-3.2-.8-4.8-.8-3.1-1.9-6-2.9-8.9zm83.8 18c-.8-3.6-1.3-7.3-1.7-11-.4-3.7-.6-7.4-.5-11.1 0-3.7.2-7.4.4-11.1.2-3.7.5-7.4.7-11.1v-.2c-.1-.6-.3-1-.6-1.3-.3-.4-.7-.6-1.1-.8-.7-.3-1.4-.4-2.1-.4l-.6-.6c-.3-.2-.6-.4-1-.6-.6-.3-1.4-.3-2.1-.2-.5-.4-1-.7-1.5-.9-.3-.1-.6-.3-1-.4-.3-.1-.6-.1-.9 0-.2-.2-.5-.4-.7-.5-.3-.2-.6-.3-1-.3-.7-.1-1.4 0-2.1.3-.6 2.4-1.1 4.7-1.8 7-.6 2.3-1.3 4.6-2 6.9-1.4 4.5-3 9-4.9 13.3-1.9 4.3-4.2 8.4-6.8 12.4-1.3 2-2.7 3.9-4.3 5.6-1.5 1.8-3.2 3.5-5 5-.2.1-.2.3-.1.5.1.1.2.1.3.1 3.3-.1 6.6-.1 9.9 0 3.3 0 6.6.1 9.9.2l9.9.3 9.9.2c.5 0 .9-.4.9-.9-.1-.2-.1-.3-.1-.4zm-10.7-.6-9.9.3c-3.3.1-6.6.2-9.9.2h-8.9c3.5-2.8 6.6-6.1 9.3-9.7 2.9-3.8 5.3-8.1 7.2-12.5.9-2.2 1.8-4.5 2.6-6.8.4-1.1.7-2.3 1.1-3.4.3-1.2.6-2.3.9-3.5 1.2-4.6 2.2-9.4 2.7-14.1.3-.1.6-.1.9-.1.3 0 .6 0 .9.1.3.1.6.2.8.4s.5.4.7.6c.1.1.2.1.3.1.5-.1 1.1.2 1.6.5s1 .7 1.4 1.1c.1.1.2.1.3.1.6-.1 1.2 0 1.7.2.2.1.5.3.7.5.2.2.4.4.5.6.1.1.2.2.4.2-.5 3.4-.9 6.8-1.4 10.3l-1.2 10.8-.5 5.4c-.1 1.8-.2 3.7-.1 5.5.1 3.6.4 7.3.9 10.9 0-1.8-.1-3.6-.1-5.4 0-1.8-.1-3.6 0-5.4.1-1.8.1-3.6.3-5.4l.6-5.4c.3-3.6.7-7.2.9-10.9.3-3.4.5-6.9.6-10.3.3 0 .6.1 1 .1l.9.3c.2.1.5.3.6.5.1.2.2.4.2.5-.5 3.7-.9 7.4-1.2 11.1-.3 3.7-.6 7.5-.6 11.2-.1 3.8.1 7.6.5 11.3.4 3.4 1 6.7 1.7 10l-8.4.1zm-2.8-36.4-2.2 10c-.7 3.3-1.5 6.7-2.2 10-.8 3.3-1.5 6.7-2.7 9.8-.3.7-.7 1.4-1.3 2-.5.5-1.3.8-1.7.4-.4-.4-.5-1.2-.3-2 .1-.8.4-1.6.8-2.3.7-1.6 1.2-3.2 1.8-4.9s1-3.3 1.5-4.9c1-3.3 1.9-6.6 2.8-9.9l2.6-9.9c.8-3.3 1.6-6.6 2.4-10l-5.7 19.7c-1 3.3-1.9 6.6-2.9 9.8-1 3.2-2 6.6-3.3 9.6-.4.8-.7 1.6-.8 2.6-.1.4-.1.9 0 1.4.1.5.2 1 .7 1.4.4.4 1.2.5 1.6.3.5-.1.9-.4 1.3-.8.7-.7 1.1-1.5 1.5-2.3.6-1.7 1-3.3 1.4-5 .4-1.7.8-3.3 1.1-5 1.4-6.5 2.6-13.2 3.6-20zm1 19.3c.2-.8.5-1.5.7-2.3s.3-1.6.5-2.4c.2-1.6.5-3.1.7-4.7.7-6.2 1.4-12.5 1.9-18.7l-2.7 18.6c-.2 1.6-.4 3.1-.7 4.6-.1.8-.3 1.5-.5 2.2-.2.7-.5 1.5-.7 2.2-1 2.9-2.2 5.9-3 8.9-.4 1.5-.8 3.1-.8 4.8 0 .4.1.9.4 1.3.3.4.6.7 1 1 .9.5 2 .3 2.7-.4.7-.6 1-1.4 1.3-2.2.2-.8.3-1.6.4-2.4.2-1.6.4-3.1.5-4.7.6-6.2 1-12.5 1.3-18.8l-2.1 18.7-.6 4.6c-.1.8-.2 1.5-.4 2.2-.2.7-.5 1.4-1 1.8-.5.4-1.1.5-1.7.2-.3-.1-.5-.4-.7-.6-.1-.2-.2-.6-.2-.9 0-1.4.4-3 .8-4.4.8-2.7 1.9-5.6 2.9-8.6z" fill="#01153f" stroke-width="none" opacity="1"></path><path id="SvgjsPath17907" d="M134 171.6c-3.8 15.4-6.6 33-18.8 44.3-.3.3.1.9.5.6 5.9-4.4 9.2-11.4 11.9-18.1 3.4-8.4 6.4-17.7 6.9-26.8 0-.2-.4-.3-.5 0zm11.2 3.4c-2.3 9-2.8 19.7-1.9 28.9 0 .2.3.2.3 0 .6-9.6 1.5-19.3 2-28.9 0-.2-.4-.2-.4 0zm-3.9 2.4c-1 6.6-1.7 13.6-1.8 20.3 0 .1.1.1.1 0 1.2-6.6 1.9-13.5 2.1-20.3 0-.2-.4-.3-.4 0zm-4.1 5.2c-1.7 11.1-4.1 21.6-7.4 32.3-.1.2.2.3.3.1 4.6-10 7.3-21.4 7.5-32.4.1-.2-.3-.2-.4 0zm1.2-10.8c-.5-.2-1.3-.2-1.6.3-.1.2 0 .5.3.5s.6-.1.9 0c.4.1.6.4.7.7.1.3.6.3.6-.1 0-.5-.3-1.1-.9-1.4zm-72.7-.9c-.1-.3-.5-.2-.5.1 1.2 8.4 3.7 17 6.9 24.8.2.4.7.2.6-.2-2.3-8.2-4.5-16.5-7-24.7zm-2.4.7c.3-.1.3-.6-.1-.6-3.3-.2-2.3 3.4-1.9 5.6 1.4 7.6 2.6 15.4 4.7 22.9 0 .1.3.1.3 0-.3-3.6-6.2-26.8-3-27.9zm-7 15.1c-.3-2.3-2.2-9.3-.2-11.1.2-.2 0-.5-.2-.4-3.2.8-1.1 6.9-.8 9 1.3 9 2.7 17.1.4 26.1-.1.2.3.3.3.1 1.8-5.3 1.8-10.8 1.4-16.3-.3-2.5-.6-5-.9-7.4z" fill="#233b6d" stroke-width="none" opacity="1"></path></g><g id="svga-group-head" transform="matrix(1,0,0,1,0,0)"><g id="svga-group-ears-left-move" transform="matrix(1,0,0,1,0,0)"><g id="svga-group-ears-left" transform="matrix(1,0,0,1,0,0)"><path id="SvgjsPath17725" d="M64.4 97.4S60.2 93 59 91.6c-1.3-1.4-2.9-4.4-4.7-3.9s-1.2 2.6-1.3 5.4c-.1 2.9.3 8.6 2.1 11.7s2.7 4.2 3.3 7.5 2.6 3.9 3.8 3 4-6.6 4.1-9.6c.1-2.9-1.1-7-1.9-8.3z" fill="#f6e4e2" stroke-width="none" opacity="1" stroke="none"></path><path id="SvgjsPath17726" d="M65.3 99.4c.2.7.4 1.4.6 2.2.4 1.5.6 3 .6 4.6 0 .8-.2 1.5-.3 2.2-.2.7-.4 1.3-.6 2-.5 1.3-1 2.4-1.6 3.5-.3.6-.6 1.1-1 1.6-.2.2-.4.5-.7.7s-.6.3-.9.3c-.6.1-1.3-.1-1.9-.6-.6-.5-1.1-1.3-1.3-2.1l-.2-.6-.1-.6c-.1-.4-.1-.7-.2-1.1-.1-.7-.3-1.4-.6-2-.5-1.3-1.2-2.5-1.9-3.8-.4-.6-.7-1.3-1-2.1-.3-.7-.4-1.5-.6-2.2-.3-1.5-.5-3-.7-4.5-.1-1.5-.2-3-.2-4.4 0-.7-.1-1.4-.1-2.2 0-.4 0-.8.1-1.2.1-.4.2-.8.4-1.1.2-.3.5-.5.8-.6s.6-.2.9-.1c.7.1 1.3.5 1.8 1 1 1 1.8 2.3 2.6 3.2 1.8 2.1 3.5 4.2 5.3 6.1.3.4.6 1.1.8 1.8zM58.8 92c-1-1-1.8-2.1-2.7-2.9-.4-.4-.9-.7-1.3-.7s-.9.1-1.1.4c-.3.3-.4.9-.4 1.6v2.2c0 .8-.1 1.4-.1 2.2 0 .7 0 1.4.1 2.2.1 1.5.3 2.9.7 4.4.4 1.4.9 2.8 1.7 3.9.7 1.2 1.6 2.3 2.2 3.8.3.7.6 1.5.8 2.2.1.4.2.8.3 1.1l.1.5.1.5c.2.6.5 1.1.9 1.4s.8.4 1.2.3c.2 0 .4-.1.6-.2.2-.1.3-.3.5-.5.3-.4.6-.9.9-1.4.6-1 1.1-2.1 1.6-3.3.5-1.2.9-2.3 1.1-3.6.2-1.3 0-2.8-.2-4.3-.1-.7-.3-1.5-.5-2.2s-.5-1.4-.8-2c-1.9-2.1-3.8-3.8-5.7-5.6z" fill="#e7c1bd" stroke-width="none" opacity="1" stroke="none"></path><path id="SvgjsPath17727" d="M53.4 92.2c.5-1.8 2-.9 2.9.4 1.7 2.5 3 6.2 3.4 9.4 0 .1-.1.2-.1.1-.1.1-.2.1-.2-.1-1.1-.4-1.5-.2-1.2.7 0 .3.1.6.3.8.2.5.5 1 .8 1.4.5.8 1.1 1.4 1.6 2.2.2.3 0 .5-.2.4-1.3-.9-3.6-4.1-3-6.2.2-.8.9-1 1.4-.6-1-3.4-3.7-11.3-5.4-8.3-.1.1-.3-.1-.3-.2z" fill="#d7a19b" stroke-width="none" opacity="1" stroke="none"></path><path id="SvgjsPath17728" d="M56.1 92.6c-1 1.9-1.3 4.1-.8 6.7.3 1.4 2.8 8.9 4.6 7.9.2-.1.4.3.2.5-1.9 1.7-4-4.2-4.6-6.1-1.1-3.2-1.3-7 .5-9.1 0-.1.2 0 .1.1z" fill="#d7a19b" stroke-width="none" opacity="1" stroke="none"></path></g></g><g id="svga-group-ears-right-move" transform="matrix(1,0,0,1,0,0)"><g id="svga-group-ears-right" transform="matrix(1,0,0,1,0,0)"><path id="SvgjsPath17729" d="M135.6 97.4s4.2-4.4 5.4-5.8c1.3-1.4 2.9-4.4 4.7-3.9s1.2 2.6 1.3 5.4c.1 2.9-.3 8.6-2.1 11.7s-2.7 4.2-3.3 7.5-2.6 3.9-3.8 3-4-6.6-4.1-9.6c-.1-2.9 1.1-7 1.9-8.3z" fill="#f6e4e2" stroke-width="none" opacity="1" stroke="none"></path><path id="SvgjsPath17730" d="M135.6 97.4c1.8-1.9 3.5-4 5.3-6.1.8-1 1.5-2.3 2.6-3.2.5-.5 1.1-.9 1.8-1 .3 0 .6 0 .9.1.3.1.6.3.8.6.2.3.4.7.4 1.1.1.4.1.8.1 1.2 0 .8-.1 1.5-.1 2.2 0 1.4-.1 3-.2 4.4-.1 1.5-.3 3-.7 4.5-.2.7-.4 1.5-.6 2.2-.3.7-.6 1.4-1 2.1-.7 1.3-1.4 2.5-1.9 3.8-.3.6-.4 1.3-.6 2-.1.3-.1.7-.2 1.1l-.1.6-.2.6c-.3.8-.7 1.6-1.3 2.1s-1.3.7-1.9.6c-.3 0-.6-.1-.9-.3-.3-.2-.5-.4-.7-.7-.4-.5-.7-1-1-1.6-.6-1.1-1.2-2.3-1.6-3.5-.2-.6-.4-1.3-.6-2-.2-.7-.3-1.4-.3-2.2 0-1.6.3-3.1.6-4.6.2-.7.4-1.5.6-2.2.1-.5.4-1.2.8-1.8zm0 .1c-.3.6-.6 1.3-.8 2s-.4 1.4-.5 2.2c-.2 1.4-.4 3-.2 4.3s.7 2.5 1.1 3.6c.5 1.1 1 2.3 1.6 3.3.3.5.6 1 .9 1.4.2.2.3.4.5.5s.4.2.6.2c.4.1.8 0 1.2-.3s.7-.8.9-1.4l.1-.5.1-.5c.1-.4.2-.8.3-1.1.2-.8.4-1.5.8-2.2.6-1.4 1.5-2.6 2.2-3.8.8-1.1 1.3-2.5 1.7-3.9s.6-2.9.7-4.4c0-.7.1-1.5.1-2.2s-.1-1.4-.1-2.2v-2.2c0-.7-.1-1.3-.4-1.6-.3-.3-.7-.4-1.1-.4-.4 0-.9.3-1.3.7-.9.8-1.7 1.9-2.7 2.9-2 1.9-3.9 3.6-5.7 5.6z" fill="#e7c1bd" stroke-width="none" opacity="1" stroke="none"></path><path id="SvgjsPath17731" d="M146.6 92.2c-.5-1.8-2-.9-2.9.4-1.7 2.5-3 6.2-3.4 9.4 0 .1.1.2.1.1.1.1.2.1.2-.1 1.1-.4 1.5-.2 1.2.7 0 .3-.1.6-.3.8-.2.5-.5 1-.8 1.4-.5.8-1.1 1.4-1.6 2.2-.2.3 0 .5.2.4 1.3-.9 3.6-4.1 3-6.2-.2-.8-.9-1-1.4-.6 1-3.4 3.7-11.3 5.4-8.3.1.1.3-.1.3-.2z" fill="#d7a19b" stroke-width="none" opacity="1" stroke="none"></path><path id="SvgjsPath17732" d="M143.9 92.6c1 1.9 1.3 4.1.8 6.7-.3 1.4-2.8 8.9-4.6 7.9-.2-.1-.4.3-.2.5 1.9 1.7 4-4.2 4.6-6.1 1.1-3.2 1.3-7-.5-9.1 0-.1-.2 0-.1.1z" fill="#d7a19b" stroke-width="none" opacity="1" stroke="none"></path></g></g><g id="svga-group-faceshape-wrap" transform="matrix(1,0,0,1,0,0)"><g id="svga-group-faceshape-single"><path id="SvgjsPath17763" d="M100.06 41.44C78.66 41.44 60.2 56.9 59 85.4c0 0 .35 20.61 3.05 28.21 1 3 11.92 22.35 21.12 32.05 5 5.2 11.95 7.2 16.75 7.2s11.8-2.52 16.7-7.72c9.3-9.8 19.94-28.25 20.94-31.15 2.7-7.7 3.43-28.59 3.43-28.59-1.19-28.4-19.53-43.96-40.93-43.96z" fill="#f6e4e2" stroke-width="none" opacity="1" stroke="none"></path><path id="SvgjsPath17764" d="M100 41.3c-21.4 0-39.8 15.6-41 44.1 0 0 0 20.6 2.7 28.2 1 3 12.2 22.7 21.4 32.4 5 5.2 12.1 7.4 16.9 7.4s12-2.2 16.9-7.4c9.3-9.8 20.4-29.5 21.4-32.4 2.7-7.7 2.7-28.2 2.7-28.2-1.2-28.4-19.6-44.1-41-44.1zm30.1 16 .7 1 .6 1c1.6 2.6 2.9 5.4 3.9 8.3l1.1 3.3s1 4.2 1.3 5.7l.2 1.1.1.6.1.6.1 1.1c0 .4.1.8.1 1.1.1.8.1 1.5.2 2.3l.1 2.2-.1 2.3-.1 2.4c-.1 1.6-.1 3.2-.2 4.7-.2 3.2-.4 6.3-.7 9.4l-.1 1.2c0 .4-.1.8-.2 1.1l-.2 1.1-.2 1.1c-.1.8-.3 1.5-.4 2.2-.1.4-.2.7-.3 1s-.2.7-.3.9l-.4.9c-.1.3-1.2 2.4-1.6 3.1-.4.7-.8 1.4-1.1 2.1l-1.2 2.1c-1.6 2.7-3.2 5.5-4.9 8.1-1.7 2.7-3.4 5.3-5.3 7.9-1.8 2.5-3.7 5.1-5.8 7.4-1 1.1-2.1 2.1-3.2 3-1.2.9-2.5 1.7-3.8 2.3-1.3.7-2.8 1.2-4.2 1.6-1.4.4-2.9.6-4.4.7-1.5 0-3-.1-4.5-.4-1.5-.3-3-.7-4.4-1.3s-2.8-1.3-4.1-2.1c-1.3-.9-2.5-1.8-3.5-2.9l-1.6-1.7-1.5-1.8c-1-1.2-2-2.5-2.9-3.8-1.9-2.5-3.7-5.2-5.4-7.9-1.7-2.7-3.3-5.4-4.8-8.2l-1.1-2.1c-.4-.7-.7-1.4-1.1-2.1s-.7-1.4-1-2.1c-.2-.4-.3-.7-.5-1.1s-.3-.7-.4-1c-.4-1.4-.7-2.9-.9-4.4l-.3-2.4c0-.4-.1-.8-.1-1.2l-.1-1.2c-.2-3.1-.3-6.3-.4-9.5 0-1.6-.1-3.2-.1-4.8V85.5c-.02-3.75.7-7.4.7-7.4l.1-.6.2-1.1c1.1-6 3.1-11.9 6.4-17.2 1.6-2.6 3.5-5.1 5.7-7.3s4.7-4.1 7.5-5.7c.7-.4 1.4-.8 2.1-1.1l1.1-.5s1.8-.7 2.2-.8c0 0 1.9-.6 2.2-.7.4-.1 2.6-.7 3.4-.8l2.4-.4a38.663 38.663 0 0 1 9.6 0l2.4.4c.8.1 3.1.7 3.4.8.4.1.8.2 1.1.3 0 0 1.8.7 2.2.8l2.2.9c.7.3 1.4.7 2.1 1.1 2.7 1.5 5.2 3.5 7.5 5.7.3.3.5.6.8.8.3.3.5.6.8.8l.8.9c.3.3.5.6.7.9.4.7.9 1.3 1.3 2z" fill="#c8837c" stroke-width="none" opacity="1" stroke="none"></path></g></g><g id="svga-group-mouth-single-move" transform="matrix(1,0,0,1,0,0)"><g id="svga-group-mouth-single" transform="matrix(1,0,0,1,0,0)"><path id="SvgjsPath17715" d="M95.2 133.6c3.7 1.9 5.4 1.5 7.2 1.3s6.2-2.5 9-5.2c2.7-2.7 3.2-4.2 3.2-4.2-2.5-.5-9.6-2.6-10.7-2.4-.8.1-2.9 1.9-3.6 1.9s-3.1-1.5-3.9-1.6c-.9-.1-2.3.4-4.4 1.1s-6 1.1-6 1.1 5.5 6.1 9.2 8z" fill="#e0a4a0" stroke-width="none" opacity="1" transform="translate(0 3)" stroke="none"></path><path id="SvgjsPath17716" d="M85.5 125.7c4.9 1.2 10.2 2.1 15.2 2.3 1.8.1 3.7-.3 5.5-.6 3-.5 6.3-.8 9.2-1.8.3-.1.3-.7-.1-.6-4.8.6-9.7 2.4-14.6 2.2-5.1-.2-10.1-1.4-15.2-1.9-.2.1-.2.4 0 .4z" fill="#d18580" stroke-width="none" opacity="1" transform="translate(0 3)" stroke="none"></path></g></g><g id="svga-group-eyes-left-move" transform="matrix(1,0,0,1,0,0)"><g id="svga-group-eyes-left" transform="matrix(1,0,0,1,0,0)"><g id="svga-group-eyesback-left"><path id="SvgjsPath17813" d="M92.3 99.5s-1.4-2.7-3.1-3.9c-1.7-1.3-4.6-3.1-9.3-2.1-4.7.9-8 4.7-8 4.7s5.9 2.2 11.3 2.2c5.3-.1 9.1-.9 9.1-.9z" fill="#ffffff" stroke-width="none" opacity="1"></path></g><g id="svga-group-eyesiriswrapper-left" transform="matrix(1,0,0,1,0,0)"><g id="svga-group-eyesiriscontrol-left" transform="matrix(1,0,0,1,0,0)"><g id="svga-group-eyesiris-left" transform="matrix(1,0,0,1,0,0)"><path id="SvgjsPath17777" d="M82 91.2c2.9 0 5.2 2.3 5.2 5.2s-2.3 5.2-5.2 5.2-5.2-2.3-5.2-5.2 2.3-5.2 5.2-5.2z" fill="#724f7c" stroke-width="none" opacity="1"></path><path id="SvgjsPath17778" d="M82 101.8c-3 0-5.4-2.4-5.4-5.4S79 91 82 91s5.4 2.4 5.4 5.4-2.4 5.4-5.4 5.4zm0-10.3c-2.7 0-4.9 2.2-4.9 4.9s2.2 4.9 4.9 4.9 4.9-2.2 4.9-4.9-2.2-4.9-4.9-4.9z" fill="#52295d" stroke-width="none" opacity="1"></path><path id="SvgjsPath17779" d="M82 93.6c1.5 0 2.8 1.3 2.8 2.8s-1.3 2.8-2.8 2.8-2.8-1.3-2.8-2.8 1.3-2.8 2.8-2.8z" fill="#000000" stroke-width="none" opacity="1"></path><path id="SvgjsPath17780" d="M80.7 93.6c.5 0 1 .4 1 1s-.4 1-1 1-1-.4-1-1 .5-1 1-1zm3.2 4.4c.2 0 .4.2.4.4s-.2.4-.4.4-.4-.2-.4-.4.2-.4.4-.4z" fill="#ffffff" stroke-width="none" opacity="1"></path></g></g></g><g id="svga-group-eyesfront-left"><path id="SvgjsPath17821" d="M70.73 98.03c0 6.9 4.93 12.5 11.02 12.5s11.02-5.6 11.02-12.5-4.93-12.5-11.02-12.5-11.02 5.59-11.02 12.5zm1.2.17s3.31-3.76 8-4.69c4.69-.93 7.55.87 9.25 2.12 1.7 1.25 3.12 3.92 3.12 3.92s-3.76.77-9.09.84c-5.34.06-11.28-2.19-11.28-2.19z" fill="#f6e4e2" stroke-width="none" opacity="1" stroke="none"></path><path id="SvgjsPath17822" d="M91.56 97.86s-2.08-4.66-7.97-5.44c-5.89-.79-14.54 3.87-15.21 5.61-.67 1.74 14.43 3.48 18.3 2.53 0 0-11.56-.39-14.54-2.3 0 0 2.3-4.27 8.93-4.83 6.61-.57 10.04 3.7 10.49 4.43z" fill="#f6e4e2" stroke-width="none" opacity="1" stroke="none"></path><path id="SvgjsPath17823" d="M92.49 100.56c-2.99 2.4-6.96 3.48-10.76 3.36-.17-.01-.17-.25 0-.26 3.97-.16 7.22-1.31 10.68-3.21.07-.04.15.05.08.11z" fill="#e7c1bd" stroke-width="none" opacity="1" stroke="none"></path><path id="SvgjsPath17824" d="M71.75 98.72c6.44 2.32 13.78 2.6 20.43.97.13.06.34-.05.27-.21-3.52-8.75-15.59-8.02-20.9-1.51-.22.27-.14.63.2.75zm.88-.65c5.34-6.21 15.21-6.15 19.35 1.37-6.45 1.12-13.13.73-19.35-1.37z" fill="#582311" stroke-width="none" opacity="1" stroke="none"></path></g></g></g><g id="svga-group-eyes-right-move" transform="matrix(1,0,0,1,0,0)"><g id="svga-group-eyes-right" transform="matrix(1,0,0,1,0,0)"><g id="svga-group-eyesback-right"><path id="SvgjsPath17814" d="M107.7 99.5s1.4-2.7 3.1-3.9c1.7-1.3 4.6-3.1 9.3-2.1 4.7.9 8 4.7 8 4.7s-5.9 2.2-11.3 2.2c-5.3-.1-9.1-.9-9.1-.9z" fill="#ffffff" stroke-width="none" opacity="1"></path></g><g id="svga-group-eyesiriswrapper-right" transform="matrix(1,0,0,1,0,0)"><g id="svga-group-eyesiriscontrol-right" transform="matrix(1,0,0,1,0,0)"><g id="svga-group-eyesiris-right" transform="matrix(1,0,0,1,0,0)"><path id="SvgjsPath17781" d="M118 91.2c2.9 0 5.2 2.3 5.2 5.2s-2.3 5.2-5.2 5.2-5.2-2.3-5.2-5.2 2.3-5.2 5.2-5.2z" fill="#724f7c" stroke-width="none" opacity="1"></path><path id="SvgjsPath17782" d="M118 101.8c-3 0-5.4-2.4-5.4-5.4S115 91 118 91s5.4 2.4 5.4 5.4-2.4 5.4-5.4 5.4zm0-10.3c-2.7 0-4.9 2.2-4.9 4.9s2.2 4.9 4.9 4.9 4.9-2.2 4.9-4.9-2.2-4.9-4.9-4.9z" fill="#52295d" stroke-width="none" opacity="1"></path><path id="SvgjsPath17783" d="M118 93.6c1.5 0 2.8 1.3 2.8 2.8s-1.3 2.8-2.8 2.8-2.8-1.3-2.8-2.8 1.3-2.8 2.8-2.8z" fill="#000000" stroke-width="none" opacity="1"></path><path id="SvgjsPath17784" d="M116.8 93.6c.5 0 1 .4 1 1s-.4 1-1 1-1-.4-1-1 .4-1 1-1zM120 98c.2 0 .4.2.4.4s-.2.4-.4.4-.4-.2-.4-.4.2-.4.4-.4z" fill="#ffffff" stroke-width="none" opacity="1"></path></g></g></g><g id="svga-group-eyesfront-right"><path id="SvgjsPath17825" d="M118.26 85.53c-6.08 0-11.02 5.6-11.02 12.5s4.93 12.5 11.02 12.5 11.02-5.6 11.02-12.5-4.94-12.5-11.02-12.5zm-1.47 14.85c-5.33-.06-9.09-.84-9.09-.84s1.41-2.67 3.12-3.92c1.7-1.25 4.56-3.05 9.25-2.12 4.69.93 8 4.69 8 4.69s-5.94 2.26-11.28 2.19z" fill="#f6e4e2" stroke-width="none" opacity="1" stroke="none"></path><path id="SvgjsPath17828" d="M108.44 97.86s2.08-4.66 7.97-5.44c5.89-.79 14.54 3.87 15.21 5.61.67 1.74-14.43 3.48-18.3 2.53 0 0 11.56-.39 14.54-2.3 0 0-2.3-4.27-8.93-4.83-6.61-.57-10.04 3.7-10.49 4.43z" fill="#eed2cf" stroke-width="none" opacity="1" stroke="none"></path><path id="SvgjsPath17829" d="M107.51 100.56c2.99 2.4 6.96 3.48 10.76 3.36.17-.01.17-.25 0-.26-3.97-.16-7.22-1.31-10.68-3.21-.07-.04-.15.05-.08.11z" fill="#e7c1bd" stroke-width="none" opacity="1" stroke="none"></path><path id="SvgjsPath17830" d="M128.45 97.96c-5.31-6.51-17.38-7.23-20.9 1.51-.07.17.14.28.27.21 6.65 1.63 13.98 1.35 20.43-.97.34-.11.42-.47.2-.75zm-20.43 1.47c4.14-7.52 14.01-7.58 19.35-1.37-6.22 2.11-12.9 2.5-19.35 1.37z" fill="#582311" stroke-width="none" opacity="1" stroke="none"></path></g></g></g><g id="svga-group-facehighlight-single"></g><g id="svga-group-eyebrows-left-move" transform="matrix(1,0,0,1,0,0)"><g id="svga-group-eyebrows-left-rotate" transform="matrix(1,0,0,1,0,0)"><g id="svga-group-eyebrows-left" transform="matrix(1,0,0,1,0,0)"><path id="SvgjsPath17881" d="M68.9 84.5c-.1-.3-.1-.6.1-.8v-.1c-.1-.2-.1-.5.2-.6.3-.1.7-.2 1-.2.3-.1.6-.2.9-.2.3-.2.7-.2 1.1-.2.5-.2 1.1-.3 1.5-.4.8-.2 1.6-.3 2.4-.2.3-.1.6-.1.8-.2.1 0 .2 0 .2.1 1.1-.2 2.1-.3 3.2-.1 1.1-.1 2.2-.2 3.3 0h.1c.5-.1 1.1-.1 1.6-.1 1.1-.1 2.2-.2 3.2 0 .1-.1.2-.1.3-.1.3.1.5.3.8.6 0-.1 0-.2.1-.4 0-.1.1-.1.2 0 .1.5.1.9.1 1.4.1.3.2.6.1.9 0 .4 0 .8-.1 1.2-.1.2-.2.5-.3.7v.1c0 .1 0 .2-.1.2-.1.1-.1.1-.2.1h-.1c-.3.1-.6.2-.9.2-.3 0-.7.1-.9-.2-.3.1-.7.1-1 0h-.1c-.6.2-1.3.2-1.9.1 0 0-.1.1-.2.1-1.5.3-3.1.3-4.7 0-1.1.2-2.7.2-4-.1h-.1c-.9.1-2.1.1-3.1-.2-.8.2-1.9.4-2.6-.2-.1.1-.2.1-.3 0H69.2c-.2 0-.4-.1-.4-.2s0-.2.1-.3V85c.1-.1 0-.3 0-.5z" fill="#504543" stroke-width="none" opacity="1"></path><path id="SvgjsPath17882" d="M88.1 86.3c.6-.5 1.2-.9 1.4-1.7.3-.8.2-1.6.1-2.5 0-.1.2-.2.3 0 .4 1.4.2 4-1.7 4.3-.1.1-.2 0-.1-.1zm-.9-4.6c-.1-.1 0-.3.2-.2 1.8.5 1.2 3.6.4 4.6-.1.1-.2 0-.2-.1.4-.7.5-1.4.4-2.2.1-1-.1-1.5-.8-2.1zm-4.8-.4c2.1.5 4.5 3.2 4.2 5.2 0 .1-.1.1-.2 0-.5-.9-.7-1.9-1.3-2.7-.8-1-1.8-1.6-2.8-2.3-.1-.1 0-.3.1-.2zm-5.1.5c2.7.2 5.6 2.3 6.8 4.5.1.1-.1.2-.2.1-.9-1.1-1.8-2.1-3-2.9-1.1-.7-2.4-1.1-3.7-1.5-.1 0-.1-.2.1-.2zm-6.7 1c3-.5 6.1 1.8 8 3.6.1.1-.1.2-.2.1-1.1-.9-2.3-1.8-3.6-2.4-1.4-.7-2.7-.8-4.2-1.1-.2-.1-.2-.2 0-.2zm-1.8 1.5c2.4 0 4.9.7 6.8 2 .1.1 0 .2-.1.1-2.3-1-4.3-1.5-6.8-1.8-.2-.1-.1-.3.1-.3z" fill="#5f5a59" stroke-width="none" opacity="1"></path><path id="SvgjsPath17883" d="M89.6 86.3c.1 0 .1 0 .2-.1.7-1 1.2-3 .9-4.2 0-.1-.2-.1-.3 0-.1.2-.1.4-.1.7-.1-.5-.3-1-.5-1.4-.1-.2-.3 0-.3.1.1.4.2.8.3 1.3s.1.9.2 1.3c0 .1.1.1.1.1v.1c-.2.7-.4 1.3-.6 2-.7 0-1.4 0-2.1.1.1-1.4-.3-2.8-1.2-3.9-.1-.1-.3-.1-.3.1.5 1.3.9 2.5 1.2 3.8-.4 0-.7 0-1.1.1-.2-1.8-1.4-3.6-2.9-4.7 1.9 0 3.7 0 5.5-.2.1 0 .1-.2 0-.2-3.6-.1-7.3-.1-10.9 0-3 .1-6.3.4-9 1.7-.1.1-.1.2 0 .3-.3.9-.3 1.9.2 2.7h.1c-.1.1-.1.3 0 .3 3.3.6 6.9.7 10.3.7 3.4 0 7-.1 10.3-.7zm-10.2.2H78c-1.6-1.7-3.8-3-6.1-3.6-.1 0-.2.1-.1.2 2.2.9 4.1 2 5.9 3.5-2.8-.1-5.7-.5-8.5-.6 0 0 .1-.1 0-.1-.1-.9-.2-1.7-.1-2.6 2.7-.8 5.2-1.3 8-1.5v.1c1.1.7 2.2 1.4 3.2 2.2.9.8 1.7 1.6 2.4 2.5-1.1-.1-2.2 0-3.3-.1zm6.6-.2c-.4 0-.7 0-1.1.1-.3-1.7-1.4-3.3-2.8-4.4-.1-.1-.1 0-.1.1 1.2 1.4 1.9 2.7 2.6 4.3-.5 0-1 .1-1.6.1-1.2-2-3.3-3.9-5.7-4.8.5 0 .9-.1 1.4-.1h4.4v.1c1.4 1.4 2.2 2.8 2.9 4.6zm2.6-4.7c.8 1.2 1 3.6-.5 4.4-.1 0-.2 0-.1-.1.2-.7.7-1.3.7-2.1.1-.7-.1-1.5-.4-2.2 0 0 .2-.1.3 0z" fill="#413230" stroke-width="none" opacity="1"></path></g></g></g><g id="svga-group-eyebrows-right-move" transform="matrix(1,0,0,1,0,0)"><g id="svga-group-eyebrows-right-rotate" transform="matrix(1,0,0,1,0,0)"><g id="svga-group-eyebrows-right" transform="matrix(1,0,0,1,0,0)"><path id="SvgjsPath17884" d="M131.1 84.5c.1-.3.1-.6-.1-.8v-.1c.1-.2.1-.5-.2-.6-.4-.1-.7-.2-1-.2-.3-.1-.6-.2-.9-.2-.4-.2-.7-.2-1.1-.2-.5-.2-1.1-.3-1.5-.4-.8-.2-1.6-.3-2.4-.2-.3-.1-.6-.1-.8-.2-.1 0-.2 0-.2.1-1.1-.2-2.1-.3-3.2-.1-1.1-.1-2.2-.2-3.3 0h-.1c-.5-.1-1.1-.1-1.6-.1-1.1-.1-2.2-.2-3.2 0-.1-.1-.2-.1-.3-.1-.3.1-.5.3-.8.6 0-.1 0-.2-.1-.4 0-.1-.1-.1-.2 0-.2.4-.3.9-.3 1.4-.1.3-.2.6-.1.9 0 .4 0 .8.1 1.2.1.2.2.5.3.7v.1c0 .1 0 .2.1.2.1.1.1.1.2.1h.1c.3.1.6.2.9.2.3 0 .7.1.9-.2.3.1.7.1 1 0h.1c.6.2 1.3.2 1.9.1 0 0 .1.1.2.1 1.5.3 3.1.3 4.7 0 1.1.2 2.7.2 4-.1h.1c.9.1 2.1.1 3.1-.2.8.2 2 .4 2.6-.2.1.1.2.1.3 0h.2c.2 0 .4-.1.4-.2s0-.2-.1-.3V85c.2-.1.3-.3.3-.5z" fill="#504543" stroke-width="none" opacity="1"></path><path id="SvgjsPath17885" d="M111.9 86.3c-.6-.5-1.2-.9-1.4-1.7-.3-.8-.2-1.6-.1-2.5 0-.1-.2-.2-.3 0-.4 1.4-.2 4 1.7 4.3.1.1.2 0 .1-.1zm.9-4.6c.1-.1 0-.3-.2-.2-1.8.5-1.2 3.6-.4 4.6.1.1.2 0 .2-.1-.4-.7-.5-1.4-.4-2.2-.1-1 .1-1.5.8-2.1zm4.8-.4c-2.1.5-4.5 3.2-4.2 5.2 0 .1.1.1.2 0 .5-.9.7-1.9 1.3-2.7.8-1 1.8-1.6 2.8-2.3.1-.1 0-.3-.1-.2zm5.1.5c-2.7.2-5.6 2.3-6.8 4.5-.1.1.1.2.2.1.9-1.1 1.8-2.1 3-2.9 1.1-.7 2.4-1.1 3.7-1.5.1 0 .1-.2-.1-.2zm6.7 1c-3-.5-6.1 1.8-8 3.6-.1.1.1.2.2.1 1.1-.9 2.3-1.8 3.6-2.4 1.4-.7 2.7-.8 4.2-1.1.2-.1.2-.2 0-.2zm1.8 1.5c-2.4 0-4.9.7-6.8 2-.1.1 0 .2.1.1 2.3-1 4.3-1.5 6.8-1.8.2-.1.1-.3-.1-.3z" fill="#5f5a59" stroke-width="none" opacity="1"></path><path id="SvgjsPath17886" d="M120.6 86.9c3.4 0 7-.1 10.3-.7.2 0 .2-.2 0-.3h.1c.5-.8.5-1.8.1-2.7.1-.1.1-.2 0-.3-2.7-1.2-6-1.5-9-1.7-3.6-.1-7.3-.1-10.9 0-.1 0-.2.2 0 .2 1.8.2 3.7.2 5.5.2-1.6 1.1-2.7 2.9-2.9 4.7-.4 0-.7 0-1.1-.1.3-1.3.7-2.6 1.2-3.8.1-.2-.2-.2-.3-.1-.9 1.1-1.2 2.6-1.2 3.9-.7 0-1.4-.1-2.1-.1-.2-.7-.5-1.3-.6-2V84c.1 0 .1 0 .1-.1.1-.4.1-.9.2-1.3s.2-.8.3-1.3c0-.2-.2-.3-.3-.1-.2.4-.4.9-.5 1.4 0-.2 0-.4-.1-.7 0-.1-.2-.1-.3 0-.3 1.2.1 3.2.9 4.2 0 .1.1.1.2.1 3.5.7 7.1.8 10.4.7zm-3.3-.4c.7-.9 1.5-1.7 2.4-2.5 1-.8 2.1-1.5 3.2-2.2 0 0 .1-.1 0-.1 2.7.2 5.3.7 8 1.5 0 .9-.1 1.7-.1 2.6v.1c-2.8.1-5.7.5-8.5.6 1.8-1.5 3.7-2.6 5.9-3.5.1 0 0-.2-.1-.2-2.3.6-4.5 2-6.1 3.6h-1.4c-1.1.2-2.2.1-3.3.1zm-.4-4.8c1.5-.1 2.9-.1 4.4-.1.5 0 .9 0 1.4.1-2.4.8-4.4 2.8-5.7 4.8-.5 0-1-.1-1.6-.1.6-1.6 1.4-3 2.6-4.3.1-.1 0-.1-.1-.1-1.4 1.1-2.4 2.7-2.8 4.4-.4 0-.7 0-1.1-.1.7-1.8 1.5-3.2 2.9-4.6zm-5.5-.1c-.8 1.2-1 3.6.5 4.4.1 0 .2 0 .1-.1-.2-.7-.7-1.3-.7-2.1-.1-.7.1-1.5.4-2.2 0 0-.2-.1-.3 0z" fill="#413230" stroke-width="none" opacity="1"></path></g></g></g><g id="svga-group-nose-single-move" transform="matrix(1,0,0,1,0,0)"><g id="svga-group-nose-single" transform="matrix(1,0,0,1,0,0)"><path id="SvgjsPath17865" d="M106.75 109.06c-.14-.13-.4-.01-.34.2.39 1.23 1.61 1.94 2.03 3.16.29.85.04 1.89-.65 2.49-1.06.93-2.37.55-3.35-.25a.193.193 0 0 0-.1-.03c.38-.17.79-.29 1.26-.29.23 0 .29-.3.11-.42-1.49-1.03-2.69.78-3.88 1.42-2.41 1.3-4.51-1.6-6.9-1.44-.19.01-.23.27-.04.33.29.1.59.24.89.38-.41.19-.81.42-1.25.51-1.03.2-2.06-.29-2.59-1.18-1.15-1.92.57-3.53 1.79-4.8.09-.09-.02-.23-.13-.17-1.91 1.03-3.51 3.63-2.03 5.65.99 1.35 3.76 1.95 4.62.19 1.37.69 2.76 1.56 4.23 1.64 1.61.09 2.55-1.16 3.82-1.77-.05.04-.07.1-.03.18 1.13 1.64 3.6 1.43 4.62-.22 1.27-2.08-.59-4.22-2.08-5.58z" fill="#c8837c" stroke-width="none" opacity="1" transform="translate(0 2)" stroke="none"></path><path id="SvgjsPath17866" d="M95.24 108.25c1.08-.47 2.16-.9 3.33-1.1 1.16-.2 2.31-.07 3.48-.13.14-.01.16-.2.03-.24-1.44-.52-3.18-.36-4.74.18 1.41-2.2 1.99-5.13 1.49-7.67-.04-.18-.3-.13-.31.04-.1 2.83-.6 5.21-1.66 7.8-.64.26-1.23.57-1.74.93-.12.07-.01.24.12.19z" fill="#c8837c" stroke-width="none" opacity="1" transform="translate(0 2)" stroke="none"></path><path id="SvgjsPath17867" d="M105.07 109.02c-1.96-2.22-5.99-2.01-8.05-.09-.24.23-.14.72.21.79 1.07.19 2.08.09 3.16.11 1.29.03 2.11.47 3.12 1.23 1.22.91 2.47-1 1.56-2.04z" fill="#fef7f6" stroke-width="none" opacity="1" transform="translate(0 2)" stroke="none"></path></g></g><g id="svga-group-hair-front" transform="matrix(1,0,0,1,0,0)"><path id="SvgjsPath17927" d="M121.5 56s-6.3 13.8-31.2 17-29.8 16-26.9 21.6c2.9 5.6 9.7 9.2 2.4 19.9s-.5 12.6 1.7 16-1.7 5.3-1.9 7.5c-.2 2.2 1.9 4.6 1.9 4.6s-4.8-3.1-3.4-9c1.4-5.8-9-8.7-6.1-16.2 2.9-7.5 5.3-9.4 1-22.3s-5.8-22.5-1.5-34.2c6.1-16.2 41.7-39.7 65.9-13.3 0 0 11.4-1.2 17.4 16 6.1 17.2 1.2 27.4-.7 29.8 0 0-.7.5-2.4-6.1-1.7-6.5-7.5-9.2-11.6-18.4S121.5 56 121.5 56z" fill="#584f4e" stroke-width="none" opacity="1" stroke="none"></path><path id="SvgjsPath17928" d="M70 170.9c5.4-4.9 4.1-10.9 1.7-15.8 3.3-10.5-3.9-15.3-3.9-15.3S55 144 54.4 151.6c-.3 4.1-.3 7.3.2 9.8-1.1.3-2.2.8-3 1.4-6.4 5.1-3.4 11.7-2.8 14.9s2.4 5.1 2.4 5.1c-1.4 2.3-4.3 7.4-1 16.4s12.9 13.6 12.9 13.6c-4.5-5.6-3.9-14-3.9-14s.6 2.9 2.3 8.6c1.8 5.6 8.2 10.3 8.2 10.3s-1.4-3.1 0-8.8 1.6-8.6 1.6-8.6c-.2 5.3 2.9 10.7 2.9 10.7-1-4.5 1.4-9.7 0-17.7S65 183.1 65 183.1c6.1-6 5-12.2 5-12.2zm53-121.7s.4 2.2-1.5 6.8-7.2 16-32.4 17.7-25.4 19.7-24.3 21.6 6.6 9.3 3.4 14.4c0 0 .8-5.7-3.6-11.6s-5.3-10.4-.4-17.3S77.7 72 92.7 70.5s21.4-5.5 24.3-9.7c3-4.2 4.9-8.9 6-11.6zm-5.1.4s-3.4 7.8-20.5 10.8-33.2 5.9-38.3 21c0 0-.4-6.3 8.5-14.2s32.6-9.3 38.1-10.4c5.4-1.1 10.3-5.1 12.2-7.2zm-9.5-6.4s-29-3.2-43.8 17.4c0 0 4.9-10.8 17.6-16.3s26.2-1.1 26.2-1.1zM125.5 54s1.7 11.2 7.2 18.8c5.5 7.6 8.7 16.1 8.7 16.1s0-8.5-4.9-15.7c-4.9-7.1-8.9-12-11-19.2zm1.3-2.5s11.4 10.8 15.4 27.7c0 0-.6-10.6-5.3-17.6-4.6-6.9-10.1-10.1-10.1-10.1z" fill="#504543" stroke-width="none" opacity="1" stroke="none"></path><path id="SvgjsPath17929" d="M119.2 54.9s-5.2 11.4-24.9 13c-19.7 1.7-25.4 4.3-29.9 8.5 0 0 6.4-9.7 18.5-11.6s26.3-3 36.3-9.9zm-2.2-8.1s-4.5 7.1-20.2 8.5-27.5 4.5-34.6 13.5c0 0 5.5-16.4 22.8-20.6s16.1.5 32-1.4zM127.9 57s2.4 5.2 5.9 10.2 6.4 10.4 7.4 14.5c0 0-.7-9.5-5.2-16.1s-8.1-8.6-8.1-8.6z" fill="#5f5a59" stroke-width="none" opacity="1" stroke="none"></path><path id="SvgjsPath17930" d="M57.9 172.9c-2.2 2.4-1.2 6.4-1.2 6.4s.4-4.1 3.7-5.7c3.3-1.6 7.8-2.5 9.6-2.6 0 0 4.2-4.9 2.1-12.9 0 0-1 8.3-5.3 9.4-4.2 1-6.7 3-8.9 5.4zm8.2 18.5c-1-4.1-5.8-6.9-7.6-7.9 1.7 0 3 .1 3 .1s-2.4-.1-6.4-1.9c-4-1.7-5.7-7.8-5.4-11 .2-2.3 2.3-4.8 3.6-5.9 2.4 2.4 5.7 3.6 5.7 3.6-5-6-2.8-11.8-1.6-14.2 4.4 3.6 8 3.6 8 3.6-14.2-8.4-12-22.7-12-22.7-1.5 2.5-4.5 9.9 1.1 16.4-3.2 1.3-4.8 7.4-2.9 11-1.5 1-3.7 3.1-4.6 7.5-1.5 7 2.9 12.2 4.2 12.8 0 0-3.3 4.3-.2 16.2 3 11.9 12.1 13.8 12.1 13.8-6-3.8-9.9-12.9-10.5-18.7-.5-4.7 1.3-9.2 2.1-10.8 1.1.1 2.3.1 3.4.1.9 1 3.5 4.4 4.9 9.3 1.6 6 .5 9.9 1.2 14.2.7 4.2 4.4 9.1 4.4 9.1s-3.1-6.5-2.9-11.5c0-4.9 1.6-8.1.4-13.1zm5.1-.9c-2.2-5.2-6.5-6.1-6.5-6.1 4.5 3.7 5.7 7.8 6 11.9.3 4.1 2 8.4 2 8.4-.3-3.1.8-9.1-1.5-14.2zm-.1-38.1c.8-3.7-.7-9.5-2.6-11.8 0 0 3.5 7.5-.8 17.6 0 0 2.5-2.1 3.4-5.8zm-8.1-8.3s-7.2-7.4-10.6-20.9c0 0-2.1 16.7 10.6 20.9z" fill="#483b39" stroke-width="none" opacity="1" stroke="none"></path></g><g id="svga-group-glasses-single-move" transform="matrix(1,0,0,1,0,0)"><g id="svga-group-glasses-single" transform="matrix(1,0,0,1,0,0)"></g></g></g></g></g><rect id="svga-credit-rect" width="200" height="15" x="0" y="185" fill="#ecf0f1" opacity="0.5" style="display: none;"></rect><text id="svga-credit-text" font-family="Avenir Next, Roboto, Helvetica, Arial, sans-serif" font-size="10px" text-anchor="start" font-weight="400" size="10px" anchor="start" weight="400" fill="#333333" x="33.40447998046875" y="182.60824704170227" style="display: none;"><tspan id="SvgjsTspan17269" dy="13" x="33.40447998046875">Created on AvatarMaker.com</tspan></text></g></svg>