<svg xmlns="http://www.w3.org/2000/svg" version="1.1" width="600px" height="600px" viewBox="0 0 200 200" style="overflow:hidden!important;"><defs id="SvgjsDefs8947"></defs><g id="svga-group-wrapper"><g id="svga-group-backs-single"><path id="SvgjsPath9421" d="M0 0h200v200H0V0z" fill="#45ada8" stroke-width="none" opacity="1" stroke="none"></path><path id="SvgjsPath9422" d="M100 124.2c-13.3 0-24.2-10.8-24.2-24.2S86.7 75.8 100 75.8s24.2 10.8 24.2 24.2-10.9 24.2-24.2 24.2zm0-42.4c-10 0-18.2 8.2-18.2 18.2s8.2 18.2 18.2 18.2 18.2-8.2 18.2-18.2S110 81.8 100 81.8zm0 57.4c-21.6 0-39.2-17.6-39.2-39.2S78.4 60.8 100 60.8s39.2 17.6 39.2 39.2-17.6 39.2-39.2 39.2zm0-72.4c-18.3 0-33.2 14.9-33.2 33.2s14.9 33.2 33.2 33.2 33.2-14.9 33.2-33.2-14.9-33.2-33.2-33.2zm0 87.5c-29.9 0-54.3-24.4-54.3-54.3S70.1 45.7 100 45.7 154.3 70 154.3 100s-24.4 54.3-54.3 54.3zm0-102.6c-26.6 0-48.3 21.7-48.3 48.3 0 26.6 21.7 48.3 48.3 48.3 26.6 0 48.3-21.7 48.3-48.3 0-26.6-21.7-48.3-48.3-48.3zm0 116.4c-37.6 0-68.1-30.6-68.1-68.1S62.4 31.9 100 31.9s68.1 30.6 68.1 68.1-30.5 68.1-68.1 68.1zm0-130.2c-34.2 0-62.1 27.9-62.1 62.1s27.9 62.1 62.1 62.1 62.1-27.9 62.1-62.1-27.9-62.1-62.1-62.1zm0 146.2c-46.4 0-84.1-37.7-84.1-84.1S53.6 15.9 100 15.9s84.1 37.7 84.1 84.1-37.7 84.1-84.1 84.1zm0-162.2c-43.1 0-78.1 35-78.1 78.1s35 78.1 78.1 78.1 78.1-35.1 78.1-78.1-35-78.1-78.1-78.1zm0 90c-6.6 0-11.9-5.4-11.9-11.9 0-6.6 5.4-11.9 11.9-11.9 6.6 0 11.9 5.4 11.9 11.9 0 6.6-5.3 11.9-11.9 11.9zm0-17.8c-3.3 0-5.9 2.7-5.9 5.9 0 3.3 2.7 5.9 5.9 5.9 3.3 0 5.9-2.7 5.9-5.9 0-3.3-2.6-5.9-5.9-5.9zM0 146.7v12.8c9.9 16.6 23.9 30.6 40.5 40.5h12.8C29.9 189 11 170.1 0 146.7zm200 0c-11 23.4-29.9 42.3-53.3 53.3h12.8c16.6-9.9 30.6-23.9 40.5-40.5v-12.8zm0-93.4V40.5C190.1 23.9 176.1 9.9 159.5 0h-12.8C170.1 11 189 29.9 200 53.3zm-200 0C11 29.9 29.9 11 53.3 0H40.5C23.9 9.9 9.9 23.9 0 40.5v12.8zm200 36.3C195.1 42.5 157.6 4.9 110.4 0H89.6C42.5 4.9 4.9 42.5 0 89.6v20.8c4.9 47.1 42.5 84.7 89.6 89.6h20.8c47.1-4.9 84.7-42.4 89.6-89.6V89.6zM100 194.5c-52.1 0-94.5-42.4-94.5-94.5S47.9 5.5 100 5.5s94.5 42.4 94.5 94.5-42.4 94.5-94.5 94.5zM0 176.2v9.5c4.4 5.1 9.1 9.9 14.3 14.3h9.5c-9-6.8-17-14.8-23.8-23.8zm200 0c-6.8 8.9-14.8 16.9-23.8 23.8h9.5c5.1-4.4 9.9-9.1 14.3-14.3v-9.5zM0 23.8c6.8-9 14.8-17 23.8-23.8h-9.5C9.1 4.4 4.4 9.1 0 14.3v9.5zm200 0v-9.5c-4.4-5.1-9.1-9.9-14.3-14.3h-9.5c9 6.8 17 14.8 23.8 23.8z" fill="#2f9e98" stroke-width="none" opacity="1" stroke="none"></path></g><g id="svga-group-humanwrap-move" transform="matrix(1,0,0,1,0,0)"><g id="svga-group-humanwrap" transform="matrix(1,0,0,1,0,0)"><g id="svga-group-hair-back-move" transform="matrix(1,0,0,1,0,0)"><g id="svga-group-hair-back" transform="matrix(1,0,0,1,0,0)"></g></g><g id="svga-group-humanbody-back"><path id="SvgjsPath9251" d="m168.5 219.5-1.7-21.5s.7-9-8.8-15.3-23.4-10.1-29.5-14.2c-6.1-4.1-9.2-4.5-9-16.9s.9-40.3.9-40.3H79.6s.7 27.9.9 40.3c.2 12.4-2.9 12.8-9 16.9-6.1 4.1-20 7.9-29.5 14.2S33.2 198 33.2 198l-1.6 21.5h136.9z" fill="#fbd5c0" stroke-width="none" opacity="1" stroke="none"></path></g><g id="svga-group-chinshadow-single"><path id="SvgjsPath9499" d="M79.6 111.3s.69 27.31.89 39.9c5.71 4.82 10.39 8.33 12.01 10.3 1.9 2.3 4.4 2.3 7.5 1.4 3.1.9 5.7.9 7.5-1.4 1.62-1.97 6.29-5.48 12.01-10.3.21-12.59.89-39.9.89-39.9H79.6z" fill="#dc9f7d" stroke-width="none" opacity="0.65" stroke="none"></path></g><g id="svga-group-humanbody-front"><path id="SvgjsPath9252" d="M73.8 175.9c5.1 2.9 11.8 5.2 17.6 5.7.4 0 .4-.6.1-.7-2.8-1.1-5.9-1.7-8.8-2.6-2.9-.9-5.8-2-8.8-2.7-.1-.1-.3.2-.1.3zm35.2 6.2c5.3-.6 11.3-3 15.9-5.8.3-.2.1-.6-.2-.5-2.6.9-5.2 2-7.8 2.9-2.6.9-5.4 1.5-8 2.5-.5.1-.5.9.1.9z" fill="#dc9f7d" stroke-width="none" opacity="1" stroke="none"></path><path id="SvgjsPath9253" d="m168.4 219.4-2.1-21.4c0-2.2-.5-4.5-1.5-6.6-.9-2.1-2.3-3.9-3.9-5.5s-3.5-2.8-5.5-4c-2-1.2-4.1-2.2-6.2-3.1-4.2-1.9-8.6-3.6-12.9-5.4-2.2-.9-4.3-1.9-6.4-3-1.1-.6-2.1-1.2-3-1.9-1-.6-2-1.2-3-1.9s-2-1.5-2.8-2.6c-.8-1-1.3-2.2-1.7-3.4-.7-2.4-.8-4.8-.8-7.2 0-4.7.2-9.4.3-14.1.2-9.4.6-18.7.9-28l.6.6-20.4-.2-20.4-.1.3-.3.7 28c.1 4.7.3 9.3.4 14 0 2.4-.1 4.7-.8 7.1-.3 1.2-.9 2.3-1.6 3.3-.8 1-1.7 1.8-2.7 2.5s-2 1.3-2.9 2c-.9.6-1.9 1.3-3 1.9-2.1 1.2-4.2 2.1-6.4 3.1-4.3 1.9-8.6 3.6-12.8 5.6-2.1 1-4.2 2.1-6.1 3.2-2 1.2-3.8 2.4-5.4 4-1.6 1.6-2.9 3.4-3.8 5.4-.4 1-.8 2.1-1 3.1-.2 1.1-.4 2.2-.3 3.2v.2l-1.5 21.5-1-1.1 34 .1c11.3 0 22.7.1 34.1.2l34.2.3 34.4.5zm.2.2-34 .4-34.2.3c-11.4.1-22.9.2-34.4.2l-34.4.1h-1.1l.1-1.1 1.7-21.5v.1c-.1-5.1 2.2-9.8 5.7-13.3 1.7-1.7 3.8-3.1 5.8-4.3 2-1.2 4.2-2.2 6.3-3.2 4.3-2 8.7-3.7 13-5.4 2.1-.9 4.3-1.8 6.3-2.9 1-.5 1.9-1.1 3-1.8 1-.6 2-1.2 2.9-1.9.9-.6 1.8-1.4 2.4-2.2.7-.9 1.2-1.9 1.5-2.9.6-2.1.8-4.5.8-6.8 0-4.6-.1-9.3-.2-14l-.6-28v-.3h.3l20.4-.1 20.4-.2h.6v.6c-.1 9.3-.2 18.7-.4 28-.1 4.7-.2 9.4-.2 14 .1 2.3.2 4.6.8 6.7.3 1.1.8 2 1.4 2.9.6.8 1.4 1.6 2.4 2.2.9.6 1.9 1.3 2.9 1.9 1 .7 1.9 1.3 2.9 1.8 2 1.1 4.1 2.1 6.3 3 4.3 1.8 8.6 3.6 12.9 5.6 2.1 1 4.2 2.1 6.2 3.3 2 1.2 4 2.6 5.7 4.3 3.4 3.4 5.6 8.1 5.4 13v-.1l1.4 21.6zm-112.8-.4 1.9-13.8.1 13.8h-2zm88.6 0-1.9-13.8-.1 13.8h2z" fill="#cd865f" stroke-width="none" opacity="1" stroke="none"></path></g><g id="svga-group-clothes-single"><path id="SvgjsPath9625" d="M168.4 195.7c-.9-7.5-3.8-11.9-9.4-15.1s-20.9-8.7-29-12.9c-6.4-3.3-8.6-7.6-8.8-10.3s0-14.5 0-14.5-6 5.3-22.5 5.3c-12.7 0-19.7-5.1-19.7-5.1s.2 11.4 0 14.1-2.7 7.1-9.1 10.4c-8.1 4.2-23.2 9.7-28.8 12.9s-8.6 7.6-9.5 15.1c-.9 7.5-2.8 24.3-2.8 24.3h142.3c.1.1-1.9-16.7-2.7-24.2zm-69.3 5.5c-6 0-12-3.9-12-8.4 0-3.3 4.7-22.3 4.7-22.3s9.9.8 16 .2c0 0 3.1 15.2 3.5 21.4s-6.2 9.1-12.2 9.1z" fill="#1e78a2" stroke-width="none" opacity="1"></path><path id="SvgjsPath9626" d="M171.4 219.8v-.2l-.1-.6-.3-2.6-2.5-20.7c-.4-3.3-1.2-6.6-3-9.4-1.8-2.8-4.5-4.9-7.4-6.4-5.9-3-12-5.4-18-8.1-3-1.3-6-2.7-8.9-4.2-2.9-1.4-5.6-3.3-7.4-5.8-.9-1.2-1.6-2.7-1.8-4.1-.1-1.5-.1-3.2-.1-4.8l.1-9.9c0-.2-.1-.4-.2-.6-.3-.4-.9-.4-1.3-.1-.6.5-1.4.9-2.1 1.3-.8.4-1.6.8-2.4 1.1-1.7.6-3.4 1.1-5.2 1.5-3.5.8-7.1 1.1-10.8 1.2-3.6.1-7.2-.1-10.8-.9-3.5-.7-7-1.9-10-3.8-.1-.1-.2-.1-.3-.1-.3 0-.6.3-.5.6.1 4.3.2 8.6.2 12.9 0 1.1-.1 2.1-.5 3-.4 1-.9 1.9-1.5 2.7-1.2 1.7-2.9 3.1-4.6 4.3-1.8 1.2-3.7 2.1-5.7 3-1.9.9-3.9 1.8-5.9 2.6l-11.9 5c-2 .9-4 1.7-5.9 2.7-2 .9-3.8 2.1-5.5 3.5-1.7 1.4-3 3.2-4 5.2s-1.6 4.1-1.9 6.3c-1.1 8.6-2.1 17.1-3.2 25.6v.1c0 .5.4.8.8.8l41.7.2c13.9.1 27.8 0 41.7 0 13.9-.1 27.8-.2 41.7-.5l10.4-.2 5.2-.1h1.5c.1 0 .1 0 .2-.1.2-.1.2-.4.2-.4zm-7-.2-10.4-.2c-13.9-.2-27.8-.4-41.7-.5-13.9 0-27.8-.1-41.7 0l-40.8.2 2.6-24.7c.3-2.1.8-4.1 1.7-6 .9-1.9 2.1-3.6 3.7-5 1.5-1.4 3.4-2.5 5.3-3.5s3.9-1.9 5.8-2.7l11.9-5.1c2-.9 3.9-1.7 5.9-2.6 1.9-.9 3.9-1.8 5.8-3 1.8-1.2 3.5-2.6 4.8-4.4.7-.9 1.2-1.8 1.6-2.9.2-.5.3-1.1.4-1.6.1-.6.1-1.1.1-1.6.1-4 .1-7.9.1-11.9 3 1.8 6.2 2.9 9.5 3.7 3.6.9 7.4 1.2 11.1 1.1 3.7 0 7.4-.4 11.1-1.1 1.8-.4 3.6-.9 5.4-1.5.9-.3 1.8-.7 2.6-1.1.3-.2.7-.4 1-.6v8.2c0 1.7 0 3.2.2 5 .2 1.8 1.1 3.4 2.1 4.8 2.1 2.8 5.1 4.7 8.1 6.1 3 1.4 6 2.7 9.1 3.9l9.1 3.7c3 1.2 6.1 2.5 9 3.9 2.9 1.5 5.6 3.5 7.4 6.2 1.8 2.7 2.7 6 3.1 9.2l2.2 20.7.3 2.6.1.6v.1h-6.5zm6.6.1h-.1.1c.2 0 .1 0 0 0zM110.6 180c-.6-3.2-1.3-6.4-2-9.5-.1-.4-.5-.7-.9-.6-2.6.3-5.2.4-7.9.5-2.7.1-5.3 0-8-.1-.2 0-.3.1-.3.2-.7 3.1-1.6 6.3-2.5 9.4-.9 3.1-1.8 6.2-2.3 9.4-.2.8-.3 1.6-.3 2.4-.1.9-.1 1.8.2 2.7.3.9.7 1.7 1.3 2.3.6.7 1.2 1.2 1.9 1.8 2.8 1.9 6.1 2.8 9.3 2.8 1.6 0 3.3-.2 4.9-.5 1.6-.4 3.2-.9 4.6-1.8 1.4-.9 2.7-2.3 3.2-4.1.3-.9.4-1.8.4-2.7 0-.9-.1-1.7-.2-2.5-.3-3.3-.8-6.5-1.4-9.7zm-.4 14.4c-.3 1.4-1.1 2.7-2.3 3.7-2.3 2-5.7 3-8.9 3s-6.4-1.3-8.7-3.4c-1.1-1.1-2-2.4-2.3-3.7-.2-.7-.1-1.3 0-2.1s.3-1.6.4-2.3c.6-3.1 1.1-6.3 1.7-9.5.5-3.1 1.2-6.2 1.9-9.2 2.6.2 5.2.4 7.7.6 2.4.2 4.8.3 7.3.1.5 2.9 1 5.9 1.5 8.8.5 3.2 1.1 6.4 1.5 9.5l.3 2.4c0 .7 0 1.4-.1 2.1zM48 200.3c-.8-2.9-2.3-5.6-4.1-8.1-1.8-2.4-3.8-4.7-6-6.6 1 1.1 1.9 2.2 2.8 3.4.9 1.2 1.8 2.4 2.6 3.6 1.6 2.5 3 5.1 3.7 7.9.8 2.8 1.3 5.8 1.8 8.7.2 1.5.4 2.9.6 4.4.2 1.5.3 2.9.5 4.4.1-3-.1-6-.4-8.9-.2-2.9-.7-5.9-1.5-8.8zm107.9-8.1c-1.8 2.4-3.3 5.1-4.1 8.1-.8 2.9-1.3 5.9-1.6 8.9-.3 3-.4 5.9-.4 8.9.2-1.5.3-3 .5-4.4.2-1.5.4-2.9.6-4.4.5-2.9.9-5.9 1.8-8.7.8-2.8 2.2-5.4 3.7-7.9.8-1.2 1.7-2.4 2.6-3.6.9-1.2 1.9-2.3 2.8-3.4-2.1 1.9-4.1 4.1-5.9 6.5z" fill="#005a83" stroke-width="none" opacity="1"></path></g><g id="svga-group-head" transform="matrix(1,0,0,1,0,0)"><g id="svga-group-ears-left-move" transform="matrix(1,0,0,1,0,0)"><g id="svga-group-ears-left" transform="matrix(1,0,0,1,0,0)"><path id="SvgjsPath9450" d="M63.5 96.9s-3-5.1-4.6-7.4c-1.7-2.3-3.8-4.7-4.6-.7s-.8 11.6.3 16.9c1.1 5.2 5.8 10.5 7.8 10.5s3.4-7.9 3.3-10.6c-.1-2.7-1.1-6.7-2.2-8.7z" fill="#fbd5c0" stroke-width="none" opacity="1" stroke="none"></path><path id="SvgjsPath9451" d="M65.1 96.3c.3.7-.2 4.1 0 4.9.4 1.5.7 3.1.8 4.7 0 1.6-.1 3.1-.4 4.5-.2 1.4-.6 2.8-1 4.1-.2.6-.5 1.2-.9 1.7-.2.2-.4.5-.7.6-.1.1-.3.1-.5.1s-.3 0-.5-.1c-.6-.2-1.1-.5-1.6-.9-.3-.2-.5-.4-.7-.6l-.7-.7c-.9-1-1.8-2.2-2.5-3.5s-1.4-2.7-1.8-4.3l-.3-1.2c-.1-.4-.1-.8-.2-1.2-.1-.8-.2-1.6-.3-2.3-.2-1.5-.2-3.1-.3-4.6-.1-3-.1-6.1.3-9 .1-.7.3-1.5.8-2l.2-.2c.1 0 .1-.1.2-.1.1-.1.3-.1.4-.2.1 0 5.3.5 6 1.8.8 1.4 3.5 7.8 3.7 8.5zM58.8 90c-.8-1-1.7-2.1-2.5-2.5-.4-.2-.8-.2-1 .2-.3.3-.5.9-.6 1.5-.3 1.3-.5 2.7-.6 4.1s-.2 2.9-.2 4.4.1 3 .3 4.5c.1.8.2 1.5.4 2.3.1.4.2.7.2 1.1.1.4.2.7.3 1.1.5 1.4 1.1 2.7 1.9 3.9.7 1.2 1.6 2.2 2.4 3.1.8.9 1.8 1.6 2.6 1.8.7.2 1.3-.9 1.7-1.9.4-1.1.8-2.4 1-3.7.3-1.3.5-2.7.6-4.1 0-1.4-.2-3-.5-4.5s-.8-3-1.5-4.3c-1.3-2.5-2.9-4.9-4.5-7z" fill="#ecb99d" stroke-width="none" opacity="1" stroke="none"></path><path id="SvgjsPath9452" d="M56.8 93.1c1.5 1.2 2.9 3.3 3.5 5.7 0 .2-.1.2-.2.1 0 0 0-.1-.1-.1-.4-.5-1-1.1-1.4-1-.8.1-.6 1.4-.3 2.5.4 1.5 1 2.8 1.7 4.1.1.1 0 .3-.1.2-1-1.4-2.5-4.4-2.3-6.4.2-1.7 1.4-1 2.2-.1-.6-1.3-1.2-2.4-2-3.4-1-1.2-3.2-3.1-3.5-.6 0 .1-.2.1-.2-.1-.1-2.3 1.7-1.7 2.7-.9z" fill="#dc9f7d" stroke-width="none" opacity="1" stroke="none"></path><path id="SvgjsPath9453" d="M60.7 107.4c.9 2.4-.6 3.1-1.6 2.1-1.6-1.6-2.9-5.2-3.2-8.2 0-.2.1-.2.2 0 .3 1.7.6 3.2 1.3 4.7.4.9.9 1.9 1.4 2.5.3.5.7.8 1.1 1 .8-.1 1.1-.8.7-2.1-.1 0 0-.1.1 0z" fill="#dc9f7d" stroke-width="none" opacity="1" stroke="none"></path></g></g><g id="svga-group-ears-right-move" transform="matrix(1,0,0,1,0,0)"><g id="svga-group-ears-right" transform="matrix(1,0,0,1,0,0)"><path id="SvgjsPath9454" d="M136.5 96.9s3-5.1 4.6-7.4c1.7-2.3 3.8-4.7 4.6-.7s.8 11.6-.3 16.9c-1.1 5.2-5.8 10.5-7.8 10.5s-3.4-7.9-3.3-10.6 1.1-6.7 2.2-8.7z" fill="#fbd5c0" stroke-width="none" opacity="1" stroke="none"></path><path id="SvgjsPath9455" d="M138.5 87.9c.7-1.3 5.9-1.8 6-1.8s.3.1.4.2c.1 0 .1.1.2.1l.2.2c.4.5.6 1.3.8 2 .5 2.9.4 6 .3 9-.1 1.5-.1 3.1-.3 4.6-.1.8-.2 1.5-.3 2.3-.1.4-.1.8-.2 1.2l-.3 1.2c-.4 1.6-1.1 3-1.8 4.3s-1.6 2.5-2.5 3.5c-.2.3-.5.5-.7.7s-.5.4-.7.6c-.5.4-1 .7-1.6.9-.2 0-.3.1-.5.1s-.3-.1-.5-.1c-.3-.1-.5-.4-.7-.6-.4-.5-.7-1.1-.9-1.7-.5-1.3-.8-2.6-1-4.1-.2-1.4-.4-2.9-.4-4.5.1-1.6.4-3.2.8-4.7.2-.8-.3-4.2 0-4.9.3-.8 3-7.2 3.7-8.5zm-1.9 9.1c-.7 1.3-1.1 2.8-1.5 4.3-.3 1.5-.5 3-.5 4.5.1 1.4.3 2.8.6 4.1.3 1.3.6 2.6 1 3.7s1 2.2 1.7 1.9c.8-.2 1.8-1 2.6-1.8.9-.9 1.7-1.9 2.4-3.1s1.4-2.4 1.9-3.9c.1-.4.2-.7.3-1.1s.2-.7.2-1.1c.1-.8.3-1.5.4-2.3.2-1.5.3-3 .3-4.5s0-3-.2-4.4c-.1-1.4-.3-2.8-.6-4.1-.1-.6-.3-1.2-.6-1.5s-.6-.4-1-.2c-.8.5-1.7 1.5-2.5 2.5-1.5 2.1-3.1 4.5-4.5 7z" fill="#ecb99d" stroke-width="none" opacity="1" stroke="none"></path><path id="SvgjsPath9456" d="M143.2 93.1c-1.5 1.2-2.9 3.3-3.5 5.7 0 .2.1.2.2.1 0 0 0-.1.1-.1.4-.5 1-1.1 1.4-1 .8.1.6 1.4.3 2.5-.4 1.5-1 2.8-1.7 4.1-.1.1 0 .3.1.2 1-1.4 2.5-4.4 2.3-6.4-.2-1.7-1.4-1-2.2-.1.6-1.3 1.2-2.4 2-3.4 1-1.2 3.2-3.1 3.5-.6 0 .1.2.1.2-.1.1-2.3-1.7-1.7-2.7-.9z" fill="#dc9f7d" stroke-width="none" opacity="1" stroke="none"></path><path id="SvgjsPath9457" d="M139.3 107.4c-.9 2.4.6 3.1 1.6 2.1 1.6-1.6 2.9-5.2 3.2-8.2 0-.2-.1-.2-.2 0-.3 1.7-.6 3.2-1.3 4.7-.4.9-.9 1.9-1.4 2.5-.3.5-.7.8-1.1 1-.8-.1-1.1-.8-.7-2.1.1 0 0-.1-.1 0z" fill="#dc9f7d" stroke-width="none" opacity="1" stroke="none"></path></g></g><g id="svga-group-faceshape-wrap" transform="matrix(1,0,0,1,0,0)"><g id="svga-group-faceshape-single"><path id="SvgjsPath9488" d="M141 85.4c-1.2-28.5-19.7-44.1-41-44.1S60.2 57 59 85.4c0 0-.3 18.4 3.1 28.6 3.4 10.3 8.4 17.7 15.4 23.8s13.09 10.05 14.99 12.25c1.9 2.3 4.42 2.44 7.52 1.54 3.1.9 5.72.93 7.52-1.37 1.9-2.3 7.97-6.31 14.97-12.41 7-6.1 12-13.6 15.4-23.8S141 85.4 141 85.4z" fill="#fbd5c0" stroke-width="none" opacity="1" stroke="none"></path><path id="SvgjsPath9489" d="M122.5 137.9c7-6.1 12-13.6 15.4-23.8 3.93-11.67 3.1-28.6 3.1-28.6-1.2-28.5-19.71-44.29-41.01-44.29C78.59 41.21 60.2 57 59 85.5c0 0-.3 18.4 3.1 28.6 3.4 10.3 8.4 17.7 15.4 23.8s13.1 10.6 15 12.8c1.99 1.96 4.4 2.3 7.5 1.4 3.1.9 5.76.43 7.5-1.4 1.9-2.3 8-6.7 15-12.8zm-17.95 12.96c-.96.39-2.6.34-3.85-.3l-.7-.2-.7.2c-.5.1-2.3.4-2.6.4-.4 0-.7 0-1-.1s-.9-.61-1-.71-.6-.61-.6-.61l-.2-.2-.2-.2-.4-.4-.7-.61c-.9-.81-1.8-1.61-2.7-2.32-3.6-2.93-7.2-5.75-10.6-8.68-1.7-1.41-3.3-2.93-4.8-4.54s-2.9-3.33-4.1-5.15c-1.3-1.82-2.4-3.73-3.4-5.65-1-2.02-1.9-4.04-2.8-6.15l-.6-1.61-.5-1.51c-.1-.3-.8-3.23-.8-3.23-.5-2.22-.9-4.44-1.2-6.66-.7-4.54-1-9.08-1.2-13.72v-3.44c.1-1.11.1-2.32.2-3.43.2-2.32.5-4.54 1-6.76l.4-1.72c.1-.5.7-2.42.7-2.42s2.7-6.66 3.8-8.58c.3-.5.6-1.01.9-1.41l.9-1.41c.6-.91 1.3-1.82 2-2.72 1.4-1.72 3-3.33 4.7-4.74 3.4-2.83 7.3-5.05 11.4-6.46 4.1-1.51 8.5-2.22 12.8-2.32 2.2-.1 4.4 0 6.5.3.5.1 1.1.1 1.6.2l1.6.3c.5.1 2.4.61 2.4.61.3.1.5.1.8.2 4.2 1.21 8.2 3.03 11.8 5.55 1.8 1.21 3.5 2.62 5.1 4.24 1.6 1.61 3 3.33 4.3 5.15s2.5 3.83 3.5 5.85c.5 1.01.9 2.12 1.4 3.13.4 1.11.8 2.39 1.1 3.5 1.52 6.15 1.95 13.41 1.95 13.41.15 4.03.09 7.33-.21 10.96-.3 3.53-.53 6.93-1.23 10.36-.2.91-.8 3.43-1 3.94 0 0-.7 2.12-.8 2.52-.1.4-1 2.42-1 2.42-.2.4-1.2 2.83-1.6 3.63-.4.81-.8 1.61-1.2 2.32-.8 1.51-1.8 3.03-2.7 4.44-1 1.41-2 2.83-3.1 4.14-.5.71-1.1 1.31-1.7 1.92s-3.4 3.23-3.8 3.53l-1 .81-1 .81c-1.4 1.11-2.7 2.22-4.1 3.43l-4.26 3.79c-1.41 1.11-5.03 4.88-7.5 5.9z" fill="#cd865f" stroke-width="none" opacity="1" stroke="none"></path></g></g><g id="svga-group-mouth-single-move" transform="matrix(1,0,0,1,0,0)"><g id="svga-group-mouth-single" transform="matrix(1,0,0,1,0,0)"><path id="SvgjsPath9663" d="M90 128.1s2 2.6 4 3.8 9.4 1.3 13.4-.2 7.5-6.6 8.1-7.8c0 0-2.9 1.9-7.1 1.5-4.3-.3-13.7.8-15.6 1.6s-2.8 1.1-2.8 1.1z" fill="#e66638" stroke-width="none" opacity="1" transform="translate(0 3)"></path><path id="SvgjsPath9664" d="M117.2 121.6c-.5-.4-1-.6-1.6-.4-.4.1-.4.7-.1.8.1.1.2.1.3.2l-.6.6c-.7.8-2.3 2.2-5.3.8-3-1.4-5.1-1.8-7.1-.5s-2.7.9-4.6.2c-1.9-.6-4.3.4-5.5 1.7-1.2 1.3-2.2 2.6-4.1 2s-.8.5-.8.5c.2.1 1.5 1.1 2.5 1.4 1.1.2 2.1-.5 4.5-1.2s8.1-1.2 11.9-1.1c5.4.2 6.8-.6 8.3-1.8.7-.6 1.2-1.1 1.5-1.6.1.2.2.4.4.5.3.2.8.1.9-.3.2-.8-.2-1.4-.6-1.8z" fill="#de5a2b" stroke-width="none" opacity="1" transform="translate(0 3)"></path><path id="SvgjsPath9665" d="M95.7 129.5c3.4 0 7.4.1 10.8-.9.5-.1.5-.8 0-1-3.4-1-7.7-.1-10.9 1.2-.3.2-.3.7.1.7z" fill="#ee7246" stroke-width="none" opacity="1" transform="translate(0 3)"></path></g></g><g id="svga-group-eyes-left-move" transform="matrix(1,0,0,1,0,0)"><g id="svga-group-eyes-left" transform="matrix(1,0,0,1,0,0)"><g id="svga-group-eyesback-left"><path id="SvgjsPath9539" d="M91.1 99.7s-.2 1.1-.7 1.1c-.6 0-.8-.6-.8-.6s-3.7.2-5.1.6-5.3.6-6.5.3c-1.2-.3-3.2-1.2-4-2.6-.9-1.4-1.2-3.1-1.2-3.1S80 92.5 88.4 93c0 0 2.7 4.6 2.7 6.7z" fill="#ffffff" stroke-width="none" opacity="1"></path></g><g id="svga-group-eyesiriswrapper-left" transform="matrix(1,0,0,1,0,0)"><g id="svga-group-eyesiriscontrol-left" transform="matrix(1,0,0,1,0,0)"><g id="svga-group-eyesiris-left" transform="matrix(1,0,0,1,0,0)"><path id="SvgjsPath9503" d="M82 91.2c2.9 0 5.2 2.3 5.2 5.2s-2.3 5.2-5.2 5.2-5.2-2.3-5.2-5.2 2.3-5.2 5.2-5.2z" fill="#66724e" stroke-width="none" opacity="1"></path><path id="SvgjsPath9504" d="M82 101.8c-3 0-5.4-2.4-5.4-5.4S79 91 82 91s5.4 2.4 5.4 5.4-2.4 5.4-5.4 5.4zm0-10.3c-2.7 0-4.9 2.2-4.9 4.9s2.2 4.9 4.9 4.9 4.9-2.2 4.9-4.9-2.2-4.9-4.9-4.9z" fill="#455328" stroke-width="none" opacity="1"></path><path id="SvgjsPath9505" d="M82 93.6c1.5 0 2.8 1.3 2.8 2.8s-1.3 2.8-2.8 2.8-2.8-1.3-2.8-2.8 1.3-2.8 2.8-2.8z" fill="#000000" stroke-width="none" opacity="1"></path><path id="SvgjsPath9506" d="M80.7 93.6c.5 0 1 .4 1 1s-.4 1-1 1-1-.4-1-1 .5-1 1-1zm3.2 4.4c.2 0 .4.2.4.4s-.2.4-.4.4-.4-.2-.4-.4.2-.4.4-.4z" fill="#ffffff" stroke-width="none" opacity="1"></path></g></g></g><g id="svga-group-eyesfront-left"><path id="SvgjsPath9547" d="M70.7 98c0 6.9 4.9 12.5 11 12.5s11-5.6 11-12.5-4.9-12.5-11-12.5-11 5.6-11 12.5zm3.3.5c-.9-1.4-1.2-3.1-1.2-3.1S80 92.5 88.4 93c0 0 2.7 4.6 2.7 6.7 0 0-.2 1.1-.7 1.1s-.8-.6-.8-.6-3.7.2-5.1.6c-1.4.3-5.3.6-6.5.3-1.2-.4-3.2-1.3-4-2.6z" fill="#fbd5c0" stroke-width="none" opacity="1" stroke="none"></path><path id="SvgjsPath9548" d="M90.7 91.6c-5.4-.6-10.5-.6-15.8 1-.2 0-.2-.2-.1-.2 5.1-1.7 10.6-2.4 15.9-1.1.3-.1.2.3 0 .3z" fill="#ecb99d" stroke-width="none" opacity="1" stroke="none"></path><path id="SvgjsPath9549" d="M67.1 95.4c1.3 1.3 3.1 1.2 4.9.8 0 1 .4 1.9 1.2 2.7-.6.1-1.2.4-1.5.9-.1.2.1.3.2.2.6-.3 1.1-.5 1.8-.6.3.3.6.5.9.7-.1.1-.2.1-.3.2-.3.2-.6.4-.7.7 0 .2.1.3.3.3.3-.1.5-.4.7-.5.2-.1.4-.2.5-.3.4.3.9.5 1.3.6-.1.1-.2.2-.2.3-.2.3-.4.7-.3 1 .1.1.3.2.4.1.2-.2.2-.5.3-.7.1-.2.2-.3.4-.5 4 1 8.5-.5 12.5-.7v.1c.3.5.7.9 1.4.7.7-.2.7-1 .6-1.6-.1-2-.7-4.3-2-6 .5.2.9.4 1.2.8.2.2.6.1.5-.2-.3-1.3-1.3-1.8-2.6-2-2.3-.3-4.9 0-7.2.2-.6.1-1.2.1-1.8.2-.3-.1-.5-.1-.8-.3-.5-.2-.9-.5-1.4-.7-.2-.1-.4.1-.3.3.3.4.7.7 1.2.9-.4.1-.7.1-1.1.2-.5 0-1 0-1.5-.1-.7-.2-1.4-.6-2.1-.7-.2 0-.2.2-.2.3.3.6.7.9 1.3 1.1-1.7.1-3.2 0-4.7-1.1-.2-.1-.4.1-.3.3.5.9 1.3 1.4 2.2 1.6-1.5.3-2.9.4-4.6.2-.2 0-.4.4-.2.6zm6.2.4c1.1-.3 2.1-.7 3-1 2.3-.7 4.7-1 7.1-1.1 1.2-.1 3.1-.4 4.7-.3v.1c.6 1.2 1.4 2.3 1.8 3.6.3.8 1.3 3.6-.2 3.3.1-.1.1-.4-.2-.5-3.1-.3-6.1.7-9.2.7-2 0-4.1-.5-5.6-1.9-.7-.9-1-1.9-1.4-2.9z" fill="#2c1630" stroke-width="none" opacity="1" stroke="none"></path></g></g></g><g id="svga-group-eyes-right-move" transform="matrix(1,0,0,1,0,0)"><g id="svga-group-eyes-right" transform="matrix(1,0,0,1,0,0)"><g id="svga-group-eyesback-right"><path id="SvgjsPath9540" d="M108.9 99.7s.2 1.1.7 1.1c.6 0 .8-.6.8-.6s3.7.2 5.1.6 5.3.6 6.5.3c1.2-.3 3.2-1.2 4-2.6.9-1.4 1.2-3.1 1.2-3.1s-7.2-2.8-15.6-2.4c0 0-2.7 4.6-2.7 6.7z" fill="#ffffff" stroke-width="none" opacity="1"></path></g><g id="svga-group-eyesiriswrapper-right" transform="matrix(1,0,0,1,0,0)"><g id="svga-group-eyesiriscontrol-right" transform="matrix(1,0,0,1,0,0)"><g id="svga-group-eyesiris-right" transform="matrix(1,0,0,1,0,0)"><path id="SvgjsPath9507" d="M118 91.2c2.9 0 5.2 2.3 5.2 5.2s-2.3 5.2-5.2 5.2-5.2-2.3-5.2-5.2 2.3-5.2 5.2-5.2z" fill="#66724e" stroke-width="none" opacity="1"></path><path id="SvgjsPath9508" d="M118 101.8c-3 0-5.4-2.4-5.4-5.4S115 91 118 91s5.4 2.4 5.4 5.4-2.4 5.4-5.4 5.4zm0-10.3c-2.7 0-4.9 2.2-4.9 4.9s2.2 4.9 4.9 4.9 4.9-2.2 4.9-4.9-2.2-4.9-4.9-4.9z" fill="#455328" stroke-width="none" opacity="1"></path><path id="SvgjsPath9509" d="M118 93.6c1.5 0 2.8 1.3 2.8 2.8s-1.3 2.8-2.8 2.8-2.8-1.3-2.8-2.8 1.3-2.8 2.8-2.8z" fill="#000000" stroke-width="none" opacity="1"></path><path id="SvgjsPath9510" d="M116.8 93.6c.5 0 1 .4 1 1s-.4 1-1 1-1-.4-1-1 .4-1 1-1zM120 98c.2 0 .4.2.4.4s-.2.4-.4.4-.4-.2-.4-.4.2-.4.4-.4z" fill="#ffffff" stroke-width="none" opacity="1"></path></g></g></g><g id="svga-group-eyesfront-right"><path id="SvgjsPath9550" d="M118.3 85.5c-6.1 0-11 5.6-11 12.5s4.9 12.5 11 12.5 11-5.6 11-12.5-5-12.5-11-12.5zM122 101c-1.2.3-5.1 0-6.5-.3-1.4-.3-5.1-.6-5.1-.6s-.2.7-.8.6-.7-1.1-.7-1.1c.1-2.1 2.7-6.7 2.7-6.7 8.4-.5 15.6 2.4 15.6 2.4s-.3 1.7-1.2 3.1c-.8 1.4-2.8 2.3-4 2.6z" fill="#fbd5c0" stroke-width="none" opacity="1" stroke="none"></path><path id="SvgjsPath9553" d="M109.3 91.6c5.4-.6 10.5-.6 15.8 1 .2 0 .2-.2.1-.2-5.1-1.7-10.6-2.4-15.9-1.1-.3-.1-.2.3 0 .3z" fill="#ecb99d" stroke-width="none" opacity="1" stroke="none"></path><path id="SvgjsPath9554" d="M132.7 94.9c-1.7.2-3.1.1-4.6-.2.9-.2 1.7-.7 2.2-1.6.1-.2-.1-.5-.3-.3-1.5 1.1-3.1 1.2-4.7 1.1.6-.2 1-.6 1.3-1.1.1-.1 0-.3-.2-.3-.7.1-1.4.5-2.1.7-.5.1-1 .2-1.5.1-.4-.1-.7-.1-1.1-.2.5-.2.9-.5 1.2-.9.1-.2-.1-.4-.3-.3-.5.2-.9.5-1.4.7-.3.1-.5.2-.8.3-.6-.1-1.2-.1-1.8-.2-2.3-.2-4.9-.5-7.2-.2-1.3.2-2.3.7-2.6 2-.1.3.3.4.5.2.3-.4.7-.6 1.2-.8-1.2 1.7-1.8 4-2 6 0 .6-.1 1.4.6 1.6.6.2 1.1-.2 1.4-.7v-.1c4 .2 8.5 1.7 12.5.7.1.1.3.3.4.5.1.2.1.5.3.7.1.1.3.1.4-.1.2-.3-.1-.7-.3-1-.1-.1-.2-.2-.2-.3.4-.1.9-.4 1.3-.6.2.1.3.2.5.3.2.2.5.5.7.5.2.1.3-.1.3-.3-.1-.3-.4-.5-.7-.7-.1-.1-.2-.1-.3-.2.3-.2.6-.5.9-.7.6.1 1.2.4 1.8.6.1.1.3-.1.2-.2-.3-.5-.9-.8-1.5-.9.7-.8 1.2-1.7 1.2-2.7 1.8.4 3.5.5 4.9-.8.2-.3 0-.7-.2-.6zm-7.6 3.8c-1.5 1.4-3.6 1.9-5.6 1.9-3.1 0-6.1-1-9.2-.7-.3 0-.3.3-.2.5-1.5.3-.4-2.5-.2-3.3.4-1.3 1.2-2.4 1.8-3.6v-.1c1.6-.2 3.5.2 4.7.3 2.4.2 4.8.5 7.1 1.1.9.3 1.9.7 3 1-.2 1-.5 2-1.4 2.9z" fill="#2c1630" stroke-width="none" opacity="1" stroke="none"></path></g></g></g><g id="svga-group-facehighlight-single"></g><g id="svga-group-eyebrows-left-move" transform="matrix(1,0,0,1,0,0)"><g id="svga-group-eyebrows-left-rotate" transform="matrix(1,0,0,1,0,0)"><g id="svga-group-eyebrows-left" transform="matrix(1,0,0,1,0,0)"><path id="SvgjsPath9601" d="M70.7 85.3c.1 0 .3 0 .4.1.2-.1.6-.1.9 0 .1 0 .3 0 .4-.1.5-.1.9-.1 1.4-.1h.5c.5-.2 1-.3 1.5-.3.8-.1 1.6-.2 2.4-.2.3-.1.5-.1.8-.2.5-.1.9-.3 1.4-.4.4-.1.8-.1 1.3-.2 1.1-.4 2.2-.8 3.4-1.2h.2c.8-.4 1.7-.8 2.7-1h.1c.6-.2 1.2-.3 1.8-.2.3 0 .6 0 .8.2.1 0 .2.1.3.1 1.1.3 1.2 1.8.7 2.6-.3.5-.9 1-1.6 1.4-.5.4-1.1.6-1.8.7 0 0-.1 0-.1.1-1.5.6-3.3.9-5 .8-1 0-2.3 0-3.3-.4-1 .3-2.3.1-3.4-.1-.7-.1-1.4-.1-2.1-.3-.5.1-1.1 0-1.6-.1s-1.3-.1-1.7-.4L71 86c-.2 0-.3-.1-.5-.1-.4-.2-.2-.6.2-.6z" fill="#d6c4c4" stroke-width="none" opacity="1"></path><path id="SvgjsPath9602" d="M87.7 81.6c1.9-.1 3.4 1.5 3.6 2.8.2-1.2-.2-2.4-2-2.8-.2 0-.2-.2 0-.3 2.5-.3 3.3 2.6 2 3.8h-.2c-.1 0-.2 0-.2-.1-.2-.7-.4-1.4-1.1-2-.6-.6-1.5-.8-2.3-1.2 0-.1 0-.2.2-.2zm-5.9 1.6c2.8-.8 6.7.4 7.8 2.5 0 .1-.1.2-.1.1-.8-.8-1.7-1.5-2.9-1.9-1.6-.5-3.1-.4-4.7-.4-.3-.1-.3-.2-.1-.3zm-4.5 1.1c1.4.6 2.8 1.2 4.4 1.5 1.5.4 3.1.6 4.7.7.1 0 .1.2 0 .2-3.2.1-6.8-.6-9.3-2.1-.2-.1 0-.4.2-.3zm-6 1c1.6.3 3.1.8 4.6 1 1.6.3 3.2.4 4.7.6.1 0 .1.1 0 .1-3.1.2-6.8-.4-9.5-1.5-.1-.1 0-.3.2-.2z" fill="#e5e5e5" stroke-width="none" opacity="1"></path><path id="SvgjsPath9603" d="M82.4 87.4c3.5 0 9.3-.1 10.1-3.5.2-1.1-.3-2.2-1.5-2.8-1.6-.8-3.3-.1-4.8.5-5.1 2-10.3 2.9-15.9 3.5-.2 0-.3.2-.3.3-.1-.1-.3-.1-.4-.2-.2-.1-.4.1-.3.2 1.1 1.2 3.4 1.3 5.1 1.5 2.7.4 5.4.6 8 .5zm-12-1.9c2.3 0 4.6-.3 6.9-.8 1.6.9 3.4 1.6 5.4 2.1h-1.5c-3.4 0-7.6-.1-10.8-1.3zm10.7-1.6c.1 0 .1 0 .2-.1l.1.1c2.2.6 4 1.4 5.8 2.7-1.1.2-2.2.2-3.3.3h-.1c-2.1-.6-4.1-1.3-6.1-2.1 1.1-.3 2.3-.6 3.4-.9zm6.4 2.6c-1.4-1.4-3.5-2.4-5.7-2.8.9-.2 1.8-.5 2.7-.8 1.2.3 2.3.5 3.3 1.1.9.5 1.6 1.1 2.2 1.7-.8.4-1.6.6-2.5.8.1 0 0 0 0 0zm3.5-1.6c-.3-1.3-1.8-2.7-3.4-2.9-.2 0-.3.1-.2.2.7.4 1.4.7 2 1.2.6.6.9 1.2 1.2 1.8-.1.1-.2.1-.2.2-1-1.4-3.1-2.6-5.2-2.8.2-.1.3-.1.5-.2 2-.7 5.4-2.1 6.1.5.1.8-.2 1.5-.8 2z" fill="#c7a2a2" stroke-width="none" opacity="1"></path></g></g></g><g id="svga-group-eyebrows-right-move" transform="matrix(1,0,0,1,0,0)"><g id="svga-group-eyebrows-right-rotate" transform="matrix(1,0,0,1,0,0)"><g id="svga-group-eyebrows-right" transform="matrix(1,0,0,1,0,0)"><path id="SvgjsPath9604" d="M129.3 85.3c-.1 0-.3 0-.4.1-.2-.1-.6-.1-.9 0-.1 0-.3 0-.4-.1-.5-.1-.9-.1-1.4-.1h-.5c-.5-.2-1-.3-1.5-.3-.8-.1-1.6-.2-2.4-.2-.3-.1-.5-.1-.8-.2-.5-.1-.9-.3-1.4-.4-.4-.1-.8-.1-1.3-.2-1.1-.4-2.2-.8-3.4-1.2h-.2c-.8-.4-1.7-.8-2.7-1h-.1c-.6-.2-1.2-.3-1.8-.2-.3 0-.6 0-.8.2-.1 0-.2.1-.3.1-1.1.3-1.2 1.8-.7 2.6.3.5.9 1 1.6 1.4.5.4 1.1.6 1.8.7 0 0 .1 0 .1.1 1.5.6 3.3.9 5 .8 1 0 2.3 0 3.3-.4 1 .3 2.3.1 3.4-.1.7-.1 1.4-.1 2.1-.3.5.1 1.1 0 1.6-.1s1.3-.1 1.7-.4c.1 0 .1-.1.2-.1.2 0 .4-.1.5-.1.3-.2.1-.6-.3-.6z" fill="#d6c4c4" stroke-width="none" opacity="1"></path><path id="SvgjsPath9605" d="M112.3 81.6c-1.9-.1-3.4 1.5-3.6 2.8-.2-1.2.2-2.4 2-2.8.2 0 .2-.2 0-.3-2.5-.3-3.3 2.6-2 3.8h.2c.1 0 .2 0 .2-.1.2-.7.4-1.4 1.1-2 .6-.6 1.5-.8 2.3-1.2 0-.1 0-.2-.2-.2zm5.9 1.6c-2.8-.8-6.7.4-7.8 2.5 0 .1.1.2.1.1.8-.8 1.7-1.5 2.9-1.9 1.6-.5 3.1-.4 4.7-.4.3-.1.3-.2.1-.3zm4.5 1.1c-1.4.6-2.8 1.2-4.4 1.5-1.5.4-3.1.6-4.7.7-.1 0-.1.2 0 .2 3.2.1 6.8-.6 9.3-2.1.2-.1 0-.4-.2-.3zm6 1c-1.6.3-3.1.8-4.6 1-1.6.3-3.2.4-4.7.6-.1 0-.1.1 0 .1 3.1.2 6.8-.4 9.5-1.5.1-.1 0-.3-.2-.2z" fill="#e5e5e5" stroke-width="none" opacity="1"></path><path id="SvgjsPath9606" d="M125.5 87c1.7-.2 4-.3 5.1-1.5.1-.1-.1-.3-.3-.2-.1.1-.2.1-.4.2 0-.1-.1-.3-.3-.3-5.7-.5-10.8-1.5-15.9-3.5-1.4-.6-3.2-1.3-4.8-.5-1.2.6-1.8 1.8-1.5 2.8.8 3.4 6.6 3.5 10.1 3.5 2.7 0 5.4-.2 8-.5zm-6.7-.2h-1.5c1.9-.4 3.8-1.2 5.4-2.1 2.3.4 4.6.7 6.9.8-3.2 1.2-7.4 1.3-10.8 1.3zm3.5-2.1c-2 .8-4 1.5-6.1 2.1h-.1c-1.1 0-2.2-.1-3.3-.3 1.7-1.2 3.5-2 5.8-2.7 0 0 .1 0 .1-.1.1 0 .1 0 .2.1 1.1.4 2.3.7 3.4.9zm-9.9 1.8c-.8-.2-1.7-.4-2.4-.8.7-.6 1.3-1.2 2.2-1.7 1-.5 2.2-.8 3.3-1.1.9.3 1.8.6 2.7.8-2.2.4-4.4 1.5-5.8 2.8.1 0 0 0 0 0zm-4.1-3.5c.7-2.6 4.1-1.2 6.1-.5.2.1.3.1.5.2-2.1.2-4.3 1.4-5.2 2.8-.1-.1-.2-.1-.2-.2.3-.7.6-1.3 1.2-1.8s1.3-.8 2-1.2c.2-.1 0-.2-.2-.2-1.6.2-3.1 1.6-3.4 2.9-.7-.6-1-1.3-.8-2z" fill="#c7a2a2" stroke-width="none" opacity="1"></path></g></g></g><g id="svga-group-nose-single-move" transform="matrix(1,0,0,1,0,0)"><g id="svga-group-nose-single" transform="matrix(1,0,0,1,0,0)"><path id="SvgjsPath9587" d="M97.72 89.37c-.8 3.33-.91 6.89-1.27 10.29-.38 3.64-1.08 7.4-1.03 11.06 0 .29.45.37.52.07.74-3.34.83-6.91 1.18-10.31.37-3.64 1.05-7.41.93-11.06 0-.19-.28-.24-.33-.05z" fill="#cd865f" stroke-width="none" opacity="1" transform="translate(0 2)" stroke="none"></path><path id="SvgjsPath9588" d="M94.71 108.8c-.98 1.31-1.8 2.73-2.52 4.2-.46.95-1.04 2.07-.73 3.16.5 1.8 2.79 2.36 4.28 1.51.44-.26.24-.95-.26-.95-.87-.01-1.89.27-2.58-.47-.84-.89-.01-2.5.36-3.4.55-1.32 1.22-2.59 1.74-3.92.07-.19-.19-.26-.29-.13z" fill="#cd865f" stroke-width="none" opacity="1" transform="translate(0 2)" stroke="none"></path><path id="SvgjsPath9589" d="M94.57 116.21c2.7-.2 3.21 3.2 5.78 3.28 2.2.07 2.37-3.24 4.46-3.14.24.01.32-.33.12-.45-2.37-1.4-2.81 2.72-4.99 2.46-1.29-.15-2.21-2.05-3.37-2.6-.79-.37-1.36-.34-2.13.01-.19.11-.09.46.13.44z" fill="#cd865f" stroke-width="none" opacity="1" transform="translate(0 2)" stroke="none"></path><path id="SvgjsPath9590" d="M104.07 117.75c1.78.4 3.85-.15 4.27-2.13.21-.99-.12-1.97-.64-2.81-.84-1.37-1.93-2.53-2.73-3.95-.13-.24-.47-.12-.48.13-.1 1.59 1.08 2.69 1.92 3.92.78 1.13 1.45 2.69.14 3.81-.6.51-1.74.42-2.48.56-.24.05-.23.42 0 .47z" fill="#cd865f" stroke-width="none" opacity="1" transform="translate(0 2)" stroke="none"></path><path id="SvgjsPath9591" d="M102.32 112.41c-.39-.7-1.4-.81-1.96-.25-.05.05-.23.28-.28.34-.06.08-.19.25-.21.28-.06.1-.12.2-.17.3l-.11.26c0-.01-.01.01-.03.05-.06.06-.12.13-.17.19-.17.18-.34.36-.48.57-.4.63-.08 1.35.46 1.75.83.62 2.03.12 2.61-.58.7-.84.89-1.92.34-2.91z" fill="#ffe1d0" stroke-width="none" opacity="1" transform="translate(0 2)" stroke="none"></path></g></g><g id="svga-group-hair-front" transform="matrix(1,0,0,1,0,0)"><path id="SvgjsPath9643" d="M75.1 60.2s9.5 11.9 24.4 14.5c14.9 2.6 28.5 2 33.7 9.5s4.4 23.6 4.4 23.6 5.9-14.5 6.3-20c.4-5.6 1-26.1-11.9-38.6s-43-21-59-2c0 0-11.3.4-16.8 18.8s5.5 42.8 5.5 42.8S60 92 65.2 83.2c6.7-11.5 8.7-14.3 9.9-23z" fill="#d6c4c4" stroke-width="none" opacity="1" stroke="none"></path><path id="SvgjsPath9644" d="M137.2 84.7c-3.8-5.4-10.5-7.4-16.6-8.9-17.5-4.1-40.4-3.7-46.8-24.4-.1-.4-.7-.2-.6.2 2.4 13.9 17.5 19.9 29.6 22.4 14.5 3 41.7 5 35.7 26.9-.1.3.4.4.5.1 2.1-5.4 1.6-11.4-1.8-16.3zm-14-27.9c-6.1-3.4-12.9-5.5-19.9-6.2-9.4-1-18.8 1-27.6-3.5-.2-.1-.5.2-.2.4 4.9 2.8 10.4 3.3 16 3.4 7.8.1 15.2.2 22.6 2.7 13.9 4.7 26.3 15 27.2 30-3.8-10.2-14.3-14.9-24.2-17.8-13.7-4-31.1-4.4-41.7-15.1-.1-.1-.3 0-.2.2 7.3 9.2 20.1 10.2 30.8 12.8 13.3 3.2 29.4 6.7 35.1 20.7 0 .1.1.1.2.1 0 .9 0 1.9-.1 2.9 0 .3.4.3.5.1 3-13.4-7.8-24.8-18.5-30.7zM135 58c-13.2-18-38.6-22.3-58.2-13.4-.2.1 0 .5.2.4 10.4-4.8 22.2-6 33.3-2.8 9.9 2.8 17.5 8.7 24.4 16.1.2 0 .4-.1.3-.3zm-62.3-3.8c0-.2-.4-.3-.4 0 0 5.5-.4 10.8-2.4 15.9-1.6 4.2-4 7.9-6.1 11.8-3.2 6.1-5 12.3-4.1 19.2 0 .2.4.2.4-.1-.3-9.9 3.5-16.7 8-25.2 3.7-6.7 5.6-14 4.6-21.6zm-3.1-3.4C56.8 60 55.8 77.9 58.1 92.1c0 .2.3.1.3 0-1.5-15.3-.4-30 11.4-41 .1-.2-.1-.4-.2-.3zm-.1 6.7c-1.9 5.7-3.8 11.2-6.1 16.8-.1.2.2.3.3.1 2.7-5.2 5-11 6.1-16.8 0-.2-.3-.3-.3-.1z" fill="#c7a2a2" stroke-width="none" opacity="1" stroke="none"></path><path id="SvgjsPath9645" d="M121.5 73.9c-6.8-3.4-14.7-2.8-21.9-5.1-8.6-2.7-15.5-7.6-22.2-13.4-.2-.1-.4.1-.2.2 4.9 5.6 11.6 9.8 18.5 12.6 8.3 3.3 17.6 2.6 25.8 6 0 0 .1-.2 0-.3zm9.7.4c-10.4-8.1-25.3-7.2-37.7-9.8-.2 0-.2.2-.1.2 12.6 4.1 25.8 2.6 37.6 9.8.2.1.4-.1.2-.2zm-22.4-16c-10.8-.3-20-2.9-29.6-7.8-.2-.1-.4.2-.2.3 8.6 5.8 19.4 8.6 29.8 8 .4 0 .4-.5 0-.5zm15.5 5.4c-6-5.6-14-7.2-21.9-8.3-.1 0-.2.2 0 .2 7.7 1.8 15.2 3.3 21.6 8.3.3.2.5 0 .3-.2zm-4-10.8c-9.8-5.9-22.9-6.6-34.1-7.1-.2 0-.3.3-.1.4 11.6 1.9 23.1 2 33.9 7.1.3 0 .5-.3.3-.4zm-3.7-4c-6.9-4.2-15.1-6.3-23.2-5.8-.3 0-.3.4 0 .5 8.2.4 15.5 2.2 22.9 5.8.3 0 .5-.4.3-.5zm-48.9 7c-4.2 4.5-6.9 10.4-7.3 16.6 0 .2.3.2.3 0 1-6.2 3.2-11.5 7.2-16.4.1-.1-.1-.3-.2-.2zm2.3-2c-1.2 3.1-2.7 6.2-4.3 9.1-.1.1.1.2.2.1 2.1-2.8 3.5-5.8 4.4-9.2-.1-.1-.3-.1-.3 0zm.2 5.7c-1.2 5-2.5 9.6-5 14.2-1.8 3.4-3.6 6.5-4.4 10.3 0 .1.2.2.2.1 1.4-4.7 4.1-8.5 6.2-12.9 1.8-3.7 2.6-7.5 3.3-11.5 0-.3-.3-.4-.3-.2z" fill="#e5e5e5" stroke-width="none" opacity="1" stroke="none"></path></g><g id="svga-group-glasses-single-move" transform="matrix(1,0,0,1,0,0)"><g id="svga-group-glasses-single" transform="matrix(1,0,0,1,0,0)"></g></g></g></g></g><rect id="svga-credit-rect" width="200" height="15" x="0" y="185" fill="#ecf0f1" opacity="0.5" style="display: none;"></rect><text id="svga-credit-text" font-family="Avenir Next, Roboto, Helvetica, Arial, sans-serif" font-size="10px" text-anchor="start" font-weight="400" size="10px" anchor="start" weight="400" fill="#333333" x="33.40447998046875" y="182.60824704170227" style="display: none;"><tspan id="SvgjsTspan8995" dy="13" x="33.40447998046875">Created on AvatarMaker.com</tspan></text></g></svg>