<svg xmlns="http://www.w3.org/2000/svg" version="1.1" width="600px" height="600px" viewBox="0 0 200 200" style="overflow:hidden!important;"><defs id="SvgjsDefs54618"></defs><g id="svga-group-wrapper"><g id="svga-group-backs-single"><path id="SvgjsPath55314" d="M0 0h200v200H0V0z" fill="#aee239" stroke-width="none" opacity="1" stroke="none"></path><path id="SvgjsPath55315" d="M6.5 16.3c4-9.2 13.8-13.8 22-11.3 6 1.9 10.6 7.5 11.8 14.3 0 0 25.4-15.2 41.7 1.1 6.1 6.1 6.7 17.8-4.9 27.2-8.8 7.2-19.5 1.4-19.5 1.4 2 5.6.6 11.5-3 14.3-5 3.8-14.5 2.2-18.9-5.8 0 0 2.5 13.2-12.6 15.4C7.9 75.1 8.7 60 8.7 60s-.9 4.4-8.7 4.4V13s1.4-.3 3.2.5 3.3 2.8 3.3 2.8zm136.2 47.3c-.2-.7-4.6-9.9-15.2-9-10.6.9-7.6 14.8-7.6 14.8s-14.3.5-15.5 11.8S116.4 103 134 92c0 0 13.9 14.1 28.9-.9 0 0 21 12.7 28.4.2S182.9 73 182.9 73s6.5-15.7-12-12c0 0-3-9-13.2-8.5-10.1.4-15 11.1-15 11.1zM81.6 149s-5.5 6.7-16.8 5.1c-11.3-1.6-12.2-10.9-12.2-10.9s-14.3 12.5-31.6 3-7.9-26.3-.7-30.7 20.3-.5 20.3-.5-1.6-4.8 4.6-8.5c6.2-3.7 11.3 1.8 11.3 1.8s1.2-8.3 14.1-8.1S83 112.5 83 112.5s5.1-9.2 16.4-3.7 7.6 14.3 7.6 14.3 3-3.7 6.5-4.2 7.6 3 7.2 6.9c0 0 8.8-8.1 20.3 5.5s-11.3 28.2-21.9 15.9c0 0-3.5 10.6-20.1 9.5S81.6 149 81.6 149zm72.7 19.1s-2.8-6.2-10.9-6-7.9 9.7-7.9 9.7-6-5.8-12-1.4 0 11.3 0 11.3-5.8.5-5.3 6.2 12.9 12.9 26.8-.2c0 0 4.2 6.7 11.3 4.9 7.2-1.9 6.9-8.5 6.9-8.5s9.7 8.5 19.2 2.5 6.7-23.6-8.8-24.5c-15.4-.9-19.3 6-19.3 6zM126.5 0s-7.4 3.7-5.5 12.9 16.1 8.3 19.6 3.5c0 0-2.8 9.7 7.4 10.1 0 0-.2 16.8 18.4 11s16.3-22.3 16.3-22.3 2.5 12.9 17.4 12.9V0h-73.6zM0 195.2s19.3 7.9 29.6-9.4-11.8-20.6-15.4-15.7c0 0 1.6-16.7-14.2-13.2v38.3z" fill="#ffffff" stroke-width="none" opacity="1"></path></g><g id="svga-group-humanwrap-move" transform="matrix(1,0,0,1,0,0)"><g id="svga-group-humanwrap" transform="matrix(0.8499995000000001,0,0,0.8499995000000001,14.992549517234792,18.15006049999998)"><g id="svga-group-hair-back-move" transform="matrix(1,0,0,1,0,0)"><g id="svga-group-hair-back" transform="matrix(1,0,0,1,0,0)"></g></g><g id="svga-group-humanbody-back"><path id="SvgjsPath55015" d="m170 180.3-27.3-6.9-18-9.9-1.5-28.2H76.8l-1.5 28.2-18 9.9-27.3 6.9-9.1 19.7-3 20h164.2l-3-20z" fill="#fbd5c0" stroke-width="none" opacity="1" stroke="none"></path><path id="SvgjsPath55016" d="m76.8 135.3-1.5 28.2-18 9.9-27.3 6.9-9.1 19.7-3 20h14.6v-20l2.7-17.7 23.8-6.4 24.7-8.3 3.5-32.3z" fill="#dc9f7d" stroke-width="none" opacity="1" stroke="none"></path></g><g id="svga-group-chinshadow-single"><path id="SvgjsPath55262" d="m108.1 161.8 7.7-14.6s3.7-3.4 7.7-7.1l-.3-4.8H76.8l-.5 9.8c1.4 1.3 2.4 2.2 2.4 2.2l7.7 14.6h5.5l5.4-.9 5.4.9 5.4-.1z" fill="#cd865f" stroke-width="none" opacity="1" stroke="none"></path></g><g id="svga-group-humanbody-front"><path id="SvgjsPath55017" d="m92.8 168.3 2 7.9 6.9 4.6s-8.5-3-8.7-3.6c-.2-.6-.2-8.9-.2-8.9z" fill="#dc9f7d" stroke-width="none" opacity="1" stroke="none"></path></g><g id="svga-group-clothes-single"><path id="SvgjsPath55154" d="m179.6 200-8.5-20-28.8-7.4-9.5-4.8-.1-1.5-8.3-8.8.2 3.5-1.1 12.2-7.6 7.9-9.1 1.9-2.1 5.7-2.1 2.9-7.5-9.3-10.7-1.2-5.8-7.3-3.2-13.1.2-3.2-8.3 8.8-.1 1.5-9.5 4.8L29 180l-8.6 20-3.4 20h165.9z" fill="#653220" stroke-width="none" opacity="1"></path><path id="SvgjsPath55155" d="m29.9 200.7 3.6-10.8 24.9-9.6 7.2-3.2.3-2 11.5-5.7h.1l-2.1-8.7.2-3.2-8.3 8.8-.1 1.5-9.5 4.8L29 180l-8.6 20-3.4 20h12.6z" fill="#562413" stroke-width="none" opacity="1"></path><path id="SvgjsPath55156" d="m132.8 167.8 2.7 19.2 1.2 8.7L125 188l-5.2-5.3-4.2-1.6 4 3.4-6.4 2.6-7.9 1.5 7-.6-8.7 11.8V220h1.7l-.8-19.8 7.8-12 1-.1 7.1-2.8 4.2 4.5 13.3 8.1-1.6-12.4-3.5-17.7zm-33.1 29.7 2.9-5.9-3.5 5-6.1-8.7-12.5-3.4 3.8-3.3-4.2 1.6L75 188l-11.7 7.7 1.2-8.7 2.7-19.2-3.4 17.7-1.6 12.4 13.3-8.1 4.6-4.9.5-.5 11.8 4.3 6.1 8.6-1.2.7 1.1 21.9h1.5l-1.3-21 1.1-1.4zm10.5-12.8-1.5-.8-.9 1.4 1.4 1 1-1.6zm-9.3 13.3 1.4 1 1-1.7-1.5-.8-.9 1.5zm-.8 18.6 1.4 1 1-1.7-1.5-.8-.9 1.5zm-69.7-35.3 6.8 21 1.2 17.7h1.4l-1.1-17.8-8.3-20.9zm130.5 19.3-1.2 19.4h1.9l1-19.2 7-18.2-8.7 18z" fill="#461808" stroke-width="none" opacity="1"></path><path id="SvgjsPath55157" d="m127 162.5-1.1-1.4v13l-5.3 8 4.8 4.6s2.3-11.1 2.3-11.8c0-.7-.7-12.4-.7-12.4zm-53.2.1.5-2.3-1.8 2.5 1.2 13.4 2.1 9.5 3.8-4.3-3.9-6.1-1.9-12.7z" fill="#744230" stroke-width="none" opacity="1"></path></g><g id="svga-group-head" transform="matrix(1,0,0,1,0,0)"><g id="svga-group-ears-left-move" transform="matrix(1,0,0,1,0,0)"><g id="svga-group-ears-left" transform="matrix(1,0,0,1,0,0)"><path id="SvgjsPath55169" d="m58.4 92.2-5-3.9-4.1 14.6 2.7 10.2 5.7 5.1 3.6-.9 2.8-7.6-1.4-12.6z" fill="#fbd5c0" stroke-width="none" opacity="1" stroke="none"></path><path id="SvgjsPath55170" d="m51.4 102 3.2-6.3 2.8 5.5.5 8s-3.1-.7-3.2-1c0-.3 1.2-6.5 1.1-6.8-.1-.3-1-3.6-1.2-3.5-.1.1-3.2 4.1-3.2 4.1z" fill="#dc9f7d" stroke-width="none" opacity="1" stroke="none"></path><path id="SvgjsPath55171" d="m60 113.6-1.4-16.5-5.2-8.8 5.9 2.8 3.4 6 1.4 12.6-2.8 7.6-3.6.9-5.7-5.1s5.4 2.1 5.5 2.1c.3.1 2.5-1.6 2.5-1.6z" fill="#ecb99d" stroke-width="none" opacity="1" stroke="none"></path></g></g><g id="svga-group-ears-right-move" transform="matrix(1,0,0,1,0,0)"><g id="svga-group-ears-right" transform="matrix(1,0,0,1,0,0)"><path id="SvgjsPath55172" d="m141.6 92.2 5-3.9 4.1 14.6-2.7 10.2-5.7 5.1-3.6-.9-2.8-7.6 1.4-12.6z" fill="#fbd5c0" stroke-width="none" opacity="1" stroke="none"></path><path id="SvgjsPath55173" d="m148.6 102-3.2-6.3-2.8 5.5-.5 8s3.1-.7 3.2-1-1.2-6.5-1.1-6.8c.1-.3 1-3.6 1.2-3.5.1.1 3.2 4.1 3.2 4.1z" fill="#dc9f7d" stroke-width="none" opacity="1" stroke="none"></path><path id="SvgjsPath55174" d="m140 113.6 1.4-16.5 5.2-8.8-5.9 2.8-3.4 6-1.4 12.6 2.8 7.6 3.6.9 5.7-5.1s-5.4 2.1-5.5 2.1c-.3.1-2.5-1.6-2.5-1.6z" fill="#ecb99d" stroke-width="none" opacity="1" stroke="none"></path></g></g><g id="svga-group-faceshape-wrap" transform="matrix(1,0,0,1,0,0)"><g id="svga-group-faceshape-single"><path id="SvgjsPath55251" d="M143.4 84.8c-.2-10.2-5.3-24.8-5.3-24.8-6.9-11.6-19.7-19.5-19.7-19.5-7.2-1.5-18.4-2.3-18.4-2.3s-11.1.8-18.4 2.3c0 0-12.8 7.9-19.7 19.5 0 0-5.1 14.5-5.3 24.8-.3.8 2.2 25.6 2.2 25.6l6.1 15.2c2.1 2.9 16.6 16.1 16.6 16.1l7.7 14.6h5.5l5.4-.9 5.4.9h5.5l7.7-14.6s14.4-13.2 16.6-16.1l6.1-15.2c-.2-.1 2.3-24.8 2-25.6z" fill="#fbd5c0" stroke-width="none" opacity="1" stroke="none"></path><path id="SvgjsPath55252" d="m109.5 154.4-9.3-2.9-10 2.9-6.3-15.2-14.8-14.7-6.1-15.9s-2.3-22.9-2.5-23.8 5.2-22.4 5.2-22.4l17.5-19L99.9 40l18.5.5c-7.2-1.5-18.4-2.3-18.4-2.3s-11.1.8-18.4 2.3c0 0-12.8 7.9-19.7 19.5 0 0-5.1 14.5-5.3 24.8-.3.8 2.2 25.6 2.2 25.6l6.1 15.2c2.1 2.9 16.6 16.1 16.6 16.1l7.7 14.6h5.5l5.4-.9 5.4.9h5.5l7.7-14.6s14.4-13.2 16.6-16.1l-16.9 14.9-8.9 13.9z" fill="#dc9f7d" stroke-width="none" opacity="1" stroke="none"></path></g></g><g id="svga-group-mouth-single-move" transform="matrix(1,0,0,1,0,0)"><g id="svga-group-mouth-single" transform="matrix(1,0,0,1,0,0)"><path id="SvgjsPath55390" d="m84.99 125.5 2.75 3.94 12.37-.68 12.45.84 3.02-3.87-3.73 2.46-6.81-2.5-4.93 1.46-4.57-1.35-7.7 1.93z" fill="#e2929b" stroke-width="none" opacity="1" transform="translate(0 2)"></path><path id="SvgjsPath55391" d="m89.12 131.92 1.15 2.64 10.05 2.86 10.83-3.61-10.89 2.15-9.41-2.31-1.73-1.73z" fill="#dc9f7d" stroke-width="none" opacity="1" transform="translate(0 2)"></path></g></g><g id="svga-group-eyes-left-move" transform="matrix(1,0,0,1,0,0)"><g id="svga-group-eyes-left" transform="matrix(1,0,0,1,0,0)"><g id="svga-group-eyesback-left"><path id="SvgjsPath55205" d="m91.4 96.5-7.2-6.3-8.9 2.9-4.6 6s8.9 1.5 11.5 1.7l9.2-4.3z" fill="#ffffff" stroke-width="none" opacity="1"></path></g><g id="svga-group-eyesiriswrapper-left" transform="matrix(1,0,0,1,0,0)"><g id="svga-group-eyesiriscontrol-left" transform="matrix(1,0,0,1,0,0)"><g id="svga-group-eyesiris-left" transform="matrix(1,0,0,1,0,0)"><path id="SvgjsPath55266" d="M76.2 97.3v-5.6l4.8-2.8 4.9 2.8v5.6l-4.9 2.8z" fill="#ddb332" stroke-width="none" opacity="1"></path><path id="SvgjsPath55267" d="m78.6 98.7 2.4 1.4 4.9-2.8v-4.1l-2.5-1.4-4.8 2.8z" fill="#e5bc3f" stroke-width="none" opacity="1"></path><path id="SvgjsPath55268" d="m81 89.2 4.6 2.7v5.3L81 99.8l-4.6-2.7v-5.3l4.6-2.6m0-.6-5.1 2.9v5.9l5.1 2.9 5.1-2.9v-5.9L81 88.6z" fill="#be9105" stroke-width="none" opacity="1"></path><path id="SvgjsPath55269" d="M82.3 92.3h-2.6l-1.3 2.2 1.3 2.3h2.6l1.3-2.3z" fill="#000000" stroke-width="none" opacity="1"></path><path id="SvgjsPath55270" d="M79 91.6h2v2h-2v-2z" fill="#ffffff" stroke-width="none" opacity="1"></path><path id="SvgjsPath55271" d="M81.5 96.1h1.1v1.1h-1.1v-1.1z" fill="#ffffff" stroke-width="none" opacity="1"></path></g></g></g><g id="svga-group-eyesfront-left"><path id="SvgjsPath55213" d="M67.1 89.3v11.9l7.9 8.4h11.2l7.9-8.4V89.3l-7.9-8.4H75l-7.9 8.4zm3.6 9.8 4.6-6 8.9-2.9 7.2 6.3-9.2 4.2c-2.6-.1-11.5-1.6-11.5-1.6z" fill="#fbd5c0" stroke-width="none" opacity="1" stroke="none"></path><path id="SvgjsPath55214" d="m68.5 99.2 6.5-6.5 15.3-5.5 3.2 10.6-7.9 7 6.7-7.5-1-.5-5.4 2.2 4.7-3-6-5-9.4 2.7-4.7 5.8 1.4-2.5z" fill="#ecb99d" stroke-width="none" opacity="1" stroke="none"></path><path id="SvgjsPath55215" d="m70.5 99.5 4.7-5.8 12.6-3.3-2.9-.3-9.9 3.1z" fill="#2e0914" stroke-width="none" opacity="1" stroke="none"></path></g></g></g><g id="svga-group-eyes-right-move" transform="matrix(1,0,0,1,0,0)"><g id="svga-group-eyes-right" transform="matrix(1,0,0,1,0,0)"><g id="svga-group-eyesback-right"><path id="SvgjsPath55206" d="m108.6 96.5 7.2-6.3 8.9 2.9 4.6 6s-8.9 1.5-11.5 1.7l-9.2-4.3z" fill="#ffffff" stroke-width="none" opacity="1"></path></g><g id="svga-group-eyesiriswrapper-right" transform="matrix(1,0,0,1,0,0)"><g id="svga-group-eyesiriscontrol-right" transform="matrix(1,0,0,1,0,0)"><g id="svga-group-eyesiris-right" transform="matrix(1,0,0,1,0,0)"><path id="SvgjsPath55272" d="M114.1 97.3v-5.6l4.9-2.8 4.8 2.8v5.6l-4.8 2.8z" fill="#ddb332" stroke-width="none" opacity="1"></path><path id="SvgjsPath55273" d="m116.5 98.7 2.5 1.4 4.8-2.8v-4.1l-2.4-1.4-4.9 2.8z" fill="#e5bc3f" stroke-width="none" opacity="1"></path><path id="SvgjsPath55274" d="m119 89.2 4.6 2.7v5.3l-4.6 2.7-4.6-2.7v-5.3l4.6-2.7m0-.6-5.1 2.9v5.9l5.1 2.9 5.1-2.9v-5.9l-5.1-2.9z" fill="#be9105" stroke-width="none" opacity="1"></path><path id="SvgjsPath55275" d="M120.3 92.3h-2.6l-1.3 2.2 1.3 2.3h2.6l1.3-2.3z" fill="#000000" stroke-width="none" opacity="1"></path><path id="SvgjsPath55276" d="M117 91.6h2v2h-2v-2z" fill="#ffffff" stroke-width="none" opacity="1"></path><path id="SvgjsPath55277" d="M119.5 96.1h1.1v1.1h-1.1v-1.1z" fill="#ffffff" stroke-width="none" opacity="1"></path></g></g></g><g id="svga-group-eyesfront-right"><path id="SvgjsPath55216" d="M125 80.8h-11.2l-7.9 8.4v11.9l7.9 8.4H125l7.9-8.4V89.3l-7.9-8.5zm-7.2 19.9-9.2-4.2 7.2-6.3 8.9 2.9 4.6 6s-8.9 1.5-11.5 1.6z" fill="#fbd5c0" stroke-width="none" opacity="1" stroke="none"></path><path id="SvgjsPath55219" d="m131.5 99.2-6.5-6.5-15.3-5.5-3.2 10.6 7.9 7-6.7-7.5 1-.5 5.4 2.2-4.7-3 6-5 9.4 2.7 4.7 5.8-1.4-2.5z" fill="#ecb99d" stroke-width="none" opacity="1" stroke="none"></path><path id="SvgjsPath55220" d="m129.5 99.5-4.7-5.8-12.6-3.3 2.9-.3 9.9 3.1z" fill="#2e0914" stroke-width="none" opacity="1" stroke="none"></path></g></g></g><g id="svga-group-facehighlight-single"></g><g id="svga-group-eyebrows-left-move" transform="matrix(1,0,0,1,0,0)"><g id="svga-group-eyebrows-left-rotate" transform="matrix(1,0,0,1,0,0)"><g id="svga-group-eyebrows-left" transform="matrix(1,0,0,1,0,0)"><path id="SvgjsPath55132" d="m92.6 78-1.7 6.7-2.1 1.3-23.2-1.6-.2-5.9 9.8-1.7 14.7-.2z" fill="#fef6e1" stroke-width="none" opacity="1"></path><path id="SvgjsPath55133" d="M88.8 86h-.5c1-1.5 2.5-3.8 3.8-5.8l-.4 1.6-1.8 3.6-1.1.6zM84 76.7h.9c.1 2.9.3 6.9.4 9.1l-1.7-.1.4-9zm3.7 9.2-1.6-.1c.9-2.3 2.4-6.7 3.3-9.2h.5l.5.3-2.7 9zm-10.4-9.1 2.2 8.6-1-.1-1.3-8.5h.1zm-1.6 8.3-1.2-.1-3.7-7.5h.2l4.7 7.6zm-10.2-2.7v-.5l4.2 2.8-2-.1-2.2-2.2zm4.9 2.3-5-6v-.2l6.5 6.4-1.5-.2zm10.5.7-1.2-.1-.2-8.7h.3l1.1 8.8z" fill="#efe1bc" stroke-width="none" opacity="1"></path></g></g></g><g id="svga-group-eyebrows-right-move" transform="matrix(1,0,0,1,0,0)"><g id="svga-group-eyebrows-right-rotate" transform="matrix(1,0,0,1,0,0)"><g id="svga-group-eyebrows-right" transform="matrix(1,0,0,1,0,0)"><path id="SvgjsPath55134" d="m107.4 78 1.7 6.7 2.1 1.3 23.2-1.6.2-5.9-9.8-1.7-14.7-.2z" fill="#fef6e1" stroke-width="none" opacity="1"></path><path id="SvgjsPath55135" d="M111.2 86h.5c-1-1.5-2.5-3.8-3.8-5.8l.4 1.6 1.8 3.6 1.1.6zm4.8-9.3h-.9c-.1 2.9-.3 6.9-.4 9.1l1.7-.1-.4-9zm-3.7 9.2 1.6-.1c-.9-2.3-2.4-6.7-3.3-9.2h-.5l-.5.3 2.7 9zm10.4-9.1-2.2 8.6 1-.1 1.3-8.5h-.1zm1.6 8.3 1.2-.1 3.7-7.5h-.2l-4.7 7.6zm10.2-2.7v-.5l-4.2 2.8 2-.1 2.2-2.2zm-4.9 2.3 5-6v-.2l-6.5 6.4 1.5-.2zm-10.5.7 1.2-.1.2-8.7h-.3l-1.1 8.8z" fill="#efe1bc" stroke-width="none" opacity="1"></path></g></g></g><g id="svga-group-beardwrap" transform="matrix(1,0,0,1,0,0)"><g id="svga-group-beard-single-move" transform="matrix(1,0,0,1,0,0)"><g id="svga-group-beard-single" transform="matrix(1,0,0,1,0,0)"></g></g></g><g id="svga-group-mustache-single-move" transform="matrix(1,0,0,1,0,0)"><g id="svga-group-mustache-single" transform="matrix(1,0,0,1,0,0)"></g></g><g id="svga-group-nose-single-move" transform="matrix(1,0,0,1,0,0)"><g id="svga-group-nose-single" transform="matrix(1,0,0,1,0,0)"><path id="SvgjsPath55324" d="m101.27 106.27-5.1.93-3.46-.09-.78 1.36-2.73 7.56 5.1 1.86.49-1.51 1.24.22.09 1.51 3.91.36 3.85-.4v-1.73l1.29-.09.53 1.59 5.24-1.9-2.85-7.47z" fill="#fbd5c0" stroke-width="none" opacity="1" transform="translate(0 1)" stroke="none"></path><path id="SvgjsPath55325" d="m97.36 96.05-2.52 10.77h-2.25l-.66 1.65 1.21-1.03 3.07.2 5.38-1.02 2.12.47-2.8-1.22-5.11.47z" fill="#dc9f7d" stroke-width="none" opacity="1" transform="translate(0 1)" stroke="none"></path><path id="SvgjsPath55326" d="m108.09 108.47 2.27 7.54-4.47 1.28-.55-1.71-1.78.3-.12 1.84-3.25.25h-.36l-3.24-.25-.12-1.84-1.78-.3-.55 1.71-4.47-1.28 2.26-7.54-3.43 7.44 6.01 2.66.36-1.71.92.13-.06 1.47 4.1.37h.36l4.11-.37-.07-1.47.92-.13.37 1.71 6-2.66z" fill="#dc9f7d" stroke-width="none" opacity="1" transform="translate(0 1)" stroke="none"></path><path id="SvgjsPath55327" d="M96.57 109.26c.33-.11 6.43-.78 6.43-.78l1.77 1.77-1.66 4.99-6.2-.66-.34-5.32z" fill="#ffe1d0" stroke-width="none" opacity="1" transform="translate(0 1)" stroke="none"></path></g></g><g id="svga-group-hair-front" transform="matrix(1,0,0,1,0,0)"><path id="SvgjsPath55369" d="m124.2 43-6.2-4.3-8.8-1.2 2-5.5-1.3-5.7-6.3-4.2-10.3 1-4.8 6.2-.8 5.1 2.5 3.6-8.5 1.1-11.6 10.6 12.6-.7 15 8.1h7.1l16.1-10.8 10.7 5.2z" fill="#fef6e1" stroke-width="none" opacity="1" stroke="none"></path><path id="SvgjsPath55370" d="m70.1 49.7 12.6-.7 15 8.1h7.1L121 46.3l10.7 5.2-11.9-7.8L106 54.4l-8.6.6-5.6-8.6 2.9-8.3-3.9 7.8 4.5 7.7-8.7-5.6-.1-5.7 2.9-3.9s-3.9 3.4-3.9 3.7v5.3l-5.3-.6 1.6-7.7-11.7 10.6zm31.3 5.4-1.3-6.9 1-10.1.9 10.4-.6 6.6zm10.8-4.4-1.8-7.6-4.5-5.7 5.8 4.9 2 7.6-1.5.8zm-14.7-9.9L90.2 38l-2.4-3.6.8-5.2 4.8-6.2 10.3-1 4.3 6.2-1.1 7.8s-6.6 1-6.2.7 5.3-1.4 5.2-1.8c-.1-.4.6-7.1.6-7.1l-4.6-4.4-7.6 1.7-3.7 4.9-1.1 4 1.8 3 6.2 3.8zm0-2.6c0-.8-1.6-8.1-1.1-8.6s6.5-7 6.2-6.6-4.8 7.4-4.8 7.4l-.3 7.8zm7.1.4s4.8-6 5-6.4c.2-.4.4-6 .4-6l1.3 5.8-2.1 5.5-4.6 1.1z" fill="#efe1bc" stroke-width="none" opacity="1" stroke="none"></path></g><g id="svga-group-glasses-single-move" transform="matrix(1,0,0,1,0,0)"><g id="svga-group-glasses-single" transform="matrix(1,0,0,1,0,0)"></g></g></g></g></g><rect id="svga-credit-rect" width="200" height="15" x="0" y="185" fill="#ecf0f1" opacity="0.5" style="display: none;"></rect><text id="svga-credit-text" font-family="Avenir Next, Roboto, Helvetica, Arial, sans-serif" font-size="10px" text-anchor="start" font-weight="400" size="10px" anchor="start" weight="400" fill="#333333" x="33.40447998046875" y="182.60824704170227" style="display: none;"><tspan id="SvgjsTspan54671" dy="13" x="33.40447998046875">Created on AvatarMaker.com</tspan></text></g></svg>