<svg xmlns="http://www.w3.org/2000/svg" version="1.1" width="600px" height="600px" viewBox="0 0 200 200" style="overflow:hidden!important;"><g id="svga-group-wrapper"><g id="svga-group-backs-single"><path id="SvgjsPath26040" d="M0 0h200v200H0V0z" fill="#e5fcc2" stroke-width="none" opacity="1" stroke="none"></path><path id="SvgjsPath26041" d="M88.8 158.9s-21.3-3-23.6-17.1c-1.5-9.3 10.5-9.3 14.8-5.5 0 0 3.3-8.7 9.9-7.2 8.4 1.9 9.2 12.7-1.1 29.8zM38.7 51s14.9-16.3 6.8-30.1c-5.3-9.2-14.9-1.5-15.7 4.6 0 0-8.8-5.6-13 0-5.4 7 1.6 17 21.9 25.5zM168 165s-2.6-14.4 1.6-22.7 14.8-4 13.3 4.9c0 0 8.2-2 10.6 4.5 2.3 6.4-10 12.7-25.5 13.3zm6.6-139.5s5.2-1.9 5.9-4.8c.8-3-3-3.5-4.5-1.6 0 0-1.1-2.8-3.1-2.2-1.9.5-2.2 2.6 1.7 8.6z" fill="#b8dd7e" stroke-width="none" opacity="1" stroke="none"></path><path id="SvgjsPath26042" d="M125 33.1s-13-1.2-19.2-6.8.1-13.7 7.4-10.3c0 0 .2-7.6 6.3-8 6.2-.5 8.7 11.5 5.5 25.1zm15.9 84.9s3.6-4.2 2.8-7.1c-.8-3-4.4-1.6-4.7.8 0 0-2.4-1.9-3.8-.4s-.6 3.4 5.7 6.7zm12.2 66.9s7.1-.7 9-4.2-2.7-5.4-5.2-3.4c0 0-.5-3.9-3.2-3.8s-3.6 2.7-.6 11.4zm-122.9 5.7s23.3-3.5 29-15.3-9.8-17.2-17.5-10.6c0 0-2.3-12.8-11-11.9s-11.7 9.5-.5 37.8zm3.5-106.7s3.3-12.8-1.5-18.3-11 1.3-9.3 6.7c0 0-7.1-1.6-8.5 3-1.4 4.8 2.3 8.2 19.3 8.6z" fill="#ceed9f" stroke-width="none" opacity="1" stroke="none"></path><path id="SvgjsPath26043" d="M149.4 76.1s-24.7-19.3-16.5-40.8c5.4-14.2 20.6-5.7 23.2 2.7 0 0 11-10 18.2-3.2 9.1 8.6 1.6 24.4-24.9 41.3zm7 29.6s-4.5-12.3-2-20.2 12.4-5.8 12.4 2.3c0 0 6.9-3 10 2.3 3 5.4-6.9 12.7-20.4 15.6zM53.9 143.9s-13-1.2-19.2-6.8.1-13.7 7.4-10.3c0 0 .2-7.6 6.3-8s8.7 11.6 5.5 25.1zm89.6 23.3s-4.6-9.3-3.3-15.7c1.2-6.5 9.3-5.6 10 .8 0 0 5.2-3 8 1s-4.3 10.5-14.7 13.9zM65.3 46s5.8-6.7 4.5-11.4-7-2.5-7.5 1.2c0 0-3.8-3.1-6-.7-2.2 2.4-1 5.6 9 10.9zm-40.7 81.2s4.7-5.4 3.7-9.3-5.7-2-6.1 1c0 0-3.1-2.5-4.9-.6s-.8 4.6 7.3 8.9zm53 60.3s5.2-1.9 5.9-4.8-3-3.5-4.5-1.6c0 0-1.1-2.8-3.1-2.2-1.8.6-2.1 2.7 1.7 8.6zm47.7-12.7s4.7-5.4 3.7-9.3c-1-3.9-5.7-2-6.1 1 0 0-3.1-2.5-4.9-.6-1.9 2-.9 4.6 7.3 8.9zm-22.6-132s4.7-5.4 3.7-9.3-5.7-2-6.1 1c0 0-3.1-2.5-4.9-.6-1.9 2-.9 4.6 7.3 8.9zM77.3 94.4s8.8-4.2 9.6-9.5-5.9-5.6-8.2-2.1c0 0-2.5-4.8-5.8-3.3-3.2 1.4-3.4 5.1 4.4 14.9z" fill="#d9f4b0" stroke-width="none" opacity="1" stroke="none"></path></g><g id="svga-group-humanwrap-move" transform="matrix(1,0,0,1,0,0)"><g id="svga-group-humanwrap"><g id="svga-group-hair-back-move" transform="matrix(1,0,0,1,0,0)"><g id="svga-group-hair-back"><path id="SvgjsPath25997" d="M120 28.1s3.7-7.1-5.6-12.8-20.7-6.6-25.1-3.7c0 0-22.9-7.6-40 21.2 0 0-7.1 3.2-11 17.3s8 38.3 8 38.3 11.2 25.9 4.2 38.8-12.9 19.5-12.5 28.6c.5 9 4.6 14.9 13.9 21.7s10.5 19.8 10.5 19.8 11.2-3.2 12.7-8.8c1.5-5.6-1-18.3.5-24.2 1.5-5.9 4.6-12.2 6.8-19.8C84.7 137.1 120 28.1 120 28.1z" fill="#fffbbf" stroke-width="none" opacity="1"></path><path id="SvgjsPath25998" d="M120.4 22.5c-.5-1.6-1.4-3-2.5-4.2-2.2-2.5-4.8-4.5-7.7-5.9-1.5-.7-3-1.3-4.6-1.7-1.6-.4-3.2-.7-4.8-.8-3.2-.3-6.5.2-9.5 1.3 3.2-.5 6.3-.6 9.4-.1 3.1.4 6.1 1.3 8.8 2.7 1.4.7 2.7 1.4 4 2.4 1.3.9 2.4 1.9 3.6 3 1.1 1.1 2 2.3 2.7 3.7.7 1.4.9 3 .5 4.5.7-1.6.6-3.4.1-4.9zM89.9 11.6c-4.1-1.3-8.5-1.4-12.7-.6-4.2.8-8.2 2.4-11.9 4.6-1.8 1.1-3.6 2.3-5.3 3.7-1.7 1.3-3.2 2.8-4.7 4.4-2.7 3-5 6.5-6.8 10.2-2.4 1.5-4.4 3.5-6 5.8-1.8 2.6-3.2 5.6-4.1 8.7-1.7 6.2-1.7 12.8-.4 19.1 2.6 12.7 9.2 23.9 12.2 36.1 1.5 6.1 2.2 12.5 1.2 18.6-.5 3.1-1.6 6-3.1 8.8-1.5 2.8-3.3 5.3-5 8-1.7 2.7-3.3 5.5-4.3 8.6-1 3.1-1.4 6.5-.5 9.6.9 3.2 3 5.8 5.4 7.9 2.4 2.1 5.1 3.8 7.8 5.4-2.7-1.8-5.3-3.6-7.6-5.7-2.3-2.2-4.2-4.8-5-7.8-.8-3-.4-6.2.7-9.1 1-3 2.6-5.7 4.4-8.3s3.7-5.2 5.2-8.1c1.6-2.8 2.7-5.9 3.3-9.1 1.2-6.4.5-13-1-19.2-1.6-6.2-4-12.2-6.4-18.1-2.4-5.9-4.7-11.8-6.1-17.9-1.4-6.1-1.6-12.6 0-18.7.8-3.1 2-6 3.7-8.6 1.5-2.3 3.4-4.3 5.7-6-1.9 4-3.2 8.2-3.8 12.6-.5 4.2-.4 8.5.3 12.7.8 4.2 2.1 8.2 4 12-.8-1.9-1.5-3.9-2.1-5.9-.5-2-1-4.1-1.2-6.2-.5-4.1-.5-8.3.2-12.4s1.8-8.1 3.7-11.8c.9-1.9 1.9-3.7 3.1-5.4 1.2-1.7 2.5-3.3 3.8-4.9 5.5-6.1 12.8-10.8 20.9-12.6 4-.9 8.3-.9 12.3.2s7.7 3.3 10.4 6.5c-2.5-3.3-6.3-5.8-10.3-7.1zM69 26.8c-3.3 1.4-6.3 3.5-8.9 6-2.5 2.5-4.7 5.5-6.3 8.8-1.6 3.3-2.7 6.7-3.3 10.3-1.3 7.1-.8 14.4.3 21.5 1.2 7.1 3.1 14 4.8 20.9 1.7 6.9 3.3 13.8 3.8 20.9.4 7-.2 14.2-2.8 20.8-.6 1.6-1.4 3.2-2.2 4.8-.5.7-.9 1.5-1.4 2.2-.5.7-1 1.4-1.6 2.1-2.2 2.8-4.6 5.6-6 8.9-.7 1.7-1.2 3.5-1.2 5.3-.1 1.8.4 3.7 1.3 5.2.9 1.6 2.2 2.9 3.6 4s2.9 2 4.5 2.9c-1.5-1-3-2-4.3-3.1-1.3-1.1-2.6-2.4-3.4-4-.8-1.5-1.2-3.3-1.1-5 .1-1.7.6-3.4 1.3-5 1.5-3.2 3.9-5.9 6.1-8.6.6-.7 1.1-1.4 1.6-2.1s1-1.5 1.5-2.3c.9-1.6 1.8-3.2 2.4-4.9 1.4-3.4 2.2-6.9 2.7-10.5.5-3.6.5-7.2.3-10.8-.4-7.2-2-14.3-3.7-21.2-1.8-6.9-3.7-13.8-4.9-20.8-1.2-7-1.6-14.1-.5-21.1.5-3.5 1.5-6.9 3-10.1 1.5-3.2 3.5-6.1 6-8.7 2.4-2.6 5.4-4.7 8.5-6.2 3.2-1.5 6.8-2.2 10.3-2.1-3.4-.1-7.1.5-10.4 1.9z" fill="#e0da7b" stroke-width="none" opacity="1"></path><path id="SvgjsPath25999" d="m76.2 26.7 4.5-3.6s4-4 13.6-4.9c5.9-.5 15 .1 21.4 4.1 2.6 1.6 4.5 4.8 4.5 4.8s-8.5-4.9-21-4.6c-12.4.4-17.8 1.6-23 4.2z" fill="#000000" stroke-width="none" opacity="1"></path></g></g><g id="svga-group-humanbody-back"><path id="SvgjsPath25819" d="M77.8 105.9s4.8 37.7 10 55.8c0 0-6.4 8.8-14.5 11.9-28.7 11.2-35 11.2-39.6 15.2-2.4 2.1.2 11.1 1.8 17.2 1.3 5 1.7 13.2 1.7 13.2h132.2s1.6-33-.6-39.8-7.1-2.9-21.9-4.5c-14.8-1.6-28.7-10.3-31-13.2l.3-60-38.4 4.2z" fill="#f6e4e2" stroke-width="none" opacity="1"></path></g><g id="svga-group-chinshadow-single"><path id="SvgjsPath25815" d="M85.6 152.8c6.6 3.5 10.7 3.5 10.7 3.5s8 0 19.6-9.5l.2-45.2-38.4 4.2c.1.1 3.6 27.7 7.9 47z" fill="#d7a19b" stroke-width="none" opacity="1"></path></g><g id="svga-group-humanbody-front"><path id="SvgjsPath25820" d="M72.1 183.1s14.6-.2 20.4 2.6c5.8 2.9 12.7 2.4 16.1-1s21.6-7 21.6-7-19.7 1.9-25 4.6c-5.3 2.7-22.3-2.8-33.1.8z" fill="#d7a19b" stroke-width="none" opacity="1"></path><path id="SvgjsPath25821" d="M74.2 173.2c6.7-1.3 14.7-6.4 14.7-6.4l6.2 5.5c-4.3-7.9-12.7-41.1-12.7-41.1l-.7.7c1.7 10.5 3.9 21.9 6.1 29.7 0 0-6 8.2-13.6 11.6z" fill="#d7a19b" stroke-width="none" opacity="1"></path><path id="SvgjsPath25822" d="M170.7 188.5c-.1-2.1-.2-4.1-.4-6.2-.1-1-.3-2.1-.6-3.2-.2-.5-.4-1-.6-1.6-.2-.5-.6-1-1-1.5s-.9-.9-1.5-1.1c-.6-.3-1.1-.4-1.7-.6-1.1-.2-2.2-.2-3.2-.2-2.1 0-4.1.1-6.1.1s-4-.1-6-.2-4-.4-6-.7c-1-.2-2-.4-2.9-.6l-1.5-.4c-.5-.1-1-.3-1.4-.4-3.8-1.1-7.6-2.6-11.2-4.4l-1.3-.7-1.3-.7c-.4-.2-.9-.5-1.3-.8s-.9-.5-1.3-.8-.8-.5-1.3-.8l-1.2-.9-.6-.5-.3-.2-.3-.2c-.2-.2-.4-.3-.5-.5l-.2-.3v-44.6l-.1-15v-.6l-.6.1c-6.4.8-12.9 1.5-19.3 2.3l-19.1 2.3v.5l.1.4.1.9.2 1.8c.1 1.2.3 2.3.4 3.5l.9 7c.6 4.7 1.3 9.4 2.1 14 .8 4.7 1.5 9.3 2.5 14 .9 4.5 1.8 9 3 13.5-1.1 1.4-2.3 2.7-3.6 4-1.3 1.3-2.8 2.6-4.3 3.8-1.5 1.1-3.1 2.2-4.8 3l-1.3.6c-.4.2-.9.3-1.3.5l-2.7 1c-7.2 2.7-14.5 5.3-21.8 7.7l-5.5 1.8c-1.8.6-3.7 1.3-5.5 2.2-.4.2-.9.5-1.3.7-.4.3-.9.5-1.3.9l-.6.5c-.2.2-.5.5-.6.8-.3.5-.4 1.1-.5 1.6-.2 1.1-.1 2.1 0 3.1s.3 2 .4 2.9c.4 1.9.8 3.8 1.3 5.7l.8 2.8c.3.9.5 1.8.7 2.8.4 1.9.7 3.8.9 5.7s.4 3.8.5 5.7v.8h133.4v-.8c.2-4.1.4-8.2.5-12.3s.2-8.2.2-12.3c0-1.8-.1-3.8-.1-5.9zm-67.4 30.3H70.2l-16.5-.1-16-.1c-.1-1.8-.2-3.5-.4-5.3-.2-1.9-.4-3.9-.8-5.8-.2-1-.4-1.9-.7-2.9l-.7-2.8c-.5-1.9-.9-3.7-1.2-5.6-.2-.9-.3-1.9-.4-2.8-.1-.9-.1-1.9 0-2.7.1-.4.2-.8.4-1.1.1-.2.2-.3.3-.4l.5-.4c.3-.3.7-.5 1.1-.8.4-.2.8-.5 1.2-.7 1.7-.8 3.5-1.4 5.3-2l5.5-1.8c7.3-2.4 14.6-5 21.8-7.8l2.7-1c.5-.2.9-.3 1.4-.5l1.4-.6c1.8-.9 3.4-2 5-3.2s3-2.5 4.4-3.9 2.7-2.9 3.8-4.5l.2-.3-.1-.3c-1.3-4.5-2.3-9.1-3.3-13.7s-1.9-9.3-2.7-13.9c-.8-4.6-1.6-9.3-2.4-14l-2.2-13.9 19.3-1.8c6.2-.6 12.3-1.2 18.5-1.8l-.2 14.4-.2 15-.3 30v.4l.2.2.6.7.6.6.3.3.3.2.6.5c.4.3.9.6 1.3.9.4.3.9.6 1.3.9.4.3.9.5 1.3.8s.9.5 1.3.8l1.4.8 1.4.7c.5.2.9.5 1.4.7l1.4.7c1 .4 1.9.8 2.9 1.2s1.9.8 2.9 1.1l1.5.5c.5.2 1 .3 1.5.4.5.1 1 .3 1.5.4l1.5.4c1 .3 2 .4 3 .6 2 .4 4.1.6 6.2.8 2.1.2 4.1.2 6.2.2 2.1 0 4.1-.1 6.1-.1s4 .1 5 1.3c.5.6.9 1.4 1.2 2.3.3.9.4 1.9.6 2.8.3 2 .4 4 .5 6s.1 4.1.2 6.1c.1 7.9-.1 15.8-.4 23.7-10.8.1-21.5.1-32.3.2h-33.1z" fill="#c8837c" stroke-width="none" opacity="1"></path><path id="SvgjsPath25823" d="M150.7 219.2 147 198l-.4 21.2z" fill="#d7a19b" stroke-width="none" opacity="1"></path><path id="SvgjsPath25824" d="M47.3 203.5s2.2 11.5 2.9 15.7h3.5l-6.4-15.7z" fill="#d7a19b" stroke-width="none" opacity="1"></path></g><g id="svga-group-clothes-single"><path id="SvgjsPath25960" d="M171 186.3c-.6-10.9-3.4-11.4-5.5-12.3-2.1-1-11 .6-17-.5s-20.3-2.9-31.4-12.3l-.2-17.1s-13.7 9.1-32.8 1.4c0 0 1.2 9.5 2.5 15.2 0 0-5.8 7-9.4 9.4S55.6 178.9 50 181s-14.4 3.9-16.2 5.7-3.2 3.9-1.8 8.4c1.5 4.5 4.8 19.4 4.8 24.8h133.4c-.1-.1 1.4-22.8.8-33.6zm-66.3 15.9c-6.9 1.7-16.1-5-14.2-17.1s3.2-23.6 3.2-23.6 8.2 1 14.7 0c0 0 3 15.1 4.5 21.4 1.5 6.2-1.3 17.6-8.2 19.3z" fill="#a8dff1" stroke-width="none" opacity="1" stroke="none"></path><path id="SvgjsPath25961" d="M171.1 186.3c-.2-2.7-.4-5.5-1.3-8.1-.4-1.3-1.2-2.6-2.4-3.4-.6-.4-1.2-.7-1.9-.9-.7-.3-1.4-.3-2.1-.4-5.5 0-11 .7-16.3-.6-5.4-1-10.7-2.2-15.8-4.2-4.9-1.9-9.6-4.5-13.6-7.9 0-5.6 0-11.2-.1-16.8v-1.6l-1.3.8c-2.3 1.4-4.9 2.4-7.6 3.1-2.7.7-5.4 1.1-8.2 1.2-2.8.1-5.6-.1-8.3-.5-2.7-.5-5.4-1.2-8.1-2.2l-1-.4.2 1c.8 5 1.5 10 2.7 15-1.2 1.4-2.5 2.9-3.8 4.2-1.3 1.4-2.7 2.8-4.2 4.1-1.4 1.3-3.2 2-5 2.9-1.8.8-3.6 1.5-5.4 2.3-3.7 1.4-7.3 2.8-11 4.1l-5.5 2c-1.8.7-3.7 1.3-5.6 1.9l-5.7 1.6c-1.9.6-3.8 1.1-5.6 2.1-.5.2-.9.7-1.2 1-.3.4-.7.8-1 1.2-.6.9-1 1.9-1.1 3-.1 1.1 0 2.1.2 3.1s.5 1.9.8 2.9c1 3.8 1.8 7.6 2.5 11.5.4 1.9.7 3.9 1 5.8.3 1.9.5 3.9.5 5.7v.8h.8l33.3.2 16.7.1h16.7c11.1 0 22.2 0 33.3-.1 11.1-.1 22.2-.3 33.4-.5h.4v-.4c.3-5.6.5-11.2.6-16.8.1-2.8.1-5.6.1-8.4.1-2.8.1-5.6-.1-8.4zm-.1 8.3c0 2.8-.1 5.6-.2 8.4-.2 5.5-.6 10.9-1 16.4l-21.2-.3c.6-4 1.1-7.9 1.6-11.9.3-2.1.6-4.1.9-6.2.3-2.1.7-4.1 1.1-6.1.4-2 1-3.9 1.9-5.7.9-1.8 2-3.6 3.1-5.3 1.2-1.7 2.5-3.3 3.9-4.8s2.9-3 4.7-4.1c-1 .4-1.9.9-2.8 1.5-.9.6-1.7 1.3-2.5 1.9-1.6 1.4-3.1 2.9-4.4 4.6-1.4 1.6-2.6 3.4-3.6 5.4-1 1.9-1.7 4.1-2.2 6.1-.9 4.2-1.3 8.4-1.6 12.6-.3 4-.3 8-.2 12-3.9-.1-7.8-.1-11.6-.1-11.1-.1-22.2-.1-33.3-.1H86.9l-16.7.1-18.5.1c-.1-3-.5-5.9-.9-8.8-.5-3.1-1-6.2-1.9-9.3-.5-1.7-1.5-3.1-2.5-4.4-1-1.3-2.1-2.4-3.3-3.5-2.3-2.2-4.8-4.1-7.5-5.7 2.2 2.2 4.4 4.4 6.5 6.8 1 1.2 2 2.3 2.9 3.6.8 1.2 1.7 2.5 2 3.8.7 3 1.4 6 2.2 9.1.7 2.8 1.5 5.7 2.4 8.5l-14 .1c-.1-1.8-.3-3.4-.6-5.1-.3-2-.7-3.9-1.1-5.8-.8-3.9-1.7-7.7-2.8-11.5-.3-1-.6-1.9-.8-2.8-.2-.9-.3-1.8-.2-2.7.1-.9.4-1.7.9-2.5.2-.4.5-.7.9-1.1.3-.4.6-.6 1-.9 1.6-.9 3.5-1.5 5.4-2.1l5.6-1.7c1.9-.6 3.8-1.2 5.6-1.9l5.5-2c3.7-1.4 7.4-2.8 11-4.2 1.8-.7 3.7-1.4 5.5-2.2.9-.4 1.8-.8 2.7-1.3.9-.4 1.8-1 2.5-1.7 3.1-2.6 5.7-5.5 8.3-8.5l.1-.1-.1-.2c-1-4.7-1.6-9.4-2.2-14.2 2.4.9 4.8 1.6 7.3 2.1 2.8.6 5.7.8 8.6.8 2.9-.1 5.8-.5 8.6-1.2 2.3-.6 4.6-1.4 6.8-2.6 0 5.2.2 10.4.2 15.7v.4l.3.2c2.2 1.8 4.5 3.3 6.9 4.7 2.4 1.3 5 2.4 7.6 3.4 5.2 1.9 10.6 2.9 16.1 3.8 2.7.6 5.5.6 8.2.5 2.7-.1 5.5-.4 8.2-.3.7 0 1.4.1 1.9.3.6.3 1.3.5 1.8.9 1.1.7 1.8 2 2.3 3.2.9 2.6 1.2 5.3 1.4 8 .1 2.4 0 5.2 0 7.9zm-58.1-17-1.2-5.4-2.4-10.9-.2-.8-.8.1c-2.3.4-4.8.6-7.2.6-2.4.1-4.9 0-7.3-.2h-.4v.4c-.3 4.1-.9 8.3-1.6 12.4l-1.2 6.1-.6 3.1c-.2 1-.4 2-.5 3.1-.6 4.3.6 9 3.6 12.2 2.9 3.2 7.4 4.8 11.6 3.9 1.8-.4 3.4-1.6 4.7-3 1.3-1.4 2.2-3.1 3-4.8 1.4-3.5 2.2-7.4 1.6-11.3l-1.1-5.5zm-.6 11.2c-.1 1.8-.4 3.6-.9 5.3-.5 1.7-1.3 3.4-2.4 4.9-1.1 1.4-2.6 2.6-4.4 3.1-2 .5-4.2.2-6-.6-1.9-.9-3.5-2.2-4.6-3.8-1.2-1.6-1.9-3.5-2.4-5.4-.5-1.9-.5-3.9-.3-5.9.5-4.1.9-8.3 1.3-12.4.4-4 .9-8 1.5-12 2.3.3 4.6.5 7 .7 2.2.1 4.4.1 6.6-.1l2 10.2 1.1 5.5 1.2 5.4c.3 1.5.4 3.3.3 5.1z" fill="#69b8d2" stroke-width="none" opacity="1" stroke="none"></path></g><g id="svga-group-head" transform="matrix(1,0,0,1,0,0)"><g id="svga-group-ears-left-move" transform="matrix(1,0,0,1,0,0)"><g id="svga-group-ears-left"><path id="SvgjsPath25767" d="M62.22 91.07s-9.85-8.65-11.43-8.8c-1.36-.13-4.73 7.07-6.22 11.62-.39 1.2-.3 2.54.22 3.7 1.43 3.16 4.6 9.75 7.44 13.05 0 0 2.4.52 3.16.29s6.69-5 7.3-6.86.74-9.97-.47-13z" fill="#f6e4e2" stroke-width="none" opacity="1"></path><path id="SvgjsPath25768" d="M63.07 94.44c.16 1.16.25 2.33.29 3.5.05 1.17.05 2.34-.01 3.51-.03.59-.08 1.17-.15 1.76-.05.3-.09.59-.17.9-.09.31-.25.62-.41.85-.64.98-1.41 1.72-2.18 2.48-.78.74-1.58 1.44-2.39 2.12-.41.33-.82.67-1.25.98-.21.16-.43.31-.65.46l-.35.22c-.14.07-.31.15-.47.17-.59.07-1.09-.01-1.61-.08-.51-.07-1.02-.17-1.53-.28l-.12-.03-.07-.09c-1.28-1.53-2.32-3.25-3.3-4.99-.97-1.75-1.85-3.56-2.7-5.38l-1.25-2.75c-.44-.92-.63-2.02-.48-3.05.06-.52.23-1.01.39-1.48s.33-.94.5-1.41c.35-.93.7-1.86 1.07-2.78.76-1.83 1.55-3.65 2.59-5.32.26-.42.54-.82.88-1.2.17-.19.35-.37.6-.52.12-.07.27-.14.46-.14.17.01.28.06.42.1.94.41 1.65 1 2.43 1.56 1.52 1.14 2.98 2.35 4.41 3.61 1.44 1.25 2.85 2.53 4.24 3.87.43 1.1.64 2.26.81 3.41zm-9.79-10.31c-.75-.52-1.54-1.11-2.29-1.42-.08-.02-.18-.07-.23-.07-.03 0-.1.01-.18.06-.15.08-.31.22-.45.39-.3.32-.57.7-.83 1.09-1.02 1.59-1.92 3.33-2.74 5.1-.41.89-.81 1.78-1.16 2.71-.18.46-.35.92-.52 1.39-.17.47-.34.92-.4 1.41-.13.98.06 2 .49 2.88.42.91.86 1.81 1.32 2.7.9 1.78 1.87 3.52 2.88 5.22 1.02 1.69 2.09 3.35 3.32 4.79l-.19-.11c.97.18 2.03.38 2.91.29.1-.01.16-.06.25-.1l.31-.2.62-.45c.41-.3.82-.63 1.23-.95.81-.66 1.6-1.34 2.37-2.06.75-.72 1.52-1.47 2.11-2.3.15-.22.25-.4.33-.63.07-.24.12-.51.17-.78.08-.55.15-1.12.19-1.69.08-1.14.12-2.29.13-3.45.01-1.15-.04-2.31-.13-3.46-.09-1.14-.23-2.32-.59-3.39-2.96-2.34-5.91-4.75-8.92-6.97z" fill="#e7c1bd" stroke-width="none" opacity="1"></path><path id="SvgjsPath25769" d="M62.45 98.39S52.96 86.4 51.18 87.4s-4.58 6.65-4.57 8.53c.02 2.77 2.95 7.4 4.42 8.8s3.25 2.25 5.6 1.71 5.82-8.05 5.82-8.05z" fill="#e7c1bd" stroke-width="none" opacity="1"></path><path id="SvgjsPath25770" d="M56.36 101.74c-.34-1.14-.73-2.26-1.13-3.37a93.8 93.8 0 0 0-1.28-3.3c-.45-1.09-.93-2.16-1.46-3.21-.54-1.04-1.08-2.08-1.74-3.05l-.07-.11-.07.11c-.66 1.04-1.28 2.1-1.88 3.2-.3.55-.58 1.1-.85 1.67-.28.56-.51 1.16-.74 1.75l-.04.09.04.11c.41 1.24.84 2.46 1.29 3.69.22.61.48 1.21.73 1.81.26.6.52 1.19.87 1.78l.17.27.22-.2c.3-.28.53-.58.77-.9.23-.32.43-.67.61-1.03.35-.73.56-1.57.53-2.42v-.05l-.02-.04c-.44-.87-.91-1.73-1.36-2.6l-.05.03c.37.91.74 1.83 1.13 2.73l-.02-.09c-.03.77-.26 1.51-.61 2.16-.35.65-.82 1.24-1.32 1.7l.39.07c-.3-.51-.56-1.11-.81-1.69l-.72-1.79c-.48-1.2-.93-2.41-1.38-3.62v.2c.4-1.18.85-2.35 1.38-3.47.52-1.13 1.12-2.22 1.8-3.22h-.14c.63.95 1.08 2.04 1.55 3.11l1.36 3.24 1.38 3.24c.46 1.08.92 2.16 1.41 3.23l.06-.03z" fill="#c8837c" stroke-width="none" opacity="1"></path></g></g><g id="svga-group-ears-right-move" transform="matrix(1,0,0,1,0,0)"><g id="svga-group-ears-right"><path id="SvgjsPath25771" d="M137.78 91.07s9.85-8.65 11.43-8.8c1.36-.13 4.73 7.07 6.22 11.62.39 1.2.3 2.54-.22 3.7-1.43 3.16-4.6 9.75-7.44 13.05 0 0-2.4.52-3.16.29s-6.69-5-7.3-6.86c-.61-1.86-.74-9.97.47-13z" fill="#f6e4e2" stroke-width="none" opacity="1"></path><path id="SvgjsPath25772" d="M137.75 91.04c1.4-1.34 2.8-2.62 4.24-3.87 1.43-1.26 2.9-2.47 4.41-3.61.78-.55 1.49-1.14 2.43-1.56.14-.04.25-.1.42-.1.19 0 .34.07.46.14.24.15.43.33.6.52.34.38.61.78.88 1.2 1.04 1.67 1.83 3.49 2.59 5.32.38.92.72 1.85 1.07 2.78.17.47.34.94.5 1.41.16.47.33.96.39 1.48.15 1.03-.04 2.13-.48 3.05l-1.25 2.75c-.85 1.82-1.73 3.63-2.7 5.38-.98 1.75-2.02 3.46-3.3 4.99l-.07.09-.11.02c-.51.11-1.02.2-1.53.28-.52.07-1.02.14-1.61.08-.16-.02-.32-.09-.47-.17l-.35-.22c-.22-.15-.44-.3-.65-.46-.43-.32-.84-.65-1.25-.98-.82-.67-1.62-1.38-2.39-2.12-.77-.76-1.54-1.49-2.18-2.48a3.05 3.05 0 0 1-.41-.85c-.09-.31-.13-.61-.17-.9-.07-.59-.12-1.18-.15-1.76-.06-1.17-.06-2.34-.01-3.51.05-1.17.13-2.34.29-3.5.15-1.15.36-2.31.8-3.4zm.06.05c-.35 1.07-.49 2.24-.59 3.39-.09 1.15-.14 2.31-.13 3.46.01 1.15.05 2.3.13 3.45.04.57.11 1.14.19 1.69.05.27.1.54.17.78.08.23.18.42.33.63.59.83 1.36 1.58 2.11 2.3.76.72 1.56 1.41 2.37 2.06.41.33.81.65 1.23.95l.62.45.31.2c.09.04.15.09.25.1.88.09 1.94-.11 2.91-.29l-.19.11c1.23-1.44 2.3-3.1 3.32-4.79a93.9 93.9 0 0 0 2.88-5.22c.45-.89.9-1.79 1.32-2.7.43-.88.62-1.9.49-2.88-.06-.49-.23-.94-.4-1.41-.16-.47-.34-.93-.52-1.39-.35-.92-.76-1.82-1.16-2.71-.82-1.77-1.72-3.51-2.74-5.1-.26-.39-.53-.77-.83-1.09-.15-.16-.31-.3-.45-.39a.314.314 0 0 0-.18-.06c-.05 0-.15.06-.23.07-.75.31-1.54.9-2.29 1.42-3.02 2.23-5.97 4.64-8.92 6.97z" fill="#e7c1bd" stroke-width="none" opacity="1"></path><path id="SvgjsPath25773" d="M137.55 98.39s9.49-11.99 11.27-10.99 4.58 6.65 4.57 8.53c-.02 2.77-2.95 7.4-4.42 8.8-1.47 1.39-3.25 2.25-5.6 1.71-2.35-.54-5.82-8.05-5.82-8.05z" fill="#e7c1bd" stroke-width="none" opacity="1"></path><path id="SvgjsPath25774" d="M143.64 101.74c.34-1.14.73-2.26 1.13-3.37.4-1.11.84-2.21 1.28-3.3.45-1.09.93-2.16 1.46-3.21.54-1.04 1.08-2.08 1.74-3.05l.07-.11.07.11c.66 1.04 1.28 2.1 1.88 3.2.3.55.58 1.1.85 1.67.28.56.51 1.16.74 1.75l.04.09-.04.11c-.41 1.24-.84 2.46-1.29 3.69-.22.61-.48 1.21-.73 1.81-.26.6-.52 1.19-.87 1.78l-.17.27-.22-.2c-.3-.28-.53-.58-.77-.9-.23-.32-.43-.67-.61-1.03-.35-.73-.56-1.57-.53-2.42v-.05l.02-.04c.44-.87.91-1.73 1.36-2.6l.05.03c-.37.91-.74 1.83-1.13 2.73l.02-.09c.03.77.26 1.51.61 2.16.35.65.82 1.24 1.32 1.7l-.39.07c.3-.51.56-1.11.81-1.69l.72-1.79c.48-1.2.93-2.41 1.38-3.62v.2c-.4-1.18-.85-2.35-1.38-3.47-.52-1.13-1.12-2.22-1.8-3.22h.14c-.63.95-1.08 2.04-1.55 3.11l-1.36 3.24-1.38 3.24c-.46 1.08-.92 2.16-1.41 3.23l-.06-.03z" fill="#c8837c" stroke-width="none" opacity="1"></path></g></g><g id="svga-group-faceshape-wrap"><g id="svga-group-faceshape-single"><path id="SvgjsPath25801" d="M135.9 49.8c-6.7-7.4-11.3-13.2-28.8-17.3-1.8-.4-12.3-.4-14.1 0-17.5 4.1-22.1 9.9-28.8 17.3-7.1 7.8-9.5 29-9.5 29 0 9.6 1.3 32.3 13.3 47.2 17.8 22.2 32.1 22.3 32.1 22.3s14.2 0 32.1-22.3c12-14.9 13.3-37.6 13.3-47.2-.1 0-2.5-21.2-9.6-29z" fill="#f6e4e2" stroke-width="none" opacity="1"></path><path id="SvgjsPath25802" d="M107.1 32.5c-1.8-.4-12.3-.4-14.1 0-17.5 4.1-22.1 9.9-28.8 17.3-7.1 7.8-9.5 29-9.5 29 0 9.6 1.3 32.3 13.3 47.2 17.8 22.2 32.1 22.3 32.1 22.3s14.2 0 32.1-22.3c12-14.9 13.3-37.6 13.3-47.2 0 0-2.4-21.2-9.5-29-6.9-7.4-11.5-13.2-28.9-17.3zM142 63.8c.7 2.5 1.1 5 1.6 7.5.4 2.5.7 5 1 7.5-.2 7.4-1.3 14.8-3 22-.9 3.6-1.9 7.1-3.3 10.5-.7 1.7-1.4 3.4-2.2 5s-1.7 3.2-2.7 4.7l-1.5 2.2c-.3.4-3.4 4.2-3.4 4.2l-3.7 4.1-6.1 5.7c-2.8 2.3-5.8 4.5-9 6.2l-1.2.6-1.2.6c-.8.4-1.6.7-2.5 1l-1.3.4c-.4.1-.8.2-1.3.3-.4.1-1.71.43-2.9.4 0 0-1.4-.2-1.9-.3-.4-.1-.9-.2-1.3-.3l-1.3-.4c-.8-.3-1.7-.6-2.5-1l-1.2-.5-1.2-.6c-3.2-1.6-6.3-3.7-9.1-6l-4.1-3.6-3.9-3.9-1-1-.9-1-1.8-2.1c-1.2-1.4-2.3-2.8-3.3-4.4-1-1.5-2-3.1-2.8-4.8-.8-1.6-1.6-3.3-2.3-5.1-.7-1.7-1.3-3.5-1.8-5.3s-1-3.6-1.4-5.4-.8-3.6-1-5.5c-.3-1.8-.5-3.7-.7-5.5-.4-3.7-.5-7.4-.5-11.1.3-2.3.8-4.6 1.2-6.9.5-2.3 1.1-4.6 1.7-6.8.7-2.2 1.4-4.5 2.3-6.6.4-1.1.9-2.1 1.4-3.1s2.59-4.47 6.3-8.1c1.6-1.7 3.3-3.3 5-4.7 3.5-2.8 7.7-4.9 12-6.5l1.6-.6c6.69-2.31 10.6-2.2 11.8-2.3 2.3-.1 4.71-.26 7-.1 3.16.22 6.8 1.4 6.8 1.4 2.3.6 4.5 1.3 6.7 2.3.3.1 1.6.7 1.6.7.5.3 2.6 1.3 3.1 1.7.5.3 5.3 3.7 6.9 5.4 1.7 1.7 3.3 3.4 4.9 5.2 1.7 1.9 2.9 4.2 3.9 6.6 1.1 2.4 1.9 4.8 2.5 7.3z" fill="#c8837c" stroke-width="none" opacity="1"></path></g></g><g id="svga-group-mouth-single-move" transform="matrix(1,0,0,1,0,0)"><g id="svga-group-mouth-single"><path id="SvgjsPath25754" d="M83.37 118.08s7.34 2.64 14.23 1.87c0 0 1.3 1.45 2.1 1.59s2.44-1.4 2.44-1.4 3.77 1.01 6.26.92 7.8-.63 10.24-2.12c0 0-3.89 8.66-7.39 12.12-3.5 3.46-11.34 6.02-18 3.71-6.65-2.31-9.48-15.12-9.88-16.69z" fill="#904539" stroke-width="none" opacity="1"></path><path id="SvgjsPath25755" d="M84.44 119.22s4.71 11.74 9.64 13.5c4.93 1.76 10.14 1.49 14.43-2 4.3-3.49 8.5-10.57 8.5-10.57s-9.98 2.35-17.59 1.92c-7.6-.43-15.2-2.67-14.98-2.85z" fill="#000000" stroke-width="none" opacity="1"></path><path id="SvgjsPath25756" d="M99.43 122.07c-7.32-.42-14.62-2.5-14.97-2.82.1.24.83 2.03 1.97 4.23 1.33.92 2.92 1.88 4.46 2.41l.84-1.34-.22 1.45s4.59 1.56 9.05 2.02c4.46.46 10.27-1.12 10.27-1.12l.41-1.05.12.75s.48-.04 1.51-.49c2.4-3.03 4.15-5.98 4.15-5.98s-9.99 2.37-17.59 1.94z" fill="#ffffff" stroke-width="none" opacity="1"></path></g></g><g id="svga-group-eyes-left-move" transform="matrix(1,0,0,1,0,0)"><g id="svga-group-eyes-left"><g id="svga-group-eyesback-left"><path id="SvgjsPath25889" d="M80.2 77.2c7.5 0 13.5 5.8 13.5 13s-6 13-13.5 13-13.5-5.8-13.5-13 6-13 13.5-13z" fill="#ffffff" stroke-width="none" opacity="1"></path></g><g id="svga-group-eyesiriswrapper-left" transform="matrix(1,0,0,1,0,0)"><g id="svga-group-eyesiriscontrol-left" transform="matrix(1,0,0,1,0,0)"><g id="svga-group-eyesiris-left"><path id="SvgjsPath25839" d="M80.2 84.9c2.9 0 5.3 2.4 5.3 5.3s-2.4 5.3-5.3 5.3-5.3-2.4-5.3-5.3 2.4-5.3 5.3-5.3z" fill="#7b5c33" stroke-width="none" opacity="1"></path><path id="SvgjsPath25840" d="M84.7 87.3c.4.6.7 1.2.8 1.9s.2 1.4.1 2.2-.4 1.4-.8 2.1c-.4.6-1 1.1-1.6 1.5s-1.3.6-2.1.7c-.7.1-1.4.1-2.2-.1-1.4-.3-2.7-1.1-3.5-2.3-.4-.6-.7-1.3-.9-2-.2-.7-.2-1.5 0-2.2.1-.7.4-1.4.8-2.1.4-.6 1-1.2 1.6-1.6s1.3-.7 2.1-.8c.7-.1 1.5-.1 2.2.1 1.6.5 2.7 1.4 3.5 2.6zm0 0-.3-.4c-.1-.1-.2-.3-.3-.4-.1-.1-.3-.2-.4-.3-.1-.1-.3-.2-.4-.3-.6-.4-1.2-.6-1.9-.7-1.3-.2-2.7.1-3.8.8-1.1.7-1.9 1.8-2.2 3.1-.3 1.3-.1 2.7.6 3.8.3.6.8 1.1 1.4 1.5s1.2.7 1.9.8c.7.1 1.4.1 2-.1.7-.2 1.3-.4 1.8-.8s1-.8 1.4-1.4.7-1.1.9-1.8c.2-.6.2-1.3.2-2-.3-.5-.6-1.2-.9-1.8z" fill="#5c3d14" stroke-width="none" opacity="1"></path><path id="SvgjsPath25841" d="M80.2 88.3c1 0 1.9.9 1.9 1.9s-.9 1.9-1.9 1.9-1.9-.9-1.9-1.9.9-1.9 1.9-1.9z" fill="#000000" stroke-width="none" opacity="1"></path><path id="SvgjsPath25842" d="M80.2 92.3c-1.2 0-2.1-.9-2.1-2.1s.9-2.1 2.1-2.1 2.1.9 2.1 2.1-1 2.1-2.1 2.1zm0-3.8c-.9 0-1.7.8-1.7 1.7 0 .9.8 1.7 1.7 1.7.9 0 1.7-.8 1.7-1.7s-.7-1.7-1.7-1.7z" fill="#5c3d14" stroke-width="none" opacity="1"></path><path id="SvgjsPath25843" d="M77.7 86.2c.4-.2 1.2.3 1.7 1.1.5.9.6 1.8.1 2s-1.2-.3-1.7-1.1c-.4-.8-.5-1.7-.1-2zm3.7 5c.4 0 .6.3.6.6s-.3.6-.6.6-.6-.3-.6-.6.3-.6.6-.6z" fill="#ffffff" stroke-width="none" opacity="1"></path></g></g></g><g id="svga-group-eyesfront-left"><path id="SvgjsPath25897" d="M80.2 76.7c-7.8 0-14.1 6.1-14.1 13.6s6.3 13.6 14.1 13.6 14.1-6.1 14.1-13.6S88 76.7 80.2 76.7zM75 96.2c-1.7-.1-8.1-3.7-8-4.7s7.6-9.2 10-8.5c2.5.7 16 11.3 16 11.3s-16.3 2-18 1.9z" fill="#f6e4e2" stroke-width="none" opacity="1"></path><path id="SvgjsPath25898" d="M94 95.9s-8.1-5.6-9.4-6.8c-1-1-6.5-4.1-10-3.3-.9.2-2.7 1.2-4 2.4S67.4 91 67.4 91s.2-.7 4-5.3c3.8-4.5 10-3.9 11.3-3.6 1.3.4 3.5 1.1 8.2 7.6l3.1 6.2z" fill="#eed2cf" stroke-width="none" opacity="1"></path><path id="SvgjsPath25899" d="M92.7 92.8c-.5-1.1-1-2.2-1.5-3.2-.7-1.1-1.5-2.1-2.3-3.1s-1.7-2-2.7-2.8c-.5-.4-1-.8-1.6-1.2-.6-.3-1.2-.6-1.8-.7-.7-.2-1.3-.2-1.9-.2s-1.3 0-1.9.1c-2.5.3-5.1 1.3-7 3.2l-.3.3c-.4-.1-.8-.2-1.1-.2-1.7-.4-3-.9-3-.9s.3 2.1 1.9 2.9c0 0-2.9-.1-5.1-.9 0 0 1.8 2.9 2.9 3.3 0 0-2.8-.6-4.5-1.1 0 0 2.1 3.8 4.1 3.8.2.3.4.5.7.7 1 .8 2.1 1.5 3.2 2.1s2.2 1.2 3.5 1.6c.2.1.3.1.5.1h.5c.3 0 .6 0 .9-.1.6-.1 1.2-.1 1.9-.2 2.5-.2 5-.6 7.5-.9 2-.3 4.1-.6 6.1-.9l.6.4.8.5.4.3.2.1.1.1s.1.1.2.1c-.4-1.1-.9-2.1-1.3-3.2zm-14.6 3c-.6.1-1.2.1-1.9.2h-.9c-.3 0-.6 0-.9-.1-1.2-.3-2.3-.9-3.4-1.5s-2.2-1.2-3.2-2c-.2-.2-.5-.4-.6-.7.2-.3.8-.9 1.5-1.7 1.5-1.4 3.1-2.9 4.9-3.7 1.1-.6 2.4-.4 3.6-.2 1.2.3 2.4.7 3.6 1.2s2.3 1.1 3.3 1.8c1 .9 2.1 1.6 3.2 2.4s2.2 1.5 3.3 2.2l.9.6c-4.4.5-8.9 1-13.4 1.5zm15.7-.1-.2-.2-.4-.3-.8-.6-1.6-1.2-3.2-2.4c-1-.8-2.1-1.6-3.1-2.5-.5-.5-1.1-.8-1.7-1.2-.6-.3-1.2-.7-1.8-.9-1.2-.6-2.5-1-3.8-1.2-.7-.1-1.3-.2-2-.1-.3 0-.7.1-1 .2-.6-.1-1.3-.2-2-.3 1.8-1.7 4.2-2.5 6.6-2.7.6-.1 1.2-.1 1.8 0s1.2.1 1.8.2c1.2.3 2.2.9 3.1 1.8 1.9 1.6 3.5 3.6 5.1 5.6.5 1 1 1.9 1.6 2.9s1.1 2 1.7 3l-.1-.1z" fill="#582311" stroke-width="none" opacity="1"></path></g></g></g><g id="svga-group-eyes-right-move" transform="matrix(1,0,0,1,0,0)"><g id="svga-group-eyes-right"><g id="svga-group-eyesback-right"><path id="SvgjsPath25890" d="M119.8 77.2c7.5 0 13.5 5.8 13.5 13s-6 13-13.5 13-13.5-5.8-13.5-13 6-13 13.5-13z" fill="#ffffff" stroke-width="none" opacity="1"></path></g><g id="svga-group-eyesiriswrapper-right" transform="matrix(1,0,0,1,0,0)"><g id="svga-group-eyesiriscontrol-right" transform="matrix(1,0,0,1,0,0)"><g id="svga-group-eyesiris-right"><path id="SvgjsPath25844" d="M119.8 85.5c2.6 0 4.7 2.1 4.7 4.7s-2.1 4.7-4.7 4.7-4.7-2.1-4.7-4.7 2.1-4.7 4.7-4.7z" fill="#7b5c33" stroke-width="none" opacity="1"></path><path id="SvgjsPath25845" d="M123.8 87.7c.3.5.6 1.1.7 1.7s.2 1.2.1 1.9c-.1.6-.3 1.2-.7 1.8s-.8 1-1.4 1.3-1.2.5-1.8.6-1.3.1-1.9-.1c-1.2-.3-2.3-1-3.1-2-.4-.5-.6-1.1-.8-1.7s-.1-1.3 0-1.9.4-1.2.7-1.8.8-1 1.4-1.4c.6-.3 1.2-.6 1.8-.7.6-.1 1.3-.1 1.9.1 1.4.3 2.4 1.1 3.1 2.2zm-.1 0-.3-.4-.3-.3-.3-.3c-.1-.1-.2-.2-.4-.3-.5-.3-1.1-.5-1.7-.6-1.2-.2-2.3.1-3.3.7-.9.6-1.7 1.6-1.9 2.7-.3 1.1-.1 2.3.5 3.4.3.5.7 1 1.2 1.3s1.1.6 1.6.7c.6.1 1.2.1 1.8-.1.6-.1 1.1-.4 1.6-.7s.9-.7 1.2-1.2.6-1 .8-1.6c.2-.6.2-1.2.1-1.8-.1-.4-.3-1-.6-1.5z" fill="#5c3d14" stroke-width="none" opacity="1"></path><path id="SvgjsPath25846" d="M119.8 88.5c.9 0 1.7.8 1.7 1.7s-.8 1.7-1.7 1.7-1.7-.8-1.7-1.7.8-1.7 1.7-1.7z" fill="#000000" stroke-width="none" opacity="1"></path><path id="SvgjsPath25847" d="M119.8 92.1c-1 0-1.8-.8-1.8-1.8s.8-1.8 1.8-1.8 1.8.8 1.8 1.8-.8 1.8-1.8 1.8zm0-3.4c-.8 0-1.5.7-1.5 1.5s.7 1.5 1.5 1.5 1.5-.7 1.5-1.5-.7-1.5-1.5-1.5z" fill="#5c3d14" stroke-width="none" opacity="1"></path><path id="SvgjsPath25848" d="M117.6 86.7c.4-.2 1 .2 1.5 1 .4.8.5 1.5.1 1.8-.4.2-1-.2-1.5-1-.4-.8-.4-1.6-.1-1.8zm3.3 4.4c.3 0 .6.3.6.6s-.3.6-.6.6-.6-.3-.6-.6.3-.6.6-.6z" fill="#ffffff" stroke-width="none" opacity="1"></path></g></g></g><g id="svga-group-eyesfront-right"><path id="SvgjsPath25900" d="M119.8 76.7c-7.8 0-14.1 6.1-14.1 13.6s6.3 13.6 14.1 13.6 14.1-6.1 14.1-13.6-6.3-13.6-14.1-13.6zm3.1 18.9c-1.6.2-12.7-2-12.7-2s10.3-8.1 12.5-8.8 6.6-1.9 6.9 5.9c0 1-5.2 4.8-6.7 4.9z" fill="#f6e4e2" stroke-width="none" opacity="1"></path><path id="SvgjsPath25903" d="M105.7 95.7s4.6-2.4 6.1-3.2 10.4-6.3 11.2-6.7 3.6-.4 4.9.4c2.4 1.5 1.7 4.5 1.7 4.5s2.1-1.7-1.4-5.7-11.3-2.9-12.4-2.5c-1.2.4-3.7 1.1-7.8 7.2l-2.3 6z" fill="#eed2cf" stroke-width="none" opacity="1"></path><path id="SvgjsPath25904" d="M130.3 88.4c.4-.2 3.2-3 3.2-3-1.6.8-3.7.5-4.3.4l-.1-.1c1.1-.8 2.2-2.8 2.2-2.8-.5.5-1.8 1-3.2 1.5-.2-.2-.4-.4-.6-.5-1-.8-2.3-1.3-3.5-1.7-1.2-.3-2.5-.5-3.8-.5s-2.5.1-3.8.3c-.2 0-.3.1-.5.1-.1 0-.2.1-.3.1l-.2.1-.9.3c-.6.3-1.2.6-1.7 1-2.1 1.7-3.7 3.8-5.1 6.1-.4 1-.7 2.1-1 3.1s-.6 2-1 2.9l3.3-1.5c.4-.2.9-.4 1.3-.6 1.9.5 3.8.9 5.7 1.2 1.9.4 3.8.7 5.8 1 .2 0 .5.1.8.1.2 0 .6 0 .8-.1.5-.2.9-.4 1.4-.7.9-.5 1.7-1.1 2.5-1.7.4-.3.8-.6 1.2-1 .4-.3.8-.7 1.1-1.1 0-.1.1-.1.1-.2l.1-.1.3-.3c1-.6 3.8-2.2 4.6-2.6-1 .4-4.3.3-4.4.3zm-24.6 7.3c.4-1 .8-2 1.3-2.9l1.2-2.7c1.5-2.1 3.2-4.1 5.1-5.6.5-.4 1-.7 1.5-.9.3-.1.5-.2.8-.3l.2-.1c.1 0 .1 0 .2-.1.1 0 .3-.1.4-.1 1.2-.2 2.4-.3 3.6-.3s2.4.1 3.6.4 2.3.7 3.3 1.4c.1.1.2.1.3.2-.9.3-1.8.5-2.5.7h-1.1c-.3 0-.7.1-1 .2s-.6.3-.8.4c-1.1.6-2.2 1.2-3.3 1.9-2.2 1.3-4.3 2.6-6.4 4-1.1.6-2.1 1.2-3.2 1.8-.9.7-2 1.4-3.2 2zm23.7-4.9c0 .1-.1.2-.2.3-.6.8-1.4 1.4-2.2 2-.8.6-1.6 1.1-2.5 1.6-.4.2-.9.5-1.3.6-.2.1-.4.1-.7.1-.2 0-.5 0-.7-.1-3.8-.5-7.7-1.2-11.5-1.7.7-.3 1.4-.7 2.1-1 2.2-1.2 4.3-2.5 6.5-3.8 1.1-.7 2.1-1.3 3.2-2 .3-.2.5-.3.8-.5.2-.2.5-.2.8-.2.6-.1 1.2-.1 1.8-.1.4 0 .8.1 1.1.1 1.2.3 2 1 2.4 1.7 0 .1.1.3.1.4.1.5.2 1 .2 1.5v.8l.1.3zm5.2-2.7c.1 0 .1 0 .1-.1.2 0 .1 0-.1.1z" fill="#582311" stroke-width="none" opacity="1"></path></g></g></g><g id="svga-group-facehighlight-single"></g><g id="svga-group-eyebrows-left-move" transform="matrix(1,0,0,1,0,0)"><g id="svga-group-eyebrows-left-rotate" transform="matrix(1,1.7453292519943295e-9,-1.7453292519943295e-9,1,1.3211685256919736e-7,-1.3809918186780124e-7)"><g id="svga-group-eyebrows-left"><path id="SvgjsPath25944" d="M66.36 77.29c2.16.13 4.31.18 6.47.24l3.23.05h3.22c1.07-.01 2.15.06 3.23.1 1.08.04 2.14-.04 3.2-.24 1.05-.19 2.1-.46 3.14-.8 1.04-.35 2.07-.77 3.07-1.39l-.04-.37c-1.12-.45-2.22-.7-3.31-.88-1.09-.18-2.17-.27-3.25-.29-1.08-.03-2.14.07-3.19.27-1.05.21-2.1.45-3.16.61l-3.17.51-3.16.56c-2.1.4-4.21.79-6.31 1.26l.03.37z" fill="#a46c47" stroke-width="none" opacity="1"></path></g></g></g><g id="svga-group-eyebrows-right-move" transform="matrix(1,0,0,1,0,0)"><g id="svga-group-eyebrows-right-rotate" transform="matrix(1,1.7453292519943295e-9,-1.7453292519943295e-9,1,1.326330902884365e-7,-2.135934238367554e-7)"><g id="svga-group-eyebrows-right"><path id="SvgjsPath25945" d="M134.49 75.76c-2.01.29-4.03.52-6.04.75l-3.02.32-3.02.28c-1.01.09-2.01.23-3.02.36-1.01.12-2.02.15-3.03.09-1.01-.07-2.02-.19-3.04-.38-1.01-.19-2.03-.44-3.04-.85l-.01-.31c1-.46 2.01-.76 3.01-1 1.01-.24 2.01-.41 3.02-.52 1.01-.12 2.02-.13 3.03-.06 1.01.08 2.02.18 3.03.22l3.03.13 3.03.18c2.02.14 4.04.27 6.07.47v.32z" fill="#a46c47" stroke-width="none" opacity="1"></path></g></g></g><g id="svga-group-nose-single-move" transform="matrix(1,0,0,1,0,0)"><g id="svga-group-nose-single"><path id="SvgjsPath25935" d="M90.92 105.88s-1.67 3.06.49 3.96c2.15.9 2.71-.76 3.47-1.32.76-.56 1.74.21 2.36 1.81.63 1.6 4.58 1.67 5.21.83.63-.83.9-1.94 1.94-2.29 1.04-.35 1.53 1.53 2.43 1.74.9.21 3.2-.21 1.53-4.79-1.67-4.58-5.35-9.1-8.2-9.03-2.84.06-6.87 4.58-9.23 9.09z" fill="#eed2cf" stroke-width="none" opacity="1"></path><path id="SvgjsPath25936" d="M90.96 105.91c-.26.52-.46 1.08-.54 1.65-.06.56-.04 1.19.32 1.61.34.43.91.61 1.44.69.27.02.53.02.77-.06s.45-.22.64-.4c.19-.18.36-.4.55-.63.19-.23.38-.5.76-.69.19-.09.41-.13.62-.12.21.02.41.08.57.17.34.18.58.43.79.69.2.26.37.53.51.82.07.14.13.29.19.43l.04.11.04.07.07.13c.26.33.74.59 1.26.74.52.15 1.08.24 1.63.25.28 0 .56-.01.82-.05.26-.04.53-.12.7-.23.06-.04.16-.15.24-.27.08-.11.16-.23.24-.36.16-.24.31-.5.49-.75.35-.49.84-.99 1.56-1.01.37.02.64.26.85.48.21.23.38.47.57.69.18.22.38.43.6.55.21.11.52.11.77.07.54-.07.97-.47 1.12-.98.17-.51.13-1.08.04-1.63-.21-1.11-.68-2.18-1.17-3.23-.5-1.04-1.09-2.04-1.73-2.99-.65-.94-1.39-1.84-2.21-2.6-.82-.75-1.75-1.45-2.74-1.67-.95-.26-2 .2-2.94.8-.94.61-1.83 1.35-2.66 2.16-1.65 1.6-3.12 3.48-4.21 5.56zm-.09-.05c1.1-2.08 2.32-4.11 3.83-5.96.76-.92 1.6-1.79 2.61-2.5.5-.36 1.06-.66 1.67-.88.6-.23 1.34-.29 2-.14 1.32.31 2.33 1.11 3.21 1.95.87.86 1.62 1.82 2.27 2.82.66 1.01 1.21 2.07 1.68 3.18.46 1.1.84 2.25.99 3.46.06.6.07 1.24-.17 1.85-.22.61-.82 1.09-1.46 1.15-.32.03-.63.04-.96-.12-.3-.16-.5-.41-.69-.64-.19-.23-.36-.47-.56-.67-.19-.2-.41-.37-.65-.37-.22-.01-.49.14-.69.3a2.5 2.5 0 0 0-.53.63c-.15.24-.27.5-.41.76-.07.13-.14.26-.22.4-.08.13-.15.26-.32.41-.3.24-.61.33-.92.41-.31.07-.62.11-.93.13-.62.03-1.24 0-1.86-.15-.6-.16-1.26-.4-1.74-1-.05-.08-.1-.17-.15-.25l-.07-.13-.04-.09c-.05-.13-.11-.25-.17-.37-.12-.24-.25-.48-.41-.68-.31-.41-.72-.7-1.01-.56-.16.05-.36.26-.56.46-.2.21-.42.44-.68.63-.26.2-.56.36-.9.43-.33.07-.66.04-.98-.02-.31-.08-.59-.18-.87-.33-.14-.08-.28-.15-.39-.27l-.17-.16-.14-.2c-.36-.54-.35-1.2-.25-1.78.17-.61.37-1.17.64-1.7z" fill="#c8837c" stroke-width="none" opacity="1"></path></g></g><g id="svga-group-hair-front"><path id="SvgjsPath25995" d="M39.7 160.7c-.4-.9-.6-1.5-.6-1.5s.2.6.6 1.5zm40.4-10.1s-.7-3.8-5.2-4.6c-3.9-.8-6.9 1.7-7.7 2.6-1.5.2-4.9-1.9-11 4.8-7.3 7.9-3.1 18.8-3.1 18.8-8.5-2.2-12.1-8.5-13.4-11.3 1.5 3.8 5.6 13.8 9.2 15.5 4.4 2.1 12.3 7.8 12.7 13.8.3 6-5.2 8.3-5.2 8.3 11.8.3 16.4-4.9 17.8-7.1s2.9-6.8 2.3-11.5-1.3-17.1 1.7-24.3c1.1-3.2 1.9-5 1.9-5zM55.8 88.8l2 1.7s-.3-15.4 9.4-27.8 18-10.7 18-10.7S97 56.7 108 55c0 0 7.4 0 9.4 9 0 0 4-5.7-3.7-10.7 0 0 8.4-.3 13.4 2.3 5 2.7 9.4 9.7 12 18.4 2.7 8.7 2.3 18.1 2.3 18.1l2-2s3.7-13.7 1-25.4-7.3-18.7-7.3-18.7-1.3-4.3-5.7-7c0 0-3.7-8-10-10 0 0-.7-4-8-5.4 0 0-4.7-2.7-11-1.7 0 0-5-1.7-9.4 0 0 0-6-1.7-10 1.7 0 0-7.7 3.7-11.4 6.4s-4 9.7-4 9.7-1.4.9-2.1 1.9c-.7 1-1.4 3.7-1.4 3.7s-3.4 4.1-4.2 8.7c0 0-2.8 1-3.5 10.9 0 0-1 2.3-1.1 8.5 0 0-1.2 3.2-.8 7.3.4 3.9 1.3 8.1 1.3 8.1z" fill="#fffbbf" stroke-width="none" opacity="1"></path><path id="SvgjsPath25996" d="M79.7 38.2c-.2-2.5.1-5.1.7-7.6.7-2.5 1.7-4.9 3.2-7.2-1.9 1.9-3.4 4.2-4.3 6.8-.9 2.6-1.3 5.3-1.1 8.1.2 2.7 1 5.4 2.3 7.8 1.3 2.4 3.1 4.5 5.2 6.1-1.8-2-3.2-4.2-4.2-6.6-1-2.3-1.7-4.9-1.8-7.4zm-6.2.2c.2-2.8 1.2-5.6 2.6-8.1 1.5-2.5 3.4-4.7 5.9-6.3-.6.2-1.1.5-1.6.8-3.2.6-6.2 2.4-8.6 4.8-2.4 2.5-4.1 5.8-4.8 9.2-.7 3.5-.3 7.1.8 10.4 1.2 3.3 3.3 6.3 6.1 8.2-2.4-2.4-4-5.5-5-8.6-.9-3.2-1.1-6.5-.5-9.8.6-3.2 2.1-6.2 4.2-8.8 1.9-2.3 4.4-4.2 7.2-5.3-1.9 1.2-3.6 2.8-4.8 4.7-1.7 2.5-2.8 5.5-3.1 8.6-.3 3.1.2 6.2 1.5 9 1.2 2.8 3.2 5.3 5.6 7-2.1-2.1-3.6-4.7-4.5-7.4-.8-2.7-1.3-5.6-1-8.4zm-8.9 32.9c-1.2-2-2.2-4.1-2.9-6.3-.7-2.2-1.1-4.4-1.1-6.7-.1-2.2.2-4.5.7-6.7.5-2.2 1.4-4.3 2.5-6.3 0 .1-.1.2-.1.3-.6 2.1-.7 4.3-.6 6.4.2 2.2.7 4.3 1.7 6.2.9 2 2.2 3.7 3.8 5.1-2.3-3.6-3.6-7.5-3.9-11.5-.2-2-.1-4 .2-6 .3-2 .9-4 1.7-5.9-1.3 1.5-2.2 3.4-2.7 5.3-1.6 1.7-2.8 3.8-3.6 6.1-.8 2.3-1.2 4.7-1.1 7.1.1 2.4.6 4.8 1.5 7s2.2 4.3 3.9 5.9zm-6.5 2c1 2 2.3 3.8 3.9 5.2-2.4-3.6-3.8-7.5-4.3-11.6-.3-2.1-.3-4.1-.1-6.2.2-2.1.7-4.1 1.4-6.2-1.2 1.8-2.1 3.8-2.5 6-.5 2.2-.5 4.4-.3 6.6.3 2.1.9 4.2 1.9 6.2zM57 81.4c.8 1.6 2 3 3.4 4-1-1.4-1.8-2.9-2.3-4.5-.6-1.6-1-3.2-1.2-4.8-.3-1.6-.4-3.3-.5-5-.1-1.7-.2-3.4-.4-5.2-.4 1.7-.6 3.4-.7 5.2-.1 1.7 0 3.5.2 5.2.1 1.8.7 3.5 1.5 5.1zm-1.3 5.3c.7 1.3 1.6 2.6 2.7 3.6-.6-1.4-1.2-2.7-1.6-4.1-.5-1.4-.8-2.8-1.1-4.2-.3-1.4-.5-2.8-.6-4.3-.1-1.4-.1-2.8-.1-4.3-.6 1.4-1 2.9-1.1 4.4-.1 1.5 0 3.1.3 4.6.3 1.4.8 2.9 1.5 4.3zm34.2-47.6c-.4-2.8-.4-5.7.2-8.5.5-2.8 1.5-5.6 2.9-8.2-1.9 2.3-3.3 5-4 7.9-.8 2.9-.9 6-.5 9 .5 3 1.5 5.9 3.2 8.4 1.6 2.5 3.7 4.8 6.2 6.3-2.1-2-3.9-4.4-5.2-6.9-1.4-2.4-2.3-5.2-2.8-8zm10.9-2.6c-.5-2.4-1.1-4.7-2-6.9-.8-2.2-1.8-4.4-3.1-6.5.7 2.3 1.4 4.6 2 6.8.6 2.3 1.2 4.6 1.6 6.9.5 2.3.9 4.6 1.2 7 .3 2.3.6 4.7.9 7.1.3-2.4.4-4.8.3-7.2-.1-2.5-.4-4.8-.9-7.2zm13 1.3c.7 2.6 1.1 5.3 1.1 8 0 1.3-.1 2.7-.4 4-.3 1.3-.9 2.5-2 3.5 1.3-.6 2.1-1.9 2.7-3.2.5-1.3.8-2.8.9-4.2.2-2.8-.2-5.7-.8-8.4-.7-2.7-1.8-5.4-3.3-7.8-1.5-2.4-3.4-4.5-5.6-6.2 1.8 2.1 3.3 4.4 4.6 6.8 1.2 2.3 2.1 4.9 2.8 7.5zm8.1-6.9c-.7-1.2-1.6-2.2-2.5-3.2-2.1-2-4.6-3.6-7.4-4.2 2.6 1.2 4.8 3 6.6 5 1.8 2.1 3.1 4.5 3.9 7.1.8 2.6 1.1 5.3.9 8.1-.2 2.7-.9 5.5-2.1 8 1.7-2.2 2.8-5 3.3-7.9.5-2.9.3-5.8-.6-8.7-.3-.9-.7-1.8-1.1-2.6.8 1 1.6 2.1 2.3 3.2 1.3 2 2.4 4.2 3.2 6.4.8 2.2 1.5 4.6 1.5 6.9 0 1.2-.2 2.3-.8 3.4-.5 1.1-1.3 2-2.4 2.6 1.2-.3 2.3-1.2 3-2.2.7-1.1 1.2-2.4 1.3-3.7.3-2.6-.4-5.1-1.2-7.5-1.6-4.2-4.3-8-7.9-10.7zm12.3 11.5c-1-1.8-2.4-3.5-4-4.7 1.2 1.6 2.2 3.4 3 5.2.7 1.8 1.2 3.7 1.4 5.7.2 1.9 0 3.9-.4 5.8s-1.1 3.8-2.1 5.6c1.5-1.5 2.5-3.3 3.2-5.3.7-2 .9-4.1.8-6.3-.3-2.1-.9-4.1-1.9-6zm7.9 20.6c.2-1.7.1-3.3-.3-5-.3-1.4-.9-2.8-1.6-4v-.4c-.2-2-.7-4-1.6-5.8-.9-1.8-2.2-3.4-3.7-4.6 1.1 1.6 2 3.3 2.6 5.1.6 1.8 1.1 3.6 1.2 5.5.1 1.9 0 3.7-.4 5.6-.4 1.8-1.1 3.7-1.9 5.4 1.4-1.4 2.4-3.2 3-5.1.5-1.5.8-3 .8-4.6.5 2.6.7 5.2.4 7.8-.3 3.1-1.3 6-2.8 8.9 1.2-1.1 2.2-2.4 2.9-3.9.7-1.6 1.2-3.3 1.4-4.9zm2.5 7.5c.3-1.5.5-3.1.3-4.6-.1-1.5-.5-3.1-1.2-4.4.1 1.5.1 3 0 4.5-.1 1.4-.3 2.9-.6 4.3s-.8 2.8-1.3 4.1c-.6 1.3-1.2 2.7-2 4 1.2-.9 2.2-2.1 3-3.4.8-1.5 1.4-3 1.8-4.5zm.5 2.4c-.4 1-.7 2-1 2.9-.3 1-.6 1.9-1 2.8-.4.9-.7 1.9-1.1 2.8-.4.9-.8 1.9-1.2 2.9.9-.6 1.6-1.4 2.2-2.3.6-.9 1.1-1.8 1.5-2.8.4-1 .6-2.1.7-3.1.1-1.1.1-2.2-.1-3.2zm-1.2 9.3-.8 2.9-.9 2.9c-.3 1-.6 1.9-.9 3 .8-.7 1.4-1.6 1.9-2.5.5-.9.9-1.9 1.2-2.9s.5-2.1.6-3.1c.1-1.1 0-2.1-.2-3.2-.4 1-.6 2-.9 2.9zM79 153.1c-2.1 4.1-3.4 8.6-3.8 13.1-.2 2.3-.3 4.6-.1 6.9.2 2.3.5 4.6.7 6.8.2 2.2.2 4.4-.4 6.5-.5 2.1-1.6 4-3 5.7-2.8 3.4-7 5.7-11.6 5.9 2.3.2 4.6-.2 6.8-1.1 2.1-.9 4.1-2.3 5.7-4s2.8-3.8 3.5-6.1c.7-2.3.7-4.7.5-7-.2-2.3-.6-4.6-.8-6.8-.2-2.2-.2-4.5-.2-6.7.2-4.5 1.1-8.9 2.7-13.2zm-17.2 37.6c0-1.3-.3-2.5-.7-3.7-.9-2.4-2.5-4.4-4.3-6.1-1.8-1.7-3.9-3-5.9-4.4-1-.7-2-1.3-2.9-2.1-.9-.7-1.8-1.5-2.5-2.4-1.5-1.8-2.8-3.8-3.9-5.9-1-2.1-1.9-4.4-2.5-6.7-.6-2.3-.9-4.7-.9-7.1-.6 4.8.4 9.8 2.4 14.3 1 2.2 2.2 4.4 3.8 6.3.8.9 1.7 1.8 2.7 2.6 1 .8 2 1.4 3 2.1 2 1.4 4 2.7 5.8 4.2 1.8 1.5 3.3 3.4 4.2 5.5.9 2.1 1.2 4.5.3 6.6-.8 2.1-2.7 4-5.1 4.4 1.2 0 2.4-.4 3.4-1.2 1-.7 1.8-1.8 2.4-2.9.4-.9.7-2.2.7-3.5zm6.4-2.2c.7-2.1.9-4.4.2-6.5-.7-2.2-2.1-3.9-3.5-5.4-1.4-1.5-2.8-3-3.7-4.8-1-1.7-1.5-3.7-1.7-5.7-.4-4 .6-8.2 3.1-11.5-1.5 1.5-2.6 3.3-3.3 5.3-.7 2-1 4.2-.9 6.3.1 2.1.7 4.3 1.6 6.2 1 2 2.5 3.6 3.8 5.1 1.4 1.5 2.7 3.1 3.3 4.9.6 1.8.5 3.9 0 5.7-.5 1.9-1.6 3.7-2.9 5.2-1.3 1.6-3 2.8-4.7 4 1.9-.9 3.7-2.1 5.2-3.5s2.8-3.2 3.5-5.3zM123 13.6c.8 1.4 1.4 3 1.5 4.7.1 1.6-.2 3.3-.8 4.8-.6 1.5-1.6 3-2.8 4.3 1.6-.8 3-2.1 3.9-3.8.9-1.6 1.3-3.5 1.2-5.4-.2-1.9-.9-3.7-2-5.2s-2.7-2.6-4.4-3.2c1.4 1.1 2.5 2.4 3.4 3.8zm-10.1 39.8c1.6.7 2.7 1.8 3.4 3.2.7 1.4 1.1 2.9 1.2 4.4 0 .5 0 .9-.1 1.4-.3-1-.7-2-1.3-2.9-1-1.4-2.4-2.6-3.9-3.4-1.5-.8-3.1-1.4-4.8-1.6 1.4.8 2.8 1.6 4.1 2.6 1.3 1 2.4 2 3.3 3.3.9 1.2 1.4 2.7 1.7 4.2.1.6.1 1.1.1 1.7l-1.2 4.2c1-1.4 1.8-2.8 2.4-4.4.6-1.6 1-3.3 1-5.1-.1-1.8-.6-3.6-1.7-5-.9-1.5-2.5-2.6-4.2-2.6zm-39 101c-.2 2.5-.8 5.1-1.6 7.5-.4 1.2-.9 2.4-1.6 3.6-.6 1.2-1.3 2.3-2 3.4-.8 1.1-1.7 2.3-1.9 3.7-.1.7 0 1.4.3 2 .3.6.9 1.2 1.7 1.4-1.3-.7-1.6-2.2-1.3-3.3.4-1.2 1.3-2.2 2.2-3.3 1.7-2.2 3.1-4.6 4-7.1.5-1.3.8-2.6 1-3.9.2-1.3.4-2.6.3-3.9 0-2.6-.5-5.2-1.4-7.7.4 2.5.5 5.1.3 7.6z" fill="#e0da7b" stroke-width="none" opacity="1"></path></g><g id="svga-group-glasses-single-move" transform="matrix(1,0,0,1,0,0)"><g id="svga-group-glasses-single"><path id="SvgjsPath25971" d="M96.1 90.7s.3-2.2-3.6-3.5c-3.1-1-6.2-1.2-8.8-1.2s-10.8-.1-12.9.1-5.2.4-6 3.4c-.8 3 1 7.8 5.2 10.2 4.2 2.3 12.5 2.5 17.8 1 5.3-1.5 7.8-5 8.3-10z" fill="#ffffff" stroke-width="none" opacity="0.44"></path><path id="SvgjsPath25972" d="M104.9 90.7s-.2-2.2 3.8-3.5c3.1-1 6.3-1.2 8.9-1.2s10.9-.1 13 .1 5.2.4 5.9 3.4c.6 3-1.4 7.9-5.7 10.3-4.3 2.3-12.6 2.5-17.9 1-5.4-1.6-7.7-5.1-8-10.1z" fill="#ffffff" stroke-width="none" opacity="0.44"></path><path id="SvgjsPath25973" d="M96.1 90.1s3.8-1.7 8.8 0v1s-5.4-1-8.9 0l.1-1z" fill="#2e0909" stroke-width="none" opacity="1"></path><path id="SvgjsPath25974" d="M79.9 102.1c-4.1 0-7.8-.7-10.1-2-3.8-2.1-5.6-6.2-5.6-9V91h-2.5l-.2-2.1h3.1v-.1c1.1-2.6 4-2.8 5.9-3h.2c.9-.1 2.9-.1 6.3-.1H83.6c2.5 0 5.8.1 8.9 1.2 4.1 1.4 3.9 3.7 3.9 3.9-.6 5.4-3.5 8.9-8.6 10.4-2.1.6-5 .9-7.9.9zm-2.8-15.7c-3.4 0-5.4 0-6.3.1h-.2c-2.1.2-4.8.4-5.5 3.1-.8 3 1.1 7.6 5 9.8 2.2 1.2 5.7 1.9 9.7 1.9 2.8 0 5.6-.3 7.8-1 4.9-1.4 7.5-4.6 8.1-9.8 0-.2.1-2-3.4-3.1-3-1-6.2-1.1-8.7-1.1h-2.3c-1.2.1-2.7.1-4.2.1zm43.5 15.7c-2.9 0-5.7-.4-7.9-1-5.1-1.5-7.8-4.9-8.2-10.4 0-.3-.1-2.6 4.1-3.9 3.2-1 6.5-1.2 9-1.2h6.7c3.4 0 5.4 0 6.3.1h.2c1.9.2 4.8.4 5.8 3v.1h3.1l-.3 2.1h-2.5v.1c-.2 2.9-2.1 6.9-6 9.1-2.4 1.3-6.2 2-10.3 2zm3.6-15.7h-6.6c-2.4 0-5.7.1-8.7 1.1-3.5 1.2-3.5 2.9-3.5 3.1.3 5.2 2.8 8.4 7.6 9.8 2.1.6 4.9 1 7.7 1 4 0 7.6-.7 9.8-1.9 4.1-2.2 6.1-6.9 5.5-9.8-.6-2.7-3.2-2.9-5.4-3.2h-.2c-.8-.1-2.9-.1-6.2-.1z" fill="#4d1f1f" stroke-width="none" opacity="1"></path><path id="SvgjsPath25975" d="M77 85.7h6.7c2.5 0 5.8.1 8.9 1.2 4 1.3 3.8 3.6 3.8 3.8-.6 5.4-3.4 8.8-8.5 10.3-2.2.7-5.1 1-7.9 1-4.1 0-7.8-.7-10-2-3.7-2.1-5.5-6.1-5.5-8.9v-.3H62l-.3-1.8h3l.1-.1c1-2.5 3.9-2.8 5.8-2.9h.2c.8-.2 2.9-.3 6.2-.3m2.9 15.8c2.8 0 5.6-.3 7.8-1 4.9-1.4 7.6-4.6 8.2-9.9 0-.2.1-2.1-3.5-3.2-3-1-6.2-1.1-8.7-1.1H77.1c-3.4 0-5.4 0-6.3.1h-.2c-2.1.2-4.9.5-5.6 3.2-.8 3 1.1 7.7 5.1 9.9 2.2 1.3 5.8 2 9.8 2m-2.9-16c-2.7 0-5.2 0-6.3.1h-.2c-2 .2-4.9.5-6 3.1h-3.1l.2 2.3h2.5c0 3.2 2.1 7.1 5.7 9.1 2.5 1.4 6.4 2.1 10.2 2.1 2.9 0 5.7-.4 8-1 5.2-1.5 8.1-5 8.7-10.5 0-.3.2-2.7-4-4.1-3.1-1.1-6.4-1.2-9-1.2h-2.2c-1.3.1-2.9.1-4.5.1zm2.9 15.8c-3.6 0-7.3-.6-9.7-1.9-3.9-2.2-5.7-6.8-5-9.7.7-2.6 3.3-2.9 5.4-3.1h.2c1-.1 3.6-.1 6.2-.1H83.6c2.4 0 5.6.1 8.6 1.1 3.4 1.1 3.3 2.9 3.3 3-.5 5.1-3.1 8.3-8 9.7-2 .6-4.8 1-7.6 1zm44.4-15.9v.3c3.4 0 5.4 0 6.3.1h.2c1.9.2 4.7.4 5.7 2.9l.1.1h3.1l-.3 1.8h-2.5v.3c-.2 2.8-2.1 6.8-6 8.9-2.4 1.3-6.1 2-10.2 2-2.9 0-5.7-.4-7.9-1-5-1.5-7.8-4.9-8.1-10.3 0-.2-.1-2.5 4-3.8 3.2-1 6.4-1.2 8.9-1.2H124.3v-.1m-3.6 16.1c4 0 7.7-.7 9.9-1.9 4.1-2.3 6.2-7 5.6-10-.6-2.8-3.4-3-5.5-3.2h-.2c-.9-.1-2.9-.1-6.3-.1h-6.7c-2.5 0-5.7.1-8.8 1.1-3.6 1.2-3.6 3.1-3.6 3.3.3 5.2 2.8 8.4 7.7 9.9 2.3.6 5 .9 7.9.9m3.6-16.1h-6.7c-2.5 0-5.8.1-9.1 1.2-4.3 1.4-4.2 3.8-4.2 4.1.3 5.5 3.1 9 8.2 10.5 2.2.7 5.1 1 8 1 3.8 0 7.7-.6 10.3-2.1 3.7-2.1 5.9-6 6.1-9.2h2.5l.3-2.4h-3.1c-1-2.6-3.9-2.9-5.9-3.1h-.2c-.9.1-3.5 0-6.2 0zm-3.6 15.9c-2.8 0-5.6-.3-7.7-1-4.8-1.4-7.3-4.5-7.6-9.7 0-.1-.1-1.8 3.4-3 3-1 6.2-1.1 8.7-1.1H124.1c2.6 0 5.2 0 6.3.1h.2c2.1.2 4.7.4 5.3 3.1.6 2.9-1.4 7.5-5.4 9.7-2.5 1.3-6.2 1.9-9.8 1.9z" fill="#2e0909" stroke-width="none" opacity="1"></path></g></g></g></g></g><rect id="svga-credit-rect" width="200" height="15" x="0" y="185" fill="#ecf0f1" opacity="0.5" style="display: none;"></rect><text id="svga-credit-text" font-family="Avenir Next, Roboto, Helvetica, Arial, sans-serif" font-size="10px" text-anchor="start" font-weight="400" size="10px" anchor="start" weight="400" fill="#333333" x="33.40447998046875" y="182.60824704170227" style="display: none;"><tspan id="SvgjsTspan25748" dy="13" x="33.40447998046875">Created on AvatarMaker.com</tspan></text></g><defs id="SvgjsDefs25700"></defs></svg>