<svg xmlns="http://www.w3.org/2000/svg" version="1.1" width="600px" height="600px" viewBox="0 0 200 200" style="overflow:hidden!important;"><defs id="SvgjsDefs24554"></defs><g id="svga-group-wrapper"><g id="svga-group-backs-single"><path id="SvgjsPath25226" d="M0 0h200v200H0V0z" fill="#88a65e" stroke-width="none" opacity="1" stroke="none"></path><path id="SvgjsPath25227" d="M100 124.2c-13.3 0-24.2-10.8-24.2-24.2S86.7 75.8 100 75.8s24.2 10.8 24.2 24.2-10.9 24.2-24.2 24.2zm0-42.4c-10 0-18.2 8.2-18.2 18.2s8.2 18.2 18.2 18.2 18.2-8.2 18.2-18.2S110 81.8 100 81.8zm0 57.4c-21.6 0-39.2-17.6-39.2-39.2S78.4 60.8 100 60.8s39.2 17.6 39.2 39.2-17.6 39.2-39.2 39.2zm0-72.4c-18.3 0-33.2 14.9-33.2 33.2s14.9 33.2 33.2 33.2 33.2-14.9 33.2-33.2-14.9-33.2-33.2-33.2zm0 87.5c-29.9 0-54.3-24.4-54.3-54.3S70.1 45.7 100 45.7 154.3 70 154.3 100s-24.4 54.3-54.3 54.3zm0-102.6c-26.6 0-48.3 21.7-48.3 48.3 0 26.6 21.7 48.3 48.3 48.3 26.6 0 48.3-21.7 48.3-48.3 0-26.6-21.7-48.3-48.3-48.3zm0 116.4c-37.6 0-68.1-30.6-68.1-68.1S62.4 31.9 100 31.9s68.1 30.6 68.1 68.1-30.5 68.1-68.1 68.1zm0-130.2c-34.2 0-62.1 27.9-62.1 62.1s27.9 62.1 62.1 62.1 62.1-27.9 62.1-62.1-27.9-62.1-62.1-62.1zm0 146.2c-46.4 0-84.1-37.7-84.1-84.1S53.6 15.9 100 15.9s84.1 37.7 84.1 84.1-37.7 84.1-84.1 84.1zm0-162.2c-43.1 0-78.1 35-78.1 78.1s35 78.1 78.1 78.1 78.1-35.1 78.1-78.1-35-78.1-78.1-78.1zm0 90c-6.6 0-11.9-5.4-11.9-11.9 0-6.6 5.4-11.9 11.9-11.9 6.6 0 11.9 5.4 11.9 11.9 0 6.6-5.3 11.9-11.9 11.9zm0-17.8c-3.3 0-5.9 2.7-5.9 5.9 0 3.3 2.7 5.9 5.9 5.9 3.3 0 5.9-2.7 5.9-5.9 0-3.3-2.6-5.9-5.9-5.9zM0 146.7v12.8c9.9 16.6 23.9 30.6 40.5 40.5h12.8C29.9 189 11 170.1 0 146.7zm200 0c-11 23.4-29.9 42.3-53.3 53.3h12.8c16.6-9.9 30.6-23.9 40.5-40.5v-12.8zm0-93.4V40.5C190.1 23.9 176.1 9.9 159.5 0h-12.8C170.1 11 189 29.9 200 53.3zm-200 0C11 29.9 29.9 11 53.3 0H40.5C23.9 9.9 9.9 23.9 0 40.5v12.8zm200 36.3C195.1 42.5 157.6 4.9 110.4 0H89.6C42.5 4.9 4.9 42.5 0 89.6v20.8c4.9 47.1 42.5 84.7 89.6 89.6h20.8c47.1-4.9 84.7-42.4 89.6-89.6V89.6zM100 194.5c-52.1 0-94.5-42.4-94.5-94.5S47.9 5.5 100 5.5s94.5 42.4 94.5 94.5-42.4 94.5-94.5 94.5zM0 176.2v9.5c4.4 5.1 9.1 9.9 14.3 14.3h9.5c-9-6.8-17-14.8-23.8-23.8zm200 0c-6.8 8.9-14.8 16.9-23.8 23.8h9.5c5.1-4.4 9.9-9.1 14.3-14.3v-9.5zM0 23.8c6.8-9 14.8-17 23.8-23.8h-9.5C9.1 4.4 4.4 9.1 0 14.3v9.5zm200 0v-9.5c-4.4-5.1-9.1-9.9-14.3-14.3h-9.5c9 6.8 17 14.8 23.8 23.8z" fill="#759746" stroke-width="none" opacity="1" stroke="none"></path></g><g id="svga-group-humanwrap-move" transform="matrix(1,0,0,1,0,0)"><g id="svga-group-humanwrap" transform="matrix(1,0,0,1,0,0)"><g id="svga-group-hair-back-move" transform="matrix(1,0,0,1,0,0)"><g id="svga-group-hair-back" transform="matrix(1,0,0,1,0,0)"></g></g><g id="svga-group-humanbody-back"><path id="SvgjsPath24951" d="m170 180.3-27.3-6.9-18-9.9-1.5-28.2H76.8l-1.5 28.2-18 9.9-27.3 6.9-9.1 19.7-3 20h164.2l-3-20z" fill="#ebaa82" stroke-width="none" opacity="1" stroke="none"></path><path id="SvgjsPath24952" d="m76.8 135.3-1.5 28.2-18 9.9-27.3 6.9-9.1 19.7-3 20h14.6v-20l2.7-17.7 23.8-6.4 24.7-8.3 3.5-32.3z" fill="#cc7b48" stroke-width="none" opacity="1" stroke="none"></path></g><g id="svga-group-chinshadow-single"><path id="SvgjsPath25190" d="m122.4 140.2 1-1-.2-3.9H76.8l-.5 9.2 13.8 13.8h14.3z" fill="#bd6630" stroke-width="none" opacity="1" stroke="none"></path></g><g id="svga-group-humanbody-front"><path id="SvgjsPath24953" d="m92.8 168.3 2 7.9 6.9 4.6s-8.5-3-8.7-3.6c-.2-.6-.2-8.9-.2-8.9z" fill="#cc7b48" stroke-width="none" opacity="1" stroke="none"></path></g><g id="svga-group-clothes-single"><path id="SvgjsPath25090" d="m143.53 172.73-10.43 16.82-18.47 10.43H85.37L66.9 189.55l-10.43-16.82-13.16 3.66 5.3 19.2.91 24.41H150.48l.91-24.41 5.3-19.2z" fill="#601090" stroke-width="none" opacity="1"></path><path id="SvgjsPath25091" d="m136.42 191.88-20.8 12.73H84.38l-20.8-12.73-9.77-17.83 8.49 18.39 21.65 12.88h32.1l21.65-12.88 8.49-18.39z" fill="#510181" stroke-width="none" opacity="1"></path></g><g id="svga-group-head" transform="matrix(1,0,0,1,0,0)"><g id="svga-group-ears-left-move" transform="matrix(1,0,0,1,0,0)"><g id="svga-group-ears-left" transform="matrix(1,0,0,1,0,0)"><path id="SvgjsPath25100" d="m58.4 92.2-5-3.9-4.1 14.6 2.7 10.2 5.7 5.1 3.6-.9 2.8-7.6-1.4-12.6z" fill="#ebaa82" stroke-width="none" opacity="1" stroke="none"></path><path id="SvgjsPath25101" d="m51.4 102 3.2-6.3 2.8 5.5.5 8s-3.1-.7-3.2-1c0-.3 1.2-6.5 1.1-6.8-.1-.3-1-3.6-1.2-3.5-.1.1-3.2 4.1-3.2 4.1z" fill="#cc7b48" stroke-width="none" opacity="1" stroke="none"></path><path id="SvgjsPath25102" d="m60 113.6-1.4-16.5-5.2-8.8 5.9 2.8 3.4 6 1.4 12.6-2.8 7.6-3.6.9-5.7-5.1s5.4 2.1 5.5 2.1c.3.1 2.5-1.6 2.5-1.6z" fill="#dc9164" stroke-width="none" opacity="1" stroke="none"></path></g></g><g id="svga-group-ears-right-move" transform="matrix(1,0,0,1,0,0)"><g id="svga-group-ears-right" transform="matrix(1,0,0,1,0,0)"><path id="SvgjsPath25103" d="m141.6 92.2 5-3.9 4.1 14.6-2.7 10.2-5.7 5.1-3.6-.9-2.8-7.6 1.4-12.6z" fill="#ebaa82" stroke-width="none" opacity="1" stroke="none"></path><path id="SvgjsPath25104" d="m148.6 102-3.2-6.3-2.8 5.5-.5 8s3.1-.7 3.2-1-1.2-6.5-1.1-6.8c.1-.3 1-3.6 1.2-3.5.1.1 3.2 4.1 3.2 4.1z" fill="#cc7b48" stroke-width="none" opacity="1" stroke="none"></path><path id="SvgjsPath25105" d="m140 113.6 1.4-16.5 5.2-8.8-5.9 2.8-3.4 6-1.4 12.6 2.8 7.6 3.6.9 5.7-5.1s-5.4 2.1-5.5 2.1c-.3.1-2.5-1.6-2.5-1.6z" fill="#dc9164" stroke-width="none" opacity="1" stroke="none"></path></g></g><g id="svga-group-faceshape-wrap" transform="matrix(1,0,0,1,0,0)"><g id="svga-group-faceshape-single"><path id="SvgjsPath25180" d="M138.1 60c-6.9-11.6-19.7-19.5-19.7-19.5-7.2-1.5-18.4-2.3-18.4-2.3s-11.1.8-18.4 2.3c0 0-12.8 7.9-19.7 19.5 0 0-5.1 14.5-5.3 24.8l1.2 18.7 9.1 23.5 8 7.6 18 18.1h14.2l18-18.1 8-7.6 9.1-23.5 1.2-18.7c-.2-10.3-5.3-24.8-5.3-24.8z" fill="#ebaa82" stroke-width="none" opacity="1" stroke="none"></path><path id="SvgjsPath25181" d="m93.2 150.3-24.4-24.7-7.7-23.7.3-18 4.3-22.1 17.4-18 16.7-4 18.6.7c-7.2-1.5-18.4-2.3-18.4-2.3s-11.1.8-18.4 2.3c0 0-12.8 7.9-19.7 19.5 0 0-5.1 14.5-5.3 24.8l1.2 18.7 9.1 23.5 8 7.6 18 18.1h14.2l18-18.1 8-7.6-27 23.4H93.2v-.1z" fill="#cc7b48" stroke-width="none" opacity="1" stroke="none"></path></g></g><g id="svga-group-mouth-single-move" transform="matrix(1,0,0,1,0,0)"><g id="svga-group-mouth-single" transform="matrix(1,0,0,1,0,0)"><path id="SvgjsPath25260" d="m84.24 127.12 9.86 1.08 6.5 2.2 6-2.7 9.84-.08-10.24-1.72H93.3z" fill="#fe856a" stroke-width="none" opacity="1" transform="translate(0 2)"></path><path id="SvgjsPath25261" d="m88.92 131.27 6.38 2.43 10.5.3 4.52-2.63L106 135H95.2z" fill="#cc7b48" stroke-width="none" opacity="1" transform="translate(0 2)"></path></g></g><g id="svga-group-eyes-left-move" transform="matrix(1,0,0,1,0,0)"><g id="svga-group-eyes-left" transform="matrix(1,0,0,1,0,0)"><g id="svga-group-eyesback-left"><path id="SvgjsPath25136" d="M92.5 96.6 88 92.7S75 92 74.7 92s-6.3 4.2-6.1 4.4c.2.2 6.5 3 9 3.5 0 0 3.8 0 7.7-.8 2.8-.8 5.7-1.9 7.2-2.5z" fill="#ffffff" stroke-width="none" opacity="1"></path></g><g id="svga-group-eyesiriswrapper-left" transform="matrix(1,0,0,1,0,0)"><g id="svga-group-eyesiriscontrol-left" transform="matrix(1,0,0,1,0,0)"><g id="svga-group-eyesiris-left" transform="matrix(1,0,0,1,0,0)"><path id="SvgjsPath25194" d="m82.2 100.2-5.5-2-1-5.8 4.5-3.8 5.5 2.1 1 5.7z" fill="#ea02f5" stroke-width="none" opacity="1"></path><path id="SvgjsPath25195" d="m78.2 95.4.6-3.1 3-1 2.4 2.1-.7 3.1-3 1z" fill="#000000" stroke-width="none" opacity="1"></path><path id="SvgjsPath25196" d="m78 91.7 2.2 2.1.6-.4-1.2-2.7z" fill="#ffffff" stroke-width="none" opacity="1"></path><path id="SvgjsPath25197" d="m82.1 96.4.5 1 .8-.4-.4-1z" fill="#ffffff" stroke-width="none" opacity="1"></path></g></g></g><g id="svga-group-eyesfront-left"><path id="SvgjsPath25144" d="M67.1 89.3v11.9l7.9 8.4h11.2l7.9-8.4V89.3l-7.9-8.4H75l-7.9 8.4zm1.5 7c-.2-.2 5.9-4.4 6.1-4.4s13.3.8 13.3.8l4.5 3.9c-1.5.7-4.4 1.8-7.2 2.4-3.9.9-7.7.8-7.7.8-2.5-.4-8.7-3.3-9-3.5z" fill="#ebaa82" stroke-width="none" opacity="1" stroke="none"></path><path id="SvgjsPath25145" d="m93 96.8-1.2-.5-4.1-3.4-12.9-.6-4.5 3.1-1.1 1 6.3 2.8-2.9-.7-4.7-2.1 1.8-1.8 5-3 13.3.9z" fill="#1b2a40" stroke-width="none" opacity="1" stroke="none"></path><path id="SvgjsPath25146" d="m91.5 94.7-3.8-4.5-9.7-.1-2.9 1.3 3.4-.9 9.1.2z" fill="#dc9164" stroke-width="none" opacity="1" stroke="none"></path></g></g></g><g id="svga-group-eyes-right-move" transform="matrix(1,0,0,1,0,0)"><g id="svga-group-eyes-right" transform="matrix(1,0,0,1,0,0)"><g id="svga-group-eyesback-right"><path id="SvgjsPath25137" d="m107.5 96.6 4.5-3.9s13-.7 13.3-.7 6.3 4.2 6.1 4.4c-.2.2-6.5 3-9 3.5 0 0-3.8 0-7.7-.8-2.8-.8-5.7-1.9-7.2-2.5z" fill="#ffffff" stroke-width="none" opacity="1"></path></g><g id="svga-group-eyesiriswrapper-right" transform="matrix(1,0,0,1,0,0)"><g id="svga-group-eyesiriscontrol-right" transform="matrix(1,0,0,1,0,0)"><g id="svga-group-eyesiris-right" transform="matrix(1,0,0,1,0,0)"><path id="SvgjsPath25198" d="m119.8 100.2-5.5-2-1-5.8 4.5-3.8 5.5 2.1 1 5.7z" fill="#ea02f5" stroke-width="none" opacity="1"></path><path id="SvgjsPath25199" d="m115.8 95.4.7-3.1 3-1 2.3 2.1-.6 3.1-3 1z" fill="#000000" stroke-width="none" opacity="1"></path><path id="SvgjsPath25200" d="m115.7 91.7 2.2 2.1.6-.4-1.2-2.7z" fill="#ffffff" stroke-width="none" opacity="1"></path><path id="SvgjsPath25201" d="m119.7 96.4.6 1 .8-.4-.4-1z" fill="#ffffff" stroke-width="none" opacity="1"></path></g></g></g><g id="svga-group-eyesfront-right"><path id="SvgjsPath25147" d="M125 80.8h-11.2l-7.9 8.4v11.9l7.9 8.4H125l7.9-8.4V89.3l-7.9-8.5zm-2.6 19s-3.8 0-7.7-.8c-2.8-.6-5.7-1.7-7.2-2.4l4.5-3.9s13-.7 13.3-.7 6.3 4.2 6.1 4.4-6.5 3-9 3.4z" fill="#ebaa82" stroke-width="none" opacity="1" stroke="none"></path><path id="SvgjsPath25150" d="m107 96.8 1.2-.5 4.1-3.4 12.9-.6 4.5 3.1 1.1 1-6.3 2.8 2.9-.7 4.7-2.1-1.8-1.8-5-3-13.3.9z" fill="#1b2a40" stroke-width="none" opacity="1" stroke="none"></path><path id="SvgjsPath25151" d="m108.5 94.7 3.8-4.5 9.7-.1 2.9 1.3-3.4-.9-9.1.2z" fill="#dc9164" stroke-width="none" opacity="1" stroke="none"></path></g></g></g><g id="svga-group-facehighlight-single"></g><g id="svga-group-eyebrows-left-move" transform="matrix(1,0,0,1,0,0)"><g id="svga-group-eyebrows-left-rotate" transform="matrix(1,0,0,1,0,0)"><g id="svga-group-eyebrows-left" transform="matrix(1,0,0,1,0,0)"><path id="SvgjsPath25068" d="m90.9 76.7 1.1 3.7-2.7 4.8L78 86.5l-11.3-2.9.6-1.5 11.1-1.4 9.4-3.2z" fill="#543c32" stroke-width="none" opacity="1"></path><path id="SvgjsPath25069" d="m88 85.3-1.3.2-.9-7.3.4-.1 1.8 7.2zm-5.1-6.1 2.3 6.5-1.2.1-1.2-6.6h.1zm6.4-2.1c.1 2.2.1 5.7.2 7.8l-.2.3-1.1.1.8-8.1.3-.1zm-18.8 4.6h.3c1.1 1.2 2.4 2.7 3.5 3.8l-1.4-.4-2.4-3.4zm-2.5 1 1.8 1.7-1-.2-.8-1.5zm12.6-2.8 1-.3c.5 1.9 1.2 4.7 1.6 6.3l-1.3.1-1.3-6.1zm-2.9.9 3.5 5.3-1.3.2-2.7-5.4.5-.1z" fill="#452c22" stroke-width="none" opacity="1"></path></g></g></g><g id="svga-group-eyebrows-right-move" transform="matrix(1,0,0,1,0,0)"><g id="svga-group-eyebrows-right-rotate" transform="matrix(1,0,0,1,0,0)"><g id="svga-group-eyebrows-right" transform="matrix(1,0,0,1,0,0)"><path id="SvgjsPath25070" d="m109.1 76.7-1.1 3.7 2.7 4.8 11.3 1.3 11.3-2.9-.6-1.5-11.1-1.4-9.4-3.2z" fill="#543c32" stroke-width="none" opacity="1"></path><path id="SvgjsPath25071" d="m112 85.3 1.3.2.9-7.3-.4-.1-1.8 7.2zm5.1-6.1-2.3 6.5 1.2.1 1.2-6.6h-.1zm-6.4-2.1c-.1 2.2-.1 5.7-.2 7.8l.2.3 1.1.1-.8-8.1-.3-.1zm18.8 4.6h-.3c-1.1 1.2-2.4 2.7-3.5 3.8l1.4-.4 2.4-3.4zm2.5 1-1.8 1.7 1-.2.8-1.5zm-12.6-2.8-1-.3c-.5 1.9-1.2 4.7-1.6 6.3l1.4.2 1.2-6.2zm2.9.9-3.5 5.3 1.3.2 2.7-5.4-.5-.1z" fill="#452c22" stroke-width="none" opacity="1"></path></g></g></g><g id="svga-group-beardwrap" transform="matrix(1,0,0,1,0,0)"><g id="svga-group-beard-single-move" transform="matrix(1,0,0,1,0,0)"><g id="svga-group-beard-single" transform="matrix(1,0,0,1,0,0)"></g></g></g><g id="svga-group-mustache-single-move" transform="matrix(1,0,0,1,0,0)"><g id="svga-group-mustache-single" transform="matrix(1,0,0,1,0,0)"></g></g><g id="svga-group-nose-single-move" transform="matrix(1,0,0,1,0,0)"><g id="svga-group-nose-single" transform="matrix(1,0,0,1,0,0)"><path id="SvgjsPath25236" d="M101.85 120.8h-4.04l-1.82-5.53-5.03-.08 2.06-8.74 1.98.99.23-.4 1.5-7.11-2.39-5.44.91-4.71 4.04-3.54 3.96 3.96.91 2.97-1.65 7.01.76 3.57 1.22 3.77 2.23-.99 2.22 8.66h-4.86z" fill="#ebaa82" stroke-width="none" opacity="1" transform="translate(0 1)"></path><path id="SvgjsPath25237" d="m102.67 88.42 1.19 5.06-1.64 6.63 1.04 3.65s-.45-3.5-.45-3.72c0-.22 1.79-7.07 1.79-7.07l-1.93-4.55z" fill="#cc7b48" stroke-width="none" opacity="1" transform="translate(0 1)"></path><path id="SvgjsPath25238" d="m107.23 105.22-4.15 2.98 3.5-.78 1.69 7.26-4.67-.78-1.94 6.48h-3.39l-1.95-6.48-4.66.78 1.68-7.26 3.5.78-1.55-1.12 2.1-7.35-2.46-5.28 1.71-11.69-2.98 12.36 2.61 5.36-1.04 6.56-2.54-1.82-2.33 10.62 5.32.26 1.81 5.19H102.43l1.82-5.19 5.31-.26z" fill="#cc7b48" stroke-width="none" opacity="1" transform="translate(0 1)"></path><path id="SvgjsPath25239" d="M101.56 89s1.24 4.46 1.02 4.39c-.22-.07-2.49-.22-2.49-.22l.88-5.05.59.88z" fill="#f3b792" stroke-width="none" opacity="1" transform="translate(0 1)"></path><path id="SvgjsPath25240" d="m102.43 109.12.73 3.66-1.39 2.19s-1.68.07-1.68-.15.07-5.34.07-5.34l2.27-.36z" fill="#f3b792" stroke-width="none" opacity="1" transform="translate(0 1)"></path></g></g><g id="svga-group-hair-front" transform="matrix(1,0,0,1,0,0)"><path id="SvgjsPath25304" d="m137.1 88.7 5.4 5.4 1.3-7.1-1-16.6-3.4-12.5 1.4-10.8-7.4-10.5-8.2-9.4-16.2-3.4-16.9-2.7-16.9 10.8-11.8 13.5-8.1 10.8-2 17.3 1.1 14.6 4.9 4.1.7 3.6 7.1 2.7-2.3 5.7 3 3.1-.3-4.1 4.3-7.1-7.7-3.7 2-13.2L81 70.8l1-5.4-6.1-10.2 6.4-2 3.8 3h9.1l2-.3 5.7.7 5.8-1.7 6.7 3.4h7.2l3.3 2 4.8.3 5.7 10.5z" fill="#543c32" stroke-width="none" opacity="1"></path><path id="SvgjsPath25305" d="m111.1 31.2-25 3-13.6 16 3.4 5.1 6.4-2 3.7 3h9.1l2-.3 5.8.7 5.7-1.7 6.8 3.4h7.1l4.7-11.5-16.1-15.7zm19.6 29.4 8.8-2.7-3 13.2-5.8-10.5zM64.6 74.4l11.6-5.2.2-4.1-11.1-10.3-.7-7 10.7-15.9-11.9 13.5-.2.2c-.5 3.1-1.2 7.5-1.2 7.5l5.7 7.2 2.1 8-7.2 4.3-2.7 7.3-3.8-6.1-2.2-7.3-.8 6.9L54.2 88l4.9 4.1L61.5 81l3.1-6.6z" fill="#4c342a" stroke-width="none" opacity="1"></path><path id="SvgjsPath25306" d="M108.7 54.9s2.5-12.7 2.1-13.5c-.4-.9-7.2-7.2-7.2-7.2l-5.3-1.4-11.7 1.4c-.5.4-1.1.8-1.7 1.3L72.5 50.2l3.4 5.1 6.4-2 3.7 3h9.1l2-.3 5.8.7 5.8-1.8z" fill="#452c22" stroke-width="none" opacity="1"></path><path id="SvgjsPath25307" d="M85.8 40.3s-3.8 1.2-6.9 2.2l-6.5 7.6 3.4 5.1 6.4-2 3.7 3H95l2-.3c-.1-.5-1.9-8.2-1.9-8.2l-9.3-7.4z" fill="#351f15" stroke-width="none" opacity="1"></path><path id="SvgjsPath25308" d="m101.8 23.9-20.7 7-16.5 16.9.7 7 11 10.3-.3 3.5-11.4 5.8L59 91.1l1 4.7.2-4 4.6-14.9 13.4-6.7 1.5-4.5-9.3-9.9-1.2-8.5 13.4-15.4z" fill="#5c453b" stroke-width="none" opacity="1"></path></g><g id="svga-group-glasses-single-move" transform="matrix(1,0,0,1,0,0)"><g id="svga-group-glasses-single" transform="matrix(1,0,0,1,0,0)"><path id="SvgjsPath25270" d="M88.1 88.7h-8.7l-6.1 6.1v8.6l6.1 6.1h8.7l6.1-6.1v-8.6l-6.1-6.1zm23.8 0h8.7l6.1 6.1v8.6l-6.1 6.1h-8.7l-6.1-6.1v-8.6l6.1-6.1z" fill="#ffffff" stroke-width="none" opacity="0.28"></path><path id="SvgjsPath25271" d="m89.3 103.4.2-.2-12.6-11-.2.2 12.6 11zm-3.8 4.7.1-.3-9.8-8.5-.1.2 9.8 8.6zm6.4-8.4.2-.3-9.8-8.5-.2.2 9.8 8.6zm-3.4-.5.2-.3-9.8-8.5-.2.2 9.8 8.6z" fill="#ffffff" stroke-width="none" opacity="0.28"></path><path id="SvgjsPath25272" d="m122.1 103.8.2-.3-12.6-11-.2.3 12.6 11zm-3.8 4.6.2-.2-9.8-8.6-.2.3 9.8 8.5zm6.4-8.4.2-.2-9.8-8.6-.2.3 9.8 8.5zm-3.3-.5.1-.2-9.8-8.6-.1.3 9.8 8.5z" fill="#ffffff" stroke-width="none" opacity="0.28"></path><path id="SvgjsPath25273" d="M127.2 95.1v-.5l-6.4-6.4h-9l-6.4 6.4v3.6H94.7v-3.6l-6.4-6.4h-9l-6.4 6.4v.5H70V98h2.9v5.6l6.4 6.4h9l6.4-6.4v-3.9h10.6v3.9l6.4 6.4h9l6.4-6.4V98h2.9v-2.9h-2.8zm-33.5 8.1-5.8 5.8h-8.2l-5.8-5.8V95l5.8-5.8h8.2l5.8 5.8v3.2h-.5v1.5h.5v3.5zm32.5 0-5.8 5.8h-8.2l-5.8-5.8v-3.5h.4v-1.5h-.4V95l5.8-5.8h8.2l5.8 5.8v8.2z" fill="#092e0c" stroke-width="none" opacity="1"></path></g></g></g></g></g><rect id="svga-credit-rect" width="200" height="15" x="0" y="185" fill="#ecf0f1" opacity="0.5" style="display: none;"></rect><text id="svga-credit-text" font-family="Avenir Next, Roboto, Helvetica, Arial, sans-serif" font-size="10px" text-anchor="start" font-weight="400" size="10px" anchor="start" weight="400" fill="#333333" x="33.40447998046875" y="182.60824704170227" style="display: none;"><tspan id="SvgjsTspan24607" dy="13" x="33.40447998046875">Created on AvatarMaker.com</tspan></text></g></svg>