<svg xmlns="http://www.w3.org/2000/svg" version="1.1" width="600px" height="600px" viewBox="0 0 200 200" style="overflow:hidden!important;"><defs id="SvgjsDefs3079"><radialGradient id="SvgjsRadialGradient3140" cx="100" cy="113" r="40" gradientUnits="userSpaceOnUse" class="svga-on-canvas-facehighlight-gradient-single-0"><stop id="SvgjsStop3141" stop-opacity="0.5" stop-color="#fff4f3" offset="0" ></stop><stop id="SvgjsStop3142" stop-opacity="0" stop-color="#f3d4cf" offset="0.9" ></stop></radialGradient><radialGradient id="SvgjsRadialGradient3144" cx="100" cy="57" r="36" gradientUnits="userSpaceOnUse" class="svga-on-canvas-facehighlight-gradient-single-1"><stop id="SvgjsStop3145" stop-opacity="0.5" stop-color="#fff4f3" offset="0" ></stop><stop id="SvgjsStop3146" stop-opacity="0" stop-color="#f3d4cf" offset="0.9" ></stop></radialGradient><linearGradient id="SvgjsLinearGradient3274" x1="100" y1="141" x2="100" y2="138" gradientUnits="userSpaceOnUse" class="svga-on-canvas-mouth-gradient-single-0"><stop id="SvgjsStop3275" stop-opacity="1" stop-color="#ebc3bd" offset="0.1" ></stop><stop id="SvgjsStop3276" stop-opacity="1" stop-color="#e4b3ab" offset="1" ></stop></linearGradient><linearGradient id="SvgjsLinearGradient3297" x1="99.98" y1="171.27" x2="99.98" y2="136.351" gradientUnits="userSpaceOnUse" class="svga-on-canvas-chinshadow-gradient-single-0"><stop id="SvgjsStop3298" stop-opacity="0.8" stop-color="#e4b3ab" offset="0" ></stop><stop id="SvgjsStop3299" stop-opacity="1" stop-color="#c5796d" offset="0.7" ></stop></linearGradient><radialGradient id="SvgjsRadialGradient3328" cx="126.403" cy="87.57" r="15.179" gradientTransform="matrix(-0.9148 0.0479 0.0523 0.9986 184.4314 -6.6017)" gradientUnits="userSpaceOnUse" class="svga-on-canvas-eyesback-gradient-left-0"><stop id="SvgjsStop3329" stop-opacity="1" stop-color="#ffffff" offset="0" ></stop><stop id="SvgjsStop3330" stop-opacity="1" stop-color="#fdfefe" offset="0.544" ></stop><stop id="SvgjsStop3331" stop-opacity="1" stop-color="#f6f8f9" offset="0.74" ></stop><stop id="SvgjsStop3332" stop-opacity="1" stop-color="#eaeff2" offset="0.879" ></stop><stop id="SvgjsStop3333" stop-opacity="1" stop-color="#d9e3e8" offset="0.992" ></stop><stop id="SvgjsStop3334" stop-opacity="1" stop-color="#d8e2e7" offset="1" ></stop></radialGradient><radialGradient id="SvgjsRadialGradient3336" cx="126.401" cy="87.57" r="15.179" gradientTransform="matrix(0.9148 0.0479 -0.0523 0.9986 15.5691 -6.6017)" gradientUnits="userSpaceOnUse" class="svga-on-canvas-eyesback-gradient-right-0"><stop id="SvgjsStop3337" stop-opacity="1" stop-color="#ffffff" offset="0" ></stop><stop id="SvgjsStop3338" stop-opacity="1" stop-color="#fdfefe" offset="0.544" ></stop><stop id="SvgjsStop3339" stop-opacity="1" stop-color="#f6f8f9" offset="0.74" ></stop><stop id="SvgjsStop3340" stop-opacity="1" stop-color="#eaeff2" offset="0.879" ></stop><stop id="SvgjsStop3341" stop-opacity="1" stop-color="#d9e3e8" offset="0.992" ></stop><stop id="SvgjsStop3342" stop-opacity="1" stop-color="#d8e2e7" offset="1" ></stop></radialGradient><radialGradient id="SvgjsRadialGradient3344" cx="126.403" cy="87.57" r="15.179" gradientTransform="matrix(-0.9148 0.0479 0.0523 0.9986 184.4314 -6.6017)" gradientUnits="userSpaceOnUse" class="svga-on-canvas-eyesfront-gradient-left-0"><stop id="SvgjsStop3345" stop-opacity="1" stop-color="#ffffff" offset="0" ></stop><stop id="SvgjsStop3346" stop-opacity="1" stop-color="#fdfefe" offset="0.544" ></stop><stop id="SvgjsStop3347" stop-opacity="1" stop-color="#f6f8f9" offset="0.74" ></stop><stop id="SvgjsStop3348" stop-opacity="1" stop-color="#eaeff2" offset="0.879" ></stop><stop id="SvgjsStop3349" stop-opacity="1" stop-color="#d9e3e8" offset="0.992" ></stop><stop id="SvgjsStop3350" stop-opacity="1" stop-color="#d8e2e7" offset="1" ></stop></radialGradient><radialGradient id="SvgjsRadialGradient3354" cx="122.581" cy="83.48" fx="136.229" fy="83.114" r="16.914" gradientTransform="matrix(0.99 0.1411 0.1085 -0.7608 -52.9892 129.6892)" gradientUnits="userSpaceOnUse" class="svga-on-canvas-eyesfront-gradient-left-3"><stop id="SvgjsStop3355" stop-opacity="1" stop-color="#e4b3ab" offset="0" ></stop><stop id="SvgjsStop3356" stop-opacity="0.3" stop-color="#e4b3ab" offset="0.7" ></stop><stop id="SvgjsStop3357" stop-opacity="0" stop-color="#f3d4cf" offset="1" ></stop></radialGradient><radialGradient id="SvgjsRadialGradient3359" cx="70.243" cy="108.081" r="29.51" gradientTransform="matrix(1.0336 0 0 1.0336 -1.941 1.8777)" gradientUnits="userSpaceOnUse" class="svga-on-canvas-eyesfront-gradient-left-4"><stop id="SvgjsStop3360" stop-opacity="0" stop-color="#000000" offset="0.95" ></stop><stop id="SvgjsStop3361" stop-opacity="0.3" stop-color="#000000" offset="1" ></stop></radialGradient><radialGradient id="SvgjsRadialGradient3365" cx="126.401" cy="87.57" r="15.179" gradientTransform="matrix(0.9148 0.0479 -0.0523 0.9986 15.5691 -6.6017)" gradientUnits="userSpaceOnUse" class="svga-on-canvas-eyesfront-gradient-right-0"><stop id="SvgjsStop3366" stop-opacity="1" stop-color="#ffffff" offset="0" ></stop><stop id="SvgjsStop3367" stop-opacity="1" stop-color="#fdfefe" offset="0.544" ></stop><stop id="SvgjsStop3368" stop-opacity="1" stop-color="#f6f8f9" offset="0.74" ></stop><stop id="SvgjsStop3369" stop-opacity="1" stop-color="#eaeff2" offset="0.879" ></stop><stop id="SvgjsStop3370" stop-opacity="1" stop-color="#d9e3e8" offset="0.992" ></stop><stop id="SvgjsStop3371" stop-opacity="1" stop-color="#d8e2e7" offset="1" ></stop></radialGradient><radialGradient id="SvgjsRadialGradient3375" cx="122.581" cy="83.48" fx="136.229" fy="83.114" r="16.914" gradientTransform="matrix(-0.99 0.1411 -0.1085 -0.7608 252.9892 129.6892)" gradientUnits="userSpaceOnUse" class="svga-on-canvas-eyesfront-gradient-right-3"><stop id="SvgjsStop3376" stop-opacity="1" stop-color="#e4b3ab" offset="0" ></stop><stop id="SvgjsStop3377" stop-opacity="0.3" stop-color="#e4b3ab" offset="0.7" ></stop><stop id="SvgjsStop3378" stop-opacity="0" stop-color="#f3d4cf" offset="1" ></stop></radialGradient><radialGradient id="SvgjsRadialGradient3380" cx="70.243" cy="108.081" r="29.509" gradientTransform="matrix(-1.0336 0 0 1.0336 201.941 1.8777)" gradientUnits="userSpaceOnUse" class="svga-on-canvas-eyesfront-gradient-right-4"><stop id="SvgjsStop3381" stop-opacity="0" stop-color="#000000" offset="0.95" ></stop><stop id="SvgjsStop3382" stop-opacity="0.3" stop-color="#000000" offset="1" ></stop></radialGradient><radialGradient id="SvgjsRadialGradient3431" cx="-558.588" cy="-490.918" r="84.646" gradientTransform="matrix(0.096 -0.0248 0.0245 0.0961 140.5478 120.3577)" gradientUnits="userSpaceOnUse" class="svga-on-canvas-eyesiris-gradient-left-1"><stop id="SvgjsStop3432" stop-opacity="0.8" stop-color="#ffffff" offset="0" ></stop><stop id="SvgjsStop3433" stop-opacity="0" stop-color="#ffffff" offset="1" ></stop></radialGradient><radialGradient id="SvgjsRadialGradient3435" cx="-565.337" cy="-492.691" r="84.644" gradientTransform="matrix(0.0991 8.856325e-004 -0.0011 0.0991 130.3774 136.3533)" gradientUnits="userSpaceOnUse" class="svga-on-canvas-eyesiris-gradient-left-2"><stop id="SvgjsStop3436" stop-opacity="0.8" stop-color="#ffffff" offset="0" ></stop><stop id="SvgjsStop3437" stop-opacity="0" stop-color="#ffffff" offset="1" ></stop></radialGradient><linearGradient id="SvgjsLinearGradient3441" x1="122.283" y1="93.047" x2="123.61" y2="91.466" gradientTransform="matrix(1 0 0 1 -52 0)" gradientUnits="userSpaceOnUse" class="svga-on-canvas-eyesiris-gradient-left-5"><stop id="SvgjsStop3442" stop-opacity="1" stop-color="#ffffff" offset="0" ></stop><stop id="SvgjsStop3443" stop-opacity="0" stop-color="#ffffff" offset="1" ></stop></linearGradient><linearGradient id="SvgjsLinearGradient3449" x1="130" y1="81" x2="126" y2="85" gradientTransform="matrix(1 0 0 1 -50 0)" gradientUnits="userSpaceOnUse" class="svga-on-canvas-eyesiris-gradient-left-7"><stop id="SvgjsStop3450" stop-opacity="1" stop-color="#ffffff" offset="0" ></stop><stop id="SvgjsStop3451" stop-opacity="0" stop-color="#ffffff" offset="1" ></stop></linearGradient><radialGradient id="SvgjsRadialGradient3454" cx="-578.76" cy="-490.73" r="84.646" gradientTransform="matrix(0.096 -0.0248 0.0245 0.0961 192.4794 119.8404)" gradientUnits="userSpaceOnUse" class="svga-on-canvas-eyesiris-gradient-right-1"><stop id="SvgjsStop3455" stop-opacity="0.8" stop-color="#ffffff" offset="0" ></stop><stop id="SvgjsStop3456" stop-opacity="0" stop-color="#ffffff" offset="1" ></stop></radialGradient><radialGradient id="SvgjsRadialGradient3458" cx="-584.778" cy="-487.329" r="84.644" gradientTransform="matrix(0.0991 8.856325e-004 -0.0011 0.0991 182.3104 135.839)" gradientUnits="userSpaceOnUse" class="svga-on-canvas-eyesiris-gradient-right-2"><stop id="SvgjsStop3459" stop-opacity="0.8" stop-color="#ffffff" offset="0" ></stop><stop id="SvgjsStop3460" stop-opacity="0" stop-color="#ffffff" offset="1" ></stop></radialGradient><linearGradient id="SvgjsLinearGradient3464" x1="120.284" y1="93.047" x2="121.611" y2="91.467" gradientUnits="userSpaceOnUse" class="svga-on-canvas-eyesiris-gradient-right-5"><stop id="SvgjsStop3465" stop-opacity="1" stop-color="#ffffff" offset="0" ></stop><stop id="SvgjsStop3466" stop-opacity="0" stop-color="#ffffff" offset="1" ></stop></linearGradient><linearGradient id="SvgjsLinearGradient3472" x1="130" y1="81" x2="126" y2="85" gradientUnits="userSpaceOnUse" class="svga-on-canvas-eyesiris-gradient-right-7"><stop id="SvgjsStop3473" stop-opacity="1" stop-color="#ffffff" offset="0" ></stop><stop id="SvgjsStop3474" stop-opacity="0" stop-color="#ffffff" offset="1" ></stop></linearGradient><linearGradient id="SvgjsLinearGradient3482" x1="130" y1="81" x2="126" y2="85" gradientTransform="matrix(1 0 0 1 -50 0)" gradientUnits="userSpaceOnUse" class="svga-on-canvas-eyesiris-gradient-left-6"><stop id="SvgjsStop3483" stop-opacity="1" stop-color="#ffffff" offset="0" ></stop><stop id="SvgjsStop3484" stop-opacity="0" stop-color="#ffffff" offset="1" ></stop></linearGradient><linearGradient id="SvgjsLinearGradient3492" x1="130" y1="81" x2="126" y2="85" gradientUnits="userSpaceOnUse" class="svga-on-canvas-eyesiris-gradient-right-6"><stop id="SvgjsStop3493" stop-opacity="1" stop-color="#ffffff" offset="0" ></stop><stop id="SvgjsStop3494" stop-opacity="0" stop-color="#ffffff" offset="1" ></stop></linearGradient></defs><g id="svga-group-wrapper"><g id="svga-group-backs-single"><path id="SvgjsPath3576" d="M225,225H-25V-25h250V225z" fill="#e5fcc2" stroke-width="none" opacity="1" stroke="none"></path><path id="SvgjsPath3577" d="M225,66.045V46.523c-8.393-7.17-16.444-14.676-24.006-22.532C206.423,16.09,215.705,4.264,225,0.533v-16.039c-3.896,1.01-7.948,3.157-10.891,4.849c-9.592,5.514-16.968,14.41-23.396,23.297C180.981,1.161,172.431-11.375,166.43-25h-16.256c7.101,18.589,18.696,35.418,31.924,50.498c-3.762,6.007-7.353,12.13-11.097,18.132c-6.771,10.854-13.008,21.979-18.061,33.713c-1.74-0.122-3.482-0.236-5.227-0.348c-0.102-11.296-1.301-22.637-2.591-33.427C142.364,20.495,137.825-2.268,133.128-25h-15.287c3.512,16.925,6.991,33.854,9.757,50.925c2.627,16.216,5.104,33.229,5.117,49.989c-17.066-1.536-33.684-4.704-47.991-15.619c-22.846-17.429-21.9-26.78-25.009-40.538C68.462,4.662,80.021-9.181,83.404-25H67.848c-2.288,7.421-6.745,14.566-10.568,20.732c-1.766,2.849-3.54,5.708-5.319,8.565C41.416-4.602,16.985-1.963,3.134-5.856c-8.089-2.274-17.358-7.185-25.183-11.213c-0.973-0.501-1.96-1.017-2.951-1.55v16.811c7.296,3.502,14.678,6.469,20.881,9.151c12.571,5.436,27.6,2.613,42.814,7.009c2.774,0.801,3.976,1.791,4.725,3.446C37.528,26.922,30.89,33.68,18.638,36.037C6.717,38.331-9.568,36.45-25,35.374V50.51c14.17,0.911,30.442,2.151,42.378,0.754c12.875-1.506,23.256-6.821,30.822-14.903c3.926,13.052,9.926,23.987,32.905,39.741c15.079,10.337,32.932,13.381,50.891,14.876c-2.058,20.178-10.428,37.32-32.693,54.405c-10.407,7.985-21.317,14.728-34.237,24.035c-2.063-0.633-4.131-1.247-6.204-1.832c-14.62-4.125-46.417-6.59-53.1-6.965c8.508-6.75,17.07-13.123,22.152-23.144c11.073-21.834,0.773-48.529-17.324-59.654C2.211,72.673-11.466,69.181-25,64.823v15.465c6.097,2.013,12.208,3.99,18.242,6.175c3.371,1.221,7.316,2.72,10.326,4.67c-1.389-0.644,14.647,9.087,13.954,28.72c-0.661,18.694-21.119,26.841-34.167,41.017c-2.763,0.267-5.568,0.658-8.354,1.198V225h8.315c-2.877-17.495-2.37-34.53,8.331-50.064c8.69-0.111,43.984,2.377,59.317,6.059C37.81,193.899,34.342,209.025,34.122,225H48.77c0.262-8.053,1.59-15.874,5.038-23.062c3.074-6.407,8.375-11.441,14.043-15.887c6.325,2.192,12.58,4.603,18.827,6.916c21.501,7.963,39.663-16.236,68.072-27.625c0.472-0.189,0.954-0.367,1.429-0.554c10.135,21.642,24.926,41.005,40.126,60.211H215.3c-16.396-20.788-33.895-42.817-44.951-65.021c25.817-7.328,33.013-2.973,40.158,3.964c5.458,5.298,10.602,12.362,14.493,20.076v-26.446c-0.996-1.161-2.006-2.287-3.028-3.367c-7.024-7.418-15.717-12.491-26.009-13.126c-10.466-0.645-21.483,2.115-31.569,5.142c-7.333-20.176-7.046-36.563-1.767-53.077c15.35,1.577,40.417,6.625,48.157,20.097c5.229,9.103,8.712,18.285,14.216,28.972v-34.389c-1.05-1.908-2.147-3.734-3.344-5.472c-10.035-14.583-35.667-21.38-53.283-23.575c5.96-12.576,12.812-22.861,24.354-41.835C202.896,47.331,213.716,56.986,225,66.045z M147.094,92c0.152,0.009,0.306,0.019,0.459,0.028c-0.258,0.887-0.503,1.777-0.737,2.671C146.924,93.802,147.006,92.901,147.094,92z M109.519,173.981c-4.553,2.729-9.252,6.184-14.766,5.801c-3.813-0.264-8.413-2.824-12.214-4.384c23.267-16.107,52.827-33.469,61.801-67.581c-1.749,15.194,0.747,28.782,6.11,43.354C135.916,157.305,124.394,165.065,109.519,173.981z" fill="#ceed9f" stroke-width="none" opacity="1" stroke="none"></path></g><g id="svga-group-humanwrap-move" transform="matrix(1,0,0,1,0,0)"><g id="svga-group-humanwrap" transform="matrix(0.8999997000000001,0,0,0.8999997000000001,9.974248672656245,11.129720889062497)"><g id="svga-group-hair-back-move" transform="matrix(1,0,0,1,0,0)"><g id="svga-group-hair-back" transform="matrix(0.9999999,0,0,0.9999999,0.000009999999988963282,0.000009999999988963282)"><path id="SvgjsPath3538" d="M100.5,100.5h-1v-1h1V100.5z" fill="#2a232b" stroke-width="none" opacity="1"></path></g></g><g id="svga-group-humanbody-single"><path id="SvgjsPath3147" d="M190.858 199.866c-6.008-10.158-13.474-11.973-19.628-13.936 -6.323-2.016-19.346-3.178-26.449-4.6 -6.86-1.373-23.153-5.789-23.339-13.488 -0.192-8.066 4.291-40.09 4.291-40.09H74.005c0 0 4.487 32.023 4.294 40.09 -0.184 7.699-16.48 12.115-23.341 13.488 -7.104 1.422-20.125 2.584-26.448 4.6 -6.156 1.963-13.624 3.777-19.632 13.936 -3.644 6.16-6.008 16.133-6.008 27.133h194C196.869 215.999 194.509 206.026 190.858 199.866z" fill="#f3d4cf" stroke-width="none" opacity="1" stroke="none"></path><path id="SvgjsPath3148" d="M121.442 167.843c2.495 10.929 18.165 13.698 26.293 15.325 21.909 4.379 33.772 5.134 42.297 19.539 2.903 4.916 5.459 15.864 5.962 24.153 1.835 0.291 0.531-17.432-5.136-26.994 -9.742-16.472-29.089-15.135-46.077-18.535C137.921 179.958 121.628 175.542 121.442 167.843L121.442 167.843zM78.558 167.843c-0.186 7.699-16.479 12.115-23.339 13.488 -16.988 3.4-36.335 2.063-46.077 18.535 -5.667 9.563-6.971 27.285-5.136 26.994 0.503-8.289 3.059-19.237 5.962-24.153 8.524-14.405 20.388-15.16 42.297-19.539C60.393 181.541 76.063 178.771 78.558 167.843L78.558 167.843z" fill="#fff4f3" stroke-width="none" opacity="1" stroke="none"></path><path id="SvgjsPath3149" d="M51.206 189.513c0 0 28.641 0.299 33.473 1.885 2.314 0.758 8.372 5.633 8.372 5.633s-6.556-3.17-8.658-3.758C79.51 191.909 51.206 189.513 51.206 189.513zM99.795 199.999c2.053-0.041 7.887-3.799 7.887-3.799s-5.574 2.059-7.342 2.16c-1.491 0.086-6.366-1.238-6.366-1.238S98.112 200.032 99.795 199.999zM117.008 192.757c6.75-1.818 29.786-3.23 29.786-3.23s-23.791-0.516-30.51 1.725c-2.252 0.752-7.562 5.16-7.562 5.16S114.786 193.354 117.008 192.757z" fill="#e4b3ab" stroke-width="none" opacity="1" stroke="none"></path><path id="SvgjsPath3150" d="M190.858 199.866c-9.741-16.471-29.122-15.142-46.077-18.535 -6.86-1.373-23.153-5.789-23.339-13.488 -0.192-8.066 4.291-40.09 4.291-40.09H74.005c0 0 4.487 32.023 4.294 40.09 -0.184 7.699-16.48 12.115-23.341 13.488 -7.104 1.422-20.125 2.584-26.448 4.6 -6.156 1.963-13.624 3.777-19.632 13.936 -3.644 6.16-6.008 16.133-6.008 27.133h194C196.869 215.999 194.509 206.026 190.858 199.866z" fill="none" stroke="#c5796d" stroke-width="1.5" opacity="1"></path></g><g id="svga-group-chinshadow-single"><path id="SvgjsPath3296" d="M74.767 128.517c0.594 4.297 3.11 22.794 3.929 33.496 6.172 3.567 11.423 8.992 21.307 8.992 9.736 0 14.976-5.264 21.031-8.831 0.805-10.679 3.341-29.34 3.938-33.657l0.017-0.113H74.751L74.767 128.517z" fill="url(#SvgjsLinearGradient3297)" opacity="1"></path></g><g id="svga-group-clothes-single"><path id="SvgjsPath3572" d="M2.258 224.437c-2.481-20.683 6.836-35.34 29.389-41.745 6.619-1.876 14.221-2.843 15.221-2.903 -0.032-0.179-0.039-0.169-0.039-0.532h-0.03c0.074-6.837 7.69-5.493 9.87-5.953 8.623-1.833 11.551-10.877 21.398-8.496 0.242 2.074 0.063 4.47-1.168 13.335 9.286 19.972 19.359 18.247 22.939 29.43 3.245-10.001 14.771-11.587 23.26-29.433 -0.558-5.015-1.771-9.396-1.261-13.568l0.05-0.036c6.596-2.198 9.477 0.747 12.104 3.281 8.005 7.727 12.259 2.831 16.262 6.355 1.592 1.403 2.167 3.398 2.167 5.54 18.244 2.649 49.051 3.68 44.89 44.185l0.079 0.09C178.926 223.985 54.422 228.609 2.258 224.437z" fill="#09aac5" stroke-width="none" opacity="1"></path><path id="SvgjsPath3573" d="M100.187 206.617c3.609-9.059 14.44-11.18 22.618-27.884 0.08-0.092 0.291-0.507 0.557-1.056 -0.135-1.56-0.313-3.188-1.034-4.899 -0.442-2.854-0.796-5.524-0.496-8.114 1.68 0.489 3.271 1.072 4.362 2.264 1.601 1.748 0.386 4.776-1.148 7.69C122.164 187.172 114.949 196.237 100.187 206.617zM168.869 197.402c2.5 8.834 4.167 18.167 2.165 27.128 1.67-0.041 2.288-0.081 3.84-0.118C175.566 215.002 173.869 204.736 168.869 197.402zM132 199c-10.913 6.366-21.885 8.816-31.799 17.276 -9.916-8.437-20.994-9.911-31.906-16.276 -5-2-12.672-9.104-17.36-14.104 14.75 22.375 25.309 16.026 48.934 31.108 23.625-15.082 34.25-9.957 49-32.332C144.182 189.673 137 197 132 199zM99.796 207.68c-3.609-9.059-14.018-12.242-22.196-28.946 -0.08-0.092-0.291-0.507-0.557-1.056 0.135-1.56-0.22-3.273 0.5-4.985 0.442-2.854 0.635-5.185 0.335-7.774 -1.68 0.489-2.577 0.818-3.667 2.01 -1.601 1.748-0.386 4.776 1.148 7.69C78.241 187.172 85.034 197.3 99.796 207.68zM28.536 196.402c-3.667 8-3.697 18.6-3.005 28.01 1.552 0.037 2.17 0.077 3.84 0.118C27.369 215.569 27.869 205.402 28.536 196.402zM99.869 209.409c13.958-4.18 28.804-11.829 41.144-30.515 -11.142 15.02-27.705 23.887-40.827 29.327 -13.536-4.901-29.742-14.66-39.19-27.776C72.066 198.567 85.911 205.229 99.869 209.409z" fill="#009cb6" stroke-width="none" opacity="1"></path><path id="SvgjsPath3574" d="M197.389 223.985c-0.097 0-0.216 0.001-0.318 0.001 -0.359-7.608-1.073-15.39-5.076-22.251 -8-15-25-15.375-40.994-18.735 -2 0-3.032-5.541-4.506-7.015 -1.25-1.25-10.875-1.25-13.926-9.508 0.494 0.438 0.963 0.895 1.423 1.338 8.005 7.727 12.259 2.831 16.262 6.355 1.592 1.403 2.167 3.398 2.167 5.54 18.244 2.649 49.051 3.68 44.89 44.185L197.389 223.985zM2.017 224.985c0.097 0 0.216 0.001 0.318 0.001 0.359-7.608 1.173-13.796 5.176-20.657 8-15 25.299-18.367 41.293-21.728 2.939-1.116 1.391-3.242 2.864-4.716 1.25-1.25 8.2-1.275 17.825-11.4 -0.494 0.438-2.62 0.887-3.08 1.33 -8.005 7.727-14.045 5.545-16.262 6.355 -2.735 1-3.158 3.423-3.158 5.564 -18.244 2.649-46.994 8-44.898 45.16L2.017 224.985z" fill="#1fbad4" stroke-width="none" opacity="1"></path><path id="SvgjsPath3575" d="M196.159 204.835c-6.314-22.445-28.114-22.805-43.64-25.21 0-8.395-7.898-6.726-11.53-7.5 -8.012-1.717-7.761-10.998-19.24-7.649 -0.483 3.964 0.445 7.44 1.26 13.62 -8.416 17.668-20.089 19.653-23.169 29.149 -3.372-10.536-13.67-9.479-22.84-29.09 1.274-9.228 1.403-11.365 1.16-13.43 -8.753-1.998-10.727 3.679-18.64 7.47 -4.8 2.249-6.159 0.228-10.28 2.24 -1.71 0.83-2.57 3.08-2.51 4.91 -0.01 0.01 0 0.01 0 0.01 0 0.12 0 0.229 0.02 0.34 -1 0.065-8.597 1.049-15.13 2.9 -22.821 6.48-31.958 21.382-29.45 41.939 10.13 0 20.114 3.728 175.28-0.069 7.202-0.181 19.426-0.381 19.939-0.381C197.569 223.085 198.475 213.097 196.159 204.835zM2.309 224.315c-1.146-27.296 17.235-39.776 44.34-44.05 15.316 25.402 34.063 21.702 53.02 35.91 -17.183-14.276-35.189-12.385-52.5-36.25 -0.194-1.997 0.851-4.209 3.01-5.07 1.53-0.601 3.17-0.43 4.77-0.42 6.04 0.05 10.69-4.681 15.16-8.15 2.13-1.42 5.3-1.49 7.84-1.1 0.198 3.302-1.077 8.271-1.5 11.79 -0.89-1.96-1.73-3.971-2.57-5.98 10.623 31.175 21.215 24.115 25.95 37.05 -1-0.279-17.902-6.352-31.37-19.739 -2.86-2.831-8.527-9.069-8.96-9.65 16.676 22.564 27.331 23.715 40.38 29.53 0 0.01 0.01 0.03 0.01 0.04 0.011 0.033 0.064 0.188 0.08 0.22 0.06-0.03 0.13-0.06 0.2-0.08 0.02-0.02 0.04-0.03 0.07-0.03 1.807-0.882 13.688-5.019 22.729-11.229 9.309-6.403 19.925-20.281 19.131-19.28 -15.556 15.814-17.958 19.4-41.931 30.37 -0.02 0-0.04-0.01-0.06-0.02 -0.02-0.11-0.05-0.221-0.09-0.33 0.01-0.051 0.03-0.101 0.05-0.15 4.212-11.556 16.587-7.09 26.84-38.78 -1.05 2.74-2.15 5.44-3.39 8.08 -0.389-4.649-1.741-8.305-1.591-12.13 1.777-0.593 6.598-0.873 7.931 0.46 5.566 4.755 6.012 8.24 15.08 8.24 2.9 0.019 6.703 0.384 7.13 5.71 -0.53 0.786-4.503 5.471-8.26 9.2 -13.155 13.082-24.923 13.333-43.13 27.25 0.45 0 1.37-0.96 1.73-1.21 14.236-10.101 24.469-9.945 37.56-20.641 6.031-4.927 11.838-12.81 12.46-13.81 0.021 0.01 0.051 0.01 0.07 0.01 24.023 4.132 45.554 8.064 44.61 43.83C89.435 223.233 55.562 226.094 2.309 224.315z" fill="#008197" stroke-width="none" opacity="1"></path></g><g id="svga-group-head" transform="matrix(1,0,0,1,0,0)"><g id="svga-group-ears-left-move" transform="matrix(1,0,0,1,0,0)" style="display: none;"><g id="svga-group-ears-left" transform="matrix(1,0,0,1,0,0)"><path id="SvgjsPath3323" d="M47.34 82.049c-1.378-2.352-9.403-6.527-11.855-6.357 -4.229 0.292-5.137 5.152-5.446 7.479 -0.609 4.591 0.645 9.778 1.485 12.908 0.687 2.557 2.874 7.41 4.214 9.664 1.197 2.016 4.145 5.663 5.733 7.358 1.398 1.495 4.73 4.215 7.248 3.551 2.769-0.728 6.015-3.857 6.239-5.193C56.165 104.212 50.926 88.167 47.34 82.049z" fill="#f3d4cf" stroke="#c5796d" stroke-width="1.5" opacity="1"></path><path id="SvgjsPath3324" d="M42.903 98.548c-0.142-0.572 0.007-1.535 0.151-2.465 0.131-0.848 0.255-1.648 0.18-2.214 -0.284-2.121-1.888-6.15-2.936-8.334 -1.206-2.511-3.157-5.674-5.602-6.492 -1.011-0.338-2.073-0.511-2.145-0.236 -0.611 1.9-0.563 7.178-0.212 11.086 0.987 10.992 10.375 18.911 11.872 20.578 0.276 0.308 0.566 0.49 0.637 0.416 0.072-0.074-0.1-0.379-0.375-0.688 -1.477-1.654-8.314-8.49-9.27-12.807 -1.012-4.581 3-12.111 3.776-13.548 0.397 0.675 0.732 1.322 0.991 1.862 0.204 0.424 0.429 0.92 0.66 1.456 -0.456 0.75-3.656 6.219-2.489 10.596 0.431 1.615 2.379 3.695 3.67 4.266 0.71 0.314 0.978 0.783 1.287 1.325 0.359 0.63 0.765 1.343 1.946 1.861 0.24 0.106 0.457 0.148 0.649 0.148 0.333 0 0.586-0.132 0.773-0.288 0.019 0.275-0.349 2.463-0.357 2.789 -0.012 0.421 0.045 0.77 0.146 0.778 0.101 0.008 0.207-0.327 0.221-0.749 0.016-0.518 0.379-2.992 0.289-3.297 -0.264-0.902-1.073-1.921-1.93-3C43.994 100.53 43.122 99.432 42.903 98.548zM34.428 94.672c-2.316-7.025 1.456-13.179 1.977-14.144 0.906 0.808 1.704 1.89 2.354 2.948C38.286 84.321 34.526 89.947 34.428 94.672zM45.187 104.856c-1.069-0.469-1.427-1.096-1.774-1.704 -0.313-0.549-0.637-1.118-1.458-1.481 -0.179-0.08-0.375-0.199-0.576-0.338 -2.646-6.164 0.289-8.857 1.025-9.411 0.226 0.754 0.394 1.445 0.468 2 0.067 0.509-0.058 1.317-0.179 2.1 -0.149 0.97-0.305 1.973-0.144 2.621 0.239 0.967 1.137 2.098 2.005 3.191 0.771 0.971 1.562 1.97 1.832 2.786C46.271 104.783 45.905 105.173 45.187 104.856z" fill="#c5796d" stroke-width="none" opacity="1" stroke="none"></path></g></g><g id="svga-group-ears-right-move" transform="matrix(1,0,0,1,0,0)" style="display: none;"><g id="svga-group-ears-right" transform="matrix(1,0,0,1,0,0)"><path id="SvgjsPath3325" d="M152.398 82.049c1.377-2.352 9.402-6.527 11.855-6.357 4.229 0.292 5.137 5.152 5.445 7.479 0.609 4.591-0.645 9.778-1.484 12.908 -0.688 2.557-2.875 7.41-4.215 9.664 -1.197 2.016-4.145 5.663-5.732 7.358 -1.398 1.495-4.73 4.215-7.248 3.551 -2.77-0.728-6.016-3.857-6.238-5.193C143.574 104.212 148.813 88.167 152.398 82.049z" fill="#f3d4cf" stroke="#c5796d" stroke-width="1.5" opacity="1"></path><path id="SvgjsPath3326" d="M154.902 101.59c-0.855 1.08-1.666 2.098-1.93 3 -0.09 0.305 0.273 2.779 0.289 3.297 0.014 0.422 0.119 0.757 0.221 0.749 0.102-0.009 0.158-0.357 0.146-0.778 -0.01-0.326-0.377-2.514-0.357-2.789 0.188 0.156 0.439 0.288 0.771 0.288 0.193 0 0.41-0.042 0.65-0.148 1.182-0.518 1.588-1.23 1.945-1.861 0.311-0.542 0.578-1.011 1.287-1.325 1.291-0.571 3.24-2.651 3.67-4.266 1.168-4.376-2.031-9.846-2.488-10.596 0.23-0.536 0.457-1.032 0.66-1.456 0.26-0.54 0.594-1.188 0.99-1.862 0.777 1.437 4.789 8.967 3.777 13.548 -0.955 4.317-7.793 11.153-9.27 12.807 -0.275 0.31-0.447 0.614-0.375 0.688s0.361-0.108 0.637-0.416c1.498-1.667 10.885-9.585 11.873-20.578 0.35-3.908 0.396-9.187-0.213-11.086 -0.072-0.274-1.135-0.102-2.145 0.236 -2.445 0.817-4.396 3.98-5.604 6.492 -1.047 2.185-2.65 6.213-2.936 8.334 -0.076 0.566 0.049 1.366 0.18 2.214 0.145 0.93 0.293 1.893 0.15 2.465C156.617 99.432 155.744 100.53 154.902 101.59zM160.979 83.476c0.65-1.058 1.449-2.14 2.355-2.948 0.52 0.964 4.291 7.119 1.977 14.144C165.211 89.947 161.453 84.321 160.979 83.476zM153.352 104.62c0.271-0.815 1.063-1.814 1.832-2.786 0.869-1.093 1.766-2.224 2.006-3.191 0.16-0.648 0.006-1.651-0.145-2.621 -0.121-0.783-0.246-1.591-0.178-2.1 0.074-0.555 0.242-1.245 0.467-2 0.736 0.553 3.672 3.247 1.025 9.411 -0.201 0.139-0.396 0.258-0.576 0.338 -0.82 0.363-1.145 0.932-1.457 1.481 -0.348 0.608-0.705 1.235-1.775 1.704C153.834 105.173 153.467 104.783 153.352 104.62z" fill="#c5796d" stroke-width="none" opacity="1" stroke="none"></path></g></g><g id="svga-group-faceshape-wrap" transform="matrix(0.9999999,0,0,0.9999999,0.000009999999988963282,0.000008006835926721578)"><g id="svga-group-faceshape-single"><path id="SvgjsPath3293" d="M100.002 0.867C66.384 0.919 39.082 28.09 39.134 61.564c0.009 5.316 0.704 10.471 2.002 15.382h0.001c0.012 0.053 8.12 35.231 11.82 46.756 2.775 8.646 14.288 21.634 22.398 24.913 7.826 3.165 13.039 10.654 24.646 10.654s16.82-7.489 24.646-10.654c8.11-3.279 19.624-16.268 22.398-24.913 3.7-11.524 11.809-46.703 11.819-46.756h0.002c1.298-4.911 1.994-10.066 2.002-15.382C160.923 28.09 133.62 0.919 100.002 0.867z" fill="#f3d4cf" stroke-width="none" opacity="1" stroke="none"></path><path id="SvgjsPath3294" d="M140.727 16.481c10.424 10.984 16.867 26.145 16.844 42.883 -0.009 5.316-0.666 10.471-1.894 15.382h-0.001c-0.011 0.053-7.681 35.231-11.18 46.756 -2.623 8.646-13.515 21.634-21.184 24.913 -7.403 3.164-12.333 10.654-23.31 10.654 -10.978 0-15.908-7.49-23.309-10.654 -7.671-3.279-18.56-16.268-21.184-24.913 -3.5-11.524-11.168-46.703-11.18-46.756h-0.001c-1.229-4.911-1.886-10.066-1.894-15.382 -0.025-16.736 6.418-31.896 16.84-42.88 -12.382 11.111-20.168 27.193-20.141 45.08 0.009 5.316 0.704 10.471 2.002 15.382h0.001c0.012 0.053 8.12 35.231 11.82 46.756 2.775 8.646 14.288 21.634 22.398 24.913 7.826 3.165 13.039 10.654 24.646 10.654s16.82-7.489 24.646-10.654c8.11-3.279 19.624-16.268 22.398-24.913 3.7-11.524 11.809-46.703 11.819-46.756h0.002c1.298-4.911 1.994-10.066 2.002-15.382C160.898 43.676 153.111 27.593 140.727 16.481z" fill="#ebc3bd" stroke-width="none" opacity="1" stroke="none"></path><path id="SvgjsPath3295" d="M100.002 0.867C66.384 0.919 39.082 28.09 39.134 61.564c0.009 5.316 0.704 10.471 2.002 15.382h0.001c0.012 0.053 8.12 35.231 11.82 46.756 2.775 8.646 14.288 21.634 22.398 24.913 7.826 3.165 13.039 10.654 24.646 10.654s16.82-7.489 24.646-10.654c8.11-3.279 19.624-16.268 22.398-24.913 3.7-11.524 11.809-46.703 11.819-46.756h0.002c1.298-4.911 1.994-10.066 2.002-15.382C160.923 28.09 133.62 0.919 100.002 0.867z" fill="none" stroke="#c5796d" stroke-width="1.5" opacity="1"></path></g></g><g id="svga-group-mouth-single-move" transform="matrix(1,0,0,1,0,0)"><g id="svga-group-mouth-single" transform="matrix(1,0,0,1,0,0)"><path id="SvgjsPath3315" d="M99.867 142.685c-4.159 0-7.651-3.162-7.651-3.162 7.261 1.131 16.154-0.671 16.154-0.671S105.119 142.685 99.867 142.685z" fill="#e4b3ab" stroke-width="none" opacity="1" stroke="none"></path><path id="SvgjsPath3316" d="M99.869 138.507c-2.691 0.025-8.86-1.635-11.18-2.938 -1.374-0.769-3.749-3.433-5.4-4.788 -0.635-0.521-0.371-1.528 0.466-1.569 2.036-0.099 4.65 0.979 5.876 1.169 2.565 0.389 5.805 1.835 10.195 1.835 3.262 0 6.828-1.15 9.101-1.574 1.367-0.254 4.529-1.376 6.755-1.501 0.838-0.05 1.18 0.777 0.56 1.316 -1.739 1.526-4.526 4.328-6.028 5.112C107.783 136.837 102.294 138.485 99.869 138.507z" fill="#000000" stroke-width="none" opacity="0.5"></path><path id="SvgjsPath3317" d="M86.859 129.328c0 0 0.286 2.427 0.722 3.12 0.6 0.954 4.257 2.914 5.717 3.188 0.993 0.184 2.814 0.476 3.816 0.613 1.085 0.148 1.695 0.015 2.791-0.021 1.179-0.038 2.186 0.132 3.336-0.135 0.819-0.19 3.215-0.834 3.997-1.145 0.604-0.242 1.814-0.643 2.364-0.992 0.456-0.288 1.866-1.333 2.146-1.795 0.366-0.605 0.709-2.752 0.709-2.752L86.859 129.328z" fill="#ffffff" stroke-width="none" opacity="1"></path><path id="SvgjsPath3318" d="M92.17 129.748c0 0-0.522 5.283-0.568 5.375 -0.047 0.092-0.179-5.375-0.179-5.375H92.17zM94.364 130.335l0.464 5.601 0.298-5.601H94.364zM99.485 131.161l0.579 5.088 0.375-5.176L99.485 131.161zM103.978 130.093c0.973 0.088 1.298 5.446 1.298 5.446l0.134-5.446H103.978zM107.705 129.438c0 0 0.386 5.114 0.44 5.018 0.053-0.097 0.153-5.018 0.153-5.018H107.705zM88.876 129.436l0.283 4.181 0.283-4.181H88.876zM110.375 129.011l0.086 4.38 0.432-4.413L110.375 129.011z" fill="#000000" stroke-width="none" opacity="0.1"></path><path id="SvgjsPath3319" d="M116.764 129.126c-1.218-0.406-3.771-0.125-5.061-0.294 -1.83-0.239-5.542-0.409-7.392-0.356 -1.161 0.034-3.449 0.457-4.608 0.484 -1.191 0.027-3.562-0.461-4.751-0.471 -1.888-0.012-5.689 0.214-7.54 0.534 -1.279 0.222-3.89-0.113-4.914 0.475 -0.237 0.137-0.095 0.75 0 0.981 0.862 2.089 4.188 5.489 7.067 7.497 3.698 2.579 7.586 3.38 10.643 3.381 4.035 0.003 8.785-2.247 12.762-5.639 1.758-1.5 3.982-4.091 4.353-5.537C117.512 129.451 117.079 129.231 116.764 129.126zM99.816 136.352c-2.488 0.019-8.26-1.229-10.697-2.494 -1.461-0.759-3.7-2.577-5.226-3.708 -0.588-0.435-0.454-0.789 0.321-0.822 1.882-0.084 5.042 0.944 6.177 1.1 2.371 0.324 5.366 1.531 9.425 1.531 3.013 0 6.312-0.959 8.414-1.311 1.264-0.213 4.833-1.278 6.89-1.384 0.775-0.04 0.926 0.276 0.354 0.727 -1.61 1.271-4.326 3.216-6.055 4.066C107.224 135.139 102.057 136.328 99.816 136.352z" fill="#f771a9" stroke="#e85391" stroke-width="0.75" opacity="1"></path><path id="SvgjsPath3320" d="M86.869 134.124c2.588 0.523 8.417 3.611 13.315 3.444 5.105-0.175 12.685-4.745 13.685-4.244 0.373 1.199-9.853 6.985-13.685 7.077C96.747 140.482 85.786 135.485 86.869 134.124zM99.485 131.161c3.109-0.042 6.909-0.442 9.469-1.672 -2.918-1.013-6.938 0.115-9.251 0.168 -3 0.07-5.51-0.934-8.289 0.058C94.069 130.622 96.798 131.198 99.485 131.161z" fill="#ff8ebd" stroke-width="none" opacity="1" stroke="none"></path><path id="SvgjsPath3321" d="M97.732 139.024c-1.881-0.424-1.945-0.596-0.162-0.42 1.09 0.106 2.18 0.132 3.238 0.03 0.141-0.015 0.281-0.029 0.419-0.049 1.195-0.157 2.479-0.546 3.768-1.051 2.015-0.792 2.051-0.6 0.053 0.446 -1.467 0.767-2.831 1.324-3.798 1.44l-0.062 0.007C100.364 139.509 99.123 139.34 97.732 139.024z" fill="#ffa8cc" stroke-width="none" opacity="1" stroke="none"></path><path id="SvgjsPath3322" d="M79.599 130.722c0 0-0.561-1.256-0.482-1.724 0.11-0.657 1.521-1.958 1.521-1.958s-0.854 1.498-0.986 1.971C79.523 129.468 79.599 130.722 79.599 130.722zM120.163 130.881c0 0 0.609-1.364 0.523-1.873 -0.119-0.714-1.652-2.127-1.652-2.127s0.929 1.628 1.072 2.142C120.245 129.519 120.163 130.881 120.163 130.881z" fill="#c5796d" stroke-width="none" opacity="1" stroke="none"></path></g></g><g id="svga-group-eyes-left-move" transform="matrix(1,0,0,1,0,0)"><g id="svga-group-eyes-left" transform="matrix(1,0,0,1,0,0)"><g id="svga-group-eyesback-left"><path id="SvgjsPath3327" d="M60.632 83.957c1.226-1.179 9.091-2.674 13.631-2.075 7.183 0.947 13 7.285 13 7.285s-4.836 3.083-13.61 3.56C67.873 93.042 62.061 89.309 60.632 83.957z" fill="url(#SvgjsRadialGradient3328)" opacity="1"></path></g><g id="svga-group-eyesiriswrapper-left" transform="matrix(1,0,0,1,-1,0.25)"><g id="svga-group-eyesiriscontrol-left" transform="matrix(1,0,0,1,0,0)"><g id="svga-group-eyesiris-left" transform="matrix(1,0,0,1,0,0)"><path id="SvgjsPath3475" d="M83.206 89.25c-1.231 4.522-5.896 7.187-10.429 5.944 -4.528-1.241-7.203-5.918-5.97-10.442 1.23-4.526 5.905-7.19 10.434-5.947C81.768 80.045 84.439 84.723 83.206 89.25z" fill="#675d5d" stroke="#392222" stroke-width="0.5" opacity="1"></path><path id="SvgjsPath3476" d="M73.962 81.918l-0.221-0.395c-0.776 0.308-1.524 0.631-2.232 0.973l0.524 1.267 -0.066 0.732 -2.021-1.189c-0.66 0.367-1.273 0.75-1.867 1.14l0.005 0.013 -0.692 0.78 1.107 1.132 -1.491 0.813 0.563 0.931 2.633 0.262 -2.468 1.673 2.641-0.146L68.984 92.3l3.255-1.969 -0.875 3.349 1.883-3.093 0.363 3.319 0.544-2.936 0.5-0.061 0.709 3.329 0.216-0.998c0.284-0.074 1.018 0.997 1.297 0.922l-0.829-3.621 1.817 3.621 -0.737-3.756 2.236 2.905c0.08-0.025 0.278-1.204 0.357-1.228l-1.392-2.081 2.53 0.763 -1.518-1.643 -1.219-1.009 5.083 1.137 -2.83-1.723 2-0.818 -4.329-0.437 4.281-2.27 -3.875 0.988 -1.043-0.565 -0.256-0.501 0.074-1.199 0.086-1.967 -1.768 3.113 -0.156-2.279 -0.222-0.597c-0.354 0.124-0.702 0.245-1.043 0.375L73.962 81.918z" fill="#767676" stroke-width="none" opacity="1" stroke="none"></path><path id="SvgjsPath3477" d="M83.303 85.237c-7.429 0.338-11.206 1.927-16.591 3.727 -1.038-4.574 1.839-9.12 6.42-10.149C77.712 77.786 82.267 80.661 83.303 85.237z" fill="#584646" stroke-width="none" opacity="0.9" stroke="none"></path><path id="SvgjsPath3478" d="M76.234,84.165c-1.869-0.536-3.777,0.532-4.258,2.395c-0.484,1.853,0.64,3.793,2.51,4.329c1.871,0.537,3.781-0.532,4.264-2.386C79.237,86.639,78.107,84.7,76.234,84.165z" fill="#000000" stroke-width="none" opacity="0.8"></path><path id="SvgjsPath3479" d="M76.234,84.165c-1.869-0.536-3.777,0.532-4.258,2.395c-0.484,1.853,0.64,3.793,2.51,4.329c1.871,0.537,3.781-0.532,4.264-2.386C79.237,86.639,78.107,84.7,76.234,84.165z" fill="none" stroke="#392222" stroke-width="0.75" opacity="1"></path><path id="SvgjsPath3480" d="M68.812 92.044c0.868 1.378 2.021 2.416 3.653 2.762 1.879 0.398 2.094-2.101 0.748-2.387 -1.02-0.215-1.667-0.715-2.199-1.561C70.039 89.31 68.029 90.803 68.812 92.044L68.812 92.044z" fill="#ffffff" stroke-width="none" opacity="0.5"></path><path id="SvgjsPath3481" d="M76.468 83.449c1.316 0.265 2.082 1.087 2.747 2.323 1.222 2.272 4.676 0.252 3.453-2.019 -1.073-1.995-2.86-3.703-5.138-4.162C74.615 79.004 74.206 82.993 76.468 83.449L76.468 83.449z" fill="url(#SvgjsLinearGradient3482)" opacity="1"></path></g></g></g><g id="svga-group-eyesfront-left"><path id="SvgjsPath3352" d="M55.332 88c0 13.808 8.06 24.999 18 24.999s18-11.191 18-24.999c0-13.809-8.06-25.001-18-25.001S55.332 74.191 55.332 88zM60.632 83.957c1.226-1.179 9.091-2.674 13.631-2.075 7.183 0.947 13 7.285 13 7.285s-4.836 3.083-13.61 3.56C67.873 93.042 62.061 89.309 60.632 83.957z" fill="#f3d4cf" stroke-width="none" opacity="1" stroke="none"></path><path id="SvgjsPath3353" d="M74.182 96.592c9.412 2.223 18.451-1.61 20.194-8.565 1.738-6.956-4.478-14.395-13.892-16.622 -9.414-2.224-18.453 1.609-20.195 8.565C58.55 86.927 64.765 94.365 74.182 96.592zM60.632 83.957c1.226-1.179 9.091-2.674 13.631-2.075 7.183 0.947 13 7.285 13 7.285s-4.836 3.083-13.61 3.56C67.873 93.042 62.061 89.309 60.632 83.957z" fill="url(#SvgjsRadialGradient3354)" opacity="1"></path><path id="SvgjsPath3358" d="M60.632 83.957c1.226-1.179 9.091-2.674 13.631-2.075 7.183 0.947 13 7.285 13 7.285s-4.836 3.083-13.61 3.56C67.873 93.042 62.061 89.309 60.632 83.957z" fill="url(#SvgjsRadialGradient3359)" opacity="1"></path><path id="SvgjsPath3362" d="M87.433 83.657c-6.502-4.251-4.054-3.09-16.23-6.703 3.344 0.5 9.572 2.066 11.707 3.32C84.073 80.928 86.433 82.783 87.433 83.657z" fill="#c5796d" stroke-width="none" opacity="1" stroke="none"></path><path id="SvgjsPath3363" d="M55.34 82.979c0 0 2.084 1.306 3.713 1.307 0.129 0.766 2.241 4.259 5.873 6.344 5.49 3.154 11.897 2.18 18.014 0.643 2.995-0.746 2.81-1.52 7.773-2.07 -3.897-1.57-3.485-2.497-8.891-5.423 2.468 0.471 5.783 2.315 5.783 2.315 -1.237-1.452-9.917-6.796-23.826-7.508 0 0 4.649 1.088 6.399 1.769 -8.05 1.097-10.242-0.113-10.669-0.435 0.357 0.302 1.188 1.24 3.004 1.852 -1.878 0.143-5.312-0.867-5.312-0.867s0.867 0.826 2.628 1.965C58.323 83.595 55.34 82.979 55.34 82.979zM60.632 84.074c1.226-1.137 9.091-2.58 13.631-2.001 7.183 0.913 13 7.026 13 7.026s-4.836 2.974-13.61 3.434C67.873 92.836 62.061 89.236 60.632 84.074z" fill="#000000" stroke-width="none" opacity="1" stroke="none"></path></g></g></g><g id="svga-group-eyes-right-move" transform="matrix(1,0,0,1,0,0)"><g id="svga-group-eyes-right" transform="matrix(1,0,0,1,0,0)"><g id="svga-group-eyesback-right"><path id="SvgjsPath3335" d="M139.368 83.957c-1.226-1.179-9.091-2.674-13.631-2.075 -7.183 0.947-13 7.285-13 7.285s4.836 3.083 13.61 3.56C132.127 93.042 137.939 89.309 139.368 83.957z" fill="url(#SvgjsRadialGradient3336)" opacity="1"></path></g><g id="svga-group-eyesiriswrapper-right" transform="matrix(1,0,0,1,1,0.25)"><g id="svga-group-eyesiriscontrol-right" transform="matrix(1,0,0,1,0,0)"><g id="svga-group-eyesiris-right" transform="matrix(1,0,0,1,0,0)"><path id="SvgjsPath3485" d="M133.199 89.25c-1.231 4.522-5.896 7.187-10.429 5.944 -4.528-1.241-7.203-5.918-5.97-10.442 1.23-4.526 5.905-7.19 10.434-5.947C131.761 80.045 134.433 84.723 133.199 89.25z" fill="#675d5d" stroke="#392222" stroke-width="0.5" opacity="1"></path><path id="SvgjsPath3486" d="M123.955 81.918l-0.221-0.395c-0.776 0.308-1.524 0.631-2.232 0.973l0.524 1.267 -0.066 0.732 -2.021-1.189c-0.66 0.367-1.273 0.75-1.867 1.14l0.005 0.013 -0.692 0.78 1.107 1.132L117 87.182l0.563 0.931 2.633 0.262 -2.468 1.673 2.641-0.146 -1.392 2.398 3.255-1.969 -0.875 3.349 1.883-3.093 0.363 3.319 0.544-2.936 0.5-0.061 0.709 3.329 0.216-0.998c0.284-0.074 1.018 0.997 1.297 0.922l-0.829-3.621 1.817 3.621 -0.737-3.756 2.236 2.905c0.08-0.025 0.278-1.204 0.357-1.228l-1.392-2.081 2.53 0.763 -1.518-1.643 -1.219-1.009 5.083 1.137 -2.83-1.723 2-0.818 -4.329-0.437 4.281-2.27 -3.875 0.988 -1.043-0.565 -0.256-0.501 0.074-1.199 0.086-1.967 -1.768 3.113 -0.156-2.279 -0.222-0.597c-0.354 0.124-0.702 0.245-1.043 0.375L123.955 81.918z" fill="#767676" stroke-width="none" opacity="1" stroke="none"></path><path id="SvgjsPath3487" d="M133.296 85.237c-7.429 0.338-11.206 1.927-16.591 3.727 -1.038-4.574 1.839-9.12 6.42-10.149C127.705 77.786 132.26 80.661 133.296 85.237z" fill="#584646" stroke-width="none" opacity="0.9" stroke="none"></path><path id="SvgjsPath3488" d="M126.229,84.165c-1.869-0.536-3.777,0.532-4.259,2.395c-0.484,1.853,0.641,3.793,2.509,4.329c1.873,0.537,3.78-0.532,4.266-2.386C129.229,86.639,128.101,84.7,126.229,84.165z" fill="#000000" stroke-width="none" opacity="0.8"></path><path id="SvgjsPath3489" d="M126.229,84.165c-1.869-0.536-3.777,0.532-4.259,2.395c-0.484,1.853,0.641,3.793,2.509,4.329c1.873,0.537,3.78-0.532,4.266-2.386C129.229,86.639,128.101,84.7,126.229,84.165z" fill="none" stroke="#392222" stroke-width="0.75" opacity="1"></path><path id="SvgjsPath3490" d="M118.805 92.044c0.868 1.378 2.021 2.416 3.653 2.762 1.879 0.398 2.094-2.101 0.748-2.387 -1.02-0.215-1.667-0.715-2.199-1.561C120.032 89.31 118.022 90.803 118.805 92.044L118.805 92.044z" fill="#ffffff" stroke-width="none" opacity="0.5"></path><path id="SvgjsPath3491" d="M126.461 83.449c1.316 0.265 2.082 1.087 2.747 2.323 1.222 2.272 4.676 0.252 3.453-2.019 -1.073-1.995-2.86-3.703-5.138-4.162C124.608 79.004 124.199 82.993 126.461 83.449L126.461 83.449z" fill="url(#SvgjsLinearGradient3492)" opacity="1"></path></g></g></g><g id="svga-group-eyesfront-right"><path id="SvgjsPath3373" d="M126.668 62.999c-9.94 0-18 11.193-18 25.001 0 13.808 8.06 24.999 18 24.999s18-11.191 18-24.999C144.668 74.191 136.608 62.999 126.668 62.999zM126.348 92.727c-8.774-0.476-13.61-3.56-13.61-3.56s5.817-6.338 13-7.285c4.54-0.6 12.405 0.896 13.631 2.075C137.939 89.309 132.127 93.042 126.348 92.727z" fill="#f3d4cf" stroke-width="none" opacity="1" stroke="none"></path><path id="SvgjsPath3374" d="M139.711 79.971c-1.742-6.956-10.781-10.79-20.195-8.565 -9.414 2.227-15.63 9.666-13.892 16.622 1.743 6.955 10.782 10.788 20.194 8.565C135.235 94.365 141.45 86.927 139.711 79.971zM126.348 92.727c-8.774-0.476-13.61-3.56-13.61-3.56s5.817-6.338 13-7.285c4.54-0.6 12.405 0.896 13.631 2.075C137.939 89.309 132.127 93.042 126.348 92.727z" fill="url(#SvgjsRadialGradient3375)" opacity="1"></path><path id="SvgjsPath3379" d="M139.368 83.957c-1.226-1.179-9.091-2.674-13.631-2.075 -7.183 0.947-13 7.285-13 7.285s4.836 3.083 13.61 3.56C132.127 93.042 137.939 89.309 139.368 83.957z" fill="url(#SvgjsRadialGradient3380)" opacity="1"></path><path id="SvgjsPath3383" d="M112.567 83.657c6.502-4.251 4.054-3.09 16.23-6.703 -3.344 0.5-9.572 2.066-11.707 3.32C115.927 80.928 113.567 82.783 112.567 83.657z" fill="#c5796d" stroke-width="none" opacity="1" stroke="none"></path><path id="SvgjsPath3384" d="M140.17 82.871c1.761-1.139 2.628-1.965 2.628-1.965s-3.434 1.009-5.312 0.867c1.815-0.612 2.646-1.55 3.004-1.852 -0.427 0.321-2.619 1.531-10.669 0.435 1.75-0.681 6.399-1.769 6.399-1.769 -13.909 0.712-22.589 6.056-23.826 7.508 0 0 3.315-1.844 5.783-2.315 -5.405 2.926-4.993 3.854-8.891 5.423 4.964 0.551 4.778 1.325 7.773 2.07 6.116 1.537 12.523 2.511 18.014-0.643 3.632-2.085 5.744-5.579 5.873-6.344 1.629-0.001 3.713-1.307 3.713-1.307S141.677 83.595 140.17 82.871zM126.348 92.533c-8.774-0.459-13.61-3.434-13.61-3.434s5.817-6.113 13-7.026c4.54-0.579 12.405 0.864 13.631 2.001C137.939 89.236 132.127 92.836 126.348 92.533z" fill="#000000" stroke-width="none" opacity="1" stroke="none"></path></g></g></g><g id="svga-group-facehighlight-single"><path id="SvgjsPath3139" d="M140.204 113.007c0.035 22.275-17.995 40.365-40.273 40.396 -22.274 0.036-40.361-17.993-40.396-40.272C59.501 90.857 77.53 72.77 99.808 72.735 122.083 72.701 140.171 90.73 140.204 113.007z" fill="url(#SvgjsRadialGradient3140)" opacity="1"></path><path id="SvgjsPath3143" d="M135,55.999c0,19.329-15.671,35-35,35c-19.329,0-35-15.671-35-35s15.671-35,35-35C119.329,20.999,135,36.67,135,55.999z" fill="url(#SvgjsRadialGradient3144)" opacity="1"></path></g><g id="svga-group-eyebrows-left-move" transform="matrix(1,0,0,1,0,0)"><g id="svga-group-eyebrows-left-rotate" transform="matrix(1,0,0,1,0,0)"><g id="svga-group-eyebrows-left" transform="matrix(1,0,0,1,0,0)"><path id="SvgjsPath3503" d="M59.396 69.48c16.138-1.701 18.92 1.72 27.556 5.214 0.474 0.186 1.583 0.391 1.88-0.098 0.787-1.312-3.254-3.205-4.65-3.819C75.041 66.529 69.36 66.685 59.396 69.48z" fill="#2a232b" stroke-width="none" opacity="1"></path></g></g></g><g id="svga-group-eyebrows-right-move" transform="matrix(1,0,0,1,0,0)"><g id="svga-group-eyebrows-right-rotate" transform="matrix(1,0,0,1,0,0)"><g id="svga-group-eyebrows-right" transform="matrix(1,0,0,1,0,0)"><path id="SvgjsPath3504" d="M140.604 69.48c-5.06-0.533-9.441-1.2-17.854 1.08 -4.62 1.032-10.657 5.557-11.581 4.036 -1.089-1.815 11.254-8.648 22.768-6.707C137.227 68.468 136.765 68.403 140.604 69.48z" fill="#2a232b" stroke-width="none" opacity="1"></path></g></g></g><g id="svga-group-nose-single-move" transform="matrix(1,0,0,1,0,0)"><g id="svga-group-nose-single" transform="matrix(1,0,0,1,0,0)"><path id="SvgjsPath3312" d="M92.281 116.235c-0.745 2.063 5.028 4.289 7.218 4.426 2.374 0.147 9.024-2.899 7.896-4.991 -1.185-2.197-5.63-0.286-7.547-0.286C97.94 115.384 93.276 113.479 92.281 116.235z" fill="#e4b3ab" stroke-width="none" opacity="1" stroke="none"></path><path id="SvgjsPath3313" d="M102.207 117.221c-0.243-0.522 1.194-1.333 1.748-1.493 0.777-0.226 2.505 0.238 2.438 0.831 -0.06 0.521-1.603-0.169-2.105-0.022C103.767 116.687 102.435 117.712 102.207 117.221zM95.214 116.742c0.706 0 1.753 0.457 1.945 0.057 0.229-0.479-1.56-1.065-2.086-1 -0.434 0.052-1.991 0.958-1.777 1.338C93.496 117.49 94.284 116.742 95.214 116.742z" fill="#c5796d" stroke-width="none" opacity="1" stroke="none"></path><path id="SvgjsPath3314" d="M99.857 113.479c0.669 0 1.807-0.637 1.978-1.9 0.754-5.575-0.521-20.246-1.978-20.246 -1.365 0-2.508 15.024-2.155 20.246C97.789 112.86 99.099 113.479 99.857 113.479" fill="#ffffff" stroke-width="none" opacity="0.2" stroke="none"></path></g></g><g id="svga-group-hair-front" transform="matrix(0.9999999,0,0,0.9999999,0.000010097265615627293,0.0000072957031278519935)"><path id="SvgjsPath3540" d="M47.869 62.985c3.513-27.218 48.858-44.766 54.189-42.089 3.002-1.44 59.328 41.036 59.561 62.839 0 0-22.007 19.356-22.043 12.485 -0.167-6.713-13.667-24.08-19.264-31.097 -5.428-6.805-11.027-15.225-14.647-23.392 -4.578 8.854-19.762 23.128-25.737 27.531C67.71 78.266 61 97.833 57.482 108.704c-0.619 1.911-4.764 11.061-5.409 13.031C47.527 110.639 44.016 90.357 47.869 62.985z" fill="#2a232b" stroke-width="none" opacity="0.1"></path><path id="SvgjsPath3541" d="M168.612 36.164c-11.808-25.213-46.156-48.481-67.878-36.371C56.411-23.993-12.496 66.971 47.647 132.54c0.04 0.039 0.068 0.08 0.106 0.117 6.074 6.596 13.227 12.621 20.452 17.504 -7.228-9.984-13.803-23.407-15.666-35.879 5.939-18.021 9.266-33.725 25.459-47.317 11.026-9.255 24.281-19.122 26.669-31.375 8.063 19.831 29.816 38.467 34.742 52.624 0.175 14.627-3.735 28.098-4.854 32.623 0.078-0.156 0.164-0.309 0.252-0.461 2.984-5.375 5.861-10.77 7.771-16.451 0.83 17.059-5.808 30.435-9.904 39.925 -0.024 0.074-0.057 0.152-0.096 0.229 0.096-0.055 0.184-0.117 0.277-0.174 10.322-6.818 20.082-19.361 26.105-31.27 -0.029 6.242-0.487 14.134-0.654 16.42 12.835-17.958 14.087-34.884 15.084-37.911 1.148 5.97 3.297 11.975 4.45 14.41C177.24 88.977 179.117 61.413 168.612 36.164z" fill="#2a232b" stroke-width="none" opacity="1"></path><path id="SvgjsPath3542" d="M51.208 109.438c0-6.093 5.659-15.235 9.328-19.373 -2.775 5.59-9.544 23.984-12.005 36.941 -10.121-26.649-12.492-60.43 1.831-85.612 -7.582 20.698-12.034 42.867-4.909 64.212 -0.282-10.386-3.378-28.761 11.511-52.691C52.404 70.117 49.348 88.952 51.208 109.438zM132.976 143.647c7.391-16.72 11.956-30.775 10.782-43.793 -2.152-25.444-27.056-37.068-38.985-64.839 0.318-1.777 0.471-3.621 0.444-5.539 9.521 17.034 19.978 32.215 32.325 47.389 8.24 11.171 9.617 24.143 9.675 37.368 8.372-21.988 6.938-47.563-1.999-68.982 10.55 22.035 11.512 45.986 7.673 69.938 9.591-21.079 15.347-44.071 9.591-67.063 7.674 15.328 6.716 32.574 4.798 49.817 4.887-15.444 4.245-31.577 4.527-47.23 4.599 17.244 5.055 34.973 5.669 53.032 -1.95-5.682-2.966-10.747-3.828-15.828 -0.933 7.967-8.212 29.021-13.68 36.627 0.328-4.131 1.277-12.111 0.624-15.301 7.063-15.559 9.48-33.147 4.829-48.237 5.855 21.703-3.052 49.26-18.405 68.239C140.26 137.597 132.976 143.647 132.976 143.647zM31.064 89.32c-6.8-45.275 9.097-58.79 13.522-70.31 -29.467 43.476-22.078 83.66 4.453 113.845 -4.957-12.771-8.754-27.238-9.195-40.821 -2.356-23.177 2.663-43.048 16.813-60.129C36.466 39.67 32.89 69.26 31.064 89.32zM61.507 71.393c0.009-0.046 0.054-0.11 0.073-0.151 6.306-13.188 36.734-34.118 34.307-50.216C95.953 36.276 64.273 57.929 61.507 71.393zM144.898 70.541c-6.164-26.016-21.354-29.824-28.256-47.629C121.069 39.346 141.615 56.636 144.898 70.541zM156.993 57.518c-0.429-1-2.813-44.361-41.932-52.052C147.991 14.834 155.178 53.282 156.993 57.518zM54.609 48.921c2.004-8.177 19.884-29.726 44.862-36.666C66.938 18.025 56.496 41.245 54.609 48.921z" fill="#1b141c" stroke-width="none" opacity="1"></path><path id="SvgjsPath3543" d="M139.866 89.507c1.416 4.177 2.241 8.354 2.585 12.531 -1.793 5.488-4.423 10.873-7.097 16.119C138.077 106.88 139.948 98.58 139.866 89.507zM66.029 147.937c-6.774-9.178-12.443-20.299-14.15-31.596 -1.161 3.689-2.178 7.482-3.069 11.373 -0.164 1-7.26-16.94-9.166-35.68 0.441 13.583 3.739 27.053 8.696 39.825C53.527 137.663 59.466 143.026 66.029 147.937z" fill="#0c080c" stroke-width="none" opacity="1"></path><path id="SvgjsPath3544" d="M99.492 21.262c6.403 27.793-34.873 40.474-47.226 76.474C58.369 65.985 105.136 46.985 99.492 21.262zM61.565 55.39c7.799-16.374 20.656-28.475 35.459-38.564C80.005 25.778 68.787 37.707 61.565 55.39zM44.976 31.335C57.328 16.982 73.192 2.764 93.413 6.039 71.708-0.369 56.906 15.907 44.976 31.335zM144.42 40.044c-7.511-14.379-11.145-24.352-28.859-28.113C128.931 15.938 138.894 27.608 144.42 40.044zM160.831 41.313c-8.623-20.082-15.026-37.805-40.267-40.29C140.522 4.832 153.31 23.794 160.831 41.313zM148.999 87.979c-6.548-25.538-31.097-43.208-37.737-69.219C117.109 44.848 140.279 62.557 148.999 87.979z" fill="#3a353a" stroke-width="none" opacity="1"></path><path id="SvgjsPath3545" d="M68.099 150.319c-0.357-0.24-0.713-0.482-1.071-0.742 -7.286-5.061-13.82-10.709-19.416-16.789l-0.105-0.117c-18.576-20.25-26.419-44.969-22.688-71.48C28.485 32.793 56.267-4.408 85.672-4.408c5.168 0 10.234 1.339 15.061 3.98 3.049-1.681 6.354-2.657 9.824-2.902 0.989-0.11 2.008-0.165 3.02-0.165 22.907 0 46.485 20.957 55.21 39.577 10.676 25.664 8.609 53.598 9.244 69.465 -1.773 0.431-4.38-14.611-4.7-13.611 -2.573 15.701-7.636 27.015-15.258 37.785 0.342-5.056 0.642-11.302 0.69-16.279 -5.813 11.226-16.08 24.686-26.651 31.145 0.644-1.295 5.088-11.688 6.555-15.709 2.759-8.625 3.989-16.467 3.762-23.93 -1.189 3.328-7.057 16.209-8.058 15.842 1.29-5.103 5.015-18.297 4.849-32.574 -2.741-7.384-12.181-19.162-16.715-24.847 -6.644-8.33-13.507-16.938-17.777-27.128 -2.516 11.593-15.759 20.462-25.535 29.844l-1.06 1.019C62.619 79.735 58.88 95.656 52.723 114.343c1.617 10.686 6.855 22.955 14.758 34.453l0.317 0.453c0.187 0.271 0.373 0.535 0.563 0.799L68.099 150.319zM85.601-3.042c-27.724 0-51.227 30.485-57.536 57.25 -8.282 38.193 6.515 69.453 37.047 92.8 -5.138-7.166-11.279-17.813-13.293-29.828 -1.255 4.081-2.127 7.559-2.953 11.145 -0.874-1.174-11.19-25.575-9.863-52.053 1.522-30.324 18.792-47.229 19.792-46.254C34.57 56.681 38.052 98.385 48.472 126.302c8.589-43.809 21.73-53.742 30.996-62.736 9.346-9.079 22.174-17.653 24.512-29.297 0.84-3.792 0.87-8.88-0.459-14.422 1-0.263 2.621 8.516 1.45 15.145 4.28 9.938 11.15 18.077 17.798 25.946 11.641 13.784 20.032 24.737 21.18 38.901 1.676 18.497-6.649 34.395-10.519 43.248 9.021-7.685 19.341-20.076 25.357-33.021 12.789-27.033 6.814-49.114 6.814-49.114 4.394 14.256 2.641 31.864-4.81 48.315 0.605 3.115-0.233 10.563-0.574 14.588 4.892-7.168 12.303-27.878 13.241-35.958 0.15-0.004 3.665 14.189 3.777 14.535 -0.797-25.368-1.724-48.296-12.615-70.531 -7.655-16.931-31.764-34.917-52.126-34.917 -5.002 0-10.735 1.879-15.997 6.018l-0.243-0.296c1.055-0.911 2.188-1.744 3.368-2.48C95.049-1.944 90.333-3.042 85.601-3.042zM136.789 112.726c-0.259 1.234-0.548 2.518-0.87 3.895 2.262-4.479 4.684-9.54 6.353-14.64 -0.331-3.818-1.073-7.623-2.217-11.269C139.975 98.485 138.447 105.874 136.789 112.726z" fill="#000000" stroke-width="none" opacity="1"></path></g><g id="svga-group-glasses-single-move" transform="matrix(1,0,0,1,0,0)"><g id="svga-group-glasses-single" transform="matrix(1,0,0,1,0,0)"><path id="SvgjsPath3508" d="M144.81 91.54C142.14 98.8 135.17 104 127 104c-10.48 0-19-8.52-19-19 0-3.42 0.92-6.62 2.51-9.4C128.02 74.06 138.37 78.97 144.81 91.54zM56.51 75.6C54.92 78.38 54 81.58 54 85c0 10.48 8.52 19 19 19 8.17 0 15.14-5.2 17.81-12.46C84.37 78.97 74.02 74.06 56.51 75.6z" fill="#ffffff" stroke-width="none" opacity="0.2"></path><path id="SvgjsPath3509" d="M110.51 75.6c3.28-5.73 9.43-9.6 16.49-9.6 10.48 0 19 8.52 19 19 0 2.3-0.43 4.5-1.19 6.54C138.37 78.97 128.02 74.06 110.51 75.6zM90.81 91.54C91.57 89.5 92 87.3 92 85c0-10.48-8.52-19-19-19 -7.06 0-13.22 3.88-16.49 9.6C74.02 74.06 84.37 78.97 90.81 91.54z" fill="#ffffff" stroke-width="none" opacity="0.4"></path><path id="SvgjsPath3510" d="M156.69 79.96l-9.77 3.44C146.1 73.1 137.51 65 127 65c-9.41 0-17.28 6.51-19.41 15.26 -0.01 0-0.01-0.01-0.02-0.02 -1.69-1.69-4.97-2.51-7.57-2.51s-5.88 0.83-7.57 2.51c-0.01 0-0.01 0.01-0.02 0.02C90.28 71.5 82.41 65 73 65c-10.51 0-19.1 8.11-19.92 18.4l-9.77-3.44v2.88l9.76 3.43C53.73 96.72 62.39 105 73 105c11.05 0 20-8.95 20-20 0-0.31-0.03-0.62-0.05-0.93 0.01 0 0.02 0 0.03 0 0-2.39 3.6-4.68 7.02-4.68s7.02 2.3 7.02 4.68c0.01 0 0.02 0 0.03 0C107.03 84.38 107 84.69 107 85c0 11.05 8.95 20 20 20 10.61 0 19.27-8.27 19.94-18.72l9.76-3.43V79.96zM73 103.5c-10.22 0-18.5-8.28-18.5-18.5 0-10.22 8.28-18.5 18.5-18.5S91.5 74.78 91.5 85C91.5 95.22 83.22 103.5 73 103.5zM127 103.5c-10.22 0-18.5-8.28-18.5-18.5 0-10.22 8.28-18.5 18.5-18.5s18.5 8.28 18.5 18.5C145.5 95.22 137.22 103.5 127 103.5z" fill="#404012" stroke-width="none" opacity="1" stroke="none"></path></g></g></g></g></g><rect id="svga-credit-rect" width="200" height="15" x="0" y="185" fill="#ecf0f1" opacity="0.5" style="display: none;"></rect><text id="svga-credit-text" font-family="Avenir Next, Roboto, Helvetica, Arial, sans-serif" font-size="10px" text-anchor="start" font-weight="400" size="10px" anchor="start" weight="400" fill="#333333" x="33.311859130859375" y="182.7113401889801" style="display: none;"><tspan id="SvgjsTspan3126" dy="13" x="33.311859130859375">Created on AvatarMaker.com</tspan></text></g></svg>