<svg xmlns="http://www.w3.org/2000/svg" version="1.1" width="600px" height="600px" viewBox="0 0 200 200" style="overflow:hidden!important;"><defs id="SvgjsDefs52967"></defs><g id="svga-group-wrapper"><g id="svga-group-backs-single"><path id="SvgjsPath53819" d="M0 0h200v200H0V0z" fill="#22c3d1" stroke-width="none" opacity="1"></path><path id="SvgjsPath53820" d="M165.5 23.7c11.7 0 21.1 9.5 21.1 21.1S177.2 66 165.5 66s-21.1-9.5-21.1-21.1 9.4-21.2 21.1-21.2zm-77.3 86.5c11.7 0 21.1 9.5 21.1 21.1s-9.5 21.1-21.1 21.1-21.1-9.5-21.1-21.1 9.4-21.1 21.1-21.1zm-37.8 48.9c9.1 0 16.6 7.4 16.6 16.6s-7.4 16.6-16.6 16.6-16.6-7.4-16.6-16.6 7.5-16.6 16.6-16.6zm-.3-132.8c9.1 0 16.6 7.4 16.6 16.6s-7.4 16.6-16.6 16.6S33.5 52 33.5 42.8s7.4-16.5 16.6-16.5zm60.3-7.2c2.7 0 4.8 2.2 4.8 4.8s-2.2 4.8-4.8 4.8-4.8-2.2-4.8-4.8 2.1-4.8 4.8-4.8zm-91.5 97.1c2.7 0 4.8 2.2 4.8 4.8s-2.2 4.8-4.8 4.8-4.8-2.2-4.8-4.8 2.1-4.8 4.8-4.8zm120-5.7c4.8 0 8.8 3.9 8.8 8.8s-3.9 8.8-8.8 8.8-8.8-3.9-8.8-8.8 4-8.8 8.8-8.8z" fill="#0cb3c2" stroke-width="none" opacity="1"></path><path id="SvgjsPath53821" d="M101.8 45.4c14.2 0 25.8 11.5 25.8 25.8S116 97 101.8 97 76 85.4 76 71.2s11.5-25.8 25.8-25.8zm21.6 117.7c7.5 0 13.6 6.1 13.6 13.6s-6.1 13.6-13.6 13.6-13.6-6.1-13.6-13.6 6-13.6 13.6-13.6zm-88.6-35.9c7.2 0 13 5.8 13 12.9S42 153 34.8 153s-13-5.8-13-12.9 5.8-12.9 13-12.9zM55 88.8c2.1 0 3.8 1.7 3.8 3.8s-1.7 3.8-3.8 3.8-3.8-1.7-3.8-3.8 1.7-3.8 3.8-3.8zm44.9 78.4c2.1 0 3.8 1.7 3.8 3.8s-1.7 3.8-3.8 3.8-3.8-1.7-3.8-3.8 1.7-3.8 3.8-3.8zm79.9-82.1c2.1 0 3.8 1.7 3.8 3.8s-1.7 3.8-3.8 3.8-3.8-1.7-3.8-3.8 1.7-3.8 3.8-3.8zM66.7 16.5c2.1 0 3.8 1.7 3.8 3.8s-1.7 3.8-3.8 3.8-3.8-1.7-3.8-3.8 1.7-3.8 3.8-3.8zm-46.8-4.3c2.7 0 4.8 2.2 4.8 4.8s-2.2 4.8-4.8 4.8-4.8-2.2-4.8-4.8 2.1-4.8 4.8-4.8zM15.5 180c2.7 0 4.8 2.2 4.8 4.8s-2.2 4.8-4.8 4.8-4.8-2.2-4.8-4.8 2.2-4.8 4.8-4.8zM149.1 77.2c4.7 0 8.4 3.8 8.4 8.4s-3.8 8.4-8.4 8.4-8.4-3.8-8.4-8.4 3.7-8.4 8.4-8.4zM145.8 5c4.7 0 8.4 3.8 8.4 8.4s-3.8 8.4-8.4 8.4-8.4-3.8-8.4-8.4 3.7-8.4 8.4-8.4zM35.3 70.3c4.8 0 8.8 3.9 8.8 8.8s-3.9 8.8-8.8 8.8-8.8-3.9-8.8-8.8 4-8.8 8.8-8.8zm127.8 58.9c14 0 25.3 11.3 25.3 25.3s-11.3 25.3-25.3 25.3-25.3-11.3-25.3-25.3 11.4-25.3 25.3-25.3z" fill="#00a4b2" stroke-width="none" opacity="1"></path></g><g id="svga-group-humanwrap-move" transform="matrix(1,0,0,1,0,0)"><g id="svga-group-humanwrap" transform="matrix(0.8499995000000001,0,0,0.8499995000000001,14.992549517234792,18.487561624999984)"><g id="svga-group-hair-back-move" transform="matrix(1,0,0,1,0,0)"><g id="svga-group-hair-back" transform="matrix(1,0,0,1,0,0)"></g></g><g id="svga-group-humanbody-back"><path id="SvgjsPath53364" d="m170 180.3-27.3-6.9-18-9.9-1.5-28.2H76.8l-1.5 28.2-18 9.9-27.3 6.9-9.1 19.7-3 20h164.2l-3-20z" fill="#c49982" stroke-width="none" opacity="1" stroke="none"></path><path id="SvgjsPath53365" d="m76.8 135.3-1.5 28.2-18 9.9-27.3 6.9-9.1 19.7-3 20h14.6v-20l2.7-17.7 23.8-6.4 24.7-8.3 3.5-32.3z" fill="#a56c4d" stroke-width="none" opacity="1" stroke="none"></path></g><g id="svga-group-chinshadow-single"><path id="SvgjsPath53610" d="m121.5 149.1 2.2-3.8-.5-10H76.8l-.8 15.9 13.8 9.6h14.8z" fill="#965837" stroke-width="none" opacity="1" stroke="none"></path></g><g id="svga-group-humanbody-front"><path id="SvgjsPath53366" d="m92.8 168.3 2 7.9 6.9 4.6s-8.5-3-8.7-3.6c-.2-.6-.2-8.9-.2-8.9z" fill="#a56c4d" stroke-width="none" opacity="1" stroke="none"></path></g><g id="svga-group-clothes-single"><path id="SvgjsPath53503" d="m179.6 200-8.5-20-28.8-7.4-9.5-4.8-.1-1.5-8.3-8.8.2 3.5-1.1 12.2-7.6 7.9-9.1 1.9-2.1 5.7-2.1 2.9-7.5-9.3-10.7-1.2-5.8-7.3-3.2-13.1.2-3.2-8.3 8.8-.1 1.5-9.5 4.8L29 180l-8.6 20-3.4 20h165.9z" fill="#335529" stroke-width="none" opacity="1"></path><path id="SvgjsPath53504" d="m29.9 200.7 3.6-10.8 24.9-9.6 7.2-3.2.3-2 11.5-5.7h.1l-2.1-8.7.2-3.2-8.3 8.8-.1 1.5-9.5 4.8L29 180l-8.6 20-3.4 20h12.6z" fill="#24461b" stroke-width="none" opacity="1"></path><path id="SvgjsPath53505" d="m132.8 167.8 2.7 19.2 1.2 8.7L125 188l-5.2-5.3-4.2-1.6 4 3.4-6.4 2.6-7.9 1.5 7-.6-8.7 11.8V220h1.7l-.8-19.8 7.8-12 1-.1 7.1-2.8 4.2 4.5 13.3 8.1-1.6-12.4-3.5-17.7zm-33.1 29.7 2.9-5.9-3.5 5-6.1-8.7-12.5-3.4 3.8-3.3-4.2 1.6L75 188l-11.7 7.7 1.2-8.7 2.7-19.2-3.4 17.7-1.6 12.4 13.3-8.1 4.6-4.9.5-.5 11.8 4.3 6.1 8.6-1.2.7 1.1 21.9h1.5l-1.3-21 1.1-1.4zm10.5-12.8-1.5-.8-.9 1.4 1.4 1 1-1.6zm-9.3 13.3 1.4 1 1-1.7-1.5-.8-.9 1.5zm-.8 18.6 1.4 1 1-1.7-1.5-.8-.9 1.5zm-69.7-35.3 6.8 21 1.2 17.7h1.4l-1.1-17.8-8.3-20.9zm130.5 19.3-1.2 19.4h1.9l1-19.2 7-18.2-8.7 18z" fill="#18360f" stroke-width="none" opacity="1"></path><path id="SvgjsPath53506" d="m127 162.5-1.1-1.4v13l-5.3 8 4.8 4.6s2.3-11.1 2.3-11.8c0-.7-.7-12.4-.7-12.4zm-53.2.1.5-2.3-1.8 2.5 1.2 13.4 2.1 9.5 3.8-4.3-3.9-6.1-1.9-12.7z" fill="#44643a" stroke-width="none" opacity="1"></path></g><g id="svga-group-head" transform="matrix(1,0,0,1,0,0)"><g id="svga-group-ears-left-move" transform="matrix(1,0,0,1,0,0)"><g id="svga-group-ears-left" transform="matrix(1,0,0,1,0,0)"><path id="SvgjsPath53518" d="m66.3 102.2-3-7.2-9.2-8-3.6 12.9 4.7 12.7-.4 5.6 5 2.4 6-11.1z" fill="#c49982" stroke-width="none" opacity="1" stroke="none"></path><path id="SvgjsPath53519" d="m52.5 100 1.9-8.4 3.7 10.6-.8 1 .4 5.9s-3.3-2.1-3.3-2.7.3-6.2.3-6.2l.9-.3-.9-4.5-1.6 6.1.4 3-1-4.5z" fill="#a56c4d" stroke-width="none" opacity="1" stroke="none"></path><path id="SvgjsPath53520" d="m60.4 111.8-.7-12L54.1 87l9.2 8 3 7.2-.5 7.3-6 11.1-5-2.4 4.8.3z" fill="#b58166" stroke-width="none" opacity="1" stroke="none"></path></g></g><g id="svga-group-ears-right-move" transform="matrix(1,0,0,1,0,0)"><g id="svga-group-ears-right" transform="matrix(1,0,0,1,0,0)"><path id="SvgjsPath53521" d="m133.7 102.2 3-7.2 9.2-8 3.6 12.9-4.7 12.7.4 5.6-5 2.4-6-11.1z" fill="#c49982" stroke-width="none" opacity="1" stroke="none"></path><path id="SvgjsPath53522" d="m147.5 100-1.9-8.4-3.7 10.6.8 1-.4 5.9s3.3-2.1 3.3-2.7-.3-6.2-.3-6.2l-.9-.3.9-4.5 1.6 6.1-.4 3 1-4.5z" fill="#a56c4d" stroke-width="none" opacity="1" stroke="none"></path><path id="SvgjsPath53523" d="m139.6 111.8.7-12 5.6-12.8-9.2 8-3 7.2.5 7.3 6 11.1 5-2.4-4.8.3z" fill="#b58166" stroke-width="none" opacity="1" stroke="none"></path></g></g><g id="svga-group-faceshape-wrap" transform="matrix(1,0,0,1,0,0)"><g id="svga-group-faceshape-single"><path id="SvgjsPath53600" d="M138.1 60c-6.9-11.6-19.7-19.5-19.7-19.5-7.2-1.5-18.4-2.3-18.4-2.3s-11.1.8-18.4 2.3c0 0-12.8 7.9-19.7 19.5 0 0-5.1 14.5-5.3 24.8l4.9 33.9 14.2 24.8 16.9 11.7h14.9l16.9-11.7 14.2-24.8 4.9-33.9c-.3-10.3-5.4-24.8-5.4-24.8z" fill="#c49982" stroke-width="none" opacity="1" stroke="none"></path><path id="SvgjsPath53601" d="m92.7 152.7-14.6-12.3s-11.4-20.9-11.8-21.7c-.4-.9-5-34.3-5-34.3.2-4.8 4.5-21.5 5-22.2 2.1-3.2 16.5-18 16.5-18l17.1-4.1 18.5.4c-7.2-1.5-18.4-2.3-18.4-2.3s-11.1.8-18.4 2.3c0 0-12.8 7.9-19.7 19.5 0 0-5.1 14.5-5.3 24.8l4.9 33.9 14.2 24.8 16.9 11.7h14.9l16.9-11.7-18 10.4-13.7-1.2z" fill="#a56c4d" stroke-width="none" opacity="1" stroke="none"></path></g></g><g id="svga-group-mouth-single-move" transform="matrix(1,0,0,1,0,0)"><g id="svga-group-mouth-single" transform="matrix(1,0,0,1,0,0)"><path id="SvgjsPath53794" d="m84.99 125.5 2.75 3.94 12.37-.68 12.45.84 3.02-3.87-3.73 2.46-6.81-2.5-4.93 1.46-4.57-1.35-7.7 1.93z" fill="#f18f77" stroke-width="none" opacity="1" transform="translate(0 2)" stroke="none"></path><path id="SvgjsPath53795" d="m89.12 131.92 1.15 2.64 10.05 2.86 10.83-3.61-10.89 2.15-9.41-2.31-1.73-1.73z" fill="#a56c4d" stroke-width="none" opacity="1" transform="translate(0 2)" stroke="none"></path></g></g><g id="svga-group-eyes-left-move" transform="matrix(1,0,0,1,0,0)"><g id="svga-group-eyes-left" transform="matrix(1,0,0,1,0,0)"><g id="svga-group-eyesback-left"><path id="SvgjsPath53554" d="m90.8 98.4-5.4-7.8-4.8.6L69.9 97s8.1 5.1 10.3 6.1l8.1-2.9 2.5-1.8z" fill="#ffffff" stroke-width="none" opacity="1"></path></g><g id="svga-group-eyesiriswrapper-left" transform="matrix(1,0,0,1,0,0)"><g id="svga-group-eyesiriscontrol-left" transform="matrix(1,0,0,1,0,0)"><g id="svga-group-eyesiris-left" transform="matrix(1,0,0,1,0,0)"><path id="SvgjsPath53614" d="m75.9 95.33 1.82-4.94 5.19-.89 3.36 4.05-1.82 4.93-5.18.9z" fill="#000000" stroke-width="none" opacity="1"></path><path id="SvgjsPath53615" d="m82.7 90.07 2.98 3.58-1.61 4.37-4.59.79-2.98-3.58 1.61-4.37 4.59-.79m.42-1.13-5.78.99-2.03 5.5 3.75 4.51 5.78-.99 2.03-5.5-3.75-4.51z" fill="#fdd70e" stroke-width="none" opacity="1"></path><path id="SvgjsPath53616" d="m82.91 89.5-5.19.89-1.82 4.94 5.19-.87z" fill="#1e1e1e" stroke-width="none" opacity="1"></path><path id="SvgjsPath53617" d="m76.49 95.23 1.62-4.37 4.59-.79.42-1.13-5.78.99-2.03 5.5 1.19-.2z" fill="#ffe55b" stroke-width="none" opacity="1"></path><path id="SvgjsPath53618" d="m78.36 93.1.51-1.34 1.41-.24-.42 1.44z" fill="#2b2b2b" stroke-width="none" opacity="1"></path></g></g></g><g id="svga-group-eyesfront-left"><path id="SvgjsPath53562" d="M67.1 89.3v11.9l7.9 8.4h11.2l7.9-8.4V89.3l-7.9-8.4H75l-7.9 8.4zm2.8 7.7 10.7-5.8 4.8-.6 5.4 7.8-2.4 1.8-8.1 2.9c-2.3-1-10.4-6.1-10.4-6.1z" fill="#c49982" stroke-width="none" opacity="1" stroke="none"></path><path id="SvgjsPath53563" d="m92.8 98.7-7.9 7.6L91 99l-2 .8 1.5-1.4-5.3-7.3h-4.5L70.5 97l-2.8 1.2 2.2-3.8 5.3-5.3 7.5-2.4 5.3 5.6z" fill="#b58166" stroke-width="none" opacity="1" stroke="none"></path><path id="SvgjsPath53564" d="m85.2 90.2-4.7.5-9.3 4.6-3.7 3.3 13.3-7.1 4.6.4 5.1 6.5 1.1.6z" fill="#191c29" stroke-width="none" opacity="1" stroke="none"></path></g></g></g><g id="svga-group-eyes-right-move" transform="matrix(1,0,0,1,0,0)"><g id="svga-group-eyes-right" transform="matrix(1,0,0,1,0,0)"><g id="svga-group-eyesback-right"><path id="SvgjsPath53555" d="m109.2 98.4 5.4-7.8 4.8.6 10.7 5.8s-8.1 5.1-10.3 6.1l-8.1-2.9-2.5-1.8z" fill="#ffffff" stroke-width="none" opacity="1"></path></g><g id="svga-group-eyesiriswrapper-right" transform="matrix(1,0,0,1,0,0)"><g id="svga-group-eyesiriscontrol-right" transform="matrix(1,0,0,1,0,0)"><g id="svga-group-eyesiris-right" transform="matrix(1,0,0,1,0,0)"><path id="SvgjsPath53619" d="m113.73 95.33 1.82-4.94 5.18-.89 3.37 4.05-1.82 4.93-5.19.9z" fill="#000000" stroke-width="none" opacity="1"></path><path id="SvgjsPath53620" d="m120.53 90.07 2.98 3.58-1.61 4.37-4.59.79-2.98-3.58 1.61-4.37 4.59-.79m.41-1.13-5.78.99-2.03 5.5 3.75 4.51 5.78-.99 2.03-5.5-3.75-4.51z" fill="#fdd70e" stroke-width="none" opacity="1"></path><path id="SvgjsPath53621" d="m120.73 89.5-5.18.89-1.82 4.94 5.18-.87z" fill="#1e1e1e" stroke-width="none" opacity="1"></path><path id="SvgjsPath53622" d="m114.32 95.23 1.61-4.37 4.6-.79.41-1.13-5.78.99-2.03 5.5 1.19-.2z" fill="#ffe55b" stroke-width="none" opacity="1"></path><path id="SvgjsPath53623" d="m116.18 93.1.51-1.34 1.42-.24-.42 1.44z" fill="#2b2b2b" stroke-width="none" opacity="1"></path></g></g></g><g id="svga-group-eyesfront-right"><path id="SvgjsPath53565" d="M125 80.8h-11.2l-7.9 8.4v11.9l7.9 8.4H125l7.9-8.4V89.3l-7.9-8.5zm-5.2 22.3-8.1-2.9-2.4-1.8 5.4-7.8 4.8.6 10.7 5.8c-.1 0-8.2 5.1-10.4 6.1z" fill="#c49982" stroke-width="none" opacity="1" stroke="none"></path><path id="SvgjsPath53568" d="m107.2 98.7 7.9 7.6L109 99l2 .8-1.5-1.4 5.3-7.3h4.5l10.2 5.9 2.8 1.2-2.2-3.8-5.3-5.3-7.5-2.4-5.3 5.6z" fill="#b58166" stroke-width="none" opacity="1" stroke="none"></path><path id="SvgjsPath53569" d="m114.8 90.2 4.7.5 9.3 4.6 3.7 3.3-13.3-7.1-4.6.4-5.1 6.5-1.1.6z" fill="#191c29" stroke-width="none" opacity="1" stroke="none"></path></g></g></g><g id="svga-group-facehighlight-single"></g><g id="svga-group-eyebrows-left-move" transform="matrix(1,0,0,1,0,0)"><g id="svga-group-eyebrows-left-rotate" transform="matrix(1,0,0,1,0,0)"><g id="svga-group-eyebrows-left" transform="matrix(1,0,0,1,0,0)"><path id="SvgjsPath53481" d="m92.6 78-1.7 6.7-2.1 1.3-23.2-1.6-.2-5.9 9.8-1.7 14.7-.2z" fill="#2a232b" stroke-width="none" opacity="1"></path><path id="SvgjsPath53482" d="M88.8 86h-.5c1-1.5 2.5-3.8 3.8-5.8l-.4 1.6-1.8 3.6-1.1.6zM84 76.7h.9c.1 2.9.3 6.9.4 9.1l-1.7-.1.4-9zm3.7 9.2-1.6-.1c.9-2.3 2.4-6.7 3.3-9.2h.5l.5.3-2.7 9zm-10.4-9.1 2.2 8.6-1-.1-1.3-8.5h.1zm-1.6 8.3-1.2-.1-3.7-7.5h.2l4.7 7.6zm-10.2-2.7v-.5l4.2 2.8-2-.1-2.2-2.2zm4.9 2.3-5-6v-.2l6.5 6.4-1.5-.2zm10.5.7-1.2-.1-.2-8.7h.3l1.1 8.8z" fill="#1b141c" stroke-width="none" opacity="1"></path></g></g></g><g id="svga-group-eyebrows-right-move" transform="matrix(1,0,0,1,0,0)"><g id="svga-group-eyebrows-right-rotate" transform="matrix(1,0,0,1,0,0)"><g id="svga-group-eyebrows-right" transform="matrix(1,0,0,1,0,0)"><path id="SvgjsPath53483" d="m107.4 78 1.7 6.7 2.1 1.3 23.2-1.6.2-5.9-9.8-1.7-14.7-.2z" fill="#2a232b" stroke-width="none" opacity="1"></path><path id="SvgjsPath53484" d="M111.2 86h.5c-1-1.5-2.5-3.8-3.8-5.8l.4 1.6 1.8 3.6 1.1.6zm4.8-9.3h-.9c-.1 2.9-.3 6.9-.4 9.1l1.7-.1-.4-9zm-3.7 9.2 1.6-.1c-.9-2.3-2.4-6.7-3.3-9.2h-.5l-.5.3 2.7 9zm10.4-9.1-2.2 8.6 1-.1 1.3-8.5h-.1zm1.6 8.3 1.2-.1 3.7-7.5h-.2l-4.7 7.6zm10.2-2.7v-.5l-4.2 2.8 2-.1 2.2-2.2zm-4.9 2.3 5-6v-.2l-6.5 6.4 1.5-.2zm-10.5.7 1.2-.1.2-8.7h-.3l-1.1 8.8z" fill="#1b141c" stroke-width="none" opacity="1"></path></g></g></g><g id="svga-group-beardwrap" transform="matrix(1,0,0,1,0,0)"><g id="svga-group-beard-single-move" transform="matrix(1,0,0,1,0,0)"><g id="svga-group-beard-single" transform="matrix(1,0,0,1,0,0)"></g></g></g><g id="svga-group-mustache-single-move" transform="matrix(1,0,0,1,0,0)"><g id="svga-group-mustache-single" transform="matrix(1,0,0,1,0,0)"></g></g><g id="svga-group-nose-single-move" transform="matrix(1,0,0,1,0,0)"><g id="svga-group-nose-single" transform="matrix(1,0,0,1,0,0)"><path id="SvgjsPath53722" d="m96.12 99.91-.45 6.4-5.78 8.87 2.98 2.25 1.63-2.02 4.32 3.82h2.41l4.27-3.82 1.57 1.96 3.15-2.19-5.79-8.92-.56-6.46-3.82-1.63z" fill="#c49982" stroke-width="none" opacity="1" transform="translate(0 1)" stroke="none"></path><path id="SvgjsPath53723" d="m104.86 106.44-1.95-15.67 1.1 14.55-.86-.22 6.58 10.06-2.34 1.73-1.28-1.51.28-1.34-5.15 4.47h-2.4l-5.15-4.47.29 1.34-1.29 1.51-2.34-1.73 6.59-10.06-.86.22 1.33-22.81-2.19 23.93-5.82 8.83 3.81 2.79 1.44-2.01 4.19 3.91h2.4l4.2-3.91 1.43 2.01 3.81-2.79z" fill="#a56c4d" stroke-width="none" opacity="1" transform="translate(0 1)" stroke="none"></path><path id="SvgjsPath53724" d="m96.15 113.17 2.37 1.46 3.1.06 2.55-1.16-.3-1.76-3.59-.6-3.94.66z" fill="#cca691" stroke-width="none" opacity="1" transform="translate(0 1)" stroke="none"></path></g></g><g id="svga-group-hair-front" transform="matrix(1,0,0,1,0,0)"><path id="SvgjsPath53764" d="m125.9 59.8-10.7 11.3-13.6 6 11.3-9.2-14.2 9s-9 2.9-8.4 2.7c.6-.2 17.5-13.2 17.5-13.2l-17.7 9.9-9 2.5 8.2-6.8 13.1-13.2-11.7 9-8.2 7.8 3.1-6.4 6-5.8-8.8 5.8-8.8 9.3-5.1 11.3 1.6-10.1L77.3 69l-9.2 11.5L66.9 92l-.4 11.3-4.5-14s.4 12.3.8 13.2c.4 1 3.1 13.8 3.1 13.8l-5.5-11.9 1.4 10.1-6.2-14.6-1.2-10.7-2.2 3.4s-1.8-19.9-1.6-20.5c.2-.6 5.6-16 5.6-16l-2.9.6 6.7-8.4L72.4 38l-5.8 1 12.1-5.7 20.4-3.5 10.7 1.6-10.3-4.9 15.2 4.3 9.7 6.5 4.2 6.1 4.8 1.1 10.9 6 6.9 12.5-4.5-3.2 4 9.7.5 18.8-2.4-5.4.4 5.2.9 6.8-3.9-5.1-2.5 5.5-3.1 10.7.4-15-1-13.1-7.4-8.8 1.9 4.9-7.8-9.2-.8-5z" fill="#2a232b" stroke-width="none" opacity="1" stroke="none"></path><path id="SvgjsPath53765" d="m126.2 52.6-10.6 11.8-9.2 4.9 8.3-8.6-15.3 8-6.3 2 7.7-5.1 12.6-13.2s-15.9 6.1-16.9 6.5c-1 .4-14.7 9.2-14.7 9.2l11.4-10.6-18.7 10.3-8.3 10.8-1.6 7.5-.8-9.4 8.8-12L88.8 54l-15.9 4.3-9.4 8.2 9-13.2 18.1-6.7-11.8-1.2-5.7 1.2 6.7-3.1 19.6-.6-6.5-5.1-9.6.2 12.6-2.4 9.8 2.2-3.3-4.1 11 3.7 7.7 5.9-3.7-6.1-3.7-3.3 7.7 3.1 6.5 9-1.7 6.6zm3.7-5.9-1.2 7.5 2.9 8 11 13.4 1 11.6 1.8-12 3.9 4.5-2.4-8.8-7.3-11 8.2 6.1-7.7-11.2 4.5 1.6-3.7-5.5-11-4.2z" fill="#322c33" stroke-width="none" opacity="1" stroke="none"></path><path id="SvgjsPath53766" d="m124.2 50.4-8.7 7.9-9.4 4.8 9.4-7.4 8.7-5.3zm-4.2-3.7-12.7-1.5-20.7 5.5s20.3-3.7 21.2-3.7 12.2-.3 12.2-.3zM58.7 95.8l-.2-19 4.1-9.2-6.1 8.7 2.2 19.5z" fill="#3a353a" stroke-width="none" opacity="1" stroke="none"></path></g><g id="svga-group-glasses-single-move" transform="matrix(1,0,0,1,0,0)"><g id="svga-group-glasses-single" transform="matrix(1,0,0,1,0,0)"></g></g></g></g></g><rect id="svga-credit-rect" width="200" height="15" x="0" y="185" fill="#ecf0f1" opacity="0.5" style="display: none;"></rect><text id="svga-credit-text" font-family="Avenir Next, Roboto, Helvetica, Arial, sans-serif" font-size="10px" text-anchor="start" font-weight="400" size="10px" anchor="start" weight="400" fill="#333333" x="33.40447998046875" y="182.60824704170227" style="display: none;"><tspan id="SvgjsTspan53020" dy="13" x="33.40447998046875">Created on AvatarMaker.com</tspan></text></g></svg>