<svg xmlns="http://www.w3.org/2000/svg" version="1.1" width="600px" height="600px" viewBox="0 0 200 200" style="overflow:hidden!important;"><g id="svga-group-wrapper"><g id="svga-group-backs-single"><path id="SvgjsPath18559" d="M0 0h200v200H0V0z" fill="#14305c" stroke-width="none" opacity="1"></path><path id="SvgjsPath18560" d="M0 70.8 39.2 200l39.2-86.3L0 9.9v60.9zM200 0h-47.6l23 37.5L200 0zm-28.9 104.9 16.5-40.7-70.5-26.8 54 67.5zM51.3 200h101.1v-33.1l-73.9 19.5L51.3 200zm27.2-86.3 73.9 53.2L78.5 0v113.7z" fill="#09234d" stroke-width="none" opacity="1"></path><path id="SvgjsPath18561" d="m134.4 0 2 130.8L176.2 0h-41.8zm18 166.9 47.6-14.5v-21.5L171.1 105l-18.7 61.9zm22.9-129.4 12.3 26.8 12.4 6.9V0l-24.7 37.5zm-58.2 0L96.7 26.6 117.1 0 81 18.3 46.7 0h-28l56.2 21.4L0 59.3v93.1L94.8 29l22.3 8.5zM0 200h94.2l42.2-69.2L0 189.1V200z" fill="#01193d" stroke-width="none" opacity="1"></path><path id="SvgjsPath18562" d="M104.4 70.8 91.1 13.5 166.2 0 90 8.6 88 0H68.2l3.5 10.6L0 18.7v11.1l73.7-13.2 19.5 59-65.3 28L0 70.8v5.4l24 29.2-24 10.2 24.5-9.6 57.4 69.8L51.3 200h27.2l11.1-14.9 12.3 14.9h7.9l-16.7-19.6 24.1-32.4 17.2 52.1-29.2-125.6 94.8-37v-7.6l-95.6 40.9zm12.7 77.1-30.9 24.4-57.7-67.9 65.7-25.7 22.9 69.2zm70.5 52.1H200l-47.6-95.1 35.2 95.1z" fill="#ffffff" stroke-width="none" opacity="1"></path></g><g id="svga-group-humanwrap-move" transform="matrix(1,0,0,1,0,0)"><g id="svga-group-humanwrap"><g id="svga-group-hair-back-move" transform="matrix(1,0,0,1,0,0)"><g id="svga-group-hair-back"><path id="SvgjsPath18531" d="m59.7 117.9 3.1 18.6-3.1 20-5.2 16.3-.2 7.8 4.1 2.5h79.2l6.2-3.7v-10.8l-5.1-17.7-.8-18.8 1.8-16.5-68.3 2.3z" fill="#4c342a" stroke-width="none" opacity="1"></path></g></g><g id="svga-group-humanbody-back"><path id="SvgjsPath18356" d="m168.2 200-4.6-14.2-34.9-13.4-10.8-9.7-1.4-50.5h-33l-1.4 50.5-10.8 9.7-34.9 13.4-4.6 14.2-3 20h142.4z" fill="#fbd5c0" stroke-width="none" opacity="1"></path><path id="SvgjsPath18357" d="m83.5 112.2-1.4 50.5-10.8 9.7-34.9 13.4-4.6 14.2-3 20H39v-20l1.7-13.3 32.1-12.9 14.1-9.5 2-52.1z" fill="#dc9f7d" stroke-width="none" opacity="1"></path></g><g id="svga-group-chinshadow-single"><path id="SvgjsPath18352" d="m117.5 151.4-1.1-39.3H83.5l-1.2 44.3c3.4 1.7 11 5.4 14.9 5.4 5.2 0 16.6-6.3 16.6-6.3 1.3-1.2 2.5-2.6 3.7-4.1z" fill="#cd865f" stroke-width="none" opacity="1"></path></g><g id="svga-group-humanbody-front"></g><g id="svga-group-clothes-single"><path id="SvgjsPath18506" d="m173.6 220-2.4-20-3.3-12.7-3.4-1.5-1.6-2.1-16.4-5.8-.9-2.1-4.8-3.6-2.9-9.9-4.9-5-6.7-4.4-8.7-1 .3 10.8-1 9.6-12 10.4-3.2 4-6.6-4-12-10.4-1-9.6.3-10.8-8.7 1-6.7 4.4-4.9 5-2.9 9.9-4.8 3.6-.9 2.1-16.5 5.8-1.5 2.1-3.4 1.5-3.3 12.7-2.4 20z" fill="#1d282e" stroke-width="none" opacity="1"></path><path id="SvgjsPath18507" d="M129.1 168.4c.6-.4.6-6.2.6-6.2l-1.7-7.1s.8 10.4.8 11-13.5 12.3-13.5 12.3l-10 8.3 9.6-5.4s13.7-12.5 14.2-12.9zm13.7 13.3-7.5 3.5-18.1 4.8-7.4 2.8-1.6-1.6.5-2.4-2.3.2s-.3.7-.5 1.3h-.1l-.1-.8-4.2-2.9 3.3 4.1-1.5.6v-.3l-2.4-.4-.7 2.4h.1l-6 5-3.3 9.3 4.7 3.2 3.6-4.9.4-7.2 2.5-4.9-3.8 5-.3 6.5-2.8 3.5-2.6-2.1 2.8-8.5 4.9-4.9 2.1.4-.2 11.1 2.9 11.8 2.3-1.3-4.2-10.9-.4-10.6.1-1.1 1.3-.4.8 2.5-1.6.6 1.7-.4 1.8 5.6 2.1 17.9 3.3-.4-3.9-13.2-.9-5.2-1.8-4.8h.1l.1.4-.1-.4 1.4-.3.8 1.4 1.9 14.1 3.6 1.2 2.1-4.3-3.2-10.7-2.6-2.5 6.6-1.6 17.9-4.4 9.1-4.2 2.5-5.2-.9-2.1-2.3 5.7zm-36 9.5c.6.2 1.3.5 1.3.5l.1-.3 1.3 1.5-1.8.7-1.4-2.2.5-.2zm-.7 3-.9-2.4.2-.1.7 2.5zm.2-.1-.3-2.6.2-.1 1.3 2.3-1.2.4zm5.8 1.8 3.2 10.5-1.8 3.3-2.4-1.1-2-12.8-1.2-1.9 2-.5 2.2 2.5zm18-15.3 10.7-8.3-1.9-5.4s-9.1 11-9.2 11.6c-.2.6-11.9 4.2-11.9 4.2l-9.1 6.2 9.2-4.6 12.2-3.7zm34 7.1-5.8 13.5-1.9 18.5 3.3-18.1 6.2-13.5-1.8-.4zM88 192l-15.9-4.2-10-12.7 1.5-8.2 2.7 5.2 12.5 11.5 14.2 2.2s-11-3.2-11.7-3.2-12-11.2-12-11.2l.2-12 10.5-5.7 1.7-1.7-8 .9-6.7 4.5-5 5-2.9 9.9-4.8 3.6-.9 2.1-16.4 5.7-1.5 2.1-3.4 1.5-3.3 12.7-2.4 20h8.3l1.8-26 2.6-1.2 4.5 6.4s5 20.1 5.2 19.5-4.2-20.1-4.2-20.1l-4.5-6.6 1.4-1.8L57 186l10 4.5 13.9 3 14.9.8L88 192zm-10.7-34.6-1 7.5 6.8 7.4-1-9.6.2-8.9-5 3.6zm44.4 8.7 1.7-9-4.7-4-.5-1.2-.6-.1.3 10.8-1 9.6 4.8-6.1z" fill="#101a1f" stroke-width="none" opacity="1"></path><path id="SvgjsPath18508" d="m146.9 179 15.7 5.4.6 2.7-4.4 10.8 1.6-11.9-14.9-5.4 1.4-1.6zm18 13.2 2.4-3.8 2.4 11.9 1.4 18.5-3.6-18.5-2.6-8.1zM122.4 154l2.8 4-2.4 10-4.8 4.9-13.3 11.9 15-11.4 7.9-7.8-.6-8.6-4.6-3zm-47 4.5-.6 7.9 7.8 9 12.3 8.6 6.5 3.5-8.4-2.7-13-7.6-8.4-10.2 1.9-7.3 1.9-1.2z" fill="#2d373d" stroke-width="none" opacity="1"></path></g><g id="svga-group-head" transform="matrix(1,0,0,1,0,0)"><g id="svga-group-ears-left-move" transform="matrix(1,0,0,1,0,0)"><g id="svga-group-ears-left"><path id="SvgjsPath18304" d="M65.4 96.3s-7.6-6.9-9.2-8c0 0-3.7 1-6.6 2l2.7 9.3 2.9 8.6 1.4 11.5 4.2-.3 5.9-10-1.3-13.1z" fill="#fbd5c0" stroke-width="none" opacity="1"></path><path id="SvgjsPath18305" d="M51.4 91.2 56 93l4.4 9.4-.5 8.9-3.4-5.6-.2-4.9s1.2-1.1 1.1-1.5-1.9-5.2-1.9-5.2l-3.7-2s1.3 5.7 1.1 5.4c-.1-.3-2.2-6.2-2.2-6.2l.7-.1z" fill="#dc9f7d" stroke-width="none" opacity="1"></path><path id="SvgjsPath18306" d="M53.67 89.04c1.5-.4 2.53-.74 2.53-.74 1.6 1.1 9.2 8 9.2 8l1.3 13.1-5.9 10-4.2.3 4.3-2.9 2.3-15.7-5.9-10.3-3.63-1.76z" fill="#ecb99d" stroke-width="none" opacity="1"></path></g></g><g id="svga-group-ears-right-move" transform="matrix(1,0,0,1,0,0)"><g id="svga-group-ears-right"><path id="SvgjsPath18307" d="M134.6 96.3s7.6-6.9 9.2-8c0 0 3.7 1 6.6 2l-2.7 9.3-2.9 8.6-1.4 11.5-4.2-.3-5.9-10 1.3-13.1z" fill="#fbd5c0" stroke-width="none" opacity="1"></path><path id="SvgjsPath18308" d="M148.6 91.2 144 93l-4.4 9.4.5 8.9 3.4-5.6.2-4.9s-1.2-1.1-1.1-1.5c.1-.3 1.9-5.2 1.9-5.2l3.7-2s-1.3 5.7-1.1 5.4c.1-.3 2.2-6.2 2.2-6.2l-.7-.1z" fill="#dc9f7d" stroke-width="none" opacity="1"></path><path id="SvgjsPath18309" d="M146.33 89.03c-1.5-.4-2.53-.73-2.53-.73-1.6 1.1-9.2 8-9.2 8l-1.3 13.1 5.9 10 4.2.3-4.3-2.9-2.3-15.7 5.9-10.3 3.63-1.77z" fill="#ecb99d" stroke-width="none" opacity="1"></path></g></g><g id="svga-group-faceshape-wrap"><g id="svga-group-faceshape-single"><path id="SvgjsPath18338" d="M136.8 61c-6.7-11.2-19-18.9-19-18.9-7-1.5-17.8-2.2-17.8-2.2s-10.8.8-17.8 2.2c0 0-12.4 7.6-19 18.9 0 0-5 14-5.2 23.9 0 0 2.6 23.7 5.8 34 0 0 9.9 19.8 19.6 29.7 0 0 11.5 6.3 16.6 6.3s16.6-6.3 16.6-6.3c9.7-9.9 19.6-29.7 19.6-29.7 3.1-10.3 5.8-34 5.8-34-.3-9.8-5.2-23.9-5.2-23.9z" fill="#fbd5c0" stroke-width="none" opacity="1"></path><path id="SvgjsPath18339" d="m85.8 45.6 28.8-.8L136.8 61c-6.7-11.2-19-18.9-19-18.9-7-1.5-17.8-2.2-17.8-2.2s-10.8.8-17.8 2.2c0 0-12.4 7.6-19 18.9 0 0-5 14-5.2 23.9 0 0 2.6 23.7 5.8 34 0 0 9.9 19.8 19.6 29.7 0 0 11.5 6.3 16.6 6.3-4.1-.5-15.3-8.6-15.3-8.6-3.3-4.7-15.2-28-15.2-28-2.5-6.4-6.6-34.9-6.6-34.9.3-3.3 4.4-20.5 4.4-21.3s18.5-16.5 18.5-16.5z" fill="#dc9f7d" stroke-width="none" opacity="1"></path></g></g><g id="svga-group-mouth-single-move" transform="matrix(1,0,0,1,0,0)"><g id="svga-group-mouth-single"><path id="SvgjsPath18282" d="m88.39 131.06 1.41-.6 4.5-4.05 11.49-.19 5.1 5.01 1.71.55-6.12 1.93-5.8-1.49-7.02 1.54z" fill="#f74419" stroke-width="none" opacity="1" transform="translate(0 3)"></path><path id="SvgjsPath18283" d="m88.36 130.89 1.33 1.43 3.44 5.3s7.08 2.26 7.19 2.22c.12-.04 7.94-2.48 7.94-2.48l3.32-4.63 1.56-1.24-2.97.83-3.87 1.24-6.02-1.5-6.62 1.59-5.3-2.76z" fill="#ff5027" stroke-width="none" opacity="1" transform="translate(0 3)"></path><path id="SvgjsPath18284" d="m87.77 129.68-.41 1 6.28 3.28 6.44-1.25 6.34 1.25 8.32-2.52-.7-1.23-7.66 2.93-6.24-1.29-6.31 1.33z" fill="#f0380d" stroke-width="none" opacity="1" transform="translate(0 3)"></path><path id="SvgjsPath18285" d="m110.19 133.78-2.04 3.06-7.27 2.28 6.85-2.7z" fill="#ff795a" stroke-width="none" opacity="1" transform="translate(0 3)"></path><path id="SvgjsPath18286" d="m90.37 130.48 4.26-3.61 6.85-.24-6.43.9z" fill="#ff5a34" stroke-width="none" opacity="1" transform="translate(0 3)"></path><path id="SvgjsPath18287" d="m94.01 132.77 5.87-1.53 6.46 1.53 1.38-.44-1.46.15-6.38-1.82z" fill="#ff5a34" stroke-width="none" opacity="1" transform="translate(0 3)"></path></g></g><g id="svga-group-eyes-left-move" transform="matrix(1,0,0,1,0,0)"><g id="svga-group-eyes-left"><g id="svga-group-eyesback-left"><path id="SvgjsPath18408" d="M90.9 101.4 86 95.8l-8.2.5s-3.7 4.1-6 7.5c0 0 5 2.8 6.3 3.5h5.2l7.6-5.9z" fill="#ffffff" stroke-width="none" opacity="1"></path></g><g id="svga-group-eyesiriswrapper-left" transform="matrix(1,0,0,1,0,0)"><g id="svga-group-eyesiriscontrol-left" transform="matrix(1,0,0,1,0,0)"><g id="svga-group-eyesiris-left"><path id="SvgjsPath18372" d="m82.59 104.53-4.96-1.82-.91-5.21 4.06-3.39 4.96 1.82.91 5.21z" fill="#3e4442" stroke-width="none" opacity="1"></path><path id="SvgjsPath18373" d="m78.19 100.47.77-3.59 3.49-1.14 2.73 2.46-.77 3.59-3.49 1.13z" fill="#000000" stroke-width="none" opacity="1"></path><path id="SvgjsPath18374" d="m78.52 96.52 3.23 3.6-1.39-5.36z" fill="#ffffff" stroke-width="none" opacity="1"></path></g></g></g><g id="svga-group-eyesfront-left"><path id="SvgjsPath18416" d="M68 94.5v11.1l7.7 7.9h10.9l7.7-7.9V94.5l-7.7-7.9H75.7L68 94.5zm3.8 9.3c2.4-3.4 6-7.5 6-7.5l8.2-.5 4.8 5.5-7.6 6H78c-1.2-.7-6.2-3.5-6.2-3.5z" fill="#fbd5c0" stroke-width="none" opacity="1"></path><path id="SvgjsPath18417" d="m91.7 100.9-5.9-9.3s-8.9 0-11.3.5c0 0-3.9 10.6-4.9 12.8l2.3-.9 6-7.4L86 96l4.8 5.4.9-.5z" fill="#f3c7ae" stroke-width="none" opacity="1"></path><path id="SvgjsPath18418" d="m68.9 105 2.6-1.2 1.2-1.6-1.3.2-2.9-.9 2.9.3 2.2-.7 1.2-1.4-1.3-.3-1.7-1.4 1.9.7 1.8.1 1.1-1.4-.9-.8L75 95l1.2 1.2 1 .5.5-.6 8.3-.3 3.3 3.9-3.4-3.5-7.9.5-5.6 7.1 1 .9-4.1 1.2-3.8-.2z" fill="#092e0c" stroke-width="none" opacity="1"></path><path id="SvgjsPath18419" d="m74 105-.9.9-.8 1 1.4-.8.8-.8z" fill="#092e0c" stroke-width="none" opacity="1"></path><path id="SvgjsPath18420" d="m75.7 106-.5.8-.5 1.1.9-.9.6-.7z" fill="#092e0c" stroke-width="none" opacity="1"></path><path id="SvgjsPath18421" d="m77.5 107-.5.9-.2.7.6-.6.5-.8z" fill="#092e0c" stroke-width="none" opacity="1"></path></g></g></g><g id="svga-group-eyes-right-move" transform="matrix(1,0,0,1,0,0)"><g id="svga-group-eyes-right"><g id="svga-group-eyesback-right"><path id="SvgjsPath18409" d="m109.1 101.4 4.8-5.5 8.2.5s3.7 4.1 6 7.5c0 0-5 2.8-6.3 3.5h-5.2l-7.5-6z" fill="#ffffff" stroke-width="none" opacity="1"></path></g><g id="svga-group-eyesiriswrapper-right" transform="matrix(1,0,0,1,0,0)"><g id="svga-group-eyesiriscontrol-right" transform="matrix(1,0,0,1,0,0)"><g id="svga-group-eyesiris-right"><path id="SvgjsPath18375" d="m119.22 104.53-4.96-1.82-.91-5.21 4.06-3.39 4.96 1.82.91 5.21z" fill="#3e4442" stroke-width="none" opacity="1"></path><path id="SvgjsPath18376" d="m114.82 100.47.77-3.59 3.49-1.14 2.73 2.46-.77 3.59-3.49 1.13z" fill="#000000" stroke-width="none" opacity="1"></path><path id="SvgjsPath18377" d="m115.15 96.52 3.23 3.6-1.39-5.36z" fill="#ffffff" stroke-width="none" opacity="1"></path></g></g></g><g id="svga-group-eyesfront-right"><path id="SvgjsPath18422" d="M124.3 86.6h-10.9l-7.7 7.9v11.1l7.7 7.9h10.9l7.7-7.9V94.5l-7.7-7.9zm-2.4 20.7h-5.2l-7.6-6 4.8-5.5 8.2.5s3.7 4.1 6 7.5c.1 0-4.9 2.8-6.2 3.5z" fill="#fbd5c0" stroke-width="none" opacity="1"></path><path id="SvgjsPath18425" d="m108.3 100.9 5.9-9.3s8.9 0 11.3.5c0 0 3.9 10.6 4.9 12.8l-2.3-.9-6-7.4-8.1-.6-4.8 5.4-.9-.5z" fill="#f3c7ae" stroke-width="none" opacity="1"></path><path id="SvgjsPath18426" d="m131.1 105-2.6-1.2-1.2-1.6 1.3.2 2.9-.9-2.9.3-2.2-.7-1.2-1.4 1.3-.3 1.7-1.4-1.9.7-1.8.1-1.1-1.4.9-.8.7-1.6-1.2 1.2-1 .5-.5-.6-8.3-.3-3.3 3.9 3.4-3.5 7.9.5 5.6 7.1-1 .9 4.1 1.2 3.8-.2z" fill="#092e0c" stroke-width="none" opacity="1"></path><path id="SvgjsPath18427" d="m126 105 .9.9.8 1-1.4-.8-.8-.8z" fill="#092e0c" stroke-width="none" opacity="1"></path><path id="SvgjsPath18428" d="m124.3 106 .5.8.5 1.1-.9-.9-.6-.7z" fill="#092e0c" stroke-width="none" opacity="1"></path><path id="SvgjsPath18429" d="m122.5 107 .5.9.2.7-.6-.6-.5-.8z" fill="#092e0c" stroke-width="none" opacity="1"></path></g></g></g><g id="svga-group-facehighlight-single"></g><g id="svga-group-eyebrows-left-move" transform="matrix(1,0,0,1,0,0)"><g id="svga-group-eyebrows-left-rotate" transform="matrix(1,1.7453292519943295e-9,-1.7453292519943295e-9,1,1.531526407916317e-7,-1.3892820049932197e-7)"><g id="svga-group-eyebrows-left"><path id="SvgjsPath18484" d="m91.7 88.1.1 1.9-1.7 1.7-1.8-.7s-5.5-2.8-5.8-2.8S76 88 76 88l-7.3 2.9-1.3-1.1 6.1-5.1 6.6-.9 7.9 2.1 3.7 2.2z" fill="#543c32" stroke-width="none" opacity="1"></path><path id="SvgjsPath18485" d="m80.1 83.8 1 .3 1.7 3.6-3-3.8.3-.1zm-10.8 4.4 4.1-.6-5.5 1.8 1.4-1.2zm20.3 2.1 1-2.9.9.5-1.9 2.4zm-.4-3.8-.6 3-.4-3.6 1 .6zM73.1 85l2.3.5-3.2.2.9-.7zm4-.8 2 2-3.1-1.9 1.1-.1z" fill="#634e45" stroke-width="none" opacity="1"></path></g></g></g><g id="svga-group-eyebrows-right-move" transform="matrix(1,0,0,1,0,0)"><g id="svga-group-eyebrows-right-rotate" transform="matrix(1,1.7453292519943295e-9,-1.7453292519943295e-9,1,1.531526407916317e-7,-2.1022492546762805e-7)"><g id="svga-group-eyebrows-right"><path id="SvgjsPath18486" d="m108.3 88.1-.1 1.9 1.7 1.7 1.8-.7s5.5-2.8 5.8-2.8 6.5-.2 6.5-.2l7.4 2.9 1.3-1.1-6.1-5.1-6.6-.9-7.9 2.1-3.8 2.2z" fill="#543c32" stroke-width="none" opacity="1"></path><path id="SvgjsPath18487" d="m119.9 83.8-1 .3-1.7 3.6 3-3.8-.3-.1zm10.8 4.4-4.1-.6 5.5 1.8-1.4-1.2zm-20.3 2.1-1-2.9-.9.5 1.9 2.4zm.4-3.8.6 3 .4-3.6-1 .6zm16.1-1.5-2.3.5 3.2.2-.9-.7zm-4-.8-2 2 3.2-1.8-1.2-.2z" fill="#634e45" stroke-width="none" opacity="1"></path></g></g></g><g id="svga-group-nose-single-move" transform="matrix(1,0,0,1,0,0)"><g id="svga-group-nose-single"><path id="SvgjsPath18468" d="m97.87 100.36-2.05 8.74H94l-.54 1.34.98-.85 2.49.17 4.36-.83 1.72.39-2.27-1-4.14.39z" fill="#dc9f7d" stroke-width="none" opacity="1" transform="translate(0 2)"></path><path id="SvgjsPath18469" d="m106.56 110.44 1.84 6.1-3.62 1.04-.45-1.39-1.44.25-.1 1.49-2.63.2h-.29l-2.63-.2-.1-1.49-1.44-.25-.45 1.39-3.62-1.04 1.83-6.1-2.78 6.02 4.87 2.16.3-1.38.74.1-.05 1.19 3.33.3h.29l3.32-.3-.05-1.19.75-.1.3 1.38 4.86-2.16z" fill="#dc9f7d" stroke-width="none" opacity="1" transform="translate(0 2)"></path><path id="SvgjsPath18470" d="M97.22 111.08c.27-.09 5.21-.63 5.21-.63l1.44 1.44-1.35 4.04-5.03-.54-.27-4.31z" fill="#ffe1d0" stroke-width="none" opacity="1" transform="translate(0 2)"></path></g></g><g id="svga-group-hair-front"><path id="SvgjsPath18528" d="m63 100.8-5.7-12.3-1.5-8.4 2-6.4.9-6.2 2.4-1.9.1-6.3 3.1-3.2 2.2-5.2 3.4-.7 2.3-4.3 3.1-.4 3.2-4 6-.1 4.1-2.8 6.2.4 4.8-2.1 5.6 2.5 5.3-1.2 4.6 3.1 5.5-.4 4.1 3.8 3-.1 2.5 4.7 3.8 1.2 1.9 5.5 3.1 1.7.4 7.6 2.5 1.3.2 6.6 2.3 4-.4 10.6-1.2 3.8-4.2 9.2-1-10.7-2.7-2.3.1-8.1-3.2-1.9.1-5.9-3.9-.6-.4-5.4-4.7.8-1.3-4.8-4.6.6-3.6-3.9-4.6.5-4.1-3.3-4.3 2.3-5.3-1.9-3.9 3.2-4.6-.4-3.5 3.3-5-.5-1.3 3.8-4.2 1.8-.1 4-3.9 1.8.4 5.4-3.7 2.9.5 6.3-2.9 3.2z" fill="#5c453b" stroke-width="none" opacity="1"></path><path id="SvgjsPath18529" d="M95.1 55c-.5-2.5-.6-5-.7-7.5-.1-2.5 0-5 .3-7.5.5 2.5.6 5 .7 7.5 0 2.4 0 4.9-.3 7.5zm-8.7 3.1c-1.2-2.8-2.1-5.8-2.8-8.8v-.2c.1-2.3.3-4.7.7-7 .2 2.4.3 4.7.3 7.1v-.1c.8 2.9 1.5 5.9 1.8 9zm-8.3 2.7c-.6-1.3-1-2.6-1.3-3.9-.4-1.3-.7-2.7-1-4-.1-2-.2-4.1 0-6.2.5 2 .8 4.1 1 6.1v-.1c.3 1.3.6 2.7.9 4 .1 1.3.3 2.7.4 4.1zM71.9 65c-.5-1.3-.8-2.6-1.2-4-.3-1.3-.6-2.7-.8-4 0-1.9 0-3.8.2-5.7.4 1.9.6 3.8.7 5.7v-.1c.3 1.3.5 2.7.7 4.1.3 1.3.4 2.6.4 4zm-3.8 6.6c-1.3-2.5-2.3-5.2-3.2-7.8-.3-2.2-.5-4.5-.4-6.8.7 2.2 1.1 4.4 1.4 6.7v-.1c.8 2.5 1.7 5.2 2.2 8zm-3.6 8.2c-.9-2.1-1.5-4.3-2.1-6.5-.5-2.2-1-4.4-1.1-6.7.9 2.1 1.5 4.3 2.1 6.5.5 2.1 1 4.4 1.1 6.7zm-2 9.9c-.5-1.3-1-2.5-1.3-3.8-.4-1.3-.8-2.6-1.1-3.9-.7-2.6-1.2-5.2-1.5-7.9 1.1 2.5 1.8 5.1 2.5 7.7.5 2.6 1.1 5.2 1.4 7.9zM104.9 55c.5-2.5.6-5 .7-7.5.1-2.5 0-5-.3-7.5-.5 2.5-.6 5-.7 7.5 0 2.4 0 4.9.3 7.5zm8.7 3.1c1.2-2.8 2.1-5.8 2.8-8.8v-.2c-.1-2.3-.3-4.7-.7-7-.2 2.4-.3 4.7-.3 7.1v-.1c-.8 2.9-1.5 5.9-1.8 9zm8.3 2.7c.6-1.3 1-2.6 1.3-3.9.4-1.3.7-2.7 1-4 .1-2 .2-4.1 0-6.2-.5 2-.8 4.1-1 6.1v-.1c-.3 1.3-.6 2.7-.9 4-.1 1.3-.3 2.7-.4 4.1zm6.2 4.2c.5-1.3.8-2.6 1.2-4 .3-1.3.6-2.7.8-4 0-1.9 0-3.8-.2-5.7-.4 1.9-.6 3.8-.7 5.7v-.1c-.3 1.3-.5 2.7-.7 4.1-.3 1.3-.4 2.6-.4 4zm3.8 6.6c1.3-2.5 2.3-5.2 3.2-7.8.3-2.2.5-4.5.4-6.8-.6 2.2-1.1 4.4-1.4 6.7v-.1c-.8 2.5-1.7 5.2-2.2 8zm3.6 8.2c.9-2.1 1.5-4.3 2.1-6.5.5-2.2 1-4.4 1.1-6.7-.9 2.1-1.5 4.3-2.1 6.5-.5 2.1-1 4.4-1.1 6.7zm2 9.9c.5-1.3.9-2.5 1.3-3.8.4-1.3.8-2.6 1.1-3.9.7-2.6 1.2-5.2 1.6-7.9-1.1 2.5-1.8 5.1-2.5 7.7-.6 2.6-1.2 5.2-1.5 7.9zm-75.6 75.4-3 17.4 2.6 13.4 3.1 2.9 5.3-.7.7-4.9-3.5-13 1.5-18.2.3 17.7 5.3 17.9s4.2 1.2 4.3.8 2.8-2.4 2.8-2.4l-1.5-11-5.4-21.2-2.2-18.8-7.9-3-2.4 23.1zm62.5-18.5-3 22.2-.7 12.2 1.1 5.7 3.7.8 2.9-4.2-.1-8.8-.6-7.1s-.6-5.2-.3-4.4c.3.8 3 15.1 3 15.1l-1.6 14.4 2.6 3.8 2.3.5 2.2-2.6 1.2-7.1.3 7.5 1.2 2.7 2.9.3 2.6-2.7-.1-9.2-.3-7.7-.4-7.7-5.5-17.7-.3-15.9-5.1 8-5.4 1.9h-2.6z" fill="#4c342a" stroke-width="none" opacity="1"></path><path id="SvgjsPath18530" d="M66.1 142.2c-.1 2.9-.3 5.9-.7 8.8-.3 2.9-.8 5.8-1.2 8.7-.3 1.4-.5 2.9-.7 4.3-.3 1.4-.5 2.9-.8 4.3-.6 2.9-1.2 5.7-2.1 8.5 0-2.9.2-5.9.5-8.8.3-2.9.6-5.8 1.1-8.7.5-2.9 1-5.7 1.7-8.6.6-2.9 1.3-5.7 2.2-8.5zm2.7 2.8c0 3.4 1 16.2.8 19.6v-.1l1.1 15.6v-.2c.7 2.6 1.4 5.3 2 7.9.6 2.6 1.2 5.3 1.8 8-1-2.5-2-5.1-2.9-7.7-.9-2.6-1.8-5.2-2.6-7.8v-.2c-.3-2.6-.6-5.2-.8-7.8-.2-2.6-.3-5.2-.5-7.9v-.2c.4-3.1.5-15.9 1.1-19.2zm56.3 2.3c.4 2.6-.2 6.2 0 8.8.2 2.6-1.3 5.4-1.2 8 0 2.6-.2 5.2-.3 7.8-.2 2.6-.4 5.2-.7 7.8v-.1c.2 1.8.5 3.6.6 5.3-.6-1.7-1.2-3.4-1.7-5.1v-.1c-.1-2.6-.1-5.2-.1-7.8.1-2.7 3.1-22 3.4-24.6zm2.5-2.8c.3 1.9.6 3.8.9 5.6.2 1.9.5 3.8.7 5.6.4 3.8.8 7.5 1.1 11.3v-.2c.5 1.8 1 3.7 1.4 5.5.5 1.8.9 3.7 1.4 5.5l.1.2v.2c-.4 2.1-.8 4.1-1.2 6.2-.4 2.1-.9 4.1-1.4 6.2v-.1l.9 3c-.5-.9-1-1.9-1.4-2.8v-.2l.6-6.3c.3-2.1.5-4.2.8-6.3v.4c-.5-1.8-1.1-3.6-1.5-5.5-.5-1.8-1-3.7-1.5-5.5v-.2c-.3-3.8-.5-7.6-.6-11.3-.1-1.9-.1-3.8-.2-5.7-.2-1.8-.2-3.7-.1-5.6zm5.8 13.1c.5 1.7.9 3.4 1.2 5.1.4 1.7.7 3.4 1 5.2v-.1c.6 1.6 1.2 3.2 1.7 4.7.5 1.6 1.1 3.2 1.6 4.8l.1.1v.1l.1 3.8v3.8c0 2.5 0 5-.1 7.6v-.1c.3 1.3.5 2.6.8 3.9-.6-1.2-1.1-2.4-1.6-3.6v-.1c-.3-2.5-.5-5-.7-7.5l-.2-3.8-.2-3.8.1.3c-.5-1.6-1-3.2-1.6-4.8-.5-1.6-1-3.2-1.4-4.8v-.1c-.2-1.8-.3-3.5-.4-5.3-.3-1.9-.4-3.7-.4-5.4zm3.7-21.1c.6 5.4.9 10.7 1.2 16.1v-.2l1.5 4.4c.5 1.5 1 2.9 1.4 4.4.9 2.9 1.9 5.9 2.8 8.9l.1.1v.1c0 1.8-.1 3.6-.1 5.4 0 1.8-.1 3.6-.2 5.4-.1 3.6-.4 7.2-.6 10.8v.1l-1.2 2.3.8-2.4v.1c-.2-3.6-.4-7.2-.4-10.8 0-1.8-.1-3.6-.1-5.4 0-1.8-.1-3.6 0-5.4v.3c-.9-2.9-1.9-5.9-2.8-8.9-.4-1.5-.9-3-1.3-4.4l-1.3-4.5v-.2c-.2-5.4-.1-10.8.2-16.2zm-64.8 16.7c.1 2.5 1.8 10.9 1.7 13.3l1.1 3 1.1 3.1c.4 1 .7 2.1 1 3.1.3 1.1.7 2.1 1 3.2.3 1.1.6 2.1.9 3.2v.1c.2 1.6.4 3.3.5 5 .1 1.7.2 3.3.3 5-.5-1.6-.9-3.2-1.3-4.8-.4-1.6-.8-3.2-1.1-4.9v.1c-.4-1-.8-2.1-1.1-3.1-.4-1-.7-2.1-1.1-3.1s-.7-2.1-1.1-3.1l-1-3.2-.1-.2-.8-3.2c.3-2.5-.5-11.1 0-13.5z" fill="#634e45" stroke-width="none" opacity="1"></path></g><g id="svga-group-glasses-single-move" transform="matrix(1,0,0,1,0,0)"><g id="svga-group-glasses-single"></g></g></g></g></g><rect id="svga-credit-rect" width="200" height="15" x="0" y="185" fill="#ecf0f1" opacity="0.5" style="display: none;"></rect><text id="svga-credit-text" font-family="Avenir Next, Roboto, Helvetica, Arial, sans-serif" font-size="10px" text-anchor="start" font-weight="400" size="10px" anchor="start" weight="400" fill="#333333" x="33.40447998046875" y="182.60824704170227" style="display: none;"><tspan id="SvgjsTspan18276" dy="13" x="33.40447998046875">Created on AvatarMaker.com</tspan></text></g><defs id="SvgjsDefs18228"></defs></svg>