<svg xmlns="http://www.w3.org/2000/svg" version="1.1" width="600px" height="600px" viewBox="0 0 200 200" style="overflow:hidden!important;"><defs id="SvgjsDefs8889"></defs><g id="svga-group-wrapper"><g id="svga-group-backs-single"><path id="SvgjsPath9794" d="M0 0h200v200H0V0z" fill="#e5fcc2" stroke-width="none" opacity="1" stroke="none"></path><path id="SvgjsPath9795" d="M165.5 23.7c11.7 0 21.1 9.5 21.1 21.1S177.2 66 165.5 66s-21.1-9.5-21.1-21.1 9.4-21.2 21.1-21.2zm-77.3 86.5c11.7 0 21.1 9.5 21.1 21.1s-9.5 21.1-21.1 21.1-21.1-9.5-21.1-21.1 9.4-21.1 21.1-21.1zm-37.8 48.9c9.1 0 16.6 7.4 16.6 16.6s-7.4 16.6-16.6 16.6-16.6-7.4-16.6-16.6 7.5-16.6 16.6-16.6zm-.3-132.8c9.1 0 16.6 7.4 16.6 16.6s-7.4 16.6-16.6 16.6S33.5 52 33.5 42.8s7.4-16.5 16.6-16.5zm60.3-7.2c2.7 0 4.8 2.2 4.8 4.8s-2.2 4.8-4.8 4.8-4.8-2.2-4.8-4.8 2.1-4.8 4.8-4.8zm-91.5 97.1c2.7 0 4.8 2.2 4.8 4.8s-2.2 4.8-4.8 4.8-4.8-2.2-4.8-4.8 2.1-4.8 4.8-4.8zm120-5.7c4.8 0 8.8 3.9 8.8 8.8s-3.9 8.8-8.8 8.8-8.8-3.9-8.8-8.8 4-8.8 8.8-8.8z" fill="#ceed9f" stroke-width="none" opacity="1" stroke="none"></path><path id="SvgjsPath9796" d="M101.8 45.4c14.2 0 25.8 11.5 25.8 25.8S116 97 101.8 97 76 85.4 76 71.2s11.5-25.8 25.8-25.8zm21.6 117.7c7.5 0 13.6 6.1 13.6 13.6s-6.1 13.6-13.6 13.6-13.6-6.1-13.6-13.6 6-13.6 13.6-13.6zm-88.6-35.9c7.2 0 13 5.8 13 12.9S42 153 34.8 153s-13-5.8-13-12.9 5.8-12.9 13-12.9zM55 88.8c2.1 0 3.8 1.7 3.8 3.8s-1.7 3.8-3.8 3.8-3.8-1.7-3.8-3.8 1.7-3.8 3.8-3.8zm44.9 78.4c2.1 0 3.8 1.7 3.8 3.8s-1.7 3.8-3.8 3.8-3.8-1.7-3.8-3.8 1.7-3.8 3.8-3.8zm79.9-82.1c2.1 0 3.8 1.7 3.8 3.8s-1.7 3.8-3.8 3.8-3.8-1.7-3.8-3.8 1.7-3.8 3.8-3.8zM66.7 16.5c2.1 0 3.8 1.7 3.8 3.8s-1.7 3.8-3.8 3.8-3.8-1.7-3.8-3.8 1.7-3.8 3.8-3.8zm-46.8-4.3c2.7 0 4.8 2.2 4.8 4.8s-2.2 4.8-4.8 4.8-4.8-2.2-4.8-4.8 2.1-4.8 4.8-4.8zM15.5 180c2.7 0 4.8 2.2 4.8 4.8s-2.2 4.8-4.8 4.8-4.8-2.2-4.8-4.8 2.2-4.8 4.8-4.8zM149.1 77.2c4.7 0 8.4 3.8 8.4 8.4s-3.8 8.4-8.4 8.4-8.4-3.8-8.4-8.4 3.7-8.4 8.4-8.4zM145.8 5c4.7 0 8.4 3.8 8.4 8.4s-3.8 8.4-8.4 8.4-8.4-3.8-8.4-8.4 3.7-8.4 8.4-8.4zM35.3 70.3c4.8 0 8.8 3.9 8.8 8.8s-3.9 8.8-8.8 8.8-8.8-3.9-8.8-8.8 4-8.8 8.8-8.8zm127.8 58.9c14 0 25.3 11.3 25.3 25.3s-11.3 25.3-25.3 25.3-25.3-11.3-25.3-25.3 11.4-25.3 25.3-25.3z" fill="#b8dd7e" stroke-width="none" opacity="1" stroke="none"></path></g><g id="svga-group-humanwrap-move" transform="matrix(1,0,0,1,0,0)"><g id="svga-group-humanwrap" transform="matrix(1,0,0,1,0,0)"><g id="svga-group-hair-back-move" transform="matrix(1,0,0,1,0,0)"><g id="svga-group-hair-back" transform="matrix(1,0,0,1,0,0)"><path id="SvgjsPath9597" d="M69.5 164.1c1.6-4.4.9-6.3.9-6.3s4.7-8.4 1.1-16.9c-.2-.4-.4-.7-.6-1.1 0 0 4.3-.5 4.8-10.6s30.1-28.7 30.1-28.7L125 130s1.1 7.1 3.7 12.1c0 0-5.8 4.6 1 15.7 8.3 3.2 15.1 1.7 16.2-1.1.6-1.5.5-5.5-1.3-6.8-.3-.2-1-.6-1-1.1 0-.5.4-.6 1-1.2.9-1.1 1.8-3.4 1.9-3.4 0 0 2-3.1 1.2-7.5-.5-2.6-1.4-2.8-1.4-4.6.1-2.2 1.4-3.5 2.2-4.9 2.2-3.7-.4-6.9-1.1-13.2-.9-8.8 3.2-11.1 2.4-19.4-.5-4.7-1.4-9.1-1.4-9.1-.4-1.7-.5-1.8-.7-2.9-.9-4.8-.6-8.6-.5-9.4.3-5.2-4.4-16-9.9-22-9.2-10.1-23-9.8-50.6-9-14 .4-19.1 2.1-23.2 5.3-5.8 4.4-10.2 11.9-11.6 19.3-1.5 7.8 1.2 11.7-1.8 19.5-.5 1.4-1.8 4.2-2.5 8.4-.4 2.1-.8 4.6-.6 7.6.6 6.5 3.9 7.5 4.4 13.1.4 4.6-1.9 4.3-2.1 10-.3 8 3.8 15.8 3.8 15.8-.1 0-.2.1-.3.2-.3.2-.5.6-.6.6 0 0-.9 2.9-.7 5.8 0 0 .1 1.7 2.9 8.2" fill="#543c32" stroke-width="none" opacity="1" stroke="none"></path><path id="SvgjsPath9598" d="M67.4 137.8c3.4-3 3.9-6.2 3.9-10.6s-8.9-39.6-8.9-46.5S58 65.6 58 65.6L56.6 64s-6 14.7-4.5 22.6c0 0-5.9 9.1-1 18.2s8.3 15 9.6 18.2 3.2 5.1 3.4 9.3c.3 4.3-1.7 7.3-5.2 9.4.1-.1 3.5.4 8.5-3.9zm79.9-23.9s-.2 15.3-5.4 21c0 0 1.4-.4 4.4-2.9-.1 0 5.4-7 1-18.1zm-7.9 30.4s-7.7-5.1-4.3-12.7c1.9-4.1 7.2-15.1 9.4-19.2s2.9-22.1 1.6-26.2c-1.2-4.1-3.1-10.8-3.1-12.7l-1.6-1.1-9.9 2.9-9.8 15.7-1.2 32 4.4 6.8c.1 1.1.3 2.4.8 3.8 1.3 4.1 1.9 6.3 4.2 8.1 3 2 6.3 2.3 9.5 2.6zm-84.5-5.2c-.4-3.1 2.4-8.9 2.4-13.9s-5.8-9.8-5.8-9.8-2.1.7-2.1 10 3.8 15.8 3.8 15.8c2.5 2.7 3.3 2.2 3.3 2.2s-1.1-1.2-1.6-4.3z" fill="#452c22" stroke-width="none" opacity="1" stroke="none"></path></g></g><g id="svga-group-humanbody-back"><path id="SvgjsPath9193" d="m168.5 219.5-1.7-21.5s.7-9-8.8-15.3-23.4-10.1-29.5-14.2c-6.1-4.1-9.2-4.5-9-16.9s.9-40.3.9-40.3H79.6s.7 27.9.9 40.3c.2 12.4-2.9 12.8-9 16.9-6.1 4.1-20 7.9-29.5 14.2S33.2 198 33.2 198l-1.6 21.5h136.9z" fill="#f4baa3" stroke-width="none" opacity="1" stroke="none"></path></g><g id="svga-group-chinshadow-single"><path id="SvgjsPath9431" d="M80.4 155.4c5.9 5.8 12.6 9.3 19.6 9.3s13.7-3.5 19.6-9.3c-.1-1.1-.1-2.4-.1-3.8.2-12.4.9-40.3.9-40.3H79.6s.7 27.9.9 40.3c0 1.4 0 2.7-.1 3.8z" fill="#d58464" stroke-width="none" opacity="0.65" stroke="none"></path></g><g id="svga-group-humanbody-front"><path id="SvgjsPath9194" d="M73.8 175.9c5.1 2.9 11.8 5.2 17.6 5.7.4 0 .4-.6.1-.7-2.8-1.1-5.9-1.7-8.8-2.6-2.9-.9-5.8-2-8.8-2.7-.1-.1-.3.2-.1.3zm35.2 6.2c5.3-.6 11.3-3 15.9-5.8.3-.2.1-.6-.2-.5-2.6.9-5.2 2-7.8 2.9-2.6.9-5.4 1.5-8 2.5-.5.1-.5.9.1.9z" fill="#d58464" stroke-width="none" opacity="1" stroke="none"></path><path id="SvgjsPath9195" d="m168.4 219.4-2.1-21.4c0-2.2-.5-4.5-1.5-6.6-.9-2.1-2.3-3.9-3.9-5.5s-3.5-2.8-5.5-4c-2-1.2-4.1-2.2-6.2-3.1-4.2-1.9-8.6-3.6-12.9-5.4-2.2-.9-4.3-1.9-6.4-3-1.1-.6-2.1-1.2-3-1.9-1-.6-2-1.2-3-1.9s-2-1.5-2.8-2.6c-.8-1-1.3-2.2-1.7-3.4-.7-2.4-.8-4.8-.8-7.2 0-4.7.2-9.4.3-14.1.2-9.4.6-18.7.9-28l.6.6-20.4-.2-20.4-.1.3-.3.7 28c.1 4.7.3 9.3.4 14 0 2.4-.1 4.7-.8 7.1-.3 1.2-.9 2.3-1.6 3.3-.8 1-1.7 1.8-2.7 2.5s-2 1.3-2.9 2c-.9.6-1.9 1.3-3 1.9-2.1 1.2-4.2 2.1-6.4 3.1-4.3 1.9-8.6 3.6-12.8 5.6-2.1 1-4.2 2.1-6.1 3.2-2 1.2-3.8 2.4-5.4 4-1.6 1.6-2.9 3.4-3.8 5.4-.4 1-.8 2.1-1 3.1-.2 1.1-.4 2.2-.3 3.2v.2l-1.5 21.5-1-1.1 34 .1c11.3 0 22.7.1 34.1.2l34.2.3 34.4.5zm.2.2-34 .4-34.2.3c-11.4.1-22.9.2-34.4.2l-34.4.1h-1.1l.1-1.1 1.7-21.5v.1c-.1-5.1 2.2-9.8 5.7-13.3 1.7-1.7 3.8-3.1 5.8-4.3 2-1.2 4.2-2.2 6.3-3.2 4.3-2 8.7-3.7 13-5.4 2.1-.9 4.3-1.8 6.3-2.9 1-.5 1.9-1.1 3-1.8 1-.6 2-1.2 2.9-1.9.9-.6 1.8-1.4 2.4-2.2.7-.9 1.2-1.9 1.5-2.9.6-2.1.8-4.5.8-6.8 0-4.6-.1-9.3-.2-14l-.6-28v-.3h.3l20.4-.1 20.4-.2h.6v.6c-.1 9.3-.2 18.7-.4 28-.1 4.7-.2 9.4-.2 14 .1 2.3.2 4.6.8 6.7.3 1.1.8 2 1.4 2.9.6.8 1.4 1.6 2.4 2.2.9.6 1.9 1.3 2.9 1.9 1 .7 1.9 1.3 2.9 1.8 2 1.1 4.1 2.1 6.3 3 4.3 1.8 8.6 3.6 12.9 5.6 2.1 1 4.2 2.1 6.2 3.3 2 1.2 4 2.6 5.7 4.3 3.4 3.4 5.6 8.1 5.4 13v-.1l1.4 21.6zm-112.8-.4 1.9-13.8.1 13.8h-2zm88.6 0-1.9-13.8-.1 13.8h2z" fill="#c66c49" stroke-width="none" opacity="1" stroke="none"></path></g><g id="svga-group-clothes-single"><path id="SvgjsPath9664" d="M76.4 200.1c-6.6-13.5-9.4-30.5-9.4-30.5-2.2-.9-3.6.8-3.6.8-1.2-.4-3.4 1.5-3.4 1.5-2.2-.5-3.5 1.5-3.5 1.5-3.2 0-3.4 2-3.4 2s1.4 12.2 1.5 23.4c.1 11.1-2.4 21.2-2.4 21.2h39.4c.1 0-8.6-6.4-15.2-19.9zm68.9-1.3c.1-11.1 1.5-23.4 1.5-23.4s-.1-2-3.4-2c0 0-1.2-2-3.5-1.5 0 0-2.1-1.9-3.4-1.5 0 0-1.4-1.6-3.6-.8 0 0-2.8 17-9.4 30.5S108.3 220 108.3 220h39.4s-2.5-10.1-2.4-21.2z" fill="#9d69bc" stroke-width="none" opacity="1"></path><path id="SvgjsPath9665" d="M91.9 219.7c-1.8-1.5-3.5-3.2-5-5-1.5-1.8-3-3.7-4.3-5.6-2.6-3.9-4.9-8.1-6.8-12.4-1.9-4.3-3.5-8.8-4.9-13.3-.7-2.3-1.3-4.6-2-6.9-.7-2.3-1.2-4.6-1.8-7-.7-.3-1.3-.4-2.1-.3-.3.1-.7.2-1 .3-.3.1-.5.3-.7.5-.3-.1-.7 0-1 0-.3.1-.7.2-1 .4l-1.5.9c-.7-.1-1.4-.1-2.1.2-.4.1-.7.4-1 .6l-.6.6c-.7 0-1.4.1-2.1.4-.4.2-.8.4-1.1.8-.3.4-.5.7-.6 1.3v.2c.3 3.7.6 7.4.7 11.1.2 3.7.3 7.4.4 11.1.1 3.7-.1 7.4-.5 11.1-.4 3.7-.9 7.4-1.7 10.9v.2c0 .5.4.9.9.9l9.9-.2 9.9-.2c3.3-.1 6.6-.2 9.9-.2h9.9c.1 0 .2 0 .3-.1.1.1.1-.1-.1-.3zm-10 0c-3.3 0-6.6-.1-9.9-.2l-9.9-.3-8.7-.1c.8-3.3 1.3-6.7 1.7-10 .5-3.8.7-7.6.5-11.3-.1-3.8-.3-7.5-.7-11.2-.3-3.7-.7-7.4-1.2-11.1 0-.1.1-.4.2-.5.2-.2.4-.4.6-.5.2-.1.5-.2.8-.3.3-.1.6-.1 1-.1.2 3.4.4 6.9.6 10.3.3 3.6.6 7.2.9 10.9l.5 5.4c.2 1.8.2 3.6.3 5.4v5.4c0 1.8-.1 3.6-.1 5.4.5-3.6.8-7.2.9-10.9.1-1.8 0-3.6-.1-5.5l-.5-5.4c-.4-3.6-.7-7.2-1.2-10.8-.4-3.4-.8-6.8-1.4-10.3.2 0 .3-.1.4-.2.1-.2.3-.5.5-.6.2-.2.5-.4.7-.5.5-.3 1.1-.3 1.7-.2.1 0 .2 0 .3-.1.4-.4.9-.8 1.4-1.1.5-.3 1.1-.6 1.6-.5.1 0 .2 0 .3-.1.2-.2.4-.4.7-.6.3-.2.5-.3.8-.4.3-.1.6-.1.9-.1.3 0 .6.1.9.1.5 4.7 1.5 9.4 2.7 14.1.3 1.2.6 2.3.9 3.5.4 1.1.7 2.3 1.1 3.4.7 2.3 1.6 4.5 2.6 6.8 1.9 4.4 4.3 8.7 7.2 12.5 2.7 3.6 5.8 6.9 9.3 9.7h-8.3zm-6.6-9.4c-1.3-3.1-2.3-6.4-3.3-9.6-1-3.3-1.9-6.5-2.9-9.8l-5.7-19.7c.8 3.3 1.6 6.6 2.4 10l2.6 9.9c.9 3.3 1.8 6.6 2.8 9.9.5 1.6 1 3.3 1.5 4.9.5 1.6 1.1 3.3 1.8 4.9.3.7.6 1.5.8 2.3.2.8.1 1.6-.3 2-.4.4-1.1.1-1.7-.4-.6-.5-1-1.2-1.3-2-1.2-3.1-1.8-6.5-2.7-9.8-.8-3.3-1.5-6.6-2.2-10l-2.2-10c1.1 6.7 2.3 13.5 3.7 20.1.3 1.7.7 3.3 1.1 5 .4 1.7.8 3.3 1.4 5 .3.8.8 1.6 1.5 2.3.3.3.8.6 1.3.8.5.2 1.2.1 1.6-.3.4-.4.6-.9.7-1.4.1-.5 0-1 0-1.4-.2-1.1-.5-1.9-.9-2.7zm-10.5-8.5c-.2-.7-.5-1.5-.7-2.2-.2-.7-.3-1.5-.5-2.2-.3-1.5-.5-3.1-.7-4.6l-2.7-18.6c.5 6.2 1.1 12.5 1.8 18.7.2 1.6.4 3.1.7 4.7.1.8.2 1.6.5 2.4.2.8.5 1.5.7 2.3 1 3 2.1 5.9 3 8.9.4 1.5.8 3 .8 4.4 0 .4-.1.7-.2.9-.2.2-.4.5-.7.6-.5.3-1.2.2-1.7-.2s-.8-1.1-1-1.8c-.2-.7-.3-1.5-.4-2.2l-.6-4.6-2.1-19c.3 6.3.8 12.5 1.3 18.8.1 1.6.3 3.1.5 4.7.1.8.2 1.6.4 2.4.2.8.6 1.6 1.3 2.2.7.7 1.8.9 2.7.4.4-.2.8-.5 1-1 .3-.5.3-.9.3-1.3.1-1.7-.4-3.2-.8-4.8-.8-3.1-1.9-6-2.9-8.9zm83.8 18c-.8-3.6-1.3-7.3-1.7-11-.4-3.7-.6-7.4-.5-11.1 0-3.7.2-7.4.4-11.1.2-3.7.5-7.4.7-11.1v-.2c-.1-.6-.3-1-.6-1.3-.3-.4-.7-.6-1.1-.8-.7-.3-1.4-.4-2.1-.4l-.6-.6c-.3-.2-.6-.4-1-.6-.6-.3-1.4-.3-2.1-.2-.5-.4-1-.7-1.5-.9-.3-.1-.6-.3-1-.4-.3-.1-.6-.1-.9 0-.2-.2-.5-.4-.7-.5-.3-.2-.6-.3-1-.3-.7-.1-1.4 0-2.1.3-.6 2.4-1.1 4.7-1.8 7-.6 2.3-1.3 4.6-2 6.9-1.4 4.5-3 9-4.9 13.3-1.9 4.3-4.2 8.4-6.8 12.4-1.3 2-2.7 3.9-4.3 5.6-1.5 1.8-3.2 3.5-5 5-.2.1-.2.3-.1.5.1.1.2.1.3.1 3.3-.1 6.6-.1 9.9 0 3.3 0 6.6.1 9.9.2l9.9.3 9.9.2c.5 0 .9-.4.9-.9-.1-.2-.1-.3-.1-.4zm-10.7-.6-9.9.3c-3.3.1-6.6.2-9.9.2h-8.9c3.5-2.8 6.6-6.1 9.3-9.7 2.9-3.8 5.3-8.1 7.2-12.5.9-2.2 1.8-4.5 2.6-6.8.4-1.1.7-2.3 1.1-3.4.3-1.2.6-2.3.9-3.5 1.2-4.6 2.2-9.4 2.7-14.1.3-.1.6-.1.9-.1.3 0 .6 0 .9.1.3.1.6.2.8.4s.5.4.7.6c.1.1.2.1.3.1.5-.1 1.1.2 1.6.5s1 .7 1.4 1.1c.1.1.2.1.3.1.6-.1 1.2 0 1.7.2.2.1.5.3.7.5.2.2.4.4.5.6.1.1.2.2.4.2-.5 3.4-.9 6.8-1.4 10.3l-1.2 10.8-.5 5.4c-.1 1.8-.2 3.7-.1 5.5.1 3.6.4 7.3.9 10.9 0-1.8-.1-3.6-.1-5.4 0-1.8-.1-3.6 0-5.4.1-1.8.1-3.6.3-5.4l.6-5.4c.3-3.6.7-7.2.9-10.9.3-3.4.5-6.9.6-10.3.3 0 .6.1 1 .1l.9.3c.2.1.5.3.6.5.1.2.2.4.2.5-.5 3.7-.9 7.4-1.2 11.1-.3 3.7-.6 7.5-.6 11.2-.1 3.8.1 7.6.5 11.3.4 3.4 1 6.7 1.7 10l-8.4.1zm-2.8-36.4-2.2 10c-.7 3.3-1.5 6.7-2.2 10-.8 3.3-1.5 6.7-2.7 9.8-.3.7-.7 1.4-1.3 2-.5.5-1.3.8-1.7.4-.4-.4-.5-1.2-.3-2 .1-.8.4-1.6.8-2.3.7-1.6 1.2-3.2 1.8-4.9s1-3.3 1.5-4.9c1-3.3 1.9-6.6 2.8-9.9l2.6-9.9c.8-3.3 1.6-6.6 2.4-10l-5.7 19.7c-1 3.3-1.9 6.6-2.9 9.8-1 3.2-2 6.6-3.3 9.6-.4.8-.7 1.6-.8 2.6-.1.4-.1.9 0 1.4.1.5.2 1 .7 1.4.4.4 1.2.5 1.6.3.5-.1.9-.4 1.3-.8.7-.7 1.1-1.5 1.5-2.3.6-1.7 1-3.3 1.4-5 .4-1.7.8-3.3 1.1-5 1.4-6.5 2.6-13.2 3.6-20zm1 19.3c.2-.8.5-1.5.7-2.3s.3-1.6.5-2.4c.2-1.6.5-3.1.7-4.7.7-6.2 1.4-12.5 1.9-18.7l-2.7 18.6c-.2 1.6-.4 3.1-.7 4.6-.1.8-.3 1.5-.5 2.2-.2.7-.5 1.5-.7 2.2-1 2.9-2.2 5.9-3 8.9-.4 1.5-.8 3.1-.8 4.8 0 .4.1.9.4 1.3.3.4.6.7 1 1 .9.5 2 .3 2.7-.4.7-.6 1-1.4 1.3-2.2.2-.8.3-1.6.4-2.4.2-1.6.4-3.1.5-4.7.6-6.2 1-12.5 1.3-18.8l-2.1 18.7-.6 4.6c-.1.8-.2 1.5-.4 2.2-.2.7-.5 1.4-1 1.8-.5.4-1.1.5-1.7.2-.3-.1-.5-.4-.7-.6-.1-.2-.2-.6-.2-.9 0-1.4.4-3 .8-4.4.8-2.7 1.9-5.6 2.9-8.6z" fill="#78389d" stroke-width="none" opacity="1"></path><path id="SvgjsPath9666" d="M134 171.6c-3.8 15.4-6.6 33-18.8 44.3-.3.3.1.9.5.6 5.9-4.4 9.2-11.4 11.9-18.1 3.4-8.4 6.4-17.7 6.9-26.8 0-.2-.4-.3-.5 0zm11.2 3.4c-2.3 9-2.8 19.7-1.9 28.9 0 .2.3.2.3 0 .6-9.6 1.5-19.3 2-28.9 0-.2-.4-.2-.4 0zm-3.9 2.4c-1 6.6-1.7 13.6-1.8 20.3 0 .1.1.1.1 0 1.2-6.6 1.9-13.5 2.1-20.3 0-.2-.4-.3-.4 0zm-4.1 5.2c-1.7 11.1-4.1 21.6-7.4 32.3-.1.2.2.3.3.1 4.6-10 7.3-21.4 7.5-32.4.1-.2-.3-.2-.4 0zm1.2-10.8c-.5-.2-1.3-.2-1.6.3-.1.2 0 .5.3.5s.6-.1.9 0c.4.1.6.4.7.7.1.3.6.3.6-.1 0-.5-.3-1.1-.9-1.4zm-72.7-.9c-.1-.3-.5-.2-.5.1 1.2 8.4 3.7 17 6.9 24.8.2.4.7.2.6-.2-2.3-8.2-4.5-16.5-7-24.7zm-2.4.7c.3-.1.3-.6-.1-.6-3.3-.2-2.3 3.4-1.9 5.6 1.4 7.6 2.6 15.4 4.7 22.9 0 .1.3.1.3 0-.3-3.6-6.2-26.8-3-27.9zm-7 15.1c-.3-2.3-2.2-9.3-.2-11.1.2-.2 0-.5-.2-.4-3.2.8-1.1 6.9-.8 9 1.3 9 2.7 17.1.4 26.1-.1.2.3.3.3.1 1.8-5.3 1.8-10.8 1.4-16.3-.3-2.5-.6-5-.9-7.4z" fill="#b186cb" stroke-width="none" opacity="1"></path></g><g id="svga-group-head" transform="matrix(1,0,0,1,0,0)"><g id="svga-group-ears-left-move" transform="matrix(1,0,0,1,0,0)"><g id="svga-group-ears-left" transform="matrix(1,0,0,1,0,0)"><path id="SvgjsPath9389" d="M65.3 102.4s-1.6-4.3-3.2-7-4-6.4-5.5-7.4-2.6-.5-2.2 2c.5 2.5 2.3 10.7 2.8 13.2s1.7 7.9 3.2 11.5c1.5 3.5 2.3 5.2 3.7.5 1.5-4.7 2.3-9.8 1.2-12.8z" fill="#f4baa3" stroke-width="none" opacity="1" stroke="none"></path><path id="SvgjsPath9390" d="M69.1 106.8c0 1.5-.8 6.7-2.1 10-1.2 1.1-4.4 2-4.5 2s-.2 0-.3-.1c-.4-.2-.7-.6-.9-.9s-.4-.7-.5-1c-.3-.7-.6-1.3-.9-2-.5-1.4-1-2.8-1.4-4.3-.8-2.9-1.4-5.9-1.9-8.8-.6-2.9-1.1-5.9-1.8-8.8l-.5-2.2c-.2-.7-.4-1.5-.2-2.4.1-.4.3-.9.5-1.1.3-.2.6-.3.9-.2.6.1 6.4.8 6.9 1.2 3.2 1.3 6.8 8 6.7 18.6zm-7.6-11.9c-.7-1.1-1.5-2.2-2.3-3.3-.8-1.1-1.5-2.1-2.4-2.9-.4-.4-.9-.7-1.3-.8-.4-.1-.8.1-.9.6-.1.6 0 1.3.1 2s.3 1.5.4 2.2c.6 2.9 1.3 5.8 2 8.7.7 2.9 1.4 5.8 2.2 8.6.4 1.4.9 2.8 1.4 4.1.3.6.5 1.3.8 1.9.1.3.3.6.4.8.1.2.3.4.4.5.1 0 .1 0 .3-.1.1-.1.1-.1.2-.3.1-.1.1-.2.2-.4.3-.5.5-1.2.7-1.8.4-1.3.8-2.6 1.1-3.9.3-1.3.6-2.7.8-4.1.1-1.4.1-3-.4-4.3-1-2.7-2.2-5.3-3.7-7.5z" fill="#e59e82" stroke-width="none" opacity="1" stroke="none"></path><path id="SvgjsPath9391" d="M55.1 90.7c3 3.3 5.4 8.9 5.8 14.1 0 .4-.3.4-.4.1-.1-.5-.2-1-.3-1.4-.3-.7-.7-.8-1.3-.2 0 .4.1.8.2 1.2.1.5.3 1.1.5 1.6.5 1.2 1.1 2.2 1.7 3.3.1.2 0 .6-.2.4-1.4-1.2-2.9-4.5-2.8-6.8 0-.7.2-1.4.8-1.4.3 0 .6.1.8.4-1.1-4.1-2.5-7.5-4.9-10.9-.2-.3-.1-.6.1-.4z" fill="#d58464" stroke-width="none" opacity="1" stroke="none"></path></g></g><g id="svga-group-ears-right-move" transform="matrix(1,0,0,1,0,0)"><g id="svga-group-ears-right" transform="matrix(1,0,0,1,0,0)"><path id="SvgjsPath9392" d="M134.7 102.4s1.6-4.3 3.2-7 4-6.4 5.5-7.4 2.6-.4 2.1 2.1-2.3 10.7-2.8 13.2-1.7 7.9-3.2 11.5c-1.5 3.5-2.3 5.2-3.7.5-1.4-4.8-2.2-9.9-1.1-12.9z" fill="#f4baa3" stroke-width="none" opacity="1" stroke="none"></path><path id="SvgjsPath9393" d="M137.6 88.2c.5-.4 6.3-1.1 6.9-1.2.3 0 .6 0 .9.2.3.2.5.6.5 1.1.1.9-.1 1.7-.2 2.4l-.5 2.2c-.7 2.9-1.2 5.8-1.8 8.8-.5 2.9-1.1 5.9-1.9 8.8-.4 1.4-.8 2.9-1.4 4.3-.3.7-.5 1.4-.9 2-.2.3-.3.7-.5 1s-.5.7-.9.9c-.1 0-.2.1-.3.1s-3.3-.9-4.5-2c-1.3-3.3-2-8.5-2.1-10-.1-10.6 3.5-17.3 6.7-18.6zm-2.9 14.2c-.5 1.4-.5 2.9-.4 4.3s.4 2.8.8 4.1c.3 1.3.7 2.6 1.1 3.9.2.6.4 1.3.7 1.8.1.1.1.3.2.4.1.1.1.2.2.3.1.1.2.2.3.1s.2-.2.4-.5c.2-.2.3-.5.4-.8.3-.6.6-1.3.8-1.9.5-1.3 1-2.7 1.4-4.1.8-2.8 1.5-5.7 2.2-8.6s1.4-5.8 2-8.7c.1-.7.3-1.5.4-2.2.1-.7.2-1.5.1-2-.1-.6-.5-.7-.9-.6s-.9.4-1.3.8c-.8.8-1.6 1.9-2.4 2.9-.8 1.1-1.5 2.2-2.3 3.3-1.4 2.2-2.6 4.8-3.7 7.5z" fill="#e59e82" stroke-width="none" opacity="1" stroke="none"></path><path id="SvgjsPath9394" d="M144.9 90.7c-3 3.3-5.4 8.9-5.8 14.1 0 .4.3.4.4.1.1-.5.2-1 .3-1.4.3-.7.7-.8 1.3-.2 0 .4-.1.8-.2 1.2-.1.5-.3 1.1-.5 1.6-.5 1.2-1.1 2.2-1.7 3.3-.1.2 0 .6.2.4 1.4-1.2 2.9-4.5 2.8-6.8 0-.7-.2-1.4-.8-1.4-.3 0-.6.1-.8.4 1.1-4.1 2.5-7.5 4.9-10.9.2-.3.1-.6-.1-.4z" fill="#d58464" stroke-width="none" opacity="1" stroke="none"></path></g></g><g id="svga-group-faceshape-wrap" transform="matrix(1,0,0,1,0,0)"><g id="svga-group-faceshape-single"><path id="SvgjsPath9421" d="M141 88.4c0 30.3-18.9 65.2-41 65.2s-41-34.9-41-65.2 18.9-47 41-47 41 16.6 41 47z" fill="#f4baa3" stroke-width="none" opacity="1" stroke="none"></path><path id="SvgjsPath9422" d="M100 41.3c-22.1 0-41.1 16.7-41.1 47s19 65.5 41.1 65.5 41.1-35.2 41.1-65.5-19-47-41.1-47zm28.2 13.6.8.8c.3.3.5.6.8.9.3.3.5.6.8.9l.7.9c.2.3.5.6.7.9l.7 1 .3.5.3.5c.4.7.9 1.3 1.2 2l.6 1c.2.3.4.7.5 1l.5 1.1.5 1.1c.2.4.3.7.5 1.1l.4 1.1c2.3 5.9 3.2 12.4 3.3 18.7 0 6.4-.9 12.8-2.6 18.9-.8 3.1-1.9 6.1-3.1 9-1.2 2.9-2.5 5.8-4 8.6s-3.1 5.5-4.8 8.1c-.9 1.3-1.8 2.6-2.7 3.8-.9 1.2-1.9 2.4-3 3.6-2 2.3-4.3 4.4-6.7 6.3-2.4 1.8-5 3.3-7.8 4.3-1.4.5-2.8.9-4.3 1-1.5.2-2.9.2-4.4.1-3-.2-5.9-1.2-8.6-2.6-2.7-1.4-5.3-3.3-7.6-5.4-2.3-2.1-4.4-4.5-6.3-7.1s-3.6-5.3-5-8.1c-1.5-2.8-2.8-5.7-3.9-8.7-.6-1.5-1.1-3-1.6-4.5s-.9-3-1.3-4.6c-.8-3.1-1.4-6.2-1.8-9.3-.4-3.1-.7-6.3-.8-9.4 0-1.6 0-3.1.1-4.7 0-.8.1-1.6.1-2.3l.2-2.3c.3-3.1.9-6.2 1.7-9.1.8-3 1.8-5.9 3.2-8.6.2-.4.3-.7.5-1l.5-1c.4-.7.8-1.3 1.2-2 .4-.6.8-1.3 1.3-1.9l.7-.9.3-.5.4-.4c1.9-2.4 4.1-4.5 6.5-6.3s5-3.3 7.8-4.5 5.7-2 8.6-2.5c.7-.2 1.5-.2 2.2-.3.4-.1.8-.1 1.1-.1l1.1-.1c.8 0 1.5-.1 2.3-.1H102.6l1.1.1c.4 0 .8.1 1.1.1.4 0 .8.1 1.1.1l1.1.2.6.1.6.1 1.1.2c.4.1.7.2 1.1.3s.7.2 1.1.3c1.4.4 2.9.9 4.3 1.5s2.8 1.2 4.1 2c2.7 1.5 5.2 3.3 7.4 5.4l.4.4.5.3z" fill="#c66c49" stroke-width="none" opacity="1" stroke="none"></path></g></g><g id="svga-group-mouth-single-move" transform="matrix(1,0,0,1,0,0)"><g id="svga-group-mouth-single" transform="matrix(1,0,0,1,0,0)"><path id="SvgjsPath9651" d="M84.5 124.5c.2 0 5.6 6.5 8.5 8 2.9 1.4 9 2 12.5.7s9.5-9.1 9.5-9.1-6.4 1.8-9.9 2.2c-3.5.4-11.7-.2-15-.7s-5.6-1.1-5.6-1.1z" fill="#000000" stroke-width="none" opacity="1" transform="translate(0 3)"></path><path id="SvgjsPath9652" d="M90 125.6c-3.3-.5-5.5-1.1-5.5-1.1.1 0 1.7 1.9 3.6 3.8 2.2.9 5.1 2 7.5 2.4 4.6.7 10.4.2 15.2-2.1.3-.1.6-.3.8-.4 1.9-2.1 3.4-4 3.4-4s-6.4 1.8-9.9 2.2c-3.6.3-11.8-.3-15.1-.8z" fill="#ffffff" stroke-width="none" opacity="1" transform="translate(0 3)"></path><path id="SvgjsPath9653" d="M116.9 123.3c-.1-.1-.1-.2-.2-.3-.3-.3-.6-.6-1-.6-.3 0-.5.4-.3.6 0 .1.1.1.1.2-2.4.4-4.8 1.2-7.2 1.6-2.9.5-5.9.6-8.8.7-1.3.1-7.09-.46-8.69-.66-2.4-.4-4.61-.94-7.01-1.24v-.5c-.1-.1-.2-.2-.3-.2-.4 0-.5.3-.7.6-.2.3-.3.6-.4.8-.2.5.4.9.8.4.1-.1.2-.3.3-.4 3.1 2.3 5.2 5.4 8.1 7.7 2.8 2.3 5.8 2.9 9.4 3 3.5.1 6.8-.8 9.2-3.5 1.1-1.2 1.9-2.5 2.9-3.8s2.1-2.3 3.2-3.4c.1.2.2.4.4.5.2.1.4.1.5-.1.3-.2 0-1-.3-1.4zm-6.5 5.1c-2.7 3-5.5 4.3-9.6 4.6s-7.5-.4-10.5-3.3c-1.5-1.4-2.8-3.1-4.4-4.4 1.8.6 3.9.9 5.6 1.2 1.4.3 6.11.92 8.4.9 2.8.1 5.6-.5 8.4-1.1 1.7-.3 3.4-.7 5-1.2-1.1 1-2 2.3-2.9 3.3z" fill="#fe856a" stroke-width="none" opacity="1" transform="translate(0 3)"></path></g></g><g id="svga-group-eyes-left-move" transform="matrix(1,0,0,1,0,0)"><g id="svga-group-eyes-left" transform="matrix(1,0,0,1,0,0)"><g id="svga-group-eyesback-left"><path id="SvgjsPath9477" d="M92.3 99.5s-1.4-2.7-3.1-3.9c-1.7-1.3-4.6-3.1-9.3-2.1-4.7.9-8 4.7-8 4.7s5.9 2.2 11.3 2.2c5.3-.1 9.1-.9 9.1-.9z" fill="#ffffff" stroke-width="none" opacity="1"></path></g><g id="svga-group-eyesiriswrapper-left" transform="matrix(1,0,0,1,0,0)"><g id="svga-group-eyesiriscontrol-left" transform="matrix(1,0,0,1,0,0)"><g id="svga-group-eyesiris-left" transform="matrix(1,0,0,1,0,0)"><path id="SvgjsPath9435" d="M82.1 91.3c2.8 0 5.1 2.3 5.1 5.1s-2.3 5.1-5.1 5.1-5.1-2.3-5.1-5.1 2.3-5.1 5.1-5.1z" fill="#00f0f1" stroke-width="none" opacity="1"></path><path id="SvgjsPath9436" d="M86.5 93.6c.4.6.6 1.2.8 1.9.2.7.2 1.4.1 2.1s-.4 1.4-.8 2-.9 1.1-1.5 1.5-1.3.6-2 .7-1.4.1-2.1-.1c-1.3-.3-2.6-1.1-3.4-2.2-.4-.6-.7-1.2-.9-1.9-.2-.7-.2-1.4 0-2.1.1-.7.4-1.4.8-2s.9-1.1 1.5-1.5 1.3-.7 2-.8 1.4-.1 2.1.1c1.5.3 2.6 1.2 3.4 2.3zm-.1.1-.3-.4c-.1-.1-.2-.2-.3-.4-.1-.1-.2-.2-.4-.3-.1-.1-.3-.2-.4-.3-.6-.3-1.2-.6-1.8-.7-1.3-.2-2.6.1-3.6.8-1.1.7-1.8 1.8-2.1 3-.3 1.2-.1 2.6.6 3.7.3.6.8 1.1 1.3 1.4.5.4 1.2.7 1.8.8.7.1 1.3.1 1.9-.1s1.2-.4 1.8-.8c.5-.4 1-.8 1.3-1.3.4-.5.7-1.1.8-1.7.2-.6.2-1.3.2-1.9-.2-.6-.4-1.3-.8-1.8z" fill="#00d2d2" stroke-width="none" opacity="1"></path><path id="SvgjsPath9437" d="M82.1 94.6c1 0 1.8.8 1.8 1.8s-.8 1.8-1.8 1.8-1.8-.8-1.8-1.8.8-1.8 1.8-1.8z" fill="#000000" stroke-width="none" opacity="1"></path><path id="SvgjsPath9438" d="M82.1 98.4c-1.1 0-2-.9-2-2s.9-2 2-2 2 .9 2 2c0 1.2-.9 2-2 2zm0-3.6c-.9 0-1.7.7-1.7 1.7s.7 1.7 1.7 1.7c.9 0 1.7-.7 1.7-1.7s-.8-1.7-1.7-1.7z" fill="#00d2d2" stroke-width="none" opacity="1"></path><path id="SvgjsPath9439" d="M79.7 92.6c.4-.2 1.1.2 1.6 1.1.5.8.5 1.7.1 1.9-.4.2-1.1-.2-1.6-1.1-.4-.8-.5-1.7-.1-1.9zm3.6 4.8c.3 0 .6.3.6.6s-.3.6-.6.6-.6-.3-.6-.6.3-.6.6-.6z" fill="#ffffff" stroke-width="none" opacity="1"></path></g></g></g><g id="svga-group-eyesfront-left"><path id="SvgjsPath9485" d="M70.73 98.03c0 6.9 4.93 12.5 11.02 12.5s11.02-5.6 11.02-12.5-4.93-12.5-11.02-12.5-11.02 5.59-11.02 12.5zm1.2.17s3.31-3.76 8-4.69c4.69-.93 7.55.87 9.25 2.12 1.7 1.25 3.12 3.92 3.12 3.92s-3.76.77-9.09.84c-5.34.06-11.28-2.19-11.28-2.19z" fill="#f4baa3" stroke-width="none" opacity="1" stroke="none"></path><path id="SvgjsPath9486" d="M91.56 97.86s-2.08-4.66-7.97-5.44c-5.89-.79-14.54 3.87-15.21 5.61-.67 1.74 14.43 3.48 18.3 2.53 0 0-11.56-.39-14.54-2.3 0 0 2.3-4.27 8.93-4.83 6.61-.57 10.04 3.7 10.49 4.43z" fill="#f4baa3" stroke-width="none" opacity="1" stroke="none"></path><path id="SvgjsPath9487" d="M92.49 100.56c-2.99 2.4-6.96 3.48-10.76 3.36-.17-.01-.17-.25 0-.26 3.97-.16 7.22-1.31 10.68-3.21.07-.04.15.05.08.11z" fill="#e59e82" stroke-width="none" opacity="1" stroke="none"></path><path id="SvgjsPath9488" d="M71.75 98.72c6.44 2.32 13.78 2.6 20.43.97.13.06.34-.05.27-.21-3.52-8.75-15.59-8.02-20.9-1.51-.22.27-.14.63.2.75zm.88-.65c5.34-6.21 15.21-6.15 19.35 1.37-6.45 1.12-13.13.73-19.35-1.37z" fill="#2a150e" stroke-width="none" opacity="1" stroke="none"></path></g></g></g><g id="svga-group-eyes-right-move" transform="matrix(1,0,0,1,0,0)"><g id="svga-group-eyes-right" transform="matrix(1,0,0,1,0,0)"><g id="svga-group-eyesback-right"><path id="SvgjsPath9478" d="M107.7 99.5s1.4-2.7 3.1-3.9c1.7-1.3 4.6-3.1 9.3-2.1 4.7.9 8 4.7 8 4.7s-5.9 2.2-11.3 2.2c-5.3-.1-9.1-.9-9.1-.9z" fill="#ffffff" stroke-width="none" opacity="1"></path></g><g id="svga-group-eyesiriswrapper-right" transform="matrix(1,0,0,1,0,0)"><g id="svga-group-eyesiriscontrol-right" transform="matrix(1,0,0,1,0,0)"><g id="svga-group-eyesiris-right" transform="matrix(1,0,0,1,0,0)"><path id="SvgjsPath9440" d="M118 91.3c2.8 0 5.1 2.3 5.1 5.1s-2.3 5.1-5.1 5.1-5.1-2.3-5.1-5.1 2.3-5.1 5.1-5.1z" fill="#00f0f1" stroke-width="none" opacity="1"></path><path id="SvgjsPath9441" d="M122.4 93.6c.4.6.6 1.2.8 1.9.2.7.2 1.4.1 2.1s-.4 1.4-.8 2-.9 1.1-1.5 1.5-1.3.6-2 .7-1.4.1-2.1-.1c-1.3-.3-2.6-1.1-3.4-2.2-.4-.6-.7-1.2-.9-1.9-.2-.7-.2-1.4 0-2.1.1-.7.4-1.4.8-2s.9-1.1 1.5-1.5 1.3-.7 2-.8 1.4-.1 2.1.1c1.5.3 2.7 1.2 3.4 2.3zm-.1.1-.3-.4c-.1-.1-.2-.2-.3-.4-.1-.1-.2-.2-.4-.3-.1-.1-.3-.2-.4-.3-.6-.3-1.2-.6-1.8-.7-1.3-.2-2.6.1-3.6.8-1.1.7-1.8 1.8-2.1 3-.3 1.2-.1 2.6.6 3.7.3.6.8 1.1 1.3 1.4.5.4 1.2.7 1.8.8.7.1 1.3.1 1.9-.1s1.2-.4 1.8-.8c.5-.4 1-.8 1.3-1.3.4-.5.7-1.1.8-1.7.2-.6.2-1.3.2-1.9-.2-.6-.4-1.3-.8-1.8z" fill="#00d2d2" stroke-width="none" opacity="1"></path><path id="SvgjsPath9442" d="M118 94.6c1 0 1.8.8 1.8 1.8s-.8 1.8-1.8 1.8-1.8-.8-1.8-1.8.8-1.8 1.8-1.8z" fill="#000000" stroke-width="none" opacity="1"></path><path id="SvgjsPath9443" d="M118 98.4c-1.1 0-2-.9-2-2s.9-2 2-2 2 .9 2 2c0 1.2-.9 2-2 2zm0-3.6c-.9 0-1.7.7-1.7 1.7s.7 1.7 1.7 1.7c.9 0 1.7-.7 1.7-1.7s-.8-1.7-1.7-1.7z" fill="#00d2d2" stroke-width="none" opacity="1"></path><path id="SvgjsPath9444" d="M115.6 92.6c.4-.2 1.1.2 1.6 1.1.5.8.5 1.7.1 1.9-.4.2-1.1-.2-1.6-1.1-.4-.8-.5-1.7-.1-1.9zm3.6 4.8c.3 0 .6.3.6.6s-.3.6-.6.6-.6-.3-.6-.6.3-.6.6-.6z" fill="#ffffff" stroke-width="none" opacity="1"></path></g></g></g><g id="svga-group-eyesfront-right"><path id="SvgjsPath9489" d="M118.26 85.53c-6.08 0-11.02 5.6-11.02 12.5s4.93 12.5 11.02 12.5 11.02-5.6 11.02-12.5-4.94-12.5-11.02-12.5zm-1.47 14.85c-5.33-.06-9.09-.84-9.09-.84s1.41-2.67 3.12-3.92c1.7-1.25 4.56-3.05 9.25-2.12 4.69.93 8 4.69 8 4.69s-5.94 2.26-11.28 2.19z" fill="#f4baa3" stroke-width="none" opacity="1" stroke="none"></path><path id="SvgjsPath9492" d="M108.44 97.86s2.08-4.66 7.97-5.44c5.89-.79 14.54 3.87 15.21 5.61.67 1.74-14.43 3.48-18.3 2.53 0 0 11.56-.39 14.54-2.3 0 0-2.3-4.27-8.93-4.83-6.61-.57-10.04 3.7-10.49 4.43z" fill="#ecac92" stroke-width="none" opacity="1" stroke="none"></path><path id="SvgjsPath9493" d="M107.51 100.56c2.99 2.4 6.96 3.48 10.76 3.36.17-.01.17-.25 0-.26-3.97-.16-7.22-1.31-10.68-3.21-.07-.04-.15.05-.08.11z" fill="#e59e82" stroke-width="none" opacity="1" stroke="none"></path><path id="SvgjsPath9494" d="M128.45 97.96c-5.31-6.51-17.38-7.23-20.9 1.51-.07.17.14.28.27.21 6.65 1.63 13.98 1.35 20.43-.97.34-.11.42-.47.2-.75zm-20.43 1.47c4.14-7.52 14.01-7.58 19.35-1.37-6.22 2.11-12.9 2.5-19.35 1.37z" fill="#2a150e" stroke-width="none" opacity="1" stroke="none"></path></g></g></g><g id="svga-group-facehighlight-single"></g><g id="svga-group-eyebrows-left-move" transform="matrix(1,0,0,1,0,0)"><g id="svga-group-eyebrows-left-rotate" transform="matrix(1,0,0,1,0,0)"><g id="svga-group-eyebrows-left" transform="matrix(1,0,0,1,0,0)"><path id="SvgjsPath9538" d="m66.6 88.3.1-.1c.2-.3.5-.5.8-.7.3-.9 1.1-1.6 1.7-2.3.7-.8 1.3-1.6 2-2.3.4-.7.9-1.8 1.7-2 .1 0 .3 0 .3.2.1 0 .1-.1.2-.1h.3c1.8-.1 4.1.2 5.8.5 1.2 0 2.5.3 3.7.4 1.8.2 3.6 0 5.3.2.1 0 .2-.1.3-.1.1 0 .2-.1.2 0h.1c.2-.1.5 0 .5.2.2-.1.4-.2.7-.2.1 0 .2 0 .3.1.2-.1.4.1.3.2-.3.4-.6.9-1 1.3.5-.2 1.1-.4 1.6-.5.2-.2.3-.4.5-.7.2-.2.6 0 .5.3-.2.8-.7 1.5-1.2 2.2-.2.4-.4.7-.6 1.1-.3.4-.5 1-.9 1.3-.4.3-1 .4-1.6.2-1.8 0-4.3.1-5.9-.8-.3 0-.6-.1-.9-.2-1.1.4-2.4.1-3.6-.1-1.1-.1-2.3-.2-3.4-.5-.7.2-1.5.3-2.2.4-.4.1-1 .2-1.4.1l-.9.6c-.4.3-.9.6-1.4.7-.1 0-.1.1-.1.1-.4.3-.8.7-1.3.8-.1 0-.2-.1-.2-.2-.3 0-.3-.1-.3-.1z" fill="#543c32" stroke-width="none" opacity="1"></path><path id="SvgjsPath9539" d="M72.6 81.4c3 .3 6.3 2.6 7.7 5 .1.1-.1.2-.2.1-1.1-1.1-2.2-2.2-3.6-3.1-1.3-.8-2.7-1.2-4.1-1.8 0 0 .1-.2.2-.2zm-3 3.6c.2-.1.5-.1.7-.1-.2 0-.3-.1-.5-.1s-.2-.3 0-.3c1.7-.4 3.5.6 4.8 1.3.1.1 0 .2-.1.2-.8-.3-1.5-.6-2.3-.8h-.1c.3.1.7.3.9.5.2.1 0 .3-.2.2-.5-.2-1.1-.4-1.7-.5-.5-.1-1.1 0-1.6-.1-.1 0-.1-.3.1-.3zm1.5-2.8c2.4-.2 5.7 1.9 6.9 3.8.1.1-.1.3-.2.2-1.1-.8-2-1.7-3.3-2.4-1.1-.6-2.4-.8-3.5-1.3-.1-.1 0-.3.1-.3zm7.9-.9c1.8 1.2 2.9 3.2 3.3 5.2.1.2-.3.3-.4.1-.6-2-1.8-3.4-3.1-5-.1-.2.1-.4.2-.3zm5.1 2.6c0-.2.2-.2.3 0 .4 1 .3 2.1-.1 3-.1.1-.2.1-.2-.1.2-1 .1-1.9 0-2.9zm3.3 3.3c1-.5 1.9-.9 2.7-1.7.7-.8 1.2-1.7 1.7-2.6 0-.1.2 0 .2.1-.7 1.8-2 4.3-4.4 4.4-.3 0-.3-.1-.2-.2z" fill="#634e45" stroke-width="none" opacity="1"></path><path id="SvgjsPath9540" d="M65.5 89.1c-.1.1.1.2.2.2s.1.1.2 0c1-.2 1.9-.9 2.8-1.4 1-.6 2-1.1 2.9-1.7 5.8.6 11.6 1.3 17.4 1.5.2 0 .2-.3.1-.3-1.2-.2-2.3-.3-3.5-.5 1.9-.6 3.4-2.7 3.7-4.4 0-.2-.2-.3-.3-.1-.4.9-.9 1.8-1.6 2.6-.6.7-1.4 1.1-2.1 1.7-.1.1-.1.2 0 .3-.2 0-.4-.1-.6-.1.7-1.5.8-3.2.4-4.7 1.9.1 3.9.2 5.8-.1.2 0 .2-.3 0-.3-2-.3-4.1-.3-6.1-.4-.1-.1-.1-.1-.2 0-.7 0-1.4-.1-2.1-.1-3.1-.2-6.3-.5-9.4-.9-.2 0-.4.1-.5.3-.1-.1-.4-.2-.6 0-1.2 1.3-2.2 2.7-3.2 4.1-1.1 1.2-2.4 2.7-3.3 4.3zm8.6-8c0 .1 0 .2.1.2 1.3.7 2.7 1.4 3.9 2.4 1 .8 1.8 1.8 2.6 2.7-1.7-.2-3.4-.3-5.1-.5-1.4-1.2-3.1-2.1-5-2.2.8-.9 1.5-1.8 2.1-2.8v-.1c.1 0 .1.1.2.1.4.1.8.1 1.2.2zm7 5.3c-1.2-2.2-3.6-4.3-6.2-5.2 1.6.2 3.2.3 4.8.5.5.7 1.2 1.4 1.6 2.2.5.9.7 1.8 1 2.7-.4-.1-.8-.2-1.2-.2zm3.3.4c-.5-.1-1-.1-1.5-.2-.1-1.7-.9-3.7-2.3-4.9.4 0 .9.1 1.3.1.9.1 1.8.1 2.7.2.3 1.7.3 3.1-.2 4.8zm-16 .6c-.5.2-1 .5-1.5.7.8-.9 1.5-1.9 2.3-2.8.4-.5.8-.9 1.2-1.4 1.7.5 3.3 1 4.8 1.9-1.2-.1-2.4-.2-3.7-.3-.1 0-.2 0-.3.1-.4 0-.8 0-1.2.1-.4.1-.9.1-1.2.3-.1.1-.1.2 0 .3.4.1.8 0 1.3-.1.4-.1.7-.1 1.1-.2v.1c-1 .4-1.9.8-2.8 1.3zm21.2-3.7c-.2 0-.3-.2-.1-.4.5-.3 1-.5 1.5-.8.5-.3.9-.7 1.3-1.1.1-.1.2-.1.2-.1.1-.1.3 0 .3.1-.4 2.2-1.2 4.5-3 6.1-.2.2-.6-.1-.4-.3 1.2-1.6 2.2-3.1 2.8-4.9-.6.8-1.6 1.5-2.6 1.4z" fill="#452c22" stroke-width="none" opacity="1"></path></g></g></g><g id="svga-group-eyebrows-right-move" transform="matrix(1,0,0,1,0,0)"><g id="svga-group-eyebrows-right-rotate" transform="matrix(1,0,0,1,0,0)"><g id="svga-group-eyebrows-right" transform="matrix(1,0,0,1,0,0)"><path id="SvgjsPath9541" d="m133.4 88.3-.1-.1c-.2-.3-.5-.5-.8-.7-.3-.9-1.1-1.6-1.7-2.3-.6-.8-1.3-1.6-2-2.3-.4-.7-.9-1.8-1.7-2-.1 0-.3 0-.3.2-.1 0-.1-.1-.2-.1h-.3c-1.8-.1-4.1.2-5.8.5-1.2 0-2.5.3-3.7.4-1.8.2-3.6 0-5.3.2-.1 0-.2-.1-.3-.1-.1 0-.2-.1-.2 0h-.1c-.2-.1-.5 0-.5.2-.2-.1-.4-.2-.7-.2-.1 0-.2 0-.3.1-.2-.1-.4.1-.3.2.3.4.6.9 1 1.3-.5-.2-1.1-.4-1.6-.5-.2-.2-.3-.4-.5-.7-.2-.2-.6 0-.5.3.2.8.7 1.5 1.2 2.2.2.4.4.7.6 1.1.3.4.5 1 .9 1.3.4.3 1 .4 1.6.2 1.8 0 4.3.1 5.9-.8.3 0 .6-.1.9-.2 1.1.4 2.4.1 3.6-.1 1.1-.1 2.3-.2 3.4-.5.7.2 1.5.3 2.2.4.5.1 1 .2 1.5.1l.9.6c.4.3.9.6 1.4.7.1 0 .1.1.1.1.4.3.8.7 1.3.8.1 0 .2-.1.2-.2.2 0 .2-.1.2-.1z" fill="#543c32" stroke-width="none" opacity="1"></path><path id="SvgjsPath9542" d="M127.4 81.4c-3 .3-6.3 2.6-7.7 5-.1.1.1.2.2.1 1.1-1.1 2.2-2.2 3.6-3.1 1.3-.8 2.7-1.2 4.1-1.8 0 0-.1-.2-.2-.2zm3 3.6c-.2-.1-.5-.1-.7-.1.2 0 .3-.1.5-.1s.2-.3 0-.3c-1.6-.4-3.5.6-4.8 1.3-.1.1 0 .2.1.2.8-.3 1.5-.6 2.3-.8h.1c-.3.1-.7.3-.9.5-.2.1 0 .3.2.2.5-.2 1.1-.4 1.7-.5.5-.1 1.1 0 1.6-.1.1 0 .1-.3-.1-.3zm-1.5-2.8c-2.4-.2-5.7 1.9-6.9 3.8-.1.1.1.3.2.2 1.1-.8 2-1.7 3.3-2.4 1.1-.6 2.4-.8 3.5-1.3.1-.1 0-.3-.1-.3zm-7.9-.9c-1.8 1.2-2.9 3.2-3.3 5.2-.1.2.3.3.4.1.6-2 1.8-3.4 3.1-5 .1-.2-.1-.4-.2-.3zm-5.1 2.6c0-.2-.2-.2-.3 0-.4 1-.3 2.1.1 3 .1.1.2.1.2-.1-.2-1-.1-1.9 0-2.9zm-3.3 3.3c-1-.5-1.9-.9-2.7-1.7-.7-.8-1.2-1.7-1.7-2.6 0-.1-.2 0-.2.1.7 1.8 2 4.3 4.4 4.4.3 0 .3-.1.2-.2z" fill="#634e45" stroke-width="none" opacity="1"></path><path id="SvgjsPath9543" d="M131.1 84.5c-1.1-1.4-2.1-2.8-3.2-4.1-.2-.2-.4-.1-.6 0-.1-.2-.2-.3-.5-.3-3.1.4-6.2.7-9.4.9-.7.1-1.4.1-2.1.1-.1 0-.1-.1-.2 0-2.1.1-4.1.1-6.1.4-.2 0-.2.3 0 .3 1.9.3 3.8.2 5.8.1-.5 1.6-.3 3.3.4 4.7-.2 0-.4.1-.6.1.1-.1.1-.2 0-.3-.7-.6-1.5-1-2.1-1.7-.7-.8-1.2-1.7-1.6-2.6-.1-.2-.4-.1-.3.1.3 1.8 1.8 3.8 3.7 4.4-1.2.2-2.3.3-3.5.5-.2 0-.1.3.1.3 5.8-.2 11.6-.9 17.4-1.5 1 .6 1.9 1.2 2.9 1.7.9.5 1.8 1.2 2.8 1.4h.2c.1 0 .2-.1.2-.2-.8-1.3-2.1-2.8-3.3-4.3zm-4-3.6c.1 0 .1 0 .2-.1v.1c.6.9 1.4 1.8 2.1 2.8-1.9.2-3.7 1-5 2.2-1.7.2-3.4.3-5.1.5.8-1 1.6-1.9 2.6-2.7 1.2-1 2.5-1.6 3.9-2.4.1-.1.1-.1.1-.2.4-.1.8-.1 1.2-.2zm-9.4 5.6c.3-.9.5-1.8 1-2.7.4-.8 1.1-1.5 1.6-2.2 1.6-.1 3.2-.3 4.8-.5-2.6.9-5 3-6.2 5.2-.4.1-.8.2-1.2.2zm-2.3-4.5c.9-.1 1.8-.2 2.7-.2.4 0 .9-.1 1.3-.1-1.3 1.2-2.2 3.2-2.3 4.9-.5.1-1 .1-1.5.2-.5-1.7-.5-3.1-.2-4.8zm13.5 4c.4 0 .7.1 1.1.1.4.1.9.2 1.3.1.1 0 .1-.2 0-.3-.4-.2-.8-.2-1.2-.3-.4-.1-.8-.1-1.2-.1-.1-.1-.2-.1-.3-.1-1.2.1-2.4.2-3.7.3 1.5-.9 3.1-1.4 4.8-1.9.4.5.8.9 1.1 1.4.8.9 1.5 1.9 2.3 2.8-.5-.3-1-.5-1.5-.7-.9-.4-1.8-.8-2.7-1.3zm-18.5-2.3c.2 0 .3-.2.1-.4-.5-.3-1-.5-1.5-.8-.5-.3-.9-.7-1.3-1.1-.1-.1-.2-.1-.2-.1-.1-.1-.3 0-.3.1.4 2.2 1.2 4.5 3 6.1.2.2.6-.1.4-.3-1.2-1.6-2.2-3.1-2.8-4.9.6.8 1.6 1.5 2.6 1.4z" fill="#452c22" stroke-width="none" opacity="1"></path></g></g></g><g id="svga-group-nose-single-move" transform="matrix(1,0,0,1,0,0)"><g id="svga-group-nose-single" transform="matrix(1,0,0,1,0,0)"><path id="SvgjsPath9529" d="M104.93 107.57c-.14-.18-.45.05-.32.25.84 1.29 1.76 2.56 2.54 3.89.53.9 1.07 2.03.7 3.12-.61 1.79-2.18 1.68-3.45 1 .48-.61.75-1.33.69-2.12-.02-.19-.29-.37-.44-.18-1.26 1.59-2.06 3.25-4.41 3.34-2.48.1-4.08-1.91-4.73-4.07-.06-.19-.32-.14-.33.04-.07.99.25 1.95.79 2.76-.36.07-.73.14-1.09.16-1.15.07-1.34-.02-2.11-.98-.8-1.01-.81-1.27-.36-2.39.21-.53.52-.98.82-1.45.97-1.52 1.84-3.06 2.48-4.75 1.29-3.37 1.85-7.09 1.22-10.66-.03-.15-.26-.11-.27.04-.01 2.89-.19 5.74-1.04 8.52-.88 2.88-2.54 5.04-3.92 7.64-.72 1.35-1.02 3.12.21 4.28 1.22 1.15 3.1.78 4.52.24.85.92 2.02 1.56 3.26 1.67 1.4.12 3.23-.55 4.36-1.7 1.31 1.45 3.82.78 4.47-1.08 1.01-2.82-2.06-5.64-3.59-7.57z" fill="#c66c49" stroke-width="none" opacity="1" transform="translate(0 2)" stroke="none"></path><path id="SvgjsPath9530" d="M102 110.13c-.8-.75-2.07-.97-2.97-.27-.33.25-.52.57-.61.9-.16.05-.3.14-.44.27-.68.67-.39 1.71.19 2.34.5.53 1.31.78 2.02.75.88-.05 1.67-.46 2.16-1.2.57-.86.4-2.09-.35-2.79z" fill="#fcc9b5" stroke-width="none" opacity="1" transform="translate(0 2)" stroke="none"></path></g></g><g id="svga-group-hair-front" transform="matrix(1,0,0,1,0,0)"><path id="SvgjsPath9593" d="M51.5 147.7c1.1 5.3 2.9 8.2 2.9 8.2s-4.6 8.9 3.3 16.6c6.1 5.9 10.3-4.3 11.8-8.4 1.6-4.4.9-6.3.9-6.3s4.7-8.4 1.1-16.9c-11.9.4-16 4-17.5 2.9-.5-.4-1.2-1.1-1.8-1.9-.6 1-1.3 2.7-.7 5.8zm77.1-5.6s-5.7 4.6 1.1 15.7c0 0-3.4 6.1 4.3 14.4 4.6 5 12.4-8 11.9-15.5s-2.3-7.9-2.3-7.9 1.7-1.8 2.9-4.7c-2.7.2-8.2.1-17.9-2zM88 57s4.8 11.8 23.5 15.3S135 84 136.1 91.2s-2.4 13.5-1.7 18.3c.7 4.8 2.8 4.4 2.2 10.2 0 0 3.5-5.9 2.4-9.8s-.9-5.2.6-8.9 5.4-10.9 4.2-23.8-6.7-25.7-18.3-33.8-32.9-6.4-38.6-.5c0 0-12.8-5.9-23.7 7.6s-9.6 31.6-7 39.2c2.6 7.6 4.1 8.3 4.4 12.2s-.9 6.1-.2 7.9c.7 1.8 2.4 4.2 2.4 4.2s-2-5.4-.4-9.2 2.8-10.2 1.7-14.4.4-7.8 3.5-11.7S80.4 76.9 88 57zM58.3 169.4s-5.4 1.8-5.4 11.3S56 193 56 193s-1.2-4.1-.3-7.4c0 0-.2 10.1 6.9 15.6 0 0-2.3-5.1-.5-7.7s4.9-2.6 6.6-5.6c1.6-2.9 2.1-11 .8-15.2-1.3-4.3-7.7-4.9-11.2-3.3zm73.8-.3s-4.1 2.3-4.9 8.5.5 10.2 5.3 14.5c4.8 4.3 3.5 10.9 3.5 10.9s3.8-4.9 3.2-9.3-1.6-5.1-1.6-5.1 2.3 3.9 2.8 7.9c0 0 3.6-4.6 4.1-8.7s1.9-13.6-4.8-17.7c-5-3-7.6-1-7.6-1z" fill="#543c32" stroke-width="none" opacity="1" stroke="none"></path><path id="SvgjsPath9594" d="M88.9 51.3s5.2 9.2 17.1 14.2 24.7 8.3 29.9 13.8 2.9 16.8 1.9 19.5c0 0 6.4-8.8 2.1-18.5s-30.1-13.8-38.2-19-12.8-10-12.8-10zm1.2-4.3s7.4 7.4 20.2 11.1 27.3 9 32.3 17.8c0 0-1.9-8.8-12.3-15.9s-24.6-3.7-40.2-13zm-3.6 4.3s-3.3 13.3-10.2 18.5-13.8 9-14.2 14c-.5 5 1 8.5 1 8.5S58.5 86.9 60 81c1.4-5.9 9.2-8.5 15.2-13.5s11.3-16.2 11.3-16.2zm-3.3-5.7S77.3 56 70.6 61.7s-12.1 9-13.3 14.2c0 0-.2-5.5 2.6-10.2s7.4-7.4 13-10.7 10.3-9.4 10.3-9.4zm9-3.3s12.3-2.8 21.1-1.4 19.9 8.8 24 17.1 5.2 11.2 5.2 11.2-4-8.8-10-14.5-17.3-14.3-40.3-12.4zM57.6 62.2s5.9-15.9 23.5-18.3c0 .1-15 5.8-23.5 18.3z" fill="#5c453b" stroke-width="none" opacity="1" stroke="none"></path><path id="SvgjsPath9595" d="M63.2 170.2s2.4 4.5 3 8.7-1.8 8.7-3.3 10.6-2 3.8-2 3.8 1.4-3 4.1-4.5c2.7-1.5 3.8-8.7 2.6-11.9-1.3-3.3-4.4-6.7-4.4-6.7zm73.9.8s2.6 3.6 3.7 9.5.1 12.4.1 12.4 2.4-5.3 1.9-9.1-1-7-5.7-12.8zM53 180.7c0 9.5 3.1 12.3 3.1 12.3s-1.2-4.1-.3-7.4c0 0-.2 10.1 6.9 15.6 0 0-.5-1-.8-2.4-1.1-1.4-2.1-3.2-2.3-5.5-.4-5-.5-14.9-.4-17.9s-.7-6-.7-6h-.1c-.8.3-5.4 2.5-5.4 11.3zm90.5-31.9s.1 0 0 0c.1-.1.1-.1 0 0l.2-.2.1-.1c.1-.1.1-.2.2-.3v-.1l.3-.3s0-.1.1-.1c1-1.4 2.6-4 3.1-7.3-.9 2.6-2.9 4.8-5.2 6.2-3.9 2.4-8.3 4.6-9.7 6.7s-1.8 5.4-1.1 7.4c0 0 .2-3.8 5.3-7 2.2-1.4 4.1-2.3 5.4-3.3.8 1.2 1.3 3.7 1.1 6.5-.2 3.7-2.1 9.6-3.4 11.6-1.3 1.9-2.8 2.6-2.8 2.6s1.3.1 2.6 0c3.5-3.8 6.4-11.1 5.8-15.9-.7-5.3-2-6.4-2-6.4zm-88.6 2.7c-2.1-1.7-3.2-5.5-3.4-8-.3 1-.4 2.3 0 4.2 1.1 5.3 2.9 8.2 2.9 8.2 3.3 3.2 4.1 2.4 6.6 3.9s3.1 4.9 3.1 4.9 1.3-5.2-.7-7.6-5.7-3.2-8.5-5.6zm5.8 20.4s-2.1-2.1-5-5.8c-1.6-2-2.1-4.8-2.3-6.9-.6 3-.6 7.6 3 11.9 2 .6 4.3.8 4.3.8zm9.5-15.4c2.9-5.3 2.5-10.4 1.3-12.5-1.2-2.1-3.6-4.8-3.6-4.8s2.3 6.4 1.7 9.6c-.3 2.1-1.7 3.6-2.5 4.4-.9-.8-2-1.5-3-1.9-2.3-.9-4.6-4.4-4.6-4.4.3 3.2 4.5 6.4 6 8 1.5 1.5 1.3 4.3 1.3 4.3s0 8.8-3 10.9c0 0 1.1.8 3.3-.6 1.1-1.9 1.9-4 2.4-5.4 1.6-4.4.9-6.3.9-6.3s0-.6-.2-1.3zm58.9-14.1s-1.9 2.8-1.4 7c.4 4.2 3.1 8.2 3.1 8.2s-2-8.8 1.8-15.6l-2-1.4-1.5 1.8zm6 47.2c-3.5-6.2-5.6-10.5-3.9-14.3.5-1.1.9-2.3 1.4-3.2.7-.9 1.6-1.8 2.8-2.7 0 0-1.9-2.2-1.9-5.9s2.1-6.7 2.1-6.7-4.2 2.5-4.5 7.1c-.3 4.6.4 5.5.4 5.5-1.2.9-3.7 3.4-4.3 8.1-.8 6.2.5 10.2 5.3 14.5 4 3.6 3.7 8.9 3.5 10.4 0 .1 2.7-6.5-.9-12.8z" fill="#452c22" stroke-width="none" opacity="1" stroke="none"></path><path id="SvgjsPath9596" d="M68.6 170.1c-.1-.2-.3-.2-.5-.3 0-.2 0-.3-.1-.5.2-.3.4-.6.4-.9 0-.2-.1-.4-.3-.4-.5-.1-.9.1-1.3.4-.2 0-.4.1-.7.2-1.4.9-3.7.7-5.3.8-1 .1-2.1.2-3.1.3-.8-.2-1.6-.4-2.4-.8-.7-.3-1.5.6-.9 1.1.2.2.5.4.8.6-.5.4-.5 1.3.3 1.6 1.1.4 2.8.9 4.2.7 1.4.3 3.1-.2 4.5-.4 1.1-.2 2.2-.3 3-1h.3c.7 0 1.8-.6 1.1-1.4zm73.8-2c-.6 0-1.1.2-1.6.3-.4.1-.7.1-1.1.2-.8-.1-1.7 0-2.5 0-1.2 0-2.5 0-3.8-.1-.5-.1-1-.2-1.4-.4-.7-.3-1.3-.8-2.1-.9-.5-.1-1.1.3-.9.9.1.2.2.5.4.7h-.2c-.3 0-.5.3-.4.6.3.8.8 1.2 1.4 1.5.1 0 .1.1.2.1 0 0 .1 0 .1.1.7.4 1.6.5 2.3.6.5.1 1.3.2 1.9 0 2.3.3 4.7.5 7 .1.7-.1.9-.8.8-1.4.4-.3.6-.7.8-1.2.2-.5-.3-1.1-.9-1.1z" fill="#000000" stroke-width="none" opacity="1"></path></g><g id="svga-group-glasses-single-move" transform="matrix(1,0,0,1,0,0)"><g id="svga-group-glasses-single" transform="matrix(1,0,0,1,0,0)"></g></g></g></g></g><rect id="svga-credit-rect" width="200" height="15" x="0" y="185" fill="#ecf0f1" opacity="0.5" style="display: none;"></rect><text id="svga-credit-text" font-family="Avenir Next, Roboto, Helvetica, Arial, sans-serif" font-size="10px" text-anchor="start" font-weight="400" size="10px" anchor="start" weight="400" fill="#333333" x="33.40447998046875" y="182.60824704170227" style="display: none;"><tspan id="SvgjsTspan8937" dy="13" x="33.40447998046875">Created on AvatarMaker.com</tspan></text></g></svg>