<svg xmlns="http://www.w3.org/2000/svg" version="1.1" width="600px" height="600px" viewBox="0 0 200 200" style="overflow:hidden!important;"><defs id="SvgjsDefs18865"></defs><g id="svga-group-wrapper"><g id="svga-group-backs-single"><path id="SvgjsPath19526" d="M0 0h200v200H0V0z" fill="#547980" stroke-width="none" opacity="1" stroke="none"></path><path id="SvgjsPath19527" d="M165.5 23.7c11.7 0 21.1 9.5 21.1 21.1S177.2 66 165.5 66s-21.1-9.5-21.1-21.1 9.4-21.2 21.1-21.2zm-77.3 86.5c11.7 0 21.1 9.5 21.1 21.1s-9.5 21.1-21.1 21.1-21.1-9.5-21.1-21.1 9.4-21.1 21.1-21.1zm-37.8 48.9c9.1 0 16.6 7.4 16.6 16.6s-7.4 16.6-16.6 16.6-16.6-7.4-16.6-16.6 7.5-16.6 16.6-16.6zm-.3-132.8c9.1 0 16.6 7.4 16.6 16.6s-7.4 16.6-16.6 16.6S33.5 52 33.5 42.8s7.4-16.5 16.6-16.5zm60.3-7.2c2.7 0 4.8 2.2 4.8 4.8s-2.2 4.8-4.8 4.8-4.8-2.2-4.8-4.8 2.1-4.8 4.8-4.8zm-91.5 97.1c2.7 0 4.8 2.2 4.8 4.8s-2.2 4.8-4.8 4.8-4.8-2.2-4.8-4.8 2.1-4.8 4.8-4.8zm120-5.7c4.8 0 8.8 3.9 8.8 8.8s-3.9 8.8-8.8 8.8-8.8-3.9-8.8-8.8 4-8.8 8.8-8.8z" fill="#3f6971" stroke-width="none" opacity="1" stroke="none"></path><path id="SvgjsPath19528" d="M101.8 45.4c14.2 0 25.8 11.5 25.8 25.8S116 97 101.8 97 76 85.4 76 71.2s11.5-25.8 25.8-25.8zm21.6 117.7c7.5 0 13.6 6.1 13.6 13.6s-6.1 13.6-13.6 13.6-13.6-6.1-13.6-13.6 6-13.6 13.6-13.6zm-88.6-35.9c7.2 0 13 5.8 13 12.9S42 153 34.8 153s-13-5.8-13-12.9 5.8-12.9 13-12.9zM55 88.8c2.1 0 3.8 1.7 3.8 3.8s-1.7 3.8-3.8 3.8-3.8-1.7-3.8-3.8 1.7-3.8 3.8-3.8zm44.9 78.4c2.1 0 3.8 1.7 3.8 3.8s-1.7 3.8-3.8 3.8-3.8-1.7-3.8-3.8 1.7-3.8 3.8-3.8zm79.9-82.1c2.1 0 3.8 1.7 3.8 3.8s-1.7 3.8-3.8 3.8-3.8-1.7-3.8-3.8 1.7-3.8 3.8-3.8zM66.7 16.5c2.1 0 3.8 1.7 3.8 3.8s-1.7 3.8-3.8 3.8-3.8-1.7-3.8-3.8 1.7-3.8 3.8-3.8zm-46.8-4.3c2.7 0 4.8 2.2 4.8 4.8s-2.2 4.8-4.8 4.8-4.8-2.2-4.8-4.8 2.1-4.8 4.8-4.8zM15.5 180c2.7 0 4.8 2.2 4.8 4.8s-2.2 4.8-4.8 4.8-4.8-2.2-4.8-4.8 2.2-4.8 4.8-4.8zM149.1 77.2c4.7 0 8.4 3.8 8.4 8.4s-3.8 8.4-8.4 8.4-8.4-3.8-8.4-8.4 3.7-8.4 8.4-8.4zM145.8 5c4.7 0 8.4 3.8 8.4 8.4s-3.8 8.4-8.4 8.4-8.4-3.8-8.4-8.4 3.7-8.4 8.4-8.4zM35.3 70.3c4.8 0 8.8 3.9 8.8 8.8s-3.9 8.8-8.8 8.8-8.8-3.9-8.8-8.8 4-8.8 8.8-8.8zm127.8 58.9c14 0 25.3 11.3 25.3 25.3s-11.3 25.3-25.3 25.3-25.3-11.3-25.3-25.3 11.4-25.3 25.3-25.3z" fill="#2c5961" stroke-width="none" opacity="1" stroke="none"></path></g><g id="svga-group-humanwrap-move" transform="matrix(1,0,0,1,0,0)"><g id="svga-group-humanwrap" transform="matrix(0.9499999,0,0,0.9499999,4.985009149838447,6.040011851117711)"><g id="svga-group-hair-back-move" transform="matrix(1,0,0,1,0,0)"><g id="svga-group-hair-back" transform="matrix(0.9799997000000001,0,0,0.9998997000000002,0,0)"></g></g><g id="svga-group-humanbody-back"><path id="SvgjsPath19266" d="M166.5 181.1c-10.9-6.6-27.6-8.4-35-12.1-4.9-2.5-9.1-4.7-8.9-17.8s1.9-42.4 1.9-42.4H75.4s1.6 29.4 1.9 42.4-4.2 15.6-8.9 17.8c-7.4 3.5-24.1 5.4-35 12.1-10.8 6.6-10 18.9-10 18.9v19.7h153.3V200c-.1 0 .7-12.3-10.2-18.9z" fill="#f6e4e2" stroke-width="none" opacity="1" stroke="none"></path></g><g id="svga-group-chinshadow-single"><path id="SvgjsPath19632" d="M77.2 155.2c5.1 2.8 7.7 4.2 9.6 6.5 2.6 3.2 10.3 4.4 13.2 4.4 3 0 10.7-1.2 13.2-4.4 1.9-2.3 4.5-3.7 9.5-6.4-.1-1.2-.1-2.6-.1-4.1.2-13.1 1.9-42.4 1.9-42.4H75.4s1.6 29.4 1.9 42.4c0 1.5 0 2.8-.1 4z" fill="#d7a19b" stroke-width="none" opacity="0.65" stroke="none"></path></g><g id="svga-group-humanbody-front"><path id="SvgjsPath19267" d="M78.7 156.8c.5 4.8 1.7 9.4 3.1 13.9.8 2.3 1.6 4.6 2.6 6.9.8 2 1.7 4.2 3.1 5.9.3.4 1 0 .9-.5-.5-2.2-1.6-4.3-2.4-6.4-.9-2.2-1.7-4.4-2.5-6.6-1.5-4.4-2.8-8.9-4.1-13.3-.2-.4-.8-.3-.7.1zm41.3-1c-1.3 8.2-3.9 16.1-5.4 24.2-.1.4.4.5.6.2 3.1-7.7 4.1-16.1 5.1-24.3-.1-.2-.3-.2-.3-.1zm-25.8 11.9c-.9 3.6 1.9 8.6 6.2 7.6.5-.1.4-.8 0-1-1.4-.5-2.9-.9-3.9-2.1-1.1-1.2-1.5-2.9-1.4-4.5 0-.4-.8-.5-.9 0z" fill="#d7a19b" stroke-width="none" opacity="1" stroke="none"></path><path id="SvgjsPath19268" d="M177.3 219.7c-.1-6.6-.3-13.1-.3-19.7l-.3-.3c.1 0 .1 0 .2.1s.1.2.1.1v-1.4c0-.5-.1-.9-.1-1.4-.1-.9-.3-1.9-.5-2.8-.5-1.8-1.1-3.6-2-5.3-1.7-3.4-4.4-6.2-7.7-8.1-3.6-2.2-7.6-3.8-11.6-5.1-4-1.3-8.1-2.4-12.1-3.5-4-1.2-8.1-2.2-11.8-4.2-1.9-1-3.6-2.1-4.8-3.6-1.2-1.6-1.9-3.5-2.3-5.5-.8-4-.4-8.2-.3-12.4l.7-12.6 1.5-25.2.1-1.4h-1.4c-8.2 0-16.4 0-24.6.1l-24.6.3h-.9l.1.9c.8 11.9 1.6 23.8 2.1 35.7.1 3 .3 6 .2 8.9-.1 2.9-.4 5.9-1.6 8.6-.6 1.3-1.4 2.5-2.4 3.5s-2.3 1.8-3.6 2.4c-2.6 1.3-5.4 2.2-8.3 3-5.8 1.5-11.6 2.8-17.3 4.7-2.8.9-5.7 2-8.4 3.4-1.3.7-2.7 1.4-4 2.4-1.3.9-2.4 1.9-3.5 3.1-2.1 2.3-3.6 5.2-4.5 8.1-.5 1.5-.8 3-1 4.6-.1.8-.1 1.6-.1 2.4v2.3l-.2 17.9v1.3h1.4l38.3.2c12.8.1 25.5.1 38.3 0 12.8-.1 25.6-.1 38.3-.3 12.8-.2 25.6-.5 38.3-.7h.6v-.5zm-77.2-1.6H61.8l-37 .2-.1-16.6v-2.2c0-.7 0-1.4.1-2.1.1-1.4.4-2.8.8-4.2.8-2.7 2.1-5.3 3.9-7.5.9-1.1 2-2.1 3.1-2.9 1.1-.9 2.4-1.6 3.7-2.3 2.6-1.4 5.3-2.5 8.1-3.5 5.6-2 11.4-3.4 17.1-5.1 2.9-.8 5.8-1.7 8.5-3.1 1.3-.7 2.7-1.5 3.8-2.6 1.1-1.1 2-2.4 2.6-3.9 1.2-2.9 1.5-5.9 1.6-8.9 0-3-.1-6-.2-9l-1.3-34.8 23.5.4c7.7.1 15.4.1 23.1.1-.4 7.9-.8 15.9-1.1 23.8-.2 4.2-.2 8.4-.3 12.6 0 4.2-.2 8.5.8 12.8.5 2.1 1.3 4.2 2.8 6 1.4 1.7 3.4 2.9 5.3 3.8 3.9 1.9 8 2.8 12.1 3.8s8.2 2 12.2 3.3c4 1.3 7.9 2.8 11.5 5 3.2 1.9 5.8 4.7 7.5 8 .9 1.6 1.5 3.4 1.9 5.2.2.9.4 1.8.4 2.7.1.5.1.9.1 1.4V200l-.3 19c-12.6-.2-25.1-.5-37.7-.7-12.7-.1-25.5-.1-38.2-.2z" fill="#c8837c" stroke-width="none" opacity="1" stroke="none"></path></g><g id="svga-group-clothes-single"><path id="SvgjsPath19402" d="M149.9 220.3c-.4-19.5 5.9-44.6 5.9-44.6l-12.6-3.6s-8.7 28.3-45.2 27.1-41.2-27.1-41.2-27.1l-12.6 3.6s6.3 25.2 5.9 44.6h99.8z" fill="#386e77" stroke-width="none" opacity="1"></path><path id="SvgjsPath19403" d="m156 174.9-12.6-3.6c-.4-.1-.9.1-1.1.5-.7 2-1.7 4.1-2.9 6-1.1 1.9-2.4 3.8-3.9 5.5-1.4 1.7-3 3.3-4.7 4.8-1.7 1.4-3.5 2.8-5.4 3.9-3.8 2.4-8 4.1-12.4 5.2-4.4 1.1-8.9 1.6-13.4 1.6s-9.1-.4-13.5-1.4c-1.1-.2-2.2-.5-3.3-.8-1.1-.4-2.2-.7-3.2-1.1-2.1-.8-4.2-1.7-6.2-2.9-3.9-2.2-7.5-5.2-10.2-8.7-1.4-1.8-2.6-3.7-3.6-5.7s-1.8-4.1-2.2-6.3c-.1-.3-.4-.5-.8-.4L44 174.9c-.4.1-.6.5-.5.9.8 3.6 1.6 7.3 2.3 11 .7 3.7 1.3 7.4 1.8 11.1.5 3.7.9 7.4 1.2 11.2.3 3.7.4 7.5.3 11.2 0 .6.5 1.1 1.1 1.1l25.2-.1c8.4 0 16.8-.1 25.1-.2l12.5-.1 12.4-.2 24.7-.4c.1-3.8.3-7.6.7-11.3.4-3.7.9-7.4 1.4-11.2.6-3.7 1.3-7.4 2-11.1.8-3.7 1.5-7.4 2.4-11 0-.4-.2-.8-.6-.9zm-3.3 11.6c-.7 3.7-1.2 7.4-1.7 11.2s-.9 7.5-1.1 11.3c-.2 3.8-.3 7.5-.1 11.2l-25.2-.4-12.5-.2-12.4-.1c-8.3-.1-16.6-.2-24.8-.2l-23.7-.1c0-3.4-.2-6.9-.4-10.3-.3-3.8-.8-7.5-1.3-11.3-1.1-7.2-2.5-14.4-4.2-21.5l11.2-3.3c2.5 8.9 8.9 16.1 16.8 20.4 8.1 4.5 17.4 6.2 26.5 6.3 4.6.1 9.2-.3 13.7-1.3s8.9-2.6 12.9-5c4-2.3 7.6-5.4 10.6-8.9 2.8-3.4 5.2-7.1 6.8-11.3l11.1 3.1c-.8 3.5-1.6 7-2.2 10.4z" fill="#184f58" stroke-width="none" opacity="1"></path></g><g id="svga-group-head" transform="matrix(1,0,0,1,0,0)"><g id="svga-group-ears-left-move" transform="matrix(1,0,0,1,1.5,0)"><g id="svga-group-ears-left" transform="matrix(1,0,0,1,0,0)"><path id="SvgjsPath19412" d="M61.3 90s-2.5-2.4-5.4-3.5-6.1.7-7.1 3.7c-1 2.9 1.3 15.1 5 19.5s6.2 4.8 8.7 2.5c2.5-2.3 7-10.8-1.2-22.2z" fill="#f6e4e2" stroke-width="none" opacity="1" stroke="none"></path><path id="SvgjsPath19413" d="M62.6 91.8c.4.6.8 1.3 1.2 1.9.4.6.7 1.4 1.1 2 .3.7.6 1.4.9 2.2.2.8.5 1.5.6 2.4.1.4.2.8.2 1.2l.1 1.2c0 1.7-.2 3.4-.7 4.9-.5 1.6-1.2 3-2.2 4.2-.2.3-.5.6-.8.8-.3.2-.6.5-.9.7-.6.4-1.3.7-2.1.8-.7.1-1.5 0-2.2-.3s-1.3-.7-1.8-1.2c-.6-.5-1.1-1-1.6-1.6s-.9-1.1-1.4-1.8c-1.7-2.6-2.6-5.7-3.4-8.7-.4-1.5-.8-3-1.1-4.6s-.6-3.2-.5-4.9c0-.4.1-.9.2-1.3.1-.2.1-.4.2-.6l.3-.6c.4-.7.9-1.3 1.5-1.8 1.2-1 2.6-1.4 4-1.2.7.1 1.4.3 2 .6.6.3 1.2.7 1.8 1.1 1.2.8 2.3 1.6 3.3 2.6l1.3 2zm-4.7-4.1c-.6-.3-1.2-.6-1.8-.8-.6-.2-1.2-.3-1.8-.3-1.2.1-2.3.6-3.3 1.4-.5.4-.9.9-1.2 1.5-.2.3-.3.6-.4.9-.1.3-.2.6-.2.9-.2 1.4-.1 3 .1 4.6.2 1.5.4 3.1.8 4.6.8 3 1.9 6 3.6 8.2.9 1.1 1.9 2.1 3 2.9s2.2 1.3 3.3 1.1c.5-.1 1.1-.3 1.6-.7.5-.4 1-.8 1.4-1.3.8-1 1.5-2.3 1.9-3.7.5-1.4.7-2.8.7-4.3s-.2-3-.4-4.5c-.6-3-2-5.8-3.7-8.2-1.3-.9-2.4-1.7-3.6-2.3z" fill="#e7c1bd" stroke-width="none" opacity="1" stroke="none"></path><path id="SvgjsPath19414" d="M52.6 89.6c3.3.6 5.4 6.1 6 9.8.1.1.1.2.2.3.4.6-.4 1.2-.8.6-.5-.8-1-1.6-1.8-1.9-1.4-.5-2.1 1.1-1.8 2.6.4 1.9 1.6 3 2.6 4.4.1.1 0 .3-.1.2-1.7-1-4.3-4.8-3.1-7.2.9-1.7 2.3-1.4 3.4-.4-.8-2.1-1.4-4.3-3-5.9-.5-.5-1.5-1.4-2.2-1.3-1.3.2-1.3 2.1-1.3 3.4-.1 1.7.1 3.4.4 5 0 .2-.2.2-.3.1-.7-2.4-2-10.4 1.8-9.7z" fill="#d7a19b" stroke-width="none" opacity="1" stroke="none"></path></g></g><g id="svga-group-ears-right-move" transform="matrix(1,0,0,1,-1.5,0)"><g id="svga-group-ears-right" transform="matrix(1,0,0,1,0,0)"><path id="SvgjsPath19415" d="M138.7 90s2.5-2.4 5.4-3.5 6.1.7 7.1 3.7c1 2.9-1.3 15.1-5 19.5s-6.2 4.8-8.7 2.5c-2.5-2.3-7-10.8 1.2-22.2z" fill="#f6e4e2" stroke-width="none" opacity="1" stroke="none"></path><path id="SvgjsPath19416" d="M138.6 89.9c1.1-1 2.2-1.8 3.3-2.6.6-.4 1.2-.7 1.8-1.1.6-.3 1.3-.6 2-.6 1.4-.2 2.8.3 4 1.2.6.5 1.1 1.1 1.5 1.8l.3.6c.1.2.2.4.2.6.1.4.2.9.2 1.3.1 1.7-.2 3.3-.5 4.9s-.7 3.1-1.1 4.6c-.9 3-1.8 6-3.4 8.7-.4.7-.9 1.2-1.4 1.8-.5.6-1 1.1-1.6 1.6s-1.2.9-1.8 1.2c-.7.3-1.4.4-2.2.3-.7-.1-1.4-.4-2.1-.8-.3-.2-.6-.4-.9-.7-.3-.3-.6-.5-.8-.8-1-1.2-1.7-2.6-2.2-4.2s-.7-3.3-.7-4.9l.1-1.2c0-.4.1-.8.2-1.2.1-.8.4-1.6.6-2.4.3-.7.6-1.5.9-2.2.4-.7.7-1.4 1.1-2 .4-.6.8-1.3 1.2-1.9l1.3-2zm.1.1c-1.7 2.4-3 5.2-3.7 8.2-.3 1.5-.5 3-.4 4.5s.3 2.9.7 4.3 1.1 2.6 1.9 3.7c.4.5.8 1 1.4 1.3.5.4 1 .6 1.6.7 1.1.2 2.2-.3 3.3-1.1 1-.8 2.1-1.8 3-2.9 1.7-2.3 2.8-5.2 3.6-8.2.4-1.5.6-3.1.8-4.6s.3-3.1.1-4.6c0-.4-.1-.6-.2-.9-.1-.3-.3-.6-.4-.9-.3-.6-.7-1-1.2-1.5-.9-.8-2.1-1.3-3.3-1.4-.6 0-1.2.1-1.8.3-.6.2-1.2.5-1.8.8-1.4.6-2.5 1.4-3.6 2.3z" fill="#e7c1bd" stroke-width="none" opacity="1" stroke="none"></path><path id="SvgjsPath19417" d="M147.4 89.6c-3.3.6-5.4 6.1-6 9.8-.1.1-.1.2-.2.3-.4.6.4 1.2.8.6.5-.8 1-1.6 1.8-1.9 1.4-.5 2.1 1.1 1.8 2.6-.4 1.9-1.6 3-2.6 4.4-.1.1 0 .3.1.2 1.7-1 4.3-4.8 3.1-7.2-.9-1.7-2.3-1.4-3.4-.4.8-2.1 1.4-4.3 3-5.9.5-.5 1.5-1.4 2.2-1.3 1.3.2 1.3 2.1 1.3 3.4.1 1.7-.1 3.4-.4 5 0 .2.2.2.3.1.7-2.4 2-10.4-1.8-9.7z" fill="#d7a19b" stroke-width="none" opacity="1" stroke="none"></path></g></g><g id="svga-group-faceshape-wrap" transform="matrix(0.9799997000000001,0,0,0.9998997000000002,1.999581842642968,0.009478349617367599)"><g id="svga-group-faceshape-single"><path id="SvgjsPath19622" d="M143.2 82.7v-.3C141.9 52 122.5 35.3 100 35.3S58.1 51.9 56.8 82.4v.3c-.1 2-.3 17.2 1.6 30.7 1.4 9.8 2.7 19.6 12.2 25.4s13.6 7.2 16.1 10.4c2.5 3.1 10.2 4.5 13.2 4.5s10.7-1.2 13.2-4.5c2.5-3.1 6.6-4.7 16.1-10.4 9.6-5.8 10.8-15.5 12.2-25.4 2.1-13.5 1.8-28.7 1.8-30.7z" fill="#f6e4e2" stroke-width="none" opacity="1" stroke="none"></path><path id="SvgjsPath19623" d="M141.4 113.4c2.1-13.5 1.8-28.7 1.8-30.7v-.3C141.9 52 122.5 35.3 100 35.3S58.1 51.9 56.8 82.4v.3c-.1 2-.3 17.2 1.6 30.7 1.4 9.8 2.7 19.6 12.2 25.4s13.6 7.2 16.1 10.4c2.5 3.1 10.2 4.5 13.2 4.5s10.7-1.2 13.2-4.5c2.5-3.1 6.6-4.7 16.1-10.4 9.6-5.8 10.8-15.5 12.2-25.4zm-15.2 24.4-9 5c-1.5.9-3.1 1.8-4.7 3.2-.4.3-.8.7-1.1 1.1l-.3.3-.2.2-.2.2c-.4.3-.9.7-1.5 1-2.5 1.2-5.8 1.9-8.8 2.1-1.3.1-2.9-.1-4.5-.4-1.5-.3-3.1-.7-4.4-1.2-.7-.3-1.3-.6-1.9-.9-.3-.2-.5-.3-.7-.5s-.2-.2-.6-.7c-1.4-1.6-3.1-2.7-4.6-3.8-3.1-1.8-6.1-3.4-9-5.1-1.5-.8-3-1.7-4.2-2.5-1.3-.9-2.4-1.8-3.4-3-.5-.5-1-1.2-1.4-1.8-.4-.7-.9-1.3-1.2-2-.7-1.4-1.4-2.8-1.9-4.5-1-3.2-1.6-6.4-2.3-9.8-.6-3.3-1.1-6.8-1.5-10.2-.4-3.4-.7-6.8-.9-10.2s-.3-6.9-.3-10.3c0-1.7.1-3.4.3-5.2.1-.8.1-1.7.2-2.5l.4-2.5c.2-.8.2-1.7.4-2.5l.6-2.4c.2-.8.4-1.6.7-2.4l.9-2.4c1.2-3.2 2.8-6.2 4.6-9 .4-.7 1-1.3 1.5-2 .5-.6 1-1.3 1.6-1.9l1.7-1.8.9-.9 1-.8c5-4.4 11-7.4 17.3-8.8 6.3-1.4 13-1.6 19.3-.2l2.4.5c.8.2 1.5.5 2.3.7 1.6.4 3 1.1 4.5 1.7.8.3 1.4.7 2.2 1.1.7.4 1.5.7 2.1 1.2l2 1.4c.3.2.7.4 1 .7l.9.8c5.1 4.2 9.4 9.6 12.1 15.8 2.7 6.3 4.1 13.1 4.4 20 0 3.4 0 6.9-.2 10.3s-.4 6.9-.9 10.3c-.4 3.4-.9 6.8-1.6 10.2-.7 3.4-1.3 6.8-2.3 9.9-1 3.2-2.4 6.1-4.3 8.5-3.1 3.6-6.7 5.5-7.4 6z" fill="#c8837c" stroke-width="none" opacity="1" stroke="none"></path></g></g><g id="svga-group-mouth-single-move" transform="matrix(1,0,0,1,0,0)"><g id="svga-group-mouth-single" transform="matrix(1,0,0,1,0,0)"><path id="SvgjsPath19566" d="M86.62 127.55s2.05 2.59 5.62 4.12 13.46 4.37 22.92-4c0 0-1.83-1.01-4.25-2.59s-3.79-2.39-5.87-2.71-3.23.58-4.6.64c-1.37.05-2.88-.8-4.51-.66-3.58.3-9.36 4.5-9.36 4.5l.05.7z" fill="#DA7C87" stroke-width="none" opacity="1" transform="translate(0 2)" stroke="none"></path><path id="SvgjsPath19567" d="M85.9 127.36c1.93 1.35 3.95.8 6.06.2 1.1-.31 1.84-.44 3.03-.4 1.4.05 1.65.32 2.77.82.84.37 1.64.61 2.55.48 1.07-.15 1.89-.82 2.89-1.19 2.34-.87 4.17.21 6.35.86 2.06.61 4.33 1.01 6.18-.31.5-.36.08-1.04-.47-.81-2.86 1.23-5.62-.26-8.45-.67-2.23-.32-3.49.46-5.64.81-2.45.4-4.48-1.02-6.92-1.03-2.61-.02-5.17 1.6-7.62 0-.78-.53-1.48.71-.73 1.24z" fill="#cb5f6c" stroke-width="none" opacity="1" transform="translate(0 2)" stroke="none"></path></g></g><g id="svga-group-eyes-left-move" transform="matrix(1,0,0,1,0,0)"><g id="svga-group-eyes-left" transform="matrix(0.8999997000000001,0,0,0.8999997000000001,7.919466507351686,9.460028227411641)"><g id="svga-group-eyesback-left"><path id="SvgjsPath20204" d="M89.9 97.6c0-.1-.5-2.9-2.5-4.8s-5.1-3.6-8.7-2.7c-3.5.9-5.3 2.1-7 4.3-1.6 2.2-1.7 3.4-1.7 3.4s3.4 1.1 7.6 1.1c4.1.1 9.6-.7 10.5-.9.9 0 1.8-.4 1.8-.4z" fill="#ffffff" stroke-width="none" opacity="1"></path></g><g id="svga-group-eyesiriswrapper-left" transform="matrix(1,0,0,1,0,0)"><g id="svga-group-eyesiriscontrol-left" transform="matrix(1,0,0,1,0,0)"><g id="svga-group-eyesiris-left" transform="matrix(1,0,0,1,0,0)"><path id="SvgjsPath20278" d="M80.1 88.1c3 0 5.5 2.4 5.5 5.5S83.1 99 80.1 99s-5.5-2.4-5.5-5.5 2.4-5.4 5.5-5.4z" fill="#9fae70" stroke-width="none" opacity="1"></path><path id="SvgjsPath20279" d="M80.1 89.1c2.5 0 4.4 2 4.4 4.4s-2 4.4-4.4 4.4-4.4-2-4.4-4.4 1.9-4.4 4.4-4.4z" fill="#000000" stroke-width="none" opacity="1"></path><path id="SvgjsPath20280" d="M74.6 93.5c0 .9.2 1.8.6 2.5.8.5 1.7.8 2.7.8 2.9 0 5.2-2.3 5.2-5.2 0-1.2-.4-2.3-1.1-3.2-.6-.2-1.3-.4-1.9-.4-3.1.1-5.5 2.5-5.5 5.5z" fill="#b2bd8d" stroke-width="none" opacity="1"></path><path id="SvgjsPath20281" d="M75.6 93.5c0 1.3.5 2.4 1.4 3.2.3.1.6.1.9.1 2.9 0 5.2-2.3 5.2-5.2 0-.5-.1-1-.2-1.5-.8-.6-1.8-1-2.8-1-2.5 0-4.5 2-4.5 4.4z" fill="#1e1e1e" stroke-width="none" opacity="1"></path><path id="SvgjsPath20282" d="M77.7 91.2c.6-.7 1.5-.8 2-.4s.4 1.4-.3 2c-.6.7-1.5.8-2 .4-.5-.5-.4-1.4.3-2z" fill="#2b2b2b" stroke-width="none" opacity="1"></path></g></g></g><g id="svga-group-eyesfront-left"><path id="SvgjsPath20212" d="M69.4 94.6c0 6.4 4.7 11.5 10.6 11.5s10.6-5.2 10.6-11.5S85.9 83.1 80 83.1s-10.6 5.1-10.6 11.5zm.7 3.3s.1-1.2 1.7-3.4c1.6-2.2 3.4-3.4 7-4.3s6.7.7 8.7 2.7c2 1.9 2.4 4.8 2.5 4.8 0 0-.9.3-1.8.5s-6.3 1-10.5.9c-4.2-.2-7.6-1.2-7.6-1.2z" fill="#f6e4e2" stroke-width="none" opacity="1" stroke="none"></path><path id="SvgjsPath20213" d="M90.1 96.2c-1.1-4.4-4.7-7.9-9.4-8.1-4.5-.2-8 2.5-9.9 6.5-.1.2-.3 0-.3-.1 1.4-4.4 5.9-7.3 10.5-6.8 4.7.5 8.3 3.9 9.1 8.5z" fill="#e7c1bd" stroke-width="none" opacity="1" stroke="none"></path><path id="SvgjsPath20214" d="M69.7 98.1c.1.2.3.3.4.2 2.7 1.2 6.5 1.2 9.3 1.2 3.4 0 7.1-.3 10.3-1.5.1.2.4.2.4-.1-.3-5-5.2-8.7-10-8.6-4.7.1-9.7 3.6-10.4 8.4-.1.1-.2.3 0 .4zm4 .2c-1.1-.2-2.1-.4-3.2-.5 2.1-3.8 4.6-7 9.3-7.3 4.9-.3 8.3 2.7 9.8 7-3.4.6-6.7 1.3-10.2 1.3-1.8-.1-3.8-.2-5.7-.5z" fill="#587d90" stroke-width="none" opacity="1" stroke="none"></path></g></g></g><g id="svga-group-eyes-right-move" transform="matrix(1,0,0,1,0,0)"><g id="svga-group-eyes-right" transform="matrix(0.8999997000000001,0,0,0.8999997000000001,12.080593111177436,9.460028227411641)"><g id="svga-group-eyesback-right"><path id="SvgjsPath20205" d="M110.1 97.6c0-.1.5-2.9 2.5-4.8s5.1-3.6 8.7-2.7c3.5.9 5.3 2.1 7 4.3 1.6 2.2 1.7 3.4 1.7 3.4s-3.4 1.1-7.6 1.1c-4.1.1-9.6-.7-10.5-.9-.9 0-1.8-.4-1.8-.4z" fill="#ffffff" stroke-width="none" opacity="1"></path></g><g id="svga-group-eyesiriswrapper-right" transform="matrix(1,0,0,1,0,0)"><g id="svga-group-eyesiriscontrol-right" transform="matrix(1,0,0,1,0,0)"><g id="svga-group-eyesiris-right" transform="matrix(1,0,0,1,0,0)"><path id="SvgjsPath20283" d="M119.9 88.1c3 0 5.5 2.4 5.5 5.5S123 99 119.9 99s-5.5-2.4-5.5-5.5 2.5-5.4 5.5-5.4z" fill="#9fae70" stroke-width="none" opacity="1"></path><path id="SvgjsPath20284" d="M119.9 89.1c2.5 0 4.4 2 4.4 4.4s-2 4.4-4.4 4.4-4.4-2-4.4-4.4 2-4.4 4.4-4.4z" fill="#000000" stroke-width="none" opacity="1"></path><path id="SvgjsPath20285" d="M114.5 93.5c0 .9.2 1.8.6 2.5.8.5 1.7.8 2.7.8 2.9 0 5.2-2.3 5.2-5.2 0-1.2-.4-2.3-1.1-3.2-.6-.2-1.3-.4-1.9-.4-3.1.1-5.5 2.5-5.5 5.5z" fill="#b2bd8d" stroke-width="none" opacity="1"></path><path id="SvgjsPath20286" d="M115.5 93.5c0 1.3.5 2.4 1.4 3.2.3.1.6.1.9.1 2.9 0 5.2-2.3 5.2-5.2 0-.5-.1-1-.2-1.5-.8-.6-1.8-1-2.8-1-2.5 0-4.5 2-4.5 4.4z" fill="#1e1e1e" stroke-width="none" opacity="1"></path><path id="SvgjsPath20287" d="M117.5 91.2c.6-.7 1.5-.8 2-.4s.4 1.4-.3 2c-.6.7-1.5.8-2 .4-.4-.5-.3-1.4.3-2z" fill="#2b2b2b" stroke-width="none" opacity="1"></path></g></g></g><g id="svga-group-eyesfront-right"><path id="SvgjsPath20215" d="M120 83.1c-5.9 0-10.6 5.2-10.6 11.5s4.7 11.5 10.6 11.5 10.6-5.2 10.6-11.5-4.8-11.5-10.6-11.5zm2.3 15.9c-4.1.1-9.6-.7-10.5-.9-.9-.2-1.8-.5-1.8-.5 0-.1.5-2.9 2.5-4.8s5.1-3.6 8.7-2.7 5.3 2.1 7 4.3c1.6 2.2 1.7 3.4 1.7 3.4s-3.4 1.1-7.6 1.2z" fill="#f6e4e2" stroke-width="none" opacity="1" stroke="none"></path><path id="SvgjsPath20218" d="M109.9 96.2c1.1-4.4 4.7-7.9 9.4-8.1 4.5-.2 8 2.5 9.9 6.5.1.2.3 0 .3-.1-1.4-4.4-5.9-7.3-10.5-6.8-4.7.5-8.3 3.9-9.1 8.5z" fill="#e7c1bd" stroke-width="none" opacity="1" stroke="none"></path><path id="SvgjsPath20219" d="M130.3 97.7c-.7-4.8-5.8-8.3-10.4-8.4-4.8-.1-9.7 3.6-10 8.6 0 .2.3.3.4.1 3.3 1.1 6.9 1.5 10.3 1.5 2.8 0 6.6 0 9.3-1.2.2.1.4 0 .4-.2.2-.1.1-.3 0-.4zm-9.8 1c-3.5 0-6.8-.6-10.2-1.3 1.5-4.4 4.9-7.3 9.8-7 4.7.3 7.2 3.6 9.3 7.3-1.1.1-2.1.4-3.2.5-1.8.4-3.8.5-5.7.5z" fill="#587d90" stroke-width="none" opacity="1" stroke="none"></path></g></g></g><g id="svga-group-facehighlight-single"></g><g id="svga-group-eyebrows-left-move" transform="matrix(1,0,0,1,0,0)"><g id="svga-group-eyebrows-left-rotate" transform="matrix(1,0,0,1,0,0)"><g id="svga-group-eyebrows-left" transform="matrix(1,0,0,1,0,0)"><path id="SvgjsPath19384" d="M71.9 81.2c.2-.2.4-.3.6-.4.2-.1.4-.2.7-.3.4-.2.8-.4 1.3-.5.5-.2 1.4-.5 1.9-.2 1.7-.6 4-.2 5.6.6 2.1.2 4.3.9 5.9 2 .1.1.2.2.2.3l.9.3c1.1.4 2.3.8 3.4 1.3.1 0 .2.1.3.1.4.2.5.7.2.9-.1.1-.1.2-.3.3-.8.6-2 .2-2.9-.1-.8-.3-1.6-.7-2.2-1.3-.8-.3-1.6-.7-2.3-1.2-.1 0-.2-.1-.3-.1-1.4-.2-2.8-.8-4-1.4h-.1c-.7-.2-1.4-.3-2.2-.3-1-.1-2 .2-3-.1h-.1c-.2.1-.4.1-.6.2-.9.3-1.6.4-2.6.4-.1 0-.2-.1-.2-.2H72s-.2-.2-.1-.3z" fill="#56342e" stroke-width="none" opacity="1" stroke="none"></path><path id="SvgjsPath19385" d="M76.9 79.1c3.4-.3 6.8 1.7 9.9 2.9 1.9.7 5.8 1 6.5 3.3.1.3-.3.5-.5.2-1-1.4-2.6-1.5-4.1-2-1.3-.4-2.6-.9-3.8-1.4-2.7-1.1-5.3-1.7-8-2.4-.3-.2-.2-.6 0-.6z" fill="#654640" stroke-width="none" opacity="1" stroke="none"></path><path id="SvgjsPath19386" d="M94.4 85.2c.3-1.5-2-2.1-3.1-2.5-2.7-1.1-5.4-2.3-8.2-3.1-1.7-.5-3.4-.8-5.1-.8-1.3 0-2.6.1-3.8.5-2.2.7-4.3 1.9-6.2 3.4-1 .6-2 1.3-2.8 2.1-.2.2 0 .4.2.3.1 0 .1 0 .1-.1.1.1.1.1.2.1 1.6-.7 3.1-1.8 4.8-2.5 1.6-.7 3.4-1.1 5.1-1.2h.8c2.1 0 4.1.4 6 1.3 2.6 1.2 5.1 2.8 7.7 3.8.5.2 1 .3 1.6.2 1.3.2 2.4-.3 2.7-1.5zm-16.3-5.4c1.8 0 3.6.4 5.3 1 2.2.8 4.4 1.8 6.6 2.6.4.2 2.6.7 2.8 1.3.2.7-.3.9-.8 1-.3 0-.6-.1-.8-.1-.7-.2-1.3-.6-1.9-.9-3.4-1.7-6.9-3.9-10.8-4.1h-1.1c-1.2 0-2.5.1-3.8.3.6-.2 1.1-.4 1.7-.6.8-.4 1.8-.5 2.8-.5z" fill="#47251f" stroke-width="none" opacity="1" stroke="none"></path></g></g></g><g id="svga-group-eyebrows-right-move" transform="matrix(1,0,0,1,0,0)"><g id="svga-group-eyebrows-right-rotate" transform="matrix(1,0,0,1,0,0)"><g id="svga-group-eyebrows-right" transform="matrix(1,0,0,1,0,0)"><path id="SvgjsPath19387" d="M128.1 81.2c-.2-.2-.4-.3-.6-.4-.2-.1-.4-.2-.7-.3-.4-.2-.8-.4-1.3-.5-.5-.2-1.4-.5-1.9-.2-1.7-.6-4-.2-5.6.6-2.1.2-4.3.9-5.9 2-.1.1-.2.2-.2.3l-.9.3c-1.1.4-2.3.8-3.4 1.3-.1 0-.2.1-.3.1-.4.2-.5.7-.2.9.1.1.1.2.3.3.8.6 2 .2 2.9-.1.8-.3 1.6-.7 2.2-1.3.8-.3 1.6-.7 2.3-1.2.1 0 .2-.1.3-.1 1.4-.2 2.8-.8 4-1.4h.1c.7-.2 1.4-.3 2.2-.3 1-.1 2 .2 3-.1h.1c.2.1.4.1.6.2.9.3 1.6.4 2.6.4.1 0 .2-.1.2-.2h.1s.2-.2.1-.3z" fill="#56342e" stroke-width="none" opacity="1" stroke="none"></path><path id="SvgjsPath19388" d="M123.1 79.1c-3.4-.3-6.8 1.7-9.9 2.9-1.9.7-5.8 1-6.5 3.3-.1.3.3.5.5.2 1-1.4 2.6-1.5 4.1-2 1.3-.4 2.6-.9 3.8-1.4 2.7-1.1 5.3-1.7 8-2.4.3-.2.2-.6 0-.6z" fill="#654640" stroke-width="none" opacity="1" stroke="none"></path><path id="SvgjsPath19389" d="M108.2 86.8c.5 0 1.1-.1 1.6-.2 2.7-1 5.1-2.7 7.7-3.8 1.9-.9 3.9-1.3 6-1.3h.8c1.8.1 3.5.6 5.1 1.2 1.7.7 3.1 1.7 4.8 2.5.1 0 .2 0 .2-.1 0 0 .1 0 .1.1.2.1.4-.1.2-.3-.8-.8-1.7-1.5-2.8-2.1-1.9-1.4-4-2.7-6.2-3.4-1.2-.4-2.5-.6-3.8-.5-1.7 0-3.4.3-5.1.8-2.8.8-5.5 2-8.2 3.1-1.1.4-3.4 1-3.1 2.5.4 1.1 1.5 1.6 2.7 1.5zm16.7-6.6c.6.2 1.2.4 1.7.6-1.3-.2-2.6-.4-3.8-.3h-1.1c-3.9.2-7.4 2.4-10.8 4.1-.6.3-1.2.7-1.9.9-.2.1-.5.1-.8.1-.6 0-1.1-.3-.8-1 .2-.6 2.4-1.1 2.8-1.3 2.2-.9 4.4-1.9 6.6-2.6 1.7-.6 3.5-1 5.3-1 .8.1 1.8.2 2.8.5z" fill="#47251f" stroke-width="none" opacity="1" stroke="none"></path></g></g></g><g id="svga-group-beardwrap" transform="matrix(0.9799997000000001,0,0,0.9998997000000002,0,0)"><g id="svga-group-beard-single-move" transform="matrix(1,0,0,1,0,0)"><g id="svga-group-beard-single" transform="matrix(1,0,0,1,0,0)"></g></g></g><g id="svga-group-mustache-single-move" transform="matrix(1,0,0,1,0,0)"><g id="svga-group-mustache-single" transform="matrix(1,0,0,1,0,0)"></g></g><g id="svga-group-nose-single-move" transform="matrix(1,0,0,1,0,0)"><g id="svga-group-nose-single" transform="matrix(1,0,0,1,0,0)"><path id="SvgjsPath20339" d="M104.31 104.57c1.37.25 4.28.67 5.61 3.45 1.33 2.79-.41 3.93-1.08 4.28-.67.35-2.6.22-3.3-.32 0 0-.57 2.15-1.55 2.72-.98.57-3.61 1.68-6.15.86-2.53-.82-2.95-2.98-3.14-3.23s-.76-.76-2.09.03c-1.33.79-2.79-.51-3.2-2.06-.41-1.55.7-3.36 1.3-3.83.6-.48 2.22-1.77 3.87-2.28 1.66-.5 6.76-.16 9.73.38z" fill="#f6e4e2" stroke-width="none" opacity="1" transform="translate(0 1)"></path><path id="SvgjsPath20340" d="M94.78 104.05c-2.51.17-5.71 2.79-5.82 5.44-.08 1.96 2.12 4.81 4.09 3.01.28-.25-.08-.63-.38-.49-.64.3-1.77.08-2.24-.45-.46-.5-.62-1.07-.67-1.7-.08-1.15.38-2.24 1.16-3.08 1.12-1.21 2.73-1.55 3.91-2.61.05-.04.01-.13-.05-.12z" fill="#c8837c" stroke-width="none" opacity="1" transform="translate(0 1)"></path><path id="SvgjsPath20341" d="M92.77 111.88c1.39-1.44 2.08 1.93 2.34 2.43.19.38.42.71.75.98 1.2.97 3.18.97 4.63.97 1.32 0 2.69-.22 3.74-1.09.48-.4.81-.85 1.06-1.43.14-.33.21-.68.32-1.02.26-.78.83-3.11 2.5-1.65.14.12.42.01.34-.2-.42-1.16-1.77-1.15-2.6-.35-.56.54-.74 1.29-.98 1.99-.72 2.02-1.91 2.88-4.06 2.94-1.55.05-3.59.08-4.62-1.19-.67-.83-.67-1.96-1.38-2.75-.71-.8-1.84-.91-2.45.05-.15.26.2.53.41.32z" fill="#c8837c" stroke-width="none" opacity="1" transform="translate(0 1)"></path><path id="SvgjsPath20342" d="M106.27 112.52c2.42 1.76 5.03-1.25 4.39-3.68-.7-2.63-3.83-5.04-6.6-4.45-.2.04-.19.34 0 .39 1.93.47 3.59.85 4.93 2.48.89 1.09 1.45 2.47.71 3.78-.74 1.32-2 1.34-3.34 1.17-.2-.04-.21.22-.09.31z" fill="#c8837c" stroke-width="none" opacity="1" transform="translate(0 1)"></path><path id="SvgjsPath20343" d="M96.12 103.88c1.81-.45 3.62-.63 5.47-.8.11-.01.15-.18.03-.21-1.89-.35-3.81-.04-5.6.64-.22.09-.14.43.1.37z" fill="#c8837c" stroke-width="none" opacity="1" transform="translate(0 1)"></path><path id="SvgjsPath20344" d="M106.47 107.66c-.46-2.36-4.41-2.81-6.35-2.83-2.78-.04-4.85.85-6.69 2.88-.22.24-.01.64.32.55 1.95-.53 4.36-.78 6.37-.62 1.08.08 2.17.36 3.17.76.9.35 1.52.75 2.51.45.52-.16.77-.66.67-1.19z" fill="#fef7f6" stroke-width="none" opacity="1" transform="translate(0 1)"></path><path id="SvgjsPath20345" d="M103.53 113.42c-.85.24-1.6.62-2.49.68-.97.07-1.92-.12-2.79-.53-.33-.15-.62.32-.29.5 1.68.93 4.33 1.25 5.83-.21.19-.18 0-.51-.26-.44z" fill="#fef7f6" stroke-width="none" opacity="1" transform="translate(0 1)"></path></g></g><g id="svga-group-hair-front" transform="matrix(0.9799997000000001,0,0,0.9998997000000002,1.9610290182655206,0.0061906025932216835)"><path id="SvgjsPath20594" d="M95.5 46.3s-.9 4.4 4.2 5 7.8 7.1 3.6 9.4c0 0 6.7-1 6.7-9.4 0 0 3.3 6.9 8.4 5.6 5.1-1.3 6.5 0 6.5 0s-3.1 1.7-.9 6.9 8.5.7 8.5.7 5.8 5.8 1.4 9.1c0 0 1.1-.2 2.5-1.6 0 0-3.4 5.6-1.8 10.1 1.6 4.4 3.6 3.2 3.1 5.2-.6 1.9-4.7 2.7-3.6 5.4s4.4 3.6 4.4 5.2.4 4-1.6 4.8c0 0 3.3.2 4.2-3.8.9-4 0-5-.2-6.9-.2-1.9 3.3-6.6 5.3-6.6s7.3-3.7 6.4-6.7-2.2-3.5-3.3-6.6 2.9-6.4 4.4-5.2c0 0-3.6-5.4-6.9-2.7 0 0-1.3-.4.4-2.7 1.6-2.3.7-9.4-2.7-10.4s-2.7-4.6-4.2-7.9c-1.4-3.3-6.4-3.7-6.4-3.7s1.4-4.6-2-6.9-7.4 1-8.9-.8-.4-3.9-.4-3.9-3.1.2-3.4 1.5c0 0-1.4-1.4-3.1-4.2s-7.6-3.9-11.4-1c0 0-1.6-4-5.8-4s-6.7 1.7-7.4 4c0 0 4.2-3.7 6.4.8s-5.8 2.9-5.4.6c0 0-1.4 2.9-3.3 2.5S87.8 26 86 25.4c-1.8-.6-4.2.2-5.1 2.5s-4.5 5.2-5.8 3.1c-1.3-2.1.9-3.5.9-3.5s-4.4 1.2-4.4 4.4c0 0-4-1.5-6.2 1.4s-.7 6.5-2.4 6.5-2.9-2.3-4.4.6c-1.5 2.9.5 3.8-.9 4.6s-4.4 1.7-4.4 5c0 0-7.8 4-5.5 8.9s5.5 5.4 3.5 7.9-4 0-4.7 2.9c-.7 2.9.9 2.7 0 4.4s-3.5 2.3-4.2 1c0 0 1.3 2.1 2.5 2.5 1.3.4 4.9-2.5 4.9-2.5s-3.5 2.5-3.3 6-.4 5.6 2 5.8 4.2-2.7 6-1.2c1.8 1.5-.7 1 1.5 4.4s3.1 5 2 6.7c-1.1 1.7.2 3.8 1.6 4.2 0 0-1.1-2.3 0-3.7s2.7-3.8 1.5-6.7-2.9-6.8-1.6-9.3 2.5-4.4 2-6.7-.5-.6 0-.8c.5-.2 2.5 2.1 2 5 0 0 2.7-5.4 1.8-8.1-.9-2.7 0-7.1 2-6.2 2 1 5.1 2.4 6.5.5s1.8-5 1.8-5 3.6 2.3.6 5.8c-3.1 3.5.9 7.7.9 7.7s-1.8-2.9 0-5.4 5.4-4.2 4.7-6.9c-.7-2.7-1.4-4.2-1.4-4.2s1.4-4.2 3.8-2.1-.9 5.4-.9 5.4 4.4-.4 5.4-3.7.6-3.7 1.3-6.2c.9-2.3 2.9 1.3 5.5-4.1z" fill="#56342e" stroke-width="none" opacity="1"></path><path id="SvgjsPath20595" d="M104.6 52.2c-1.2-.8-2.5-1.2-4-1.4-4.7-.8-4.7-4.5-2.6-7.8.1-.2-.2-.4-.3-.3-1.6 1.7-2.7 4.6-1.5 6.9C98 53 107 51 105.6 56.4c-.1.2.3.5.5.3 1.2-1.7.1-3.4-1.5-4.5zM90.8 35c-2.2-.8-4.4-.6-6.5.4-1.7.9-2.7 2.2-4.7 2.6-4.9 1.1-9.1-2.7-6.5-8.1.1-.2-.2-.3-.3-.2-1.9 3.1-1.6 7.3 2.1 8.9 1.6.7 4 .8 5.6.2 1.5-.5 2.3-1.7 3.6-2.5 2.1-1.2 4.2-1.2 6.5-.9.4.1.5-.3.2-.4zm-3.9 5.9c-1.6 1-3 2.3-4.9 2.7-1.6.3-3.2-.2-4.7.6-1.7.8-2.8 2.6-2.6 4.5.2 2.1 1.8 4 4 4.1 1.9.1 3.4-1.3 3.4-3.2 0-.1-.2-.2-.3 0-.8 4.6-7 1.8-6.1-2.1.6-2.8 3.2-2.8 5.5-2.8 2.5-.1 4.5-1.5 6.2-3.3.1-.3-.2-.7-.5-.5zm32.2-9c-3.2-1-3.8-6.4-7.9-5-1.2.4-2.1 1.5-2.9 2.5-1.9 2.7-2.8 5-6.4 5.7-.2 0-.2.4.1.3 2.9-.1 4.6-1.5 6.1-3.9.6-.9 1.1-2.2 1.9-2.8 3.9-3 4.7.3 6.4 2.1.9.9 1.4 1.3 2.6 1.6.3.1.4-.4.1-.5zm4.5 23c-2.3-.1-4.4.9-6.7.5-3.9-.6-6.5-3.5-6.4-7.5 0-.2-.3-.3-.4 0-.6 2.9.6 5.5 3.1 7.2 1.4.9 3 1.4 4.7 1.5 2.9.2 7.1-2.1 8.7 1.7.1.2.4.1.4-.1.5-2.1-1.4-3.2-3.4-3.3zm27.6 21.4c-.4-.9-.9-1.6-1.5-2.2-1.1-1.2-2.7-2.1-1.6-4.5.4-1 1.7-1.8 2.4-2.5.2-.2-.1-.5-.3-.4-1.8 1-3.8 2.4-3.5 4.8.1.9.6 1.5 1.2 2.2 1.9 2.3 3.6 4.1 1.6 7.2-.2.3.2.6.4.4 1.7-1.1 2.1-3 1.3-5zm-6.1-1.5c-.3-2.6-1.9-4.5-4.2-5.5-.2-.1-.4.2-.2.3 2.4 1.6 4.1 4.3 3.5 7.3-.5 2.2-2.2 3.1-3.3 4.8-.8 1.3-.9 2.6.4 3.5.3.2.7-.2.5-.5-1.2-1.6 2.4-4.9 3-6.5.4-1 .5-2.2.3-3.4zm-25.5-38.5c-1.5 0-3.5 1.3-2.5 2.9.1.1.3.1.3 0 .7-2.1 2.7-2.3 4.3-1 2 1.6.3 3.7-1.2 4.6-2.4 1.5-5 1.3-7.3-.4-.3-.2-.5.2-.3.4 2.7 3.3 10.8 1.8 10.7-3.1 0-2-2.1-3.4-4-3.4zm-41 27.9c.1-.8-.1-1.6-.5-2.3-.6-1.2-3-3-2.9-4 0-.2-.3-.3-.4-.1-.3.9-.2 1.3.3 2 .8 1.3 1.9 1.1 2.5 3 .5 1.8-.7 2.9-1.5 4.3-.9 1.7-1.6 3.6.2 5 .2.2.6-.1.4-.3-2-3 1.7-4.8 1.9-7.6zm6.6-8.6c-.6-1.3-2.3-2.7-3.8-2.2-.2.1-.3.4-.1.5 1.1.5 2.2.6 2.9 1.8.8 1.3.5 2.7-.2 3.9-.2.2.2.5.4.3 1.2-1.2 1.4-2.9.8-4.3zm-11.6-7.5c0-.2-.3-.3-.3-.1-.8 2.2.2 4 1.9 5.5 1.1 1 2.4 1.7 3.5 2.6 1.6 1.3 2.1 2.7 2.5 4.7.1.2.4.2.5 0 1.2-6.2-8.9-6.5-8.1-12.7zm-.2 16.4c-3.4 3-8.8-1.4-9.4-5.1 0-.2-.4-.2-.4.1-.1 2.7 2.1 4.8 4.3 6.1 1.8 1.1 4.8 1.7 6-.7 0-.3-.3-.6-.5-.4zm-9 10.9c-.6-1-1.9-1.6-2.5-2.6-1.1-1.8-1.3-3.9-.8-5.9 0-.2-.2-.3-.3-.1-1 2.4-.8 5 .9 7.1 1.6 2 2.3 1.2 1.5 5.1-.3 1.3-.7 1.7.1 3 .1.2.6.1.5-.2-1-2.2 1.9-4.1.6-6.4zM52 63.7c-1.2-1.7-2.4-2.5-2.8-4.7-.4-2.3.2-4.5 1.7-6.3.2-.3-.2-.7-.4-.4-1.6 1.8-2.5 4-2.2 6.4.1 1 .3 2 .8 2.9 1 2 3.5 3.2 2.9 5.7 0 .2.2.4.4.2 1.1-1.2.6-2.5-.4-3.8zm-3.8 4.7c-1.2.7-1.9 1.6-2.1 3-.2.8-.1 1.6-.1 2.3 0 1.7-1.1 2.2-2.6 2.1-.2 0-.4.3-.2.5 1.1.9 2.7.4 3.4-.8.5-.9.3-1.8.3-2.8 0-1.4.3-3 1.5-3.9.3-.1.1-.5-.2-.4zm4.8 16c-.8.5-2.1 1.4-3.1 1.1-1.9-.4-1.9-2-2-3.6 0-2.7.8-4.9 3.3-6.1.3-.1.1-.5-.2-.5-3.9.6-4.7 5.7-4.1 8.9.6 3.3 5 3.1 6.5.6.2-.2-.2-.5-.4-.4zm6.5 15.4c-.9-2-.1-3.8 0-5.7 0-.8.1-1.2-.3-1.8-.4-.7-1.2-1.1-1.8-1.6-2-1.4-2.1-3.6-1.9-5.9 0-.3-.5-.4-.6-.1-.8 2.8-.5 4.2 1.2 6.4 1.1 1.5 1.8-.2 1.6 4.1 0 .6-.3.9-.3 1.5 0 1.4.8 2.4 1.8 3.3.1.1.3 0 .3-.2zm1.7-51.1c.2-.1 0-.4-.2-.3-2.2.8-5.4 3.2-4.7 5.9.1.6.6.9.8 1.4 1.3 2.9.8 2.4-.5 4.3-1 1.5-1.4 2.8-1.3 4.6 0 .4.6.5.7.1.3-1.8 1.1-3.2 2.2-4.7.6-.8 1.2-1.6 1.1-2.7-.1-.8-.7-1.2-1-1.9-1.7-3.7.9-5 2.9-6.7zM70.4 32c-2.4-.9-4.7.7-5.6 2.9-.5 1.2-.6 2.5-.5 3.8.1.8.2 1.5.3 2.2.4 1.3-.1 2.4-1.6 3.1-.5-.1-1-.2-1.6-.3-.3-.1-.5.4-.2.5 1.6 1.1 3.7.6 4.2-1.4.3-1.5-.5-3.3-.5-4.8 0-3.2 1.9-5.9 5.3-5.5.4 0 .4-.4.2-.5zm27.7-6.9c-1.2-2.7-4.7-3.7-6.9-1.7-.2.2.1.5.3.4 1.9-.9 4.3-.7 5.4 1.2 1.1 1.8.4 4.6-2 4.8-.3 0-.3.4-.1.5 1.2.5 2.3-.1 3-1.2.9-1.2.9-2.7.3-4zm6.9 13.4c-.2-.2-.5.1-.3.3 1 1.4-.5 2.9-1.7 3.2-1.2.3-2.4 0-3.4-.8-1.7-1.4-2-3.8-1.9-5.9 0-.3-.4-.3-.5-.1-.6 3.2.6 7.3 4.3 7.7 2.2.4 5.9-2.2 3.5-4.4zm32.1 13.1c-1-.7-2.1-.9-3.2-.7-1.5.2-2.6.7-4.1.3-2.3-.6-3.3-2.5-3.6-4.8 0-.2-.4-.3-.4 0-.5 2.5.9 4.8 3.2 5.6 1.1.4 2.1.3 3.2.1 1.1-.2 1.9-.7 3.1-.4 2.3.5 3 3.1 1.3 4.8-.4.3.2.8.5.5 2-1.4 1.8-4.1 0-5.4zm-3.3 9.3c0-.3-.5-.4-.6-.1-.7 2.3-2.3 4.6-5 4.5-3.2-.1-4.5-3.1-4.2-5.9 0-.2-.3-.3-.4-.1-1.4 3 .8 6.4 3.9 7 3.2.6 6.6-2.1 6.3-5.4zm-.3 3.5c-.2-.2-.5.1-.3.3 1.3 1.9 3.5 6.5.5 8-.3.1-.1.6.2.6 1.6-.1 2.1-1.7 2.1-3.1-.1-2.3-1-4.2-2.5-5.8zm7.1 21.8c-2.6.8-4.2-2.8-4.8-4.6-.5-1.8-.6-3.7-.3-5.5.1-.3-.4-.5-.5-.1-.8 2.7-.5 5.6.8 8.1.9 1.7 2.9 4.4 5.1 2.9.3-.4.2-1-.3-.8zm.1 4.8c-.1-.2-.4-.2-.4.1.1 2.3.8 4.6.2 6.9-.7 2.9-3 4.7-6.1 4-.4-.1-.7.5-.3.7 2.2 1.3 4.9.1 6.2-1.9 2-2.8 1.5-6.7.4-9.8zm7-34.3c-.5-1.9-1.8-3.2-3.6-3.9-.3-.1-.4.3-.2.5 3 2.1 3.8 5.1 2.1 8.4-.4.8-1.1 2.1-.1 2.6.2.1.4 0 .4-.2V64c0-.1 0-.2-.1-.2-.3-.1 1.4-3.3 1.5-3.8.3-1.1.3-2.3 0-3.3zm-10.5-13.6c-.8-2.1-3.4-4.2-5.6-2.5-.2.1 0 .4.2.3 1.8-.5 3.4.4 4.3 2.1.6 1.2.4 2.5-1 2.9-.7.2-1.7.2-2.4.2-.3 0-.3.4-.1.5 2.5 1 5.8-.5 4.6-3.5zM69.9 54.2c-1.1 2.2-4.1 1.4-4.8-.7-.6-1.9.6-3.8 2.3-4.5.4-.2.1-.9-.3-.8-2.9.7-4.3 4.6-2.4 7 .8 1.1 2.2 1.8 3.6 1.6 1.2-.2 2.4-1 2.2-2.3 0-.4-.4-.6-.6-.3z" fill="#47251f" stroke-width="none" opacity="1"></path><path id="SvgjsPath20596" d="M121.1 52.6c-3.8 2.5-7.3-2.7-8.1-5.8-.1-.5-.8-.2-.7.2.4 2.4 1.6 4.7 3.6 6.1 1.7 1.3 3.9 1.7 5.6 0 .3-.2-.1-.7-.4-.5zm1.2-18c-.5-.2-.8.4-.4.7.9.6 1.7 1.4 2.3 2.3.1.1.1.3.2.4-1.7-2.6-5.3-4.5-8-1.3-.2.2.1.5.3.3 1.8-1.6 4.5-1.2 6.1.4 1.3 1.3 2.6 3.8.9 5.4-.2.2 0 .6.3.5 1.1-.5 1.5-1.4 1.4-2.5.2.1.4 0 .4-.2.5-2.5-1.4-5-3.5-6zm10 .9c-.5-1.7-2.1-2.7-3.8-2.4-.3.1-.2.6.1.5 1.6-.2 3 1.1 3.1 2.7.1 1.5-.9 2.5-1.8 3.6-.2.2.1.6.3.4 1.6-.8 2.6-2.9 2.1-4.8zm5.3 7.5c-.2-.1-.5.2-.2.4 1.1.7 1.7 2 1.8 3.3 0 1.1-.5 2.1-.6 3.2 0 .3.4.4.6.2 1.5-2.1 1-5.9-1.6-7.1zm-4.7 9.8c-1.2-.2-2.4.2-3.5 0-1.3-.3-2.4-1.3-3.2-2.3-.2-.2-.5.1-.3.3.8 1.1 1.6 2.1 2.9 2.6 1.8.7 5.2-.7 5.9 1.8.1.3.5.2.5-.1 0-1.3-1.2-2.1-2.3-2.3zm-.3 7.4c-1.2 1.3-2.6 2.7-4.5 2.8-1.8.1-3.5-1.1-3.8-2.9 0-.2-.4-.2-.4 0 .1 1.9 1.4 3.3 3.3 3.6 2.4.4 4.7-1.3 5.7-3.3.2-.1-.1-.4-.3-.2zm7.2 9.9c-.3-.1-.5.3-.2.5 6.9 3.6-6.5 12.3.1 16.5.2.2.6-.2.4-.4-3.1-4.3 1.8-7.5 2.4-11.7.3-2.3-.5-4.2-2.7-4.9zm7.9-4.8c-2.1.6-4 3.5-2.6 5.6.1.2.6.2.6-.2-.1-1-.2-1.9.2-2.9.4-.9 1.1-1.7 2-2.1.3-.1.1-.5-.2-.4zm-5.8-11.4c-.2-.2-.4 0-.3.3 1.2 2.3 3 4.8 1.4 7.4-.2.3.3.5.5.3 1.8-2.7.2-5.9-1.6-8zm-1.4 1.3c-.2-.1-.4.1-.2.3 1.1.9 1.8 2.2 1.8 3.7 0 .2.3.2.4 0 0-1.6-.7-3.2-2-4zm-37.9-14.9c-.8-.3-1.5-.6-2.1-1.3-.6-.7-.8-1.6-.7-2.5.1-.4-.5-.6-.6-.2-.5 2 .9 4.8 3.3 4.5.3-.1.4-.4.1-.5zm7.3-15.7c-2.3-.9-4.8.8-5.8 2.9-.1.3.3.5.4.3 1.2-1.9 3.1-2.6 5.2-2.7.4 0 .5-.4.2-.5zM129 37.8c-.7-1.5-2-3-3.7-3.4-.2 0-.3.2-.1.3 1.5.8 2.8 1.7 3.6 3.2.1.2.3.1.2-.1zm-15.1-7.5c-.5-1-1.8-1-2.6-.3-.6.6-.9 1.5-1.3 2.2-.6 1-1.2 1.9-1.9 2.9-.2.2.2.5.4.3.9-.8 1.6-1.8 2.2-2.8.3-.5.5-.9.7-1.4.3-.6 1.5-2.1 2.2-.8.1.3.3.1.3-.1zm-9.5 20c-1.2-.5-2.5-.6-3.5-1.4-1.3-1-1.8-2.6-1.4-4.2.1-.3-.4-.5-.5-.1-.6 1.6-.4 3.4.9 4.7 1.9 1.9 5.8 1.2 6.7 4.2.1.2.4.2.4-.1 0-1.5-1.2-2.5-2.6-3.1zM95 43c-.6 3-4.6 3.2-6.4 5.3-.1.2 0 .4.2.3 2.3-1.6 6-2.2 6.6-5.4 0-.3-.4-.5-.4-.2zm-9.8 6c-1-.4-1.9-.7-2.9-1-.4-.1-1.2-.3-1.4-.6 0-.3-.1-.7-.1-1 .1-.2.2-.4.4-.5l.5-.5c.2-.2-.1-.5-.3-.3-.8.6-2.1 1.8-1.1 2.9.4.5 1.2.7 1.7.9 1 .3 2 .6 3 .7.4-.1.5-.5.2-.6zm2.8 3.8c-.1-.2-.4-.2-.4 0-.1 1.7-.1 3.2-.8 4.8-.1.3.3.5.4.2.7-1.4 1.2-3.3.8-5zm-14.4-.3c-.2-.5-.8-.3-.7.2 1.1 4.4 7.8 5.9 7.1 10.8 0 .3.4.4.5.1 1.6-5.1-5.7-7-6.9-11.1zm.5 8.1c-.1-.2-.4-.1-.4.1 0 1.8-1.2 3.7-3.2 3.6-.2 0-.3.3-.1.4 1.2.2 2.2-.2 3-1 .7-.9 1.2-2.1.7-3.1zm-4 .5c-2 .5-3.8.4-5.7-.7-.2-.1-.4.2-.2.3 1.6 1.5 4.2 2 6.1.9.3-.2.1-.6-.2-.5zm14.2-23.6c-2.9 1.9-6.1 2.6-9.4 1.3-.3-.1-.5.4-.2.5 3.3 1.5 7.3 1.1 9.9-1.5.2-.1 0-.4-.3-.3zm-.6-4.2c-1.4.6-2.8.8-4.2 0-.3-.2-.6.3-.3.5 1.4.9 3.4 1.1 4.8-.1.1-.2-.1-.5-.3-.4zm37 17.9c-2.5-.5-4.8-1.6-6.1-4-.1-.2-.4-.1-.4.2 1 2.5 3.5 4.7 6.4 4.3.2-.1.3-.5.1-.5zm.9-2.3c-.5.2-.9.4-1.4.4-.5 0-1-.3-1.3-.7-.2-.2-.6.1-.4.3.8 1 2.7 1.5 3.5.2 0-.1-.2-.3-.4-.2zm19.5 8.8c-.2-.3-.6 0-.5.3.6 1.4.9 2.8 1.2 4.4 0 .2.4.2.5 0 .3-1.7-.3-3.4-1.2-4.7zM52.5 62c-.5-.8-1.2-1.6-1.5-2.4-1.1-2.4-.3-3.7 1-5.4.2-.3-.2-.6-.5-.4-1.3 1.5-2.4 3-1.8 5 .3 1.1 1 2 1.6 2.9 1 1.6 1.6 3.2 2 5 .1.3.5.2.5-.1 0-1.6-.5-3.1-1.3-4.6zm1.7 20.8c-1 .3-2.5.9-3.3-.2-.5-.6-.5-1.6-.4-2.3.2-1.7 1.2-3.2 2.3-4.3.3-.3-.2-.8-.5-.5-1.8 1.6-3.3 4-2.8 6.5.5 2.6 3 2.8 4.9 1.4.2-.2.1-.7-.2-.6zm5.6 6.7c-1.7-1.2-3.3-2.4-2.5-4.7.1-.2-.3-.4-.4-.2-.5 1.2-.6 2.5 0 3.6 1 1.7 3.2 2 4 3.9.1.2.5.2.5-.1.1-1.1-.7-1.8-1.6-2.5zm5.3-17.8c-.3-1.1-1.1-2.1-1.4-3.2-.6-1.9-.2-3.8.5-5.7.1-.2-.3-.5-.5-.3-1.4 1.8-1.8 4-1 6.2.6 1.7 1.8 2.9 1.7 4.8-.1 1.3-.9 2.5-.9 3.9 0 .2.3.2.3 0 .4-1.9 1.8-3.7 1.3-5.7zm43.5-21.4c0-.2-.4-.2-.4.1.1 3.8-.2 8.5-4.6 9.7-.3.1-.2.5.1.4 4.7-.8 5.6-6.1 4.9-10.2zm-38.8-.4c-1.3-.4-2.8.2-3.2 1.5-.4 1.2.1 2.8 1.4 3.2.3.1.5-.3.3-.5-.6-.6-1.1-1.4-.9-2.3.2-.9 1.3-1.5 2.2-1.3.5.2.7-.5.2-.6zm-.4-16.4c-1.6 1.7-2.9 4.3-2.4 6.7.1.2.4.2.4 0 .3-2.4.7-4.4 2.4-6.2.2-.3-.2-.7-.4-.5z" fill="#654640" stroke-width="none" opacity="1"></path></g><g id="svga-group-glasses-single-move" transform="matrix(1,0,0,1,0,0)"><g id="svga-group-glasses-single" transform="matrix(1,0,0,1,0,0)"></g></g></g></g></g><rect id="svga-credit-rect" width="200" height="15" x="0" y="185" fill="#ecf0f1" opacity="0.5" style="display: none;"></rect><text id="svga-credit-text" font-family="Avenir Next, Roboto, Helvetica, Arial, sans-serif" font-size="10px" text-anchor="start" font-weight="400" size="10px" anchor="start" weight="400" fill="#333333" x="33.40447998046875" y="182.60824704170227" style="display: none;"><tspan id="SvgjsTspan18918" dy="13" x="33.40447998046875">Created on AvatarMaker.com</tspan></text></g></svg>