<svg xmlns="http://www.w3.org/2000/svg" version="1.1" width="600px" height="600px" viewBox="0 0 200 200" style="overflow:hidden!important;"><defs id="SvgjsDefs37693"></defs><g id="svga-group-wrapper"><g id="svga-group-backs-single"><path id="SvgjsPath38382" d="M0 0h200v200H0V0z" fill="#ece5ce" stroke-width="none" opacity="1"></path><path id="SvgjsPath38383" d="M100 124.2c-13.3 0-24.2-10.8-24.2-24.2S86.7 75.8 100 75.8s24.2 10.8 24.2 24.2-10.9 24.2-24.2 24.2zm0-42.4c-10 0-18.2 8.2-18.2 18.2s8.2 18.2 18.2 18.2 18.2-8.2 18.2-18.2S110 81.8 100 81.8zm0 57.4c-21.6 0-39.2-17.6-39.2-39.2S78.4 60.8 100 60.8s39.2 17.6 39.2 39.2-17.6 39.2-39.2 39.2zm0-72.4c-18.3 0-33.2 14.9-33.2 33.2s14.9 33.2 33.2 33.2 33.2-14.9 33.2-33.2-14.9-33.2-33.2-33.2zm0 87.5c-29.9 0-54.3-24.4-54.3-54.3S70.1 45.7 100 45.7 154.3 70 154.3 100s-24.4 54.3-54.3 54.3zm0-102.6c-26.6 0-48.3 21.7-48.3 48.3 0 26.6 21.7 48.3 48.3 48.3 26.6 0 48.3-21.7 48.3-48.3 0-26.6-21.7-48.3-48.3-48.3zm0 116.4c-37.6 0-68.1-30.6-68.1-68.1S62.4 31.9 100 31.9s68.1 30.6 68.1 68.1-30.5 68.1-68.1 68.1zm0-130.2c-34.2 0-62.1 27.9-62.1 62.1s27.9 62.1 62.1 62.1 62.1-27.9 62.1-62.1-27.9-62.1-62.1-62.1zm0 146.2c-46.4 0-84.1-37.7-84.1-84.1S53.6 15.9 100 15.9s84.1 37.7 84.1 84.1-37.7 84.1-84.1 84.1zm0-162.2c-43.1 0-78.1 35-78.1 78.1s35 78.1 78.1 78.1 78.1-35.1 78.1-78.1-35-78.1-78.1-78.1zm0 90c-6.6 0-11.9-5.4-11.9-11.9 0-6.6 5.4-11.9 11.9-11.9 6.6 0 11.9 5.4 11.9 11.9 0 6.6-5.3 11.9-11.9 11.9zm0-17.8c-3.3 0-5.9 2.7-5.9 5.9 0 3.3 2.7 5.9 5.9 5.9 3.3 0 5.9-2.7 5.9-5.9 0-3.3-2.6-5.9-5.9-5.9zM0 146.7v12.8c9.9 16.6 23.9 30.6 40.5 40.5h12.8C29.9 189 11 170.1 0 146.7zm200 0c-11 23.4-29.9 42.3-53.3 53.3h12.8c16.6-9.9 30.6-23.9 40.5-40.5v-12.8zm0-93.4V40.5C190.1 23.9 176.1 9.9 159.5 0h-12.8C170.1 11 189 29.9 200 53.3zm-200 0C11 29.9 29.9 11 53.3 0H40.5C23.9 9.9 9.9 23.9 0 40.5v12.8zm200 36.3C195.1 42.5 157.6 4.9 110.4 0H89.6C42.5 4.9 4.9 42.5 0 89.6v20.8c4.9 47.1 42.5 84.7 89.6 89.6h20.8c47.1-4.9 84.7-42.4 89.6-89.6V89.6zM100 194.5c-52.1 0-94.5-42.4-94.5-94.5S47.9 5.5 100 5.5s94.5 42.4 94.5 94.5-42.4 94.5-94.5 94.5zM0 176.2v9.5c4.4 5.1 9.1 9.9 14.3 14.3h9.5c-9-6.8-17-14.8-23.8-23.8zm200 0c-6.8 8.9-14.8 16.9-23.8 23.8h9.5c5.1-4.4 9.9-9.1 14.3-14.3v-9.5zM0 23.8c6.8-9 14.8-17 23.8-23.8h-9.5C9.1 4.4 4.4 9.1 0 14.3v9.5zm200 0v-9.5c-4.4-5.1-9.1-9.9-14.3-14.3h-9.5c9 6.8 17 14.8 23.8 23.8z" fill="#ddd1ab" stroke-width="none" opacity="1"></path></g><g id="svga-group-humanwrap-move" transform="matrix(1,0,0,1,0,0)"><g id="svga-group-humanwrap" transform="matrix(1.1000003000000003,0,0,1.1000003000000003,-9.969584142213748,-12.04829855018275)"><g id="svga-group-hair-back-move" transform="matrix(1,0,0,1,0,0)"><g id="svga-group-hair-back" transform="matrix(1,0,0,1,0,0)"></g></g><g id="svga-group-humanbody-back"><path id="SvgjsPath38094" d="M166.5 181.1c-10.9-6.6-27.6-8.4-35-12.1-4.9-2.5-9.1-4.7-8.9-17.8s1.9-42.4 1.9-42.4H75.4s1.6 29.4 1.9 42.4-4.2 15.6-8.9 17.8c-7.4 3.5-24.1 5.4-35 12.1-10.8 6.6-10 18.9-10 18.9v19.7h153.3V200c-.1 0 .7-12.3-10.2-18.9z" fill="#cb8d60" stroke-width="none" opacity="1" stroke="none"></path></g><g id="svga-group-chinshadow-single"><path id="SvgjsPath38544" d="M75.7 162.4c5.4 3.4 13.9 4.6 24.3 4.6 10.4.1 18.9-1.1 24.3-4.5-1.1-2.5-1.8-6-1.7-11.3.2-13.1 1.9-42.4 1.9-42.4H75.4s1.6 29.4 1.9 42.4c.1 5.2-.5 8.7-1.6 11.2z" fill="#ac642f" stroke-width="none" opacity="0.65"></path></g><g id="svga-group-humanbody-front"><path id="SvgjsPath38095" d="M78.7 156.8c.5 4.8 1.7 9.4 3.1 13.9.8 2.3 1.6 4.6 2.6 6.9.8 2 1.7 4.2 3.1 5.9.3.4 1 0 .9-.5-.5-2.2-1.6-4.3-2.4-6.4-.9-2.2-1.7-4.4-2.5-6.6-1.5-4.4-2.8-8.9-4.1-13.3-.2-.4-.8-.3-.7.1zm41.3-1c-1.3 8.2-3.9 16.1-5.4 24.2-.1.4.4.5.6.2 3.1-7.7 4.1-16.1 5.1-24.3-.1-.2-.3-.2-.3-.1zm-25.8 11.9c-.9 3.6 1.9 8.6 6.2 7.6.5-.1.4-.8 0-1-1.4-.5-2.9-.9-3.9-2.1-1.1-1.2-1.5-2.9-1.4-4.5 0-.4-.8-.5-.9 0z" fill="#ac642f" stroke-width="none" opacity="1" stroke="none"></path><path id="SvgjsPath38096" d="M177.3 219.7c-.1-6.6-.3-13.1-.3-19.7l-.3-.3c.1 0 .1 0 .2.1s.1.2.1.1v-1.4c0-.5-.1-.9-.1-1.4-.1-.9-.3-1.9-.5-2.8-.5-1.8-1.1-3.6-2-5.3-1.7-3.4-4.4-6.2-7.7-8.1-3.6-2.2-7.6-3.8-11.6-5.1-4-1.3-8.1-2.4-12.1-3.5-4-1.2-8.1-2.2-11.8-4.2-1.9-1-3.6-2.1-4.8-3.6-1.2-1.6-1.9-3.5-2.3-5.5-.8-4-.4-8.2-.3-12.4l.7-12.6 1.5-25.2.1-1.4h-1.4c-8.2 0-16.4 0-24.6.1l-24.6.3h-.9l.1.9c.8 11.9 1.6 23.8 2.1 35.7.1 3 .3 6 .2 8.9-.1 2.9-.4 5.9-1.6 8.6-.6 1.3-1.4 2.5-2.4 3.5s-2.3 1.8-3.6 2.4c-2.6 1.3-5.4 2.2-8.3 3-5.8 1.5-11.6 2.8-17.3 4.7-2.8.9-5.7 2-8.4 3.4-1.3.7-2.7 1.4-4 2.4-1.3.9-2.4 1.9-3.5 3.1-2.1 2.3-3.6 5.2-4.5 8.1-.5 1.5-.8 3-1 4.6-.1.8-.1 1.6-.1 2.4v2.3l-.2 17.9v1.3h1.4l38.3.2c12.8.1 25.5.1 38.3 0 12.8-.1 25.6-.1 38.3-.3 12.8-.2 25.6-.5 38.3-.7h.6v-.5zm-77.2-1.6H61.8l-37 .2-.1-16.6v-2.2c0-.7 0-1.4.1-2.1.1-1.4.4-2.8.8-4.2.8-2.7 2.1-5.3 3.9-7.5.9-1.1 2-2.1 3.1-2.9 1.1-.9 2.4-1.6 3.7-2.3 2.6-1.4 5.3-2.5 8.1-3.5 5.6-2 11.4-3.4 17.1-5.1 2.9-.8 5.8-1.7 8.5-3.1 1.3-.7 2.7-1.5 3.8-2.6 1.1-1.1 2-2.4 2.6-3.9 1.2-2.9 1.5-5.9 1.6-8.9 0-3-.1-6-.2-9l-1.3-34.8 23.5.4c7.7.1 15.4.1 23.1.1-.4 7.9-.8 15.9-1.1 23.8-.2 4.2-.2 8.4-.3 12.6 0 4.2-.2 8.5.8 12.8.5 2.1 1.3 4.2 2.8 6 1.4 1.7 3.4 2.9 5.3 3.8 3.9 1.9 8 2.8 12.1 3.8s8.2 2 12.2 3.3c4 1.3 7.9 2.8 11.5 5 3.2 1.9 5.8 4.7 7.5 8 .9 1.6 1.5 3.4 1.9 5.2.2.9.4 1.8.4 2.7.1.5.1.9.1 1.4V200l-.3 19c-12.6-.2-25.1-.5-37.7-.7-12.7-.1-25.5-.1-38.2-.2z" fill="#9d521b" stroke-width="none" opacity="1" stroke="none"></path></g><g id="svga-group-clothes-single"><path id="SvgjsPath38548" d="M44.5 170.9s-16 3.4-20.6 10.1c0 0-3.2-.6-4.2 2.8s-7.2 19.8-4 36.3h168.6c3.2-16.6-3-33-4-36.3-1-3.4-4.2-2.8-4.2-2.8-4.6-6.7-20.6-10.1-20.6-10.1s-57.7-10.8-111 0z" fill="#1e78a2" stroke-width="none" opacity="1"></path><path id="SvgjsPath38549" d="m86.7 153-2.3 1.2-.2.1-.1.1c7 .1 13.8 3.8 13.8 3.8l-3.5.2c4.2 2 8.2 6.3 8.2 6.3 1.5-3.6 5.3-5.1 5.3-5.1l-3-.6c3.6-3.9 13.9-7.3 13.9-7.3l-2.6-.6c5.4-4.1 10.9-4.1 10.9-4.1 1.5-1.9 6.9-3 6.9-3l-.9 2.2c3.9-1.1 9.8.8 9.8.8l-2.8 1.1c8.1 3.2 11.9 8.3 11.9 8.3l-3.5.3c6 3.4 9 12.4 9 12.4l-2.4-.2c3.8 7.5 3.2 14.8 3.2 14.8l-2.4-3.2c.4 11.2-8.9 20.9-8.9 20.9 0-2.6-1.4-6.9-1.4-6.9-1.1 3-7.2 9.5-7.2 9.5l.2-3.8c-3.8 4.3-13 7.8-13 7.8.6-1.5.7-5.3.7-5.3-2.1 3.4-7.7 6.6-7.7 6.6L117 207c0 5.4-1.8 9.1-1.8 9.1l-7.8-3.4 1.1 3.4c-11.6-1.9-21-6.8-21-6.8l1.1 2.8c-9.6-1.7-16.3-9.2-16.3-9.2v4.3c-3.6-1.9-7.9-7.9-7.9-7.9l.6 4.9c-8.4-5.4-11.4-15.9-11.4-15.9l-1.9 3.8c-2.4-3.6-3.2-10.5-3.2-10.5l-1.7 3.9c-5.8-6-4.2-12.8-4.2-12.8l-3.3 2.3c-2.1-7.3 3.7-12.7 3.7-12.7l-2.1.6c2.4-7.1 11.1-13.3 11.1-13.3l-1.9-1.1c8.2-5.4 12.8-4.9 12.8-4.9l-1.4-1.9s6.5-1.8 12.1 1.7l3.1 1.4 1.6 3.5 2 1.9 6.4 2.8z" fill="#1e78a2" stroke-width="none" opacity="1"></path><path id="SvgjsPath38550" d="m86.7 153-2.3 1.2-.2.1-.1.1c7 .1 13.8 3.8 13.8 3.8l-3.5.2c4.2 2 8.2 6.3 8.2 6.3 1.5-3.6 5.3-5.1 5.3-5.1l-3-.6c3.6-3.9 13.9-7.3 13.9-7.3l-2.6-.6c5.4-4.1 10.9-4.1 10.9-4.1 1.5-1.9 6.9-3 6.9-3l-.9 2.2c3.9-1.1 9.8.8 9.8.8l-2.8 1.1c8.1 3.2 11.9 8.3 11.9 8.3l-3.5.3c6 3.4 9 12.4 9 12.4l-2.4-.2c3.8 7.5 3.2 14.8 3.2 14.8l-2.4-3.2c.4 11.2-8.9 20.9-8.9 20.9 0-2.6-1.4-6.9-1.4-6.9-1.1 3-7.2 9.5-7.2 9.5l.2-3.8c-3.8 4.3-13 7.8-13 7.8.6-1.5.7-5.3.7-5.3-2.1 3.4-7.7 6.6-7.7 6.6L117 207c0 5.4-1.8 9.1-1.8 9.1l-7.8-3.4 1.1 3.4c-11.6-1.9-21-6.8-21-6.8l1.1 2.8c-9.6-1.7-16.3-9.2-16.3-9.2v4.3c-3.6-1.9-7.9-7.9-7.9-7.9l.6 4.9c-8.4-5.4-11.4-15.9-11.4-15.9l-1.9 3.8c-2.4-3.6-3.2-10.5-3.2-10.5l-1.7 3.9c-5.8-6-4.2-12.8-4.2-12.8l-3.3 2.3c-2.1-7.3 3.7-12.7 3.7-12.7l-2.1.6c2.4-7.1 11.1-13.3 11.1-13.3l-1.9-1.1c8.2-5.4 12.8-4.9 12.8-4.9l-1.4-1.9s6.5-1.8 12.1 1.7l3.1 1.4 1.6 3.5 2 1.9 6.4 2.8z" fill="#ffffff" stroke-width="none" opacity="0.9"></path><path id="SvgjsPath38551" d="M59.3 180.9c-.6-1.1-1-2.2-1.4-3.4s-.7-2.4-1-3.6-.6-2.4-.8-3.6c0-.2-.1-.3-.3-.4-.2-.1-.5 0-.6.3l-1.4 3.4c-.4-1.2-.6-2.4-.7-3.7-.1-1.6 0-3.3.3-4.9.3-1.6.7-3.2 1.2-4.9.5-1.6 1.1-3.2 1.8-4.7-.8 1.4-1.5 3-2.1 4.6-.6 1.6-1.1 3.2-1.4 4.9-.3 1.7-.5 3.4-.5 5.1.1 1.7.4 3.4 1.1 5 0 .1.1.2.2.2.2.1.5 0 .6-.2l1.3-2.9c.4 1.9.9 3.9 1.5 5.7.4 1.2.9 2.4 1.5 3.5s1.3 2.2 2.2 3.1c.1.1.2.1.3.1.2 0 .4-.2.4-.4l.2-4.2c.7 1.2 1.4 2.4 2.2 3.5l1.5 2.1c.5.7 1.1 1.4 1.7 1.9-.6-.6-1.1-1.4-1.5-2.1-.5-.7-.9-1.5-1.3-2.2-.8-1.5-1.7-3-2.5-4.5 0-.1-.1-.1-.2-.2-.2 0-.3.1-.3.3l-.4 4.3c-.8-.6-1.2-1.3-1.6-2.1zm7.6-10.3c0 .9.2 1.9.4 2.8.2.9.5 1.8.8 2.7.3.9.8 1.8 1.2 2.6.5.8 1.1 1.6 1.8 2.3.1.1.2.1.3.1.3 0 .5-.2.5-.4l.1-1.2c.2.3.4.6.7.9.5.6 1 1.2 1.6 1.8.6.6 1.1 1.2 1.8 1.6.6.5 1.3 1 2.1 1.3-1.3-.9-2.3-2.1-3.3-3.4-1-1.2-1.9-2.6-2.7-3.9-.1-.1-.2-.2-.4-.2-.3 0-.5.2-.5.4l-.2 1.4c-.9-1.1-1.7-2.4-2.3-3.7-.7-1.6-1.4-3.3-1.9-5.1zm29.8 30.7c-.2-.1-.5 0-.6.2l-.6 1.4c-2.4-1.5-4.8-3-7.3-4.3h-.3c-.1.1-.2.2-.1.4.6.9 1.1 1.8 1.7 2.7l-.9-2.1c2.2 1.6 4.5 3.1 6.8 4.5h.1c.2.1.5 0 .7-.3l.6-1.4c2.6 1.4 5.2 2.8 8 4-2.7-1.8-5.3-3.5-8.1-5.1zm50.2-42-1.9.2c-.1 0-.2.1-.3.1-.2.2-.2.5 0 .7 1.1 1.2 2.1 2.4 3 3.7.5.6.9 1.3 1.3 2 .3.5.6 1.1.9 1.6-.7-.3-1.4-.6-2.1-.8.8.5 1.6.9 2.5 1.4h.2c.1 0 .2-.1.1-.3-.2-.8-.6-1.5-.9-2.3-.4-.7-.8-1.5-1.2-2.1-.7-1.1-1.5-2.2-2.4-3.2l2.3-.3c.1 0 .2-.1.3-.2.1-.2.1-.5-.1-.7-1.4-1-2.9-1.7-4.4-2.3-1.5-.6-3.1-1.2-4.7-1.6 1.5.7 3 1.4 4.4 2.2 1 .7 2 1.3 3 1.9zm2.2 23.1c-.2 1.2-.4 2.5-.8 3.6-.4-.5-.8-1.1-1.2-1.6 0-.1-.1-.1-.1-.1-.2-.1-.5 0-.6.2l-1.6 3.2c-.4.7-.7 1.4-1.1 2.1l-.8-2.3c0-.1-.1-.2-.2-.3-.2-.1-.5-.1-.6.2-.8 1.3-1.6 2.7-2.5 4-.4.6-.9 1.3-1.4 1.9-.4.5-.8 1-1.3 1.5v-2.3l-.3 2.7v.1c.1.1.1.1.2 0 1.3-1 2.3-2.2 3.3-3.5.8-1 1.5-2 2.2-3.1l.8 2.4c0 .1.1.2.2.3.2.1.5.1.7-.2.6-1 1.2-2.1 1.7-3.2.4-.9.8-1.7 1.2-2.6.4.5.9 1.1 1.3 1.6.1.1.1.1.2.1.2.1.4-.1.5-.3.4-1.5.6-3 .7-4.6.1-1.5.1-3.1.1-4.6-.1 1.8-.3 3.4-.6 4.8zm-25.8-25.5.1-.1c.1-.2 0-.5-.2-.6-.3-.1-.7-.3-1-.4.3-.2.6-.5.9-.7.6-.3 1.1-.6 1.8-.9 1.2-.5 2.5-.8 3.9-1-1.4-.3-2.8-.2-4.2.2-1.4.4-2.7 1.1-3.7 2.1-.1.1-.1.1-.1.2-.1.2 0 .5.3.6.4.1.8.3 1.2.4-.8 1.1-1.7 2.2-2.4 3.4 1.2-.9 2.3-2.1 3.4-3.2zm17.1 12.8c.6.7 1.1 1.5 1.6 2.3l.6 1.2-.5-.3c-.1-.1-.2-.1-.4-.1-.3.1-.4.3-.4.6.1.6.2 1.3.3 2s.1 1.3.1 2c-.1 1.1-.2 2.3-.7 3.4l-.6-1.2c-.3-.6-.6-1.1-.9-1.7.2.6.4 1.2.7 1.8.2.6.4 1.2.7 1.8 0 .1.1.1.1.1.1.1.3 0 .4-.1.8-1.2 1.2-2.6 1.3-4.1.1-1.1.1-2.1-.1-3.2l.8.5c.1.1.3.1.4.1.3-.1.4-.4.3-.6-.6-1.9-1.7-3.6-3-5-.7-.7-1.4-1.4-2.1-1.9-.8-.6-1.6-1.1-2.4-1.6 1.3 1.2 2.7 2.5 3.8 4zm-18.1 26.6c.1-.8.2-1.5.3-2.2-.3.9-.5 1.8-.8 2.6v.1c0 .1.2.2.3.1.8-.3 1.6-.8 2.4-1.2.8-.5 1.5-1 2.2-1.5 1.1-.8 2-1.7 3-2.6-.1.6-.1 1.3-.1 2 0 .1 0 .2.1.3.1.2.4.2.6.1 1.1-.8 1.9-1.9 2.7-3 .7-1.1 1.3-2.2 1.8-3.4-.7 1.1-1.5 2.1-2.3 3.1-.6.7-1.2 1.4-1.9 2 .1-.7.2-1.5.2-2.2 0-.1 0-.3-.1-.4-.2-.2-.5-.2-.7 0-1.2 1.2-2.5 2.4-3.8 3.5-1.3.9-2.5 1.9-3.9 2.7zM62.7 163c.7-.3 1.3-.6 1.9-.9.1.9.2 1.9.3 2.8.1.6.2 1.1.3 1.6.1.5.3 1.1.6 1.6-.2-.5-.3-1.1-.4-1.6-.1-.6-.1-1.1-.1-1.7-.1-1.1-.1-2.2-.1-3.3v-.1c-.1-.2-.3-.3-.5-.2-.5.2-1.1.4-1.6.6.4-1.2.8-2.4 1.4-3.5.7-1.4 1.5-2.8 2.4-4 .1-.1.1-.2.1-.3 0-.2-.2-.4-.5-.4-.7.1-1.3.1-2 .1l.6-.9c.4-.5.8-.9 1.3-1.3.9-.8 2-1.5 3.2-2-1.2.3-2.4.9-3.5 1.6-.5.4-1 .8-1.5 1.3s-.8 1-1.2 1.6v.2c0 .2.2.4.4.4h1.7c-.8 1.1-1.4 2.2-2 3.4-.7 1.5-1.3 3-1.6 4.6v.3c.3.1.5.2.8.1zm30.4 3.8-2.3.4c-.1 0-.2.1-.3.2-.2.2-.1.5.1.7 1 .7 2 1.5 3 2.4.8.7 1.5 1.4 2.2 2.1l-1.5.4c-.1 0-.2.1-.2.1-.2.2-.1.4 0 .6.9.8 1.8 1.7 2.6 2.6l2.1 2.7c-.7-.1-1.4-.2-2.1-.2l2.4.6h.1c.1 0 .1-.1.1-.2-.6-1.1-1.3-2.1-2.1-3.1-.6-.8-1.3-1.6-2-2.3l1.6-.4c.1 0 .1-.1.2-.1.2-.2.2-.4 0-.6-.9-1-1.8-1.9-2.8-2.8-.7-.6-1.4-1.2-2.2-1.8l2.1-.4c.1 0 .2-.1.2-.1.2-.2.2-.5 0-.6-1.5-1.6-3.5-2.4-5.4-3.2-1-.4-1.9-.7-2.9-.9-1-.2-2-.5-3-.6 2 .6 3.9 1.2 5.8 2 1.5.5 3 1.4 4.3 2.5zm-46.8-3.2c.2-.4.5-.7.8-1.1.3-.4.6-.7.9-1l1.8-2 .1-.1c0-.2-.1-.3-.2-.4l-1.8-.5c.5-.7 1.3-1.2 2.1-1.8.9-.6 2-1.2 3-1.7.1-.1.2-.2.2-.3.1-.3-.1-.5-.4-.6l-1.4-.3c.4-.4.9-.8 1.4-1.1.7-.5 1.5-.9 2.3-1.4 1.6-.8 3.2-1.6 4.9-2.2-.9.2-1.8.4-2.6.7-.9.3-1.7.6-2.5.9-.8.4-1.7.8-2.5 1.2-.8.5-1.5 1-2.2 1.8 0 .1-.1.1-.1.2-.1.2.1.5.3.6l.9.2c-.7.4-1.3.8-1.9 1.2-.5.3-1 .7-1.4 1.1-.4.4-.9.9-1.2 1.5v.1c0 .2.1.4.3.5l1.9.4c-.4.6-.9 1.1-1.3 1.7-.5.8-1 1.5-1.4 2.4zm27.5 33.1c-.1-.1-.2-.1-.4-.1-.2.1-.4.3-.3.5l.3 1.5c-.9-.5-1.7-1-2.5-1.6l-3.3-2.4c-.1-.1-.2-.1-.3-.1-.2 0-.4.2-.4.5 0 .4.1.8.1 1.2-.6-.5-1.1-.9-1.7-1.5-.7-.7-1.4-1.5-1.9-2.4.4 1 1 1.9 1.6 2.7.7.8 1.4 1.6 2.2 2.3.1.1.2.1.2.1.2 0 .3-.2.3-.4v-1c1.9 1.6 4 3 6.2 4.2.1.1.2.1.3 0 .2-.1.4-.3.3-.6l-.4-1.4c.8.5 1.6 1 2.4 1.4.6.3 1.2.6 1.8.8.6.2 1.3.4 1.9.6l-1.8-.9c-.6-.3-1.1-.7-1.7-1-.9-.8-2-1.5-2.9-2.4z" fill="#005a83" stroke-width="none" opacity="1"></path><path id="SvgjsPath38552" d="M77.9 148.2c-.7-1.5-.9-2-1.4-3.4l-2-1-1.8-.8c-.8-.6-2-.8-3-1.2-.9-.3-1.9-.5-2.9-.6-2-.2-4 0-5.9.4 0 0-.1.1 0 .2l1.3 1.8c-1.1-.1-2.2.1-3.2.3-1.1.3-2.3.6-3.3 1.1-1.1.4-2.1.9-3.2 1.5l-1.5.9-1.5.9-.1.1c0 .1 0 .2.1.2l1.4.8c-2.3 1.7-4.4 3.6-6.3 5.7-1 1.1-1.9 2.3-2.7 3.5s-1.5 2.6-2 4v.2c0 .1.2.2.3.2l1.2-.3-1.5 2.1c-.6 1-1 2.1-1.4 3.2-.3 1.1-.5 2.3-.5 3.5v1c-1.8.6-3.6 1.2-5.3 1.9-1.8.8-3.6 1.6-5.2 2.7-1.6 1-3.1 2.2-4.3 3.8-.9-.1-1.8 0-2.6.5s-1.4 1.3-1.7 2.2c-.6 1.7-1.1 3.4-1.7 5.1-1 3.4-1.9 6.9-2.6 10.4-.6 3.5-1 7.1-1.1 10.6-.1 3.6.1 7.2.8 10.7.1.4.4.6.8.6 74.4 1.4 168.6 0 168.6 0 .4 0 .7-.3.8-.6 1.9-7.2 1.7-14.5.5-21.6-.6-3.5-1.4-7-2.4-10.5-.5-1.7-1-3.4-1.6-5.1-.3-1-.9-2-2-2.6-.5-.3-1-.5-1.6-.6-.4-.1-.7-.1-1-.1-1.8-2.3-4.2-3.8-6.5-5.1-2.6-1.4-5.2-2.4-8-3.3-1.4-.4-2.7-.8-4.1-1.2-.7-.2-1.4-.4-2.1-.5h-.1c-.1-.3-.2-.5-.4-.8l2.1.3h.1c.1-.1.2-.2.2-.4-.9-2.5-2.1-4.9-3.6-7.1-.8-1.1-1.6-2.2-2.5-3.1-.7-.7-1.5-1.4-2.3-1.9l2.5-.1c.1 0 .1 0 .2-.1s.2-.3.1-.5c-.8-1-1.7-1.9-2.6-2.7-.9-.8-1.9-1.6-2.9-2.3s-2.1-1.4-3.2-2c-.8-.4-1.7-.8-2.5-1.2l1.9-.8c.1 0 .2-.1.2-.2.1-.2-.1-.4-.3-.5-1.6-.5-3.2-.8-4.9-1-1.4-.1-2.8-.2-4.2.1l.6-1.5v-.3c-.1-.2-.3-.4-.5-.3-1.3.3-2.5.6-3.7 1.1-.6.2-1.2.5-1.8.8-.5.3-1.1.6-1.5 1.1-1 .1-1.9.2-2.8.4-1 .2-1.9.5-2.9.9s-1.8.8-2.7 1.3c-.9.5-1.7 1.1-2.5 1.6l-.2.2c0 .2.1.4.3.4l1.3.3c-2.1.8-4.1 1.6-6.1 2.6-1.2.6-2.4 1.2-3.5 1.9s-2.2 1.5-3.2 2.5l-.1.1c0 .2.1.3.2.4l2.5.6c-.9.5-1.7 1.1-2.5 1.9-.5.4-.9.9-1.3 1.5-.3.4-.6.9-.8 1.4-1.2-1.3-2.5-2.4-3.9-3.5-1.2-.9-2.6-1.8-4-2.5h3.3c.1 0 .1 0 .1-.1s0-.2-.1-.2c-2.2-1.1-4.4-1.9-6.8-2.6-1.2-.3-2.3-.6-3.6-.8-1.1-.2-2.2-.3-3.3-.3l1.9-1.2-6-3.1-2-1.9zm-14.7-4.4-1.5-2.3c1.9-.4 3.8-.5 5.7-.4 1 .1 1.9.3 2.9.6.9.3 5.7 2.2 6.5 2.8l.1.2c1.4 4 3.6 5 6 6.3 1.9.9 2.3 1.1 4 2.1l-2.8 1.4h.4c1.2.1 2.3.2 3.5.4 1.1.2 2.4.6 3.5.9 1.8.5 3.9 1.4 5.9 2.3l-3.2-.1c-.1 0-.2.1-.2.1 0 .1 0 .2.1.2.5.3 2.6 1.4 4.6 2.9 1.3 1.1 2.8 2.5 4 3.7l.2.1c.1 0 .3-.1.3-.2.3-.6.5-1.1.9-1.6s.8-1 1.2-1.4c.9-.9 1.9-1.6 3-2.1.1 0 .1-.1.2-.2 0-.1-.1-.3-.2-.3l-2.7-.6c.8-.8 1.7-1.4 2.7-2 1.1-.7 2.3-1.3 3.4-1.9 2.4-1.1 4.8-2.1 7.3-2.9.1 0 .2-.1.2-.3s-.1-.4-.3-.4l-1.8-.4c.6-.4 1.1-.8 1.7-1.1.8-.5 1.7-.9 2.6-1.2s1.8-.6 2.8-.8 1.9-.4 2.8-.4c.1 0 .2-.1.3-.2.3-.4.9-.8 1.4-1 .5-.3 1.1-.5 1.7-.8.9-.3 1.8-.6 2.8-.9l-.6 1.4v.3c.1.2.3.4.5.3 1.5-.4 3.1-.4 4.8-.2 1.2.1 2.4.4 3.6.7l-1.7.7c-.1 0-.2.1-.2.2-.1.2 0 .4.2.5 1.1.5 2.2.9 3.3 1.5s2.1 1.2 3.1 1.9 2 1.4 2.9 2.2l2.1 2.1-2.9.2c-.1 0-.2.1-.3.2-.1.2 0 .4.1.4 1.1.6 2.1 1.5 3 2.4s1.7 2 2.5 3c1.4 2 2.5 4.2 3.4 6.5l-2.1-.3h-.2c-.1.1-.2.2-.1.4 1.1 2.3 2 4.7 2.6 7.1.5 2.3.8 4.6.8 6.9l-2.1-2.7c0-.1-.1-.1-.2-.1s-.2.1-.2.2c0 1.9-.1 3.8-.6 5.7-.4 1.9-1 3.7-1.9 5.4-.8 1.7-1.7 3.4-2.8 5-1 1.5-2.1 2.9-3.2 4.2-.1-1.1-.2-2.1-.5-3.1-.3-1.2-.6-2.3-1-3.4 0-.1-.1-.1-.1-.1-.1 0-.2 0-.2.1-.4.9-.9 1.7-1.5 2.6l-1.8 2.4c-1.1 1.4-2.2 2.7-3.4 4l.3-3.2c0-.1 0-.1-.1-.2s-.2-.1-.3 0c-.8.9-1.8 1.8-2.9 2.5-1 .8-2.1 1.4-3.2 2.1-2.1 1.2-4.2 2.2-6.4 3.1.2-.7.3-1.4.4-2.2.1-.9.2-1.8.2-2.8 0-.1 0-.2-.1-.3s-.3-.1-.4.1c-.9 1.4-2.2 2.6-3.5 3.6s-2.6 1.9-4 2.7L117 206c-.1-.1-.2-.1-.3-.1.1-1.5.1-2.9-.1-4.4-.2-1.4-.4-2.7-.9-4.1l.9.4h.2c.2 0 .3-.2.2-.4-.2-1-.6-1.9-.9-2.9l-1.2-2.7c-.7-1.5-1.5-2.9-2.2-4.4l2.1.5c.1 0 .2 0 .3-.1.2-.1.3-.4.2-.7-1.2-2.1-2.7-4-4.2-5.9-1.3-1.6-2.6-3.1-4-4.6l2 .2h.1c.2-.1.3-.2.3-.4-.5-2.1-1.3-4.2-2.4-6.1-.5-1-1.2-1.9-1.8-2.8-.7-.9-1.4-1.7-2.2-2.4.7.8 1.4 1.7 2 2.6.6.9 1.1 1.9 1.6 2.8.5 1 .9 2 1.2 3 .3.9.5 1.7.7 2.6l-2.6-.4c-.1 0-.2 0-.3.1-.2.2-.2.4 0 .6 2.9 3.2 5.8 6.6 8.1 10.3l-1.9-.4c-.1 0-.2 0-.3.1-.2.1-.3.4-.2.6 1 1.7 1.9 3.5 2.8 5.2.8 1.6 1.6 3.2 2.1 4.8l-.9-.3h-.2c-.2.1-.2.2-.2.4.3.7.5 1.5.7 2.2.2.8.4 1.5.5 2.3.3 1.4.4 2.9.4 4.4-.2 0-.3.2-.3.3 0 1.6-.2 3.1-.4 4.6-.3 1.4-.6 2.8-1.1 4.1l-7.9-3.4c-.1 0-.2-.1-.3 0-.2.1-.3.3-.2.5l1 2.7c-3.4-.6-6.7-1.4-10-2.5-3.5-1.1-7-2.5-10.3-4.1-.1-.1-.2-.1-.4 0s-.3.4-.3.6l.8 2c-1.2-.3-2.5-.6-3.7-1.1-1.4-.6-2.9-1.2-4.2-2-1.3-.8-2.7-1.7-3.9-2.6-1.2-1-2.4-2-3.5-3.1-.1-.1-.2-.1-.3-.1-.3 0-.5.2-.5.5v3.4c-1.3-.8-2.4-1.9-3.5-3-1.3-1.3-2.4-2.8-3.5-4.3-.1-.1-.3-.2-.4-.2-.3 0-.5.3-.4.5l.4 3.8c-1-.8-2-1.6-2.9-2.5-1.1-1.2-2.2-2.4-3.1-3.8-.9-1.4-1.8-2.8-2.5-4.2-.7-1.5-1.4-3-1.8-4.5 0-.1-.1-.2-.2-.3-.2-.1-.5 0-.7.2l-1.5 2.9c-.7-1.3-1.2-2.7-1.6-4.2-.5-1.8-.8-3.6-1.1-5.3 0-.2-.1-.3-.3-.4-.2-.1-.5 0-.6.3l-1.4 3.3c-.6-.7-1.1-1.4-1.6-2.1-.6-.9-1-2-1.4-3.1-.3-1.1-.5-2.2-.6-3.3 0-1.1 0-2.3.3-3.3 0-.1 0-.2-.1-.3-.1-.2-.4-.2-.5-.1l-2.9 2.1c-.2-.9-.4-1.8-.3-2.8.4-1 .5-2.1.8-3.1.3-1.1.7-2.1 1.3-3.1.5-1 1.2-1.9 2-2.7.1-.1.1-.2.1-.3s-.2-.2-.3-.2l-1.5.4c.5-1.2 1-2.3 1.7-3.4.8-1.2 1.7-2.4 2.6-3.5 1.9-2.2 4.1-4.2 6.4-5.9v-.1c0-.1 0-.2-.1-.3l-1.4-.8 1.2-.8 1.5-.9c1-.5 2-1.1 3.1-1.5s5.7-.9 6.9-1.2zm-5.4 75.5c-13.8-.1-27.6-.1-41.5 0-1.2-6.6-1.1-13.5-.1-20.2.5-3.5 1.3-6.9 2.2-10.3l1.5-5.1c.2-.8.7-1.5 1.4-2 .7-.4 1.6-.6 2.4-.5.1 0 .2 0 .2-.1 1-1.6 2.6-2.8 4.2-3.9s3.4-1.9 5.2-2.7c1.7-.7 3.5-1.4 5.2-1.9.1.8.2 1.5.4 2.3 0 0 0 .1.1.1.1.2.3.2.5.1l2.6-1.8c-.1.9-.2 1.7-.2 2.6 0 1.2.2 2.4.6 3.5.3 1.1.8 2.2 1.4 3.3.6 1 1.4 1.9 2.2 2.8 0 .1.1.1.2.1.2.1.5 0 .6-.2l1-2.4c.2 1.3.5 2.5.8 3.8.5 1.8 1.1 3.6 2.2 5.2 0 .1.1.1.2.2.2.1.5 0 .7-.2l1.4-2.7c.4 1.2.9 2.4 1.5 3.6.8 1.5 1.6 3 2.6 4.4s2 2.7 3.2 3.9 2.5 2.3 3.9 3.2c.1.1.2.1.3.1.3 0 .4-.3.4-.5l-.4-3.2c.8 1 1.7 2 2.6 3 .7.7 1.3 1.4 2.1 2s1.5 1.2 2.4 1.7c.1 0 .2.1.2.1.3 0 .5-.2.5-.5v-3.2c.9.9 1.8 1.7 2.8 2.4 1.3 1 2.6 1.9 4 2.7s2.8 1.5 4.3 2.1 3.1 1 4.7 1.3h.3c.2-.1.3-.4.2-.6l-.7-1.7c3.1 1.4 6.2 2.6 9.4 3.6 1.8.6 3.6 1.1 5.4 1.5.2 0 .3.1.5.1v4.7h-3.3c-14.2-.3-28.2-.6-42.3-.7zm125.8 0-41.5.4c-12.3.1-24.6.1-36.9.1v-4.2l3 .6h.2c.2-.1.3-.3.2-.6l-1-2.4 7.3 3.1c.2.1.4 0 .5-.2.6-1.5 1-3 1.3-4.6.2-1.2.3-2.5.4-3.7l1.1 1.6c.1.1.3.2.4.1 1.5-.9 3-1.8 4.3-2.9 1.1-.9 2.1-1.8 3-2.9 0 .6-.1 1.1-.1 1.7-.1.9-.2 1.8-.5 2.6v.2c.1.1.2.2.4.1 2.4-1 4.7-2.1 7-3.4 1.1-.7 2.2-1.3 3.3-2.1.9-.6 1.7-1.3 2.5-2.1l-.3 3.3c0 .1 0 .1.1.2s.2.1.3 0c1.3-1.5 2.6-3 3.9-4.6l1.8-2.4c.5-.7.9-1.4 1.3-2.2.3 1 .6 1.9.8 2.9.3 1.1.5 2.3.5 3.5 0 0 0 .1.1.1.1.1.2.1.2 0 1.3-1.4 2.5-3 3.5-4.6 1.1-1.6 2-3.3 2.8-5.1s1.4-3.6 1.9-5.5c.4-1.7.6-3.4.6-5.2l2.1 2.7c0 .1.1.1.2.1s.2-.1.2-.2c.1-2.6-.2-5.1-.8-7.7-.3-1.2-.6-2.5-1-3.7.2.1.4.1.7.2 1.3.4 2.7.7 4 1.2 2.6.9 5.2 1.9 7.6 3.1 2.4 1.2 4.7 2.8 6.2 4.8.2.3.6.5 1 .4h.9l.9.3c.5.3.9.9 1.1 1.6.5 1.7 1.1 3.4 1.6 5 1 3.4 1.8 6.8 2.4 10.2 1.3 6.7 1.6 13.5.5 20.2zM34.1 199.4c-.2-1.6-.4-3.2-.7-4.8-.1-.4-.1-.8-.2-1.2l-.3-1.2c-.2-.8-.6-1.5-1-2.3-.8-1.4-1.7-2.8-2.8-4-1.1-1.2-2.3-2.3-3.9-2.9 1.4.8 2.6 1.9 3.5 3.2 1 1.3 1.8 2.6 2.4 4.1.3.7.7 1.5.9 2.2.1.4.2.8.3 1.1.1.4.2.8.2 1.2l.6 4.8c.3 3.2.6 6.4 1 9.6l.5 4.8.5 4.8c0-3.2-.1-6.4-.2-9.7-.2-3.3-.4-6.5-.8-9.7zm136.2-13.5c-1.1 1.2-2 2.6-2.8 4-.4.7-.8 1.4-1 2.3l-.3 1.2c-.1.4-.2.8-.2 1.2-.3 1.6-.5 3.2-.7 4.8-.3 3.2-.6 6.4-.7 9.6-.1 3.2-.2 6.4-.2 9.7l.5-4.8.5-4.8.9-9.6.6-4.8c.1-.4.1-.8.2-1.2.1-.4.1-.8.3-1.1.2-.7.6-1.5.9-2.2.7-1.4 1.5-2.8 2.4-4.1s2.1-2.4 3.5-3.2c-1.6.7-2.8 1.8-3.9 3zm-90.7-35.2" fill="#005a83" stroke-width="none" opacity="1"></path></g><g id="svga-group-head" transform="matrix(1,0,0,1,0,0)"><g id="svga-group-ears-left-move" transform="matrix(1,0,0,1,0,0)"><g id="svga-group-ears-left" transform="matrix(1,0,0,1,0,0)"><path id="SvgjsPath38246" d="M62 92.9c-.2-.3-3.3-4.3-5.9-6.7-2.6-2.4-3.4-2.4-4.6-.9-1.3 1.5-2.9 9.1-2.5 12.4.4 3.4 3.6 8.7 5.2 11.7 1.7 3 3.3 6.7 5.1 6.3 1.9-.4 4.4-4.6 5.7-7.7 1.3-3.1.5-10.8-3-15.1z" fill="#cb8d60" stroke-width="none" opacity="1" stroke="none"></path><path id="SvgjsPath38247" d="M65.8 102c.1.9.2 1.7.2 2.6s0 1.7-.2 2.6c-.1.4-.2.9-.3 1.3-.1.4-.3.7-.4 1.1-.3.7-.6 1.4-1 2.1-.7 1.3-1.5 2.6-2.6 3.6-.5.5-1.1 1-1.8 1.3-.4.1-.9.1-1.3 0-.4-.2-.8-.5-1.1-.8-1.2-1.3-1.9-2.8-2.7-4.3-.7-1.5-1.5-2.9-2.2-4.3-.7-1.5-1.5-2.9-2.1-4.4-.3-.8-.7-1.5-.9-2.3-.3-.8-.5-1.6-.6-2.5-.2-1.7 0-3.4.1-5 .2-1.6.5-3.2.8-4.8.2-.8.4-1.6.8-2.3l.3-.6c.1-.2.3-.4.4-.5.2-.3.5-.6.9-.8.3-.2.8-.3 1.2-.3.4.1.8.3 1.1.5.7.4 1.2 1 1.8 1.5 2.2 2.2 4 4.8 5.9 7.2 1.9 2.4 3.2 5.7 3.7 9.1zM55.7 86.4c-1.1-.9-2.4-1.9-3.1-1.2-.2.1-.4.4-.6.6l-.3.3c-.1.1-.1.3-.2.4-.3.6-.5 1.3-.8 2-.5 1.4-.9 2.9-1.1 4.5-.3 1.5-.5 3.1-.4 4.7.1.8.3 1.6.6 2.3.3.8.6 1.5.9 2.2.7 1.5 1.5 2.8 2.3 4.2.8 1.4 1.7 2.7 2.5 4.1.4.7.8 1.4 1.2 2s.8 1.3 1.3 1.7c.5.4.9.6 1.3.4.5-.2.9-.6 1.4-1.1.9-1 1.6-2.1 2.3-3.4.4-.6.7-1.3 1-1.9.2-.3.3-.7.4-1l.2-.5c0-.2.1-.3.1-.5.3-1.4.4-3 .3-4.6s-.4-3.2-.9-4.8c-.5-1.6-1.2-3-2.2-4.2-1.9-2.1-4-4.3-6.2-6.2z" fill="#bc7746" stroke-width="none" opacity="1" stroke="none"></path><path id="SvgjsPath38248" d="M51.2 99.4c-.3-2.3-.5-7.8.8-9.6 2.2-2.9 6 6.4 6.9 9.3 0 .1.1.2.1.3.2.3-.1.7-.4.6-.4-.2-.9-.6-1.3-.8-1.1-.5-1.6.5-1.3 1.8.4 1.8 1.4 2.9 2.2 4.3.1.2 0 .4-.2.3-1.6-.9-3.5-4.5-3.1-6.6.3-2 1.9-1.8 3.1-.8-.7-1.7-1.5-3.3-2.5-4.8-.6-.9-1.2-2-2.2-2.2-1.2-.2-1 .3-1.2 1.8-.8 4.8-.3 10.4 2.5 14.5.1.1 0 .2-.1.1-1.8-2.3-3-4.9-3.3-8.2z" fill="#ac642f" stroke-width="none" opacity="1" stroke="none"></path></g></g><g id="svga-group-ears-right-move" transform="matrix(1,0,0,1,0,0)"><g id="svga-group-ears-right" transform="matrix(1,0,0,1,0,0)"><path id="SvgjsPath38249" d="M138 92.9c.2-.3 3.3-4.3 5.9-6.7 2.6-2.4 3.4-2.4 4.6-.9 1.3 1.5 2.9 9.1 2.5 12.4s-3.6 8.7-5.2 11.7c-1.7 3-3.3 6.7-5.1 6.3-1.9-.4-4.4-4.6-5.7-7.7s-.5-10.8 3-15.1z" fill="#cb8d60" stroke-width="none" opacity="1" stroke="none"></path><path id="SvgjsPath38250" d="M138 92.9c1.9-2.4 3.8-5 5.9-7.2.5-.5 1.1-1.1 1.8-1.5.3-.2.7-.4 1.1-.5.4-.1.9.1 1.2.3.3.2.6.5.9.8.1.1.2.3.4.5l.3.6c.3.7.6 1.5.8 2.3.4 1.6.7 3.2.8 4.8.2 1.6.3 3.3.1 5-.1.9-.4 1.7-.6 2.5-.3.8-.6 1.6-.9 2.3-.7 1.5-1.4 3-2.1 4.4-.8 1.5-1.5 2.9-2.2 4.3-.8 1.4-1.4 3-2.7 4.3-.3.3-.7.6-1.1.8-.4.2-.9.2-1.3 0-.8-.3-1.3-.8-1.8-1.3-1-1.1-1.8-2.3-2.6-3.6-.4-.7-.7-1.4-1-2.1-.2-.4-.3-.7-.4-1.1-.1-.4-.3-.8-.3-1.3-.1-.9-.2-1.7-.2-2.6s.1-1.7.2-2.6c.4-3.4 1.7-6.7 3.7-9.1zm.1.1c-1 1.2-1.7 2.7-2.2 4.2-.5 1.6-.8 3.2-.9 4.8-.1 1.6 0 3.2.3 4.6 0 .2.1.3.1.5l.2.5c.1.3.3.7.4 1 .3.7.6 1.3 1 1.9.7 1.2 1.5 2.4 2.3 3.4.4.5.9.9 1.4 1.1.4.2.8 0 1.3-.4s.9-1 1.3-1.7c.4-.6.8-1.3 1.2-2 .8-1.4 1.7-2.8 2.5-4.1.8-1.4 1.6-2.8 2.3-4.2.4-.7.7-1.5.9-2.2.3-.8.5-1.6.6-2.3.1-1.6-.1-3.2-.4-4.7-.3-1.5-.7-3-1.1-4.5-.2-.7-.5-1.4-.8-2-.1-.1-.1-.3-.2-.4-.1-.1-.1-.2-.3-.3-.2-.2-.4-.5-.6-.6-.7-.6-2 .4-3.1 1.2-2.2 1.5-4.3 3.7-6.2 6.2z" fill="#bc7746" stroke-width="none" opacity="1" stroke="none"></path><path id="SvgjsPath38251" d="M148.8 99.4c.3-2.3.5-7.8-.8-9.6-2.2-2.9-6 6.4-6.9 9.3 0 .1-.1.2-.1.3-.2.3.1.7.4.6.4-.2.9-.6 1.3-.8 1.1-.5 1.6.5 1.3 1.8-.4 1.8-1.4 2.9-2.2 4.3-.1.2 0 .4.2.3 1.6-.9 3.5-4.5 3.1-6.6-.3-2-1.9-1.8-3.1-.8.7-1.7 1.5-3.3 2.5-4.8.6-.9 1.2-2 2.2-2.2 1.2-.2 1 .3 1.2 1.8.8 4.8.3 10.4-2.5 14.5-.1.1 0 .2.1.1 1.8-2.3 3-4.9 3.3-8.2z" fill="#ac642f" stroke-width="none" opacity="1" stroke="none"></path></g></g><g id="svga-group-faceshape-wrap" transform="matrix(1,0,0,1,0,0)"><g id="svga-group-faceshape-single"><path id="SvgjsPath38534" d="M143.6 82.2v-.3C142.3 52 122.5 35.3 100 35.3S57.8 52.1 56.5 82.1v.3c0 1.8.3 11.9 2.6 24.5 2.6 13.9 7.9 28.3 11.5 35.9 3.5 7.7 14.6 10.1 29.4 10.1s25.8-2.4 29.4-10.1c3.5-7.7 8.9-22 11.5-35.9 2.3-12.7 2.7-22.9 2.7-24.7z" fill="#cb8d60" stroke-width="none" opacity="1"></path><path id="SvgjsPath38535" d="M70.6 142.8c3.5 7.7 14.6 10.1 29.4 10.1s25.8-2.4 29.4-10.1c3.5-7.7 8.9-22 11.5-35.9 2.3-12.7 2.7-22.9 2.7-24.7v-.3C142.3 52 122.5 35.3 100 35.3S57.8 52.1 56.5 82.1v.3c0 1.8.3 11.9 2.6 24.5 2.6 13.9 7.9 28.3 11.5 35.9zM58.1 75.5c.3-1.7.5-3.4.9-5l.7-2.5c.2-.8.4-1.7.7-2.4l.9-2.4c.2-.4.3-.8.5-1.2l.6-1.1 1.1-2.3c.4-.8.9-1.5 1.3-2.2.5-.7.9-1.4 1.4-2.1l1.6-2 .8-1 .9-.9 1.8-1.8c.6-.6 1.3-1.1 1.9-1.6.7-.5 1.2-1.1 2-1.6 1.4-.9 2.7-1.9 4.2-2.6 2.9-1.7 6-2.7 9.2-3.7 6.4-1.6 13.1-1.8 19.6-.7 6.4 1.3 12.7 3.8 18 7.9 5.3 4.1 9.6 9.5 12.4 15.8 2.8 6.2 4.7 13.3 4.9 20.2-.1 6.9-1.1 13.6-2.4 20.4-1.2 6.8-3.3 13.4-5.6 19.8-2.4 6.4-5 12.8-7.9 19-.2.4-1 2-2.5 3.3-1.1.9-2.3 1.7-3.7 2.4-2.8 1.2-6 2-9.3 2.4-6.6.9-13.5.9-20.2.4-3.3-.2-6.6-.7-9.7-1.6-3.1-.9-5.9-2.2-7.8-4.3-.4-.5-.9-1.1-1.2-1.7l-1.1-2.3c-.7-1.5-4.6-11.1-5.8-14.3-2.3-6.5-4.4-13-5.8-19.7-1.5-6.6-2.5-13.5-2.8-20.4-.3-3.4.1-6.8.4-10.2z" fill="#9d521b" stroke-width="none" opacity="1"></path></g></g><g id="svga-group-mouth-single-move" transform="matrix(1,0,0,1,0,0)"><g id="svga-group-mouth-single" transform="matrix(1,0,0,1,0,0)"><path id="SvgjsPath38414" d="M84.13 121.38s.02 2.5 1.11 4.36c0 0 4.32 4.53 9.9 8.4.19.14 8.24 1.16 10.36.41 0 0 8.36-5.19 10.19-9.12 0 0 .66-1.94.41-3.27 0 0-6.34 1.76-9.33 2.2-2.99.45-10.62 0-14.41-.57-3.8-.57-7.27-1.92-8.23-2.41z" fill="#000000" stroke-width="none" opacity="1" transform="translate(0 2)"></path><path id="SvgjsPath38415" d="M106.75 124.35c-2.99.45-10.62 0-14.41-.57-3.79-.57-7.26-1.92-8.22-2.41 0 0 .02 2.5 1.11 4.36l.19.19c1.51 1.07 3.66 2.31 6.2 2.99 5.05 1.36 15.17 1.9 22.14-1.92.58-.32 1.09-.63 1.57-.95.14-.21.25-.43.34-.64 0 0 .66-1.94.41-3.27.01.02-6.34 1.79-9.33 2.22z" fill="#ffffff" stroke-width="none" opacity="1" transform="translate(0 2)"></path><path id="SvgjsPath38416" d="M116.59 121.88c.16-.2 0-.49-.28-.48-1.71.52-2.76.73-4.08 1.09-1.18.32-9.11 1.01-11.89.99-9.17-.2-13.39-1.67-16.1-2.4-.22-.06-.44.18-.34.34-.21 1.26 1.06 4.43 1.06 4.45 2.41 3.32 6.15 6.2 9.6 8.45 2.45 1.59 9.23 1.33 10.89.76 2.36-.89 4.78-3.17 6.36-4.68 1.46-1.4 3.54-4 4.23-5.1.29-.44.46-.97.57-1.48.13-.52.3-1.38-.02-1.94zm-5.54 8.28c-2.42 2.24-5.67 3.61-5.82 3.62-1.9.17-3.8.26-5.72.19-1.36-.05-4.19-.4-4.31-.48-1.83-.93-3.63-2.15-5.26-3.53-1.59-1.34-3.52-2.92-4.56-4.42-.65-1.11-1.02-2.25-.86-3.72 4.7 2.47 10.68 3.54 15.92 3.58 2.85.02 5.63-.36 8.4-.92 2.13-.43 5.04-.89 7-2.08-.03.32-.02.66-.07.97-.09.56.23 2.27-4.72 6.79z" fill="#E2929B" stroke-width="none" opacity="1" transform="translate(0 2)" stroke="none"></path></g></g><g id="svga-group-eyes-left-move" transform="matrix(1,0,0,1,0,0)"><g id="svga-group-eyes-left" transform="matrix(1,0,0,1,0,0)"><g id="svga-group-eyesback-left"><path id="SvgjsPath38278" d="M89.2 98s-.1-2.4-1.3-4.2c-1.2-1.8-3.7-4.7-8.4-4.9S71 90.8 71 90.8s.5 3.5 2.2 4.9c1.7 1.4 4.6 3.5 9.3 3.3 4.8-.1 6.7-1 6.7-1z" fill="#ffffff" stroke-width="none" opacity="1"></path></g><g id="svga-group-eyesiriswrapper-left" transform="matrix(1,0,0,1,0,0)"><g id="svga-group-eyesiriscontrol-left" transform="matrix(1,0,0,1,0,0)"><g id="svga-group-eyesiris-left" transform="matrix(1,0,0,1,0,0)"><path id="SvgjsPath38334" d="M80.1 88.1c3 0 5.5 2.4 5.5 5.5S83.1 99 80.1 99s-5.5-2.4-5.5-5.5 2.4-5.4 5.5-5.4z" fill="#8ab42d" stroke-width="none" opacity="1"></path><path id="SvgjsPath38335" d="M80.1 89.1c2.5 0 4.4 2 4.4 4.4s-2 4.4-4.4 4.4-4.4-2-4.4-4.4 1.9-4.4 4.4-4.4z" fill="#000000" stroke-width="none" opacity="1"></path><path id="SvgjsPath38336" d="M74.6 93.5c0 .9.2 1.8.6 2.5.8.5 1.7.8 2.7.8 2.9 0 5.2-2.3 5.2-5.2 0-1.2-.4-2.3-1.1-3.2-.6-.2-1.3-.4-1.9-.4-3.1.1-5.5 2.5-5.5 5.5z" fill="#9cc344" stroke-width="none" opacity="1"></path><path id="SvgjsPath38337" d="M75.6 93.5c0 1.3.5 2.4 1.4 3.2.3.1.6.1.9.1 2.9 0 5.2-2.3 5.2-5.2 0-.5-.1-1-.2-1.5-.8-.6-1.8-1-2.8-1-2.5 0-4.5 2-4.5 4.4z" fill="#1e1e1e" stroke-width="none" opacity="1"></path><path id="SvgjsPath38338" d="M77.7 91.2c.6-.7 1.5-.8 2-.4s.4 1.4-.3 2c-.6.7-1.5.8-2 .4-.5-.5-.4-1.4.3-2z" fill="#2b2b2b" stroke-width="none" opacity="1"></path></g></g></g><g id="svga-group-eyesfront-left"><path id="SvgjsPath38286" d="M69.4 94.6c0 6.4 4.7 11.5 10.6 11.5 5.9 0 10.6-5.2 10.6-11.5S85.9 83.1 80 83.1c-5.8 0-10.6 5.1-10.6 11.5zm1.6-3.8s3.7-2.1 8.5-1.9c4.8.2 7.3 3 8.4 4.9 1.2 1.8 1.3 4.2 1.3 4.2s-2 .9-6.7 1c-4.7.1-7.6-1.9-9.3-3.3-1.7-1.4-2.2-4.9-2.2-4.9z" fill="#cb8d60" stroke-width="none" opacity="1" stroke="none"></path><path id="SvgjsPath38287" d="M90.6 95.9c-2-3.6-4.1-6.6-8.3-7.9-4.3-1.4-8.1-.2-11.9 1.9-.2.1-.5-.2-.3-.4 6.3-5.7 18.8-2.3 20.6 6.3.1.2 0 .2-.1.1z" fill="#bc7746" stroke-width="none" opacity="1" stroke="none"></path><path id="SvgjsPath38288" d="M83.1 89.2c-4.8-2-10.6-.9-14.6 2.4-.5.4.1 1.1.6.8.5-.3 1-.6 1.6-.9 1.3 8.3 11.8 9.4 18.2 6.8.1.4.1.8.2 1.2 0 .3.5.4.6.1.7-4.5-2.5-8.7-6.6-10.4zm-4.6 8.9c-3.5-.9-6.2-3.4-6.7-7 0-.1 0-.1-.1-.1 3-1.5 6.2-2.3 9.7-1.3 4.2 1.2 6.7 4.2 7.5 8.2-3.6.2-6.9 1.2-10.4.2z" fill="#582311" stroke-width="none" opacity="1" stroke="none"></path></g></g></g><g id="svga-group-eyes-right-move" transform="matrix(1,0,0,1,0,0)"><g id="svga-group-eyes-right" transform="matrix(1,0,0,1,0,0)"><g id="svga-group-eyesback-right"><path id="SvgjsPath38279" d="M110.8 98s.1-2.4 1.3-4.2c1.2-1.8 3.7-4.7 8.4-4.9s8.5 1.9 8.5 1.9-.5 3.5-2.2 4.9c-1.7 1.4-4.6 3.5-9.3 3.3-4.8-.1-6.7-1-6.7-1z" fill="#ffffff" stroke-width="none" opacity="1"></path></g><g id="svga-group-eyesiriswrapper-right" transform="matrix(1,0,0,1,0,0)"><g id="svga-group-eyesiriscontrol-right" transform="matrix(1,0,0,1,0,0)"><g id="svga-group-eyesiris-right" transform="matrix(1,0,0,1,0,0)"><path id="SvgjsPath38339" d="M119.9 88.1c3 0 5.5 2.4 5.5 5.5S123 99 119.9 99s-5.5-2.4-5.5-5.5 2.5-5.4 5.5-5.4z" fill="#8ab42d" stroke-width="none" opacity="1"></path><path id="SvgjsPath38340" d="M119.9 89.1c2.5 0 4.4 2 4.4 4.4s-2 4.4-4.4 4.4-4.4-2-4.4-4.4 2-4.4 4.4-4.4z" fill="#000000" stroke-width="none" opacity="1"></path><path id="SvgjsPath38341" d="M114.5 93.5c0 .9.2 1.8.6 2.5.8.5 1.7.8 2.7.8 2.9 0 5.2-2.3 5.2-5.2 0-1.2-.4-2.3-1.1-3.2-.6-.2-1.3-.4-1.9-.4-3.1.1-5.5 2.5-5.5 5.5z" fill="#9cc344" stroke-width="none" opacity="1"></path><path id="SvgjsPath38342" d="M115.5 93.5c0 1.3.5 2.4 1.4 3.2.3.1.6.1.9.1 2.9 0 5.2-2.3 5.2-5.2 0-.5-.1-1-.2-1.5-.8-.6-1.8-1-2.8-1-2.5 0-4.5 2-4.5 4.4z" fill="#1e1e1e" stroke-width="none" opacity="1"></path><path id="SvgjsPath38343" d="M117.5 91.2c.6-.7 1.5-.8 2-.4s.4 1.4-.3 2c-.6.7-1.5.8-2 .4-.4-.5-.3-1.4.3-2z" fill="#2b2b2b" stroke-width="none" opacity="1"></path></g></g></g><g id="svga-group-eyesfront-right"><path id="SvgjsPath38289" d="M120 83.1c-5.9 0-10.6 5.2-10.6 11.5s4.7 11.5 10.6 11.5c5.9 0 10.6-5.2 10.6-11.5s-4.8-11.5-10.6-11.5zm6.8 12.6c-1.7 1.4-4.6 3.5-9.3 3.3-4.7-.1-6.7-1-6.7-1s.1-2.4 1.3-4.2c1.2-1.8 3.7-4.7 8.4-4.9 4.8-.2 8.5 1.9 8.5 1.9s-.5 3.5-2.2 4.9z" fill="#cb8d60" stroke-width="none" opacity="1" stroke="none"></path><path id="SvgjsPath38292" d="M109.4 95.9c2-3.6 4.1-6.6 8.3-7.9 4.3-1.4 8.1-.2 11.9 1.9.2.1.5-.2.3-.4-6.3-5.7-18.8-2.3-20.6 6.3-.1.2 0 .2.1.1z" fill="#bc7746" stroke-width="none" opacity="1" stroke="none"></path><path id="SvgjsPath38293" d="M131.5 91.6c-4-3.3-9.7-4.4-14.6-2.4-4 1.7-7.3 5.9-6.6 10.4.1.3.5.2.6-.1 0-.4.1-.8.2-1.2 6.5 2.6 17 1.4 18.2-6.8.5.3 1 .6 1.6.9.4.3 1-.5.6-.8zm-3.2-.5c-.5 3.6-3.3 6.1-6.7 7-3.6 1-6.9 0-10.4-.3.8-3.9 3.3-7 7.5-8.2 3.5-1 6.7-.1 9.7 1.3-.1.1-.1.2-.1.2z" fill="#582311" stroke-width="none" opacity="1" stroke="none"></path></g></g></g><g id="svga-group-facehighlight-single"></g><g id="svga-group-eyebrows-left-move" transform="matrix(1,0,0,1,0,0)"><g id="svga-group-eyebrows-left-rotate" transform="matrix(1,0,0,1,0,0)"><g id="svga-group-eyebrows-left" transform="matrix(1,0,0,1,0,0)"><path id="SvgjsPath38212" d="M66.1 85c.5-1.2 1.7-2.2 2.6-3.1.8-.9 1.7-1.9 2.6-2.7.4-.9 1.2-1.5 1.9-2.2l.1-.1c.1-.2.2-.3.3-.5.3-.5.7-1 1.2-1.4h.2l.1-.1c.1 0 .1-.1.1-.1.1-.1.2-.2.3-.2.1-.1.2-.1.3 0h.1c.3 0 .4.2.5.4h.2c.5.2.9.3 1.4.4.3.1.4.3.4.5l1.5.6c.4.2.8.3 1.3.6.6.3 1.2.5 1.8.8.2.1.3.2.3.4.1 0 .1.1.2.1s.1.1.1.2c.1.1.2.1.4.2 1.3.4 2.5.9 3.7 1.6.2.1.2.2.3.3.1.1.2.1.3.2.3.1.5.2.8.3 1 .3 1.9.7 2.8 1.3.1.1.1.2.1.3.2.1.3.2.5.4.3.2.1.8-.3.7-.1 0-.2-.1-.3-.1-.2.6-.5 1.2-.9 1.7v.1c0 .2 0 .4-.1.6 0 .4-.4.8-.8.6l-3.6-2.4c-1.3-.8-2.6-1.6-3.8-2.6-1.4-.8-2.8-1.6-4.1-2.5-.8-.4-1.5-.9-2.2-1.4-.2.2-.5.3-.7.4-.6.5-1.1.9-1.7 1.4-.8.6-1.6 1.3-2.6 1.6-.3.4-.7.8-1.1 1.2-.5.5-1.1 1.1-1.8 1.5-.2.2-.4.3-.6.4-.5.5-.9.9-1.5 1.2-.2-.1-.5-.4-.3-.6z" fill="#b79675" stroke-width="none" opacity="1"></path><path id="SvgjsPath38213" d="M89.5 86.3c0-.1.1-.2.2-.3-.1-.1-.2-.2-.2-.3.2-.7.4-1.3.4-2 .1-.9-.2-1.6-.4-2.4-.1-.2.2-.4.4-.3 1.4.9.9 2.9.4 4.3.2-.2.3-.3.4-.5.4-.6.7-1.2 1-1.9.1-.3.6-.2.5.2-.1.7-.4 1.4-.8 2.1-.3.5-.9 1.4-1.5 1.6-.3 0-.5-.2-.4-.5zM76.2 74.7c2.3 1.6 4.2 3.9 6.3 5.7 1.1.9 2.3 1.8 3.5 2.6-.6-.9-1.2-1.7-1.9-2.4-1.2-1.3-2.6-2.3-3.8-3.5-.2-.2 0-.7.3-.5 3 1.4 5.1 4.4 6.6 7.3l1.2.9c-.3-.8-.7-1.7-1.1-2.5-.5-.9-1.2-1.7-1.7-2.6-.1-.2.1-.4.3-.3 1.9 1.1 3 3.8 3.2 6l.1.1c.1.1 0 .3-.1.3-.1.2-.3.2-.4 0 0-.1-.1-.2-.1-.2-2.4-1.2-4.6-2.9-6.7-4.5-2.1-1.7-4.8-3.6-6.2-5.9-.1-.4.2-.7.5-.5zm-4.1 3.2c.4-.5 1.2-.6 1.8-.6.7-.1 1.5-.1 2.1.2.2.1.2.4-.1.4-.7.1-1.3 0-2 0-.6.1-1.2.4-1.8.3 0 .1-.1-.1 0-.3zm-2.3 2.6c.7-.6 1.7-.9 2.5-1.2 1-.4 2.1-.8 3.2-1.2.2-.1.3.2.2.3-.9.5-1.9 1-2.9 1.4-.9.4-1.8.9-2.8 1.1-.3.1-.4-.3-.2-.4z" fill="#c6ac93" stroke-width="none" opacity="1"></path><path id="SvgjsPath38214" d="M76 78.3c2.1 1.6 4.5 2.9 6.7 4.3 2.4 1.5 4.7 3 7.2 4.4v.1c-.1.2.2.4.4.3.1.1.2.1.3.1.8-.3 1.5-1.3 2-2 .6-.8 1.1-1.6 1.4-2.5.1-.3-.3-.4-.5-.2-.3.4-.6.8-.8 1.2.2-.8.4-1.6.3-2.3 0-.1-.1-.2-.2-.2-.1-.2-.3-.3-.4-.1-.2.2-.3.4-.5.6-5.1-2.9-10.7-5.2-16-7.8h-.4c-2.2 1.9-4.1 4-6 6.1-1.9 2.1-4 4.2-5.4 6.6v.1c-.1.1-.2.3-.4.4-.1.2 0 .4.2.3 2.2-1 4.1-2.8 6-4.3C72 81.6 74 80 76 78.3zm-.2-.4c-2.2 1.4-4.3 3.1-6.4 4.7-.7.6-1.6 1.1-2.3 1.7.9-1.1 1.8-2.3 2.8-3.4 1.9-2.1 3.8-4.1 5.6-6.2 5.3 2.5 10.5 5.4 15.9 7.6-.2.3-.5.5-.6.9-.1.2.1.3.3.3.3-.1.5-.2.7-.4-.2.5-.3.9-.5 1.3-.3.8-.8 1.4-1.3 2.1-2.3-1.6-4.6-3.1-7-4.6-2.2-1.4-4.4-3.1-6.8-4.3-.1-.1-.3 0-.4.3z" fill="#a8815a" stroke-width="none" opacity="1"></path></g></g></g><g id="svga-group-eyebrows-right-move" transform="matrix(1,0,0,1,0,0)"><g id="svga-group-eyebrows-right-rotate" transform="matrix(1,0,0,1,0,0)"><g id="svga-group-eyebrows-right" transform="matrix(1,0,0,1,0,0)"><path id="SvgjsPath38215" d="M134 85c-.5-1.2-1.7-2.1-2.6-3.1-.9-.9-1.7-1.9-2.6-2.7-.4-.8-1.2-1.5-1.9-2.2l-.1-.1c-.1-.2-.2-.3-.3-.5-.3-.5-.7-1-1.2-1.4-.1-.1-.1-.1-.2-.1l-.1-.1c-.1 0-.1-.1-.1-.1-.1-.1-.2-.2-.3-.2-.1-.1-.2-.1-.3 0h-.1c-.3 0-.4.2-.5.4h-.2c-.5.2-.9.3-1.4.4-.3.1-.4.3-.4.5l-1.5.6c-.4.2-.8.3-1.3.6-.6.3-1.2.5-1.8.8-.2.1-.3.2-.3.4-.1 0-.1.1-.2.1-.1.1-.1.1-.1.2-.1.1-.2.1-.4.2-1.3.4-2.5.9-3.7 1.6-.2.1-.2.2-.3.3-.1.1-.2.1-.3.2-.3.1-.5.2-.8.3-1 .3-1.9.7-2.8 1.3-.1.1-.1.2-.1.3-.2.1-.3.2-.5.4-.3.2-.1.8.3.7.1 0 .2-.1.3-.1.2.6.5 1.2.9 1.7v.1c0 .2 0 .4.1.6 0 .4.4.8.8.6l3.6-2.4c1.3-.8 2.6-1.6 3.7-2.6 1.4-.8 2.8-1.6 4.1-2.5.8-.4 1.5-.9 2.2-1.4.2.2.5.3.7.4.6.5 1.1.9 1.7 1.4.8.6 1.6 1.3 2.5 1.6.3.4.6.8 1.1 1.2.5.5 1.1 1.1 1.8 1.5.2.2.4.3.6.4.5.5.9.9 1.5 1.2.3 0 .6-.3.5-.5z" fill="#b79675" stroke-width="none" opacity="1"></path><path id="SvgjsPath38216" d="M110.5 86.3c0-.1-.1-.2-.2-.3.1-.1.2-.2.2-.3-.2-.7-.4-1.3-.4-2-.1-.9.2-1.6.4-2.4.1-.2-.2-.4-.4-.3-1.3.9-.9 2.9-.4 4.3-.2-.2-.3-.3-.4-.5-.4-.6-.7-1.2-1-1.9-.1-.3-.6-.1-.5.2.1.7.4 1.4.8 2.1.3.5.9 1.4 1.5 1.6.3 0 .5-.2.4-.5zm13.3-11.6c-2.3 1.6-4.2 3.9-6.3 5.7-1.1.9-2.3 1.8-3.5 2.7.6-.9 1.2-1.7 1.9-2.4 1.2-1.3 2.6-2.3 3.8-3.5.2-.2 0-.7-.3-.5-3 1.4-5.1 4.4-6.6 7.3l-1.2.9c.3-.8.6-1.7 1.1-2.5.5-.9 1.2-1.7 1.7-2.6.1-.2-.1-.4-.3-.3-1.9 1.1-3 3.8-3.2 6l-.1.1c-.1.1 0 .3.1.3.1.2.3.2.4 0 0-.1.1-.2.1-.2 2.4-1.2 4.6-2.9 6.7-4.6 2.1-1.7 4.8-3.6 6.2-5.9.1-.4-.2-.7-.5-.5zm4.1 3.2c-.4-.5-1.2-.6-1.8-.6-.7-.1-1.5-.1-2.1.2-.2.1-.2.4.1.4.7.1 1.3 0 2 0 .6.1 1.2.4 1.8.3 0 0 .1-.1 0-.3zm2.3 2.6c-.7-.6-1.7-.9-2.5-1.2-1-.4-2.1-.8-3.2-1.2-.2-.1-.3.2-.2.3.9.5 1.9 1 2.9 1.4.9.4 1.8.9 2.8 1.1.3.1.4-.3.2-.4z" fill="#c6ac93" stroke-width="none" opacity="1"></path><path id="SvgjsPath38217" d="M130.1 83.2c1.9 1.5 3.8 3.3 6 4.3.2.1.4-.2.2-.3-.1-.1-.2-.3-.4-.4v-.1c-1.4-2.4-3.5-4.5-5.4-6.6-1.9-2.1-3.8-4.2-6-6.1-.1-.1-.2-.1-.2 0h-.2c-5.3 2.6-10.8 4.9-16 7.8-.1-.2-.3-.4-.5-.6-.2-.1-.3 0-.4.1-.1 0-.2.1-.2.2-.1.7.1 1.5.3 2.3-.3-.4-.6-.8-.8-1.2-.2-.2-.6-.1-.5.2.3.9.8 1.7 1.4 2.5.5.7 1.2 1.7 2 2 .1 0 .2 0 .3-.1.2.1.5-.1.4-.3v-.1c2.4-1.4 4.8-2.9 7.2-4.4 2.2-1.4 4.6-2.7 6.7-4.3 1.9 1.9 4 3.5 6.1 5.1zm-6.4-5.6c-2.4 1.2-4.6 2.8-6.8 4.3-2.3 1.5-4.7 3-7 4.6-.4-.7-.9-1.3-1.3-2.1-.2-.4-.4-.9-.5-1.3.2.2.4.4.7.4.2 0 .3-.1.3-.3-.1-.3-.4-.6-.6-.9 5.4-2.2 10.7-5.1 15.9-7.6 1.8 2.1 3.8 4.1 5.6 6.2 1 1.1 1.9 2.2 2.8 3.4-.8-.6-1.6-1.1-2.4-1.7-2.1-1.6-4.2-3.2-6.4-4.6.1-.4-.1-.6-.3-.4z" fill="#a8815a" stroke-width="none" opacity="1"></path></g></g></g><g id="svga-group-beardwrap" transform="matrix(1,0,0,1,0,0)"><g id="svga-group-beard-single-move" transform="matrix(1,0,0,1,0,0)"><g id="svga-group-beard-single" transform="matrix(1,0,0,1,0,0)"></g></g></g><g id="svga-group-mustache-single-move" transform="matrix(1,0,0,1,0,0)"><g id="svga-group-mustache-single" transform="matrix(1,0,0,1,0,0)"></g></g><g id="svga-group-nose-single-move" transform="matrix(1,0,0,1,0,0)"><g id="svga-group-nose-single" transform="matrix(1,0,0,1,0,0)"><path id="SvgjsPath38392" d="M107.6 109.82c1.26.73 3.11 2.76 1.66 5.68-1.46 2.92-4.61 2.05-4.61 2.05s-1.02 2.88-2.72 3.63-3.98.63-5.04-.91-1.78-2.5-1.78-2.5-3.39-.11-4.88-1.45c-1.5-1.34-1.22-3.51-.83-4.3s1.14-1.46 2.33-1.89c1.18-.43 3.19-1.69 3.63-2.21.43-.51 4.09-2.73 8.16-.12 1.64 1.08 2.39 1.04 4.08 2.02z" fill="#cb8d60" stroke-width="none" opacity="1" transform="translate(0 1)" stroke="none"></path><path id="SvgjsPath38393" d="M95.61 107.76c1.87-1.78 1.73-4.89 1.31-7.36-.38-2.21-1.03-4.45-.71-6.72.26-1.84 1.12-3.49 1.21-5.38.01-.21-.3-.26-.33-.05-.26 1.63-.88 3.1-1.24 4.7-.32 1.44-.29 2.89-.07 4.34.54 3.59 1.68 7.03-.35 10.31-.08.13.09.25.18.16z" fill="#9d521b" stroke-width="none" opacity="1" transform="translate(0 1)" stroke="none"></path><path id="SvgjsPath38394" d="M107.35 109.55c-.14-.03-.23.17-.1.27 1.33.99 2.54 2.45 2.16 4.42-.29 1.49-1.26 2.32-2.4 2.79.4-.33.81-.64 1.13-1.06.34-.42.14-1.3-.45-1.23-.68.07-1.24.41-1.78.84.31-.8.6-1.57.91-2.24.06-.13-.08-.26-.18-.16-2.26 2.2-2.28 7.02-5.6 7.95-4.03 1.12-6.08-3.8-6.88-7.3-.08-.34-.5-.19-.45.14.07.47.16.95.28 1.43-.11-.07-.22-.14-.34-.2-.74-.39-1.56-.43-2.28.05-.44.29-.41 1.19.15 1.31.36.07.74.18 1.08.35-.6-.04-1.2-.12-1.7-.45-1.1-.73-1.73-2.31-1.36-3.71.35-1.32 1.28-1.86 2.27-2.45.13-.08.07-.31-.08-.31-2.1-.01-3.37 2.86-2.78 4.92.85 2.99 3.71 2.74 5.92 3.32.05.01.09 0 .13-.01 1.06 2.08 2.71 3.69 5.01 3.78 2.23.09 3.62-1.53 4.66-3.55.06.03.12.05.19.04.49-.04.9-.32 1.27-.65 4.16.68 5.48-7.4 1.22-8.29z" fill="#9d521b" stroke-width="none" opacity="1" transform="translate(0 1)" stroke="none"></path><path id="SvgjsPath38395" d="M101.66 88.39c-.31-.35-.82.01-.72.47.28 1.34.83 2.48.87 3.89.04 1.34-.19 2.66-.38 3.97-.27 1.89-.43 4.14.57 5.8.19.31.6.19.63-.19.24-4.29 2.26-10.35-.97-13.94z" fill="#d3986e" stroke-width="none" opacity="1" transform="translate(0 1)" stroke="none"></path><path id="SvgjsPath38396" d="M104.63 111.57c-.24-.84-1.29-1.06-1.7-.25-.55 1.07-.43 2.41-.88 3.55-.44 1.09-1.22 1.69-2.05 2.37-.36.29-.28.81.12 1 2.9 1.37 5.23-4.16 4.51-6.67z" fill="#d3986e" stroke-width="none" opacity="1" transform="translate(0 1)" stroke="none"></path></g></g><g id="svga-group-hair-front" transform="matrix(1,0,0,1,0,0)"><path id="SvgjsPath38442" d="M55.7 57.9s-10.6 13-9.5 22.2l2.7-3.3s-5.2 15.1-9.3 20.1c0 0 4.1-1.3 6.8-4.6v7.3s4.3-10.4 8.9-14.7c0 0 1.5 8.5 6.2 12.6 0 0-1-9.5 1-15.5 0 0 4.8-10.6 4.5-16.2 0 0 .8 5.6 3.3 8.1 0 0-2.1-11 3.3-17.2 0 0 6.4 2.1 18.2-1.5 0 0 12-1 22.1 11.6 0 0-.4-8.5-5.6-12.8 0 0 7.3 3.5 11.4 2.9 0 0 7.3 5.8 11.2 6 0 0 2.3 8.1 2.3 14.5 0 0 2.9-5.2 3.3-7.7 0 0-1.9 17.2 2.7 24.2 0 0 1-5.6 2.9-7 0 0 6.8 10.2 11.6 11.8 0 0-5.6-6.8-6-14.3l5.8 3.5s-5.6-6.4-5.8-16.1c0 0 3.9.6 6 4.1 0 0-5-13.9-12-18.8 0 0 7.6 5.4 13.4 3.5 0 0-13-5.8-16.2-14.1 0 0 5.4.6 8.7 3.7 0 0-7.6-12.4-20.3-13.9 0 0 8.3-8.3 8.1-12.2 0 0-13.9 8.7-25.2 8.5 0 0 4.6-7.9 4.4-11.6 0 0-7.9 9.7-12 10.5 0 0-.2-3.3 1.2-7.4 0 0-6 8.5-8.7 9.7L97 27s-6 8.1-11 9.7c0 0 1.3-2.9.6-5.6 0 0-1.7 3.1-3.7 4.1 0 0 1.6-6 1.3-7.9 0 0-4.4 7-6.2 7.9l-.2-5.4s-4.3 8.1-7.9 10.1c0 0-.8-2.9-1.9-4.3 0 0-1 3.9-1.3 5.8 0 0-.6-8.5-6.4-11.2 0 0 3.1 13.9.8 16.8 0 0-4.5-7.7-6-8.7 0 0 1.9 9.5 1.5 11.8 0 0-7.9 4.8-9.5 9.7 0 0 6-2.5 9.1-3.7l-.5 1.8z" fill="#b79675" stroke-width="none" opacity="1" stroke="none"></path><path id="SvgjsPath38443" d="M116.5 37.2c-7.8 8.4-16.7 13.2-27.8 15.5-.4.1-.3.8.1.8 10.9-1.2 21.4-7.3 28-16 .1-.3-.2-.5-.3-.3zm.6-1.2c-5.2 2.6-10.4 4.2-16 5.3-.3 0-.2.5.1.5 5.7-.5 11.3-2.4 16.2-5.4.2-.1 0-.5-.3-.4zm12.5-7.4c-2.3 4-5.2 7.1-8.7 10.1-.2.2.1.6.3.4 3.8-2.4 6.8-6.2 8.7-10.3.2-.2-.2-.4-.3-.2zM76 50.8c4.7-2.5 7.2-6.5 8.8-11.4.2-.4-.5-.6-.7-.3-1.1 1.5-2.4 2.7-4 3.8-.3.2-.1.6.3.5 1.9-.8 3.2-2.2 4.3-3.9-.2-.1-.5-.2-.7-.3-.8 4.7-4.4 8.7-8.4 11-.3.2.1.8.4.6zm6.4-1.2c2.8-1.3 5.7-3.1 7.6-5.5.2-.2-.1-.5-.3-.3-2.4 2.1-4.7 4-7.5 5.4-.3.1-.1.5.2.4zM71.3 54c-2.4 2.5-4.2 6.1-3.8 9.6.1.5.7.5.7 0 .4-3.5 1.2-6.4 3.5-9.1.4-.3-.1-.8-.4-.5zM60.9 32.3c1.8 6.7 1.1 11.8-.8 18.3-.1.4.4.6.7.3 3.6-5.3 3.5-13.2.9-18.9-.3-.4-.9-.1-.8.3zM56.3 42c-.3 3.8 1.1 7.8 4.2 10.1.3.2.6-.2.4-.5-2.5-2.8-4.1-5.8-4.2-9.6 0-.3-.4-.3-.4 0zm.2 15.9c-3.3 3.1-6 7.9-6.8 12.4-.1.3.5.6.6.3.9-2.2 1.7-4.3 2.8-6.4 1.1-2.1 2.6-3.9 3.9-5.8.3-.4-.2-.8-.5-.5zM60.1 74c-1.6 4.2-2.5 8.8-1.9 13.3.1.4.7.5.7 0 0-4.5.3-8.8 1.7-13.2.1-.3-.4-.4-.5-.1zM46.8 94.8c2.8-3.7 5.7-7.6 7.9-11.7.2-.4-.3-.8-.6-.5-3 3.6-5.4 7.8-7.8 11.8-.2.4.3.7.5.4zm52.1-40.7c4.2.6 6.7 3.1 9.2 6.3.2.2.5 0 .4-.2-1.2-3.9-5.7-6.3-9.5-6.6-.3 0-.4.5-.1.5zm10.8-2.8c5.8 2.1 12.3 3.2 18.5 2.5.4 0 .4-.5 0-.5-6.3-.3-12.3-.8-18.4-2.4-.3-.2-.4.3-.1.4zm18.1 8.5c4.6.6 8.9 1.9 13.3 3.2.4.1.6-.4.3-.6-4.2-2-8.9-2.8-13.5-2.9-.3-.1-.4.2-.1.3zm10.7 8.4c-1.3 6.1-1.5 12.8.2 18.8.1.3.7.3.7-.1-.8-6.4-1.1-12.3-.3-18.7 0-.3-.6-.4-.6 0zm-22.2-21.4c5.2.1 10.2.9 15.1 2.8-.1-.2-.1-.5-.2-.7-1.4 1.2-2.8 1.9-4.6 2.2-.2 0-.2.4.1.4 2 0 3.6-.6 5.1-1.9.3-.2.1-.6-.2-.7-4.9-2-10-2.9-15.3-2.6-.3 0-.4.5 0 .5zm23.9 8c1.4 1.4 3.3 2.9 5.3 3.3.3.1.5-.4.2-.6-.8-.5-1.8-.8-2.6-1.3-.9-.5-1.8-1.1-2.6-1.8-.2-.2-.6.1-.3.4zm2.6 7.4c2.6 2.4 4.3 5.1 6.2 8 .2.3.7.1.6-.2-1.1-3.3-3.8-6.1-6.5-8.1-.2-.3-.5.1-.3.3zm-1.3 8.4c.6 4.8 3 9.9 7 12.8.3.2.6-.2.4-.5-3.4-3.7-5.8-7.4-6.9-12.4-.1-.2-.5-.1-.5.1zm.9 12.9c.5 3.1 1.7 6.6 4.1 8.8.3.2.7-.1.5-.4-1.8-2.8-3.3-5.3-3.8-8.6-.2-.5-.9-.3-.8.2z" fill="#c6ac93" stroke-width="none" opacity="1" stroke="none"></path><path id="SvgjsPath38444" d="M106.1 29.8c2.9-1.7 5.5-4.2 7.5-7-1.2 3.5-2.8 6.7-4.7 10-.3.5.4.8.7.4 2.8-4 4.6-8.6 5.8-13.3.1-.5-.5-.8-.8-.3-2.6 3.8-5.4 6.8-8.9 9.8-.4.1 0 .6.4.4zm-17.4 6c2.8-2.1 5.4-4.6 7.6-7.3-.6 1.8-1.4 3.5-2.2 5.2-.2.4.2.9.6.6 3.2-2.2 6.2-5 8.2-8.4-.3 1.1-.7 2.2-1 3.3-.1.3.3.4.4.1.6-1.9 1.1-3.9 1.8-5.7.2-.4-.4-.6-.7-.3-2.3 3.5-4.7 6.6-8 9.2.8-1.9 1.4-3.8 2-5.8.1-.3-.3-.6-.6-.3-2.6 3.3-5.4 6.3-8.6 9 0 .2.2.6.5.4zm-6.1-1.2c-.1.5.6.6.7.2.9-2.6 1.2-5.3 1.2-8 0-.5-.7-.7-.9-.2-1.4 2.7-3.1 5.2-5.2 7.4-.1-1.5-.1-3-.2-4.5 0-.4-.7-.7-.8-.2-1.4 3-3.2 5.6-5.2 8.3-.2.3.2.5.4.3 2-1.9 3.5-4.2 4.7-6.6 0 1.3.1 2.6.1 3.9 0 .4.5.7.8.3 2.1-2 3.8-4.3 5.2-6.8 0 1.9-.3 3.9-.8 5.9zM57 49c-.2-3.3-.8-6.7-1.4-10 2.2 2.5 3.8 5.5 4.9 8.6.1.3.7.2.6-.2-1.3-3.8-3.4-7-5.9-10.1-.2-.3-.8-.1-.8.3.5 3.8 1 7.7 1.9 11.5.2.4.7.3.7-.1zm-9.5 11.5c2.6-1.2 5.5-2.2 7.9-3.8.4-.3.2-.9-.3-.8-2.2.7-4.4 1.8-6.5 2.8 1.7-2.8 3.9-5.2 6.5-7.3.4-.3-.1-.9-.5-.7-3.3 2.3-5.9 5.4-7.7 9-.4.6.1 1.1.6.8zm-2.9 32.4-3.6 3c4.3-5.6 7.3-12.1 8.5-19.1.7-.8 1.3-1.6 2.1-2.3.5-.5-.3-1.3-.8-.8s-.9.9-1.3 1.4c-.2-.1-.5 0-.5.2s-.1.3-.1.5c-.7.9-1.4 1.8-2 2.7 1.7-7.4 4.8-14.2 9.1-20.5.3-.4-.4-.8-.7-.4-5.4 7-8.6 15.2-10.1 23.9-.1.6.7 1 1 .4.6-1.2 1.3-2.4 2.1-3.5-2 7.6-5.6 14.4-11 20.2-.4.5.1 1.3.7.9 2.7-1.7 5.2-3.6 7.3-6 .3-.4-.3-1-.7-.6zm17.3-8.8c-1.4 4.1-1.5 8.5-.9 12.8-2.8-3.5-4.3-7.4-5.2-11.8 0 0 0-.1-.1-.1.3-.4.6-.8.9-1.3.2-.3-.2-.6-.4-.3-4 4.2-7 9.4-9.4 14.6 0-4.5 1.1-8.8 2.9-13 .2-.4-.3-.7-.5-.3-2.6 4.8-3.6 10-3.2 15.4 0 .4.7.7.9.2 2.3-5.2 5.3-9.9 8.5-14.7.5 4.9 2.9 9.4 6.2 13 .3.3.8 0 .8-.4-1-4.8-.6-9.3.3-14.1-.2-.2-.7-.3-.8 0zm10.9-26.6c-2.6 3-3.5 7.4-3.5 11.2 0 1 .1 1.9.2 2.9 0 .1.1.4.2.8l-1-1.5c-.8-1.6-1.2-3.3-1.6-5-.1-.3-.7-.3-.6.1.4 3.3 1.9 6.2 3.8 8.9.2.3.7.1.6-.3-1.6-6.3-.2-11.1 2-16.9.3-.2 0-.4-.1-.2zm-11 18.9c1.2-5.5 3-10.6 5.8-15.5.2-.3-.3-.6-.4-.3-2.9 4.9-4.9 10.1-5.7 15.7 0 .2.2.3.3.1zM76.2 40c-2.2 3.5-4.4 7-6.8 10.4-.1.2.1.4.3.2 2.5-2.7 4.8-5.8 6.6-9.1.2 3.1-.8 6.1-2.7 8.6-.3.3.2.8.5.5 2.6-3 3.6-6.7 2.9-10.6-.1-.3-.6-.3-.8 0zM61.7 60.1c.3-.3-.2-.8-.5-.5-2.2 2.1-4 4.6-5.2 7.4-.4 1-2.2 4.3-.6 5.1.2.1.4.1.6-.1 1-.7 1.6-1.9 2.3-2.9 1-1.3 2-2.6 2.9-4 .2-.4-.3-.8-.6-.5-1 1.1-1.9 2.4-2.8 3.6-.1.1-1.5 2.2-1.6 2.2-.5-.2.1-1.4.2-1.7 1-3.3 2.9-6.2 5.3-8.6zm31.5-14.8c-3.1 1.9-5.9 3.8-9.4 5-.4.1-.2.8.2.7 3.4-1 7-2.6 9.6-5.1.3-.3 0-.8-.4-.6zm21.1-12.5c6.7-1 14.3-3.4 20-7.5-1.1 2.6-2.7 4.9-4.6 7-.2.2.1.6.3.4 2.6-2 4.5-4.7 5.3-7.9v-.2c.3-.2.6-.4.8-.7.2-.2-.1-.6-.3-.4-7.2 3.6-13.7 6.9-21.6 8.8-.4 0-.3.5.1.5zm12.5 4.9c8.4 1.2 14.5 5.1 19.4 11.5-3.7-3.2-8.7-4.8-13.5-4.6-.5 0-.4.7 0 .7 5.2.5 9.4 2.1 13.9 4.9.1.1.3 0 .4-.1.2.3.4.6.7.9.3.4.9.1.7-.4-3.5-8.1-12.8-13.5-21.4-13.6-.5 0-.6.6-.2.7zm-12.6 29.1c.1-5.2-2.4-10.5-7.2-12.9-.2-.1-.5.2-.3.4 3.8 3 6.3 6.8 6.8 11.6-4.5-6.6-12.4-10.6-20.3-10.9 12.1-4.1 22.9-12.2 30.6-22.1.3-.3 0-1-.5-.8-4.9 1.7-9.8 3.6-14.7 5.6-.3.1-.1.6.2.5 3.1-1 6.2-2 9.2-3.1.8-.3 3.2-1.6 3.9-1.5.2 0-1.4 1.8-1.8 2.2-3.6 4-7.6 7.5-12.1 10.5-8.9 6-18.7 9.2-29.2 11.1-.3 0-.2.5.1.5 4.5-.3 8.9-1.2 13.2-2.5 0 .1.1.2.2.2 8.9.8 15.8 5.1 21.3 12 .3.3.8-.1.6-.4.1-.3.1-.3 0-.4zm19.9-10c.4-.1.3-.8-.1-.7-8.6.7-16.2-.2-24.6-1.8-.2 0-.4.3-.2.4 3.2 1.4 6.8 2.3 10.4 2.7 5.7 4.4 13.5 7.2 20.7 6.4.4 0 .4-.5 0-.6-7.2-.8-13.1-2.2-19.2-5.7 4.4.4 8.8.1 13-.7zm5.1-9.6c-.1-.2-.5 0-.4.2 3.1 6 8.5 11.2 15.1 13.2-4.7.2-8.6-.9-12.4-4.2-.2-.2-.6.1-.4.3 3.2 4.2 9.6 6.4 14.6 4.4l.1-.1c.4.1.6-.5.2-.7-7-2.8-12.8-6.6-16.8-13.1zm17.1 53c-2.1-2.4-4.2-4.6-5.7-7.4-1.4-2.6-1.9-5.2-2.8-7.9 1.5 1.2 3.2 2.2 5.1 2.9l.3.3c.1.2.4.1.5-.1.1 0 .1.1.2.1.3.1.5-.4.2-.6-.3-.2-.6-.3-.9-.5-3.2-4.7-4.6-9.3-5.2-15 2.1 1.4 4.1 2.9 5.8 4.9 0 .1.1.2.1.3.1.2.4.2.5 0 .1-.1.2-.3.1-.4-.1-.1-.1-.2-.2-.3-1.7-7.8-7.4-14.6-13.6-19.2-.2-.1-.4.2-.2.3 5.6 4.8 9 10.4 12.1 16.8-1.9-2-4.2-3.6-6.8-4.3-.3-.1-.4.3-.2.5.6.3 1.2.7 1.8 1.1 0 .1-.1.1-.1.2-.4 5 1.3 10.2 4.3 14.3-4.3-2.7-7.8-6.1-10.2-10.7-.2-.4-.7-.1-.6.3 1.4 3.3 3.6 6.3 6.4 8.6-.3 4.1 1.8 8.9 4.7 12.6-4.2-2.8-7.6-6.2-9.8-10.7 0-.1 0-.2-.1-.2-.6-1.3-1.2-2.8-1.6-4.3-.1-.3-.6-.2-.5.1.3 1.5.8 3.1 1.4 4.6-1.2 1.7-2.3 4.3-2.3 6.6-2.6-7.9-3.1-15.1-2-23.4 0-.3-.2-.4-.4-.3.1-.5.2-1 .2-1.5.1-.4-.6-.4-.7-.1-1 2.8-1.9 5.5-3 8.2.2-4-.6-8-2-11.8-.1-.3-.6-.2-.5.2 1.5 4.6 1.7 9.3 1.6 14.1-.1.2-.2.4-.3.7-.2.4.4.6.7.3 1.1-1.7 2.1-3.7 2.8-5.7-1.1 7 .1 14.5 3.2 20.7.1.2.4.2.6.1v.1c.1.3.5.3.6 0 .5-1.3.4-2.8.8-4.2.3-1 .7-2 1.1-3 2.3 5.1 6.4 9.5 11.7 11.3.8.8 1.6 1.6 2.5 2.2.3 0 .6-.5.4-.8zm-96.8-70c1.7 5.5 1.7 10.5 1.2 16.1 0 .5.7.5.8.1 1.3-5.3.6-11-1.2-16.1 3.4 3 5.3 6.2 6.1 10.9 0 .2.4.2.4-.1.1-4.6-2.7-9.7-6.9-11.7-.2-.1-.5.2-.3.4-.1 0-.1.2-.1.4z" fill="#a8815a" stroke-width="none" opacity="1" stroke="none"></path></g><g id="svga-group-glasses-single-move" transform="matrix(1,0,0,1,0,0)"><g id="svga-group-glasses-single" transform="matrix(1,0,0,1,0,0)"></g></g></g></g></g><rect id="svga-credit-rect" width="200" height="15" x="0" y="185" fill="#ecf0f1" opacity="0.5" style="display: none;"></rect><text id="svga-credit-text" font-family="Avenir Next, Roboto, Helvetica, Arial, sans-serif" font-size="10px" text-anchor="start" font-weight="400" size="10px" anchor="start" weight="400" fill="#333333" x="33.40447998046875" y="182.60824704170227" style="display: none;"><tspan id="SvgjsTspan37746" dy="13" x="33.40447998046875">Created on AvatarMaker.com</tspan></text></g></svg>